<svg id="Layer_1" data-name="Layer 1" xmlns="http://www.w3.org/2000/svg" viewBox="0 0 20 20"><defs><style>.cls-1{fill:#02539f;stroke:#02539f;stroke-miterlimit:10;stroke-width:0.24px;}</style></defs><path class="cls-1" d="M8.66,4A2.26,2.26,0,0,1,8.36.67,2.22,2.22,0,0,1,11.49.52a2.15,2.15,0,0,1,.75,1.77A2.3,2.3,0,0,1,11.35,4l1.15.38A2,2,0,0,1,14,6.43c0,.22,0,.44,0,.65a.8.8,0,0,1-.83.83H6.86A.8.8,0,0,1,6,7.09a6.4,6.4,0,0,1,0-1A1.88,1.88,0,0,1,7.38,4.43C7.79,4.28,8.21,4.15,8.66,4ZM10,7.19h3c.16,0,.24,0,.23-.21s0-.49,0-.73a1.14,1.14,0,0,0-.78-1.1c-.61-.22-1.23-.42-1.84-.61a1.66,1.66,0,0,0-1-.06c-.72.22-1.45.44-2.16.7a1.14,1.14,0,0,0-.71,1.07c0,.23,0,.46,0,.68s.07.26.27.26C8,7.18,9,7.19,10,7.19Zm1.5-5A1.5,1.5,0,1,0,10,3.71,1.5,1.5,0,0,0,11.5,2.19Z"/><path class="cls-1" d="M2.39,16.25A2.21,2.21,0,0,1,2.18,13a2.18,2.18,0,1,1,2.87,3.27l.21.08c.37.12.74.23,1.09.37a1.85,1.85,0,0,1,1.21,1.72q0,.4,0,.81a.77.77,0,0,1-.79.81H.67a.74.74,0,0,1-.78-.67,6,6,0,0,1,0-1.2,1.82,1.82,0,0,1,1.31-1.52Zm1.34,3.06H6.62c.18,0,.24,0,.22-.23s0-.37,0-.56A1.16,1.16,0,0,0,6,17.32c-.52-.18-1-.38-1.58-.52a1.89,1.89,0,0,0-.91-.07,18.81,18.81,0,0,0-2.21.68,1,1,0,0,0-.67,1c0,.22,0,.44,0,.66s.06.24.24.23ZM5.16,14.5a1.44,1.44,0,1,0-2.88,0A1.46,1.46,0,0,0,3.71,16,1.46,1.46,0,0,0,5.16,14.5Z"/><path class="cls-1" d="M17.62,16.25l1.05.35a1.9,1.9,0,0,1,1.47,2c0,.21,0,.42,0,.63a.77.77,0,0,1-.78.78H13.22a.77.77,0,0,1-.77-.78,5.57,5.57,0,0,1,0-1.08,1.82,1.82,0,0,1,1.3-1.53l1.2-.39a2.18,2.18,0,0,1-.83-2.06,2.07,2.07,0,0,1,.8-1.39,2.17,2.17,0,0,1,3,.24A2.21,2.21,0,0,1,17.62,16.25Zm-1.35,3.06h2.91c.17,0,.25,0,.24-.22a4.87,4.87,0,0,1,0-.54,1.17,1.17,0,0,0-.89-1.24c-.52-.18-1-.37-1.58-.52a1.89,1.89,0,0,0-.88-.06,21.78,21.78,0,0,0-2.22.67,1,1,0,0,0-.67,1c0,.22,0,.43,0,.64s0,.27.26.27C14.37,19.3,15.32,19.31,16.27,19.31Zm0-6.25a1.44,1.44,0,0,0-1.43,1.46,1.44,1.44,0,1,0,1.43-1.46Z"/><path class="cls-1" d="M4.08,9c.1-.05.17-.12.24-.12s.31,0,.38.1a.44.44,0,0,1,0,.38,8,8,0,0,1-.87.88c-.14.13-.32,0-.45-.08S3,9.7,2.79,9.49,2.58,9.11,2.72,9a.39.39,0,0,1,.55,0L3.36,9V3a1.09,1.09,0,0,1,1.2-1.2c.34,0,.69,0,1,0S6,2,6,2.18s-.16.37-.42.38H4.47a.35.35,0,0,0-.39.38Z"/><path class="cls-1" d="M16.65,9l.13-.1a.36.36,0,0,1,.49,0,.34.34,0,0,1,0,.49q-.35.38-.72.72a.35.35,0,0,1-.54,0l-.65-.66A.36.36,0,0,1,15.29,9a.38.38,0,0,1,.53,0l.09.07a2.06,2.06,0,0,0,0-.21V3.05c0-.37-.12-.49-.48-.49h-1c-.27,0-.43-.15-.44-.36s.16-.36.45-.36.72,0,1.08,0A1.08,1.08,0,0,1,16.65,3V9Z"/><path class="cls-1" d="M10,15.71A3.65,3.65,0,0,1,6.39,11.9a3.61,3.61,0,0,1,.38-1.48,1.62,1.62,0,0,1,.3-.39.32.32,0,0,1,.42,0,.35.35,0,0,1,.11.43l-.07.13a2.83,2.83,0,0,0,.4,3.5,2.88,2.88,0,0,0,3.58.46c.23-.13.43-.11.55.05a.38.38,0,0,1-.14.55,3.15,3.15,0,0,1-1.39.5A5,5,0,0,1,10,15.71Z"/><path class="cls-1" d="M10,8.45a3.63,3.63,0,0,1,3.66,3.7,7.48,7.48,0,0,1-.32,1.46,1.17,1.17,0,0,1-.24.38.34.34,0,0,1-.47.07c-.16-.09-.18-.28-.11-.48a5.34,5.34,0,0,0,.38-1.08,2.86,2.86,0,0,0-2.37-3.28,2.78,2.78,0,0,0-1.91.34c-.25.14-.46.1-.57-.09s0-.39.21-.54A3.36,3.36,0,0,1,10,8.45Z"/><path class="cls-1" d="M12,11.3a1,1,0,0,1-.2.26L9.4,13.16a.36.36,0,0,1-.52-.07l-.72-.72a.36.36,0,1,1,.51-.51,5.55,5.55,0,0,1,.42.42c.1.12.18.13.32,0,.64-.44,1.3-.87,1.95-1.3.24-.17.47-.13.58.08A1.27,1.27,0,0,1,12,11.3Z"/></svg>