<svg id="Layer_1" data-name="Layer 1" xmlns="http://www.w3.org/2000/svg" viewBox="0 0 20 20"><defs><style>.cls-1{fill:#02539f;stroke:#02539f;stroke-miterlimit:10;stroke-width:0.24px;}</style></defs><path class="cls-1" d="M20.08,1.44v11c-.48,1.11-.79,1.31-2.07,1.31H17c0,.46,0,.88,0,1.31a1.52,1.52,0,0,1-1.74,1.7H13.84c0,.56,0,1.06,0,1.56a1.48,1.48,0,0,1-1.08,1.42l-.41.11H1.44c-1.31-.4-1.52-.69-1.52-2V7.93A1.53,1.53,0,0,1,1.66,6.22H3l0-.09c0-.5,0-1,0-1.5A1.46,1.46,0,0,1,4.41,3.21c.2,0,.4,0,.59,0,.36,0,.86.1,1-.08s.1-.68.1-1c0-1.22.24-1.56,1.4-2H18.74A1.85,1.85,0,0,1,20.08,1.44ZM18.55,7c0-1.62,0-3.24,0-4.86,0-.39-.12-.49-.51-.49H8.69c-1.07,0-1.07,0-1.07,1,0,.5,0,.5.53.5h7a1.79,1.79,0,0,1,1.22.35A1.64,1.64,0,0,1,17,4.92c0,2.33,0,4.66,0,7,0,.3.08.43.4.4a5.21,5.21,0,0,1,.79,0c.33,0,.43-.09.42-.41C18.54,10.26,18.55,8.62,18.55,7Zm-14-.77h7.59a1.53,1.53,0,0,1,1.72,1.7v7.4c.41,0,.78,0,1.14,0s.46-.07.46-.42c0-3.26,0-6.53,0-9.79,0-.37-.13-.45-.48-.45H5c-.07,0-.15,0-.2,0s-.23.13-.24.21C4.52,5.31,4.53,5.73,4.53,6.22Zm.4,8.39c-.72-.72-1.41-1.4-2.11-2.08a.8.8,0,0,0-1.16,0,.75.75,0,0,0,.06,1.13c.85.83,1.71,1.67,2.58,2.49.59.56.88.54,1.46,0l4.78-4.71c.29-.28.58-.56.85-.86a.72.72,0,0,0,0-1,.79.79,0,0,0-1.07-.07c-.12.09-.22.2-.32.29L5.3,14.27Z"/></svg>