<svg xmlns="http://www.w3.org/2000/svg" width="30" height="30" viewBox="0 0 30 30">
  <defs>
    <style>
      .cls-1 {
        fill: #d9d9d9;
        fill-rule: evenodd;
      }
    </style>
  </defs>
  <path id="aadhaar" class="cls-1" d="M1457.12,300h-18.24a6.032,6.032,0,0,1-5.88-6.177v-8.647a6.032,6.032,0,0,1,5.88-6.176h18.24a6.032,6.032,0,0,1,5.88,6.176v8.647A6.032,6.032,0,0,1,1457.12,300Zm4.11-15.178a3.9,3.9,0,0,0-3.78-4.009h-18.9a3.9,3.9,0,0,0-3.78,4.009v9.355a3.9,3.9,0,0,0,3.78,4.009h18.9a3.9,3.9,0,0,0,3.78-4.009v-9.355Zm-15.35,9.652a0.374,0.374,0,0,1-.36-0.388,2.75,2.75,0,0,0-1.62-2.569,0.332,0.332,0,0,1-.08-0.019,2.359,2.359,0,0,0-.84-0.154h-0.54a2.3,2.3,0,0,0-.69.108,0.9,0.9,0,0,0-.1.033,2.779,2.779,0,0,0-1.76,2.644,0.357,0.357,0,1,1-.71,0,3.455,3.455,0,0,1,3.01-3.556c0.04,0,.08,0,0.12-0.007s0.09-.007.13-0.007H1443c0.04,0,.07,0,0.1,0,0.06,0,.12,0,0.18.01s0.14,0.018.21,0.03c0.02,0,.04,0,0.06.009,0.08,0.016.16,0.035,0.25,0.058h0a3.477,3.477,0,0,1,2.43,3.415A0.366,0.366,0,0,1,1445.88,294.474Zm-3.2-4.7a2.659,2.659,0,1,1,2.42-2.648A2.549,2.549,0,0,1,1442.68,289.774Zm0-4.511a1.871,1.871,0,1,0,1.7,1.863A1.8,1.8,0,0,0,1442.68,285.263Zm7.11,0.128h7.88a0.913,0.913,0,1,1,0,1.826h-7.88A0.913,0.913,0,0,1,1449.79,285.391Zm0,3.652h7.88a0.913,0.913,0,1,1,0,1.826h-7.88A0.913,0.913,0,0,1,1449.79,289.043Zm0,3.652h4.36a0.914,0.914,0,0,1,0,1.827h-4.36A0.914,0.914,0,0,1,1449.79,292.7Z" transform="translate(-1433 -274.5)"/>
</svg>
