<svg xmlns="http://www.w3.org/2000/svg" width="24" height="25" viewBox="0 0 24 25">
  <defs>
    <style>
      .cls-1 {
        fill: #0073e0;
        fill-rule: evenodd;
      }
    </style>
  </defs>
  <path id="Account_no" class="cls-1" d="M379.986,865.19H381.7l-2.411-6.793h-1.879L375,865.19h1.7l0.4-1.2h2.487Zm-2.458-2.477,0.816-2.487,0.826,2.487h-1.642ZM384,858l-1.544,7h1.566l1.544-7H384Zm2.49,3.787a3.686,3.686,0,0,0,.427,1.79,3.085,3.085,0,0,0,1.192,1.224,3.4,3.4,0,0,0,1.732.441,3.29,3.29,0,0,0,2.031-.634,3.054,3.054,0,0,0,1.13-1.737h-1.785a1.459,1.459,0,0,1-.564.648,1.562,1.562,0,0,1-.831.223,1.537,1.537,0,0,1-1.215-.533,2.408,2.408,0,0,1,0-2.845,1.536,1.536,0,0,1,1.215-.532,1.57,1.57,0,0,1,.831.222,1.467,1.467,0,0,1,.564.649H393a3.073,3.073,0,0,0-1.13-1.742,3.269,3.269,0,0,0-2.031-.639,3.4,3.4,0,0,0-1.732.441,3.079,3.079,0,0,0-1.192,1.229,3.714,3.714,0,0,0-.427,1.795h0Zm-2.514-7.453H372.622a0.517,0.517,0,0,1-.615-0.518,0.532,0.532,0,0,1,.322-0.471q2.293-1.268,4.583-2.541,3.341-1.854,6.681-3.71a0.736,0.736,0,0,1,.794-0.006q5.618,3.128,11.241,6.242a0.515,0.515,0,0,1,.328.662,0.479,0.479,0,0,1-.43.338,2.788,2.788,0,0,1-.317,0H383.977Zm9.441-1.087c-0.089-.059-0.114-0.078-0.141-0.093q-4.551-2.523-9.1-5.051a0.372,0.372,0,0,0-.417.031q-4.05,2.25-8.1,4.494c-0.348.193-.694,0.388-1.042,0.582l0.015,0.037h18.783Zm-9.409,14.91h10.647c0.146,0,.292,0,0.438,0a0.9,0.9,0,0,1,.9.9c0.012,0.672.011,1.345,0,2.017a0.9,0.9,0,0,1-.877.914c-0.169.014-.34,0.015-0.51,0.015H373.262c-0.146,0-.292,0-0.437-0.018a0.878,0.878,0,0,1-.815-0.839c-0.012-.713-0.015-1.426,0-2.138a0.891,0.891,0,0,1,.937-0.849q1.644,0,3.289,0h7.773Zm-10.981-13.391h21.934c0,0.408.012,0.8,0,1.19a0.472,0.472,0,0,1-.5.456c-1.843.006-3.687,0-5.53,0.008-1,0-2,.012-3,0.011-2.184,0-4.369-.014-6.554-0.014-1.494,0-2.988.011-4.482,0.014-0.439,0-.877-0.007-1.315-0.017a0.5,0.5,0,0,1-.549-0.538C373.023,855.507,373.028,855.14,373.028,854.763Zm21.936,12.925H373.035c0-.361-0.015-0.711,0-1.059a0.471,0.471,0,0,1,.46-0.419c0.065,0,.13,0,0.195,0h20.587a0.551,0.551,0,0,1,.682.67v0.809Z" transform="translate(-372 -847)"/>
</svg>
