<svg id="Layer_1" data-name="Layer 1" xmlns="http://www.w3.org/2000/svg" viewBox="0 0 20 20"><defs><style>.cls-1{fill:#02539f;}</style></defs><path class="cls-1" d="M14.23.75a4.33,4.33,0,0,1,.88.38A2,2,0,0,1,16,2.89v7.85c0,2.23,0,4.47,0,6.71a2,2,0,0,1-1.4,2,2.37,2.37,0,0,1-.7.1H6.12A2,2,0,0,1,4,17.48c0-1.2,0-2.4,0-3.6v-11A2,2,0,0,1,5.4.85l.37-.1ZM6.76,1.85H6.11a.92.92,0,0,0-1,1V17.5a.91.91,0,0,0,1,1h7.73a1,1,0,0,0,.79-.32,1,1,0,0,0,.23-.71c0-4.85,0-9.71,0-14.56a.76.76,0,0,0,0-.15.84.84,0,0,0-.72-.84,5.51,5.51,0,0,0-.91,0q-.18.81-.36,1.65a.58.58,0,0,1-.66.53H7.82a.59.59,0,0,1-.69-.56C7,3,6.89,2.41,6.76,1.85Zm5.34,0H7.9c.08.34.15.67.23,1A.18.18,0,0,0,8.27,3h3.47a.17.17,0,0,0,.13-.1C12,2.53,12,2.2,12.1,1.86Z"/><path class="cls-1" d="M9.12,12.28V13a.4.4,0,0,1-.43.44H7.2A.39.39,0,0,1,6.77,13v-1.5a.4.4,0,0,1,.43-.42H8.69a.4.4,0,0,1,.43.43Zm-1.56.38h.76v-.75H7.56Z"/><path class="cls-1" d="M9.12,15.42v.74a.41.41,0,0,1-.43.44H7.2a.4.4,0,0,1-.43-.43V14.66a.4.4,0,0,1,.43-.42H8.69a.41.41,0,0,1,.43.44Zm-1.56.37h.76V15H7.56Z"/><path class="cls-1" d="M7.94,10.32H7.22a.4.4,0,0,1-.45-.43V8.42A.4.4,0,0,1,7.22,8H8.67a.41.41,0,0,1,.45.45V9.87a.4.4,0,0,1-.45.45Zm-.38-.79h.76V8.77H7.56Z"/><path class="cls-1" d="M7.94,7.19H7.19a.39.39,0,0,1-.42-.4V5.25a.39.39,0,0,1,.41-.4H8.7a.4.4,0,0,1,.42.42v1.5a.4.4,0,0,1-.43.42Zm.38-1.55H7.57v.77h.75Z"/><path class="cls-1" d="M11.7,13.37h.92a.54.54,0,0,1,.61.51.53.53,0,0,1-.6.5H10.78c-.37,0-.62-.22-.61-.52s.25-.49.61-.49Z"/><path class="cls-1" d="M11.7,15.37h.92a.54.54,0,0,1,.61.51.53.53,0,0,1-.6.5c-.62,0-1.24,0-1.85,0-.37,0-.62-.22-.61-.51a.55.55,0,0,1,.61-.5Z"/><path class="cls-1" d="M11.71,6.35h-1a.5.5,0,1,1,0-1h1.95a.51.51,0,0,1,.55.51.53.53,0,0,1-.55.49Z"/><path class="cls-1" d="M11.7,8.35h-1a.5.5,0,1,1,0-1h1.93a.52.52,0,0,1,.57.5.52.52,0,0,1-.57.5Z"/><path class="cls-1" d="M11.7,10.36h-.94a.52.52,0,0,1-.59-.51.53.53,0,0,1,.59-.49h1.89a.52.52,0,0,1,.58.5.53.53,0,0,1-.58.5h-1Z"/><path class="cls-1" d="M11.7,12.37h-.93a.53.53,0,0,1-.6-.5.54.54,0,0,1,.6-.5h1.86a.54.54,0,0,1,.6.5.53.53,0,0,1-.59.5Z"/></svg>