<?xml version="1.0" encoding="utf-8"?>
<!-- Generator: Adobe Illustrator 25.3.0, SVG Export Plug-In . SVG Version: 6.00 Build 0)  -->
<svg version="1.1" id="Layer_1" xmlns="http://www.w3.org/2000/svg" xmlns:xlink="http://www.w3.org/1999/xlink" x="0px" y="0px"
	 viewBox="0 0 96.9 20" style="enable-background:new 0 0 96.9 20;" xml:space="preserve">
<style type="text/css">
	.st0{fill:none;stroke:#00539E;stroke-width:0.967;stroke-miterlimit:10;}
	.st1{fill:#00539E;}
	.st2{fill:#00539E;stroke:#00539E;stroke-width:0.1889;stroke-miterlimit:10;}
	.st3{fill:#00539E;stroke:#00539E;stroke-width:0.2248;stroke-miterlimit:10;}
	.st4{fill:#00539E;stroke:#00539E;stroke-width:8.094300e-02;stroke-miterlimit:10;}
	.st5{fill:none;stroke:#00539E;stroke-width:0.6745;stroke-miterlimit:10;}
	.st6{font-family:'Poppins-Medium';}
	.st7{font-size:12px;}
</style>
<path class="st0" d="M93.9,19.5H3c-1.3,0-2.4-1.1-2.4-2.4V3c0-1.3,1.1-2.4,2.4-2.4h90.9c1.3,0,2.4,1.1,2.4,2.4v14.1
	C96.3,18.4,95.2,19.5,93.9,19.5z"/>
<path class="st1" d="M87.9,16.6c-0.1,0-0.1-0.1-0.2-0.1c-0.1-0.1-0.2-0.2-0.1-0.3V15c0-0.1,0-0.1-0.1-0.1h-1.2c-0.1,0-0.2,0-0.3-0.1
	c-0.1-0.1-0.1-0.2-0.1-0.4c0-0.1,0.2-0.2,0.3-0.3h1.3c0.1,0,0.1,0,0.1-0.1v-1.2c0-0.2,0.1-0.4,0.3-0.4s0.4,0.1,0.4,0.3
	c0,0,0,0.1,0,0.1V14c0,0.1,0,0.1,0.1,0.1h1.2c0.1,0,0.2,0,0.3,0.1c0.1,0.1,0.1,0.1,0.1,0.2v0.2c0,0.1-0.1,0.1-0.1,0.2
	c-0.1,0.1-0.2,0.1-0.3,0.1h-1.2c-0.1,0-0.1,0-0.1,0.1v1.2c0,0.1,0,0.2-0.2,0.3C88.1,16.5,88.1,16.5,87.9,16.6L87.9,16.6z"/>
<path class="st1" d="M87.9,18.3c-2.1,0-3.8-1.8-3.7-3.9s1.8-3.8,3.9-3.7c2.1,0,3.8,1.8,3.7,3.9C91.8,16.7,90,18.3,87.9,18.3z
	 M87.9,11.7c-1.5,0-2.8,1.3-2.8,2.8c0,1.5,1.3,2.8,2.8,2.8c1.5,0,2.8-1.3,2.8-2.8C90.7,13,89.5,11.8,87.9,11.7L87.9,11.7z"/>
<path class="st2" d="M81.1,3.3c2.9-0.4,5.8,1.3,6.9,4c0.2,0.5,0.4,1.1,0.4,1.7c0,0.2-0.1,0.5-0.3,0.5c0,0,0,0,0,0
	c-0.2,0-0.4-0.2-0.5-0.4c0,0,0,0,0,0c-0.4-2.8-2.8-5-5.7-5c-2.4,0-4.6,1.5-5.4,3.8c-0.4,0.9-0.5,2-0.3,3c0.5,2.3,2.2,4,4.5,4.5
	c0.6,0.1,1.2,0.1,1.8,0.1c0.2,0,0.5,0.2,0.5,0.4s-0.2,0.5-0.4,0.5l0,0c-3,0.4-5.9-1.4-7-4.3c-0.9-2.2-0.4-4.8,1.2-6.5
	c0.9-1,2.1-1.8,3.4-2.1C80.6,3.4,80.8,3.3,81.1,3.3z"/>
<path class="st3" d="M77.8,10.2c-0.2-2.3,1.5-4.3,3.8-4.5c2-0.2,3.9,1.1,4.4,3.1C86,9,86,9.2,86,9.4c0,0.3-0.1,0.5-0.4,0.6
	c0,0,0,0,0,0C85.3,10,85,9.8,85,9.5c0,0,0,0,0,0c-0.1-1.1-0.8-2.1-1.9-2.5c-1.5-0.7-3.4,0-4.1,1.5s0,3.4,1.5,4.1
	c0.4,0.2,0.8,0.3,1.2,0.3h0.5c0.3,0,0.5,0.2,0.6,0.5c0,0.3-0.2,0.5-0.5,0.6c0,0,0,0,0,0c-2,0.2-3.8-1-4.4-3
	C77.9,10.7,77.8,10.4,77.8,10.2z"/>
<path class="st4" d="M80.3,10c-0.1-0.9,0.6-1.6,1.5-1.7c0.7,0,1.4,0.4,1.6,1.1c0,0.1,0,0.1,0,0.2c0,0.1-0.1,0.2-0.2,0.2c0,0,0,0,0,0
	c-0.1,0-0.2-0.1-0.2-0.2c0-0.4-0.3-0.8-0.7-1c-0.6-0.3-1.3,0-1.5,0.6c-0.3,0.6,0,1.3,0.6,1.5c0.1,0.1,0.3,0.1,0.4,0.1H82
	c0.1,0,0.2,0.1,0.2,0.2c0,0.1-0.1,0.1-0.2,0.2c-0.8,0.1-1.5-0.4-1.7-1.1L80.3,10z"/>
<path class="st5" d="M89,4.2l1.1,0.2l0.7,0.1c0.2,0,0.4,0.2,0.4,0.4c0.1,0.2,0,0.4-0.1,0.6c-0.1,0.1-0.1,0.1-0.2,0.2l-2.1,1.7
	c-0.2,0.2-0.4,0.2-0.6,0.2c-0.6-0.1-1.2-0.2-1.8-0.3c-0.1,0-0.2,0-0.3,0.1L82.8,10c-0.2,0.2-0.4,0.2-0.6,0.2
	c-0.3-0.1-0.5-0.4-0.4-0.7c0-0.1,0.1-0.2,0.1-0.2C82,9.1,82,9.1,82.1,9l3.2-2.6c0.1-0.1,0.2-0.2,0.2-0.3c0-0.6,0.1-1.3,0.1-1.9
	c0-0.2,0.1-0.4,0.3-0.5L88.1,2c0.2-0.2,0.4-0.2,0.7-0.1c0.2,0.1,0.4,0.4,0.3,0.6C89.1,3.1,89.1,3.7,89,4.2z M86.6,6.1l1.5,0.2
	c0.1,0,0.1,0,0.2-0.1l1-0.8c0,0,0.1-0.1,0.1-0.1l-1-0.2c-0.2,0-0.4-0.2-0.5-0.4c0-0.1,0-0.3,0-0.4c0-0.3,0-0.6,0.1-0.9
	c-0.3,0.3-0.6,0.5-0.9,0.7c-0.2,0.1-0.3,0.3-0.3,0.6C86.7,5.3,86.7,5.7,86.6,6.1z"/>
<text transform="matrix(1 0 0 1 5.3422 13.897)" class="st1 st6 st7">Add Target</text>
</svg>
