<svg xmlns="http://www.w3.org/2000/svg" width="19" height="19" viewBox="0 0 19 19">
  <defs>
    <style>
      .cls-1 {
        fill: #0072de;
        fill-rule: evenodd;
      }
    </style>
  </defs>
  <path id="Shape_550_1_copy" data-name="Shape 550 1 copy" class="cls-1" d="M1021.44,127.8c-1.33,0-2.67,0-4.01,0-0.12,0-.16-0.035-0.15-0.156,0.01-.088,0-0.179.01-0.267a0.353,0.353,0,0,1,.32-0.358,1.14,1.14,0,0,1,.21-0.013q2.73,0,5.46,0c0.54,0,1.08,0,1.62-.007h0.13c0.59,0,.63.25,0.58,0.725a0.059,0.059,0,0,1-.07.07c-0.04,0-.07,0-0.11,0h-3.99Zm5.49,2.127v0a0.748,0.748,0,0,0-.29-0.374c-0.21-.241-0.43-0.481-0.65-0.722a4.07,4.07,0,0,0-.36-0.4,0.54,0.54,0,0,0-.43-0.184q-3.735,0-7.47,0a0.568,0.568,0,0,0-.24.045,0.97,0.97,0,0,0-.15.117c-0.42.441-.82,0.889-1.22,1.345a0.545,0.545,0,0,0-.12.557,1.077,1.077,0,0,0,1.13.753c0.13-.01.16,0.026,0.16,0.154-0.01,1.675-.01,3.349-0.01,5.024a2.611,2.611,0,0,0,.01.28,0.472,0.472,0,0,0,.28.452c0.11,0.008.21,0.024,0.31,0.024q3.585,0,7.15,0a2.052,2.052,0,0,0,.25-0.019,0.333,0.333,0,0,0,.31-0.291,2.276,2.276,0,0,0,.03-0.452v-5.106c0-.064.02-0.083,0.09-0.072a1.043,1.043,0,0,0,.42-0.009,1.1,1.1,0,0,0,.8-0.73A0.5,0.5,0,0,0,1026.93,129.922Zm-2.18,4.711q-3.3,0-6.58,0c-0.09,0-.11-0.025-0.11-0.112,0.01-.851,0-3.2,0-4.053a0.949,0.949,0,0,1,.09-0.294,1.155,1.155,0,0,0,1.1.9,1.142,1.142,0,0,0,1.12-.921,1.109,1.109,0,0,0,1.13.921,1.153,1.153,0,0,0,1.08-.912,1.106,1.106,0,0,0,1.11.912,1.147,1.147,0,0,0,1.09-.881,0.411,0.411,0,0,1,.08.254c-0.01.86-.01,3.22,0,4.08A0.09,0.09,0,0,1,1024.75,134.633Zm1.65,5.522a0.738,0.738,0,0,0,.39-0.007c0.64-.22,1.51-0.617,2.11-0.844a0.8,0.8,0,0,0,.29-0.238c0.12-.16.22-0.337,0.36-0.546,0.21,0.815.4,1.582,0.59,2.351a0.346,0.346,0,0,1-.04.219c-0.57,1.313-1.14,2.626-1.72,3.937a0.644,0.644,0,0,0,.02.657,0.716,0.716,0,0,0,1.22-.053c0.31-.549.61-1.108,0.91-1.663,0.53-.979,1.05-1.965,1.6-2.935a1.988,1.988,0,0,0,.18-1.646c-0.09-.3-0.15-0.616-0.23-0.965,0.18,0.145.33,0.264,0.47,0.387,0.52,0.438,1.02.885,1.55,1.309a0.555,0.555,0,0,0,.83-0.2,0.446,0.446,0,0,0-.12-0.578c-1.1-1.043-2.2-2.09-3.32-3.121a1.736,1.736,0,0,0-.68-0.392,1.251,1.251,0,0,0-1.45.569c-0.37.6-.72,1.213-1.08,1.817a0.556,0.556,0,0,1-.21.181c-0.46.209-1.23,0.517-1.72,0.738a0.516,0.516,0,0,0-.35.53A0.5,0.5,0,0,0,1026.4,140.155Zm1.73-5.882a1.35,1.35,0,0,0,1.38,1.258,1.268,1.268,0,1,0-.01-2.531A1.345,1.345,0,0,0,1028.13,134.273Zm5.84-.9a0.793,0.793,0,0,1-.79-0.8V130.2a1.585,1.585,0,0,0-1.57-1.6h-1.68a0.913,0.913,0,0,1-.78-0.884,0.778,0.778,0,0,1,.78-0.717h1.68c1.73,0,3.14.207,3.14,1.972v3.606A0.791,0.791,0,0,1,1033.97,133.374Zm-16.4,6.425v2.884a1.584,1.584,0,0,0,1.57,1.6h5.46a0.8,0.8,0,0,1,0,1.6h-5.46a3.175,3.175,0,0,1-3.14-3.2V139.8C1016,138.034,1017.71,138.5,1017.57,139.8Zm15.19,3.513a0.632,0.632,0,0,1-.1-0.184c-0.14-.446-0.28-0.893-0.44-1.382-0.36.659-.69,1.277-1.02,1.9a0.234,0.234,0,0,0,.01.164,0.639,0.639,0,0,0,.14.206c0.59,0.594,1.17,1.189,1.77,1.776a0.719,0.719,0,0,0,1.09-.085,0.612,0.612,0,0,0-.07-0.8Q1033.45,144.11,1032.76,143.312Z" transform="translate(-1016 -127)"/>
</svg>
