<svg xmlns="http://www.w3.org/2000/svg" width="80" height="78.969" viewBox="0 0 80 78.969">
  <defs>
    <style>
      .cls-1 {
        fill: #fff;
        fill-rule: evenodd;
      }
    </style>
  </defs>
  <path id="Shape_550_1_copy_2" data-name="Shape 550 1 copy 2" class="cls-1" d="M596.021,422.3c-5.631,0-11.261-.007-16.892.012-0.51,0-.683-0.143-0.623-0.65,0.043-.365,0-0.741.042-1.108a1.474,1.474,0,0,1,1.359-1.488,4.849,4.849,0,0,1,.87-0.053q11.479,0,22.958.014c2.278,0,4.555-.02,6.833-0.03h0.546c2.487,0.008,2.625,1.038,2.432,3.011a0.265,0.265,0,0,1-.306.291c-0.146,0-.291,0-0.437,0H596.021Zm23.058,8.838,0.006,0.01a3.088,3.088,0,0,0-1.2-1.555l-2.73-3a21.985,21.985,0,0,0-1.536-1.649,2.211,2.211,0,0,0-1.792-.764q-15.713.009-31.424,0a2.244,2.244,0,0,0-1,.189,4.6,4.6,0,0,0-.655.484q-2.625,2.749-5.149,5.593a2.213,2.213,0,0,0-.467,2.313,4.5,4.5,0,0,0,4.741,3.13c0.549-.04.652,0.108,0.65,0.639q-0.027,10.44-.01,20.88c0,0.388.006,0.778,0.037,1.165a1.894,1.894,0,0,0,1.181,1.875c0.435,0.035.87,0.1,1.305,0.1q15.031,0.007,30.065,0a7.449,7.449,0,0,0,1.033-.079,1.36,1.36,0,0,0,1.3-1.209,8.033,8.033,0,0,0,.151-1.876q0.009-10.414,0-20.831c0-.13.007-0.26,0-0.389-0.018-.266.07-0.346,0.35-0.3a4.57,4.57,0,0,0,5.146-3.07A1.966,1.966,0,0,0,619.079,431.142Zm-9.169,19.581q-13.832-.014-27.662,0a0.373,0.373,0,0,1-.457-0.466c0.012-3.537.011-13.308,0-16.845a3.392,3.392,0,0,1,.382-1.222c0.864,2.225,2.164,3.724,4.615,3.724,2.511,0,3.879-1.474,4.687-3.83,0.791,2.419,2.214,3.859,4.762,3.831,2.461-.028,3.7-1.595,4.569-3.79,0.737,2.4,2.168,3.78,4.659,3.79,2.467,0.011,3.717-1.549,4.584-3.663a1.685,1.685,0,0,1,.313,1.056c0,3.574-.006,13.382.007,16.956A0.371,0.371,0,0,1,609.91,450.723Zm6.951,22.945a3.111,3.111,0,0,0,1.637-.027c2.693-.916,6.362-2.563,8.866-3.506a3.109,3.109,0,0,0,1.229-.992c0.528-.662.946-1.4,1.518-2.269,0.87,3.389,1.7,6.576,2.49,9.771a1.54,1.54,0,0,1-.176.909q-3.6,8.187-7.232,16.364a2.668,2.668,0,0,0,.069,2.731,3.04,3.04,0,0,0,5.142-.222c1.32-2.281,2.556-4.6,3.824-6.91,2.237-4.069,4.411-8.168,6.729-12.2a8.083,8.083,0,0,0,.771-6.842c-0.4-1.255-.62-2.559-0.961-4.011,0.741,0.605,1.364,1.1,1.971,1.611,2.163,1.821,4.3,3.676,6.51,5.437a2.35,2.35,0,0,0,3.5-.822,1.809,1.809,0,0,0-.513-2.4c-4.636-4.334-9.251-8.688-13.941-12.973a7.558,7.558,0,0,0-2.873-1.626,5.3,5.3,0,0,0-6.107,2.361c-1.544,2.5-3.012,5.044-4.546,7.551a2.1,2.1,0,0,1-.894.755c-1.932.869-5.174,2.149-7.231,3.064a2.206,2.206,0,0,0-1.466,2.2A2.105,2.105,0,0,0,616.861,473.668Zm7.293-24.444a5.624,5.624,0,0,0,5.791,5.231A5.281,5.281,0,1,0,624.154,449.224Zm24.541-3.735a3.314,3.314,0,0,1-3.3-3.326v-9.874a6.635,6.635,0,0,0-6.6-6.652H631.73s-3.308-.49-3.308-3.673a3.283,3.283,0,0,1,3.308-2.979h7.061c7.281,0,13.2.858,13.2,8.194v14.984A3.314,3.314,0,0,1,648.7,445.489Zm-68.984,26.7v11.983a6.635,6.635,0,0,0,6.6,6.652h23a3.326,3.326,0,0,1,0,6.652h-23a13.269,13.269,0,0,1-13.2-13.3V472.192C573.109,464.857,580.29,466.8,579.711,472.192Zm63.914,14.6a2.259,2.259,0,0,1-.421-0.765c-0.614-1.852-1.206-3.711-1.862-5.743-1.492,2.741-2.9,5.306-4.274,7.883a0.852,0.852,0,0,0,.019.681,3,3,0,0,0,.6.857c2.467,2.469,4.927,4.944,7.433,7.38a3.086,3.086,0,0,0,4.619-.351,2.562,2.562,0,0,0-.31-3.318Q646.517,490.108,643.625,486.79Z" transform="translate(-573 -419)"/>
</svg>
