<svg xmlns="http://www.w3.org/2000/svg" width="17" height="18" viewBox="0 0 17 18">
  <defs>
    <style>
      .cls-1 {
        fill: #0686ff;
        fill-rule: evenodd;
      }
    </style>
  </defs>
  <path id="add_roles" data-name="add roles" class="cls-1" d="M913.75,146a0.728,0.728,0,0,1-.75-0.7,6.633,6.633,0,0,1,6.83-6.4h1.126a7.228,7.228,0,0,1,2.249.356,0.693,0.693,0,0,1,.462.9,0.766,0.766,0,0,1-.956.433,5.637,5.637,0,0,0-1.755-.277H919.83A5.174,5.174,0,0,0,914.5,145.3a0.728,0.728,0,0,1-.751.7h0Zm11.634-13.254a5.077,5.077,0,1,0-5.066,4.746A4.92,4.92,0,0,0,925.384,132.746Zm-1.5,0a3.573,3.573,0,1,1-3.565-3.34A3.462,3.462,0,0,1,923.883,132.746Zm5.366,9.035H927v-2.109a0.752,0.752,0,0,0-1.5,0v2.109h-2.252a0.7,0.7,0,1,0,0,1.406H925.5v2.11a0.752,0.752,0,0,0,1.5,0v-2.11h2.251A0.7,0.7,0,1,0,929.249,141.781Z" transform="translate(-913 -128)"/>
</svg>
