<?xml version="1.0" encoding="utf-8"?>
<!-- Generator: Adobe Illustrator 25.3.0, SVG Export Plug-In . SVG Version: 6.00 Build 0)  -->
<svg version="1.1" id="Layer_1" xmlns="http://www.w3.org/2000/svg" xmlns:xlink="http://www.w3.org/1999/xlink" x="0px" y="0px"
	 viewBox="0 0 96.9 20" style="enable-background:new 0 0 96.9 20;" xml:space="preserve">
<style type="text/css">
	.st0{fill:none;stroke:#00539E;stroke-width:0.967;stroke-miterlimit:10;}
	.st1{fill:#00539E;}
	.st2{fill:#00539E;stroke:#00539E;stroke-width:0.1928;stroke-miterlimit:10;}
	.st3{fill:#00539E;stroke:#00539E;stroke-width:0.2295;stroke-miterlimit:10;}
	.st4{fill:#00539E;stroke:#00539E;stroke-width:8.261347e-02;stroke-miterlimit:10;}
	.st5{fill:none;stroke:#00539E;stroke-width:0.6884;stroke-miterlimit:10;}
	.st6{font-family:'Poppins-SemiBold';}
	.st7{font-size:12px;}
</style>
<path class="st0" d="M93.9,19.5H3c-1.3,0-2.4-1.1-2.4-2.4V3c0-1.3,1.1-2.4,2.4-2.4h90.9c1.3,0,2.4,1.1,2.4,2.4v14.1
	C96.3,18.4,95.2,19.5,93.9,19.5z"/>
<g>
	<path class="st1" d="M87.9,16.7c-0.1,0-0.1-0.1-0.2-0.1c-0.1-0.1-0.2-0.2-0.1-0.3v-1.2c0-0.1,0-0.1-0.1-0.1h-1.2
		c-0.1,0-0.2,0-0.3-0.1c-0.1-0.1-0.1-0.2-0.1-0.4c0-0.1,0.2-0.2,0.3-0.3h1.3c0.1,0,0.1,0,0.1-0.1V13c0-0.2,0.1-0.4,0.3-0.4
		c0.2,0,0.4,0.1,0.4,0.3c0,0,0,0.1,0,0.1v1.2c0,0.1,0,0.1,0.1,0.1h1.2c0.1,0,0.2,0,0.3,0.1c0.1,0.1,0.1,0.1,0.1,0.2v0.2
		c0,0.1-0.1,0.2-0.1,0.2C89.8,15,89.7,15,89.6,15h-1.2c-0.1,0-0.1,0-0.1,0.1v1.2c0,0.1-0.1,0.2-0.2,0.3C88.1,16.7,88,16.7,87.9,16.7
		L87.9,16.7z"/>
	<path class="st1" d="M87.9,18.5c-2.1,0-3.8-1.8-3.8-3.9c0-2.1,1.8-3.8,3.9-3.8c2.1,0,3.8,1.8,3.8,3.9C91.8,16.8,90,18.6,87.9,18.5z
		 M87.9,11.8c-1.6,0-2.8,1.3-2.8,2.9c0,1.6,1.3,2.8,2.9,2.8c1.6,0,2.8-1.3,2.8-2.9C90.8,13.1,89.5,11.9,87.9,11.8L87.9,11.8z"/>
	<path class="st2" d="M80.9,3.2c3-0.4,5.9,1.3,7.1,4.1c0.2,0.5,0.4,1.1,0.5,1.7c0,0.2-0.1,0.5-0.3,0.5c0,0,0,0,0,0
		c-0.2,0-0.5-0.2-0.5-0.4c0,0,0,0,0,0C87.2,6.2,84.8,4,81.8,4c-2.5,0-4.7,1.5-5.5,3.9c-0.4,1-0.5,2-0.3,3c0.5,2.3,2.3,4.1,4.6,4.6
		c0.6,0.1,1.2,0.1,1.8,0.1c0.3,0,0.5,0.2,0.5,0.4c0,0.3-0.2,0.5-0.4,0.5l0,0c-3.1,0.4-6-1.4-7.1-4.4c-0.9-2.3-0.4-4.9,1.2-6.7
		c0.9-1.1,2.1-1.8,3.5-2.1C80.4,3.3,80.7,3.2,80.9,3.2z"/>
	<path class="st3" d="M77.5,10.2c-0.2-2.3,1.5-4.4,3.9-4.6c2.1-0.2,4,1.2,4.5,3.2C85.9,9,86,9.2,86,9.4c0,0.3-0.2,0.5-0.4,0.6
		c0,0,0,0,0,0c-0.3,0-0.5-0.2-0.6-0.5c0,0,0,0,0,0C84.8,8.4,84.1,7.4,83,7c-1.6-0.7-3.4,0-4.2,1.5s0,3.4,1.5,4.2
		c0.4,0.2,0.8,0.3,1.2,0.3h0.5c0.3,0,0.5,0.2,0.6,0.5c0,0.3-0.2,0.5-0.5,0.6c0,0,0,0,0,0c-2,0.2-3.9-1.1-4.5-3
		C77.6,10.7,77.6,10.5,77.5,10.2z"/>
	<path class="st4" d="M80.1,10c-0.1-0.9,0.6-1.6,1.5-1.7c0.8,0,1.4,0.4,1.6,1.2c0,0.1,0,0.2,0,0.2c0,0.1-0.1,0.2-0.2,0.2
		c0,0,0,0,0,0c-0.1,0-0.2-0.1-0.2-0.2c0-0.4-0.3-0.8-0.7-1c-0.6-0.3-1.3,0-1.6,0.6c-0.3,0.6,0,1.3,0.6,1.6c0.1,0.1,0.3,0.1,0.4,0.1
		h0.2c0.1,0,0.2,0.1,0.2,0.2c0,0.1-0.1,0.1-0.2,0.2c-0.8,0.1-1.5-0.4-1.7-1.1L80.1,10z"/>
	<path class="st5" d="M89,4.2l1.1,0.2l0.7,0.1c0.2,0,0.4,0.2,0.5,0.4c0.1,0.2,0,0.4-0.1,0.6C91.1,5.5,91,5.6,91,5.6l-2.2,1.7
		c-0.2,0.2-0.4,0.2-0.7,0.2c-0.6-0.1-1.2-0.2-1.8-0.3c-0.1,0-0.2,0-0.3,0.1L82.7,10c-0.2,0.2-0.4,0.2-0.6,0.2
		c-0.3-0.1-0.5-0.4-0.4-0.7c0-0.1,0.1-0.2,0.1-0.2c0.1-0.1,0.1-0.1,0.2-0.1l3.3-2.6c0.1-0.1,0.2-0.2,0.2-0.3c0-0.6,0.1-1.3,0.1-1.9
		c0-0.2,0.1-0.4,0.3-0.5l2.4-1.8c0.2-0.2,0.5-0.3,0.7-0.1c0.2,0.1,0.4,0.4,0.3,0.6C89.1,3,89.1,3.6,89,4.2z M86.6,6.1l1.5,0.2
		c0.1,0,0.1,0,0.2-0.1l1-0.8c0,0,0.1-0.1,0.1-0.1l-1-0.2c-0.2,0-0.4-0.2-0.5-0.4c0-0.1,0-0.3,0-0.4c0-0.3,0-0.6,0.1-0.9
		c-0.3,0.3-0.6,0.5-0.9,0.7c-0.2,0.1-0.3,0.4-0.3,0.6C86.6,5.3,86.6,5.7,86.6,6.1z"/>
</g>
<text transform="matrix(1 0 0 1 3.6015 14.0333)" class="st1 st6 st7">Add Target</text>
</svg>
