<?xml version="1.0" encoding="utf-8"?>
<!-- Generator: Adobe Illustrator 25.0.1, SVG Export Plug-In . SVG Version: 6.00 Build 0)  -->
<svg version="1.1" id="Layer_1" xmlns="http://www.w3.org/2000/svg" xmlns:xlink="http://www.w3.org/1999/xlink" x="0px" y="0px"
	 viewBox="0 0 347.2 397.3" style="enable-background:new 0 0 347.2 397.3;" xml:space="preserve">
<style type="text/css">
	.st0{fill:#D8D8D8;}
</style>
<g id="Layer_2_1_">
	<g id="Layer_1-2">
		<path class="st0" d="M281.2,88c-6-2.5-11.7-4.8-17.3-7.3c-1.9-0.9-4.1-0.9-6,0.1C215.4,98.9,173,117,130.5,135
			c-2.4,1-4.7,2.1-7.5,3.3c0.9,0.6,1.5,1.2,2.2,1.5c7.6,4.2,16,6.3,24.5,7.6c9.8,1.5,19.6,1.6,29.1-1.3c6.7-2,13.1-5,19.6-7.8
			c44.8-19.1,89.6-38.1,134.4-57.3c4.4-1.9,8.6-2.3,12.3,1.4c0.9,1.1,1.5,2.4,1.9,3.8c0.2,0.9,0.2,1.8,0.1,2.7l0.1,229.4
			c0,5.6-1.2,7.5-6.4,9.7c-42.7,18.2-85.3,36.4-128,54.6c-8.2,3.5-16.4,7.2-24.7,10.3c-10.2,3.8-20.9,4.5-31.7,3.9
			c-12.3-0.7-24.3-3.2-35.6-8.4c-6.3-2.9-12.2-6.5-16.7-12c-3-3.7-4.7-8.3-4.8-13c0-1.4-0.1-2.8-0.1-4.2c0-72.4,0.2-144.9-0.2-217.3
			c-0.1-13.4,5.9-21,17.2-25.9c15.9-6.7,31.8-13.4,47.7-20.2c33.7-14.4,67.5-28.7,101.2-43.1c7.3-3.1,13.7-0.7,15.8,6.3
			c0.4,1.3,0.6,2.6,0.6,4c0,7.4,0,14.8,0,22.2C281.4,86.3,281.3,87.1,281.2,88z"/>
		<path class="st0" d="M182,36.8c-6-2.5-11.6-4.8-17.1-7.2c-2-1-4.3-1-6.2-0.1C114.5,48.3,70.4,67.2,26.2,85.9
			c-0.7,0.3-1.3,0.7-2.5,1.2c1.5,0.9,2.6,1.6,3.7,2.1c18.6,8.4,37.8,11,57.3,4c12.5-4.5,24.5-10.3,36.7-15.5l92-39.2
			c7.2-3.1,14.5-6.3,21.8-9.2c5.2-2.1,11.1,0.3,13.3,5.5c0.3,0.8,0.6,1.6,0.7,2.5c0.3,1.1-0.4,2.3-1.5,2.6
			c-20.6,8.8-41.1,17.6-61.7,26.4c-26.7,11.4-53.5,22.8-80.1,34.4c-12.4,5.4-21,14.6-24.3,28c-0.7,2.7-1.1,5.5-1.1,8.4
			c-0.1,67.2-0.1,134.4,0,201.6v2.1c0,3.6,0,3.6-3.5,4.1c-17,2.6-34.4,0.7-50.5-5.5c-7.6-2.9-14.9-6.5-20.4-12.7
			c-3.5-3.7-5.6-8.6-5.7-13.8c0-1.1-0.1-2.1-0.1-3.2c-0.1-74-0.1-148-0.2-222c0-10.6,5.6-17.4,14.6-21.5c11-5.1,22.2-9.6,33.3-14.4
			l100-42.6c6.5-2.8,13.1-5.6,19.6-8.3c5.2-2.2,10.7-0.4,13.1,4.7c1,2.2,1.5,4.5,1.6,6.9c0.2,7.3,0.1,14.5,0.1,21.8
			C182.3,35.2,182.2,36,182,36.8z"/>
	</g>
</g>
</svg>
