<?xml version="1.0" encoding="utf-8"?>
<!-- Generator: Adobe Illustrator 24.2.1, SVG Export Plug-In . SVG Version: 6.00 Build 0)  -->
<svg version="1.1" id="Layer_1" xmlns="http://www.w3.org/2000/svg" xmlns:xlink="http://www.w3.org/1999/xlink" x="0px" y="0px"
	 viewBox="0 0 80 80" style="enable-background:new 0 0 80 80;" xml:space="preserve">
<style type="text/css">
	.st0{fill-rule:evenodd;clip-rule:evenodd;fill:#FFFFFF;}
</style>
<path id="addDepart" class="st0" d="M70.4,60.2h-7.1v-7.3c0-1.3-1.1-2.4-2.4-2.4c-1.3,0-2.4,1.1-2.4,2.4v7.3h-7.1
	c-1.3,0.1-2.4,1.2-2.3,2.5c0,1.3,1.1,2.3,2.3,2.3h7.1v7.3c0,1.3,1.1,2.4,2.4,2.4c1.3,0,2.4-1.1,2.4-2.4V65h7.1
	c1.3-0.1,2.4-1.2,2.3-2.5C72.7,61.2,71.7,60.2,70.4,60.2z M40.9,69.1c0.1-1.4-1-2.5-2.4-2.6c0,0,0,0,0,0H14.5
	c-1.4-0.1-2.4-1.2-2.4-2.6V17.1c0-1.4,1-2.5,2.4-2.6h48.1c1.4,0.1,2.4,1.2,2.4,2.6v21.8c-0.1,1.3,0.9,2.5,2.2,2.6
	c1.3,0.1,2.5-0.9,2.6-2.2c0-0.1,0-0.3,0-0.4V17.1c0.2-4.1-3.1-7.6-7.2-7.8H14.5c-4.1,0.2-7.4,3.7-7.2,7.8v46.8
	c-0.2,4.1,3.1,7.6,7.2,7.8h24.1C39.9,71.6,41,70.4,40.9,69.1C40.9,69.1,40.9,69.1,40.9,69.1z"/>
</svg>
