<?xml version="1.0" encoding="utf-8"?>
<!-- Generator: Adobe Illustrator 25.3.0, SVG Export Plug-In . SVG Version: 6.00 Build 0)  -->
<svg version="1.1" id="Layer_1" xmlns="http://www.w3.org/2000/svg" xmlns:xlink="http://www.w3.org/1999/xlink" x="0px" y="0px"
	 viewBox="0 0 133 20" style="enable-background:new 0 0 133 20;" xml:space="preserve">
<style type="text/css">
	.st0{enable-background:new    ;}
	.st1{fill:#00539E;}
	.st2{fill-rule:evenodd;clip-rule:evenodd;fill:#00539E;}
</style>
<g class="st0">
	<path class="st1" d="M9.6,12.5H5.2l-0.7,2.1H2.7L6.4,4.2h2l3.7,10.4h-1.8L9.6,12.5z M9.1,11.1L7.4,6.3l-1.7,4.8H9.1z"/>
	<path class="st1" d="M13.7,8.3c0.3-0.6,0.8-1.1,1.4-1.5c0.6-0.4,1.3-0.5,2-0.5c0.5,0,1.1,0.1,1.6,0.4C19.2,7,19.6,7.2,20,7.6v-4
		h1.7v11.1H20v-1.2c-0.3,0.4-0.7,0.7-1.2,1s-1.1,0.4-1.7,0.4c-0.7,0-1.4-0.2-2-0.5c-0.6-0.4-1.1-0.9-1.4-1.5
		c-0.3-0.7-0.5-1.4-0.5-2.2C13.2,9.6,13.3,8.9,13.7,8.3z M19.6,9c-0.2-0.4-0.5-0.7-0.9-1c-0.4-0.2-0.8-0.3-1.2-0.3
		c-0.4,0-0.9,0.1-1.3,0.3c-0.4,0.2-0.7,0.5-0.9,0.9s-0.4,0.9-0.4,1.5s0.1,1.1,0.4,1.5c0.2,0.4,0.5,0.8,0.9,1s0.8,0.3,1.2,0.3
		s0.8-0.1,1.2-0.3c0.4-0.2,0.7-0.5,0.9-1s0.4-0.9,0.4-1.5C19.9,9.9,19.8,9.4,19.6,9z"/>
	<path class="st1" d="M23.8,8.3c0.3-0.6,0.8-1.1,1.4-1.5s1.3-0.5,2-0.5c0.5,0,1.1,0.1,1.6,0.4s0.9,0.5,1.3,0.9v-4h1.7v11.1h-1.7
		v-1.2c-0.3,0.4-0.7,0.7-1.2,1s-1.1,0.4-1.7,0.4c-0.7,0-1.4-0.2-2-0.5c-0.6-0.4-1.1-0.9-1.4-1.5c-0.3-0.7-0.5-1.4-0.5-2.2
		C23.3,9.6,23.5,8.9,23.8,8.3z M29.7,9c-0.2-0.4-0.5-0.7-0.9-1c-0.4-0.2-0.8-0.3-1.2-0.3S26.7,7.8,26.4,8c-0.4,0.3-0.7,0.6-1,1
		C25.2,9.4,25,9.9,25,10.5s0.1,1.1,0.4,1.5c0.2,0.4,0.5,0.8,0.9,1s0.8,0.3,1.2,0.3c0.4,0,0.8-0.1,1.2-0.3c0.4-0.2,0.7-0.5,0.9-1
		s0.4-0.9,0.4-1.5C30.1,9.9,30,9.4,29.7,9z"/>
	<path class="st1" d="M39.7,5.6v3.1h3.6V10h-3.6v3.2h4v1.4H38V4.2h5.8v1.4H39.7z"/>
	<path class="st1" d="M57.6,6.6c0.5,0.3,0.9,0.7,1.2,1.2s0.4,1.2,0.4,1.9v4.9h-1.7V10c0-0.7-0.2-1.3-0.6-1.7
		c-0.4-0.4-0.9-0.6-1.5-0.6s-1.1,0.2-1.5,0.6c-0.4,0.4-0.6,1-0.6,1.7v4.6h-1.7V10c0-0.7-0.2-1.3-0.6-1.7c-0.4-0.4-0.9-0.6-1.5-0.6
		S48.4,7.9,48,8.3c-0.4,0.4-0.6,1-0.6,1.7v4.6h-1.7V6.4h1.7v0.9C47.7,7,48,6.7,48.5,6.5s1-0.3,1.5-0.3c0.7,0,1.2,0.1,1.8,0.4
		s0.9,0.7,1.2,1.2c0.3-0.5,0.6-0.9,1.2-1.2c0.5-0.3,1.1-0.4,1.7-0.4C56.5,6.2,57.1,6.4,57.6,6.6z"/>
	<path class="st1" d="M64.3,6.6c0.5-0.3,1.1-0.4,1.7-0.4c0.7,0,1.4,0.2,2,0.5c0.6,0.4,1.1,0.9,1.4,1.5s0.5,1.4,0.5,2.2
		s-0.2,1.6-0.5,2.2c-0.3,0.7-0.8,1.2-1.4,1.5s-1.3,0.5-2,0.5c-0.6,0-1.2-0.1-1.7-0.4c-0.5-0.3-0.9-0.6-1.2-1v5.1h-1.7V6.4h1.7v1.2
		C63.4,7.2,63.8,6.9,64.3,6.6z M67.8,9c-0.2-0.4-0.5-0.7-0.9-0.9s-0.8-0.3-1.2-0.3c-0.4,0-0.8,0.1-1.2,0.3c-0.4,0.2-0.7,0.5-0.9,1
		s-0.4,0.9-0.4,1.5s0.1,1.1,0.4,1.5s0.5,0.7,0.9,1c0.4,0.2,0.8,0.3,1.2,0.3c0.4,0,0.9-0.1,1.2-0.3c0.4-0.2,0.7-0.6,0.9-1
		c0.2-0.4,0.4-0.9,0.4-1.5C68.1,9.9,68,9.4,67.8,9z"/>
	<path class="st1" d="M73.3,3.5v11.1h-1.7V3.5H73.3z"/>
	<path class="st1" d="M77,14.2c-0.6-0.4-1.1-0.9-1.5-1.5S75,11.3,75,10.5s0.2-1.6,0.6-2.2s0.9-1.1,1.5-1.5s1.4-0.5,2.1-0.5
		c0.8,0,1.5,0.2,2.1,0.5c0.6,0.4,1.1,0.8,1.5,1.5c0.4,0.6,0.6,1.4,0.6,2.2s-0.2,1.6-0.6,2.2c-0.4,0.7-0.9,1.2-1.6,1.5
		s-1.4,0.5-2.2,0.5C78.3,14.8,77.6,14.6,77,14.2z M80.3,13c0.4-0.2,0.7-0.5,0.9-0.9s0.4-0.9,0.4-1.5s-0.1-1.1-0.3-1.5
		c-0.2-0.4-0.5-0.7-0.9-0.9s-0.8-0.3-1.2-0.3S78.3,7.8,77.9,8S77.3,8.6,77,9c-0.2,0.4-0.3,0.9-0.3,1.5c0,0.9,0.2,1.6,0.7,2.1
		s1,0.7,1.7,0.7C79.6,13.3,80,13.2,80.3,13z"/>
	<path class="st1" d="M92.5,6.4l-5.1,12.1h-1.8l1.7-4L84,6.4h2l2.3,6.3l2.4-6.3C90.7,6.4,92.5,6.4,92.5,6.4z"/>
	<path class="st1" d="M101.3,11.1H95c0.1,0.7,0.3,1.2,0.7,1.6s1,0.6,1.6,0.6c0.9,0,1.6-0.4,1.9-1.2h1.8c-0.3,0.8-0.7,1.4-1.4,1.9
		c-0.7,0.5-1.5,0.7-2.4,0.7c-0.8,0-1.5-0.2-2.1-0.5s-1.1-0.9-1.5-1.5s-0.5-1.4-0.5-2.2s0.2-1.6,0.5-2.2s0.8-1.1,1.5-1.5
		s1.3-0.5,2.2-0.5c0.8,0,1.5,0.2,2.1,0.5s1.1,0.8,1.4,1.4s0.5,1.3,0.5,2.1C101.4,10.6,101.4,10.9,101.3,11.1z M99.6,9.8
		c0-0.6-0.2-1.1-0.7-1.5s-1-0.6-1.6-0.6s-1.1,0.2-1.5,0.6c-0.4,0.4-0.7,0.9-0.8,1.5H99.6z"/>
	<path class="st1" d="M110.6,11.1h-6.3c0.1,0.7,0.3,1.2,0.7,1.6s1,0.6,1.6,0.6c0.9,0,1.6-0.4,1.9-1.2h1.8c-0.3,0.8-0.7,1.4-1.4,1.9
		c-0.7,0.5-1.5,0.7-2.4,0.7c-0.8,0-1.5-0.2-2.1-0.5s-1.1-0.9-1.5-1.5s-0.5-1.4-0.5-2.2s0.2-1.6,0.5-2.2s0.8-1.1,1.5-1.5
		s1.3-0.5,2.2-0.5c0.8,0,1.5,0.2,2.1,0.5s1.1,0.8,1.4,1.4s0.5,1.3,0.5,2.1C110.6,10.6,110.6,10.9,110.6,11.1z M108.9,9.8
		c0-0.6-0.2-1.1-0.7-1.5s-1-0.6-1.6-0.6s-1.1,0.2-1.5,0.6c-0.4,0.4-0.7,0.9-0.8,1.5H108.9z"/>
</g>
<path id="Shape_392_1" class="st2" d="M116.8,19.5c-0.4,0-0.7-0.3-0.8-0.7c0-3.7,3.1-6.8,6.8-6.8h1.1c0.8,0,1.5,0.1,2.3,0.4
	c0.4,0.1,0.6,0.6,0.5,0.9c-0.1,0.4-0.6,0.6-1,0.5c-0.6-0.2-1.2-0.3-1.8-0.3h-1.1c-2.9,0-5.3,2.3-5.3,5.3
	C117.5,19.2,117.2,19.5,116.8,19.5L116.8,19.5L116.8,19.5z M128.4,5.5c0-2.8-2.2-5.1-5-5.1s-5.1,2.2-5.1,5s2.2,5.1,5,5.1
	c0,0,0,0,0.1,0C126.1,10.5,128.4,8.3,128.4,5.5z M126.9,5.5c0,2-1.6,3.6-3.5,3.6c-2,0-3.6-1.6-3.6-3.5c0-2,1.6-3.6,3.5-3.6l0,0
	C125.3,2,126.9,3.6,126.9,5.5z M132.3,15H130v-2.2c0-0.4-0.3-0.8-0.8-0.8s-0.8,0.3-0.8,0.8V15h-2.3c-0.4,0-0.7,0.3-0.7,0.7
	c0,0.4,0.3,0.7,0.7,0.7l0,0h2.3v2.2c0,0.4,0.3,0.8,0.8,0.8s0.8-0.3,0.8-0.8v-2.2h2.3c0.4,0,0.7-0.3,0.7-0.7S132.7,15,132.3,15z"/>
</svg>
