<?xml version="1.0" encoding="utf-8"?>
<!-- Generator: Adobe Illustrator 24.2.1, SVG Export Plug-In . SVG Version: 6.00 Build 0)  -->
<svg version="1.1" id="Layer_1" xmlns="http://www.w3.org/2000/svg" xmlns:xlink="http://www.w3.org/1999/xlink" x="0px" y="0px"
	 viewBox="0 0 76.3 20" style="enable-background:new 0 0 76.3 20;" xml:space="preserve">
<style type="text/css">
	.st0{fill-rule:evenodd;clip-rule:evenodd;fill:#0B88FF;}
	.st1{fill:#0B88FF;}
</style>
<g>
	<g>
		<path class="st0" d="M133.7,2.9c0-0.5,0-1.1,0.4-1.6h-4.6c-2.4,0-4.7,0-7.1,0c-0.5,0-0.9,0.3-1,0.8c-0.1,0.3,0,0.5,0,0.8
			c-0.1,0.1-0.1,0.2,0,0.2c4,0,8.1,0,12.1,0C133.7,3.1,133.7,3,133.7,2.9z M124.3,5.6c0.4,0,0.7,0,1.1,0c0.1,0,0.1,0,0.1-0.1
			c0-0.2,0-0.4,0-0.5s0-0.1-0.1-0.1c-0.2,0-0.3,0-0.5,0l0,0c-0.2,0-0.4,0-0.5,0s-0.1,0-0.1,0.1S124.3,5.3,124.3,5.6
			C124.2,5.6,124.3,5.6,124.3,5.6z M125.5,6.3c0-0.1,0-0.2-0.2-0.2c-0.3,0-0.7,0-1,0c-0.1,0-0.2,0-0.1,0.1c0,0.5,0,1,0,1.5
			c0,1.5,0,3,0,4.5c0,0.1,0,0.2,0.2,0.2c0.3,0,0.6,0,1,0c0.1,0,0.2,0,0.2-0.2c0-1,0-2,0-3C125.5,8.3,125.5,7.3,125.5,6.3z
			 M134.4,10.2c0.7,0,1.4,0.2,2,0.6c0-1.3,0-2.2,0-2.2c0-2.1,0-4.1,0-6.2c0-0.1,0-0.2,0-0.3c-0.1-0.5-0.6-0.8-1-0.8
			c-0.6,0-0.9,0.4-0.9,1c0,0.3,0,0.7,0,1c0,0.2-0.1,0.3-0.3,0.3c-0.1,0-0.1,0-0.2,0c-3.7,0-7.4,0-11.1,0c-0.2,0-0.2,0-0.2,0.2
			c0,2.1,0,4.2,0,6.3s0,4.2,0,6.4c0,0.3,0.1,0.3,0.3,0.3c2.4,0,7.2,0,7.2,0s0.7,0,1.9,0c-0.9-0.7-1.5-1.8-1.5-3
			C130.6,11.9,132.3,10.2,134.4,10.2z M128.8,4.9c0.4,0,0.7,0,1.1,0h2c1,0,2,0,3,0c0.2,0,0.3,0.1,0.3,0.3c0,0.2-0.1,0.3-0.3,0.3
			c-0.8,0-1.6,0-2.3,0c-1.2,0-2.4,0-3.6,0c-0.1,0-0.1,0-0.2,0c-0.2,0-0.3-0.1-0.3-0.3C128.4,5,128.6,4.9,128.8,4.9z M126.7,9.2
			c0-0.9,0-1.9,0-2.8c0-0.1,0-0.2-0.2-0.2s-0.4-0.1-0.5,0s0,0.3,0,0.4c0,2.2,0,4.3,0,6.5c0,0.9-0.3,1.7-0.8,2.4
			c-0.1,0.1-0.1,0.2-0.1,0.4c0,0.2-0.1,0.3-0.3,0.3c-0.2,0-0.3-0.1-0.3-0.3c0-0.2-0.1-0.3-0.2-0.5c-0.4-0.6-0.7-1.3-0.7-2
			c-0.1-0.7,0-1.3,0-2c0-0.8,0-1.6,0-2.4c0-1.4,0-2.8,0-4.1c0-0.4,0.2-0.6,0.6-0.6s0.8,0,1.2,0c0.4,0,0.6,0.2,0.6,0.6
			c0,0.2,0,0.4,0,0.6c0,0.1,0,0.1,0.1,0.1c0.2,0,0.3,0,0.5,0c0.4,0,0.6,0.2,0.6,0.6c0,0.7,0,1.3,0,2c0,0.3,0,0.7,0,1
			c0,0.2-0.1,0.4-0.3,0.4C126.9,9.6,126.7,9.4,126.7,9.2z M129.2,15.7c-0.3,0-0.6,0-0.9,0s-0.6,0-0.9,0c-0.2,0-0.3-0.1-0.3-0.3
			c0-0.2,0.1-0.3,0.3-0.3c0.6,0,1.2,0,1.8,0c0.2,0,0.3,0.1,0.3,0.3C129.5,15.5,129.3,15.7,129.2,15.7z M129.2,13.6c-0.3,0-0.6,0-1,0
			c-0.3,0-0.6,0-0.9,0c-0.2,0-0.3-0.1-0.3-0.3c0-0.2,0.1-0.3,0.4-0.3c0.5,0,1,0,1.6,0c0.1,0,0.2,0,0.3,0s0.3,0.2,0.3,0.3
			C129.5,13.5,129.3,13.6,129.2,13.6z M129.2,11.5c-0.3,0-0.6,0-0.9,0s-0.6,0-0.9,0c-0.2,0-0.3-0.1-0.3-0.3c0-0.2,0.1-0.3,0.3-0.3
			c0.6,0,1.3,0,1.9,0c0.2,0,0.3,0.1,0.3,0.3C129.5,11.4,129.3,11.5,129.2,11.5z M129.9,7.5c-0.2,0-0.4-0.1-0.4-0.3s0.2-0.3,0.4-0.3
			c0.8,0,1.7,0,2.5,0s1.7,0,2.5,0c0.2,0,0.4,0.1,0.4,0.3c0,0.2-0.1,0.3-0.4,0.3C133.2,7.5,131.5,7.5,129.9,7.5z M125.4,13
			c-0.4,0-0.7,0-1.1,0c-0.1,0-0.1,0-0.1,0.1c0,0.2,0,0.3,0,0.5c0.1,0.5,0.3,1,0.6,1.5C125.3,14.5,125.5,13.8,125.4,13
			C125.5,13,125.5,13,125.4,13z"/>
	</g>
</g>
<g>
	<path class="st1" d="M14.7,5.4v8.4H13v-3.6H9.4v3.6H7.7V5.4h1.7v3.4H13V5.4H14.7z"/>
	<path class="st1" d="M17.5,13.5c-0.5-0.3-0.9-0.7-1.2-1.2c-0.3-0.5-0.4-1.1-0.4-1.8s0.1-1.3,0.4-1.8c0.3-0.5,0.7-0.9,1.2-1.2
		c0.5-0.3,1.1-0.4,1.7-0.4c0.6,0,1.2,0.1,1.7,0.4c0.5,0.3,0.9,0.7,1.2,1.2s0.5,1.1,0.5,1.8s-0.2,1.3-0.5,1.8
		c-0.3,0.5-0.7,0.9-1.2,1.2c-0.5,0.3-1.1,0.4-1.8,0.4C18.6,13.9,18.1,13.8,17.5,13.5z M20.1,12.2c0.3-0.1,0.5-0.4,0.6-0.7
		c0.2-0.3,0.2-0.7,0.2-1.1c0-0.6-0.2-1.1-0.5-1.5c-0.3-0.3-0.7-0.5-1.2-0.5c-0.5,0-0.9,0.2-1.2,0.5c-0.3,0.3-0.5,0.8-0.5,1.5
		s0.2,1.1,0.5,1.5c0.3,0.3,0.7,0.5,1.2,0.5C19.6,12.5,19.9,12.4,20.1,12.2z"/>
	<path class="st1" d="M25.7,4.9v8.9H24V4.9H25.7z"/>
	<path class="st1" d="M27.4,6.1c-0.2-0.2-0.3-0.4-0.3-0.7c0-0.3,0.1-0.5,0.3-0.7c0.2-0.2,0.4-0.3,0.7-0.3c0.3,0,0.5,0.1,0.7,0.3
		s0.3,0.4,0.3,0.7c0,0.3-0.1,0.5-0.3,0.7c-0.2,0.2-0.4,0.3-0.7,0.3C27.9,6.4,27.6,6.3,27.4,6.1z M29,7.2v6.6h-1.7V7.2H29z"/>
	<path class="st1" d="M30.6,8.7c0.3-0.5,0.6-0.9,1.1-1.2c0.5-0.3,1-0.4,1.5-0.4c0.4,0,0.8,0.1,1.2,0.3c0.4,0.2,0.7,0.4,0.9,0.8V4.9
		h1.7v8.9h-1.7v-1c-0.2,0.3-0.5,0.6-0.9,0.8s-0.8,0.3-1.3,0.3c-0.6,0-1.1-0.1-1.5-0.4c-0.5-0.3-0.8-0.7-1.1-1.2
		c-0.3-0.5-0.4-1.1-0.4-1.8C30.2,9.8,30.4,9.2,30.6,8.7z M35.2,9.4c-0.2-0.3-0.4-0.5-0.6-0.7c-0.3-0.2-0.6-0.2-0.9-0.2
		c-0.3,0-0.6,0.1-0.9,0.2c-0.3,0.2-0.5,0.4-0.6,0.7c-0.2,0.3-0.2,0.6-0.2,1c0,0.4,0.1,0.7,0.2,1.1c0.2,0.3,0.4,0.5,0.6,0.7
		c0.3,0.2,0.6,0.2,0.9,0.2c0.3,0,0.6-0.1,0.9-0.2c0.3-0.2,0.5-0.4,0.6-0.7c0.2-0.3,0.2-0.6,0.2-1C35.4,10.1,35.4,9.7,35.2,9.4z"/>
	<path class="st1" d="M38.8,8.7c0.3-0.5,0.6-0.9,1.1-1.2c0.5-0.3,1-0.4,1.5-0.4c0.5,0,0.9,0.1,1.3,0.3c0.4,0.2,0.7,0.5,0.9,0.8V7.2
		h1.7v6.6h-1.7v-1c-0.2,0.3-0.5,0.6-0.9,0.8s-0.8,0.3-1.3,0.3c-0.6,0-1.1-0.1-1.5-0.4s-0.8-0.7-1.1-1.2c-0.3-0.5-0.4-1.1-0.4-1.8
		C38.4,9.8,38.5,9.2,38.8,8.7z M43.3,9.4c-0.2-0.3-0.4-0.5-0.6-0.7c-0.3-0.2-0.6-0.2-0.9-0.2c-0.3,0-0.6,0.1-0.9,0.2
		c-0.3,0.2-0.5,0.4-0.6,0.7c-0.2,0.3-0.2,0.6-0.2,1c0,0.4,0.1,0.7,0.2,1.1c0.2,0.3,0.4,0.5,0.6,0.7c0.3,0.2,0.6,0.2,0.9,0.2
		c0.3,0,0.6-0.1,0.9-0.2c0.3-0.2,0.5-0.4,0.6-0.7s0.2-0.6,0.2-1C43.6,10.1,43.5,9.7,43.3,9.4z"/>
	<path class="st1" d="M53.3,7.2L49.2,17h-1.8l1.4-3.3l-2.7-6.5H48l1.7,4.6l1.7-4.6H53.3z"/>
</g>
<g>
	<g>
		<path class="st0" d="M67.4,4.3h1.2c0.6,0,1.1,0.5,1.1,1.1v0.3c0,0.3,0.3,0.6,0.6,0.6s0.6-0.3,0.6-0.6V4.6c0-1.3-1-1.4-2.3-1.4
			h-1.2c0,0-0.5,0-0.6,0.5C66.8,4.3,67.4,4.3,67.4,4.3z M61.4,15.6h-1.8c-0.6,0-1.1-0.5-1.1-1.1v-2.1c0.1-0.9-1.1-1.3-1.1,0v2.1
			c0,1.3,1,2.3,2.3,2.3h1.8c0.3,0,0.6-0.3,0.6-0.6C62,15.8,61.7,15.6,61.4,15.6z M72.5,12.2c-0.4-0.2-1-0.5-1.4-0.6
			c-0.1,0-0.1-0.1-0.2-0.2c-0.3-0.5-0.6-1.1-0.9-1.6c-0.2-0.4-0.7-0.6-1.2-0.5c-0.2,0.1-0.4,0.2-0.6,0.3c-0.9,0.9-1.8,1.8-2.7,2.7
			c-0.1,0.2-0.2,0.3-0.1,0.5c0.1,0.1,0.1,0.2,0,0.3c0,0.1,0,0.1,0,0.2c-0.1,0.3-0.1,0.6-0.2,0.9c-0.3,0-0.6,0-0.8,0
			c-0.4,0-0.8,0.3-0.9,0.7c-0.2,0.7-0.3,1.3-0.5,2c-0.1,0.3,0.1,0.7,0.4,0.7c0.1-0.4,0.4-0.6,0.7-0.6c0.1,0,0.3,0.1,0.4,0.1
			c0.2,0.1,0.3,0.3,0.3,0.5c0.2,0,0.2,0,0.2-0.2c0-0.1,0-0.1,0-0.2c0.3-1.3,0.5-2.5,0.8-3.8c0-0.2,0-0.4,0.2-0.5
			c0.4-0.4,0.8-0.8,1.3-1.1c0.1-0.1,0.2-0.2,0.4-0.3c-0.1,0.3-0.1,0.6-0.2,0.8c-0.1,0.5-0.1,1,0.1,1.4c0.4,0.8,0.9,1.7,1.3,2.6
			c0.2,0.5,0.5,1,0.7,1.5c0.2,0.4,0.8,0.4,1,0c0.1-0.2,0.1-0.4,0-0.6c-0.5-1.1-0.9-2.3-1.4-3.4c0-0.1,0-0.1,0-0.2
			c0.2-0.7,0.3-1.3,0.5-2.1c0.1,0.2,0.2,0.3,0.3,0.5c0.1,0.1,0.1,0.2,0.2,0.2c0.5,0.2,1.2,0.5,1.7,0.7c0.1,0,0.2,0,0.3,0
			c0.2-0.1,0.3-0.2,0.3-0.4C72.7,12.4,72.6,12.3,72.5,12.2z M67.3,15.7c0,0.1,0,0.1-0.1,0.2c-0.4,0.5-0.7,0.9-1.1,1.4
			c-0.2,0.2-0.2,0.5-0.1,0.7c0.2,0.3,0.6,0.4,0.9,0.1c0.5-0.5,1-1,1.4-1.6c0-0.1,0.1-0.1,0.1-0.2c0,0,0-0.1,0-0.1
			c-0.3-0.5-0.5-1.1-0.8-1.7C67.6,14.9,67.5,15.3,67.3,15.7z M69.9,6.8c-0.6,0-1.1,0.5-1.1,1.1c0,0.6,0.5,1.1,1.1,1.1
			C70.5,9,71,8.5,71,7.9C71,7.3,70.5,6.8,69.9,6.8z M64.2,17.2c-0.2,0-0.5,0.2-0.5,0.5c0,0.3,0.2,0.5,0.4,0.5c0.3,0,0.5-0.2,0.5-0.4
			C64.6,17.5,64.4,17.3,64.2,17.2z M65.7,8.4c0-0.4-0.3-0.7-0.7-0.7h-2.1v-2c0-0.4-0.3-0.7-0.7-0.7c-0.4,0-0.7,0.3-0.7,0.7v2h-2.1
			c-0.4,0-0.7,0.3-0.7,0.7S59,9,59.4,9h2.1v2c0,0.4,0.3,0.7,0.7,0.7c0.4,0,0.7-0.3,0.7-0.7V9H65C65.4,9,65.7,8.7,65.7,8.4z"/>
	</g>
</g>
</svg>
