<?xml version="1.0" encoding="utf-8"?>
<!-- Generator: Adobe Illustrator 24.2.1, SVG Export Plug-In . SVG Version: 6.00 Build 0)  -->
<svg version="1.1" id="Layer_1" xmlns="http://www.w3.org/2000/svg" xmlns:xlink="http://www.w3.org/1999/xlink" x="0px" y="0px"
	 viewBox="0 0 137.5 20" style="enable-background:new 0 0 137.5 20;" xml:space="preserve">
<style type="text/css">
	.st0{fill:#0072DE;}
	.st1{fill-rule:evenodd;clip-rule:evenodd;fill:#0072DE;}
</style>
<g>
	<path class="st0" d="M9.6,14H5.1l-0.8,2.2H2.6L6.4,5.6h2l3.8,10.5h-1.8L9.6,14z M9.1,12.6L7.4,7.7l-1.7,4.9H9.1z"/>
	<path class="st0" d="M13.7,9.7c0.3-0.6,0.8-1.1,1.4-1.5c0.6-0.4,1.3-0.5,2-0.5c0.5,0,1.1,0.1,1.6,0.4s1,0.6,1.3,0.9v-4h1.7v11.2H20
		v-1.3c-0.3,0.4-0.7,0.7-1.2,1c-0.5,0.3-1.1,0.4-1.7,0.4c-0.7,0-1.4-0.2-2-0.6c-0.6-0.4-1.1-0.9-1.4-1.5c-0.3-0.7-0.5-1.4-0.5-2.2
		S13.4,10.3,13.7,9.7z M19.7,10.4c-0.2-0.4-0.5-0.7-0.9-1c-0.4-0.2-0.8-0.3-1.2-0.3c-0.4,0-0.9,0.1-1.2,0.3c-0.4,0.2-0.7,0.5-0.9,1
		c-0.2,0.4-0.4,0.9-0.4,1.5c0,0.6,0.1,1.1,0.4,1.5c0.2,0.4,0.6,0.8,0.9,1s0.8,0.3,1.2,0.3c0.4,0,0.9-0.1,1.2-0.3
		c0.4-0.2,0.7-0.5,0.9-1c0.2-0.4,0.4-0.9,0.4-1.5C20,11.4,19.9,10.9,19.7,10.4z"/>
	<path class="st0" d="M24,9.7c0.3-0.6,0.8-1.1,1.4-1.5c0.6-0.4,1.3-0.5,2-0.5C28,7.6,28.5,7.8,29,8s1,0.6,1.3,0.9v-4H32v11.2h-1.7
		v-1.3c-0.3,0.4-0.7,0.7-1.2,1c-0.5,0.3-1.1,0.4-1.7,0.4c-0.7,0-1.4-0.2-2-0.6c-0.6-0.4-1.1-0.9-1.4-1.5c-0.3-0.7-0.5-1.4-0.5-2.2
		S23.6,10.3,24,9.7z M29.9,10.4c-0.2-0.4-0.5-0.7-0.9-1c-0.4-0.2-0.8-0.3-1.2-0.3c-0.4,0-0.9,0.1-1.2,0.3c-0.4,0.2-0.7,0.5-0.9,1
		c-0.2,0.4-0.4,0.9-0.4,1.5c0,0.6,0.1,1.1,0.4,1.5c0.2,0.4,0.6,0.8,0.9,1s0.8,0.3,1.2,0.3c0.4,0,0.9-0.1,1.2-0.3
		c0.4-0.2,0.7-0.5,0.9-1c0.2-0.4,0.4-0.9,0.4-1.5C30.3,11.4,30.2,10.9,29.9,10.4z"/>
	<path class="st0" d="M40,5.6v10.5h-1.7V5.6H40z"/>
	<path class="st0" d="M48.2,8c0.5,0.3,0.9,0.7,1.2,1.2c0.3,0.5,0.4,1.2,0.4,1.9v4.9h-1.7v-4.7c0-0.7-0.2-1.3-0.6-1.7
		c-0.4-0.4-0.9-0.6-1.5-0.6c-0.6,0-1.2,0.2-1.5,0.6c-0.4,0.4-0.6,1-0.6,1.7v4.7h-1.7V7.8H44v1c0.3-0.3,0.6-0.6,1.1-0.8
		c0.4-0.2,0.9-0.3,1.4-0.3C47.1,7.6,47.7,7.8,48.2,8z"/>
	<path class="st0" d="M53.3,15.9c-0.5-0.2-0.9-0.6-1.2-1c-0.3-0.4-0.5-0.9-0.5-1.4h1.8c0,0.4,0.2,0.6,0.5,0.9s0.7,0.4,1.2,0.4
		c0.5,0,0.9-0.1,1.1-0.3c0.3-0.2,0.4-0.4,0.4-0.7c0-0.3-0.1-0.5-0.4-0.7c-0.3-0.2-0.8-0.3-1.4-0.5c-0.6-0.2-1.1-0.3-1.5-0.5
		c-0.4-0.2-0.7-0.4-1-0.7c-0.3-0.3-0.4-0.8-0.4-1.3c0-0.4,0.1-0.9,0.4-1.2s0.6-0.7,1.1-0.9s1.1-0.3,1.7-0.3c0.9,0,1.7,0.2,2.3,0.7
		c0.6,0.5,0.9,1.1,0.9,2h-1.7c0-0.4-0.2-0.7-0.5-0.9c-0.3-0.2-0.6-0.3-1.1-0.3c-0.5,0-0.8,0.1-1,0.3c-0.2,0.2-0.4,0.4-0.4,0.7
		c0,0.2,0.1,0.4,0.2,0.6s0.4,0.3,0.6,0.4s0.6,0.2,1,0.3c0.6,0.2,1.1,0.3,1.5,0.5c0.4,0.2,0.7,0.4,1,0.7s0.4,0.8,0.4,1.3
		c0,0.5-0.1,0.9-0.4,1.3c-0.3,0.4-0.6,0.7-1.1,0.9c-0.5,0.2-1,0.3-1.7,0.3C54.4,16.3,53.9,16.1,53.3,15.9z"/>
	<path class="st0" d="M62.2,9.2v4.6c0,0.3,0.1,0.5,0.2,0.7c0.1,0.1,0.4,0.2,0.8,0.2h1.1v1.4h-1.4c-0.8,0-1.4-0.2-1.8-0.5
		c-0.4-0.4-0.6-1-0.6-1.8V9.2h-1V7.8h1V5.7h1.7v2.1h2v1.4H62.2z"/>
	<path class="st0" d="M65.9,6.3c-0.2-0.2-0.3-0.5-0.3-0.8c0-0.3,0.1-0.6,0.3-0.8s0.5-0.3,0.8-0.3c0.3,0,0.6,0.1,0.8,0.3
		c0.2,0.2,0.3,0.5,0.3,0.8c0,0.3-0.1,0.6-0.3,0.8c-0.2,0.2-0.5,0.3-0.8,0.3C66.4,6.7,66.1,6.6,65.9,6.3z M67.5,7.8v8.3h-1.7V7.8
		H67.5z"/>
	<path class="st0" d="M71.8,9.2v4.6c0,0.3,0.1,0.5,0.2,0.7c0.1,0.1,0.4,0.2,0.8,0.2h1.1v1.4h-1.4c-0.8,0-1.4-0.2-1.8-0.5
		c-0.4-0.4-0.6-1-0.6-1.8V9.2h-1V7.8h1V5.7h1.7v2.1h2v1.4H71.8z"/>
	<path class="st0" d="M83,7.8v8.3h-1.7v-1c-0.3,0.3-0.6,0.6-1.1,0.8c-0.4,0.2-0.9,0.3-1.4,0.3c-0.7,0-1.2-0.1-1.8-0.4
		c-0.5-0.3-0.9-0.7-1.2-1.2c-0.3-0.5-0.4-1.2-0.4-1.9V7.8h1.7v4.7c0,0.7,0.2,1.3,0.6,1.7c0.4,0.4,0.9,0.6,1.5,0.6
		c0.6,0,1.2-0.2,1.5-0.6c0.4-0.4,0.6-1,0.6-1.7V7.8H83z"/>
	<path class="st0" d="M87.3,9.2v4.6c0,0.3,0.1,0.5,0.2,0.7c0.1,0.1,0.4,0.2,0.8,0.2h1.1v1.4h-1.4c-0.8,0-1.4-0.2-1.8-0.5
		c-0.4-0.4-0.6-1-0.6-1.8V9.2h-1V7.8h1V5.7h1.7v2.1h2v1.4H87.3z"/>
	<path class="st0" d="M91,6.3c-0.2-0.2-0.3-0.5-0.3-0.8c0-0.3,0.1-0.6,0.3-0.8c0.2-0.2,0.5-0.3,0.8-0.3c0.3,0,0.6,0.1,0.8,0.3
		s0.3,0.5,0.3,0.8c0,0.3-0.1,0.6-0.3,0.8c-0.2,0.2-0.5,0.3-0.8,0.3C91.5,6.7,91.2,6.6,91,6.3z M92.6,7.8v8.3h-1.7V7.8H92.6z"/>
	<path class="st0" d="M96.4,15.7c-0.6-0.4-1.1-0.9-1.5-1.5s-0.5-1.4-0.5-2.3c0-0.8,0.2-1.6,0.6-2.3c0.4-0.7,0.9-1.2,1.5-1.5
		c0.6-0.4,1.4-0.5,2.2-0.5s1.5,0.2,2.2,0.5c0.6,0.4,1.2,0.9,1.5,1.5c0.4,0.7,0.6,1.4,0.6,2.3c0,0.8-0.2,1.6-0.6,2.3
		s-0.9,1.2-1.6,1.5s-1.4,0.5-2.2,0.5C97.7,16.3,97,16.1,96.4,15.7z M99.8,14.4c0.4-0.2,0.7-0.5,0.9-1s0.4-0.9,0.4-1.5
		c0-0.6-0.1-1.1-0.3-1.5c-0.2-0.4-0.5-0.7-0.9-0.9c-0.4-0.2-0.8-0.3-1.2-0.3s-0.9,0.1-1.2,0.3c-0.4,0.2-0.7,0.5-0.9,0.9
		c-0.2,0.4-0.3,0.9-0.3,1.5c0,0.9,0.2,1.6,0.7,2.1c0.5,0.5,1,0.7,1.7,0.7C99,14.8,99.4,14.6,99.8,14.4z"/>
	<path class="st0" d="M110.5,8c0.5,0.3,0.9,0.7,1.2,1.2c0.3,0.5,0.4,1.2,0.4,1.9v4.9h-1.7v-4.7c0-0.7-0.2-1.3-0.6-1.7
		c-0.4-0.4-0.9-0.6-1.5-0.6s-1.2,0.2-1.5,0.6c-0.4,0.4-0.6,1-0.6,1.7v4.7h-1.7V7.8h1.7v1c0.3-0.3,0.6-0.6,1.1-0.8s0.9-0.3,1.4-0.3
		C109.4,7.6,110,7.8,110.5,8z"/>
</g>
<g>
	<g>
		<path class="st1" d="M117.6,14.6c0,0.3,0,0.5,0,0.8c0,0.2,0.1,0.3,0.3,0.3c0.6,0,1.2,0,1.8,0c0.6,0,1.2,0,1.8,0
			c0.1,0,0.3,0,0.3-0.2c0-0.3,0-0.6,0-0.9c0-0.3-0.2-0.5-0.6-0.5c-1,0-2,0-2.9,0C117.8,14,117.6,14.2,117.6,14.6z M120.7,7.4
			c-0.7,0-1.4,0-2.1,0c-0.2,0-0.3,0.1-0.3,0.3c0,1.7,0,3.3,0,5c0,0.2,0.1,0.3,0.3,0.3c0.7,0,1.4,0,2.1,0c0.2,0,0.3-0.1,0.3-0.3
			c0-0.8,0-1.7,0-2.5c0-0.8,0-1.7,0-2.5C121,7.4,120.9,7.4,120.7,7.4z M129.7,15.4c0,0.2,0.1,0.3,0.3,0.3c0.6,0,1.2,0,1.7,0h1.1
			c1,0,1,0,0.9-1c0-0.5-0.2-0.7-0.7-0.7c-0.7,0-1.4,0-2.1,0C129.6,13.9,129.7,14.2,129.7,15.4z M134.1,4c-2.6-1.1-5.2-2.2-7.8-3.3
			c-0.4-0.2-0.7-0.2-1.1,0c-2.5,1-5,2.1-7.4,3.1c-1.3,0.6-1.1,0.3-1.2,1.7c0,0.6,0.2,0.8,0.8,0.8c2.8,0,5.6,0,8.4,0h8.3
			c0.7,0,0.8-0.2,0.8-0.8V5.1C134.8,4.3,134.8,4.3,134.1,4z M129.4,4.3c-0.1,0.3-0.3,0.4-0.6,0.4c-1.1,0-2.1,0-3.2,0
			c-1,0-2.1,0-3.1,0c-0.4,0-0.6-0.2-0.6-0.5c0-0.4,0.3-0.5,0.6-0.5c0.1,0,0.2,0,0.3,0c1.9,0,3.9,0,5.8,0c0.1,0,0.3,0,0.4,0.1
			C129.3,3.8,129.5,4,129.4,4.3z M134.1,16.6c-5.6,0-11.2,0-16.9,0c-0.4,0-0.7,0.2-0.7,0.7c0,0.3,0,0.6,0,0.9c0,0.6,0.2,0.8,0.8,0.8
			c2.8,0,5.5,0,8.3,0c2.8,0,5.6,0,8.4,0c0.5,0,0.7-0.2,0.7-0.7c0-0.3,0-0.6,0-0.9C134.8,16.9,134.6,16.6,134.1,16.6z M130.7,13
			c0.7,0,1.4,0,2.1,0c0.2,0,0.3-0.1,0.3-0.3c0-1.7,0-3.3,0-5c0-0.2-0.1-0.3-0.3-0.3c-0.7,0-1.4,0-2.1,0c-0.2,0-0.3,0.1-0.3,0.3
			c0,0.8,0,1.6,0,2.5c0,0.8,0,1.7,0,2.5C130.4,12.9,130.5,13,130.7,13z M125.9,8.2c-0.4,0-0.7,0.3-0.7,0.7v2h-2
			c-0.4,0-0.7,0.3-0.7,0.7c0,0.4,0.3,0.7,0.7,0.7h2v2c0,0.4,0.3,0.7,0.7,0.7c0.4,0,0.7-0.3,0.7-0.7v-2h2c0.4,0,0.7-0.3,0.7-0.7
			c0-0.4-0.3-0.7-0.7-0.7h-2v-2C126.6,8.5,126.3,8.2,125.9,8.2z"/>
	</g>
</g>
</svg>
