<svg xmlns="http://www.w3.org/2000/svg" width="30" height="30" viewBox="0 0 30 30">
  <defs>
    <style>
      .cls-1 {
        fill: #0073e0;
        fill-rule: evenodd;
      }
    </style>
  </defs>
  <path id="Shape_350_1" data-name="Shape 350 1" class="cls-1" d="M793.293,348.479h-2.806v2.785a0.5,0.5,0,0,1-1,0v-2.785h-2.478a0.5,0.5,0,1,1,0-.99h2.478v-2.46a0.5,0.5,0,0,1,1,0v2.46h2.806A0.5,0.5,0,1,1,793.293,348.479Z" transform="translate(-765.89 -324.875)"/>
  <path id="Shape_337_1_copy" data-name="Shape 337 1 copy" class="cls-1" d="M784.176,328.434a2.3,2.3,0,0,1,.852,1.052l0.625,1.694H788.4a3,3,0,0,1,2.219.934,3.1,3.1,0,0,1,.919,2.255v11.16a3.1,3.1,0,0,1-.919,2.255,3,3,0,0,1-2.219.934H771.14a3,3,0,0,1-2.219-.934,3.1,3.1,0,0,1-.919-2.255v-11.16a3.1,3.1,0,0,1,.919-2.255,3,3,0,0,1,2.219-.934h2.746l0.624-1.694a2.314,2.314,0,0,1,.852-1.052,2.162,2.162,0,0,1,1.269-.443h6.276A2.157,2.157,0,0,1,784.176,328.434Zm-8.286,7.573a5.627,5.627,0,0,0,0,7.885,5.413,5.413,0,0,0,7.759,0,5.627,5.627,0,0,0,0-7.885A5.413,5.413,0,0,0,775.89,336.007Zm3.879,7.53a3.371,3.371,0,0,1-2.494-1.053,3.618,3.618,0,0,1,0-5.069,3.481,3.481,0,0,1,4.989,0,3.618,3.618,0,0,1,0,5.069A3.374,3.374,0,0,1,779.769,343.537Zm10.371-.223a4.843,4.843,0,1,1-4.86,4.843A4.851,4.851,0,0,1,790.14,343.314Z" transform="translate(-765.89 -324.875)"/>
</svg>
