<?xml version="1.0" encoding="utf-8"?>
<!-- Generator: Adobe Illustrator 25.3.0, SVG Export Plug-In . SVG Version: 6.00 Build 0)  -->
<svg version="1.1" id="Layer_1" xmlns="http://www.w3.org/2000/svg" xmlns:xlink="http://www.w3.org/1999/xlink" x="0px" y="0px"
	 viewBox="0 0 118.7 20" style="enable-background:new 0 0 118.7 20;" xml:space="preserve">
<style type="text/css">
	.st0{fill-rule:evenodd;clip-rule:evenodd;fill:#00539E;}
	.st1{fill:#00539E;}
</style>
<path class="st0" d="M113.5,14.3h-1.6v-1.6c0-0.3-0.3-0.5-0.6-0.5c-0.3,0-0.5,0.2-0.5,0.5v1.6h-1.6c-0.3,0-0.5,0.2-0.5,0.5
	s0.2,0.5,0.5,0.5l0,0h1.6v1.6c0,0.3,0.3,0.5,0.6,0.5c0.3,0,0.5-0.2,0.5-0.5v-1.6h1.6c0.3,0,0.5-0.2,0.5-0.5
	C114.1,14.5,113.8,14.3,113.5,14.3L113.5,14.3z"/>
<g>
	<path class="st1" d="M5.7,13h3.2v1.6H3.7V4.8h2V13z"/>
	<path class="st1" d="M17.3,11.3h-5.7c0,0.6,0.2,1,0.6,1.3c0.3,0.3,0.8,0.5,1.3,0.5c0.7,0,1.2-0.3,1.6-0.9h2.1
		c-0.2,0.7-0.7,1.4-1.3,1.8c-0.6,0.5-1.4,0.7-2.3,0.7c-0.7,0-1.4-0.2-2-0.5s-1.1-0.8-1.4-1.4c-0.3-0.6-0.5-1.3-0.5-2.1
		s0.2-1.5,0.5-2.1s0.8-1.1,1.4-1.4s1.3-0.5,2-0.5s1.4,0.2,2,0.5s1,0.8,1.4,1.4c0.3,0.6,0.5,1.3,0.5,2C17.4,10.8,17.3,11,17.3,11.3z
		 M15.3,9.9c0-0.5-0.2-0.9-0.5-1.2c-0.4-0.3-0.8-0.5-1.3-0.5s-0.9,0.1-1.2,0.4c-0.3,0.3-0.5,0.7-0.6,1.2h3.6V9.9z"/>
	<path class="st1" d="M18.8,8.6C19.1,8,19.5,7.5,20,7.2s1.1-0.5,1.8-0.5c0.6,0,1.1,0.1,1.5,0.3c0.4,0.2,0.8,0.5,1,0.9V6.8h2v7.8h-2
		v-1.1c-0.3,0.4-0.6,0.7-1,0.9s-1,0.4-1.5,0.4c-0.7,0-1.2-0.2-1.8-0.5c-0.5-0.3-1-0.8-1.3-1.4s-0.5-1.3-0.5-2.1
		C18.3,9.9,18.4,9.2,18.8,8.6z M24.1,9.4c-0.2-0.3-0.4-0.6-0.8-0.8c-0.3-0.2-0.7-0.3-1-0.3s-0.7,0.1-1,0.3S20.7,9,20.6,9.4
		c-0.2,0.3-0.3,0.7-0.3,1.2s0.1,0.9,0.3,1.2s0.4,0.6,0.8,0.8c0.3,0.2,0.6,0.3,1,0.3s0.7-0.1,1-0.3s0.6-0.4,0.8-0.8s0.3-0.7,0.3-1.2
		C24.4,10.2,24.3,9.8,24.1,9.4z"/>
	<path class="st1" d="M31.5,12.7l2-6h2.1l-2.9,7.8h-2.4l-2.9-7.8h2.1L31.5,12.7z"/>
	<path class="st1" d="M43.8,11.3h-5.7c0,0.6,0.2,1,0.6,1.3c0.3,0.3,0.8,0.5,1.3,0.5c0.7,0,1.2-0.3,1.6-0.9h2.1
		c-0.2,0.7-0.7,1.4-1.3,1.8c-0.6,0.5-1.4,0.7-2.3,0.7c-0.7,0-1.4-0.2-2-0.5s-1.1-0.8-1.4-1.4c-0.3-0.6-0.5-1.3-0.5-2.1
		s0.2-1.5,0.5-2.1C37,8,37.4,7.5,38,7.2s1.3-0.5,2-0.5s1.4,0.2,2,0.5s1,0.8,1.4,1.4c0.3,0.6,0.5,1.3,0.5,2
		C43.9,10.8,43.9,11,43.8,11.3z M41.8,9.9c0-0.5-0.2-0.9-0.5-1.2c-0.4-0.3-0.8-0.5-1.3-0.5s-0.9,0.1-1.2,0.4
		c-0.3,0.3-0.5,0.7-0.6,1.2h3.6V9.9z"/>
	<path class="st1" d="M55.4,9.3c-0.2,0.5-0.6,0.8-1.2,1.1c-0.5,0.3-1.2,0.4-2,0.4h-1.6v3.8h-2V4.8h3.6c0.8,0,1.4,0.1,1.9,0.4
		s0.9,0.6,1.2,1.1s0.4,1,0.4,1.6C55.8,8.3,55.6,8.8,55.4,9.3z M53.4,8.8c0.3-0.2,0.4-0.6,0.4-1c0-1-0.5-1.4-1.6-1.4h-1.6v2.8h1.6
		C52.7,9.2,53.1,9.1,53.4,8.8z"/>
	<path class="st1" d="M58.6,14.2c-0.6-0.3-1.1-0.8-1.4-1.4c-0.3-0.6-0.5-1.3-0.5-2.1c0-0.8,0.2-1.5,0.5-2.1C57.5,8,58,7.5,58.6,7.2
		s1.3-0.5,2-0.5s1.4,0.2,2,0.5S63.7,8,64,8.6c0.4,0.6,0.5,1.3,0.5,2.1c0,0.8-0.2,1.5-0.5,2.1c-0.4,0.6-0.8,1.1-1.5,1.4
		c-0.6,0.3-1.3,0.5-2.1,0.5C59.8,14.7,59.2,14.5,58.6,14.2z M61.6,12.7c0.3-0.2,0.6-0.4,0.7-0.8c0.2-0.3,0.3-0.8,0.3-1.3
		c0-0.7-0.2-1.3-0.6-1.7c-0.4-0.4-0.9-0.6-1.4-0.6c-0.6,0-1,0.2-1.4,0.6c-0.4,0.4-0.6,1-0.6,1.7s0.2,1.3,0.6,1.7
		c0.4,0.4,0.8,0.6,1.4,0.6C60.9,13,61.3,12.9,61.6,12.7z"/>
	<path class="st1" d="M68,4.2v10.4h-2V4.2H68z"/>
	<path class="st1" d="M70.1,5.5c-0.2-0.2-0.3-0.5-0.3-0.8s0.1-0.6,0.3-0.8s0.5-0.3,0.9-0.3s0.6,0.1,0.9,0.3c0.2,0.2,0.3,0.5,0.3,0.8
		s-0.1,0.6-0.3,0.8c-0.2,0.2-0.5,0.3-0.9,0.3S70.3,5.8,70.1,5.5z M71.9,6.8v7.8h-2V6.8H71.9z"/>
	<path class="st1" d="M73.8,8.6c0.3-0.6,0.8-1.1,1.4-1.4s1.2-0.5,2-0.5c1,0,1.8,0.2,2.4,0.7s1.1,1.2,1.3,2h-2.1
		c-0.1-0.3-0.3-0.6-0.6-0.8c-0.3-0.2-0.6-0.3-1-0.3c-0.6,0-1,0.2-1.3,0.6c-0.3,0.4-0.5,1-0.5,1.7s0.2,1.3,0.5,1.7s0.8,0.6,1.3,0.6
		c0.8,0,1.3-0.4,1.6-1.1h2.1c-0.2,0.8-0.6,1.5-1.3,2c-0.6,0.5-1.4,0.7-2.4,0.7c-0.7,0-1.4-0.2-2-0.5s-1-0.8-1.4-1.4
		c-0.3-0.6-0.5-1.3-0.5-2.1S73.5,9.2,73.8,8.6z"/>
	<path class="st1" d="M89.7,6.8l-4.8,11.4h-2.1l1.7-3.9l-3.1-7.6h2.2l2,5.4l2-5.4L89.7,6.8L89.7,6.8z"/>
</g>
<g>
	<g>
		<path class="st0" d="M110.4,3.8c0-0.5,0-1.1,0.4-1.6h-4.6c-2.4,0-4.7,0-7.1,0c-0.5,0-0.9,0.3-1,0.8c-0.1,0.3,0,0.5,0,0.8
			C98,3.9,98,4,98.1,4c4,0,8.1,0,12.1,0C110.4,4,110.4,3.9,110.4,3.8z M101,6.5c0.4,0,0.7,0,1.1,0c0.1,0,0.1,0,0.1-0.1
			c0-0.2,0-0.4,0-0.5s0-0.1-0.1-0.1c-0.2,0-0.3,0-0.5,0l0,0c-0.2,0-0.4,0-0.5,0s-0.1,0-0.1,0.1S101,6.2,101,6.5
			C100.9,6.5,101,6.5,101,6.5z M102.2,7.2c0-0.1,0-0.2-0.2-0.2c-0.3,0-0.7,0-1,0c-0.1,0-0.2,0-0.1,0.1c0,0.5,0,1,0,1.5
			c0,1.5,0,3,0,4.5c0,0.1,0,0.2,0.2,0.2c0.3,0,0.6,0,1,0c0.1,0,0.2,0,0.2-0.2c0-1,0-2,0-3C102.2,9.2,102.2,8.2,102.2,7.2z
			 M111.1,11.1c0.7,0,1.4,0.2,2,0.6c0-1.3,0-2.2,0-2.2c0-2.1,0-4.1,0-6.2c0-0.1,0-0.2,0-0.3c-0.1-0.5-0.6-0.8-1-0.8
			c-0.6,0-0.9,0.4-0.9,1c0,0.3,0,0.7,0,1c0,0.2-0.1,0.3-0.3,0.3c-0.1,0-0.1,0-0.2,0c-3.7,0-7.4,0-11.1,0c-0.2,0-0.2,0-0.2,0.2
			c0,2.1,0,4.2,0,6.3s0,4.2,0,6.4c0,0.3,0.1,0.3,0.3,0.3c2.4,0,7.2,0,7.2,0s0.7,0,1.9,0c-0.9-0.7-1.5-1.8-1.5-3
			C107.3,12.8,109,11.1,111.1,11.1z M105.5,5.8c0.4,0,0.7,0,1.1,0h2c1,0,2,0,3,0c0.2,0,0.3,0.1,0.3,0.3c0,0.2-0.1,0.3-0.3,0.3
			c-0.8,0-1.6,0-2.3,0c-1.2,0-2.4,0-3.6,0c-0.1,0-0.1,0-0.2,0c-0.2,0-0.3-0.1-0.3-0.3C105.1,5.9,105.3,5.8,105.5,5.8z M103.4,10.1
			c0-0.9,0-1.9,0-2.8c0-0.1,0-0.2-0.2-0.2s-0.4-0.1-0.5,0s0,0.3,0,0.4c0,2.2,0,4.3,0,6.5c0,0.9-0.3,1.7-0.8,2.4
			c-0.1,0.1-0.1,0.2-0.1,0.4c0,0.2-0.1,0.3-0.3,0.3c-0.2,0-0.3-0.1-0.3-0.3c0-0.2-0.1-0.3-0.2-0.5c-0.4-0.6-0.7-1.3-0.7-2
			c-0.1-0.7,0-1.3,0-2c0-0.8,0-1.6,0-2.4c0-1.4,0-2.8,0-4.1c0-0.4,0.2-0.6,0.6-0.6s0.8,0,1.2,0c0.4,0,0.6,0.2,0.6,0.6
			c0,0.2,0,0.4,0,0.6c0,0.1,0,0.1,0.1,0.1c0.2,0,0.3,0,0.5,0c0.4,0,0.6,0.2,0.6,0.6c0,0.7,0,1.3,0,2c0,0.3,0,0.7,0,1
			c0,0.2-0.1,0.4-0.3,0.4C103.6,10.5,103.4,10.3,103.4,10.1z M105.9,16.6c-0.3,0-0.6,0-0.9,0s-0.6,0-0.9,0c-0.2,0-0.3-0.1-0.3-0.3
			c0-0.2,0.1-0.3,0.3-0.3c0.6,0,1.2,0,1.8,0c0.2,0,0.3,0.1,0.3,0.3C106.2,16.4,106,16.6,105.9,16.6z M105.9,14.5c-0.3,0-0.6,0-1,0
			c-0.3,0-0.6,0-0.9,0c-0.2,0-0.3-0.1-0.3-0.3s0.1-0.3,0.4-0.3c0.5,0,1,0,1.6,0c0.1,0,0.2,0,0.3,0c0.1,0,0.3,0.2,0.3,0.3
			C106.2,14.4,106,14.5,105.9,14.5z M105.9,12.4c-0.3,0-0.6,0-0.9,0s-0.6,0-0.9,0c-0.2,0-0.3-0.1-0.3-0.3s0.1-0.3,0.3-0.3
			c0.6,0,1.3,0,1.9,0c0.2,0,0.3,0.1,0.3,0.3C106.2,12.3,106,12.4,105.9,12.4z M106.6,8.4c-0.2,0-0.4-0.1-0.4-0.3s0.2-0.3,0.4-0.3
			c0.8,0,1.7,0,2.5,0s1.7,0,2.5,0c0.2,0,0.4,0.1,0.4,0.3c0,0.2-0.1,0.3-0.4,0.3C109.9,8.4,108.2,8.4,106.6,8.4z M102.1,13.9
			c-0.4,0-0.7,0-1.1,0c-0.1,0-0.1,0-0.1,0.1c0,0.2,0,0.3,0,0.5c0.1,0.5,0.3,1,0.6,1.5C102,15.4,102.2,14.7,102.1,13.9
			C102.2,13.9,102.2,13.9,102.1,13.9z"/>
	</g>
</g>
</svg>
