<?xml version="1.0" encoding="utf-8"?>
<!-- Generator: Adobe Illustrator 25.3.0, SVG Export Plug-In . SVG Version: 6.00 Build 0)  -->
<svg version="1.1" id="a" xmlns="http://www.w3.org/2000/svg" xmlns:xlink="http://www.w3.org/1999/xlink" x="0px" y="0px"
	 viewBox="0 0 91.4 16" style="enable-background:new 0 0 91.4 16;" xml:space="preserve">
<style type="text/css">
	.st0{fill-rule:evenodd;clip-rule:evenodd;fill:#00539E;}
</style>
<path id="Add_New" class="st0" d="M6.7,11.5h1.9L5.3,2.4H3.2L0,11.5h1.9l0.6-1.7h3.6L6.7,11.5z M3,8.3l1.3-3.8l1.3,3.8H3z M9.3,7.8
	c0,0.7,0.1,1.3,0.4,2c0.3,0.5,0.7,1,1.2,1.3c0.5,0.3,1.1,0.5,1.7,0.5c0.5,0,1-0.1,1.4-0.3c0.4-0.2,0.7-0.5,0.9-0.9v1.1h1.8V1.9h-1.8
	v3.4c-0.3-0.3-0.6-0.6-1-0.8c-0.4-0.2-0.9-0.3-1.3-0.3c-0.6,0-1.2,0.2-1.7,0.5C10.4,4.9,10,5.4,9.7,5.9C9.4,6.5,9.3,7.2,9.3,7.8
	L9.3,7.8L9.3,7.8z M14.9,7.9c0,0.4-0.1,0.8-0.3,1.1c-0.2,0.3-0.4,0.6-0.7,0.7C13.7,9.9,13.3,10,13,10c-0.3,0-0.6-0.1-0.9-0.3
	c-0.3-0.2-0.5-0.4-0.7-0.7c-0.2-0.4-0.3-0.7-0.3-1.1c0-0.4,0.1-0.8,0.3-1.1c0.2-0.3,0.4-0.5,0.7-0.7c0.3-0.2,0.6-0.3,0.9-0.2
	c0.3,0,0.7,0.1,0.9,0.3c0.3,0.2,0.5,0.4,0.7,0.7C14.8,7.1,14.9,7.5,14.9,7.9L14.9,7.9L14.9,7.9z M18,7.8c0,0.7,0.1,1.3,0.4,2
	c0.3,0.5,0.7,1,1.2,1.3c0.5,0.3,1.1,0.5,1.7,0.5c0.5,0,1-0.1,1.4-0.3c0.4-0.2,0.7-0.5,0.9-0.9v1.1h1.8V1.9h-1.8v3.4
	c-0.3-0.3-0.6-0.6-1-0.8c-0.4-0.2-0.9-0.3-1.3-0.3c-0.6,0-1.2,0.2-1.7,0.5c-0.5,0.3-0.9,0.8-1.2,1.3C18.1,6.5,18,7.2,18,7.8L18,7.8
	L18,7.8z M23.6,7.9c0,0.4-0.1,0.8-0.3,1.1c-0.3,0.6-1,1-1.6,1c-0.3,0-0.6-0.1-0.9-0.3c-0.3-0.2-0.5-0.4-0.7-0.7
	c-0.2-0.3-0.3-0.7-0.3-1.1c0-0.4,0.1-0.8,0.3-1.1c0.3-0.6,0.9-1,1.6-1c0.7,0,1.3,0.4,1.6,1C23.5,7.1,23.6,7.5,23.6,7.9L23.6,7.9z
	 M37.9,2.4h-1.8v6.2L32,2.4h-1.8v9.1H32V5.2l4.1,6.2h1.8V2.4z M46.3,7.7c0-0.7-0.1-1.3-0.4-1.9c-0.3-0.5-0.7-1-1.2-1.3
	c-1.2-0.6-2.5-0.6-3.7,0c-0.5,0.3-1,0.8-1.3,1.3c-0.6,1.2-0.6,2.7,0,3.9c0.3,0.5,0.7,1,1.3,1.3c0.6,0.3,1.2,0.5,1.8,0.5
	c0.8,0,1.5-0.2,2.2-0.7c0.6-0.4,1-1,1.2-1.7h-1.9c-0.3,0.6-0.8,0.9-1.4,0.9c-0.4,0-0.9-0.1-1.2-0.4c-0.3-0.3-0.5-0.8-0.5-1.2h5.2
	C46.3,8.2,46.3,8,46.3,7.7L46.3,7.7L46.3,7.7z M41.1,7.2c0-0.4,0.2-0.8,0.6-1.1c0.3-0.3,0.7-0.4,1.1-0.4c0.4,0,0.9,0.1,1.2,0.4
	c0.3,0.3,0.5,0.7,0.5,1.1H41.1z M55.8,4.3l-1.3,5.5l-1.3-5.5h-1.9l-1.4,5.5l-1.3-5.5h-1.8l2.1,7.2h2l1.3-5l1.3,5h1.9l2.1-7.2
	L55.8,4.3L55.8,4.3z"/>
<path id="Shape_391_1" class="st0" d="M90.8,11.4h-3.4c-0.3,0-0.6,0.3-0.6,0.6v3.3c0,0.3-0.3,0.6-0.6,0.6h-1.1
	c-0.3,0-0.6-0.3-0.6-0.6V12c0-0.3-0.3-0.6-0.6-0.6h-3.4c-0.3,0-0.6-0.3-0.6-0.6V9.8c0-0.3,0.3-0.6,0.6-0.6h3.4
	c0.3,0,0.6-0.3,0.6-0.6V5.2c0-0.3,0.3-0.6,0.6-0.6h1.1c0.3,0,0.6,0.3,0.6,0.6v3.3c0,0.3,0.3,0.6,0.6,0.6h3.4c0.3,0,0.6,0.3,0.6,0.6
	v1.1C91.4,11.2,91.2,11.4,90.8,11.4z M81.6,6.9H69.1c-0.3,0-0.6-0.3-0.6-0.6V5.2c0-0.3,0.3-0.6,0.6-0.6h12.6c0.3,0,0.6,0.3,0.6,0.6
	v1.1C82.2,6.6,82,6.9,81.6,6.9z M81.6,2.3H69.1c-0.3,0-0.6-0.3-0.6-0.6V0.6c0-0.3,0.3-0.6,0.6-0.6h12.6c0.3,0,0.6,0.3,0.6,0.6v1.1
	C82.2,2,82,2.3,81.6,2.3z M69.1,9.1h8c0.3,0,0.6,0.3,0.6,0.6v1.1c0,0.3-0.3,0.6-0.6,0.6h-8c-0.3,0-0.6-0.3-0.6-0.6V9.8
	C68.4,9.4,68.7,9.1,69.1,9.1L69.1,9.1z"/>
</svg>
