<svg xmlns="http://www.w3.org/2000/svg" width="79.997" height="80" viewBox="0 0 86 86.003">
  <defs>
    <style>
      .cls-1 {
        fill: #fff;
        fill-rule: evenodd;
      }
    </style>
  </defs>
  <path id="add_org_w" data-name="add org w" class="cls-1" d="M546.266,385.142h-8.2v-7.929a2.736,2.736,0,0,0-5.468,0v7.929h-8.2a2.645,2.645,0,1,0,0,5.286h8.2v7.929a2.736,2.736,0,0,0,5.468,0v-7.929h8.2A2.644,2.644,0,1,0,546.266,385.142ZM500.091,345.2c-8.522,2.027-16.875,4.011-25.225,6.007a1.329,1.329,0,0,0-1.278,1.472q0.091,21.183.017,42.368c0,0.946.215,1.23,1.335,1.223q11.9-.075,23.809,0c1.292,0.011,1.361-.446,1.36-1.358q-0.039-18.585-.017-37.17c0-2.027.726-2.865,2.889-2.887q15.338-.154,30.677-0.187a2.793,2.793,0,0,1,3.118,2.856c0.017,8.557,0,.2.024,8.757,0,0.772-.148,1.073-1.131,1.1-4.178.1-4.177,0.134-4.177-3.6,0-6.615-.045,3.685.039-2.93,0.016-1.283-.429-1.509-1.746-1.5q-11.463.083-22.927,0c-1.311-.009-1.8.2-1.789,1.512q0.1,17.085,0,34.169c-0.006,1.172.542,1.223,1.555,1.221,11.228-.022,1.817.015,13.046-0.048,1.471-.008,1.851.305,1.8,1.615-0.116,3.143-.034,3.145-3.575,3.145-24.574,0-28.508-.012-53.082.033-1.453,0-1.864-.278-1.813-1.605,0.12-3.147.038-3.223,3.565-3.118,1.472,0.043,1.811-.3,1.805-1.612-0.06-14.438-.037-28.876-0.037-43.313,0-3.007.239-3.338,3.43-4.1q15.107-3.609,30.227-7.17c1.537-.363,2.964.446,3.031,1.855,0.119,2.513.061,5.033,0.076,7.55a0.482,0.482,0,0,1-.026.307c-1.306,1.02-2.857.2-4.277,0.434-0.865.141-.7-0.488-0.7-0.931C500.086,347.947,500.091,346.6,500.091,345.2Zm-13.41,24.577c-1.586,0-3.173.01-4.758-.006-0.436,0-1.116.163-1.16-.406a31.984,31.984,0,0,1-.028-3.767,0.754,0.754,0,0,1,.921-0.548c3.407,0.007,6.814.024,10.221,0a0.785,0.785,0,0,1,.969.832c0,1.1-.041,2.2-0.076,3.3-0.023.747-.658,0.587-1.155,0.59C489.971,369.779,488.326,369.773,486.681,369.773Zm0.154,10.383c-1.586,0-3.173-.044-4.756.014a1.119,1.119,0,0,1-1.416-1.294c-0.08-3.432-.114-3.432,3.685-3.432,2.408,0,4.816.034,7.222-.017,0.906-.02,1.2.22,1.248,1.044,0.232,3.693.262,3.692-3.87,3.686h-2.113Zm31.543-10.383c-1.642,0-3.284-.038-4.924.016a0.9,0.9,0,0,1-1.145-.972c-0.324-3.761-.346-3.759,3.841-3.76,2.286,0,4.574.026,6.858-.025,1.054-.023,1.424.293,1.452,1.261,0.1,3.481.137,3.48-3.8,3.48h-2.286Zm0.04,10.383c-1.642,0-3.285-.033-4.925.014-0.823.024-1.211-.224-1.164-0.966a1.176,1.176,0,0,0,0-.157c-0.26-3.6-.26-3.6,3.791-3.6,2.346,0,4.692.038,7.036-.017,0.986-.024,1.288.238,1.309,1.141,0.085,3.577.124,3.576-3.933,3.6-0.7,0-1.407,0-2.111,0v-0.014Zm-31.74-25.191c1.7,0,3.4.036,5.093-.016,0.84-.025,1.058.173,1.061,0.959,0.013,3.468.052,3.468-3.743,3.468-2.4,0-4.8-.022-7.2.012-0.818.011-1.213-.071-1.234-0.984-0.083-3.44-.133-3.439,3.741-3.439h2.284Zm0.09,30.877c1.646,0,3.294.037,4.937-.015,0.837-.027,1.076.2,1.114,0.962,0.174,3.465.2,3.464-3.572,3.464-2.469,0-4.939-.036-7.406.019-0.915.02-1.166-.207-1.181-1.039-0.064-3.392-.1-3.391,3.64-3.391h2.468Z" transform="translate(-463 -327.498)"/>
</svg>
