<svg xmlns="http://www.w3.org/2000/svg" width="94.16" height="20" viewBox="0 0 94.16 20">
  <defs>
    <style>
      .cls-1 {
        fill: #0083ff;
      }

      .cls-1, .cls-2 {
        fill-rule: evenodd;
      }

      .cls-2 {
        fill: #0b88ff;
      }
    </style>
  </defs>
  <path id="Add_Org._copy" data-name="Add Org. copy" class="cls-1" d="M1010.01,190.475h2.05l-3.48-9.786h-2.26l-3.48,9.786h2.04l0.63-1.862h3.86Zm-3.97-3.43,1.4-4.088,1.4,4.088h-2.8Zm6.81-.476a4.6,4.6,0,0,0,.46,2.107,3.478,3.478,0,0,0,1.27,1.421,3.286,3.286,0,0,0,1.77.5,3.181,3.181,0,0,0,1.52-.35,2.658,2.658,0,0,0,1.01-.924v1.148h1.97v-10.36h-1.97V183.8a2.89,2.89,0,0,0-1.08-.875,3.269,3.269,0,0,0-1.43-.329,3.349,3.349,0,0,0-3.06,1.89,4.52,4.52,0,0,0-.46,2.086h0Zm6.04,0.028a2.478,2.478,0,0,1-.28,1.225,1.94,1.94,0,0,1-.74.784,2.031,2.031,0,0,1-1.02.273,1.885,1.885,0,0,1-.99-0.28,2.065,2.065,0,0,1-.75-0.8,2.526,2.526,0,0,1-.28-1.225,2.447,2.447,0,0,1,.28-1.211,1.978,1.978,0,0,1,.75-0.777,1.913,1.913,0,0,1,.99-0.266,2.031,2.031,0,0,1,1.02.273,1.94,1.94,0,0,1,.74.784,2.478,2.478,0,0,1,.28,1.225h0Zm3.34-.028a4.6,4.6,0,0,0,.47,2.107,3.527,3.527,0,0,0,1.26,1.421,3.3,3.3,0,0,0,1.78.5,3.141,3.141,0,0,0,1.51-.35,2.658,2.658,0,0,0,1.01-.924v1.148h1.97v-10.36h-1.97V183.8a2.89,2.89,0,0,0-1.08-.875,3.237,3.237,0,0,0-1.43-.329,3.4,3.4,0,0,0-1.79.49,3.434,3.434,0,0,0-1.26,1.4,4.523,4.523,0,0,0-.47,2.086h0Zm6.05,0.028a2.592,2.592,0,0,1-.28,1.225,2.032,2.032,0,0,1-.75.784,1.969,1.969,0,0,1-1.01.273,1.885,1.885,0,0,1-.99-0.28,2.065,2.065,0,0,1-.75-0.8,2.529,2.529,0,0,1-.29-1.225,2.449,2.449,0,0,1,.29-1.211,1.983,1.983,0,0,1,2.75-.77,2.032,2.032,0,0,1,.75.784,2.592,2.592,0,0,1,.28,1.225h0Zm11.61,3.976a4.99,4.99,0,0,0,2.5-.644,4.707,4.707,0,0,0,1.79-1.785,5.357,5.357,0,0,0,0-5.152,4.707,4.707,0,0,0-1.79-1.785,5.155,5.155,0,0,0-4.99,0,4.732,4.732,0,0,0-1.8,1.785,5.287,5.287,0,0,0,0,5.152,4.732,4.732,0,0,0,1.8,1.785,4.953,4.953,0,0,0,2.49.644h0Zm0-1.75a2.935,2.935,0,0,1-1.54-.4,2.708,2.708,0,0,1-1.05-1.141,3.77,3.77,0,0,1-.37-1.722,3.726,3.726,0,0,1,.37-1.715,2.671,2.671,0,0,1,1.05-1.127,3.221,3.221,0,0,1,3.08,0,2.712,2.712,0,0,1,1.04,1.127,3.727,3.727,0,0,1,.38,1.715,3.772,3.772,0,0,1-.38,1.722,2.75,2.75,0,0,1-1.04,1.141,2.935,2.935,0,0,1-1.54.4h0Zm8.32-4.9v-1.2h-1.94v7.756h1.94v-3.864a2.011,2.011,0,0,1,.46-1.512,1.957,1.957,0,0,1,1.38-.434h0.52v-2.058a2.691,2.691,0,0,0-1.38.35,2.763,2.763,0,0,0-.98.966h0Zm6.65-1.33a3.338,3.338,0,0,0-1.78.49,3.434,3.434,0,0,0-1.26,1.4,4.52,4.52,0,0,0-.46,2.086,4.6,4.6,0,0,0,.46,2.107,3.478,3.478,0,0,0,1.27,1.421,3.286,3.286,0,0,0,1.77.5,3.062,3.062,0,0,0,1.51-.364,2.946,2.946,0,0,0,1.03-.91v1.2a2.031,2.031,0,0,1-.53,1.547,1.869,1.869,0,0,1-1.37.511,2.3,2.3,0,0,1-1.23-.315,1.454,1.454,0,0,1-.65-0.847h-1.93a2.871,2.871,0,0,0,1.18,2.1,4.442,4.442,0,0,0,2.69.77,4.121,4.121,0,0,0,2.08-.5,3.246,3.246,0,0,0,1.29-1.344,4.279,4.279,0,0,0,.43-1.925v-7.812h-1.96v1.106a2.766,2.766,0,0,0-1.03-.889,3.157,3.157,0,0,0-1.51-.343h0Zm2.54,4a2.478,2.478,0,0,1-.28,1.225,1.9,1.9,0,0,1-.75.784,1.969,1.969,0,0,1-1.01.273,1.885,1.885,0,0,1-.99-0.28,2.065,2.065,0,0,1-.75-0.8,2.526,2.526,0,0,1-.28-1.225,2.447,2.447,0,0,1,.28-1.211,2.025,2.025,0,0,1,.74-0.777,2.009,2.009,0,0,1,2.01.007,1.9,1.9,0,0,1,.75.784,2.478,2.478,0,0,1,.28,1.225h0Zm4.7,3.976a1.181,1.181,0,0,0,.85-0.329,1.181,1.181,0,0,0,0-1.638,1.181,1.181,0,0,0-.85-0.329,1.212,1.212,0,0,0-.87.329,1.156,1.156,0,0,0,0,1.638,1.212,1.212,0,0,0,.87.329h0Z" transform="translate(-1002.84 -175.656)"/>
  <path id="addOrg_copy" data-name="addOrg copy" class="cls-2" d="M1096.24,189.58h-2.29v-2.209a0.766,0.766,0,0,0-1.53,0v2.209h-2.29a0.737,0.737,0,1,0,0,1.474h2.29v2.209a0.766,0.766,0,0,0,1.53,0v-2.209h2.29A0.737,0.737,0,1,0,1096.24,189.58Zm-12.89-11.132c-2.38.565-4.71,1.118-7.04,1.674a0.372,0.372,0,0,0-.36.41q0.03,5.9.01,11.808c0,0.263.06,0.342,0.37,0.341,2.22-.014,4.43-0.017,6.65,0,0.36,0,.38-0.124.38-0.378q-0.015-5.179-.01-10.359a0.681,0.681,0,0,1,.81-0.805q4.275-.043,8.56-0.052a0.778,0.778,0,0,1,.87.8c0,2.385,0,.056.01,2.441,0,0.215-.05.3-0.32,0.305-1.17.027-1.17,0.037-1.17-1,0-1.844-.01,1.027.01-0.817,0.01-.357-0.12-0.42-0.48-0.418-2.13.016-4.27,0.015-6.4,0-0.37,0-.5.056-0.5,0.421q0.03,4.761,0,9.523c0,0.326.15,0.341,0.43,0.34,3.14-.006.51,0,3.65-0.013,0.41,0,.51.085,0.5,0.45-0.03.876-.01,0.876-1,0.876-6.86,0-7.95,0-14.81.009-0.41,0-.52-0.077-0.51-0.447,0.03-.877.01-0.9,1-0.869,0.41,0.012.5-.084,0.5-0.449-0.02-4.024-.01-8.047-0.01-12.071,0-.838.07-0.93,0.96-1.143q4.215-1.005,8.43-2a0.637,0.637,0,0,1,.85.517c0.03,0.7.02,1.4,0.02,2.1a0.115,0.115,0,0,1-.01.085,2.191,2.191,0,0,1-1.19.122c-0.24.039-.2-0.136-0.2-0.26v-1.142Zm-3.74,6.849c-0.44,0-.89,0-1.33,0-0.12,0-.31.045-0.32-0.113a9.2,9.2,0,0,1-.01-1.05c0-.118.13-0.153,0.26-0.153,0.95,0,1.9.007,2.85,0a0.218,0.218,0,0,1,.27.232c0,0.307-.01.614-0.02,0.92-0.01.208-.19,0.164-0.32,0.165C1080.53,185.3,1080.07,185.3,1079.61,185.3Zm0.04,2.894c-0.44,0-.88-0.012-1.33,0a0.311,0.311,0,0,1-.39-0.361c-0.02-.956-0.03-0.956,1.03-0.956,0.67,0,1.34.009,2.01,0,0.26,0,.34.061,0.35,0.291,0.07,1.029.07,1.029-1.08,1.027h-0.59Zm8.8-2.894c-0.45,0-.91-0.01-1.37,0a0.25,0.25,0,0,1-.32-0.271c-0.09-1.048-.1-1.048,1.07-1.048,0.64,0,1.28.007,1.92-.007a0.315,0.315,0,0,1,.4.352c0.03,0.97.04,0.969-1.06,0.969h-0.64Zm0.02,2.894c-0.46,0-.92-0.009-1.38,0-0.23.007-.34-0.063-0.32-0.269v-0.044c-0.08-1-.08-1,1.05-1,0.66,0,1.31.01,1.97,0,0.27-.007.36,0.066,0.36,0.318,0.03,1,.04,1-1.1,1-0.19,0-.39,0-0.58,0v0Zm-8.86-7.021c0.47,0,.95.011,1.42,0,0.23-.007.29,0.048,0.29,0.267,0.01,0.967.02,0.967-1.04,0.967-0.67,0-1.34-.006-2.01,0-0.23,0-.34-0.02-0.34-0.274-0.03-.959-0.04-0.959,1.04-0.959h0.64Zm0.02,8.606c0.46,0,.92.01,1.38-0.005,0.23-.007.3,0.057,0.31,0.269,0.05,0.965.06,0.965-1,.965-0.68,0-1.37-.01-2.06,0-0.26.006-.33-0.058-0.33-0.289-0.02-.946-0.03-0.945,1.01-0.945h0.69Z" transform="translate(-1002.84 -175.656)"/>
</svg>
