<svg id="addroles" xmlns="http://www.w3.org/2000/svg" width="79.87" height="18" viewBox="0 0 79.87 18">
  <defs>
    <style>
      .cls-1 {
        fill: #0083ff;
      }

      .cls-1, .cls-2 {
        fill-rule: evenodd;
      }

      .cls-2 {
        fill: #0686ff;
      }
    </style>
  </defs>
  <path id="Add_Roles_copy" data-name="Add Roles copy" class="cls-1" d="M1010.75,142.475h1.61l-2.73-7.689h-1.78l-2.73,7.689h1.6l0.5-1.463h3.03Zm-3.11-2.695,1.1-3.212,1.1,3.212h-2.2Zm5.34-.374a3.656,3.656,0,0,0,.37,1.655,2.67,2.67,0,0,0,1,1.117,2.552,2.552,0,0,0,1.39.4,2.483,2.483,0,0,0,1.19-.275,2.071,2.071,0,0,0,.79-0.726v0.9h1.55v-8.14h-1.55v2.893a2.22,2.22,0,0,0-.85-0.688,2.527,2.527,0,0,0-1.12-.258,2.638,2.638,0,0,0-1.4.385,2.606,2.606,0,0,0-1,1.1,3.6,3.6,0,0,0-.37,1.639h0Zm4.75,0.022a2.049,2.049,0,0,1-.21.962,1.629,1.629,0,0,1-.59.616,1.568,1.568,0,0,1-.8.215,1.517,1.517,0,0,1-.78-0.22,1.563,1.563,0,0,1-.58-0.633,1.978,1.978,0,0,1-.23-0.962,1.919,1.919,0,0,1,.23-0.952,1.5,1.5,0,0,1,.58-0.61,1.53,1.53,0,0,1,.78-0.209,1.567,1.567,0,0,1,.8.214,1.636,1.636,0,0,1,.59.616,2.056,2.056,0,0,1,.21.963h0Zm2.63-.022a3.654,3.654,0,0,0,.36,1.655,2.81,2.81,0,0,0,1,1.117,2.576,2.576,0,0,0,1.39.4,2.483,2.483,0,0,0,1.19-.275,2.1,2.1,0,0,0,.8-0.726v0.9h1.54v-8.14h-1.54v2.893a2.3,2.3,0,0,0-.85-0.688,2.569,2.569,0,0,0-1.13-.258,2.638,2.638,0,0,0-1.4.385,2.741,2.741,0,0,0-1,1.1,3.6,3.6,0,0,0-.36,1.639h0Zm4.75,0.022a2.049,2.049,0,0,1-.22.962,1.563,1.563,0,0,1-1.38.831,1.466,1.466,0,0,1-.78-0.22,1.585,1.585,0,0,1-.59-0.633,1.975,1.975,0,0,1-.22-0.962,1.917,1.917,0,0,1,.22-0.952,1.567,1.567,0,0,1,.58-0.61,1.54,1.54,0,0,1,.79-0.209,1.56,1.56,0,0,1,1.38.83,2.056,2.056,0,0,1,.22.963h0Zm11.28,3.047-1.82-3.113a2.225,2.225,0,0,0,1.3-.842,2.421,2.421,0,0,0,.12-2.563,2.1,2.1,0,0,0-.93-0.847,3.274,3.274,0,0,0-1.5-.313h-2.85v7.678h1.52v-2.992h0.72l1.68,2.992h1.76Zm-4.16-6.4h1.27a1.293,1.293,0,0,1,.93.291,1.1,1.1,0,0,1,.31.82,1.146,1.146,0,0,1-.31.841,1.26,1.26,0,0,1-.93.3h-1.27v-2.255Zm8.13,6.5a3.246,3.246,0,0,0,1.59-.391,2.878,2.878,0,0,0,1.13-1.1,3.2,3.2,0,0,0,.42-1.65,3.289,3.289,0,0,0-.4-1.65,2.929,2.929,0,0,0-1.12-1.106,3.4,3.4,0,0,0-3.16,0,2.929,2.929,0,0,0-1.12,1.106,3.289,3.289,0,0,0-.4,1.65,3.393,3.393,0,0,0,.39,1.65,2.8,2.8,0,0,0,1.1,1.1,3.116,3.116,0,0,0,1.57.391h0Zm0-1.342a1.421,1.421,0,0,1-1.09-.468,1.934,1.934,0,0,1-.43-1.336,1.894,1.894,0,0,1,.44-1.337,1.46,1.46,0,0,1,1.1-.467,1.475,1.475,0,0,1,1.1.467,1.857,1.857,0,0,1,.46,1.337,2.135,2.135,0,0,1-.22.99,1.473,1.473,0,0,1-.59.61,1.546,1.546,0,0,1-.77.2h0Zm4.25-6.9v8.14h1.53v-8.14h-1.53Zm8.63,4.961a3.245,3.245,0,0,0-.37-1.579,2.71,2.71,0,0,0-1.06-1.061,3.4,3.4,0,0,0-3.12.011,2.64,2.64,0,0,0-1.07,1.1,3.527,3.527,0,0,0-.38,1.661,3.393,3.393,0,0,0,.39,1.65,2.67,2.67,0,0,0,1.07,1.1,3.169,3.169,0,0,0,1.57.391,2.917,2.917,0,0,0,1.82-.567,2.822,2.822,0,0,0,1-1.446h-1.65a1.243,1.243,0,0,1-1.21.737,1.407,1.407,0,0,1-.99-0.374,1.526,1.526,0,0,1-.45-1.034h4.41a3.589,3.589,0,0,0,.04-0.594h0Zm-4.44-.44a1.524,1.524,0,0,1,.47-0.963,1.385,1.385,0,0,1,.95-0.346,1.522,1.522,0,0,1,1.02.357,1.254,1.254,0,0,1,.42.952h-2.86Zm7.85,3.718a3.113,3.113,0,0,0,1.26-.237,1.944,1.944,0,0,0,.83-0.654,1.637,1.637,0,0,0,.28-0.946,1.451,1.451,0,0,0-.32-0.974,1.865,1.865,0,0,0-.73-0.544,8.186,8.186,0,0,0-1.08-.341,4.808,4.808,0,0,1-.95-0.325,0.5,0.5,0,0,1-.3-0.467,0.488,0.488,0,0,1,.22-0.429,1.116,1.116,0,0,1,.64-0.154,1.1,1.1,0,0,1,.71.214,0.788,0.788,0,0,1,.3.578h1.46a2.009,2.009,0,0,0-.71-1.469,2.572,2.572,0,0,0-1.72-.544,3.078,3.078,0,0,0-1.27.242,1.986,1.986,0,0,0-.83.66,1.6,1.6,0,0,0-.28.924,1.44,1.44,0,0,0,.31.979,1.843,1.843,0,0,0,.74.539,7.679,7.679,0,0,0,1.1.341,5.574,5.574,0,0,1,.96.324,0.476,0.476,0,0,1,.3.446,0.547,0.547,0,0,1-.25.451,1.144,1.144,0,0,1-.68.176,1.193,1.193,0,0,1-.75-0.231,0.844,0.844,0,0,1-.34-0.583h-1.54a1.926,1.926,0,0,0,.38,1.023,2.364,2.364,0,0,0,.93.731,3.161,3.161,0,0,0,1.33.27h0Z" transform="translate(-1005.13 -128)"/>
  <path id="add_roles" data-name="add roles" class="cls-2" d="M1068.75,146a0.73,0.73,0,0,1-.75-0.7,6.63,6.63,0,0,1,6.83-6.4h1.13a7.272,7.272,0,0,1,2.25.356,0.7,0.7,0,0,1,.46.9,0.772,0.772,0,0,1-.96.433,5.6,5.6,0,0,0-1.75-.277h-1.13a5.174,5.174,0,0,0-5.33,4.992,0.724,0.724,0,0,1-.75.7h0Zm11.63-13.254a5.076,5.076,0,1,0-5.06,4.746A4.916,4.916,0,0,0,1080.38,132.746Zm-1.5,0a3.573,3.573,0,1,1-3.56-3.34A3.461,3.461,0,0,1,1078.88,132.746Zm5.37,9.035H1082v-2.109a0.752,0.752,0,0,0-1.5,0v2.109h-2.26a0.7,0.7,0,1,0,0,1.406h2.26v2.11a0.752,0.752,0,0,0,1.5,0v-2.11h2.25A0.7,0.7,0,1,0,1084.25,141.781Z" transform="translate(-1005.13 -128)"/>
</svg>
