<?xml version="1.0" encoding="utf-8"?>
<!-- Generator: Adobe Illustrator 24.2.1, SVG Export Plug-In . SVG Version: 6.00 Build 0)  -->
<svg version="1.1" id="Layer_1" xmlns="http://www.w3.org/2000/svg" xmlns:xlink="http://www.w3.org/1999/xlink" x="0px" y="0px"
	 viewBox="0 0 128 139" style="enable-background:new 0 0 128 139;" xml:space="preserve">
<style type="text/css">
	.st0{fill-rule:evenodd;clip-rule:evenodd;fill:#FFFFFF;}
</style>
<path id="add_roles" class="st0" d="M12.9,130.8c-2.6,0.1-4.8-2-5-4.6c0.8-24.1,21-43,45.1-42.3h7.5c5,0,10.1,0.8,14.9,2.4
	c2.4,0.7,3.8,3.3,3.1,5.8c0,0.1,0,0.1-0.1,0.2c-1,2.5-3.8,3.7-6.3,2.9c-3.7-1.2-7.6-1.8-11.6-1.8h-7.5c-18.8-0.6-34.6,14.2-35.2,33
	C17.8,128.9,15.6,130.9,12.9,130.8C12.9,130.8,12.9,130.8,12.9,130.8L12.9,130.8L12.9,130.8z M89.8,43.2C91,24.7,77,8.8,58.5,7.6
	S24,20.4,22.8,38.9c-1.2,18.5,12.8,34.4,31.3,35.7c0.7,0,1.5,0.1,2.2,0.1C74.2,75.1,89.2,61.1,89.8,43.2z M79.9,39.2
	c0.9,13-9,24.3-22,25.1c-13,0.9-24.3-9-25.1-22c-0.9-13,9-24.3,22-25.1c0.5,0,1-0.1,1.6-0.1C68.9,16.8,79.4,26.6,79.9,39.2z
	 M115.3,102.9h-14.9V89c-0.2-2.7-2.6-4.8-5.3-4.6c-2.5,0.2-4.4,2.1-4.6,4.6v13.9H75.6c-2.6,0-4.6,2.1-4.6,4.6c0,2.6,2.1,4.6,4.6,4.6
	h14.9v13.9c0.2,2.7,2.6,4.8,5.3,4.6c2.5-0.2,4.4-2.1,4.6-4.6v-13.9h14.9c2.6,0,4.6-2.1,4.6-4.6C120,105,117.9,102.9,115.3,102.9z"/>
</svg>
