<?xml version="1.0" encoding="utf-8"?>
<!-- Generator: Adobe Illustrator 24.2.1, SVG Export Plug-In . SVG Version: 6.00 Build 0)  -->
<svg version="1.1" id="addroles" xmlns="http://www.w3.org/2000/svg" xmlns:xlink="http://www.w3.org/1999/xlink" x="0px" y="0px"
	 viewBox="0 0 19.5 18" style="enable-background:new 0 0 19.5 18;" xml:space="preserve">
<style type="text/css">
	.st0{fill-rule:evenodd;clip-rule:evenodd;fill:#0686FF;}
</style>
<path id="add_roles" class="st0" d="M3.1,17.6c-0.4,0-0.7-0.3-0.7-0.6c0.1-3.3,2.9-5.9,6.2-5.8h1c0.7,0,1.4,0.1,2,0.3
	c0.3,0.1,0.5,0.5,0.4,0.8c0,0,0,0,0,0c-0.1,0.3-0.5,0.5-0.9,0.4c-0.5-0.2-1-0.3-1.6-0.3h-1C6,12.4,3.9,14.4,3.8,17
	C3.8,17.3,3.5,17.6,3.1,17.6C3.1,17.6,3.1,17.6,3.1,17.6L3.1,17.6L3.1,17.6z M13.6,5.6c0.2-2.5-1.7-4.7-4.3-4.9S4.6,2.5,4.4,5
	s1.7,4.7,4.3,4.9c0.1,0,0.2,0,0.3,0C11.5,10,13.5,8.1,13.6,5.6z M12.3,5c0.1,1.8-1.2,3.3-3,3.4C7.5,8.5,6,7.2,5.9,5.4
	C5.8,3.6,7.1,2.1,8.9,2C9,2,9,2,9.1,2C10.8,1.9,12.3,3.3,12.3,5z M17.1,13.8h-2v-1.9c0-0.4-0.4-0.7-0.7-0.6c-0.3,0-0.6,0.3-0.6,0.6
	v1.9h-2c-0.4,0-0.6,0.3-0.6,0.6s0.3,0.6,0.6,0.6h2V17c0,0.4,0.4,0.7,0.7,0.6c0.3,0,0.6-0.3,0.6-0.6v-1.9h2c0.4,0,0.6-0.3,0.6-0.6
	S17.4,13.8,17.1,13.8z"/>
</svg>
