<?xml version="1.0" encoding="utf-8"?>
<!-- Generator: Adobe Illustrator 24.2.1, SVG Export Plug-In . SVG Version: 6.00 Build 0)  -->
<svg version="1.1" id="Layer_1" xmlns="http://www.w3.org/2000/svg" xmlns:xlink="http://www.w3.org/1999/xlink" x="0px" y="0px"
	 viewBox="0 0 95 20" style="enable-background:new 0 0 95 20;" xml:space="preserve">
<style type="text/css">
	.st0{enable-background:new    ;}
	.st1{fill:#0071DC;}
	.st2{fill-rule:evenodd;clip-rule:evenodd;fill:#0072DE;}
</style>
<g class="st0">
	<path class="st1" d="M11.6,13.5H7.2l-0.7,2.1H4.7L8.4,5.2h2l3.7,10.4h-1.8L11.6,13.5z M11.1,12.1L9.4,7.3l-1.7,4.8H11.1z"/>
	<path class="st1" d="M15.7,9.3c0.3-0.6,0.8-1.1,1.4-1.5c0.6-0.4,1.3-0.5,2-0.5c0.5,0,1.1,0.1,1.6,0.4s0.9,0.5,1.3,0.9v-4h1.7v11.1
		h-1.7v-1.2c-0.3,0.4-0.7,0.7-1.2,1c-0.5,0.3-1.1,0.4-1.7,0.4c-0.7,0-1.4-0.2-2-0.5c-0.6-0.4-1.1-0.9-1.4-1.5
		c-0.3-0.7-0.5-1.4-0.5-2.2C15.2,10.6,15.3,9.9,15.7,9.3z M21.6,10c-0.2-0.4-0.5-0.7-0.9-1c-0.4-0.2-0.8-0.3-1.2-0.3
		S18.6,8.8,18.2,9c-0.4,0.2-0.7,0.5-0.9,0.9c-0.2,0.4-0.4,0.9-0.4,1.5c0,0.6,0.1,1.1,0.4,1.5c0.2,0.4,0.5,0.8,0.9,1
		c0.4,0.2,0.8,0.3,1.2,0.3c0.4,0,0.8-0.1,1.2-0.3c0.4-0.2,0.7-0.5,0.9-1s0.4-0.9,0.4-1.5C21.9,10.9,21.8,10.4,21.6,10z"/>
	<path class="st1" d="M25.8,9.3c0.3-0.6,0.8-1.1,1.4-1.5c0.6-0.4,1.3-0.5,2-0.5c0.5,0,1.1,0.1,1.6,0.4s0.9,0.5,1.3,0.9v-4h1.7v11.1
		h-1.7v-1.2c-0.3,0.4-0.7,0.7-1.2,1c-0.5,0.3-1.1,0.4-1.7,0.4c-0.7,0-1.4-0.2-2-0.5c-0.6-0.4-1.1-0.9-1.4-1.5
		c-0.3-0.7-0.5-1.4-0.5-2.2C25.3,10.6,25.5,9.9,25.8,9.3z M31.7,10c-0.2-0.4-0.5-0.7-0.9-1c-0.4-0.2-0.8-0.3-1.2-0.3
		S28.7,8.8,28.4,9C28,9.3,27.7,9.6,27.4,10c-0.2,0.4-0.4,0.9-0.4,1.5c0,0.6,0.1,1.1,0.4,1.5c0.2,0.4,0.5,0.8,0.9,1
		c0.4,0.2,0.8,0.3,1.2,0.3c0.4,0,0.8-0.1,1.2-0.3c0.4-0.2,0.7-0.5,0.9-1s0.4-0.9,0.4-1.5C32.1,10.9,32,10.4,31.7,10z"/>
	<path class="st1" d="M41.7,5.2v6.6c0,0.8,0.2,1.4,0.6,1.8s1,0.6,1.7,0.6c0.8,0,1.3-0.2,1.7-0.6c0.4-0.4,0.6-1,0.6-1.8V5.2h1.7v6.6
		c0,0.8-0.2,1.6-0.6,2.2c-0.4,0.6-0.9,1-1.5,1.3c-0.6,0.3-1.3,0.4-2.1,0.4c-0.8,0-1.4-0.1-2-0.4c-0.6-0.3-1.1-0.7-1.5-1.3
		s-0.5-1.3-0.5-2.2V5.2H41.7z"/>
	<path class="st1" d="M51.6,15.4c-0.5-0.2-0.9-0.6-1.2-1c-0.3-0.4-0.5-0.9-0.5-1.4h1.8c0,0.4,0.2,0.6,0.5,0.9
		c0.3,0.2,0.7,0.4,1.1,0.4c0.5,0,0.9-0.1,1.1-0.3c0.3-0.2,0.4-0.4,0.4-0.7c0-0.3-0.1-0.5-0.4-0.7s-0.8-0.3-1.4-0.5
		c-0.6-0.2-1.1-0.3-1.5-0.5c-0.4-0.2-0.7-0.4-1-0.7c-0.3-0.3-0.4-0.8-0.4-1.3c0-0.4,0.1-0.8,0.4-1.2c0.3-0.4,0.6-0.7,1.1-0.9
		s1-0.3,1.7-0.3c0.9,0,1.7,0.2,2.3,0.7c0.6,0.5,0.9,1.1,0.9,1.9h-1.7c0-0.4-0.2-0.7-0.4-0.9c-0.3-0.2-0.6-0.3-1.1-0.3
		c-0.4,0-0.8,0.1-1,0.3c-0.2,0.2-0.4,0.4-0.4,0.7c0,0.2,0.1,0.4,0.2,0.6c0.2,0.2,0.4,0.3,0.6,0.4s0.6,0.2,1,0.3
		c0.6,0.2,1.1,0.3,1.5,0.5c0.4,0.2,0.7,0.4,1,0.7s0.4,0.7,0.4,1.3c0,0.5-0.1,0.9-0.4,1.3c-0.3,0.4-0.6,0.7-1.1,0.9
		c-0.5,0.2-1,0.3-1.7,0.3C52.7,15.8,52.1,15.7,51.6,15.4z"/>
	<path class="st1" d="M65.8,12.1h-6.3c0,0.7,0.3,1.2,0.7,1.6c0.4,0.4,1,0.6,1.6,0.6c0.9,0,1.6-0.4,1.9-1.2h1.8
		c-0.3,0.8-0.7,1.4-1.4,1.9c-0.7,0.5-1.5,0.7-2.4,0.7c-0.8,0-1.5-0.2-2.1-0.5s-1.1-0.9-1.5-1.5c-0.4-0.6-0.5-1.4-0.5-2.2
		s0.2-1.6,0.5-2.2c0.3-0.6,0.8-1.1,1.5-1.5s1.3-0.5,2.2-0.5c0.8,0,1.5,0.2,2.1,0.5s1.1,0.8,1.4,1.4s0.5,1.3,0.5,2.1
		C65.9,11.6,65.9,11.9,65.8,12.1z M64.1,10.8c0-0.6-0.2-1.1-0.7-1.5c-0.4-0.4-1-0.6-1.6-0.6c-0.6,0-1.1,0.2-1.5,0.6
		s-0.7,0.9-0.8,1.5H64.1z"/>
	<path class="st1" d="M70.3,7.6c0.4-0.2,0.9-0.4,1.5-0.4V9h-0.4c-0.7,0-1.2,0.2-1.5,0.5c-0.3,0.3-0.5,0.9-0.5,1.8v4.3h-1.7V7.4h1.7
		v1.2C69.5,8.2,69.9,7.8,70.3,7.6z"/>
</g>
<path id="Shape_392_1" class="st2" d="M77.8,19.5c-0.4,0-0.7-0.3-0.8-0.7c0-3.7,3.1-6.8,6.8-6.8H85c0.8,0,1.5,0.1,2.3,0.4
	c0.4,0.1,0.6,0.6,0.5,0.9c-0.1,0.4-0.6,0.6-1,0.5c-0.6-0.2-1.2-0.3-1.8-0.3h-1.1c-2.9,0-5.3,2.3-5.3,5.3
	C78.5,19.2,78.2,19.5,77.8,19.5C77.8,19.5,77.8,19.5,77.8,19.5L77.8,19.5z M89.4,5.5c0-2.8-2.2-5.1-5-5.1c-2.8,0-5.1,2.2-5.1,5
	c0,2.8,2.2,5.1,5,5.1c0,0,0,0,0.1,0C87.1,10.5,89.4,8.3,89.4,5.5z M87.9,5.5c0,2-1.6,3.6-3.5,3.6c-2,0-3.6-1.6-3.6-3.5
	c0-2,1.6-3.6,3.5-3.6c0,0,0,0,0,0C86.3,2,87.9,3.6,87.9,5.5z M93.3,15H91v-2.2c0-0.4-0.3-0.8-0.8-0.8s-0.8,0.3-0.8,0.8V15h-2.3
	c-0.4,0-0.7,0.3-0.7,0.7s0.3,0.7,0.7,0.7c0,0,0,0,0,0h2.3v2.2c0,0.4,0.3,0.8,0.8,0.8s0.8-0.3,0.8-0.8v-2.2h2.3
	c0.4,0,0.7-0.3,0.7-0.7S93.7,15,93.3,15z"/>
</svg>
