<?xml version="1.0" encoding="utf-8"?>
<!-- Generator: Adobe Illustrator 25.3.0, SVG Export Plug-In . SVG Version: 6.00 Build 0)  -->
<svg version="1.1" id="agency" xmlns="http://www.w3.org/2000/svg" xmlns:xlink="http://www.w3.org/1999/xlink" x="0px" y="0px"
	 viewBox="0 0 24 24" style="enable-background:new 0 0 24 24;" xml:space="preserve">
<style type="text/css">
	.st0{fill:none;}
	.st1{fill:#0254A0;stroke:#0254A0;stroke-width:0.5;}
	.st2{fill:#0254A0;}
</style>
<path class="st0" d="M-0.6-0.3"/>
<path class="st1" d="M21.2,22.9h-0.8V9c0-0.9-0.7-1.5-1.6-1.5h-0.4c0.4-3.4-2-6.5-5.4-6.9s-6.5,2-7,5.3c-0.1,0.5-0.1,1,0,1.6H5.6
	C4.7,7.4,4,8.1,4,9v13.9H3.2c-0.2,0-0.4,0.2-0.4,0.4c0,0.2,0.2,0.4,0.4,0.4h18c0.2,0,0.4-0.2,0.4-0.4C21.6,23.1,21.4,22.9,21.2,22.9
	z M12.2,1.3c3,0,5.5,2.4,5.5,5.4c-0.3,7.2-10.6,7.2-10.9,0C6.7,3.7,9.2,1.3,12.2,1.3z M16.1,12.1h1.6l0,1.2h-1.6V12.1z M11.4,12.8
	c0.5,0.1,1,0.1,1.6,0v0.4h-1.6V12.8z M8.3,13.2H6.7v-1.2h1.6L8.3,13.2z M10.2,22.9v-3.5c0-0.2,0.2-0.4,0.4-0.4h3.1
	c0.2,0,0.4,0.2,0.4,0.4v3.5H10.2z M14.9,22.9v-3.5c0-0.6-0.5-1.2-1.2-1.2h-3.1c-0.6,0-1.2,0.5-1.2,1.2v3.5H4.8V9
	c0-0.4,0.3-0.8,0.8-0.8h0.6c0.3,1.2,1,2.3,1.9,3.1H6.7c-0.4,0-0.8,0.3-0.8,0.8v1.2C6,13.7,6.3,14,6.7,14h1.6c0.4,0,0.8-0.3,0.8-0.8
	v-1.2c0,0,0,0,0-0.1c0.5,0.3,1,0.5,1.6,0.6v0.6c0,0.4,0.3,0.8,0.8,0.8H13c0.4,0,0.8-0.3,0.8-0.8v-0.6c0.5-0.1,1.1-0.4,1.6-0.6
	c0,0,0,0,0,0.1v1.2c0,0.4,0.3,0.8,0.8,0.8h1.6c0.4,0,0.8-0.3,0.8-0.8v-1.2c0-0.4-0.3-0.8-0.8-0.8h-1.3c0.9-0.8,1.6-1.9,1.9-3.1h0.6
	c0.4,0,0.8,0.3,0.8,0.8v13.9H14.9z M-0.3-0.3"/>
<g>
	<path class="st2" d="M8.8,4.7v3.9H7.9V4.7H8.8z"/>
	<path class="st2" d="M10.2,8.5C9.9,8.4,9.8,8.3,9.6,8.1C9.5,7.9,9.4,7.7,9.4,7.5h1c0,0.1,0.1,0.3,0.2,0.3c0.1,0.1,0.2,0.1,0.3,0.1
		c0.1,0,0.3,0,0.3-0.1c0.1-0.1,0.1-0.2,0.1-0.3c0-0.1,0-0.2-0.1-0.2c-0.1-0.1-0.1-0.1-0.2-0.2c-0.1,0-0.2-0.1-0.4-0.1
		c-0.3-0.1-0.5-0.2-0.6-0.2C9.9,6.7,9.7,6.6,9.6,6.4C9.5,6.3,9.4,6.1,9.4,5.8c0-0.4,0.1-0.6,0.4-0.9c0.3-0.2,0.6-0.3,1-0.3
		c0.4,0,0.8,0.1,1,0.3c0.3,0.2,0.4,0.5,0.4,0.9h-1c0-0.1-0.1-0.2-0.1-0.3c-0.1-0.1-0.2-0.1-0.3-0.1c-0.1,0-0.2,0-0.3,0.1
		c-0.1,0.1-0.1,0.1-0.1,0.3c0,0.1,0.1,0.2,0.2,0.3c0.1,0.1,0.3,0.1,0.6,0.2c0.3,0.1,0.5,0.2,0.6,0.2c0.2,0.1,0.3,0.2,0.4,0.3
		c0.1,0.1,0.2,0.3,0.2,0.6c0,0.2-0.1,0.4-0.2,0.6c-0.1,0.2-0.3,0.3-0.5,0.4c-0.2,0.1-0.5,0.2-0.8,0.2C10.7,8.7,10.4,8.6,10.2,8.5z"
		/>
	<path class="st2" d="M13.8,8.4c-0.3-0.2-0.5-0.4-0.7-0.7c-0.2-0.3-0.3-0.6-0.3-1c0-0.4,0.1-0.7,0.3-1c0.2-0.3,0.4-0.5,0.7-0.7
		c0.3-0.2,0.6-0.3,1-0.3c0.4,0,0.7,0.1,1,0.3s0.5,0.4,0.7,0.7c0.2,0.3,0.3,0.6,0.3,1c0,0.4-0.1,0.7-0.3,1c-0.2,0.3-0.4,0.5-0.7,0.7
		c-0.3,0.2-0.6,0.3-1,0.3C14.4,8.7,14.1,8.6,13.8,8.4z M15.5,7.5c0.2-0.2,0.3-0.5,0.3-0.8c0-0.3-0.1-0.6-0.3-0.8
		c-0.2-0.2-0.4-0.3-0.7-0.3c-0.3,0-0.6,0.1-0.8,0.3c-0.2,0.2-0.3,0.5-0.3,0.8c0,0.3,0.1,0.6,0.3,0.8c0.2,0.2,0.4,0.3,0.8,0.3
		C15.1,7.8,15.3,7.7,15.5,7.5z"/>
</g>
</svg>
