<svg xmlns="http://www.w3.org/2000/svg" width="127" height="113" viewBox="0 0 127 113">
  <defs>
    <style>
      .cls-1 {
        fill: #fff;
        fill-rule: evenodd;
      }
    </style>
  </defs>
  <path id="attendanceGroups" class="cls-1" d="M89.224,41.629a4.278,4.278,0,1,1-4.209,4.277A4.243,4.243,0,0,1,89.224,41.629ZM34.3,87.393a4.278,4.278,0,1,1,4.209-4.277A4.243,4.243,0,0,1,34.3,87.393Zm0-37.21a4.278,4.278,0,1,1,4.209-4.277A4.243,4.243,0,0,1,34.3,50.183Zm0,18.6a4.277,4.277,0,1,1,4.209-4.277A4.243,4.243,0,0,1,34.3,68.788ZM52.61,87.393a4.278,4.278,0,1,1,4.209-4.277A4.243,4.243,0,0,1,52.61,87.393Zm0-37.21a4.278,4.278,0,1,1,4.209-4.277A4.243,4.243,0,0,1,52.61,50.183Zm0,18.6a4.277,4.277,0,1,1,4.209-4.277A4.243,4.243,0,0,1,52.61,68.788Zm58.92-13.473a4.243,4.243,0,0,1-4.209-4.277V26.659A8.5,8.5,0,0,0,98.9,18.105H93.433v4.277a4.209,4.209,0,1,1-8.417,0V18.105H65.867v4.277a4.209,4.209,0,1,1-8.417,0V18.105H38.512v4.277a4.209,4.209,0,1,1-8.417,0V18.105H24.834a8.5,8.5,0,0,0-8.417,8.554V93.381a8.5,8.5,0,0,0,8.417,8.554h32.2a4.278,4.278,0,0,1,0,8.554h-32.2A16.992,16.992,0,0,1,8,93.381V26.659A16.992,16.992,0,0,1,24.834,9.551h5.261V5.274a4.209,4.209,0,1,1,8.417,0V9.551H57.45V5.274a4.209,4.209,0,1,1,8.417,0V9.551H85.016V5.274a4.209,4.209,0,1,1,8.417,0V9.551H98.9a16.992,16.992,0,0,1,16.834,17.108V51.038A4.243,4.243,0,0,1,111.53,55.315ZM70.917,41.629a4.278,4.278,0,1,1-4.209,4.277A4.243,4.243,0,0,1,70.917,41.629Zm32.364,45.6a14.573,14.573,0,1,1,.256-29.144A14.573,14.573,0,1,1,103.281,87.227ZM109.517,66.6a1.669,1.669,0,0,0-1.913.629c-2,2.3-4.041,4.561-6.03,6.869-0.449.522-.706,0.532-1.167,0.023-0.78-.861-1.62-1.67-2.469-2.465a1.729,1.729,0,0,0-2.564-.092,1.573,1.573,0,0,0,.172,2.427Q97.6,76.1,99.712,78.167a1.773,1.773,0,0,0,2.9-.139c2.481-2.835,4.946-5.684,7.436-8.512a2.36,2.36,0,0,0,.633-1.323A1.712,1.712,0,0,0,109.517,66.6ZM89.24,82.314a1.8,1.8,0,0,1-2.4,1.165,14.392,14.392,0,0,0-17.984,11.3,14.09,14.09,0,0,0,2.652,11.44c0.937,1.258,1.01,2.019.253,2.77-0.841.834-1.839,0.684-2.751-.469a16.966,16.966,0,0,1-3.692-9.2c-0.028-.319-0.059-0.638-0.088-0.957C64.454,89.49,71.77,80.715,80.7,79.7a18.632,18.632,0,0,1,6.91.509C88.827,80.53,89.471,81.358,89.24,82.314Zm-4.255-4.4c-0.48-.043-0.962-0.066-1.8-0.122A19.448,19.448,0,0,0,67.35,85.742c-0.147.19-.282,0.39-0.439,0.571a1.618,1.618,0,0,1-2.346.355,1.586,1.586,0,0,1-.376-2.33,17.8,17.8,0,0,1,3.761-4.189,22.18,22.18,0,0,1,17.443-5.534c1.333,0.147,1.893.833,1.748,1.936C87.015,77.5,86.194,78.018,84.985,77.91Zm0.168-5.121c-0.642.01-1.285,0-1.927,0A20.644,20.644,0,0,0,69.6,77.541a2.468,2.468,0,0,1-1.87.926,1.771,1.771,0,0,1-1.524-1.2,1.645,1.645,0,0,1,.684-1.882,24.581,24.581,0,0,1,11.03-5.507,27.918,27.918,0,0,1,7.3-.471A1.7,1.7,0,1,1,85.153,72.789Zm-2.108,11.88A12.854,12.854,0,0,1,95.78,97.13a1.717,1.717,0,1,1-3.387.1c-0.29-3.976-2.159-6.984-5.879-8.486a8.961,8.961,0,0,0-9.754,1.743,9.307,9.307,0,0,0-2.078,11.091,26.078,26.078,0,0,0,4.961,7.18c1.009,1.069,1.115,2.02.261,2.808-0.756.7-1.81,0.536-2.721-.478-2.91-3.24-5.536-6.667-6.534-11.018A12.664,12.664,0,0,1,83.045,84.669ZM75.611,99.715a8.131,8.131,0,0,1,5.667-9.659,7.614,7.614,0,0,1,9.415,7.177,6.26,6.26,0,0,0,.252,2.366,3.389,3.389,0,0,0,6.533-1.112,14.8,14.8,0,0,0-1.767-7.608,2.148,2.148,0,0,1-.343-1.707A1.643,1.643,0,0,1,96.768,88a1.672,1.672,0,0,1,1.759.979,19.474,19.474,0,0,1,2.373,9.646,6.306,6.306,0,0,1-3.959,5.867,6.428,6.428,0,0,1-7.213-.95,6.332,6.332,0,0,1-2.4-4.779,17.966,17.966,0,0,0-.082-1.8,4.237,4.237,0,0,0-4.413-3.752,4.436,4.436,0,0,0-3.97,4.264c-0.177,2.941,1.246,5.244,3.109,7.292,1.613,1.774,3.327,3.456,5.862,3.966a1.471,1.471,0,0,1,1.128,1.761,1.638,1.638,0,0,1-1.637,1.48,4.129,4.129,0,0,1-2.193-.557C80.332,108.842,76.853,105.144,75.611,99.715Zm5.667-2.475a1.814,1.814,0,0,1,.853-2.076,1.632,1.632,0,0,1,1.814.139,2.186,2.186,0,0,1,.732,1.931c0.131,3.639,3.071,7.6,6.321,8.588a8.518,8.518,0,0,0,1.3.185,1.663,1.663,0,0,1,1.635,1.842,1.59,1.59,0,0,1-1.809,1.518,8.493,8.493,0,0,1-5.2-1.9A13.4,13.4,0,0,1,81.278,97.24Z" transform="translate(0.5)"/>
</svg>
