<svg xmlns="http://www.w3.org/2000/svg" width="26" height="26.969" viewBox="0 0 26 26.969">
  <defs>
    <style>
      .cls-1 {
        fill: #0073e0;
        fill-rule: evenodd;
      }
    </style>
  </defs>
  <path id="bank_name" class="cls-1" d="M153.975,853.939h-12.3a0.56,0.56,0,0,1-.666-0.56,0.573,0.573,0,0,1,.348-0.507q2.484-1.368,4.965-2.742,3.62-2,7.238-4a0.8,0.8,0,0,1,.86-0.007q6.085,3.374,12.178,6.733a0.555,0.555,0,0,1,.355.715,0.516,0.516,0,0,1-.466.364,3.013,3.013,0,0,1-.343,0H153.975Zm10.228-1.172c-0.1-.063-0.124-0.084-0.153-0.1q-4.929-2.723-9.856-5.449a0.4,0.4,0,0,0-.451.034q-4.386,2.426-8.776,4.847c-0.377.208-.752,0.419-1.128,0.629,0,0.013.01,0.026,0.016,0.039H164.2Zm-10.194,16.084h11.535c0.158,0,.317,0,0.475,0a0.972,0.972,0,0,1,.971.965c0.013,0.726.012,1.452,0,2.177a0.972,0.972,0,0,1-.949.986c-0.184.015-.369,0.016-0.553,0.016H142.368c-0.159,0-.317-0.006-0.475-0.02a0.95,0.95,0,0,1-.883-0.905c-0.013-.768-0.015-1.537,0-2.306a0.966,0.966,0,0,1,1.016-.916q1.782,0,3.563,0h8.42Zm12.035,0.957H141.955V871.7c0,0.371,0,.371.371,0.371h23.262a0.729,0.729,0,0,0,.261-0.008,0.308,0.308,0,0,0,.187-0.176C166.049,871.2,166.044,870.519,166.044,869.808Zm-23.931-15.4h23.762c0,0.44.014,0.863,0,1.284a0.512,0.512,0,0,1-.545.492c-2,.006-3.994,0-5.99.009-1.082,0-2.164.012-3.246,0.011-2.367,0-4.733-.014-7.1-0.015-1.619,0-3.237.012-4.856,0.015-0.475,0-.95-0.007-1.425-0.017a0.541,0.541,0,0,1-.594-0.581C142.109,855.208,142.113,854.812,142.113,854.405Zm23.765,13.943H142.121c0-.388-0.016-0.766.006-1.142a0.509,0.509,0,0,1,.5-0.452c0.07,0,.141,0,0.211,0h22.3a0.6,0.6,0,0,1,.739.723v0.872ZM151.63,866.18a3.1,3.1,0,0,1,.011-0.672,0.791,0.791,0,0,1,.288-0.451,0.364,0.364,0,0,0,.2-0.338c0.024-1,.055-2,0.084-3l0.1-3.519c0-.069,0-0.137,0-0.2-0.678-.123-0.743-0.23-0.67-1.258h4.659c0.12,0.795.08,1.205-.644,1.226q0.1,3.5.206,6.993c0.489,0.2.6,0.5,0.449,1.225H151.63Zm-3.028,0h-4.681c-0.084-.876-0.042-1.039.453-1.216,0.068-2.318.137-4.645,0.206-6.966-0.692-.138-0.742-0.243-0.668-1.253h4.654c0.118,0.826.063,1.194-.634,1.224,0,0.236-.006.474,0,0.712q0.089,3.029.179,6.058a0.313,0.313,0,0,0,.2.315,0.605,0.605,0,0,1,.282.37A4.206,4.206,0,0,1,148.6,866.176Zm15.016-1.222c0.487,0.2.552,0.37,0.462,1.217h-4.657a0.844,0.844,0,0,1,.441-1.208q0.1-3.483.211-6.976c-0.671-.112-0.757-0.2-0.668-1.251h4.658c0.1,0.825.063,1.21-.657,1.224Q163.513,861.459,163.618,864.954Z" transform="translate(-141 -846.031)"/>
</svg>
