<svg xmlns="http://www.w3.org/2000/svg" width="24" height="27.969" viewBox="0 0 24 27.969">
  <defs>
    <style>
      .cls-1 {
        fill: #0073e0;
        fill-rule: evenodd;
      }
    </style>
  </defs>
  <path id="bank_address" class="cls-1" d="M840.673,853.34c-0.281,0-.539.018-0.793-0.007a1.218,1.218,0,0,1-.52-0.149,0.815,0.815,0,0,1,.059-1.425c0.575-.317,1.155-0.624,1.734-0.935l2.424-1.3q2.039-1.092,4.076-2.183c0.761-.409,1.52-0.822,2.28-1.233a0.807,0.807,0,0,1,.809,0q1.911,1.029,3.821,2.058c1.017,0.546,2.037,1.085,3.053,1.631q1.553,0.834,3.1,1.678a5.34,5.34,0,0,1,.725.433,0.693,0.693,0,0,1,.231.778,0.77,0.77,0,0,1-.637.61,3.532,3.532,0,0,1-.436.04c-0.188.007-.377,0-0.589,0v1.281a0.873,0.873,0,0,1-.925.957H841.592a0.841,0.841,0,0,1-.855-0.53,1.054,1.054,0,0,1-.061-0.377C840.668,854.235,840.673,853.8,840.673,853.34Zm9.567-.361H843.3a1.345,1.345,0,0,0-.142,0,0.226,0.226,0,0,0-.212.22,0.4,0.4,0,0,0,.153.234,0.288,0.288,0,0,0,.18.033c0.288,0,.576-0.023.863-0.022,0.315,0,.629.023,0.943,0.022,2.006-.006,4.013-0.018,6.019-0.023,0.44,0,.88.022,1.321,0.023q2.364,0,4.729,0a0.619,0.619,0,0,0,.215-0.031,0.228,0.228,0,0,0,.053-0.391,0.466,0.466,0,0,0-.25-0.064Q853.708,852.977,850.24,852.979Zm2.448,12.892a7.963,7.963,0,0,1,.246-2.048,5.249,5.249,0,0,1,1.335-2.414,4.593,4.593,0,0,1,2.079-1.208,4.387,4.387,0,0,1,1.234-.185,9.234,9.234,0,0,1,1.013.029,4.736,4.736,0,0,1,2.452,1.028,4.912,4.912,0,0,1,1.533,2.215,6.225,6.225,0,0,1,.378,1.877c0.008,0.247.048,0.493,0.042,0.739a5.769,5.769,0,0,1-.39,1.925,13.119,13.119,0,0,1-2.333,3.734,25.369,25.369,0,0,1-2.271,2.33c-0.156.143-.174,0.142-0.321,0-0.45-.433-0.914-0.852-1.349-1.3a17.878,17.878,0,0,1-2.369-2.981,8.916,8.916,0,0,1-1.084-2.373A4.653,4.653,0,0,1,852.688,865.871Zm5.148-3.166a2.008,2.008,0,0,0-.347,0,2.62,2.62,0,0,0-1.607.885,2.451,2.451,0,0,0-.446,2.62,2.53,2.53,0,0,0,2.41,1.63,2.57,2.57,0,0,0,1.514-.492,2.541,2.541,0,0,0,.872-3.068A2.5,2.5,0,0,0,857.836,862.705Zm-4.619,6.585h-13.94a3.042,3.042,0,0,1,.306-1.868,1.362,1.362,0,0,1,1.111-.6q5.719-.01,11.44,0a0.164,0.164,0,0,1,.208.148,8.165,8.165,0,0,0,.842,2.248C853.193,869.231,853.2,869.251,853.217,869.29Zm-12.548-2.969a4.46,4.46,0,0,1,.09-1.3,0.938,0.938,0,0,1,.862-0.587H852.29c-0.03.64-.06,1.258-0.09,1.891H840.669Zm3.864-10.272v7.86h-2.454c0-.055-0.009-0.111-0.009-0.168q0-3.747,0-7.5c0-.155.041-0.2,0.194-0.2C843.011,856.053,843.762,856.049,844.533,856.049Zm2.246,0.01c0.052,0,.1-0.01.144-0.01,0.714,0,1.428,0,2.142,0a0.14,0.14,0,0,1,.175.171q-0.006,3.779,0,7.558c0,0.042,0,.084-0.007.136h-2.451v-7.853Zm4.674,7.863v-7.863h2.462v0.188c0,1.5,0,2.991,0,4.486a0.776,0.776,0,0,1-.209.572,5.064,5.064,0,0,0-1.046,1.83c-0.071.217-.143,0.433-0.2,0.653a0.15,0.15,0,0,1-.174.136C852.011,863.918,851.734,863.922,851.453,863.922Zm4.664-7.864h2.467v3.491c-0.1-.007-0.207-0.023-0.313-0.021-0.39.006-.782,0-1.171,0.033a5,5,0,0,0-.83.15c-0.136.036-.154,0-0.154-0.119q0-1.222,0-2.444v-1.09Z" transform="translate(-839 -846.031)"/>
</svg>
