<svg xmlns="http://www.w3.org/2000/svg" viewBox="0 0 26.56 26.97"><g id="Layer_2" data-name="Layer 2"><g id="Layer_1-2" data-name="Layer 1"><path d="M24.05,23.14H20.76V11.79l-.76,0V10.49h4.78v1.24l-.73.06Z" style="fill:#0073df"/><path d="M5.9,23.13H2.63V11.81l-.79-.09V10.49H6.62v1.24l-.72.06Z" style="fill:#0073df"/><path d="M12,23.13H8.68V11.8l-.79-.08V10.5h4.8v1.22l-.73.07Z" style="fill:#0073df"/><path d="M18.74,10.49v1.24l-.75.06V23.12H14.72V11.8L14,11.73V10.49Z" style="fill:#0073df"/><path d="M25.59,9.87H.93V8.53H25.59Z" style="fill:#0073df"/><path d="M.06,27V25.69h26.5V27Z" style="fill:#0073df"/><path d="M25.58,23.77V25H1.06V23.77Z" style="fill:#0073df"/><path d="M1.82,6.14l-.31-.47L5.93,3l.32.47Z" style="fill:#0073df"/><path d="M19.78,3.21l.31-.47L23.88,5l-.29.48Z" style="fill:#0073df"/><path d="M19.05,2.76l-1-.59.29-.48,1,.59Z" style="fill:#0073df"/><path d="M6.66,2.58,7.58,2l.3.48L7,3Z" style="fill:#0073df"/><path d="M12,4.68h0c0,.13-.06.3-.1.42l-.13.46h.48l-.13-.46C12,5,12,4.81,12,4.68Z" style="fill:#0073df"/><path d="M9.88,5.53H9.71v.61H9.9c.22,0,.42-.08.42-.31S10.12,5.53,9.88,5.53Z" style="fill:#0073df"/><path d="M10.27,4.91c0-.17-.13-.25-.35-.25H9.71v.5h.16C10.13,5.17,10.27,5.07,10.27,4.91Z" style="fill:#0073df"/><path d="M26.16,7.67C22,5.15,17.79,2.65,13.62.12a.65.65,0,0,0-.77,0L.35,7.65c-.1.06-.19.13-.35.25H26.49ZM10.61,6.31a1.35,1.35,0,0,1-.86.2,5.24,5.24,0,0,1-.53,0V4.34a4.9,4.9,0,0,1,.64,0,1.24,1.24,0,0,1,.64.12.48.48,0,0,1,.26.43.49.49,0,0,1-.36.46h0a.53.53,0,0,1,.43.53A.58.58,0,0,1,10.61,6.31Zm1.84.18-.17-.56h-.62l-.15.56H11l.66-2.18h.65L13,6.49Zm2.62,0h-.52l-.46-.84a7.88,7.88,0,0,1-.38-.77h0c0,.29,0,.6,0,1v.66h-.45V4.31h.57l.45.8a7.21,7.21,0,0,1,.36.74h0a8.52,8.52,0,0,1,0-.9V4.31h.45Zm1.63,0-.53-.94L16,5.78v.71h-.49V4.31H16v1h0L16.14,5l.49-.73h.6l-.72.93.76,1.25Z" style="fill:#0073df"/></g></g></svg>