<?xml version="1.0" encoding="utf-8"?>
<!-- Generator: Adobe Illustrator 25.3.0, SVG Export Plug-In . SVG Version: 6.00 Build 0)  -->
<svg version="1.1" id="Layer_1" xmlns="http://www.w3.org/2000/svg" xmlns:xlink="http://www.w3.org/1999/xlink" x="0px" y="0px"
	 viewBox="0 0 30 30" style="enable-background:new 0 0 30 30;" xml:space="preserve">
<style type="text/css">
	.st0{fill-rule:evenodd;clip-rule:evenodd;fill:#00539E;}
</style>
<path id="bloodgroup" class="st0" d="M13.2,5c-0.9,1.5-1.8,3-2.7,4.4c-1.1,1.8-2.2,3.5-3.2,5.3c-2.4,4-0.3,9.6,4.3,10.7
	c3.1,0.7,6.2-0.7,7.7-3.4c0.1-0.1,0.1-0.2,0.2-0.3c0.2-0.4,0.6-0.6,1-0.5c0,0,0.1,0,0.1,0.1c0.4,0.2,0.6,0.7,0.4,1.1
	c0,0,0,0.1-0.1,0.1c-1,2.4-3.1,4.1-5.6,4.6c-2.5,0.7-5.2,0.1-7.2-1.5c-1.8-1.3-2.9-3.2-3.3-5.4c-0.5-2.6,0.1-5.3,1.6-7.5
	c2-3.1,3.8-6.2,5.8-9.3c0,0,0-0.1,0.1-0.1c0.6-1.1,1.4-1.3,2.2,0c0.9,1.6,1.9,3.1,2.9,4.7c0.3,0.4,0.3,0.9-0.1,1.2
	c-0.1,0.1-0.2,0.1-0.3,0.2c-0.5,0.2-1-0.1-1.1-0.5c0,0,0,0,0-0.1c-0.7-1.1-1.4-2.2-2-3.3C13.5,5.5,13.3,5.3,13.2,5z M8,18.9
	C7.8,18.4,8,18,8.5,17.7c0.3-0.2,0.6-0.1,0.9,0.1c0.3,0.3,0.4,0.6,0.4,1c0.1,1.8,1.6,3.2,3.4,3.3c0.5,0,0.9,0.3,1,0.8
	c0,0,0,0.1,0,0.1c0,0.5-0.4,0.9-0.9,0.9c0,0-0.1,0-0.1,0c-2.4-0.1-4.4-1.8-4.9-4.1C7.9,19.5,7.9,19.2,8,18.9L8,18.9z M25.4,13.2
	c0-0.5-0.4-0.9-0.8-0.9c0,0-0.1,0-0.1,0c-0.5,0.1-1,0.1-1.5-0.1c-0.4-0.3-0.1-1-0.1-1.6c0-0.5-0.3-1-0.9-1c-0.1,0-0.2,0-0.2,0
	c-1,0-2.1,0-3.1,0c-0.5-0.1-1,0.3-1,0.8c0,0.1,0,0.2,0,0.3c0.1,0.5,0.1,1-0.1,1.5c-0.3,0.3-1,0.1-1.5,0.1c0,0,0,0-0.1,0
	c-0.5-0.1-0.9,0.3-1,0.8c0,0.1,0,0.1,0,0.2v3.3c-0.1,0.5,0.3,1,0.8,1c0.1,0,0.2,0,0.3,0c0.5,0,1.2-0.2,1.5,0.1s0.1,1,0.1,1.5
	c-0.1,0.5,0.3,1,0.8,1.1c0.1,0,0.2,0,0.3,0c1,0,2,0,3,0c0.5,0.1,1.1-0.3,1.2-0.8c0-0.1,0-0.2,0-0.3c0-0.5-0.2-1.2,0.1-1.5
	c0.5-0.2,1-0.2,1.5-0.1c0.5,0.1,0.9-0.2,1-0.7c0-0.1,0-0.1,0-0.2C25.5,15.6,25.5,14.4,25.4,13.2L25.4,13.2z M23.8,15.4
	c0,0.3-0.1,0.5-0.4,0.4c-0.4,0-0.9,0-1.3,0c-0.5,0-0.9,0.4-0.9,0.8c0,0,0,0.1,0,0.1v0.7c0,1,0,1-1,1c-0.7,0-0.9-0.1-0.8-0.8
	c0-0.3,0-0.6,0-1c0-0.5-0.4-0.9-0.9-0.9c0,0-0.1,0-0.1,0c-0.2,0-0.4,0-0.6,0c-0.3,0-0.9,0.2-1-0.1c-0.1-0.5-0.1-1,0-1.5
	c0-0.2,0.2-0.1,0.3-0.1c0.4,0,0.8,0,1.2,0c0.5,0.1,1-0.3,1.1-0.8c0-0.1,0-0.2,0-0.3c0-0.4,0-0.8,0-1.1c0-0.3,0.1-0.5,0.4-0.4
	c0.1,0,0.2,0,0.2,0c1.2,0,1.2,0,1.2,1.1v0.6c0,0.5,0.3,0.9,0.8,0.9c0,0,0,0,0,0c0.2,0,0.3,0,0.5,0C23.8,14.1,23.8,14.1,23.8,15.4z"
	/>
</svg>
