<svg xmlns="http://www.w3.org/2000/svg" width="14.594" height="10" viewBox="0 0 14.594 10">
  <defs>
    <style>
      .cls-1 {
        fill: #0073df;
        fill-rule: evenodd;
      }
    </style>
  </defs>
  <path class="cls-1" d="M257.252,262.815q-2.793,0-5.587,0A1.511,1.511,0,0,1,250,261.206q-0.006-3.422,0-6.843a2.075,2.075,0,0,1,0-.223c0.065-.611.172-0.663,0.683-0.311,2.016,1.391,4.035,2.777,6.036,4.185a0.861,0.861,0,0,0,1.15,0c2.052-1.442,4.128-2.853,6.181-4.295,0.351-.246.438-0.12,0.49,0.2a3.076,3.076,0,0,1,.054.486c0,2.251-.014,4.5.01,6.753a1.61,1.61,0,0,1-1.719,1.671C261.008,262.781,259.13,262.815,257.252,262.815Zm6.2-9.929-2.839,1.976q-1.5,1.042-2.995,2.086a0.423,0.423,0,0,1-.568.059c-1.946-1.357-3.9-2.7-5.853-4.05a1.442,1.442,0,0,1-.143-0.153h12.362Z" transform="translate(-250 -252.812)"/>
</svg>
