<svg xmlns="http://www.w3.org/2000/svg" width="17" height="17" viewBox="0 0 17 17">
  <defs>
    <style>
      .cls-1 {
        fill: #0073df;
        fill-rule: evenodd;
      }
    </style>
  </defs>
  <path id="Shape_369_2" data-name="Shape 369 2" class="cls-1" d="M814.377,514.377a2.122,2.122,0,0,1-1.5.623h-12.75A2.125,2.125,0,0,1,798,512.875V502.25a2.124,2.124,0,0,1,2.125-2.125h0.708a2.125,2.125,0,0,1,4.25,0h2.833a2.125,2.125,0,1,1,4.25,0h0.709A2.124,2.124,0,0,1,815,502.25v10.625A2.121,2.121,0,0,1,814.377,514.377Zm-0.794-12.127a0.708,0.708,0,0,0-.708-0.708h-1.417a0.708,0.708,0,0,1-.708-0.709v-0.708a0.709,0.709,0,1,0-1.417,0v1.417a0.708,0.708,0,0,0,.708.708,0.709,0.709,0,0,1,0,1.417,2.127,2.127,0,0,1-2.125-2.125h-3.541a0.71,0.71,0,0,1-.709-0.709v-0.708a0.709,0.709,0,0,0-1.417,0v1.417a0.71,0.71,0,0,0,.709.708,0.709,0.709,0,0,1,0,1.417,2.125,2.125,0,0,1-2.125-2.125h-0.708a0.708,0.708,0,0,0-.709.708v2.833h14.167V502.25Zm0,4.25H799.416v6.375a0.708,0.708,0,0,0,.709.708h12.75a0.708,0.708,0,0,0,.708-0.708V506.5Zm-2.833,5.667a0.709,0.709,0,1,1,.708-0.709A0.709,0.709,0,0,1,810.75,512.167Zm0-2.834a0.709,0.709,0,1,1,.708-0.708A0.708,0.708,0,0,1,810.75,509.333Zm-4.25,2.834a0.709,0.709,0,1,1,.708-0.709A0.709,0.709,0,0,1,806.5,512.167Zm0-2.834a0.709,0.709,0,1,1,.708-0.708A0.708,0.708,0,0,1,806.5,509.333Zm-4.251,2.834a0.709,0.709,0,1,1,.709-0.709A0.71,0.71,0,0,1,802.249,512.167Zm0-2.834a0.709,0.709,0,1,1,.709-0.708A0.709,0.709,0,0,1,802.249,509.333Z" transform="translate(-798 -498)"/>
</svg>
