<svg id="Layer_1" data-name="Layer 1" xmlns="http://www.w3.org/2000/svg" viewBox="0 0 20 20"><defs><style>.cls-1{fill:#02539f;}.cls-2{fill:none;}</style></defs><path class="cls-1" d="M4.53,1.94V1.36a.61.61,0,1,1,1.22,0v.58h8.5c0-.19,0-.38,0-.57a.59.59,0,0,1,.61-.63.61.61,0,0,1,.6.63v.58c.59,0,1.16,0,1.74,0a2.09,2.09,0,0,1,.7.11,1.78,1.78,0,0,1,1.2,1.66c0,1.73,0,3.46,0,5.2a.61.61,0,1,1-1.21,0c0-.7,0-1.39,0-2.1H2.1V17c0,.49.23.71.73.71H9a.61.61,0,0,1,.66.6.59.59,0,0,1-.57.61H2.83A1.83,1.83,0,0,1,.89,17V3.88A1.83,1.83,0,0,1,2.83,1.94ZM5.76,3.16c-.1.41-.31.6-.62.6s-.51-.19-.63-.6H2.79a.56.56,0,0,0-.13,0,.6.6,0,0,0-.55.6c0,.34,0,.69,0,1v.77H17.88c0-.63,0-1.24,0-1.86a.55.55,0,0,0-.52-.54c-.63,0-1.26,0-1.89,0-.08.38-.27.59-.57.6a.56.56,0,0,1-.37-.11,3,3,0,0,1-.37-.49Z"/><path class="cls-1" d="M5.14,9.83H4.53a.6.6,0,0,1-.6-.6.6.6,0,0,1,.59-.61H5.76a.6.6,0,0,1,.59.61.61.61,0,0,1-.59.6Z"/><path class="cls-1" d="M5.14,11.65h.61a.61.61,0,0,1,.6.61.6.6,0,0,1-.6.6H4.54a.61.61,0,1,1,0-1.22Z"/><path class="cls-1" d="M5.14,15.9H4.53a.61.61,0,0,1,0-1.21H5.76a.61.61,0,0,1,0,1.21Z"/><path class="cls-1" d="M9.69,8.62H10a.61.61,0,0,1,0,1.21H9.36a.61.61,0,0,1-.58-.61.61.61,0,0,1,.59-.6Z"/><rect class="cls-2" x="0.73" y="0.36" width="18.53" height="19.29"/><path id="Path_2711" data-name="Path 2711" class="cls-1" d="M14.26,11.46a2,2,0,0,1,.64,1.42A1.19,1.19,0,0,1,14.19,14v.07a1.31,1.31,0,0,1,.27.19,2.06,2.06,0,0,1,.29.3,1.34,1.34,0,0,1,.29.86,2,2,0,0,1-.72,1.6,2.93,2.93,0,0,1-3.63,0,2.34,2.34,0,0,1-.48-.64,2.44,2.44,0,0,1-.1-.24v-.09a1.34,1.34,0,0,1-.1-.49c0-.35.29-.52.88-.52a.8.8,0,0,1,.48.09.9.9,0,0,1,.27.47.7.7,0,0,0,.5.43,1.21,1.21,0,0,0,.38.06,1,1,0,0,0,.7-.2.54.54,0,0,0,.23-.43.55.55,0,0,0-.22-.43.78.78,0,0,0-.53-.19,2.88,2.88,0,0,1-.41,0,.5.5,0,0,1-.23-.09c-.17-.08-.25-.31-.25-.69s.11-.68.34-.75a1.48,1.48,0,0,1,.47-.05c.46,0,.68-.12.68-.35a.49.49,0,0,0-.18-.37.68.68,0,0,0-.5-.17,1,1,0,0,0-.51.11.45.45,0,0,0-.23.22l-.06.1a.65.65,0,0,1-.59.46,1,1,0,0,1-.5-.17.73.73,0,0,1-.45-.61,1.9,1.9,0,0,1,.2-.61,2.83,2.83,0,0,1,.2-.28,1.85,1.85,0,0,1,.38-.36,2.06,2.06,0,0,1,.6-.28,2.43,2.43,0,0,1,.85-.12,2.35,2.35,0,0,1,1.75.63"/><path id="Path_2712" data-name="Path 2712" class="cls-1" d="M17.24,11.15a.72.72,0,0,1,.51-.24,2,2,0,0,1,.43.05.87.87,0,0,1,.24.1.37.37,0,0,1,.12.2,1.91,1.91,0,0,1,.05.48v5a3,3,0,0,1,0,.31.73.73,0,0,1-.08.25c-.08.16-.32.24-.71.24s-.62-.08-.69-.23a.58.58,0,0,1-.09-.25c0-.11,0-.22,0-.33V13.53l-.13.1a1.12,1.12,0,0,1-.63.29.8.8,0,0,1-.55-.32A.94.94,0,0,1,15.4,13a.75.75,0,0,1,.33-.53l1.48-1.35Z"/></svg>