<svg xmlns="http://www.w3.org/2000/svg" width="89" height="89" viewBox="0 0 89 89">
  <defs>
    <style>
      .cls-1 {
        fill: #fff;
        fill-rule: evenodd;
      }
    </style>
  </defs>
  <path id="Shape_369_1" data-name="Shape 369 1" class="cls-1" d="M661.74,522.741A11.119,11.119,0,0,1,653.873,526h-66.75A11.124,11.124,0,0,1,576,514.875V459.25a11.122,11.122,0,0,1,11.124-11.125h3.709a11.126,11.126,0,0,1,22.251,0h14.833a11.124,11.124,0,1,1,22.248,0h3.709A11.122,11.122,0,0,1,665,459.25v55.625A11.124,11.124,0,0,1,661.74,522.741Zm-4.158-63.491a3.71,3.71,0,0,0-3.709-3.709h-7.415a3.71,3.71,0,0,1-3.709-3.708v-3.708a3.709,3.709,0,0,0-7.418,0v7.416a3.71,3.71,0,0,0,3.709,3.709,3.709,3.709,0,0,1,0,7.417,11.124,11.124,0,0,1-11.124-11.126H609.374a3.71,3.71,0,0,1-3.709-3.708v-3.708a3.709,3.709,0,0,0-7.418,0v7.416a3.71,3.71,0,0,0,3.709,3.709,3.709,3.709,0,0,1,0,7.417,11.124,11.124,0,0,1-11.124-11.126h-3.709a3.711,3.711,0,0,0-3.709,3.709v14.833h74.168V459.25Zm0,22.25H583.414v33.375a3.71,3.71,0,0,0,3.709,3.708h66.75a3.708,3.708,0,0,0,3.709-3.708V481.5Zm-14.833,29.666a3.708,3.708,0,1,1,3.709-3.708A3.709,3.709,0,0,1,642.749,511.166Zm0-14.833a3.708,3.708,0,1,1,3.709-3.708A3.709,3.709,0,0,1,642.749,496.333ZM620.5,511.166a3.708,3.708,0,1,1,3.709-3.708A3.709,3.709,0,0,1,620.5,511.166Zm0-14.833a3.708,3.708,0,1,1,3.709-3.708A3.709,3.709,0,0,1,620.5,496.333Zm-22.251,14.833a3.708,3.708,0,1,1,3.709-3.708A3.708,3.708,0,0,1,598.247,511.166Zm0-14.833a3.708,3.708,0,1,1,3.709-3.708A3.708,3.708,0,0,1,598.247,496.333Z" transform="translate(-576 -437)"/>
</svg>
