<?xml version="1.0" encoding="utf-8"?>
<!-- Generator: Adobe Illustrator 25.3.0, SVG Export Plug-In . SVG Version: 6.00 Build 0)  -->
<svg version="1.1" id="Layer_1" xmlns="http://www.w3.org/2000/svg" xmlns:xlink="http://www.w3.org/1999/xlink" x="0px" y="0px"
	 viewBox="0 0 17 17" style="enable-background:new 0 0 17 17;" xml:space="preserve">
<style type="text/css">
	.st0{fill-rule:evenodd;clip-rule:evenodd;fill:#02539F;}
</style>
<path id="Shape_369_2" class="st0" d="M16.4,16.4C16,16.8,15.4,17,14.9,17H2.1C1,17,0,16.1,0,14.9c0,0,0,0,0,0V4.2
	c0-1.2,0.9-2.1,2.1-2.1c0,0,0,0,0,0h0.7C2.8,1,3.8,0,5,0s2.1,1,2.1,2.1h2.8C9.9,1,10.8,0,12,0s2.1,0.9,2.2,2.1c0,0,0,0.1,0,0.1h0.7
	C16,2.1,17,3.1,17,4.2c0,0,0,0,0,0v10.6C17,15.4,16.8,16,16.4,16.4z M15.6,4.2c0-0.4-0.3-0.7-0.7-0.7c0,0,0,0,0,0h-1.4
	c-0.4,0-0.7-0.3-0.7-0.7c0,0,0,0,0,0V2.1c0-0.4-0.3-0.7-0.7-0.7s-0.7,0.3-0.7,0.7c0,0,0,0,0,0.1v1.4c0,0.4,0.3,0.7,0.7,0.7
	c0,0,0,0,0,0c0.4,0,0.7,0.3,0.7,0.7c0,0.4-0.3,0.7-0.7,0.7c-1.2,0-2.1-1-2.1-2.1H6.4C6,3.5,5.7,3.2,5.7,2.8V2.1
	c0-0.4-0.3-0.7-0.7-0.7c-0.4,0-0.7,0.3-0.7,0.7v1.4c0,0.4,0.3,0.7,0.7,0.7c0,0,0,0,0,0c0.4,0,0.7,0.3,0.7,0.7c0,0.4-0.3,0.7-0.7,0.7
	c-1.2,0-2.1-1-2.1-2.1l0,0H2.1c-0.4,0-0.7,0.3-0.7,0.7c0,0,0,0,0,0v2.8h14.2V4.2z M15.6,8.5H1.4v6.4c0,0.4,0.3,0.7,0.7,0.7
	c0,0,0,0,0,0h12.8c0.4,0,0.7-0.3,0.7-0.7c0,0,0,0,0,0V8.5z M12.8,14.2c-0.4,0-0.7-0.3-0.7-0.7c0-0.4,0.3-0.7,0.7-0.7
	c0.4,0,0.7,0.3,0.7,0.7c0,0,0,0,0,0C13.5,13.8,13.1,14.2,12.8,14.2z M12.8,11.3c-0.4,0-0.7-0.3-0.7-0.7s0.3-0.7,0.7-0.7
	c0.4,0,0.7,0.3,0.7,0.7C13.5,11,13.1,11.3,12.8,11.3z M8.5,14.2c-0.4,0-0.7-0.3-0.7-0.7c0-0.4,0.3-0.7,0.7-0.7
	c0.4,0,0.7,0.3,0.7,0.7c0,0,0,0,0,0C9.2,13.8,8.9,14.2,8.5,14.2z M8.5,11.3c-0.4,0-0.7-0.3-0.7-0.7s0.3-0.7,0.7-0.7
	c0.4,0,0.7,0.3,0.7,0.7S8.9,11.3,8.5,11.3L8.5,11.3z M4.2,14.2c-0.4,0-0.7-0.3-0.7-0.7c0-0.4,0.3-0.7,0.7-0.7c0.4,0,0.7,0.3,0.7,0.7
	c0,0,0,0,0,0C5,13.8,4.6,14.2,4.2,14.2z M4.2,11.3c-0.4,0-0.7-0.3-0.7-0.7s0.3-0.7,0.7-0.7c0.4,0,0.7,0.3,0.7,0.7
	C5,11,4.6,11.3,4.2,11.3C4.2,11.3,4.2,11.3,4.2,11.3z"/>
</svg>
