<svg xmlns="http://www.w3.org/2000/svg" width="21.999" height="21.999" viewBox="0 0 29 29">
  <defs>
    <style>
      .cls-1 {
        fill: #0073df;
        fill-rule: evenodd;
      }
    </style>
  </defs>
  <path class="cls-1" d="M1289.71,828.86h0a0.05,0.05,0,0,0-.02-0.04A0.232,0.232,0,0,1,1289.71,828.86Zm3.11,6.449a0.111,0.111,0,0,1,.04-0.015A0.041,0.041,0,0,0,1292.82,835.309Zm3.36-9.62a0.131,0.131,0,0,1-.04.016A0.042,0.042,0,0,0,1296.18,825.689Zm12.21,3.171a5.978,5.978,0,0,0-2.03-1.363,13.113,13.113,0,0,0-2.23-.8c-0.19-.047-0.25-0.12-0.14-0.315a17.261,17.261,0,0,0,.83-1.668,6.029,6.029,0,0,0,.62-3.093,2.115,2.115,0,0,0-.92-1.671,3.334,3.334,0,0,0-2.65-.3,11.009,11.009,0,0,0-3.03,1.234c-0.48.263-.47,0.263-0.62-0.283a10.487,10.487,0,0,0-1.38-3.175,2.792,2.792,0,0,0-2-1.423h-0.79a5.3,5.3,0,0,0-1.08.617,6.405,6.405,0,0,0-1.6,2.482,16.961,16.961,0,0,0-.65,1.959c-0.04.133-.05,0.205-0.22,0.106a14.58,14.58,0,0,0-1.91-.961,5.856,5.856,0,0,0-3-.573,2.04,2.04,0,0,0-1.75,1.215,3.367,3.367,0,0,0-.16,2.1,11.548,11.548,0,0,0,1.46,3.51c0.09,0.166.11,0.21-.11,0.273a16.549,16.549,0,0,0-1.93.645,6.229,6.229,0,0,0-2.5,1.619,2.159,2.159,0,0,0-.21,2.722,5.1,5.1,0,0,0,2.25,1.713,16.017,16.017,0,0,0,2.42.856c0.14,0.04.2,0.055,0.1,0.217a15.23,15.23,0,0,0-.97,1.932,5.88,5.88,0,0,0-.56,2.976,2.054,2.054,0,0,0,1.21,1.753,3.372,3.372,0,0,0,2.1.154,11.317,11.317,0,0,0,3.51-1.452c0.17-.1.21-0.1,0.28,0.107a16.492,16.492,0,0,0,.64,1.932,6.294,6.294,0,0,0,1.62,2.5,2.16,2.16,0,0,0,2.72.214,5.18,5.18,0,0,0,1.72-2.248,15.964,15.964,0,0,0,.85-2.423c0.05-.179.09-0.184,0.24-0.1a14.047,14.047,0,0,0,1.94.97,5.806,5.806,0,0,0,2.92.554,2.045,2.045,0,0,0,1.78-1.217,3.528,3.528,0,0,0,.12-2.288,12.159,12.159,0,0,0-1.41-3.319c-0.1-.162-0.12-0.211.1-0.274a17.006,17.006,0,0,0,1.93-.646,7.284,7.284,0,0,0,2.25-1.347,4.05,4.05,0,0,0,.85-1.328V830.1A2.444,2.444,0,0,0,1308.39,828.86Zm-9.82-7.285a9.427,9.427,0,0,1,3.89-1.153,2.666,2.666,0,0,1,1.43.394,1.717,1.717,0,0,1,.64,1.233,5.607,5.607,0,0,1-.33,2.533,14.371,14.371,0,0,1-.74,1.783,0.246,0.246,0,0,1-.34.152,25.507,25.507,0,0,0-3.31-.551c-0.16-.011-0.31-0.063-0.48-0.059a0.223,0.223,0,0,1-.24-0.249c-0.06-.859-0.21-1.705-0.35-2.552-0.08-.421-0.18-0.838-0.27-1.256A0.2,0.2,0,0,1,1298.57,821.575Zm-0.04,11.7c0.19-.176.37-0.352,0.61-0.576-0.06.74-.11,1.409-0.17,2.078a0.182,0.182,0,0,1-.19.192c-0.54.038-1.09,0.079-1.63,0.121-0.14.01-.27,0.028-0.41,0.042-0.02-.026-0.05-0.052-0.07-0.079,0.2-.175.41-0.35,0.61-0.526h0c-0.1-.094-0.14.086-0.22,0.047-0.18.166-.35,0.331-0.53,0.5-0.07.17-.2,0.125-0.33,0.123l-0.1.024c0.03,0.074.19,0,.17,0.128,0,0.066-.07.072-0.13,0.077-0.51.42-1.02,0.836-1.53,1.264a0.134,0.134,0,0,1-.22,0c-0.51-.428-1.02-0.844-1.53-1.264-0.06,0-.13-0.011-0.13-0.077-0.01-.122.13-0.063,0.18-0.125v0a0.834,0.834,0,0,1-.1-0.023c-0.13,0-.28.049-0.35-0.124-0.17-.165-0.34-0.33-0.52-0.5-0.08.038-.12-0.141-0.22-0.047,0.17,0.186.35,0.371,0.58,0.608-0.75-.059-1.41-0.114-2.08-0.166a0.188,0.188,0,0,1-.2-0.2q-0.045-.814-0.12-1.627c-0.01-.127-0.02-0.253-0.03-0.44,0.22,0.217.41,0.393,0.6,0.569,0.09-.1-0.09-0.139-0.05-0.226a1.38,1.38,0,0,0-.15-0.166,1.1,1.1,0,0,1-.46-0.867,0.271,0.271,0,0,0-.08.166c-0.08.12-.13,0.07-0.16-0.044-0.42-.512-0.83-1.028-1.26-1.534a0.13,0.13,0,0,1,0-.219c0.43-.507.84-1.023,1.26-1.535,0.03-.114.08-0.164,0.16-0.044a0.277,0.277,0,0,0,.08.167,1.448,1.448,0,0,1,.61-1.034c-0.04-.086.14-0.128,0.05-0.226-0.19.176-.38,0.353-0.61,0.578,0.06-.749.11-1.427,0.17-2.1a0.172,0.172,0,0,1,.19-0.167l1.63-.121,0.44-.038c-0.22.229-.4,0.414-0.57,0.6,0.1,0.094.14-.086,0.22-0.047h0c0.18-.166.35-0.331,0.52-0.5h0.01c0.07-.17.2-0.124,0.33-0.123l0.1-.024c-0.03-.074-0.19,0-0.17-0.128,0-.066.07-0.072,0.13-0.077,0.51-.42,1.02-0.836,1.53-1.263a0.133,0.133,0,0,1,.22,0c0.51,0.427,1.02.843,1.53,1.263,0.06,0,.13.012,0.13,0.077,0.01,0.122-.13.063-0.18,0.125v0c0.04,0.007.07,0.015,0.1,0.023,0.13,0,.28-0.049.35,0.124,0.17,0.165.34,0.331,0.52,0.5,0.08-.038.12,0.141,0.22,0.047-0.2-.175-0.41-0.351-0.61-0.526,0.02-.027.05-0.054,0.07-0.081,0.67,0.055,1.34.111,2.01,0.164a0.184,0.184,0,0,1,.22.167c0.06,0.678.11,1.356,0.17,2.1-0.24-.224-0.42-0.4-0.61-0.577-0.09.1,0.09,0.14,0.05,0.226a1.308,1.308,0,0,0,.15.166,1.062,1.062,0,0,1,.45.867h0a0.24,0.24,0,0,0,.09-0.166c0.08-.12.13-0.07,0.16,0.044,0.42,0.512.83,1.028,1.26,1.535a0.13,0.13,0,0,1,0,.219c-0.43.506-.84,1.022-1.26,1.534-0.03.114-.08,0.164-0.16,0.044a0.271,0.271,0,0,0-.08-0.166,1.446,1.446,0,0,1-.61,1.033C1298.62,833.141,1298.44,833.182,1298.53,833.28Zm-10.29-2.44c0.42,0.519.87,1.01,1.32,1.5a0.959,0.959,0,0,1,.17.688,17.458,17.458,0,0,0,.12,1.769c0.02,0.156-.07.1-0.16,0.088a24.154,24.154,0,0,1-3.87-.788c0.32-.586.66-1.152,1.03-1.7,0.35-.519.72-1.025,1.08-1.536C1288.02,830.735,1288.08,830.635,1288.24,830.84Zm-1.91-3.053c-0.17-.286-0.34-0.576-0.51-0.874a25.972,25.972,0,0,1,3.02-.7c0.29-.056.58-0.066,0.87-0.105,0.1-.014.14,0.023,0.13,0.117-0.11.718-.06,1.446-0.15,2.165a1.117,1.117,0,0,1-.38.535c-0.36.437-.75,0.846-1.11,1.279-0.1.127-.14,0.091-0.22-0.009A27.835,27.835,0,0,1,1286.33,827.787Zm12.82,7.024c0.12-.734.06-1.481,0.16-2.217a1.092,1.092,0,0,1,.39-0.532c0.35-.428.73-0.828,1.08-1.255,0.11-.133.15-0.116,0.24,0a24.16,24.16,0,0,1,1.65,2.406c0.14,0.239.29,0.476,0.43,0.718,0.06,0.1.09,0.168-.09,0.216a23.848,23.848,0,0,1-3.69.73,0.424,0.424,0,0,0-.08.028C1299.16,834.925,1299.14,834.876,1299.15,834.811Zm1.59-4.669c-0.41-.52-0.87-1.008-1.31-1.5a1.027,1.027,0,0,1-.16-0.719c-0.03-.572-0.04-1.144-0.12-1.712-0.02-.147.05-0.109,0.15-0.1a24.41,24.41,0,0,1,3.89.794c-0.27.451-.52,0.9-0.8,1.341q-0.615.969-1.32,1.886C1300.96,830.279,1300.91,830.348,1300.74,830.142Zm-1.95-5.3c0.06,0.3.08,0.611,0.12,0.916,0.01,0.086-.04.1-0.1,0.084-0.73-.121-1.46-0.066-2.19-0.153a1.136,1.136,0,0,1-.56-0.4c-0.43-.346-0.83-0.732-1.25-1.081-0.14-.113-0.11-0.151,0-0.238a24.115,24.115,0,0,1,2.41-1.648c0.29-.171.57-0.339,0.87-0.511A26.2,26.2,0,0,1,1298.79,824.846Zm-7.69-3.692a10.869,10.869,0,0,1,1.58-3.043,2.684,2.684,0,0,1,1.72-1.11,0.522,0.522,0,0,0,.07-0.019,2.435,2.435,0,0,1,1.6.848,8.29,8.29,0,0,1,1.61,2.766c0.09,0.234.16,0.477,0.25,0.711a0.172,0.172,0,0,1-.09.245c-0.64.4-1.26,0.816-1.86,1.263-0.45.336-.9,0.672-1.34,1.028a0.18,0.18,0,0,1-.29-0.012,28.338,28.338,0,0,0-3.07-2.184A0.348,0.348,0,0,1,1291.1,821.154Zm-0.25.832c0.05-.183.12-0.148,0.22-0.09a28.935,28.935,0,0,1,3.12,2.082c0.13,0.1.13,0.132,0,.238-0.52.433-1.03,0.876-1.52,1.335a0.954,0.954,0,0,1-.6.173c-0.33.047-.66,0-0.99,0.034-0.28.025-.56,0.042-0.84,0.078-0.12.016-.15,0.023-0.13-0.132A26.159,26.159,0,0,1,1290.85,821.986Zm-6.43.547a2.664,2.664,0,0,1,.39-1.423,1.741,1.741,0,0,1,1.29-.644,6.472,6.472,0,0,1,3.24.618c0.34,0.142.68,0.31,1.02,0.454a0.245,0.245,0,0,1,.16.342,24.693,24.693,0,0,0-.55,3.309c-0.01.167-.04,0.334-0.06,0.5a0.239,0.239,0,0,1-.25.221,24.687,24.687,0,0,0-2.55.352c-0.42.073-.84,0.174-1.26,0.262a0.191,0.191,0,0,1-.27-0.09A9.37,9.37,0,0,1,1284.42,822.533Zm0.74,11.365a10.479,10.479,0,0,1-3.05-1.577,2.971,2.971,0,0,1-1.05-1.443,1.644,1.644,0,0,1,.38-1.507,5.655,5.655,0,0,1,2.1-1.6c0.51-.258,1.05-0.445,1.57-0.658a2.6,2.6,0,0,1,.28-0.069c0.12-.042.13,0.077,0.17,0.137,0.4,0.623.81,1.238,1.25,1.832,0.34,0.452.68,0.9,1.03,1.338a0.179,0.179,0,0,1-.01.291,29.307,29.307,0,0,0-2.18,3.064A0.349,0.349,0,0,1,1285.16,833.9Zm5.27,5.528a9.533,9.533,0,0,1-3.44,1.107c-0.14.01-.28,0.035-0.39,0.048a2.858,2.858,0,0,1-1.48-.385,1.719,1.719,0,0,1-.65-1.254,5.567,5.567,0,0,1,.35-2.586,13.724,13.724,0,0,1,.72-1.73,0.248,0.248,0,0,1,.33-0.153,24.263,24.263,0,0,0,3.33.56c0.16,0.012.31,0.059,0.47,0.059a0.241,0.241,0,0,1,.24.284c0.07,0.942.24,1.87,0.4,2.8,0.06,0.339.15,0.674,0.23,1.009A0.183,0.183,0,0,1,1290.43,839.426Zm-0.34-4.277c0.78,0.114,1.55.066,2.33,0.162a1.072,1.072,0,0,1,.5.376c0.43,0.35.83,0.733,1.26,1.086,0.13,0.107.14,0.15,0,.255a26.985,26.985,0,0,1-2.35,1.621c-0.3.185-.61,0.354-0.92,0.533A24.135,24.135,0,0,1,1290.09,835.149Zm7.81,4.678a10.292,10.292,0,0,1-1.6,3.092,2.593,2.593,0,0,1-1.68,1.074,0.549,0.549,0,0,0-.09.024,2.315,2.315,0,0,1-1.39-.639,6.914,6.914,0,0,1-1.59-2.418c-0.18-.409-0.31-0.835-0.48-1.251a0.188,0.188,0,0,1,.1-0.269c0.63-.391,1.24-0.8,1.84-1.247,0.45-.342.91-0.685,1.36-1.045a0.168,0.168,0,0,1,.27.006,28.633,28.633,0,0,0,3.08,2.2A0.335,0.335,0,0,1,1297.9,839.827Zm0.23-.761c-0.05.2-.16,0.052-0.19,0.031-0.63-.378-1.25-0.756-1.86-1.158-0.43-.283-0.84-0.6-1.26-0.9-0.11-.084-0.16-0.131-0.01-0.257,0.52-.431,1.03-0.88,1.53-1.334a1.208,1.208,0,0,1,.74-0.183,2.7,2.7,0,0,1,.44,0c0.42-.029.82-0.052,1.22-0.089,0.14-.013.16,0.009,0.14,0.146A22.89,22.89,0,0,1,1298.13,839.066Zm6.41-1.052a3.619,3.619,0,0,0,.04.384,2.668,2.668,0,0,1-.39,1.479,1.7,1.7,0,0,1-1.28.655,6.486,6.486,0,0,1-3.16-.574c-0.39-.152-0.77-0.345-1.15-0.514a0.211,0.211,0,0,1-.13-0.287,25.41,25.41,0,0,0,.56-3.362,3.713,3.713,0,0,0,.06-0.472,0.247,0.247,0,0,1,.29-0.239,24.737,24.737,0,0,0,2.74-.4c0.36-.069.71-0.145,1.07-0.226a0.182,0.182,0,0,1,.24.114A9.7,9.7,0,0,1,1304.54,838.014Zm2.84-6.153a6.824,6.824,0,0,1-2.42,1.587c-0.41.177-.84,0.314-1.25,0.478a0.185,0.185,0,0,1-.27-0.1c-0.53-.849-1.11-1.67-1.72-2.464-0.19-.246-0.37-0.5-0.57-0.731-0.1-.116-0.08-0.162.01-0.27a28.062,28.062,0,0,0,2.2-3.087,0.351,0.351,0,0,1,.5-0.171,10.745,10.745,0,0,1,3.02,1.566,2.724,2.724,0,0,1,1.11,1.712,0.355,0.355,0,0,0,.03.086A2.347,2.347,0,0,1,1307.38,831.861Zm-8.09.277v0a0.051,0.051,0,0,0,.02.041A0.2,0.2,0,0,1,1299.29,832.138ZM1294.5,828a2.5,2.5,0,1,1-2.5,2.5A2.5,2.5,0,0,1,1294.5,828Z" transform="translate(-1280 -816)"/>
</svg>
