<svg xmlns="http://www.w3.org/2000/svg" width="20" height="20" viewBox="0 0 20 20">
  <defs>
    <style>
      .cls-1 {
        fill: #7b7b7b;
        fill-rule: evenodd;
      }
    </style>
  </defs>
  <path id="change_Password" data-name="change Password" class="cls-1" d="M1863.03,185h-13.06a2.981,2.981,0,0,1-2.97-2.988v-1.494a2.976,2.976,0,0,1,2.13-2.867,0.747,0.747,0,0,1,.42,1.433,1.5,1.5,0,0,0-1.07,1.434v1.494a1.5,1.5,0,0,0,1.49,1.494h13.06a1.5,1.5,0,0,0,1.49-1.494v-1.494a1.493,1.493,0,0,0-1.12-1.448,0.752,0.752,0,0,1-.53-0.909,0.741,0.741,0,0,1,.9-0.538,2.988,2.988,0,0,1,2.23,2.9v1.494A2.981,2.981,0,0,1,1863.03,185Zm-1.33-3.735a0.752,0.752,0,0,1-.75.747,0.747,0.747,0,0,1,0-1.494A0.751,0.751,0,0,1,1861.7,181.265Zm-2.97,0a0.752,0.752,0,0,1-.75.747,0.747,0.747,0,0,1,0-1.494A0.751,0.751,0,0,1,1858.73,181.265Zm-2.97,0a0.743,0.743,0,0,1-.74.747,0.747,0.747,0,1,1,0-1.494A0.742,0.742,0,0,1,1855.76,181.265Zm-2.97,0a0.743,0.743,0,0,1-.74.747,0.747,0.747,0,1,1,0-1.494A0.742,0.742,0,0,1,1852.79,181.265Zm7.89-4.725a5.1,5.1,0,0,1-3.19,1.985,5.253,5.253,0,0,1-5.18-1.942c-0.04-.049-0.09-0.091-0.16-0.164-0.31.317-.6,0.616-0.93,0.944v-2.115c0-.589,0-0.589.6-0.589h2.13c-0.32.319-.6,0.6-0.89,0.878a0.2,0.2,0,0,0-.03.329,4.245,4.245,0,0,0,2.59,1.654,4.011,4.011,0,0,0,2.61-.287,4.165,4.165,0,0,0,2.36-2.755,4.45,4.45,0,0,0,.17-1.307,4.323,4.323,0,0,0-.74-2.286,0.183,0.183,0,0,1,.02-0.29,6.256,6.256,0,0,0,.44-0.5c0.1-.113.17-0.074,0.23,0.02a5.3,5.3,0,0,1,.96,2.175,4.922,4.922,0,0,1,.11,1.081A5.271,5.271,0,0,1,1860.68,176.54Zm0.42-7.275a18.155,18.155,0,0,0-3.02,3.793,14.957,14.957,0,0,0-.94,1.791,1.715,1.715,0,0,1-1.26.83c-0.24.073-.3-0.145-0.35-0.31a8.462,8.462,0,0,0-1.13-2.387c-0.15-.21-0.31-0.407-0.47-0.6a0.12,0.12,0,0,1,0-.2,2.149,2.149,0,0,1,1-.486,0.987,0.987,0,0,1,.98.58,8.483,8.483,0,0,1,.64,1.006c0.56-.769,1.09-1.507,1.7-2.193a8.546,8.546,0,0,1,1.82-1.6,3.574,3.574,0,0,1,1.22-.489A0.4,0.4,0,0,1,1861.1,169.265Zm-2.1.586a4.139,4.139,0,0,0-1.75-.761,4.326,4.326,0,0,0-2.33.215,3.972,3.972,0,0,0-1.51.992,4.2,4.2,0,0,0-1.16,2.3,0.511,0.511,0,0,1-.58.5,0.449,0.449,0,0,1-.44-0.509,5.286,5.286,0,0,1,1.93-3.413,5.039,5.039,0,0,1,2.65-1.134,5.227,5.227,0,0,1,2.64.34,5.983,5.983,0,0,1,1.56.966,4.559,4.559,0,0,0-.66.489A0.237,0.237,0,0,1,1859,169.851Z" transform="translate(-1846.5 -166.5)"/>
</svg>
