<svg id="Layer_1" data-name="Layer 1" xmlns="http://www.w3.org/2000/svg" viewBox="0 0 20 20"><defs><style>.cls-1{fill:#02539f;}</style></defs><path class="cls-1" d="M10.63,1.07l.92.14a8.77,8.77,0,0,1,4.62,2.34l.17.16c0-.37,0-.69,0-1a.56.56,0,0,1,.84-.44.55.55,0,0,1,.27.48q0,1.26,0,2.52a.54.54,0,0,1-.56.55c-.83,0-1.67,0-2.5,0a.54.54,0,0,1-.56-.56.54.54,0,0,1,.55-.55h1.34a.79.79,0,0,0-.12-.13,7.62,7.62,0,0,0-4.54-2.3A7.8,7.8,0,1,0,17.56,12a8.42,8.42,0,0,0,.25-1.87.56.56,0,0,1,1.09-.25l0,0v.76l0,.16c0,.29-.06.6-.12.89a8.73,8.73,0,0,1-3.31,5.38,8.66,8.66,0,0,1-7.13,1.71,8.51,8.51,0,0,1-4.87-2.7,8.75,8.75,0,0,1-2.3-7.3A8.55,8.55,0,0,1,3.22,4.2a8.78,8.78,0,0,1,5.23-3l.92-.14Z"/><path class="cls-1" d="M10,7.21H14.4a1.66,1.66,0,0,1,1.73,1.73v3.29a.55.55,0,0,1-.46.55.57.57,0,0,1-.63-.4.82.82,0,0,1,0-.22V9a.59.59,0,0,0-.67-.66H5.64A.58.58,0,0,0,5,9v2a.57.57,0,0,0,.65.64H10a.55.55,0,0,1,.55.48.54.54,0,0,1-.4.61.55.55,0,0,1-.18,0H5.52a1.65,1.65,0,0,1-1.65-1.65c0-.75,0-1.51,0-2.26A1.66,1.66,0,0,1,5.53,7.21Z"/><path class="cls-1" d="M12.05,13.7l1.46-1.31a.55.55,0,0,1,.73-.05.56.56,0,0,1,0,.87L13,14.37l-.53.48a.56.56,0,0,1-.79,0q-.48-.4-.93-.84a.55.55,0,0,1,0-.77.56.56,0,0,1,.79-.05Z"/><path class="cls-1" d="M7.77,10A1.12,1.12,0,1,1,6.66,8.88,1.11,1.11,0,0,1,7.77,10Z"/><path class="cls-1" d="M8.89,10A1.11,1.11,0,1,1,10,11.11,1.1,1.1,0,0,1,8.89,10Z"/><path class="cls-1" d="M14.46,10a1.12,1.12,0,1,1-1.1-1.13A1.1,1.1,0,0,1,14.46,10Z"/></svg>