<svg width="20" height="20" viewBox="0 0 20 20" fill="none" xmlns="http://www.w3.org/2000/svg">
<path fill-rule="evenodd" clip-rule="evenodd" d="M2.22147 10.0009C2.2211 8.75927 2.51805 7.53557 3.0875 6.43218C3.65695 5.32879 4.48234 4.3778 5.49461 3.65875C6.50689 2.93971 7.67664 2.47351 8.906 2.29915C10.1354 2.1248 11.3886 2.24735 12.5609 2.65657C12.8392 2.75351 13.1446 2.73592 13.4099 2.60769C13.6752 2.47946 13.8787 2.25108 13.9757 1.97279C14.0726 1.69451 14.055 1.38911 13.9268 1.12379C13.7986 0.85847 13.5702 0.654956 13.2919 0.558021C11.2448 -0.15615 9.02109 -0.185579 6.95585 0.47417C4.8906 1.13392 3.09576 2.44709 1.84185 4.21577C0.58794 5.98445 -0.0570948 8.11278 0.00396846 10.28C0.0650318 12.4472 0.828884 14.5358 2.1804 16.2311C3.53191 17.9264 5.39784 19.1364 7.49696 19.6788C9.59608 20.2212 11.8146 20.0666 13.8182 19.2383C15.8218 18.41 17.5019 16.9529 18.6052 15.0866C19.7086 13.2202 20.1754 11.0458 19.9353 8.89112C19.9192 8.7461 19.8748 8.60567 19.8044 8.47784C19.7341 8.35 19.6393 8.23727 19.5254 8.14608C19.4115 8.05488 19.2808 7.98701 19.1407 7.94635C19.0006 7.90568 18.8538 7.89301 18.7088 7.90905C18.5638 7.9251 18.4234 7.96956 18.2955 8.03988C18.1677 8.1102 18.0549 8.20501 17.9638 8.3189C17.8726 8.43278 17.8047 8.56352 17.764 8.70364C17.7234 8.84375 17.7107 8.99051 17.7267 9.13552C17.8437 10.1863 17.7452 11.25 17.4372 12.2615C17.1292 13.2729 16.6182 14.211 15.9354 15.0182C15.2526 15.8255 14.4123 16.485 13.466 16.9566C12.5196 17.4281 11.487 17.7017 10.4314 17.7606C9.37567 17.8195 8.31907 17.6625 7.32612 17.2993C6.33317 16.936 5.42472 16.374 4.65631 15.6478C3.8879 14.9215 3.27566 14.0462 2.85702 13.0752C2.43837 12.1043 2.22212 11.0583 2.22147 10.0009ZM18.6077 4.07079C18.8028 3.84981 18.902 3.5604 18.8837 3.26622C18.8654 2.97205 18.7309 2.6972 18.5099 2.50215C18.289 2.3071 17.9996 2.20782 17.7054 2.22616C17.4112 2.24449 17.1364 2.37893 16.9413 2.59991L9.79246 10.6875L6.25637 7.80685C6.1433 7.71465 6.01319 7.64562 5.87344 7.6037C5.7337 7.56178 5.58707 7.5478 5.44193 7.56256C5.14879 7.59235 4.8795 7.73737 4.69329 7.96571C4.60108 8.07878 4.53206 8.20889 4.49014 8.34864C4.44822 8.48838 4.43424 8.63501 4.44899 8.78015C4.47879 9.07329 4.62381 9.34258 4.85215 9.52879L9.217 13.0838C9.43937 13.2647 9.72307 13.3527 10.0088 13.3293C10.2945 13.3059 10.5601 13.1729 10.7501 12.9582L18.6077 4.07079Z" fill="#009CFF"/>
</svg>
