<?xml version="1.0" encoding="utf-8"?>
<!-- Generator: Adobe Illustrator 25.3.0, SVG Export Plug-In . SVG Version: 6.00 Build 0)  -->
<svg version="1.1" id="Layer_1" xmlns="http://www.w3.org/2000/svg" xmlns:xlink="http://www.w3.org/1999/xlink" x="0px" y="0px"
	 viewBox="0 0 17 17" style="enable-background:new 0 0 17 17;" xml:space="preserve">
<style type="text/css">
	.st0{fill-rule:evenodd;clip-rule:evenodd;fill:#00539E;}
</style>
<path id="Shape_369_2_copy" class="st0" d="M16.4,16.4C16,16.8,15.4,17,14.9,17H2.1C0.9,17,0,16.1,0,14.9c0,0,0,0,0,0V4.2
	c0-1.2,0.9-2.1,2.1-2.1c0,0,0,0,0,0h0.7c0-0.6,0.2-1.1,0.6-1.5C3.9,0.2,4.4,0,5,0C6.1,0,7.1,1,7.1,2.1c0,0,0,0,0,0h2.8
	C9.9,1,10.9,0,12,0c0,0,0,0,0,0c0.6,0,1.1,0.2,1.5,0.6c0.4,0.4,0.6,0.9,0.6,1.5h0.7C16,2.1,17,3.1,17,4.2c0,0,0,0,0,0v10.6
	C17,15.4,16.8,16,16.4,16.4z M15.6,4.2c0-0.2-0.1-0.4-0.2-0.5c-0.1-0.1-0.3-0.2-0.5-0.2h-1.4c-0.2,0-0.4-0.1-0.5-0.2
	c-0.1-0.1-0.2-0.3-0.2-0.5V2.1c0-0.2-0.1-0.4-0.2-0.5c-0.3-0.3-0.7-0.3-1,0c0,0,0,0,0,0c-0.1,0.1-0.2,0.3-0.2,0.5v1.4
	c0,0.2,0.1,0.4,0.2,0.5c0.1,0.1,0.3,0.2,0.5,0.2s0.4,0.1,0.5,0.2c0.3,0.3,0.3,0.7,0,1c0,0,0,0,0,0c-0.1,0.1-0.3,0.2-0.5,0.2
	c-1.2,0-2.1-1-2.1-2.1c0,0,0,0,0,0H6.4C6.2,3.5,6,3.5,5.9,3.3C5.7,3.2,5.7,3,5.7,2.8V2.1c0-0.2-0.1-0.4-0.2-0.5
	c-0.3-0.3-0.7-0.3-1,0c0,0,0,0,0,0C4.3,1.8,4.2,1.9,4.3,2.1v1.4c0,0.2,0.1,0.4,0.2,0.5C4.6,4.2,4.8,4.2,5,4.2s0.4,0.1,0.5,0.2
	c0.3,0.3,0.3,0.7,0,1c0,0,0,0,0,0C5.3,5.6,5.1,5.7,5,5.7C4.4,5.7,3.9,5.4,3.5,5C3.1,4.6,2.8,4.1,2.8,3.5H2.1c-0.2,0-0.4,0.1-0.5,0.2
	C1.5,3.9,1.4,4.1,1.4,4.2v2.8h14.2L15.6,4.2L15.6,4.2z M15.6,8.5H1.4v6.4c0,0.2,0.1,0.4,0.2,0.5c0.1,0.1,0.3,0.2,0.5,0.2h12.8
	c0.2,0,0.4-0.1,0.5-0.2c0.1-0.1,0.2-0.3,0.2-0.5L15.6,8.5L15.6,8.5z M12.8,14.2c-0.4,0-0.7-0.3-0.7-0.7c0-0.4,0.3-0.7,0.7-0.7
	c0.4,0,0.7,0.3,0.7,0.7C13.5,13.8,13.1,14.2,12.8,14.2z M12.8,11.3c-0.4,0-0.7-0.3-0.7-0.7s0.3-0.7,0.7-0.7c0.4,0,0.7,0.3,0.7,0.7
	C13.5,11,13.1,11.3,12.8,11.3z M8.5,14.2c-0.4,0-0.7-0.3-0.7-0.7c0-0.4,0.3-0.7,0.7-0.7c0.4,0,0.7,0.3,0.7,0.7
	C9.2,13.8,8.9,14.2,8.5,14.2z M8.5,11.3c-0.4,0-0.7-0.3-0.7-0.7s0.3-0.7,0.7-0.7c0.4,0,0.7,0.3,0.7,0.7C9.2,11,8.9,11.3,8.5,11.3z
	 M4.2,14.2c-0.4,0-0.7-0.3-0.7-0.7c0-0.4,0.3-0.7,0.7-0.7c0.4,0,0.7,0.3,0.7,0.7C5,13.8,4.6,14.2,4.2,14.2z M4.2,11.3
	c-0.4,0-0.7-0.3-0.7-0.7s0.3-0.7,0.7-0.7c0.4,0,0.7,0.3,0.7,0.7C5,11,4.6,11.3,4.2,11.3z"/>
</svg>
