<?xml version="1.0" encoding="utf-8"?>
<!-- Generator: Adobe Illustrator 24.2.1, SVG Export Plug-In . SVG Version: 6.00 Build 0)  -->
<svg version="1.1" id="Layer_1" xmlns="http://www.w3.org/2000/svg" xmlns:xlink="http://www.w3.org/1999/xlink" x="0px" y="0px"
	 viewBox="0 0 19 19" style="enable-background:new 0 0 19 19;" xml:space="preserve">
<style type="text/css">
	.st0{fill-rule:evenodd;clip-rule:evenodd;fill:#3B3917;}
</style>
<path id="close_icon" class="st0" d="M14.7,16.2L9.5,11l-5.2,5.2c-0.5,0.5-1.3,0.5-1.8,0c-0.5-0.5-0.5-1.3,0-1.8l5.2-5.2L3.1,4.6
	c-0.5-0.5-0.5-1.3,0-1.8s1.3-0.5,1.8,0l4.6,4.6l4.6-4.6c0.5-0.5,1.3-0.5,1.8,0c0.5,0.5,0.5,1.3,0,1.8l-4.6,4.6l5.2,5.2
	c0.5,0.5,0.5,1.3,0,1.8C16,16.7,15.2,16.7,14.7,16.2z"/>
</svg>
