<svg xmlns="http://www.w3.org/2000/svg" width="20" height="20" viewBox="0 0 30.969 30.969">
  <defs>
    <style>
      .cls-1 {
        fill: #f7f8fb;
        fill-rule: evenodd;
        opacity: 0.8;
      }
    </style>
  </defs>
  <path id="close" class="cls-1" d="M824.54,81.54a15.5,15.5,0,1,1,0,21.92A15.5,15.5,0,0,1,824.54,81.54Zm16.709,6.743-4.223,4.224,4.222,4.222a1.061,1.061,0,0,1-1.5,1.5l-4.222-4.222-3.731,3.73a1.061,1.061,0,1,1-1.5-1.5l3.73-3.73L830.3,88.778a1.061,1.061,0,0,1,1.5-1.5l3.73,3.729,4.223-4.223A1.061,1.061,0,1,1,841.249,88.283Z" transform="translate(-820.031 -77.031)"/>
</svg>
