<svg xmlns="http://www.w3.org/2000/svg" viewBox="0 0 26 28"><g id="Layer_2" data-name="Layer 2"><g id="Layer_1-2" data-name="Layer 1"><path d="M26,27A1,1,0,0,1,25,28a5.06,5.06,0,0,1-.55,0H1.37L.89,28A1,1,0,0,1,0,27c0-.8,0-1.59,0-2.39a1,1,0,0,1,1-.95H25a1,1,0,0,1,1,1C26,25.46,26,26.21,26,27ZM25,24.69H1c0,.67,0,1.31,0,2C1,27,1,27,1.33,27H24.59a.57.57,0,0,0,.26,0,.34.34,0,0,0,.19-.18C25.05,26.13,25,25.43,25,24.69ZM1.11,8.72H24.88c0,.45,0,.89,0,1.33a.52.52,0,0,1-.54.51H15.09l-7.1,0-4.86,0-1.42,0a.56.56,0,0,1-.6-.6Zm1.8,2.42H7.57c.11.86.06,1.24-.64,1.27v.74l.18,6.28a.36.36,0,0,0,.2.33.6.6,0,0,1,.28.38,4,4,0,0,1,0,.78H2.92c-.08-.9,0-1.07.45-1.26l.21-7.22C2.89,12.3,2.84,12.19,2.91,11.14Zm12.41,9.79H10.63a3.22,3.22,0,0,1,0-.7.86.86,0,0,1,.29-.47.36.36,0,0,0,.2-.35c0-1,.06-2.07.08-3.11,0-1.22.07-2.43.11-3.65v-.21c-.68-.13-.74-.24-.67-1.31h4.66c.12.83.08,1.25-.65,1.28l.21,7.25C15.36,19.86,15.47,20.17,15.32,20.93Zm7.76,0H18.42c-.18-.66,0-1.06.44-1.25l.21-7.24c-.67-.12-.75-.21-.66-1.3h4.66c.09.86.06,1.26-.66,1.27l.21,7.26C23.11,19.86,23.17,20,23.08,20.92Zm-22,2.26c0-.41,0-.8,0-1.19a.52.52,0,0,1,.5-.47H24.14c.57,0,.74.17.74.75v.91ZM25.49,8.23H.67C.25,8.23,0,8,0,7.65a.58.58,0,0,1,.35-.52l5-2.85L12.56.13a.77.77,0,0,1,.86,0l12.18,7c.34.2.45.43.35.74A.52.52,0,0,1,25.49,8.23ZM23.05,6.91,13.19,1.26a.39.39,0,0,0-.45,0L4,6.33,2.84,7V7H23.2Z" style="fill:#3771b8;fill-rule:evenodd"/></g></g></svg>