<svg id="Layer_1" data-name="Layer 1" xmlns="http://www.w3.org/2000/svg" viewBox="0 0 20 20"><defs><style>.cls-1{fill:#02539f;}</style></defs><path class="cls-1" d="M19.68,18.15v1.63H.51a.43.43,0,0,1-.19-.42c0-.33,0-.67,0-1s0-.32.3-.42V2.63c0-.31.09-.4.41-.4h3.2l0,0V.82c0-.32.09-.41.41-.41H15.34c.32,0,.41.09.41.42V2.06s0,.11,0,.17H19c.35,0,.43.08.43.43V17.9ZM15.13,18V1H4.87V18H7.58V15.32c0-.28.1-.38.37-.38H12c.29,0,.38.1.38.39V18ZM4.24,18V2.85h-3V18ZM15.76,2.84V18h3V2.84Zm3.31,15.74H.94v.59H19.07ZM9.69,18v-2.4H8.2V18Zm.63-2.41V18h1.49v-2.4Z"/><path class="cls-1" d="M5.46,3V2c0-.24.11-.34.35-.34H7A.29.29,0,0,1,7.28,2V4A.3.3,0,0,1,7,4.35H5.79A.31.31,0,0,1,5.46,4Zm.62-.73V3.73h.58V2.24Z"/><path class="cls-1" d="M7.88,3V2c0-.24.11-.34.35-.34H9.37A.29.29,0,0,1,9.7,2V4a.3.3,0,0,1-.32.32H8.21A.3.3,0,0,1,7.89,4C7.88,3.67,7.88,3.32,7.88,3Zm.62-.73V3.73h.58V2.24Z"/><path class="cls-1" d="M10.3,3c0-.34,0-.68,0-1a.29.29,0,0,1,.33-.33h1.14c.23,0,.34.1.34.33V4a.3.3,0,0,1-.33.33H10.64A.3.3,0,0,1,10.31,4C10.3,3.66,10.3,3.32,10.3,3Zm1.2.76V2.24h-.58v1.5Z"/><path class="cls-1" d="M12.73,3c0-.34,0-.67,0-1s.1-.34.34-.34H14.2c.23,0,.34.11.34.33V4c0,.22-.11.33-.34.34H13.05A.3.3,0,0,1,12.73,4C12.72,3.67,12.73,3.32,12.73,3Zm.61-.74V3.73h.59V2.24Z"/><path class="cls-1" d="M10.3,9.63c0-.34,0-.67,0-1s.1-.35.34-.35h1.12a.3.3,0,0,1,.35.35v2c0,.22-.11.33-.34.33H10.64a.29.29,0,0,1-.33-.33C10.3,10.32,10.3,10,10.3,9.63Zm1.2.76V8.9h-.58v1.49Z"/><path class="cls-1" d="M14.54,9.64v1a.3.3,0,0,1-.34.34H13.05a.29.29,0,0,1-.32-.33c0-.68,0-1.37,0-2.06a.29.29,0,0,1,.32-.33h1.17a.29.29,0,0,1,.32.32Zm-1.2-.75v1.49h.59V8.89Z"/><path class="cls-1" d="M5.46,13V12c0-.26.1-.37.36-.37H6.94a.3.3,0,0,1,.34.34v2c0,.24-.11.34-.35.34H5.81c-.24,0-.34-.1-.35-.34Zm.62.75h.58v-1.5H6.08Z"/><path class="cls-1" d="M12.12,13v1a.3.3,0,0,1-.35.35H10.64c-.23,0-.33-.11-.33-.34q0-1,0-2c0-.23.1-.34.33-.34h1.15a.29.29,0,0,1,.33.33Zm-1.2-.76v1.49h.58V12.22Z"/><path class="cls-1" d="M5.46,6.3v-1c0-.24.11-.34.35-.35H6.93c.24,0,.35.11.35.34V7.34c0,.22-.11.33-.34.33H5.81c-.24,0-.34-.11-.35-.35Zm.62-.73V7.06h.58V5.57Z"/><path class="cls-1" d="M7.88,6.31v-1c0-.24.11-.34.35-.35H9.36c.23,0,.34.11.34.34v2c0,.24-.11.34-.35.34H8.23c-.24,0-.34-.1-.35-.34Zm1.2.75V5.57H8.5V7.06Z"/><path class="cls-1" d="M10.3,6.3c0-.34,0-.67,0-1s.1-.33.33-.34h1.15a.3.3,0,0,1,.33.33V7.34a.29.29,0,0,1-.33.33H10.62a.28.28,0,0,1-.31-.32C10.3,7,10.3,6.65,10.3,6.3Zm1.2.76V5.57h-.58V7.06Z"/><path class="cls-1" d="M14.54,6.31v1c0,.22-.11.33-.34.33H13.05a.29.29,0,0,1-.32-.32q0-1,0-2.07A.3.3,0,0,1,13.05,5h1.17a.29.29,0,0,1,.32.32Zm-1.2-.74V7.06h.59V5.57Z"/><path class="cls-1" d="M14.54,13v1a.3.3,0,0,1-.35.35H13.06c-.22,0-.33-.11-.33-.34q0-1,0-2c0-.23.1-.34.33-.34h1.15a.29.29,0,0,1,.33.33Zm-.62.74V12.23h-.58v1.49Z"/><path class="cls-1" d="M7.88,13V12c0-.24.11-.35.35-.35H9.35c.24,0,.35.11.35.34v2a.3.3,0,0,1-.34.34H8.23c-.24,0-.34-.11-.35-.35Zm1.2.76V12.23H8.5v1.49Z"/><path class="cls-1" d="M5.46,9.63v-1c0-.24.11-.35.35-.35H6.93a.3.3,0,0,1,.35.35v2c0,.22-.11.33-.34.33H5.8a.3.3,0,0,1-.34-.33ZM6.67,8.9H6.08v1.49h.59Z"/><path class="cls-1" d="M9.7,9.65v1c0,.24-.11.35-.34.35H8.22a.29.29,0,0,1-.33-.33c0-.68,0-1.36,0-2,0-.24.11-.35.35-.35H9.35a.3.3,0,0,1,.35.35ZM8.5,8.89v1.5h.58V8.89Z"/><path class="cls-1" d="M3.65,11.46v1c0,.23-.11.34-.34.34H2.18c-.23,0-.35-.11-.35-.33V10.43a.3.3,0,0,1,.33-.33H3.31c.23,0,.33.11.34.34Zm-1.2-.75V12.2H3V10.71Z"/><path class="cls-1" d="M1.83,4.8v-1c0-.23.11-.34.34-.34H3.32a.3.3,0,0,1,.33.33V5.83a.3.3,0,0,1-.33.33H2.15a.29.29,0,0,1-.32-.32Zm.61.74H3V4.06H2.44Z"/><path class="cls-1" d="M1.83,14.77v-1c0-.24.11-.34.35-.34H3.3c.24,0,.35.1.35.34v2a.3.3,0,0,1-.34.34H2.17c-.23,0-.33-.11-.34-.34ZM2.45,14v1.49H3V14Z"/><path class="cls-1" d="M1.83,8.12v-1a.3.3,0,0,1,.35-.35H3.31a.3.3,0,0,1,.34.34v2a.3.3,0,0,1-.34.34H2.16a.3.3,0,0,1-.33-.33ZM3,8.88V7.39H2.45V8.88Z"/><path class="cls-1" d="M18.17,4.81v1c0,.23-.11.34-.35.34H16.69a.29.29,0,0,1-.33-.32c0-.7,0-1.39,0-2.08a.29.29,0,0,1,.32-.32h1.17a.29.29,0,0,1,.32.33ZM17,5.55h.58V4.06H17Z"/><path class="cls-1" d="M18.17,11.47v1c0,.24-.11.35-.34.35H16.69c-.22,0-.33-.11-.33-.34q0-1,0-2c0-.23.1-.34.33-.34h1.15a.29.29,0,0,1,.33.33ZM17,12.2h.59V10.72H17Z"/><path class="cls-1" d="M18.17,14.8v1a.3.3,0,0,1-.35.35H16.71c-.24,0-.35-.11-.35-.34,0-.69,0-1.37,0-2.05a.29.29,0,0,1,.33-.33h1.14c.23,0,.34.11.34.35ZM17,15.53h.59V14.05H17Z"/><path class="cls-1" d="M16.36,8.12c0-.34,0-.67,0-1s.1-.34.34-.34h1.14a.29.29,0,0,1,.33.32V9.17a.29.29,0,0,1-.32.32H16.68a.29.29,0,0,1-.32-.33C16.35,8.81,16.36,8.46,16.36,8.12Zm1.2.76V7.38H17v1.5Z"/></svg>