<?xml version="1.0" encoding="utf-8"?>
<!-- Generator: Adobe Illustrator 25.3.0, SVG Export Plug-In . SVG Version: 6.00 Build 0)  -->
<svg version="1.1" id="consultation" xmlns="http://www.w3.org/2000/svg" xmlns:xlink="http://www.w3.org/1999/xlink" x="0px"
	 y="0px" viewBox="0 0 32 32" style="enable-background:new 0 0 32 32;" xml:space="preserve">
<style type="text/css">
	.st0{fill:#0254A0;}
</style>
<path class="st0" d="M11.3,21.7c2.1-1.8,2.3-5,0.5-7.1s-5-2.3-7.1-0.5s-2.3,5-0.5,7.1c0.1,0.2,0.3,0.3,0.5,0.5C1.8,23,0,25.9,0,29v1
	c0,0.6,0.4,1,1,1h3c0.6,0,1-0.4,1-1s-0.4-1-1-1H2c0-3.3,2.7-6,6-6s6,2.7,6,6H8c-0.6,0-1,0.4-1,1s0.4,1,1,1h7c0.6,0,1-0.4,1-1v-1
	C16,25.9,14.2,23,11.3,21.7z M5,18c0-1.7,1.3-3,3-3s3,1.3,3,3s-1.3,3-3,3S5,19.7,5,18z M29,1H17c-1.7,0-3,1.3-3,3v6c0,1.7,1.3,3,3,3
	v2c0,0.6,0.4,1,1,1c0.2,0,0.4-0.1,0.6-0.2l3.7-2.8H29c1.7,0,3-1.3,3-3V4C32,2.3,30.7,1,29,1z M30,10c0,0.6-0.4,1-1,1h-7
	c-0.4,0-0.4,0-3,2v-1c0-0.6-0.4-1-1-1h-1c-0.6,0-1-0.4-1-1V4c0-0.6,0.4-1,1-1h12c0.6,0,1,0.4,1,1V10z"/>
<path class="st0" d="M19,8c-0.6,0-1-0.4-1-1s0.4-1,1-1s1,0.4,1,1S19.6,8,19,8z M23,8c-0.6,0-1-0.4-1-1s0.4-1,1-1s1,0.4,1,1
	S23.6,8,23,8z M27,8c-0.6,0-1-0.4-1-1s0.4-1,1-1s1,0.4,1,1S27.6,8,27,8z"/>
</svg>
