<?xml version="1.0" encoding="utf-8"?>
<!-- Generator: Adobe Illustrator 24.2.1, SVG Export Plug-In . SVG Version: 6.00 Build 0)  -->
<svg version="1.1" id="Layer_1" xmlns="http://www.w3.org/2000/svg" xmlns:xlink="http://www.w3.org/1999/xlink" x="0px" y="0px"
	 viewBox="0 0 24 24" style="enable-background:new 0 0 24 24;" xml:space="preserve">
<style type="text/css">
	.st0{fill-rule:evenodd;clip-rule:evenodd;fill:#0073E0;}
</style>
<path id="contact_card" class="st0" d="M17.5,19h-11c-2.2,0-4-1.9-4-4.1V9.1c0-2.2,1.8-4.1,4-4.1h11c2.2,0,4,1.9,4,4.1v5.8
	C21.5,17.1,19.7,19,17.5,19z M20.3,8.9c0-1.4-1.1-2.6-2.6-2.7H6.3c-1.4,0-2.6,1.2-2.6,2.7v6.2c0,1.4,1.1,2.6,2.6,2.7h11.5
	c1.4,0,2.6-1.2,2.6-2.7V8.9L20.3,8.9z M17.9,13.6h-5.4c-0.3,0-0.6-0.3-0.6-0.6c0,0,0,0,0,0v0c0-0.3,0.3-0.6,0.6-0.6c0,0,0,0,0,0h5.4
	c0.3,0,0.6,0.3,0.6,0.6c0,0,0,0,0,0v0C18.5,13.3,18.2,13.6,17.9,13.6C17.9,13.6,17.9,13.6,17.9,13.6L17.9,13.6z M12.5,14.8h3
	c0.3,0,0.6,0.3,0.6,0.6c0,0,0,0,0,0v0c0,0.3-0.3,0.6-0.6,0.6h-3c-0.3,0-0.6-0.3-0.6-0.6c0,0,0,0,0,0v0
	C11.9,15.1,12.2,14.8,12.5,14.8L12.5,14.8z M17.9,10.6h-5.4c-0.3,0-0.6-0.3-0.6-0.6c0,0,0,0,0,0v0c0-0.3,0.3-0.6,0.6-0.6
	c0,0,0,0,0,0h5.4c0.3,0,0.6,0.3,0.6,0.6c0,0,0,0,0,0v0C18.5,10.3,18.2,10.6,17.9,10.6C17.9,10.6,17.9,10.6,17.9,10.6L17.9,10.6z
	 M6.5,9h3c0.6,0,1,0.4,1,1v4c0,0.6-0.4,1-1,1h-3c-0.6,0-1-0.4-1-1v-4C5.5,9.4,5.9,9,6.5,9z"/>
</svg>
