<svg xmlns="http://www.w3.org/2000/svg" width="13.999" height="13.999" viewBox="0 0 19 19">
  <defs>
    <style>
      .cls-1 {
        fill: #0073e0;
        fill-rule: evenodd;
      }
    </style>
  </defs>
  <path id="Shape_422_1" data-name="Shape 422 1" class="cls-1" d="M1303.01,680.231v2.859a1.864,1.864,0,0,1-.16.771,1.9,1.9,0,0,1-.46.641,1.973,1.973,0,0,1-.68.4,1.928,1.928,0,0,1-.79.093,19.042,19.042,0,0,1-8.26-2.926,18.642,18.642,0,0,1-5.74-5.718,18.838,18.838,0,0,1-2.93-8.263,1.727,1.727,0,0,1,.09-0.78,1.824,1.824,0,0,1,.4-0.676,1.947,1.947,0,0,1,.64-0.459,1.882,1.882,0,0,1,.77-0.162h2.87a1.908,1.908,0,0,1,1.27.461,1.879,1.879,0,0,1,.64,1.178,12.967,12.967,0,0,0,.67,2.678,1.856,1.856,0,0,1,.08,1.068,1.832,1.832,0,0,1-.51.943l-1.21,1.21a15.224,15.224,0,0,0,5.74,5.718l1.22-1.21a1.888,1.888,0,0,1,.94-0.509,1.911,1.911,0,0,1,1.07.08,12.486,12.486,0,0,0,2.69.667A1.9,1.9,0,0,1,1303.01,680.231Z" transform="translate(-1284 -666)"/>
</svg>
