<svg xmlns="http://www.w3.org/2000/svg" width="30" height="30" viewBox="0 0 30 30">
  <defs>
    <style>
      .cls-1 {
        fill: none;
        stroke: #0083ff;
        stroke-width: 2px;
        fill-rule: evenodd;
      }
    </style>
  </defs>
  <path id="contact" class="cls-1" d="M1299.7,207.565v3.108a2.144,2.144,0,0,1-.67,1.536,2.192,2.192,0,0,1-.74.436,2.105,2.105,0,0,1-.85.1,20.52,20.52,0,0,1-8.95-3.18,20.165,20.165,0,0,1-6.23-6.217,20.513,20.513,0,0,1-3.18-8.983,2.036,2.036,0,0,1,.1-0.848,2.042,2.042,0,0,1,1.13-1.234,2.027,2.027,0,0,1,.83-0.176h3.11a2.071,2.071,0,0,1,2.08,1.782,13.274,13.274,0,0,0,.72,2.911,2.091,2.091,0,0,1,.09,1.161,2.031,2.031,0,0,1-.55,1.025l-1.32,1.316a16.652,16.652,0,0,0,6.22,6.217l1.32-1.316a2.082,2.082,0,0,1,2.19-.466,13.39,13.39,0,0,0,2.91.725A2.068,2.068,0,0,1,1299.7,207.565Z" transform="translate(-1274.375 -187.422)"/>
</svg>
