<svg id="Layer_1" data-name="Layer 1" xmlns="http://www.w3.org/2000/svg" viewBox="0 0 20 20"><defs><style>.cls-1{fill:#28a3b3;}</style></defs><path class="cls-1" d="M.43,5.1a5.43,5.43,0,0,1,.13-.58A3.23,3.23,0,0,1,1.3,3.13C2,2.37,2.66,1.6,3.35.84A1.11,1.11,0,0,1,4.75.55a3.78,3.78,0,0,1,1.13.85,10.22,10.22,0,0,1,1.9,2.7A3.79,3.79,0,0,1,8.07,5a.77.77,0,0,1-.29.74L6.27,7.13a.34.34,0,0,0-.13.38,6.81,6.81,0,0,0,.39,1A12.13,12.13,0,0,0,8.7,11.29a12.12,12.12,0,0,0,2.83,2.22,7.93,7.93,0,0,0,1,.37.37.37,0,0,0,.42-.14c.45-.49.93-1,1.37-1.48a.93.93,0,0,1,1-.29,5.17,5.17,0,0,1,1.5.71A9.46,9.46,0,0,1,19,14.5a3.82,3.82,0,0,1,.55.88,1,1,0,0,1-.29,1.27l-1.67,1.5-.63.56a3.35,3.35,0,0,1-1.88.85l-.14,0H14l-.08,0a8.17,8.17,0,0,1-2.61-.76,18.13,18.13,0,0,1-4.15-2.72,24.49,24.49,0,0,1-4.94-5.56A12,12,0,0,1,.64,7.09c-.09-.34-.14-.68-.21-1ZM4.26,1.62c-.73.82-1.44,1.6-2.13,2.4a2,2,0,0,0-.35.65,3.3,3.3,0,0,0,0,1.92A10.89,10.89,0,0,0,3.22,9.87a23,23,0,0,0,3.89,4.58,19,19,0,0,0,4.45,3.14,7.26,7.26,0,0,0,2.6.79,2.49,2.49,0,0,0,2-.63c.4-.38.82-.74,1.23-1.1l1-.89c-.1-.14-.18-.27-.28-.39a9.18,9.18,0,0,0-2.86-2.13.2.2,0,0,0-.27,0c-.42.46-.84.9-1.26,1.34a1.49,1.49,0,0,1-1.38.45,4.63,4.63,0,0,1-1.8-.75,16.43,16.43,0,0,1-4.39-4.17A6.45,6.45,0,0,1,5,8.06a1.67,1.67,0,0,1,.5-1.9c.41-.35.79-.74,1.19-1.1a.21.21,0,0,0,.06-.29A9.44,9.44,0,0,0,4.79,2,6.11,6.11,0,0,0,4.26,1.62Z"/><path class="cls-1" d="M14.13,10.15h-3a.61.61,0,0,1-.68-.68c0-.72,0-1.45,0-2.17A2.64,2.64,0,0,1,12.8,4.73a19.13,19.13,0,0,1,2.73,0,2.63,2.63,0,0,1,2.24,2.13,3,3,0,0,1,.05.6c0,.66,0,1.32,0,2a.63.63,0,0,1-.71.7Zm2.49-1.21V7.35a1.46,1.46,0,0,0-1.37-1.43c-.74,0-1.5,0-2.24,0a1.4,1.4,0,0,0-1.34,1.2c-.06.54,0,1.1,0,1.65,0,.05,0,.11,0,.17Z"/><path class="cls-1" d="M14.12.41a2,2,0,1,1-2,2A2,2,0,0,1,14.12.41Zm.77,2a.77.77,0,1,0-1.53,0,.77.77,0,0,0,1.53,0Z"/></svg>