<?xml version="1.0" encoding="UTF-8"?>
<svg xmlns="http://www.w3.org/2000/svg" xmlns:xlink="http://www.w3.org/1999/xlink" width="18pt" height="18pt" viewBox="0 0 18 18" version="1.1">
<g id="surface1">
<path style=" stroke:none;fill-rule:evenodd;fill:rgb(0%,45.098039%,87.843137%);fill-opacity:1;" d="M 13.125 14.25 L 4.875 14.25 C 3.226562 14.25 1.875 12.824219 1.875 11.175781 L 1.875 6.824219 C 1.875 5.175781 3.226562 3.75 4.875 3.75 L 13.125 3.75 C 14.773438 3.75 16.125 5.175781 16.125 6.824219 L 16.125 11.175781 C 16.125 12.824219 14.773438 14.25 13.125 14.25 Z M 15.226562 6.675781 C 15.226562 5.625 14.398438 4.726562 13.273438 4.648438 L 4.726562 4.648438 C 3.675781 4.648438 2.773438 5.550781 2.773438 6.675781 L 2.773438 11.324219 C 2.773438 12.375 3.601562 13.273438 4.726562 13.351562 L 13.351562 13.351562 C 14.398438 13.351562 15.300781 12.449219 15.300781 11.324219 L 15.300781 6.675781 Z M 13.425781 10.199219 L 9.375 10.199219 C 9.148438 10.199219 8.925781 9.976562 8.925781 9.75 C 8.925781 9.523438 9.148438 9.300781 9.375 9.300781 L 13.425781 9.300781 C 13.648438 9.300781 13.875 9.523438 13.875 9.75 C 13.875 9.976562 13.648438 10.199219 13.425781 10.199219 Z M 9.375 11.101562 L 11.625 11.101562 C 11.851562 11.101562 12.074219 11.324219 12.074219 11.550781 C 12.074219 11.773438 11.851562 12 11.625 12 L 9.375 12 C 9.148438 12 8.925781 11.773438 8.925781 11.550781 C 8.925781 11.324219 9.148438 11.101562 9.375 11.101562 Z M 13.425781 7.949219 L 9.375 7.949219 C 9.148438 7.949219 8.925781 7.726562 8.925781 7.5 C 8.925781 7.273438 9.148438 7.050781 9.375 7.050781 L 13.425781 7.050781 C 13.648438 7.050781 13.875 7.273438 13.875 7.5 C 13.875 7.726562 13.648438 7.949219 13.425781 7.949219 Z M 4.875 6.75 L 7.125 6.75 C 7.574219 6.75 7.875 7.050781 7.875 7.5 L 7.875 10.5 C 7.875 10.949219 7.574219 11.25 7.125 11.25 L 4.875 11.25 C 4.425781 11.25 4.125 10.949219 4.125 10.5 L 4.125 7.5 C 4.125 7.050781 4.425781 6.75 4.875 6.75 Z M 4.875 6.75 "/>
</g>
</svg>
