<svg xmlns="http://www.w3.org/2000/svg" width="45.438" height="52.687" viewBox="0 0 45.438 52.687">
  <defs>
    <style>
      .cls-1 {
        fill: #fff;
        fill-rule: evenodd;
      }
    </style>
  </defs>
  <path id="contactPersonImage" class="cls-1" d="M113.893,409.219a2.084,2.084,0,0,1-2.111-2.056,18.985,18.985,0,0,1,19.207-18.709h3.166a19.633,19.633,0,0,1,6.325,1.039,2.042,2.042,0,0,1,1.3,2.618,2.124,2.124,0,0,1-2.687,1.265,15.325,15.325,0,0,0-4.936-.81h-3.166A14.811,14.811,0,0,0,116,407.163a2.084,2.084,0,0,1-2.111,2.056h0Zm32.715-38.754a14.252,14.252,0,1,0-14.247,13.878A14.081,14.081,0,0,0,146.608,370.465Zm-4.222,0a10.028,10.028,0,1,1-10.025-9.765A9.909,9.909,0,0,1,142.386,370.465Zm9.245,23.281a1.766,1.766,0,0,1,.648.806l0.475,1.3h2.086a2.272,2.272,0,0,1,1.686.716,2.38,2.38,0,0,1,.7,1.727v8.549a2.38,2.38,0,0,1-.7,1.727,2.272,2.272,0,0,1-1.686.716H141.725a2.272,2.272,0,0,1-1.686-.716,2.384,2.384,0,0,1-.7-1.727v-8.549a2.384,2.384,0,0,1,.7-1.727,2.272,2.272,0,0,1,1.686-.716h2.087l0.475-1.3a1.764,1.764,0,0,1,.647-0.806,1.633,1.633,0,0,1,.964-0.339h4.769A1.631,1.631,0,0,1,151.631,393.746Zm-6.3,5.8a4.334,4.334,0,0,0,0,6.039,4.09,4.09,0,0,0,5.9,0,4.334,4.334,0,0,0,0-6.039A4.09,4.09,0,0,0,145.335,399.548Zm2.948,5.767a2.553,2.553,0,0,1-1.9-.806,2.788,2.788,0,0,1,0-3.883,2.63,2.63,0,0,1,3.791,0,2.788,2.788,0,0,1,0,3.883A2.552,2.552,0,0,1,148.283,405.315Z" transform="translate(-111.781 -356.594)"/>
</svg>
