<?xml version="1.0" encoding="utf-8"?>
<!-- Generator: Adobe Illustrator 25.3.0, SVG Export Plug-In . SVG Version: 6.00 Build 0)  -->
<svg version="1.1" id="Layer_1" xmlns="http://www.w3.org/2000/svg" xmlns:xlink="http://www.w3.org/1999/xlink" x="0px" y="0px"
	 viewBox="0 0 30 30" style="enable-background:new 0 0 30 30;" xml:space="preserve">
<style type="text/css">
	.st0{fill-rule:evenodd;clip-rule:evenodd;fill:#00539E;}
</style>
<path id="contactPersonName" class="st0" d="M24.4,28.4c-0.6,0-1.1-0.5-1.1-1c0,0,0,0,0,0c0-3.1-1.9-5.8-4.8-6.9
	c-0.1,0-0.2,0-0.2-0.1c-0.8-0.3-1.6-0.4-2.5-0.4h-1.6c-0.7,0-1.4,0.1-2.1,0.3c-0.1,0-0.2,0.1-0.3,0.1c-3.1,1-5.2,3.9-5.2,7.1
	c0,0.6-0.5,1.1-1.1,1.1c-0.6,0-1.1-0.5-1.1-1.1c0-5,3.9-9.2,9-9.6c0.1,0,0.3,0,0.4,0s0.3,0,0.4,0h1.7c0.1,0,0.2,0,0.3,0
	c0.2,0,0.4,0,0.5,0c0.2,0,0.4,0,0.6,0.1l0.2,0c0.3,0,0.5,0.1,0.7,0.2l0,0c4.2,1,7.2,4.8,7.3,9.2C25.5,27.9,25,28.4,24.4,28.4
	C24.4,28.4,24.4,28.4,24.4,28.4z M14.9,15.7c-3.9-0.1-7.1-3.3-7-7.2c0.1-3.9,3.3-7.1,7.2-7c3.9,0,7,3.2,7,7.1
	C22.1,12.6,18.9,15.8,14.9,15.7z M14.9,3.6c-2.8,0-5,2.3-4.9,5.1s2.3,5,5.1,4.9c2.7,0,4.9-2.3,4.9-5C20,5.8,17.7,3.6,14.9,3.6z"/>
</svg>
