<svg id="Layer_1" data-name="Layer 1" xmlns="http://www.w3.org/2000/svg" viewBox="0 0 20 20"><defs><style>.cls-1,.cls-2,.cls-3{fill:none;stroke:#02539f;stroke-miterlimit:10;}.cls-2{stroke-width:0.87px;}.cls-3{stroke-width:0.94px;}</style></defs><path class="cls-1" d="M5.6,11.12s0-.14.08-.19A4.84,4.84,0,0,1,9.22,9.27c1,0,2.06,0,3.1,0a4.93,4.93,0,0,1,4.61,4,6,6,0,0,1,.1,1c0,1.22,0,2.43,0,3.65a.28.28,0,0,1-.2.3,13,13,0,0,1-3.17.92,19.42,19.42,0,0,1-4.24.19,14,14,0,0,1-4-.77,8.33,8.33,0,0,1-.81-.36A.26.26,0,0,1,4.44,18c0-.36,0-.72,0-1.11"/><path class="cls-2" d="M10.72,1.13A3.34,3.34,0,1,1,7.39,4.46,3.34,3.34,0,0,1,10.72,1.13Z"/><path class="cls-3" d="M1.42,8.67a2.19,2.19,0,0,1,.65-1.6,6.4,6.4,0,0,1,.81-.67.66.66,0,0,1,1,.22q.54.9,1,1.83a.88.88,0,0,1-.24,1.13l-.39.27a.68.68,0,0,0-.22.9c.39.73.8,1.45,1.23,2.15a.56.56,0,0,0,.87.16l.35-.26a.64.64,0,0,1,1,.19c.39.62.75,1.26,1.1,1.9a.84.84,0,0,1-.15,1,3.26,3.26,0,0,1-1.35.79,1.86,1.86,0,0,1-1.56-.41,5.83,5.83,0,0,1-1.24-1.33,22.69,22.69,0,0,1-2.52-4.56A4.57,4.57,0,0,1,1.42,8.67Z"/></svg>