<?xml version="1.0" encoding="utf-8"?>
<!-- Generator: Adobe Illustrator 25.3.0, SVG Export Plug-In . SVG Version: 6.00 Build 0)  -->
<svg version="1.1" id="copy" xmlns="http://www.w3.org/2000/svg" xmlns:xlink="http://www.w3.org/1999/xlink" x="0px" y="0px"
	 viewBox="0 0 24 24" style="enable-background:new 0 0 24 24;" xml:space="preserve">
<style type="text/css">
	.st0{fill:#0254A0;}
</style>
<g>
	<path class="st0" d="M19.7,8.2h-3.8V3.9c0-1.9-1.5-3.4-3.4-3.4H3.9C2,0.5,0.5,2,0.5,3.9v8.5c0,1.9,1.5,3.4,3.4,3.4h4.2v3.8
		c0,2.1,1.7,3.8,3.8,3.8h7.7c2.1,0,3.8-1.7,3.8-3.8V12C23.5,9.9,21.8,8.2,19.7,8.2z M8.2,12v1.3H3.9c-0.5,0-0.9-0.4-0.9-0.9l0,0V3.9
		c0-0.5,0.4-0.9,0.9-0.9l0,0h8.5c0.5,0,0.9,0.4,0.9,0.9l0,0v4.2H12C9.9,8.2,8.2,9.9,8.2,12z"/>
</g>
<g>
	<path class="st0" d="M5.1,3.7v3.5H4.2V3.7H5.1z"/>
	<path class="st0" d="M6.3,7C6.1,7,5.9,6.8,5.8,6.7C5.7,6.5,5.6,6.3,5.6,6.1h0.9c0,0.1,0.1,0.2,0.1,0.3c0.1,0.1,0.2,0.1,0.3,0.1
		c0.1,0,0.2,0,0.3-0.1c0.1-0.1,0.1-0.1,0.1-0.2c0-0.1,0-0.2-0.1-0.2C7.2,5.9,7.1,5.8,7,5.8c-0.1,0-0.2-0.1-0.4-0.1
		C6.4,5.6,6.3,5.5,6.1,5.5C6,5.4,5.8,5.3,5.7,5.2C5.6,5,5.6,4.9,5.6,4.6c0-0.3,0.1-0.6,0.3-0.8s0.5-0.3,0.9-0.3
		c0.4,0,0.7,0.1,0.9,0.3s0.4,0.4,0.4,0.8H7.2c0-0.1,0-0.2-0.1-0.3C7,4.3,6.9,4.3,6.8,4.3c-0.1,0-0.2,0-0.2,0.1S6.5,4.5,6.5,4.6
		c0,0.1,0.1,0.2,0.2,0.3C6.7,4.9,6.9,5,7.1,5.1c0.2,0.1,0.4,0.1,0.5,0.2C7.8,5.4,7.9,5.5,8,5.6c0.1,0.1,0.2,0.3,0.2,0.5
		c0,0.2,0,0.4-0.2,0.5C7.9,6.8,7.8,6.9,7.6,7C7.4,7.1,7.2,7.2,6.9,7.2C6.7,7.2,6.5,7.1,6.3,7z"/>
	<path class="st0" d="M9.5,6.9C9.2,6.8,9,6.6,8.8,6.3C8.6,6,8.6,5.7,8.6,5.4c0-0.3,0.1-0.6,0.2-0.9C9,4.2,9.2,4,9.5,3.8
		c0.3-0.2,0.6-0.2,0.9-0.2c0.3,0,0.6,0.1,0.9,0.2c0.3,0.2,0.5,0.4,0.6,0.6C12,4.7,12.1,5,12.1,5.4c0,0.3-0.1,0.6-0.2,0.9
		s-0.4,0.5-0.6,0.6c-0.3,0.2-0.6,0.2-0.9,0.2C10,7.2,9.7,7.1,9.5,6.9z M11,6.1c0.2-0.2,0.2-0.4,0.2-0.7c0-0.3-0.1-0.5-0.2-0.7
		c-0.2-0.2-0.4-0.3-0.7-0.3c-0.3,0-0.5,0.1-0.7,0.3C9.5,4.8,9.4,5.1,9.4,5.4c0,0.3,0.1,0.5,0.2,0.7c0.2,0.2,0.4,0.3,0.7,0.3
		C10.6,6.4,10.8,6.3,11,6.1z"/>
</g>
</svg>
