<svg id="Layer_1" data-name="Layer 1" xmlns="http://www.w3.org/2000/svg" viewBox="0 0 20 20"><defs><style>.cls-1{fill:#02539f;stroke:#02539f;stroke-miterlimit:10;stroke-width:0.75px;}</style></defs><path class="cls-1" d="M19.73,9.4a1.61,1.61,0,0,1-.56.84,2.72,2.72,0,0,1-1,.34L11.78,12v.91c0,.15,0,.3,0,.46,0,.34-.16.49-.51.49H8.76c-.38,0-.53-.15-.53-.53s0-.74,0-1.1V12l-1.74-.4L1.34,10.46A1.32,1.32,0,0,1,.28,9.13c0-.92,0-1.83,0-2.74A1.31,1.31,0,0,1,1.63,5H18.27a1.34,1.34,0,0,1,1.2.55,4,4,0,0,1,.26.55Zm-7.94,1.69.2,0,6.36-1.42c.39-.09.49-.2.49-.61V6.47c0-.44-.13-.57-.58-.57H1.74c-.44,0-.58.13-.58.57V9c0,.41.1.52.49.61l5.53,1.24,1.05.23c0-.13,0-.23,0-.33,0-.29.16-.45.41-.45h2.72a.38.38,0,0,1,.39.36C11.77,10.81,11.78,10.94,11.79,11.09ZM9.13,13h1.74V11.21H9.13Z"/><path class="cls-1" d="M10,18.71H2.16A1.28,1.28,0,0,1,.86,18a1.64,1.64,0,0,1-.14-.69c0-1.84,0-3.68,0-5.51,0-.35.09-.5.34-.55a.41.41,0,0,1,.54.35.89.89,0,0,1,0,.23v5.43c0,.46.14.6.6.6H17.8c.46,0,.6-.14.6-.6V11.72c0-.31.1-.46.36-.51a.42.42,0,0,1,.51.35,2,2,0,0,1,0,.25v5.43a1.38,1.38,0,0,1-.52,1.2,1.24,1.24,0,0,1-.73.27H10Z"/><path class="cls-1" d="M13.53,3.41a2.62,2.62,0,0,1,0,.28.4.4,0,0,1-.43.43.41.41,0,0,1-.44-.42c0-.19,0-.38,0-.56a.35.35,0,0,0-.31-.32l-.27,0H8c-.46,0-.6.14-.6.59,0,.11,0,.22,0,.33a.41.41,0,0,1-.44.4.4.4,0,0,1-.43-.41,2,2,0,0,1,.17-1.14,1.18,1.18,0,0,1,1-.64c1.55,0,3.1,0,4.65,0a1.28,1.28,0,0,1,1.21,1.2v.29Z"/></svg>