<svg xmlns="http://www.w3.org/2000/svg" width="24" height="19.862" viewBox="0 0 29 24">
  <defs>
    <style>
      .cls-1 {
        fill: #006ed7;
        fill-rule: evenodd;
      }
    </style>
  </defs>
  <path id="course" class="cls-1" d="M1101.99,473.846c0,0.911-.72,1.29-1.89,1.012a26.942,26.942,0,0,0-7.4-.556,18.249,18.249,0,0,0-2.69.31,8.81,8.81,0,0,1,4.17-2.023,29.719,29.719,0,0,1,3.65-.4,2.382,2.382,0,0,0,2.34-2.454c0.04-3.82.01-7.642,0.02-11.463,0-.244-0.2-0.65.17-0.72a1.259,1.259,0,0,1,1.4.413,1.24,1.24,0,0,1,.24.721C1101.99,463.737,1102,468.792,1101.99,473.846Zm-4.79-3.084a13.471,13.471,0,0,0-7.47,2.064c-0.48.321-.92,0.7-1.45,1.107,0-5.124,0-10.158-.01-15.191a1.859,1.859,0,0,1,.6-1.2,9.7,9.7,0,0,1,4.63-2.834,24.813,24.813,0,0,1,3.84-.569,1.163,1.163,0,0,1,1.29,1.335v13.953A1.218,1.218,0,0,1,1097.2,470.762Zm-9.78-14.009a2.881,2.881,0,1,1,3.05-2.876A2.974,2.974,0,0,1,1087.42,456.753Zm1.22-3.046-1.55-1.2c-0.1-.094-0.36-0.133-0.36,0,0,1.268-.03,2.084,0,2.736-0.01-.066.11,0.07,0.18,0.07a0.271,0.271,0,0,0,.18-0.07l1.55-1.2A0.229,0.229,0,0,0,1088.64,453.707Zm-2.29,4.136a1.675,1.675,0,0,1,.38,1.036q-0.015,7.339-.01,14.68V474a11.644,11.644,0,0,0-6.84-3.1,12.35,12.35,0,0,0-2.1-.154,1.185,1.185,0,0,1-1.41-1.341V455.456c0-1.046.57-1.273,1.6-1.246a14.155,14.155,0,0,1,4.02.647A8.621,8.621,0,0,1,1086.35,457.843Zm-8.37,14.408a11.583,11.583,0,0,1,6.4,1.78,7.728,7.728,0,0,1,.78.661c-0.96-.128-1.74-0.282-2.53-0.338a30.635,30.635,0,0,0-4.22,0,40.692,40.692,0,0,0-4.34.635,1.085,1.085,0,0,1-1.06-1.113c-0.01-1.334,0-2.669,0-4v-11.1a1.149,1.149,0,0,1,1.28-1.261c0.49-.027.54,0.156,0.54,0.547-0.02,3.72.05,7.442-.04,11.16A2.875,2.875,0,0,0,1077.98,472.251Z" transform="translate(-1073 -451)"/>
</svg>
