<svg xmlns="http://www.w3.org/2000/svg" width="20" height="20" viewBox="0 0 20 20">
  <defs>
    <style>
      .cls-1 {
        fill: #0073e0;
        fill-rule: evenodd;
      }
    </style>
  </defs>
  <path id="crate" class="cls-1" d="M107.353,304.459a2.4,2.4,0,0,1-.709,1.7,2.426,2.426,0,0,1-1.711.7H90.409a2.431,2.431,0,0,1-1.712-.7,2.4,2.4,0,0,1-.709-1.7v-5.613a2.382,2.382,0,0,1,.63-1.6,2.377,2.377,0,0,1-.63-1.6v-5.612a2.4,2.4,0,0,1,.709-1.7,2.431,2.431,0,0,1,1.712-.705h14.524a2.426,2.426,0,0,1,1.711.705,2.4,2.4,0,0,1,.709,1.7v5.612a2.378,2.378,0,0,1-.629,1.6,2.382,2.382,0,0,1,.629,1.6v5.613Zm-1.613-14.432a0.8,0.8,0,0,0-.237-0.567,0.807,0.807,0,0,0-.57-0.235H90.409a0.807,0.807,0,0,0-.571.235,0.8,0.8,0,0,0-.236.567v5.612a0.8,0.8,0,0,0,.236.567,0.811,0.811,0,0,0,.571.235h14.524a0.811,0.811,0,0,0,.57-0.235,0.8,0.8,0,0,0,.237-0.567v-5.612Zm0,8.819a0.8,0.8,0,0,0-.237-0.567,0.811,0.811,0,0,0-.57-0.235H90.409a0.811,0.811,0,0,0-.571.235,0.8,0.8,0,0,0-.236.567v5.613a0.8,0.8,0,0,0,.236.566,0.807,0.807,0,0,0,.571.235h14.524a0.807,0.807,0,0,0,.57-0.235,0.8,0.8,0,0,0,.237-0.566v-5.613Zm-7.262,4.009H96.864a2.431,2.431,0,0,1-1.712-.705,2.4,2.4,0,0,1-.709-1.7,0.8,0.8,0,0,1,.237-0.567,0.81,0.81,0,0,1,1.141,0,0.8,0.8,0,0,1,.236.567,0.8,0.8,0,0,0,.806.8h1.614a0.811,0.811,0,0,0,.571-0.234,0.8,0.8,0,0,0,.236-0.567,0.8,0.8,0,0,1,.806-0.8,0.8,0.8,0,0,1,.807.8,2.4,2.4,0,0,1-.709,1.7A2.429,2.429,0,0,1,98.478,302.855Zm0-8.82H96.864a2.43,2.43,0,0,1-1.712-.7,2.4,2.4,0,0,1-.709-1.7,0.8,0.8,0,0,1,.237-0.567,0.81,0.81,0,0,1,1.141,0,0.8,0.8,0,0,1,.236.567,0.8,0.8,0,0,0,.236.567,0.812,0.812,0,0,0,.571.235h1.614a0.812,0.812,0,0,0,.571-0.235,0.8,0.8,0,0,0,.236-0.567,0.8,0.8,0,0,1,.236-0.567,0.81,0.81,0,0,1,1.141,0,0.8,0.8,0,0,1,.236.567,2.4,2.4,0,0,1-.709,1.7A2.428,2.428,0,0,1,98.478,294.035Z" transform="translate(-87.672 -287.25)"/>
</svg>
