<svg id="createScheme" xmlns="http://www.w3.org/2000/svg" width="137.16" height="19" viewBox="0 0 137.16 19">
  <defs>
    <style>
      .cls-1 {
        fill: #0083ff;
      }

      .cls-1, .cls-2 {
        fill-rule: evenodd;
      }

      .cls-2 {
        fill: #0073df;
      }
    </style>
  </defs>
  <path id="Create_Scheme" data-name="Create Scheme" class="cls-1" d="M1535.85,193.5a5.264,5.264,0,0,0,.66,2.643,4.783,4.783,0,0,0,1.81,1.816,5.4,5.4,0,0,0,5.49-.2,4.458,4.458,0,0,0,1.74-2.391h-2.29a2.458,2.458,0,0,1-.96,1.084,2.752,2.752,0,0,1-1.43.367,2.9,2.9,0,0,1-1.54-.41,2.761,2.761,0,0,1-1.05-1.163,4.213,4.213,0,0,1,0-3.5,2.771,2.771,0,0,1,1.05-1.156,2.9,2.9,0,0,1,1.54-.409,2.787,2.787,0,0,1,1.43.359,2.412,2.412,0,0,1,.96,1.077h2.29a4.463,4.463,0,0,0-1.75-2.384,4.982,4.982,0,0,0-2.91-.862,5.089,5.089,0,0,0-2.57.653,4.776,4.776,0,0,0-1.81,1.824,5.3,5.3,0,0,0-.66,2.65h0Zm13.38-1.695v-1.235h-1.99v7.957h1.99v-3.964a2.056,2.056,0,0,1,.48-1.551,2,2,0,0,1,1.41-.445h0.53V190.45a2.748,2.748,0,0,0-1.41.359,2.811,2.811,0,0,0-1.01.991h0Zm11.07,2.571a4.311,4.311,0,0,0-.49-2.061,3.46,3.46,0,0,0-1.38-1.386,4.447,4.447,0,0,0-4.08.015,3.518,3.518,0,0,0-1.39,1.436,4.561,4.561,0,0,0-.5,2.168,4.426,4.426,0,0,0,.51,2.155,3.527,3.527,0,0,0,1.4,1.443,4.118,4.118,0,0,0,2.04.51,3.817,3.817,0,0,0,2.38-.74,3.666,3.666,0,0,0,1.31-1.888h-2.15a1.624,1.624,0,0,1-1.58.962,1.825,1.825,0,0,1-1.29-.488,2.006,2.006,0,0,1-.6-1.35h5.76a4.557,4.557,0,0,0,.06-0.776h0Zm-5.81-.574a2.054,2.054,0,0,1,.62-1.257,1.8,1.8,0,0,1,1.25-.452,1.949,1.949,0,0,1,1.32.466,1.571,1.571,0,0,1,.55,1.243h-3.74Zm6.73,0.718a4.688,4.688,0,0,0,.48,2.161,3.583,3.583,0,0,0,1.29,1.458,3.34,3.34,0,0,0,1.81.517,3.222,3.222,0,0,0,1.56-.366,2.929,2.929,0,0,0,1.06-.927v1.164h2.01v-7.957h-2.01V191.7a3.1,3.1,0,0,0-1.06-.905,3.168,3.168,0,0,0-1.54-.359,3.45,3.45,0,0,0-1.83.5,3.489,3.489,0,0,0-1.29,1.436,4.611,4.611,0,0,0-.48,2.14h0Zm6.2,0.028a2.593,2.593,0,0,1-.28,1.257,2.038,2.038,0,0,1-1.81,1.084,1.949,1.949,0,0,1-1.02-.287,2.115,2.115,0,0,1-.76-0.826,2.537,2.537,0,0,1-.3-1.256,2.463,2.463,0,0,1,.3-1.243,1.991,1.991,0,0,1,1.78-1.069,2.038,2.038,0,0,1,1.81,1.084,2.592,2.592,0,0,1,.28,1.256h0Zm8.02-2.326v-1.652h-1.76V188.6h-2.01v1.967h-0.94v1.652h0.94v3.834a2.206,2.206,0,0,0,2.52,2.471h1.25v-1.695h-0.92a0.936,0.936,0,0,1-.65-0.18,0.755,0.755,0,0,1-.19-0.581v-3.849h1.76Zm8.75,2.154a4.311,4.311,0,0,0-.49-2.061,3.46,3.46,0,0,0-1.38-1.386,4.447,4.447,0,0,0-4.08.015,3.518,3.518,0,0,0-1.39,1.436,4.561,4.561,0,0,0-.5,2.168,4.426,4.426,0,0,0,.51,2.155,3.527,3.527,0,0,0,1.4,1.443,4.118,4.118,0,0,0,2.04.51,3.817,3.817,0,0,0,2.38-.74,3.666,3.666,0,0,0,1.31-1.888h-2.15a1.624,1.624,0,0,1-1.58.962,1.825,1.825,0,0,1-1.29-.488,2.006,2.006,0,0,1-.6-1.35h5.76a4.557,4.557,0,0,0,.06-0.776h0Zm-5.81-.574a2.054,2.054,0,0,1,.62-1.257,1.8,1.8,0,0,1,1.25-.452,1.949,1.949,0,0,1,1.32.466,1.571,1.571,0,0,1,.55,1.243h-3.74Zm14.04,4.825a4.079,4.079,0,0,0,1.89-.409,2.9,2.9,0,0,0,1.21-1.1,2.806,2.806,0,0,0,.41-1.493,2.372,2.372,0,0,0-.44-1.508,2.79,2.79,0,0,0-1.05-.862,11.381,11.381,0,0,0-1.58-.575c-0.47-.143-0.84-0.27-1.1-0.38a2.092,2.092,0,0,1-.66-0.431,0.93,0.93,0,0,1-.26-0.668,1.1,1.1,0,0,1,.35-0.876,1.363,1.363,0,0,1,.93-0.3,1.633,1.633,0,0,1,1.08.337,1.153,1.153,0,0,1,.43.855h2.19a2.815,2.815,0,0,0-1.06-2.1,3.921,3.921,0,0,0-2.5-.754,4.46,4.46,0,0,0-1.82.352,2.771,2.771,0,0,0-1.23,1.012,2.68,2.68,0,0,0-.44,1.551,2.425,2.425,0,0,0,.43,1.515,2.711,2.711,0,0,0,1.04.847,11.449,11.449,0,0,0,1.57.568c0.47,0.134.84,0.256,1.12,0.366a1.874,1.874,0,0,1,.67.452,1.029,1.029,0,0,1,.27.733,1.089,1.089,0,0,1-.4.883,1.625,1.625,0,0,1-1.09.337,1.531,1.531,0,0,1-1.08-.359,1.4,1.4,0,0,1-.43-0.976h-2.13a2.755,2.755,0,0,0,.49,1.594,3.161,3.161,0,0,0,1.32,1.034,4.672,4.672,0,0,0,1.87.359h0Zm4.71-4.079a4.52,4.52,0,0,0,.49,2.162,3.69,3.69,0,0,0,1.38,1.436,3.989,3.989,0,0,0,2.02.51,3.783,3.783,0,0,0,2.42-.761,3.666,3.666,0,0,0,1.3-2.054h-2.15a1.511,1.511,0,0,1-1.58,1.091,1.63,1.63,0,0,1-1.35-.624,3.37,3.37,0,0,1,0-3.533,1.629,1.629,0,0,1,1.35-.625,1.65,1.65,0,0,1,1,.294,1.633,1.633,0,0,1,.58.812h2.15a3.613,3.613,0,0,0-1.29-2.075,3.866,3.866,0,0,0-2.43-.74,3.989,3.989,0,0,0-2.02.51,3.684,3.684,0,0,0-1.38,1.436,4.518,4.518,0,0,0-.49,2.161h0Zm13.49-4.093a3.373,3.373,0,0,0-1.42.3,2.525,2.525,0,0,0-1.02.811v-3.662h-1.99v10.628h1.99v-4.395a2.091,2.091,0,0,1,.47-1.458,1.7,1.7,0,0,1,1.3-.51,1.654,1.654,0,0,1,1.28.51,2.044,2.044,0,0,1,.47,1.458v4.395h1.99v-4.668a4.034,4.034,0,0,0-.39-1.845,2.686,2.686,0,0,0-1.09-1.164,3.147,3.147,0,0,0-1.59-.4h0Zm12.27,3.921a4.2,4.2,0,0,0-.49-2.061,3.34,3.34,0,0,0-1.38-1.386,4.427,4.427,0,0,0-4.07.015,3.456,3.456,0,0,0-1.39,1.436,4.447,4.447,0,0,0-.5,2.168,4.536,4.536,0,0,0,.5,2.155,3.614,3.614,0,0,0,1.41,1.443,4.065,4.065,0,0,0,2.04.51,3.817,3.817,0,0,0,2.38-.74,3.666,3.666,0,0,0,1.31-1.888h-2.15a1.624,1.624,0,0,1-1.58.962,1.825,1.825,0,0,1-1.29-.488,1.962,1.962,0,0,1-.6-1.35h5.76a4.62,4.62,0,0,0,.05-0.776h0Zm-5.8-.574a2,2,0,0,1,.62-1.257,1.8,1.8,0,0,1,1.25-.452,1.949,1.949,0,0,1,1.32.466,1.6,1.6,0,0,1,.55,1.243h-3.74Zm17.02-3.347a3.159,3.159,0,0,0-1.58.417,2.891,2.891,0,0,0-1.12,1.106,2.736,2.736,0,0,0-1.12-1.128,3.378,3.378,0,0,0-1.65-.4,3.054,3.054,0,0,0-1.33.288,2.7,2.7,0,0,0-.99.79v-0.963h-1.99v7.957h1.99v-4.395a1.972,1.972,0,0,1,.48-1.429,1.722,1.722,0,0,1,1.3-.5,1.676,1.676,0,0,1,1.28.5,2.013,2.013,0,0,1,.47,1.429v4.395h1.99v-4.395a1.972,1.972,0,0,1,.48-1.429,1.9,1.9,0,0,1,2.56,0,2.013,2.013,0,0,1,.47,1.429v4.395h1.99v-4.668a3.377,3.377,0,0,0-.89-2.506,3.141,3.141,0,0,0-2.34-.9h0Zm12.43,3.921a4.2,4.2,0,0,0-.49-2.061,3.34,3.34,0,0,0-1.38-1.386,4.427,4.427,0,0,0-4.07.015,3.456,3.456,0,0,0-1.39,1.436,4.447,4.447,0,0,0-.5,2.168,4.536,4.536,0,0,0,.5,2.155,3.614,3.614,0,0,0,1.41,1.443,4.065,4.065,0,0,0,2.04.51,3.817,3.817,0,0,0,2.38-.74,3.592,3.592,0,0,0,1.3-1.888h-2.14a1.633,1.633,0,0,1-1.58.962,1.85,1.85,0,0,1-1.3-.488,1.954,1.954,0,0,1-.59-1.35h5.76a5.988,5.988,0,0,0,.05-0.776h0Zm-5.8-.574a2,2,0,0,1,.62-1.257,1.8,1.8,0,0,1,1.24-.452,1.957,1.957,0,0,1,1.33.466,1.6,1.6,0,0,1,.55,1.243h-3.74Z" transform="translate(-1535.84 -185)"/>
  <path class="cls-2" d="M1662.45,193.28a0.554,0.554,0,1,0-.78-0.038A0.551,0.551,0,0,0,1662.45,193.28ZM1662.23,198a0.552,0.552,0,0,0-.04.787,0.555,0.555,0,1,0,.82-0.749A0.548,0.548,0,0,0,1662.23,198Zm10.59-12.835a0.561,0.561,0,0,0-.79,0l-1.62,1.621a1.734,1.734,0,0,0-.32-0.113l-5.04-1.245a1.67,1.67,0,0,0-1.58.44l-9,8.986a1.673,1.673,0,0,0,0,2.361l6.3,6.3a1.67,1.67,0,0,0,2.36,0l8.98-9a1.664,1.664,0,0,0,.44-1.586l-1.24-5.038a1.706,1.706,0,0,0-.12-0.315l1.63-1.621A0.57,0.57,0,0,0,1672.82,185.163Zm-11.86,6.469a1.668,1.668,0,1,1-.12,2.359A1.673,1.673,0,0,1,1660.96,191.632Zm2.76,8.015a1.668,1.668,0,1,1,.12-2.359A1.672,1.672,0,0,1,1663.72,199.647Zm2.21-3.675-7.11.446q-0.03,0-.06,0a0.557,0.557,0,0,1-.01-1.112l7.11-.445A0.557,0.557,0,0,1,1665.93,195.972Zm3.58-6.209a0.939,0.939,0,1,1-1.33-1.326,0.922,0.922,0,0,1,.66-0.274,0.962,0.962,0,0,1,.67.274h0A0.949,0.949,0,0,1,1669.51,189.763Z" transform="translate(-1535.84 -185)"/>
</svg>
