<svg id="CP" xmlns="http://www.w3.org/2000/svg" width="138.343" height="19" viewBox="0 0 138.343 19">
  <defs>
    <style>
      .cls-1 {
        fill: #0083ff;
        fill-rule: evenodd;
      }
    </style>
  </defs>
  <path id="Create_Product" data-name="Create Product" class="cls-1" d="M335.679,259.387a5.441,5.441,0,0,0,.7,2.76,5,5,0,0,0,1.9,1.9,5.746,5.746,0,0,0,5.79-.21,4.677,4.677,0,0,0,1.837-2.5h-2.415a2.543,2.543,0,0,1-1.012,1.133,2.927,2.927,0,0,1-1.508.382,3.1,3.1,0,0,1-1.627-.427,2.907,2.907,0,0,1-1.11-1.215,4.39,4.39,0,0,1,0-3.653,2.922,2.922,0,0,1,1.11-1.207,3.1,3.1,0,0,1,1.627-.428,2.983,2.983,0,0,1,1.508.375,2.512,2.512,0,0,1,1.012,1.125h2.415a4.71,4.71,0,0,0-1.845-2.49,5.326,5.326,0,0,0-3.075-.9,5.4,5.4,0,0,0-2.707.683,4.981,4.981,0,0,0-1.9,1.905,5.485,5.485,0,0,0-.7,2.767h0Zm14.115-1.77v-1.29h-2.1v8.31h2.1V260.5a1.752,1.752,0,0,1,2-2.085h0.555v-2.2a2.891,2.891,0,0,0-2.55,1.41h0Zm11.67,2.685a4.378,4.378,0,0,0-.517-2.152,3.6,3.6,0,0,0-1.455-1.448,4.721,4.721,0,0,0-4.3.015,3.675,3.675,0,0,0-1.47,1.5,4.711,4.711,0,0,0-.525,2.265,4.614,4.614,0,0,0,.533,2.25,3.743,3.743,0,0,0,1.485,1.508,4.333,4.333,0,0,0,2.152.532,4.028,4.028,0,0,0,2.5-.772,3.783,3.783,0,0,0,1.38-1.973h-2.265a1.713,1.713,0,0,1-1.665,1,1.938,1.938,0,0,1-1.365-.51,2.064,2.064,0,0,1-.63-1.41H361.4a4.956,4.956,0,0,0,.06-0.81h0Zm-6.12-.6A2.079,2.079,0,0,1,356,258.39a1.905,1.905,0,0,1,1.312-.473,2.073,2.073,0,0,1,1.395.488,1.664,1.664,0,0,1,.585,1.3h-3.945Zm7.1,0.75a4.889,4.889,0,0,0,.5,2.258,3.778,3.778,0,0,0,1.365,1.522,3.53,3.53,0,0,0,1.912.54,3.421,3.421,0,0,0,1.643-.382,3.123,3.123,0,0,0,1.117-.968v1.215h2.115v-8.31h-2.115v1.185a3.323,3.323,0,0,0-1.117-.945,3.4,3.4,0,0,0-1.628-.375,3.641,3.641,0,0,0-1.927.525,3.7,3.7,0,0,0-1.365,1.5,4.813,4.813,0,0,0-.5,2.235h0Zm6.54,0.03a2.7,2.7,0,0,1-.3,1.313,2.115,2.115,0,0,1-.81.84,2.164,2.164,0,0,1-1.1.292,2.047,2.047,0,0,1-1.072-.3,2.206,2.206,0,0,1-.81-0.862,2.693,2.693,0,0,1-.308-1.313,2.609,2.609,0,0,1,.308-1.3,2.158,2.158,0,0,1,2.977-.825,2.115,2.115,0,0,1,.81.84,2.692,2.692,0,0,1,.3,1.312h0Zm8.46-2.43v-1.725h-1.86v-2.055h-2.115v2.055h-0.99v1.725h0.99v4q0,2.582,2.655,2.58h1.32v-1.77h-0.975a0.994,0.994,0,0,1-.682-0.187,0.794,0.794,0,0,1-.2-0.608v-4.02h1.86Zm9.225,2.25a4.378,4.378,0,0,0-.517-2.152,3.6,3.6,0,0,0-1.455-1.448,4.721,4.721,0,0,0-4.3.015,3.675,3.675,0,0,0-1.47,1.5,4.711,4.711,0,0,0-.525,2.265,4.614,4.614,0,0,0,.533,2.25,3.743,3.743,0,0,0,1.485,1.508,4.333,4.333,0,0,0,2.152.532,4.028,4.028,0,0,0,2.5-.772,3.783,3.783,0,0,0,1.38-1.973h-2.265a1.713,1.713,0,0,1-1.665,1,1.938,1.938,0,0,1-1.365-.51,2.064,2.064,0,0,1-.63-1.41H386.6a4.956,4.956,0,0,0,.06-0.81h0Zm-6.12-.6a2.079,2.079,0,0,1,.653-1.312,1.905,1.905,0,0,1,1.312-.473,2.073,2.073,0,0,1,1.395.488,1.664,1.664,0,0,1,.585,1.3h-3.945Zm18.825-2.3a3.255,3.255,0,0,0-.427-1.665,2.939,2.939,0,0,0-1.283-1.155,4.672,4.672,0,0,0-2.07-.42h-3.855v10.47h2.1v-4.02h1.755a4.531,4.531,0,0,0,2.138-.45,2.914,2.914,0,0,0,1.245-1.185,3.254,3.254,0,0,0,.4-1.575h0Zm-3.87,1.515h-1.665v-3.045H395.5a1.437,1.437,0,0,1,1.71,1.53,1.466,1.466,0,0,1-.42,1.118,1.82,1.82,0,0,1-1.29.4h0Zm7.44-1.305v-1.29h-2.1v8.31h2.1V260.5a1.752,1.752,0,0,1,2-2.085h0.555v-2.2a2.891,2.891,0,0,0-2.55,1.41h0Zm7.635,7.155a4.538,4.538,0,0,0,2.2-.532,3.993,3.993,0,0,0,1.56-1.508,4.326,4.326,0,0,0,.577-2.25,4.426,4.426,0,0,0-.562-2.25,3.916,3.916,0,0,0-1.538-1.507,4.7,4.7,0,0,0-4.35,0,3.913,3.913,0,0,0-1.537,1.507,4.427,4.427,0,0,0-.563,2.25,4.512,4.512,0,0,0,.548,2.25,3.828,3.828,0,0,0,1.507,1.508,4.377,4.377,0,0,0,2.16.532h0Zm0-1.83a1.949,1.949,0,0,1-1.492-.637,2.579,2.579,0,0,1-.593-1.823,2.54,2.54,0,0,1,.608-1.822,2,2,0,0,1,1.507-.638,2.048,2.048,0,0,1,1.523.638,2.5,2.5,0,0,1,.622,1.822,2.8,2.8,0,0,1-.3,1.35,2.011,2.011,0,0,1-.8.833,2.186,2.186,0,0,1-1.073.277h0Zm5.325-2.49a4.889,4.889,0,0,0,.5,2.258,3.758,3.758,0,0,0,1.372,1.522,3.569,3.569,0,0,0,1.92.54,3.43,3.43,0,0,0,1.635-.375,2.83,2.83,0,0,0,1.095-.99v1.23h2.13v-11.1h-2.13v3.945a3.088,3.088,0,0,0-1.17-.937,3.53,3.53,0,0,0-1.545-.353,3.621,3.621,0,0,0-3.307,2.025,4.813,4.813,0,0,0-.5,2.235h0Zm6.54,0.03a2.7,2.7,0,0,1-.3,1.313,2.115,2.115,0,0,1-.81.84,2.164,2.164,0,0,1-1.1.292,2.047,2.047,0,0,1-1.072-.3,2.206,2.206,0,0,1-.81-0.862,2.693,2.693,0,0,1-.308-1.313,2.609,2.609,0,0,1,.308-1.3,2.158,2.158,0,0,1,2.977-.825,2.115,2.115,0,0,1,.81.84,2.692,2.692,0,0,1,.3,1.312h0Zm9.885-4.155V260.9a2.156,2.156,0,0,1-.5,1.523,1.772,1.772,0,0,1-1.365.532,1.753,1.753,0,0,1-1.35-.532,2.156,2.156,0,0,1-.495-1.523v-4.575h-2.1V261.2a4.014,4.014,0,0,0,.428,1.913,2.907,2.907,0,0,0,1.177,1.215,3.521,3.521,0,0,0,1.725.412,3.285,3.285,0,0,0,1.418-.307,2.772,2.772,0,0,0,1.057-.848v1.05h2.115v-8.31h-2.115Zm3.63,4.155a4.66,4.66,0,0,0,.525,2.258,3.753,3.753,0,0,0,1.455,1.5,4.21,4.21,0,0,0,2.13.532,4.017,4.017,0,0,0,2.55-.8,3.83,3.83,0,0,0,1.365-2.145h-2.265a1.592,1.592,0,0,1-1.665,1.14,1.731,1.731,0,0,1-1.425-.652,3.5,3.5,0,0,1,0-3.69,1.732,1.732,0,0,1,1.425-.653,1.766,1.766,0,0,1,1.058.308,1.654,1.654,0,0,1,.607.847h2.265a3.756,3.756,0,0,0-1.357-2.167,4.1,4.1,0,0,0-2.558-.773,4.21,4.21,0,0,0-2.13.533,3.753,3.753,0,0,0-1.455,1.5,4.662,4.662,0,0,0-.525,2.257h0Zm13.86-2.43v-1.725h-1.86v-2.055h-2.115v2.055h-0.99v1.725h0.99v4q0,2.582,2.655,2.58h1.32v-1.77h-0.975a0.994,0.994,0,0,1-.682-0.187,0.794,0.794,0,0,1-.2-0.608v-4.02h1.86Z" transform="translate(-335.688 -250)"/>
  <path id="Shape_437_1" data-name="Shape 437 1" class="cls-1" d="M457.015,264.439c-0.071-.04.16-0.086,0.232-0.076,0.217,0.031.219-.076,0.219-0.24,0-3.252,0-6.5-.008-9.756a0.679,0.679,0,0,1,.44-0.686q3.862-1.793,7.717-3.6a0.759,0.759,0,0,1,.724.01q3.613,1.808,7.237,3.6a0.694,0.694,0,0,1,.425.682q0,1.848,0,3.7,0,2.907,0,5.813a1.673,1.673,0,0,1-.049.576c0.269-.15-8.645,4.54-8.645,4.54S461.663,267.043,457.015,264.439Zm2.971-10.05q3.128-1.461,6.257-2.919a0.283,0.283,0,0,1,.284.006c0.491,0.252.987,0.492,1.518,0.754-0.449.232-.861,0.447-1.275,0.659q-2.471,1.261-4.94,2.525a0.331,0.331,0,0,1-.358,0c-0.552-.307-1.111-0.6-1.674-0.9A0.292,0.292,0,0,1,459.986,254.389Zm5.156,13.046c0,0.15-.015.2-0.177,0.109q-3.087-1.669-6.179-3.328a0.23,0.23,0,0,1-.154-0.23q0.007-4.231,0-8.462c0-.021,0-0.041.006-0.095,0.648,0.349,1.269.687,1.894,1.018a0.185,0.185,0,0,1,.09.206c0,0.528.006,1.055,0,1.582a0.257,0.257,0,0,0,.183.276c0.385,0.168.765,0.346,1.143,0.529,0.133,0.064.159,0.034,0.157-.1,0-.533,0-1.067,0-1.609a0.739,0.739,0,0,1,.326.137c0.857,0.457,1.708.923,2.566,1.377a0.242,0.242,0,0,1,.147.253Q465.138,263.266,465.142,267.435Zm0.724-9.783a0.221,0.221,0,0,1-.232.028l-2.848-1.535,2.585-1.324q1.863-.954,3.726-1.908a0.294,0.294,0,0,1,.3,0c0.847,0.426,1.7.847,2.544,1.272,0.05,0.025.137,0.03,0.134,0.1a0.159,0.159,0,0,1-.126.089Z" transform="translate(-335.688 -250)"/>
</svg>
