<svg id="CreateDriver" xmlns="http://www.w3.org/2000/svg" width="113.75" height="25" viewBox="0 0 113.75 25">
  <defs>
    <style>
      .cls-1 {
        fill: #108bff;
        fill-rule: evenodd;
      }
    </style>
  </defs>
  <path id="Create_driver" data-name="Create driver" class="cls-1" d="M594.877,84.426a4.988,4.988,0,0,0,.638,2.526,4.575,4.575,0,0,0,1.744,1.737,4.947,4.947,0,0,0,2.478.625,4.9,4.9,0,0,0,2.822-.817,4.286,4.286,0,0,0,1.682-2.286H602.03a2.324,2.324,0,0,1-.927,1.037,2.676,2.676,0,0,1-1.379.35,2.838,2.838,0,0,1-1.49-.391,2.656,2.656,0,0,1-1.016-1.112,4.02,4.02,0,0,1,0-3.343,2.666,2.666,0,0,1,1.016-1.105,2.838,2.838,0,0,1,1.49-.391,2.719,2.719,0,0,1,1.379.343,2.284,2.284,0,0,1,.927,1.03h2.211a4.314,4.314,0,0,0-1.689-2.279,4.877,4.877,0,0,0-2.815-.824,4.949,4.949,0,0,0-2.478.625,4.563,4.563,0,0,0-1.744,1.744,5.027,5.027,0,0,0-.638,2.533h0Zm12.92-1.62V81.625h-1.922v7.606H607.8v-3.79a1.6,1.6,0,0,1,1.826-1.909h0.508V81.515a2.645,2.645,0,0,0-2.334,1.291h0Zm10.682,2.458a4.007,4.007,0,0,0-.474-1.97,3.289,3.289,0,0,0-1.332-1.325,4.319,4.319,0,0,0-3.933.014,3.351,3.351,0,0,0-1.346,1.373,4.311,4.311,0,0,0-.48,2.073,4.227,4.227,0,0,0,.487,2.06,3.43,3.43,0,0,0,1.359,1.38,3.965,3.965,0,0,0,1.97.487,3.685,3.685,0,0,0,2.293-.707,3.464,3.464,0,0,0,1.264-1.806h-2.074a1.569,1.569,0,0,1-1.524.92,1.776,1.776,0,0,1-1.249-.467A1.891,1.891,0,0,1,612.863,86h5.561a4.6,4.6,0,0,0,.055-0.741h0Zm-5.6-.549a1.9,1.9,0,0,1,.6-1.2,1.747,1.747,0,0,1,1.2-.432,1.9,1.9,0,0,1,1.276.446,1.524,1.524,0,0,1,.536,1.188h-3.611Zm6.494,0.686a4.47,4.47,0,0,0,.46,2.066,3.458,3.458,0,0,0,1.25,1.394,3.229,3.229,0,0,0,1.75.494,3.13,3.13,0,0,0,1.5-.35,2.862,2.862,0,0,0,1.022-.885v1.112h1.936V81.625h-1.936V82.71a3.025,3.025,0,0,0-1.022-.865,3.1,3.1,0,0,0-1.49-.343,3.325,3.325,0,0,0-1.764.481,3.372,3.372,0,0,0-1.25,1.373,4.4,4.4,0,0,0-.46,2.046h0Zm5.986,0.028a2.466,2.466,0,0,1-.274,1.2,1.931,1.931,0,0,1-.742.769,1.98,1.98,0,0,1-1,.268,1.884,1.884,0,0,1-.982-0.275,2.033,2.033,0,0,1-.741-0.789,2.461,2.461,0,0,1-.281-1.2,2.383,2.383,0,0,1,.281-1.188,1.969,1.969,0,0,1,.735-0.762,1.946,1.946,0,0,1,.988-0.261,1.98,1.98,0,0,1,1,.268,1.933,1.933,0,0,1,.742.769,2.467,2.467,0,0,1,.274,1.2h0ZM633.1,83.2V81.625h-1.7V79.744h-1.936v1.881h-0.906V83.2h0.906V86.87a2.118,2.118,0,0,0,2.43,2.362H633.1v-1.62h-0.892a0.911,0.911,0,0,1-.625-0.172,0.725,0.725,0,0,1-.185-0.556V83.2h1.7Zm8.444,2.06a4.007,4.007,0,0,0-.474-1.97,3.28,3.28,0,0,0-1.331-1.325,4.321,4.321,0,0,0-3.934.014,3.357,3.357,0,0,0-1.346,1.373,4.311,4.311,0,0,0-.48,2.073,4.227,4.227,0,0,0,.487,2.06,3.426,3.426,0,0,0,1.36,1.38,3.963,3.963,0,0,0,1.97.487,3.689,3.689,0,0,0,2.293-.707,3.468,3.468,0,0,0,1.263-1.806H639.28a1.569,1.569,0,0,1-1.524.92,1.779,1.779,0,0,1-1.25-.467A1.886,1.886,0,0,1,635.93,86h5.56a4.492,4.492,0,0,0,.055-0.741h0Zm-5.6-.549a1.9,1.9,0,0,1,.6-1.2,1.742,1.742,0,0,1,1.2-.432,1.9,1.9,0,0,1,1.277.446,1.523,1.523,0,0,1,.535,1.188h-3.611Zm9.749,0.686a4.47,4.47,0,0,0,.46,2.066,3.436,3.436,0,0,0,1.256,1.394,3.265,3.265,0,0,0,1.757.494,3.144,3.144,0,0,0,1.5-.343,2.6,2.6,0,0,0,1-.906v1.126h1.95V79.071h-1.95v3.611a2.82,2.82,0,0,0-1.071-.858,3.231,3.231,0,0,0-1.414-.323,3.315,3.315,0,0,0-3.027,1.854,4.4,4.4,0,0,0-.46,2.046h0Zm5.986,0.028a2.466,2.466,0,0,1-.275,1.2,1.935,1.935,0,0,1-.741.769,1.98,1.98,0,0,1-1,.268,1.881,1.881,0,0,1-.982-0.275,2.028,2.028,0,0,1-.742-0.789,2.473,2.473,0,0,1-.281-1.2,2.394,2.394,0,0,1,.281-1.188,1.978,1.978,0,0,1,2.726-.755,1.937,1.937,0,0,1,.741.769,2.467,2.467,0,0,1,.275,1.2h0Zm5.725-2.622V81.625h-1.922v7.606H657.4v-3.79a1.6,1.6,0,0,1,1.826-1.909h0.508V81.515a2.645,2.645,0,0,0-2.334,1.291h0Zm4.586-2.087a1.169,1.169,0,0,0,.844-0.323,1.126,1.126,0,0,0,0-1.606,1.265,1.265,0,0,0-1.688,0,1.126,1.126,0,0,0,0,1.606,1.169,1.169,0,0,0,.844.323h0Zm-0.975.906v7.606h1.922V81.625h-1.922Zm5.053,0h-2.06l2.8,7.606h2.334l2.815-7.606h-2.046l-1.922,5.835ZM680.1,85.263a4.007,4.007,0,0,0-.474-1.97,3.289,3.289,0,0,0-1.332-1.325,4.319,4.319,0,0,0-3.933.014,3.357,3.357,0,0,0-1.346,1.373,4.311,4.311,0,0,0-.48,2.073,4.227,4.227,0,0,0,.487,2.06,3.43,3.43,0,0,0,1.359,1.38,3.969,3.969,0,0,0,1.971.487,3.689,3.689,0,0,0,2.293-.707,3.468,3.468,0,0,0,1.263-1.806h-2.074a1.569,1.569,0,0,1-1.524.92,1.778,1.778,0,0,1-1.249-.467A1.891,1.891,0,0,1,674.483,86h5.561a4.6,4.6,0,0,0,.055-0.741h0Zm-5.6-.549a1.9,1.9,0,0,1,.6-1.2,1.747,1.747,0,0,1,1.2-.432,1.9,1.9,0,0,1,1.277.446,1.526,1.526,0,0,1,.535,1.188H674.5Zm8.911-1.908V81.625h-1.922v7.606h1.922v-3.79a1.6,1.6,0,0,1,1.826-1.909h0.508V81.515a2.645,2.645,0,0,0-2.334,1.291h0Z" transform="translate(-572 -73)"/>
  <path id="driver_1" data-name="driver 1" class="cls-1" d="M586.151,89.882l-0.053.043-0.064.019c-0.014,0-.027,0-0.04.008a6.977,6.977,0,0,1-3.017,6.923,5.98,5.98,0,0,1-7.057-.059,7,7,0,0,1-2.92-6.9l-0.059-.019-0.039-.015-0.035-.025a1.554,1.554,0,0,1-.717-2.123,6.41,6.41,0,0,1,.265-0.721c0.561-1.288,1.088-1.538,2.345-1.117l0.082,0.027,0.058,0.063a6.226,6.226,0,0,1,9.2,0l0.057-.061,0.079-.027c1.208-.415,1.716-0.212,2.265.9C587.163,88.156,587.281,88.962,586.151,89.882Zm-9.127,6.067a5.089,5.089,0,0,0,4.91.019c0.514-.26.372-0.48,0.019-0.752a3.541,3.541,0,0,0-2.374-.751,3.9,3.9,0,0,0-2.582.689C576.579,95.458,576.508,95.681,577.024,95.949Zm-2.8-4.464a6.129,6.129,0,0,0,.471,1.824c0.246,0.5.479,1.379,0.939,1.243s0.612-1.008.661-1.54a1.8,1.8,0,0,0-1.661-1.913C574.275,91.026,574.164,91.107,574.221,91.486Zm0.659-3.807a2.076,2.076,0,0,0-.414-1.109c-0.849-.275-1.02-0.17-1.422.752a5.591,5.591,0,0,0-.234.637,0.832,0.832,0,0,0,.4,1.253,1.381,1.381,0,0,0,.9-0.137l0.163-.06A1.192,1.192,0,0,0,574.88,87.678Zm8.553-.1V87.575c0.013-.092.03-0.187,0.048-0.282-2.395-2.634-5.564-2.639-7.964-.014,0.02,0.1.036,0.2,0.048,0.288a1.994,1.994,0,0,1-.392,1.621c0.572-.1,1.129-0.285,1.7-0.406a14.136,14.136,0,0,1,6.954.438h0A2.311,2.311,0,0,1,583.433,87.582Zm-0.749,5.939c0.1,0.322.272,0.616,0.4,0.929,0.143,0.354.282,0.373,0.517,0.063a5.82,5.82,0,0,0,1.156-3.051c-0.016-.138.155-0.405-0.215-0.431A1.887,1.887,0,0,0,582.684,93.522Zm3.2-6.376c-0.364-.74-0.5-0.857-1.354-0.571a2.2,2.2,0,0,0-.409,1.111,1.469,1.469,0,0,0,.647,1.458h0.049a2.531,2.531,0,0,1,.5.063,1.362,1.362,0,0,0,.479.042C586.392,88.745,586.519,88.438,585.882,87.145Zm-6.417-4.823a4.67,4.67,0,1,1,4.376-4.661A4.526,4.526,0,0,1,579.465,82.322Z" transform="translate(-572 -73)"/>
</svg>
