<svg id="creasteVariant" xmlns="http://www.w3.org/2000/svg" width="130.28" height="19.031" viewBox="0 0 130.28 19.031">
  <defs>
    <style>
      .cls-1 {
        fill: #0083ff;
        fill-rule: evenodd;
      }
    </style>
  </defs>
  <path id="Create_Variant" data-name="Create Variant" class="cls-1" d="M1545.72,201.575a5.116,5.116,0,0,0,.64,2.576,4.67,4.67,0,0,0,1.76,1.771,4.983,4.983,0,0,0,2.51.637,4.865,4.865,0,0,0,2.84-.833,4.342,4.342,0,0,0,1.7-2.331h-2.23a2.359,2.359,0,0,1-.93,1.057,2.72,2.72,0,0,1-1.4.357,2.842,2.842,0,0,1-1.5-.4,2.74,2.74,0,0,1-1.03-1.134,4.215,4.215,0,0,1,0-3.409,2.751,2.751,0,0,1,1.03-1.127,2.842,2.842,0,0,1,1.5-.4,2.766,2.766,0,0,1,1.4.35,2.315,2.315,0,0,1,.93,1.05h2.23a4.381,4.381,0,0,0-1.7-2.324,4.9,4.9,0,0,0-2.84-.84,4.983,4.983,0,0,0-2.51.637,4.654,4.654,0,0,0-1.76,1.778,5.155,5.155,0,0,0-.64,2.583h0Zm13.04-1.652v-1.2h-1.94v7.756h1.94v-3.864a2.011,2.011,0,0,1,.47-1.512,1.957,1.957,0,0,1,1.38-.434h0.51v-2.058a2.691,2.691,0,0,0-1.38.35,2.763,2.763,0,0,0-.98.966h0Zm10.79,2.506a4.108,4.108,0,0,0-.48-2.009,3.377,3.377,0,0,0-1.34-1.351,4.341,4.341,0,0,0-3.98.014,3.376,3.376,0,0,0-1.35,1.4,4.775,4.775,0,0,0,0,4.214,3.528,3.528,0,0,0,1.37,1.407,3.988,3.988,0,0,0,1.99.5,3.7,3.7,0,0,0,2.32-.721,3.5,3.5,0,0,0,1.27-1.841h-2.09a1.582,1.582,0,0,1-1.54.938,1.778,1.778,0,0,1-1.26-.476,1.916,1.916,0,0,1-.58-1.316h5.61a4.324,4.324,0,0,0,.06-0.756h0Zm-5.66-.56a1.972,1.972,0,0,1,.61-1.225,1.731,1.731,0,0,1,1.21-.441,1.9,1.9,0,0,1,1.29.455,1.566,1.566,0,0,1,.54,1.211h-3.65Zm6.56,0.7a4.6,4.6,0,0,0,.46,2.107,3.478,3.478,0,0,0,1.27,1.421,3.228,3.228,0,0,0,1.76.5,3.126,3.126,0,0,0,1.52-.357,2.881,2.881,0,0,0,1.03-.9v1.134h1.96v-7.756h-1.96v1.106a3.052,3.052,0,0,0-1.03-.882,3.1,3.1,0,0,0-1.5-.35,3.313,3.313,0,0,0-1.78.49,3.388,3.388,0,0,0-1.27,1.4,4.52,4.52,0,0,0-.46,2.086h0Zm6.04,0.028a2.591,2.591,0,0,1-.27,1.225,2.032,2.032,0,0,1-.75.784,2,2,0,0,1-1.01.273,1.893,1.893,0,0,1-1-.28,2.042,2.042,0,0,1-.74-0.8,2.529,2.529,0,0,1-.29-1.225,2.449,2.449,0,0,1,.29-1.211,1.941,1.941,0,0,1,1.74-1.043,2,2,0,0,1,1.01.273,2.032,2.032,0,0,1,.75.784,2.591,2.591,0,0,1,.27,1.225h0Zm7.82-2.268v-1.61h-1.72V196.8h-1.95v1.918h-0.92v1.61h0.92v3.738a2.149,2.149,0,0,0,2.45,2.408h1.22v-1.652h-0.9a0.894,0.894,0,0,1-.63-0.175,0.767,0.767,0,0,1-.19-0.567v-3.752h1.72Zm8.53,2.1a4.108,4.108,0,0,0-.48-2.009,3.339,3.339,0,0,0-1.35-1.351,4.321,4.321,0,0,0-3.97.014,3.461,3.461,0,0,0-1.36,1.4,4.466,4.466,0,0,0-.48,2.114,4.325,4.325,0,0,0,.49,2.1,3.528,3.528,0,0,0,1.37,1.407,3.988,3.988,0,0,0,1.99.5,3.7,3.7,0,0,0,2.32-.721,3.5,3.5,0,0,0,1.27-1.841h-2.09a1.591,1.591,0,0,1-1.54.938,1.778,1.778,0,0,1-1.26-.476,1.916,1.916,0,0,1-.58-1.316h5.61a4.324,4.324,0,0,0,.06-0.756h0Zm-5.66-.56a2.015,2.015,0,0,1,.6-1.225,1.773,1.773,0,0,1,1.22-.441,1.9,1.9,0,0,1,1.29.455,1.566,1.566,0,0,1,.54,1.211h-3.65Zm16.97-5.166-2.65,7.77-2.66-7.77h-2.08l3.55,9.772h2.36l3.54-9.772h-2.06Zm2.72,5.866a4.6,4.6,0,0,0,.46,2.107,3.527,3.527,0,0,0,1.26,1.421,3.238,3.238,0,0,0,1.77.5,3.154,3.154,0,0,0,1.52-.357,2.881,2.881,0,0,0,1.03-.9v1.134h1.95v-7.756h-1.95v1.106a3.052,3.052,0,0,0-1.03-.882,3.113,3.113,0,0,0-1.51-.35,3.338,3.338,0,0,0-1.78.49,3.434,3.434,0,0,0-1.26,1.4,4.52,4.52,0,0,0-.46,2.086h0Zm6.04,0.028a2.478,2.478,0,0,1-.28,1.225,1.9,1.9,0,0,1-.75.784,1.969,1.969,0,0,1-1.01.273,1.885,1.885,0,0,1-.99-0.28,2.065,2.065,0,0,1-.75-0.8,2.526,2.526,0,0,1-.28-1.225,2.447,2.447,0,0,1,.28-1.211,2.025,2.025,0,0,1,.74-0.777,2.009,2.009,0,0,1,2.01.007,1.9,1.9,0,0,1,.75.784,2.478,2.478,0,0,1,.28,1.225h0Zm5.78-2.674v-1.2h-1.94v7.756h1.94v-3.864a2.011,2.011,0,0,1,.47-1.512,1.914,1.914,0,0,1,1.37-.434h0.52v-2.058a2.691,2.691,0,0,0-1.38.35,2.763,2.763,0,0,0-.98.966h0Zm4.63-2.128a1.164,1.164,0,0,0,.85-0.329,1.156,1.156,0,0,0,0-1.638,1.263,1.263,0,0,0-1.7,0,1.156,1.156,0,0,0,0,1.638,1.164,1.164,0,0,0,.85.329h0Zm-0.98.924v7.756h1.94v-7.756h-1.94Zm3.34,3.85a4.6,4.6,0,0,0,.46,2.107,3.527,3.527,0,0,0,1.26,1.421,3.238,3.238,0,0,0,1.77.5,3.154,3.154,0,0,0,1.52-.357,2.881,2.881,0,0,0,1.03-.9v1.134h1.96v-7.756h-1.96v1.106a3.052,3.052,0,0,0-1.03-.882,3.113,3.113,0,0,0-1.51-.35,3.338,3.338,0,0,0-1.78.49,3.434,3.434,0,0,0-1.26,1.4,4.52,4.52,0,0,0-.46,2.086h0Zm6.04,0.028a2.478,2.478,0,0,1-.28,1.225,1.94,1.94,0,0,1-.74.784,2.031,2.031,0,0,1-1.02.273,1.885,1.885,0,0,1-.99-0.28,2.065,2.065,0,0,1-.75-0.8,2.526,2.526,0,0,1-.28-1.225,2.447,2.447,0,0,1,.28-1.211,1.978,1.978,0,0,1,.75-0.777,1.913,1.913,0,0,1,.99-0.266,2.031,2.031,0,0,1,1.02.273,1.94,1.94,0,0,1,.74.784,2.478,2.478,0,0,1,.28,1.225h0Zm8.1-3.99a3.1,3.1,0,0,0-1.33.287,2.7,2.7,0,0,0-.99.791v-0.966h-1.94v7.756h1.94v-4.284a2,2,0,0,1,.47-1.421,1.643,1.643,0,0,1,1.26-.5,1.606,1.606,0,0,1,1.25.5,2,2,0,0,1,.46,1.421v4.284h1.94v-4.55a3.345,3.345,0,0,0-.85-2.443,2.93,2.93,0,0,0-2.21-.875h0Zm8.87,1.722v-1.61h-1.72V196.8h-1.95v1.918h-0.92v1.61h0.92v3.738a2.145,2.145,0,0,0,2.45,2.408h1.22v-1.652h-0.9a0.894,0.894,0,0,1-.63-0.175,0.728,0.728,0,0,1-.19-0.567v-3.752h1.72Z" transform="translate(-1545.72 -191)"/>
  <path id="Shape_403_2" data-name="Shape 403 2" class="cls-1" d="M1676,201.666a0.371,0.371,0,0,0-.23-0.368c-1.37-.684-2.75-1.37-4.12-2.057a0.356,0.356,0,0,0-.38,0,0.949,0.949,0,0,0,.02-0.329v-5.416a0.38,0.38,0,0,0-.24-0.388c-1.37-.68-2.73-1.364-4.1-2.05a0.426,0.426,0,0,0-.41,0q-2.175,1.029-4.37,2.049a0.39,0.39,0,0,0-.25.39v5.557c0,0.093,0,.154-0.12.136a0.259,0.259,0,0,0-.13.044c-1.48.69-2.95,1.382-4.43,2.071a0.365,0.365,0,0,0-.23.366c0,1.8.01,3.611-.01,5.416a0.653,0.653,0,0,0,.4.664c1.36,0.715,2.71,1.447,4.05,2.182a0.5,0.5,0,0,0,.53,0q2.055-1.122,4.13-2.228a0.509,0.509,0,0,0,.31-0.516v-5.252a0.321,0.321,0,0,1,.01-0.138c0.19,0.05.19,0.05,0.19,0.236v5.217a0.409,0.409,0,0,0,.23.4q2.1,1.132,4.2,2.272a0.531,0.531,0,0,0,.57,0q2.07-1.138,4.14-2.264a0.4,0.4,0,0,0,.24-0.393v-5.591Zm-4.63-1.75a0.16,0.16,0,0,1,.16,0c0.28,0.143.56,0.28,0.84,0.418,0,0.048-.04.049-0.07,0.061q-1.71.882-3.42,1.763a0.208,0.208,0,0,1-.22,0c-0.31-.175-0.63-0.342-0.96-0.523,0.29-.136.56-0.265,0.83-0.391C1669.48,200.8,1670.42,200.361,1671.37,199.916Zm-8.02-6.414c1.18-.555,2.37-1.107,3.55-1.662a0.158,0.158,0,0,1,.16,0c0.28,0.143.56,0.28,0.86,0.429-0.26.132-.49,0.255-0.72,0.375-0.94.48-1.87,0.957-2.8,1.438a0.2,0.2,0,0,1-.21,0c-0.31-.175-0.63-0.342-0.95-0.514A0.2,0.2,0,0,1,1663.35,193.5Zm-3.47,7.29c0.62-.293,1.25-0.585,1.87-0.879a0.132,0.132,0,0,1,.13-0.011c0.28,0.142.56,0.281,0.84,0.42a0.039,0.039,0,0,1,.03.039c-0.36.185-.72,0.371-1.09,0.557-0.8.414-1.61,0.826-2.41,1.243a0.2,0.2,0,0,1-.21,0c-0.31-.174-0.63-0.342-0.97-0.524C1658.69,201.346,1659.29,201.069,1659.88,200.792Zm1.48,5.159v3.168c-0.42-.225-0.81-0.436-1.2-0.647-0.8-.43-1.59-0.862-2.39-1.291a0.134,0.134,0,0,1-.1-0.135V202.24a0.074,0.074,0,0,1,.01-0.045,0.115,0.115,0,0,1,.1.035c0.31,0.164.61,0.335,0.92,0.494a0.155,0.155,0,0,1,.1.162c-0.01.3,0,.592-0.01,0.889a0.139,0.139,0,0,0,.09.14c0.25,0.109.49,0.224,0.73,0.337a0.183,0.183,0,0,0,.02-0.122v-0.807c0-.049-0.01-0.1.08-0.056q0.8,0.434,1.59.86a0.121,0.121,0,0,1,.06.129v1.695Zm3.32-3.978c-0.96.521-1.93,1.04-2.89,1.564a0.169,0.169,0,0,1-.19,0c-0.49-.266-0.98-0.527-1.47-0.791a0.189,0.189,0,0,1-.09-0.067c0.24-.12.47-0.24,0.7-0.359,0.95-.49,1.91-0.98,2.86-1.47a0.144,0.144,0,0,1,.15-0.017c0.51,0.256,1.01.507,1.52,0.761a0.367,0.367,0,0,1,.04.035C1665.1,201.747,1664.89,201.86,1664.68,201.973Zm1.59-1.041c0,0.085-.01.112-0.1,0.062-1.16-.634-2.33-1.265-3.5-1.9a0.128,0.128,0,0,1-.09-0.131c0.01-1.606.01-3.212,0.01-4.819v-0.054c0.37,0.2.72,0.391,1.07,0.58a0.1,0.1,0,0,1,.05.117c0,0.3.01,0.6,0,.9a0.147,0.147,0,0,0,.11.157c0.21,0.1.43,0.2,0.64,0.3,0.08,0.037.09,0.02,0.09-.057v-0.917a0.45,0.45,0,0,1,.19.078c0.48,0.261.96,0.526,1.45,0.784a0.132,0.132,0,0,1,.08.145v4.749Zm0.41-5.572a0.12,0.12,0,0,1-.13.016l-1.61-.874,1.46-.754c0.71-.362,1.41-0.723,2.12-1.087a0.165,0.165,0,0,1,.17,0c0.48,0.243.96,0.483,1.44,0.725a0.089,0.089,0,0,1,.08.059,0.124,0.124,0,0,1-.08.051Zm4.2,13.71c-1.17-.633-2.34-1.265-3.5-1.894a0.142,0.142,0,0,1-.09-0.148V202.29c0-.092.01-0.122,0.11-0.07,0.31,0.176.63,0.349,0.95,0.519a0.127,0.127,0,0,1,.08.129q-0.015.462,0,.924c0,0.037-.02.079,0.03,0.1,0.26,0.12.52,0.241,0.8,0.367v-1.032c0.18,0.1.36,0.195,0.53,0.289,0.37,0.2.74,0.4,1.11,0.594a0.148,0.148,0,0,1,.09.154q-0.015,2.37,0,4.738C1670.99,209.105,1670.97,209.117,1670.88,209.07Zm3.32-7.039c-0.92.5-1.85,1-2.78,1.5a0.187,0.187,0,0,1-.21,0l-1.56-.842c0.2-.107.39-0.206,0.58-0.3,1-.512,1.99-1.023,2.99-1.537a0.167,0.167,0,0,1,.18,0c0.48,0.246.97,0.487,1.46,0.729,0.02,0.012.04,0.025,0.08,0.045C1674.69,201.766,1674.45,201.9,1674.2,202.031Z" transform="translate(-1545.72 -191)"/>
</svg>
