<svg id="CreateVehi" xmlns="http://www.w3.org/2000/svg" width="128.844" height="25" viewBox="0 0 128.844 25">
  <defs>
    <style>
      .cls-1 {
        fill: #108bff;
        fill-rule: evenodd;
      }
    </style>
  </defs>
  <path id="Create_vehicle" data-name="Create vehicle" class="cls-1" d="M779.877,84.426a4.988,4.988,0,0,0,.638,2.526,4.575,4.575,0,0,0,1.744,1.737,4.947,4.947,0,0,0,2.478.625,4.9,4.9,0,0,0,2.822-.817,4.286,4.286,0,0,0,1.682-2.286H787.03a2.324,2.324,0,0,1-.927,1.037,2.676,2.676,0,0,1-1.379.35,2.838,2.838,0,0,1-1.49-.391,2.656,2.656,0,0,1-1.016-1.112,4.02,4.02,0,0,1,0-3.343,2.666,2.666,0,0,1,1.016-1.105,2.838,2.838,0,0,1,1.49-.391,2.719,2.719,0,0,1,1.379.343,2.284,2.284,0,0,1,.927,1.03h2.211a4.314,4.314,0,0,0-1.689-2.279,4.877,4.877,0,0,0-2.815-.824,4.949,4.949,0,0,0-2.478.625,4.563,4.563,0,0,0-1.744,1.744,5.027,5.027,0,0,0-.638,2.533h0Zm12.92-1.62V81.625h-1.922v7.606H792.8v-3.79a1.6,1.6,0,0,1,1.826-1.909h0.508V81.515a2.645,2.645,0,0,0-2.334,1.291h0Zm10.682,2.458a4.007,4.007,0,0,0-.474-1.97,3.289,3.289,0,0,0-1.332-1.325,4.319,4.319,0,0,0-3.933.014,3.351,3.351,0,0,0-1.346,1.373,4.311,4.311,0,0,0-.48,2.073,4.227,4.227,0,0,0,.487,2.06,3.43,3.43,0,0,0,1.359,1.38,3.965,3.965,0,0,0,1.97.487,3.685,3.685,0,0,0,2.293-.707,3.464,3.464,0,0,0,1.264-1.806h-2.074a1.569,1.569,0,0,1-1.524.92,1.776,1.776,0,0,1-1.249-.467A1.891,1.891,0,0,1,797.863,86h5.561a4.6,4.6,0,0,0,.055-0.741h0Zm-5.6-.549a1.9,1.9,0,0,1,.6-1.2,1.747,1.747,0,0,1,1.2-.432,1.9,1.9,0,0,1,1.276.446,1.524,1.524,0,0,1,.536,1.188h-3.611Zm6.494,0.686a4.47,4.47,0,0,0,.46,2.066,3.458,3.458,0,0,0,1.25,1.394,3.229,3.229,0,0,0,1.75.494,3.13,3.13,0,0,0,1.5-.35,2.862,2.862,0,0,0,1.022-.885v1.112h1.936V81.625h-1.936V82.71a3.025,3.025,0,0,0-1.022-.865,3.1,3.1,0,0,0-1.49-.343,3.325,3.325,0,0,0-1.764.481,3.372,3.372,0,0,0-1.25,1.373,4.4,4.4,0,0,0-.46,2.046h0Zm5.986,0.028a2.466,2.466,0,0,1-.274,1.2,1.931,1.931,0,0,1-.742.769,1.98,1.98,0,0,1-1,.268,1.884,1.884,0,0,1-.982-0.275,2.033,2.033,0,0,1-.741-0.789,2.461,2.461,0,0,1-.281-1.2,2.383,2.383,0,0,1,.281-1.188,1.969,1.969,0,0,1,.735-0.762,1.946,1.946,0,0,1,.988-0.261,1.98,1.98,0,0,1,1,.268,1.933,1.933,0,0,1,.742.769,2.467,2.467,0,0,1,.274,1.2h0ZM818.1,83.2V81.625h-1.7V79.744h-1.936v1.881h-0.906V83.2h0.906V86.87a2.118,2.118,0,0,0,2.43,2.362H818.1v-1.62h-0.892a0.911,0.911,0,0,1-.625-0.172,0.725,0.725,0,0,1-.185-0.556V83.2h1.7Zm8.444,2.06a4.007,4.007,0,0,0-.474-1.97,3.28,3.28,0,0,0-1.331-1.325,4.321,4.321,0,0,0-3.934.014,3.357,3.357,0,0,0-1.346,1.373,4.311,4.311,0,0,0-.48,2.073,4.227,4.227,0,0,0,.487,2.06,3.426,3.426,0,0,0,1.36,1.38,3.963,3.963,0,0,0,1.97.487,3.689,3.689,0,0,0,2.293-.707,3.468,3.468,0,0,0,1.263-1.806H824.28a1.569,1.569,0,0,1-1.524.92,1.779,1.779,0,0,1-1.25-.467A1.886,1.886,0,0,1,820.93,86h5.56a4.492,4.492,0,0,0,.055-0.741h0Zm-5.6-.549a1.9,1.9,0,0,1,.6-1.2,1.742,1.742,0,0,1,1.2-.432,1.9,1.9,0,0,1,1.277.446,1.523,1.523,0,0,1,.535,1.188h-3.611Zm11.492-3.089h-2.059l2.8,7.606h2.334l2.814-7.606H836.28l-1.923,5.835Zm14.032,3.638a4.018,4.018,0,0,0-.473-1.97,3.289,3.289,0,0,0-1.332-1.325,4.321,4.321,0,0,0-3.934.014,3.355,3.355,0,0,0-1.345,1.373,4.3,4.3,0,0,0-.481,2.073,4.227,4.227,0,0,0,.488,2.06,3.417,3.417,0,0,0,1.359,1.38,3.965,3.965,0,0,0,1.97.487,3.689,3.689,0,0,0,2.293-.707,3.468,3.468,0,0,0,1.263-1.806H844.2a1.569,1.569,0,0,1-1.524.92,1.781,1.781,0,0,1-1.25-.467A1.89,1.89,0,0,1,840.852,86h5.56a4.492,4.492,0,0,0,.055-0.741h0Zm-5.6-.549a1.906,1.906,0,0,1,.6-1.2,1.744,1.744,0,0,1,1.2-.432,1.9,1.9,0,0,1,1.277.446,1.523,1.523,0,0,1,.535,1.188h-3.611Zm11.273-3.2a3.274,3.274,0,0,0-1.373.281,2.506,2.506,0,0,0-.989.776v-3.5h-1.922v10.16h1.922v-4.2a1.952,1.952,0,0,1,.46-1.394,1.647,1.647,0,0,1,1.257-.487,1.6,1.6,0,0,1,1.235.487,1.973,1.973,0,0,1,.453,1.394v4.2H855.1V84.769A3.815,3.815,0,0,0,854.726,83a2.608,2.608,0,0,0-1.05-1.112,3.093,3.093,0,0,0-1.538-.378h0Zm5.753-.8a1.171,1.171,0,0,0,.844-0.323,1.128,1.128,0,0,0,0-1.606,1.267,1.267,0,0,0-1.689,0,1.128,1.128,0,0,0,0,1.606,1.171,1.171,0,0,0,.845.323h0Zm-0.975.906v7.606h1.922V81.625h-1.922Zm3.309,3.8a4.27,4.27,0,0,0,.48,2.066,3.435,3.435,0,0,0,1.332,1.373,3.852,3.852,0,0,0,1.95.487,3.684,3.684,0,0,0,2.334-.728,3.507,3.507,0,0,0,1.249-1.963H865.5a1.458,1.458,0,0,1-1.524,1.044,1.584,1.584,0,0,1-1.3-.6,3.205,3.205,0,0,1,0-3.378,1.585,1.585,0,0,1,1.3-.6,1.617,1.617,0,0,1,.968.281,1.517,1.517,0,0,1,.556.776h2.073a3.436,3.436,0,0,0-1.242-1.984,3.751,3.751,0,0,0-2.341-.707,3.855,3.855,0,0,0-1.95.487,3.437,3.437,0,0,0-1.332,1.373,4.271,4.271,0,0,0-.48,2.066h0Zm8.746-6.357v10.16h1.922V79.071h-1.922Zm10.874,6.192a4.007,4.007,0,0,0-.474-1.97,3.289,3.289,0,0,0-1.332-1.325,4.319,4.319,0,0,0-3.933.014,3.357,3.357,0,0,0-1.346,1.373,4.311,4.311,0,0,0-.48,2.073,4.227,4.227,0,0,0,.487,2.06,3.43,3.43,0,0,0,1.359,1.38,3.969,3.969,0,0,0,1.971.487,3.689,3.689,0,0,0,2.293-.707,3.468,3.468,0,0,0,1.263-1.806h-2.074a1.569,1.569,0,0,1-1.524.92,1.778,1.778,0,0,1-1.249-.467A1.891,1.891,0,0,1,874.229,86h5.561a4.6,4.6,0,0,0,.055-0.741h0Zm-5.6-.549a1.9,1.9,0,0,1,.6-1.2,1.747,1.747,0,0,1,1.2-.432,1.9,1.9,0,0,1,1.277.446,1.526,1.526,0,0,1,.535,1.188h-3.611Z" transform="translate(-751 -72)"/>
  <path id="Shape_457_1" data-name="Shape 457 1" class="cls-1" d="M769.136,80.75h-2.863V77H752.909A1.891,1.891,0,0,0,751,78.875V89.188h1.909a2.864,2.864,0,0,0,5.727,0h5.728a2.864,2.864,0,0,0,5.727,0H772V84.5Zm-13.363,9.844a1.406,1.406,0,1,1,1.432-1.406A1.417,1.417,0,0,1,755.773,90.594Zm11.454,0a1.406,1.406,0,1,1,1.432-1.406A1.418,1.418,0,0,1,767.227,90.594ZM766.273,84.5V82.156h2.386l1.876,2.344h-4.262Z" transform="translate(-751 -72)"/>
</svg>
