<svg xmlns="http://www.w3.org/2000/svg" width="26" height="26" viewBox="0 0 26 26">
  <defs>
    <style>
      .cls-1 {
        fill: #0073e0;
        fill-rule: evenodd;
      }
    </style>
  </defs>
  <path id="dateofJoiniing" class="cls-1" d="M599.045,462.906a0.948,0.948,0,1,1,.935-0.948A0.942,0.942,0,0,1,599.045,462.906Zm-12.2,8.251a0.949,0.949,0,1,1,.934-0.948A0.942,0.942,0,0,1,586.844,471.157Zm0-8.251a0.948,0.948,0,1,1,.934-0.948A0.942,0.942,0,0,1,586.844,462.906Zm0,4.126a0.949,0.949,0,1,1,.934-0.949A0.943,0.943,0,0,1,586.844,467.032Zm4.067,4.125a0.949,0.949,0,1,1,.935-0.948A0.941,0.941,0,0,1,590.911,471.157Zm0-8.251a0.948,0.948,0,1,1,.935-0.948A0.941,0.941,0,0,1,590.911,462.906Zm0,4.126a0.949,0.949,0,1,1,.935-0.949A0.942,0.942,0,0,1,590.911,467.032ZM604,464.044a0.941,0.941,0,0,1-.935-0.948V457.69a1.886,1.886,0,0,0-1.87-1.9H599.98v0.949a0.935,0.935,0,1,1-1.87,0v-0.949h-4.254v0.949a0.935,0.935,0,1,1-1.87,0v-0.949h-4.208v0.949a0.935,0.935,0,1,1-1.87,0v-0.949H584.74a1.886,1.886,0,0,0-1.87,1.9v14.8a1.886,1.886,0,0,0,1.87,1.9h7.152a0.949,0.949,0,0,1,0,1.9H584.74a3.772,3.772,0,0,1-3.74-3.794v-14.8a3.771,3.771,0,0,1,3.74-3.793h1.168v-0.949a0.935,0.935,0,1,1,1.87,0V453.9h4.208v-0.949a0.935,0.935,0,1,1,1.87,0V453.9h4.254v-0.949a0.935,0.935,0,1,1,1.87,0V453.9H601.2a3.771,3.771,0,0,1,3.74,3.793V463.1A0.942,0.942,0,0,1,604,464.044Zm-9.023-3.034a0.948,0.948,0,1,1-.935.948A0.942,0.942,0,0,1,594.978,461.01Zm10.865,16.831a0.533,0.533,0,0,1-.379.159h-9.643a0.533,0.533,0,0,1-.379-0.159,0.541,0.541,0,0,1-.157-0.383v-0.537a3.8,3.8,0,0,1,.788-2.311,3.728,3.728,0,0,1,2.024-1.337,0.53,0.53,0,0,0,.288-0.186,0.543,0.543,0,0,0,.115-0.326v-0.545l-0.6-.6a1.6,1.6,0,0,1-.35-0.523,1.618,1.618,0,0,1-.123-0.618v-2.242a3.293,3.293,0,0,1,.913-2.239,3.223,3.223,0,0,1,2.186-.99,3.286,3.286,0,0,1,1.272.254,3.342,3.342,0,0,1,1.8,1.818,3.394,3.394,0,0,1,.255,1.286v2.113a1.637,1.637,0,0,1-.125.622,1.593,1.593,0,0,1-.355.525l-0.592.6v0.545a0.543,0.543,0,0,0,.115.326,0.527,0.527,0,0,0,.289.186,3.734,3.734,0,0,1,2.023,1.337,3.8,3.8,0,0,1,.788,2.311v0.537A0.545,0.545,0,0,1,605.843,477.841Zm-1.479-2.568a2.654,2.654,0,0,0-1.442-.95,1.6,1.6,0,0,1-.868-0.572,1.625,1.625,0,0,1-.34-0.99v-0.769a0.541,0.541,0,0,1,.157-0.383l0.755-.763a0.545,0.545,0,0,0,.118-0.171,0.531,0.531,0,0,0,.041-0.2v-2.113a2.284,2.284,0,0,0-.648-1.6,2.233,2.233,0,0,0-1.573-.676,2.144,2.144,0,0,0-1.455.657,2.178,2.178,0,0,0-.609,1.489v2.242a0.531,0.531,0,0,0,.039.2,0.518,0.518,0,0,0,.113.168l0.762,0.769a0.549,0.549,0,0,1,.157.383v0.769a1.625,1.625,0,0,1-.34.99,1.6,1.6,0,0,1-.867.573,2.651,2.651,0,0,0-1.443.949,2.7,2.7,0,0,0-.564,1.645h8.571A2.7,2.7,0,0,0,604.364,475.273Z" transform="translate(-580.5 -452)"/>
</svg>
