<?xml version="1.0" encoding="utf-8"?>
<!-- Generator: Adobe Illustrator 24.2.1, SVG Export Plug-In . SVG Version: 6.00 Build 0)  -->
<svg version="1.1" id="Approve" xmlns="http://www.w3.org/2000/svg" xmlns:xlink="http://www.w3.org/1999/xlink" x="0px" y="0px"
	 viewBox="0 0 75.8 15.4" style="enable-background:new 0 0 75.8 15.4;" xml:space="preserve">
<style type="text/css">
	.st0{fill-rule:evenodd;clip-rule:evenodd;fill:#FF6453;}
	.st1{fill:#FF6453;}
</style>
<script  xmlns=""></script>
<path class="st0" d="M8.6,0.3c-4.1,0-7.5,3.3-7.5,7.5c0,4.1,3.3,7.5,7.5,7.5c0,0,0,0,0,0c4.1,0,7.5-3.3,7.5-7.5c0,0,0,0,0,0
	C16.1,3.7,12.7,0.3,8.6,0.3z M2.3,7.8c0-3.5,2.8-6.3,6.3-6.3c1.5,0,2.8,0.5,3.9,1.4l-8.8,8.8C2.8,10.6,2.3,9.3,2.3,7.8z M8.6,14.1
	c-1.5,0-2.8-0.5-3.9-1.3l8.8-8.8c0.8,1.1,1.3,2.4,1.3,3.9C14.9,11.3,12,14.1,8.6,14.1z"/>
<g>
	<path class="st1" d="M28.1,4.1c0.8,0.4,1.5,1,1.9,1.8s0.7,1.7,0.7,2.7c0,1-0.2,1.9-0.7,2.7c-0.4,0.8-1.1,1.4-1.9,1.8
		c-0.8,0.4-1.8,0.6-2.9,0.6h-3.3V3.5h3.3C26.3,3.5,27.3,3.7,28.1,4.1z M28,11.3c0.6-0.6,1-1.6,1-2.7c0-1.2-0.3-2.1-1-2.8
		c-0.6-0.7-1.6-1-2.8-1h-1.7v7.5h1.7C26.5,12.3,27.4,12,28,11.3z"/>
	<path class="st1" d="M39.7,10.3h-6.2c0,0.6,0.3,1.2,0.7,1.6c0.4,0.4,1,0.6,1.6,0.6c0.9,0,1.5-0.4,1.9-1.1h1.8
		c-0.2,0.7-0.7,1.4-1.3,1.8c-0.6,0.5-1.4,0.7-2.4,0.7c-0.8,0-1.5-0.2-2.1-0.5c-0.6-0.3-1.1-0.8-1.4-1.5c-0.3-0.6-0.5-1.4-0.5-2.2
		c0-0.8,0.2-1.6,0.5-2.2c0.3-0.6,0.8-1.1,1.4-1.5c0.6-0.3,1.3-0.5,2.1-0.5c0.8,0,1.4,0.2,2,0.5c0.6,0.3,1.1,0.8,1.4,1.4
		c0.3,0.6,0.5,1.3,0.5,2.1C39.8,9.7,39.8,10,39.7,10.3z M38,8.9c0-0.6-0.2-1.1-0.7-1.5c-0.4-0.4-1-0.6-1.6-0.6
		c-0.6,0-1.1,0.2-1.5,0.6c-0.4,0.4-0.7,0.9-0.7,1.5H38z"/>
	<path class="st1" d="M41.4,7.4c0.3-0.6,0.8-1.1,1.4-1.5c0.6-0.3,1.3-0.5,2.1-0.5c1,0,1.8,0.2,2.4,0.7c0.6,0.5,1.1,1.1,1.3,2h-1.8
		c-0.1-0.4-0.4-0.7-0.7-0.9c-0.3-0.2-0.7-0.3-1.2-0.3c-0.7,0-1.2,0.2-1.6,0.7c-0.4,0.5-0.6,1.2-0.6,2c0,0.9,0.2,1.6,0.6,2
		c0.4,0.5,1,0.7,1.6,0.7c1,0,1.6-0.4,1.9-1.3h1.8c-0.2,0.8-0.7,1.5-1.3,2c-0.6,0.5-1.5,0.7-2.4,0.7c-0.8,0-1.5-0.2-2.1-0.5
		c-0.6-0.3-1.1-0.8-1.4-1.5c-0.3-0.6-0.5-1.4-0.5-2.2C40.9,8.8,41,8.1,41.4,7.4z"/>
	<path class="st1" d="M51.9,2.8v10.9h-1.7V2.8H51.9z"/>
	<path class="st1" d="M54.2,4.2C54,4,53.9,3.7,53.9,3.4s0.1-0.6,0.3-0.8c0.2-0.2,0.5-0.3,0.8-0.3c0.3,0,0.5,0.1,0.8,0.3
		c0.2,0.2,0.3,0.5,0.3,0.8S56,4,55.7,4.2c-0.2,0.2-0.5,0.3-0.8,0.3C54.7,4.5,54.4,4.4,54.2,4.2z M55.8,5.6v8.1h-1.7V5.6H55.8z"/>
	<path class="st1" d="M63.8,5.8C64.3,6.1,64.7,6.5,65,7c0.3,0.5,0.4,1.1,0.4,1.9v4.8h-1.7V9.2c0-0.7-0.2-1.3-0.5-1.7
		c-0.4-0.4-0.9-0.6-1.5-0.6c-0.6,0-1.1,0.2-1.5,0.6c-0.4,0.4-0.6,0.9-0.6,1.7v4.5H58V5.6h1.7v0.9c0.3-0.3,0.6-0.6,1.1-0.8
		c0.4-0.2,0.9-0.3,1.4-0.3C62.8,5.4,63.3,5.6,63.8,5.8z"/>
	<path class="st1" d="M74.9,10.3h-6.2c0,0.6,0.3,1.2,0.7,1.6c0.4,0.4,1,0.6,1.6,0.6c0.9,0,1.5-0.4,1.9-1.1h1.8
		c-0.2,0.7-0.7,1.4-1.3,1.8c-0.6,0.5-1.4,0.7-2.4,0.7c-0.8,0-1.5-0.2-2.1-0.5c-0.6-0.3-1.1-0.8-1.4-1.5c-0.3-0.6-0.5-1.4-0.5-2.2
		c0-0.8,0.2-1.6,0.5-2.2S68.3,6.3,69,6c0.6-0.3,1.3-0.5,2.1-0.5c0.8,0,1.4,0.2,2,0.5c0.6,0.3,1.1,0.8,1.4,1.4C74.8,8,75,8.6,75,9.4
		C75,9.7,75,10,74.9,10.3z M73.3,8.9c0-0.6-0.2-1.1-0.7-1.5c-0.4-0.4-1-0.6-1.6-0.6c-0.6,0-1.1,0.2-1.5,0.6
		c-0.4,0.4-0.7,0.9-0.7,1.5H73.3z"/>
</g>
</svg>
