<svg xmlns="http://www.w3.org/2000/svg" width="30" height="30" viewBox="0 0 30 30">
  <defs>
    <style>
      .cls-1 {
        fill: #0686ff;
        fill-rule: evenodd;
      }
    </style>
  </defs>
  <path id="depart_no" class="cls-1" d="M1596.72,274.565l5.8,3.258a1.573,1.573,0,0,0,1.45,0l5.97-3.239,6.09,3.239a1.573,1.573,0,0,0,1.45,0l5.8-3.258a1.411,1.411,0,0,0,.72-1.228v-6.895a1.411,1.411,0,0,0-.72-1.228l-6.04-3.4v-7.178a1.409,1.409,0,0,0-.72-1.228l-5.8-3.258a1.547,1.547,0,0,0-1.44,0l-5.8,3.258a1.409,1.409,0,0,0-.72,1.228v7.225l-6.04,3.352a1.411,1.411,0,0,0-.72,1.228v6.942A1.394,1.394,0,0,0,1596.72,274.565Zm6.68-2.424-0.6-.594a1.479,1.479,0,0,0,.14-0.639v-0.777l-0.42-.822a0.384,0.384,0,0,1-.05-0.229v-0.868a0.935,0.935,0,0,1,1.87,0v0.868a0.207,0.207,0,0,1-.05.183l-0.42.868v0.777a1.638,1.638,0,0,0,.14.639Zm1.4-1.233v-0.594l0.33-.64a1.433,1.433,0,0,0,.14-0.594v-0.868a1.865,1.865,0,0,0-3.73,0v0.868a1.17,1.17,0,0,0,.14.594l0.32,0.64v0.594a0.555,0.555,0,0,1-.32.456l-1.5.411,0.28-3.563a2.96,2.96,0,0,1,5.89,0l0.28,3.563-1.5-.411A0.547,0.547,0,0,1,1604.8,270.908Zm-5.13,2.284a0.555,0.555,0,0,1,.32-0.457l1.92-.549c0.05,0,.14-0.045.19-0.045l0.65,0.639-1.21,1.188V275.8l-1.87-1.05v-1.553Zm3.97,3.517a0.439,0.439,0,0,1-.47,0l-0.7-.411v-1.964l2.24-2.193a0.3,0.3,0,0,0,.19.045l1.91,0.549a0.453,0.453,0,0,1,.33.457v1.553Zm8.17-20.831a1.407,1.407,0,0,0-1.35.092l-0.52.274-0.51-.274a1.59,1.59,0,0,0-1.36-.092v-0.913a0.439,0.439,0,0,1,.47-0.457h2.8a0.439,0.439,0,0,1,.47.457v0.913Zm-3.74,1.371a0.612,0.612,0,0,1,.61-0.594,0.946,0.946,0,0,1,.33.092l0.98,0.593,0.98-.593a0.549,0.549,0,0,1,.79.182,0.622,0.622,0,0,1,.1.32v1a0.423,0.423,0,0,1-.14.32l-1.17,1.142-0.61.548-0.51-.5-0.52-.5-0.65-.64a0.42,0.42,0,0,1-.14-0.319v-1.051h-0.05Zm5.61,6.076-2.85,1.6,0.75-1.918a1.449,1.449,0,0,0-.33-1.462l-0.65-.64,0.88-.868,1.87,0.594a0.441,0.441,0,0,1,.33.411v2.285Zm-3.74-1.782,0.66,0.64a0.413,0.413,0,0,1,.09.5l-0.75,1.964-0.75-1.964a0.623,0.623,0,0,1,.1-0.5Zm-1.54-1.508,0.89,0.868-0.66.64a1.4,1.4,0,0,0-.32,1.462l0.74,1.918-2.84-1.6v-2.193a0.441,0.441,0,0,1,.32-0.411Zm8.31,16.674a0.422,0.422,0,0,1-.46,0l-3.51-1.964v-2.193a0.439,0.439,0,0,1,.33-0.411l1.87-.594a2.232,2.232,0,0,0,3.08,0l1.87,0.594a0.439,0.439,0,0,1,.33.411v2.193Zm-2.1-8.5v-0.091l1.87-.366,1.87,0.366v1.188a0.616,0.616,0,0,1-.1.274l-0.74,1.142a1.275,1.275,0,0,1-2.01,0l-0.75-1.142a0.6,0.6,0,0,1-.09-0.274v-1.1h-0.05Zm3.74-1-1.87-.365-1.87.365v-0.822a0.439,0.439,0,0,1,.47-0.457h3.27v1.279Zm3.97-1.142a0.476,0.476,0,0,1,.23.411v6.716a0.476,0.476,0,0,1-.23.411l-1.17.593v-1.69a1.316,1.316,0,0,0-.98-1.279l-1.59-.5,0.42-.64a1.51,1.51,0,0,0,.23-0.776v-4.294h-4.2a1.363,1.363,0,0,0-1.4,1.37v2.924a1.51,1.51,0,0,0,.23.776l0.42,0.64-1.58.5a1.347,1.347,0,0,0-.89,1.279v1.69l-1.4-.776v-7.263c0.09-.046.14-0.046,0.23-0.092l5.84-3.243Zm-24.99.411a0.485,0.485,0,0,1,.24-0.411l5.83-3.243,5.84,3.243c0.09,0.046.14,0.046,0.23,0.092v7.263l-1.4.776v-1a1.294,1.294,0,0,0-.46-1.006l-0.33-4.065a3.892,3.892,0,0,0-7.75,0l-0.33,4.065a1.461,1.461,0,0,0-.47,1.006v1l-1.16-.639a0.485,0.485,0,0,1-.24-0.411v-6.67Zm7.47,6.761h1.41v0.914h-1.41v-0.914Zm11.21-.457h0.94v0.914h-0.94V272.78Zm0,1.827h0.94v0.914h-0.94v-0.914Zm1.87-1.827h1.4v0.914h-1.4V272.78Zm-5.6-11.42h0.93v0.914h-0.93V261.36Z" transform="translate(-1595 -248.984)"/>
</svg>
