<svg id="Layer_1" data-name="Layer 1" xmlns="http://www.w3.org/2000/svg" viewBox="0 0 20 20"><defs><style>.cls-1{fill:#02539f;}</style></defs><path class="cls-1" d="M19.52,12a.81.81,0,0,1-.84.49H2.21v6.69a.49.49,0,0,1-.18.43H1.8a.49.49,0,0,1-.18-.43q0-3.21,0-6.42v-.28H.93a.65.65,0,0,1-.71-.7v-.9a.64.64,0,0,1,.66-.65H3.77V9.85c0-.22.11-.36.28-.36s.29.13.29.36v.4H6.15V7.52L6,7.75a.56.56,0,0,1-.85.06l-1-.87a.32.32,0,0,0-.23-.05A3.28,3.28,0,0,0,3.34,7,1.25,1.25,0,0,0,2.46,8.3c0,.34,0,.69,0,1s-.1.37-.28.37-.29-.13-.29-.37A12.18,12.18,0,0,1,1.92,8,1.72,1.72,0,0,1,3.18,6.49L4.73,6a.54.54,0,0,0,.42-.58.35.35,0,0,0-.1-.19,2,2,0,0,1-.63-1.49c0-.68,0-1.37,0-2A1.29,1.29,0,0,1,5.8.35H7.19A1.3,1.3,0,0,1,8.47,1.62c0,.74,0,1.49,0,2.23a1.93,1.93,0,0,1-.56,1.32.52.52,0,0,0,.17.8c.41.14.83.25,1.26.39V5.25a.87.87,0,0,1,1-1h5.07a.85.85,0,0,1,.94.94V8.57a.85.85,0,0,1-.91.92H13.69v.77h5a.79.79,0,0,1,.84.49ZM13.68,8.91h1.68c.3,0,.39-.08.39-.39V5.26c0-.31-.09-.39-.39-.39h-5c-.32,0-.4.08-.4.4v3.3c0,.24.1.34.35.34H12V8.25a.84.84,0,0,1,.84-.81.83.83,0,0,1,.85.8C13.68,8.46,13.68,8.67,13.68,8.91ZM9.85,12h8.93c.12,0,.17-.05.17-.17v-.67c0-.29,0-.29-.29-.29H1q-.18,0-.18.18c0,.23,0,.46,0,.69s0,.26.26.26ZM9.34,7a.45.45,0,0,0-.64.07c-.27.27-.58.51-.88.76A.55.55,0,0,1,7,7.75l-.22-.24v2.74h1.8V9.84c0-.21.12-.35.29-.35s.28.12.28.34,0,.28,0,.42h1.37V9.49h-.22a.86.86,0,0,1-.93-1ZM5,3.14v.68a1.46,1.46,0,0,0,1.3,1.4A1.42,1.42,0,0,0,7.87,4a5.44,5.44,0,0,0,0-.81.17.17,0,0,0-.05-.12,1.56,1.56,0,0,0-1.29-.39C6,2.81,5.52,3,5,3.14Zm2.91-.73c0-.28,0-.53,0-.77A.73.73,0,0,0,7.18.92q-.73,0-1.47,0a.71.71,0,0,0-.7.6c0,.33,0,.67,0,1l.55-.18A7.84,7.84,0,0,1,6.62,2.1,2,2,0,0,1,7.91,2.41Zm4.64,7.84h.56v-2a.28.28,0,0,0-.56,0C12.54,8.94,12.55,9.59,12.55,10.25Zm-1.47,0H12V9.5h-.89ZM7.22,5.68a4.1,4.1,0,0,1-.76.11,3.86,3.86,0,0,1-.75-.1c-.12.18,0,.28.14.37s.34.21.52.3a.15.15,0,0,0,.14,0l.78-.46ZM6.9,6.82l.53.58.86-.74L7.68,6.4a.13.13,0,0,0-.1,0ZM6,6.82l-.65-.39a.13.13,0,0,0-.1,0l-.62.26.85.72Z"/><path class="cls-1" d="M17.75,19.65a.51.51,0,0,1-.22-.47V12.67a.42.42,0,0,1,0-.25.56.56,0,0,1,.33-.19.51.51,0,0,1,.32.19c.05.06,0,.18,0,.28v6.46a.53.53,0,0,1-.22.49Z"/><path class="cls-1" d="M1.79,19.65a.52.52,0,0,1-.23-.47q0-3.25,0-6.51a.42.42,0,0,1,0-.25.51.51,0,0,1,.32-.19.49.49,0,0,1,.32.19c.06.06,0,.18,0,.28v6.46a.53.53,0,0,1-.23.49Z"/></svg>