<svg id="Layer_1" data-name="Layer 1" xmlns="http://www.w3.org/2000/svg" viewBox="0 0 20 20"><defs><style>.cls-1{fill:#28a3b3;}</style></defs><path class="cls-1" d="M19.65,12.39a.81.81,0,0,1-.84.49c-5.4,0-10.81,0-16.21,0H2.34v.25c0,2.15,0,4.3,0,6.44a.49.49,0,0,1-.18.43H1.93a.49.49,0,0,1-.18-.43c0-2.14,0-4.28,0-6.42v-.27H1.06a.65.65,0,0,1-.71-.7v-.9A.64.64,0,0,1,1,10.62H3.9V10.2c0-.22.11-.36.28-.36s.29.13.29.36v.4H6.28V7.87l-.21.23a.55.55,0,0,1-.84.06l-1-.87a.32.32,0,0,0-.23,0,3.28,3.28,0,0,0-.51.15,1.27,1.27,0,0,0-.89,1.26v1c0,.25-.1.37-.28.37S2,9.92,2,9.68a12.18,12.18,0,0,1,0-1.35A1.72,1.72,0,0,1,3.31,6.84c.51-.17,1-.32,1.55-.48a.54.54,0,0,0,.42-.58.35.35,0,0,0-.1-.19A2,2,0,0,1,4.55,4.1c0-.68,0-1.37,0-2A1.29,1.29,0,0,1,5.93.7H7.32A1.3,1.3,0,0,1,8.6,2c0,.74,0,1.49,0,2.23A1.93,1.93,0,0,1,8,5.52a.52.52,0,0,0,.17.8c.41.14.82.25,1.26.39V5.6a.87.87,0,0,1,1-1H15.5a.85.85,0,0,1,.94.94V8.92a.85.85,0,0,1-.91.92H13.82v.77h5a.79.79,0,0,1,.84.49ZM13.8,9.26h1.68c.31,0,.4-.08.4-.39V5.61c0-.31-.09-.39-.39-.39H10.44c-.32,0-.4.08-.4.4v3.3c0,.24.1.34.35.34h1.72V8.6A.84.84,0,0,1,13,7.79a.83.83,0,0,1,.85.8C13.81,8.81,13.8,9,13.8,9.26ZM10,12.31h8.93c.12,0,.17-.05.17-.17v-.67c0-.29,0-.29-.29-.29H1.09c-.13,0-.18.05-.18.18s0,.46,0,.69,0,.26.27.26Zm-.51-5a.45.45,0,0,0-.64.07c-.27.27-.58.51-.88.76A.55.55,0,0,1,7.1,8.1l-.22-.24V10.6h1.8v-.41c0-.21.12-.35.29-.35s.28.12.28.34,0,.28,0,.42h1.37V9.84H10.4a.86.86,0,0,1-.93-.95ZM5.13,3.49v.68a1.45,1.45,0,0,0,1.3,1.4A1.42,1.42,0,0,0,8,4.35a5.44,5.44,0,0,0,0-.81.17.17,0,0,0,0-.12A1.57,1.57,0,0,0,6.68,3C6.16,3.16,5.65,3.33,5.13,3.49ZM8,2.76C8,2.48,8,2.23,8,2a.73.73,0,0,0-.72-.72q-.73,0-1.47,0a.71.71,0,0,0-.7.6c0,.33,0,.67,0,1l.54-.18a8.38,8.38,0,0,1,1.07-.27A1.92,1.92,0,0,1,8,2.76Zm4.65,7.84h.56v-2A.27.27,0,0,0,13,8.36a.26.26,0,0,0-.27.28C12.67,9.29,12.68,9.94,12.68,10.6Zm-1.47,0h.89V9.85h-.89ZM7.35,6a4.1,4.1,0,0,1-.76.11A3.86,3.86,0,0,1,5.84,6c-.12.18,0,.28.14.37s.34.21.52.3a.15.15,0,0,0,.14,0l.78-.46ZM7,7.17l.52.58L8.42,7l-.61-.26a.12.12,0,0,0-.1,0Zm-.89,0-.65-.39a.13.13,0,0,0-.1,0L4.77,7l.85.72Z"/><path class="cls-1" d="M17.84,20a.46.46,0,0,1-.18-.41V14c0-.07,0-.17,0-.21a.28.28,0,0,1,.52,0c0,.05,0,.15,0,.23v5.58a.46.46,0,0,1-.18.42Z"/></svg>