<svg id="Layer_1" data-name="Layer 1" xmlns="http://www.w3.org/2000/svg" viewBox="0 0 20 20"><defs><style>.cls-1{fill:#02539f;}</style></defs><path class="cls-1" d="M.45,18.63a.51.51,0,0,1-.24-.49V8.25c0-.36.11-.47.47-.47H2.73A1.38,1.38,0,0,0,4.05,6.9s0-.08,0-.14H1.63c-.28,0-.43-.13-.43-.41V1.47a.38.38,0,0,1,.42-.42H9.16c.46,0,.55.1.55.56V6.28c0,.38-.11.48-.48.48H6.86a1.25,1.25,0,0,0,1,1,5.09,5.09,0,0,0,.55,0h2.25V7c0-.36.12-.48.47-.48h1.43V6H11.12c-.33,0-.47-.14-.47-.46v-1c0-.34.13-.48.48-.48h5.26c.35,0,.48.14.48.48v.77h1.49c.28,0,.42.13.42.41V6.81c0,.31-.13.44-.45.45H16.89v.52H19.3c.37,0,.49.11.49.48v9.88a.64.64,0,0,1-.22.49H17a.54.54,0,0,1-.24-.5c0-1.6,0-3.2,0-4.81V13H11.2c-.29,0-.42-.13-.42-.43,0-.48,0-1,0-1.46v-.27H8V15.6c0,.56-.08.64-.65.64H3.2v.27c0,.55,0,1.09,0,1.63a.5.5,0,0,1-.25.49ZM2,1.79V6H9V1.79Zm17.1,6.73H1V10.1h18.1ZM2.47,17.88v-7H1v7Zm15.06-7v7h1.52v-7Zm-10.26,0h-4v1.92h4Zm0,2.69h-4v1.93h4Zm9.5-2.69H11.51v1.42h5.26ZM11.39,5.26h4.73V4.77H11.39ZM18,6H13.31v.48H18ZM11.39,7.76h4.73V7.28H11.39Zm-4.9,0L6,6.76H5a.2.2,0,0,0-.15.08c-.13.3-.25.61-.38.92Z"/><path class="cls-1" d="M5.26,12.21a3.13,3.13,0,0,1-.43,0,.3.3,0,0,1-.28-.34.3.3,0,0,1,.27-.33,6,6,0,0,1,.85,0,.3.3,0,0,1,.26.37.33.33,0,0,1-.32.34c-.11,0-.23,0-.35,0Z"/><path class="cls-1" d="M5.27,14.16H5.6a.32.32,0,0,1,.33.32.33.33,0,0,1-.27.4,4.58,4.58,0,0,1-.83,0,.3.3,0,0,1-.28-.34.34.34,0,0,1,.3-.35c.14,0,.28,0,.42,0Z"/><path class="cls-1" d="M14.21,11.2l.28,0a.34.34,0,0,1,.34.36.32.32,0,0,1-.32.35,6.4,6.4,0,0,1-.76,0,.31.31,0,0,1-.31-.34.33.33,0,0,1,.31-.35l.46,0Z"/></svg>