<svg id="Layer_1" data-name="Layer 1" xmlns="http://www.w3.org/2000/svg" viewBox="0 0 20 20"><defs><style>.cls-1{fill:#02539f;}</style></defs><path class="cls-1" d="M12.31,16.09a3.37,3.37,0,0,0,.42,1.3c.07.12.15.22.21.33a.51.51,0,0,0,.54.28.51.51,0,0,1,.56.5.52.52,0,0,1-.57.52h-7a.51.51,0,0,1-.51-.7.46.46,0,0,1,.5-.32.54.54,0,0,0,.57-.3,3.57,3.57,0,0,0,.61-1.61H2.19A1.4,1.4,0,0,1,.68,14.58V4.23a1.4,1.4,0,0,1,1.5-1.5H6.07a.33.33,0,0,0,.28-.12,4.9,4.9,0,0,1,7.29,0,.34.34,0,0,0,.31.13h3.86a1.4,1.4,0,0,1,1.51,1.51V14.58a1.4,1.4,0,0,1-1.51,1.51h-5.5ZM1.71,13H18.29V4.23c0-.35-.12-.47-.47-.47H14.46A4.85,4.85,0,0,1,13.1,9.69a4.7,4.7,0,0,1-5.48.5c-2.48-1.53-3-3.75-2.1-6.43H2.22c-.4,0-.51.11-.51.51V13Zm4.4-7.11A3.89,3.89,0,1,0,10,2,3.91,3.91,0,0,0,6.11,5.88ZM1.71,14v.49c0,.43.1.53.53.53H18a.33.33,0,0,0,.32-.31c0-.23,0-.47,0-.71ZM11.89,18a4.68,4.68,0,0,1-.62-1.89H8.73A4.57,4.57,0,0,1,8.12,18Z"/><path class="cls-1" d="M10.51,4.87c0,.41,0,.83,0,1.24a.52.52,0,0,1-.52.58.51.51,0,0,1-.5-.57V3.61A.52.52,0,0,1,10,3a.51.51,0,0,1,.5.57C10.52,4,10.51,4.45,10.51,4.87Z"/><path class="cls-1" d="M10.51,8.24a.51.51,0,0,1-.51.51.52.52,0,0,1,0-1A.51.51,0,0,1,10.51,8.24Z"/></svg>