<svg xmlns="http://www.w3.org/2000/svg" width="17.624" height="24" viewBox="0 0 22.03 30">
  <defs>
    <style>
      .cls-1 {
        fill: #0073df;
        fill-rule: evenodd;
      }
    </style>
  </defs>
  <path class="cls-1" d="M1303.8,759.033c-0.9-2.054-1.79-4.11-2.76-6.133a4.745,4.745,0,0,0-4.41-2.813c-0.73-.026-1.45,0-2.18,0-0.17,0-.34.028-0.38-0.226-0.07-.422-0.16-0.839-0.26-1.256-0.05-.218,0-0.307.25-0.3,0.53,0.015,1.07.012,1.61,0a2.674,2.674,0,0,0,2.62-2.479,2.625,2.625,0,0,0-2.25-2.763,21.157,21.157,0,0,0-2.95-.049,0.434,0.434,0,0,1-.53-0.423,3.977,3.977,0,0,0-.79-2.223,0.447,0.447,0,0,1-.07-0.646,3.146,3.146,0,0,0-.35-3.563,3.258,3.258,0,0,0-3.46-1,3.062,3.062,0,0,0-2.23,2.543,3.027,3.027,0,0,0,1.29,3.07,0.391,0.391,0,0,1,.19.555,1.846,1.846,0,0,0-.11,1.012c0.18,0.936.34,1.874,0.6,2.794,0.04,0.106-.04.144-0.11,0.164a7.3,7.3,0,0,0-1.76,1.191,10.205,10.205,0,0,0-3.34,10.871,10.733,10.733,0,0,0,17.15,5.175,0.4,0.4,0,0,1,.53-0.065,2.2,2.2,0,0,0,.98.3A2.652,2.652,0,0,0,1303.8,759.033Zm-16.86-20.818a1.915,1.915,0,1,1,1.92,1.861A1.893,1.893,0,0,1,1286.94,738.215Zm1.87,10.26a0.5,0.5,0,0,1-.24.6,6.688,6.688,0,0,0,.91,11.357,6.7,6.7,0,0,0,6.97-.291,6.086,6.086,0,0,0,1.77-1.638c0.37,0.813.7,1.565,1.04,2.314a0.315,0.315,0,0,1-.16.394,9.441,9.441,0,0,1-15.39-4.111,9.2,9.2,0,0,1,4.25-10.594m7.96,8.871a0.448,0.448,0,0,1,.51.323c0.22,0.543.47,1.076,0.72,1.6a0.453,0.453,0,0,1-.07.539,5.641,5.641,0,0,1-5.88,1.9,5.453,5.453,0,0,1-2.47-9.106c0.22,1.039.42,2,.63,2.954a2.156,2.156,0,0,0,2.25,1.794C1293.05,755.392,1294.48,755.4,1295.92,755.381Zm6.41,5.685a1.352,1.352,0,0,1-1.52.3,1.414,1.414,0,0,1-.75-0.782c-0.85-1.9-1.72-3.8-2.55-5.71a1.157,1.157,0,0,0-1.26-.8c-0.74.039-1.48,0.009-2.22,0.009-0.78,0-1.56,0-2.35,0a0.9,0.9,0,0,1-1.06-.833q-1.125-5.436-2.24-10.874a1.366,1.366,0,1,1,2.67-.58c0.16,0.692.31,1.389,0.43,2.09a0.438,0.438,0,0,0,.53.432c1.18-.023,2.37-0.018,3.56,0a1.326,1.326,0,0,1,1.39,1.2,1.348,1.348,0,0,1-1.37,1.484c-1.03.014-2.06,0.011-3.09,0-0.28,0-.37.029-0.3,0.349,0.27,1.208.51,2.423,0.75,3.639a0.4,0.4,0,0,0,.5.395c1.04-.024,2.08-0.026,3.13,0a3.478,3.478,0,0,1,3.28,2.08c0.95,2,1.82,4.035,2.71,6.057A1.316,1.316,0,0,1,1302.33,761.066Z" transform="translate(-1282 -735)"/>
</svg>
