<svg xmlns="http://www.w3.org/2000/svg" width="24" height="24" viewBox="0 0 24 24">
  <defs>
    <style>
      .cls-1 {
        fill: #0073df;
        fill-rule: evenodd;
      }
    </style>
  </defs>
  <path id="done" class="cls-1" d="M1024.47,313A10.5,10.5,0,1,1,1035,302.535,10.5,10.5,0,0,1,1024.47,313Zm0.03-19.329a8.819,8.819,0,1,0,8.83,8.825A8.848,8.848,0,0,0,1024.5,293.671Zm5.09,6.684q-2.91,2.763-5.84,5.511a0.875,0.875,0,0,1-1.39-.023q-1.5-1.521-2.96-3.071a0.836,0.836,0,1,1,1.17-1.172c0.75,0.754,1.51,1.5,2.23,2.288,0.25,0.277.38,0.228,0.61,0,1.61-1.54,3.22-3.066,4.83-4.6a2.007,2.007,0,0,1,.56-0.42,0.814,0.814,0,0,1,1.16.767A0.912,0.912,0,0,1,1029.59,300.355Z" transform="translate(-1012.5 -290.5)"/>
</svg>
