<svg id="Layer_1" data-name="Layer 1" xmlns="http://www.w3.org/2000/svg" viewBox="0 0 20 20"><defs><style>.cls-1{fill:#02539f;}</style></defs><path class="cls-1" d="M10.23.29l0,0a1.09,1.09,0,0,1,.82,1.14V11.69l.17-.16c.76-.77,1.52-1.53,2.29-2.29A1.08,1.08,0,1,1,15,10.83c-.8.79-1.59,1.59-2.38,2.39L10.85,15a1.09,1.09,0,0,1-1.7,0L5,10.82a1.09,1.09,0,0,1,.09-1.7,1.08,1.08,0,0,1,1.42.14l2.25,2.25.19.18v-.26c0-3.25,0-6.51,0-9.76A1.25,1.25,0,0,1,9.77.29Z"/><path class="cls-1" d="M.29,14.1c0-.07.05-.13.08-.19a1.08,1.08,0,0,1,2.08.38,13.85,13.85,0,0,0,0,1.44,2.13,2.13,0,0,0,2,1.82H15.34A2.15,2.15,0,0,0,17.45,16a2.76,2.76,0,0,0,.1-.64c0-.36,0-.73,0-1.1a1.09,1.09,0,0,1,1.08-1.07,1.07,1.07,0,0,1,1.08,1.07,13.22,13.22,0,0,1-.08,1.89A4.26,4.26,0,0,1,16,19.67a5.46,5.46,0,0,1-.57,0H4.63A4.32,4.32,0,0,1,.34,16.08a2,2,0,0,0-.05-.24Z"/></svg>