<svg xmlns="http://www.w3.org/2000/svg" width="43" height="43" viewBox="0 0 43 43">
  <defs>
    <style>
      .cls-1 {
        fill: #0073df;
        stroke: #f0f0f0;
        stroke-width: 1px;
        fill-rule: evenodd;
      }
    </style>
  </defs>
  <path id="download" class="cls-1" d="M1587,535a21,21,0,1,1-21,21A21,21,0,0,1,1587,535Zm7.59,20.92-6.66,6.672a1.324,1.324,0,0,1-1.88,0l-6.66-6.672a1.332,1.332,0,1,1,1.88-1.887l4.38,4.384V544.333a1.33,1.33,0,1,1,2.66,0v14.109l4.4-4.409A1.332,1.332,0,1,1,1594.59,555.92ZM1578.5,565h17a1.5,1.5,0,0,1,0,3h-17A1.5,1.5,0,0,1,1578.5,565Z" transform="translate(-1565.5 -534.5)"/>
</svg>
