<svg xmlns="http://www.w3.org/2000/svg" width="60" height="60.002" viewBox="0 0 66.028 66.031">
  <defs>
    <style>
      .cls-1 {
        fill: #fff;
        fill-rule: evenodd;
      }
    </style>
  </defs>
  <path id="driver" class="cls-1" d="M884.042,331.571c7.064-8.1,16.855-8.089,23.906.028,1.168-.918,1.285-2.312,1.6-3.616a18.215,18.215,0,0,0-27.11-.016C882.766,329.264,882.864,330.669,884.042,331.571Zm29.992,5.222a5.552,5.552,0,0,0-3.484-.661,3.919,3.919,0,0,1-2.442-.311c-6.411-1.738-12.865-2.481-19.471-1.155-2.194.44-4.331,1.223-6.608,1.241a9.636,9.636,0,0,0-4.067.775,18.129,18.129,0,0,0,8.014,19.194c6.465,4.094,13.224,4.171,19.759.157C912.427,351.921,915.438,344.617,914.034,336.793ZM885.167,349.9c-1.288.36-1.941-1.968-2.629-3.28a15.447,15.447,0,0,1-1.319-4.816c-0.161-1,.152-1.213,1.147-1.019,3.035,0.59,4.7,2.224,4.653,5.049C886.881,347.238,886.478,349.532,885.167,349.9Zm17.648,3.739a15.007,15.007,0,0,1-13.748-.051c-1.444-.708-1.246-1.3-0.075-2.1,1.889-1.292,3.748-1.821,7.23-1.818a10.331,10.331,0,0,1,6.646,1.981C903.858,352.371,904.254,352.95,902.815,353.637Zm7.9-11.9a14.834,14.834,0,0,1-3.238,8.055c-0.656.818-1.047,0.767-1.448-.166a26.514,26.514,0,0,1-1.116-2.453,5.05,5.05,0,0,1,5.2-6.574C911.151,340.671,910.673,341.376,910.717,341.741ZM887.486,344.7a2.069,2.069,0,0,1,0,1.692A1.827,1.827,0,0,1,887.486,344.7Zm25.822-6.84a7.506,7.506,0,0,1-1.39-.166,4.415,4.415,0,0,0-1.274-.12l-0.3.036-0.265-.136a5.778,5.778,0,0,1-3.072-5.98l0-.019a7.18,7.18,0,0,1,1.845-4.184l0.166-.167,0.223-.072c3.381-1.1,4.8-.56,6.342,2.383,1.866,3.574,2.2,5.7-.966,8.13l-0.149.114-0.181.051A3.636,3.636,0,0,1,913.308,337.863Zm-2.426-2.249a7.508,7.508,0,0,1,1.39.166,4.02,4.02,0,0,0,1.339.11c1.687-1.324,2.042-2.134.26-5.546-1.021-1.954-1.39-2.262-3.791-1.509a5.567,5.567,0,0,0-1.146,2.932,3.8,3.8,0,0,0,1.809,3.849C910.79,335.614,910.836,335.614,910.882,335.614Zm-31.857,2.228a4.078,4.078,0,0,1-1.39-.242l-0.11-.04-0.1-.064c-2.465-1.635-2.9-2.839-2.007-5.606a16.851,16.851,0,0,1,.741-1.9c1.573-3.4,3.046-4.061,6.567-2.949l0.228,0.073,0.169,0.17a7.133,7.133,0,0,1,1.859,4.177,5.032,5.032,0,0,1-2.776,5.582l-0.15.064c-0.168.055-.335,0.114-0.5,0.173A7.589,7.589,0,0,1,879.025,337.842ZM878.39,335.8a4.078,4.078,0,0,0,2.524-.363c0.152-.053.3-0.106,0.456-0.157a3.09,3.09,0,0,0,1.7-3.528,5.3,5.3,0,0,0-1.16-2.927c-2.377-.727-2.857-0.449-3.983,1.984a14.871,14.871,0,0,0-.655,1.683C876.658,334.385,876.745,334.7,878.39,335.8Zm29.765-30.493A12.253,12.253,0,1,1,895.9,293,12.279,12.279,0,0,1,908.155,305.305Z" transform="translate(-862.986 -293)"/>
</svg>
