<svg xmlns="http://www.w3.org/2000/svg" width="20" height="20" viewBox="0 0 20 20">
  <defs>
    <style>
      .cls-1 {
        fill: #959595;
        fill-rule: evenodd;
      }
    </style>
  </defs>
  <path id="edit" class="cls-1" d="M1146.61,355.5a0.676,0.676,0,0,0-.68.678v6.786a0.683,0.683,0,0,1-.68.679h-12.21a0.677,0.677,0,0,1-.68-0.679V349.392a0.676,0.676,0,0,1,.68-0.678h8.14a0.679,0.679,0,1,0,0-1.357h-8.14a2.035,2.035,0,0,0-2.04,2.035v13.572a2.036,2.036,0,0,0,2.04,2.036h12.21a2.043,2.043,0,0,0,2.04-2.036v-6.786A0.683,0.683,0,0,0,1146.61,355.5Zm2.63-8.74a2.609,2.609,0,0,0-1.84-.761,2.553,2.553,0,0,0-1.83.762l-8.94,8.937a0.713,0.713,0,0,0-.17.266l-1.35,4.071a0.675,0.675,0,0,0,.43.859,0.666,0.666,0,0,0,.42,0l4.08-1.357a0.633,0.633,0,0,0,.26-0.165l8.94-8.938A2.606,2.606,0,0,0,1149.24,346.76Zm-0.96,2.715-8.82,8.822-2.64.88,0.88-2.632,8.82-8.822A1.242,1.242,0,0,1,1148.28,349.475Z" transform="translate(-1130.5 -345.5)"/>
</svg>
