<?xml version="1.0" encoding="utf-8"?>
<!-- Generator: Adobe Illustrator 24.2.1, SVG Export Plug-In . SVG Version: 6.00 Build 0)  -->
<svg version="1.1" id="Layer_1" xmlns="http://www.w3.org/2000/svg" xmlns:xlink="http://www.w3.org/1999/xlink" x="0px" y="0px"
	 viewBox="0 0 83.5 20" style="enable-background:new 0 0 83.5 20;" xml:space="preserve">
<style type="text/css">
	.st0{fill:#0071DC;}
	.st1{fill:#0073DF;}
	.st2{fill-rule:evenodd;clip-rule:evenodd;fill:#0073DF;}
</style>
<g>
	<path class="st0" d="M10,14c0,0.1,0,0.1,0,0.2s0,0.1,0,0.1s0,0.1-0.1,0.1s-0.1,0-0.1,0H6.2c-0.1,0-0.2,0-0.3-0.1S5.8,14.2,5.8,14
		V7.2c0-0.2,0-0.3,0.1-0.3s0.2-0.1,0.3-0.1h3.6c0,0,0.1,0,0.1,0s0,0,0.1,0.1s0,0.1,0,0.1s0,0.1,0,0.2c0,0.1,0,0.1,0,0.2s0,0.1,0,0.1
		s0,0.1-0.1,0.1s-0.1,0-0.1,0h-3v2.4h2.5c0,0,0.1,0,0.1,0s0,0,0.1,0.1s0,0.1,0,0.1s0,0.1,0,0.2c0,0.1,0,0.1,0,0.2s0,0.1,0,0.1
		s0,0.1-0.1,0.1s-0.1,0-0.1,0H6.8v2.7h3c0,0,0.1,0,0.1,0s0,0,0.1,0.1s0,0.1,0,0.1S10,13.9,10,14z"/>
	<path class="st0" d="M15.9,14.3C15.9,14.3,15.9,14.3,15.9,14.3c0,0.1-0.1,0.1-0.1,0.1s-0.1,0-0.1,0s-0.1,0-0.2,0
		c-0.1,0-0.2,0-0.2,0s-0.1,0-0.1,0s-0.1,0-0.1-0.1s0-0.1,0-0.1v-0.7c-0.3,0.3-0.6,0.5-0.9,0.7s-0.6,0.3-1,0.3c-0.4,0-0.7-0.1-1-0.2
		s-0.5-0.4-0.7-0.6s-0.3-0.6-0.4-0.9S11,12.1,11,11.7c0-0.5,0-0.9,0.1-1.2s0.2-0.7,0.4-0.9s0.4-0.5,0.7-0.6s0.6-0.2,1-0.2
		c0.3,0,0.6,0.1,0.8,0.2s0.5,0.3,0.8,0.6V6.5c0,0,0-0.1,0-0.1s0,0,0.1-0.1s0.1,0,0.1,0s0.1,0,0.2,0c0.1,0,0.2,0,0.2,0s0.1,0,0.1,0
		s0.1,0,0.1,0.1s0,0.1,0,0.1V14.3z M14.9,10.6c-0.3-0.3-0.5-0.6-0.8-0.7s-0.5-0.3-0.8-0.3c-0.2,0-0.5,0.1-0.6,0.2s-0.3,0.3-0.4,0.5
		s-0.2,0.4-0.2,0.7c0,0.2-0.1,0.5-0.1,0.7c0,0.3,0,0.5,0.1,0.8s0.1,0.5,0.2,0.7s0.2,0.4,0.4,0.5s0.4,0.2,0.6,0.2
		c0.1,0,0.3,0,0.4-0.1s0.2-0.1,0.4-0.2s0.3-0.2,0.4-0.3s0.3-0.3,0.4-0.5V10.6z"/>
	<path class="st0" d="M18.7,7.2c0,0.2,0,0.4-0.1,0.5s-0.2,0.1-0.5,0.1c-0.2,0-0.4,0-0.5-0.1s-0.1-0.2-0.1-0.5c0-0.2,0-0.4,0.1-0.5
		s0.2-0.1,0.5-0.1c0.2,0,0.4,0,0.5,0.1S18.7,7,18.7,7.2z M18.6,14.3C18.6,14.3,18.6,14.3,18.6,14.3c0,0.1-0.1,0.1-0.1,0.1
		s-0.1,0-0.1,0s-0.1,0-0.2,0c-0.1,0-0.2,0-0.2,0s-0.1,0-0.1,0s-0.1,0-0.1-0.1s0,0,0-0.1V9c0,0,0-0.1,0-0.1s0,0,0.1-0.1s0.1,0,0.1,0
		s0.1,0,0.2,0c0.1,0,0.2,0,0.2,0s0.1,0,0.1,0s0.1,0,0.1,0.1s0,0,0,0.1V14.3z"/>
	<path class="st0" d="M23.2,13.9c0,0.1,0,0.2,0,0.3s0,0.1-0.1,0.1s-0.1,0.1-0.1,0.1s-0.1,0-0.2,0.1s-0.2,0-0.3,0s-0.2,0-0.3,0
		c-0.3,0-0.5,0-0.7-0.1s-0.4-0.2-0.5-0.3s-0.2-0.3-0.3-0.6s-0.1-0.5-0.1-0.8V9.6h-0.7c-0.1,0-0.1,0-0.1-0.1s-0.1-0.2-0.1-0.3
		c0-0.1,0-0.1,0-0.2s0-0.1,0-0.1s0-0.1,0.1-0.1s0.1,0,0.1,0h0.7V7.6c0,0,0-0.1,0-0.1s0,0,0.1-0.1s0.1,0,0.1,0s0.1,0,0.2,0
		c0.1,0,0.2,0,0.2,0s0.1,0,0.1,0s0.1,0,0.1,0.1s0,0,0,0.1v1.3H23c0,0,0.1,0,0.1,0s0,0,0.1,0.1s0,0.1,0,0.1s0,0.1,0,0.2
		c0,0.1,0,0.2-0.1,0.3S23,9.6,23,9.6h-1.4v2.9c0,0.4,0.1,0.6,0.2,0.8s0.3,0.3,0.6,0.3c0.1,0,0.2,0,0.2,0s0.1,0,0.2-0.1
		s0.1,0,0.1-0.1s0.1,0,0.1,0c0,0,0,0,0.1,0s0,0,0,0.1s0,0.1,0,0.1S23.2,13.8,23.2,13.9z"/>
	<path class="st0" d="M31.3,12.3c0,0.4-0.1,0.7-0.2,0.9s-0.3,0.5-0.5,0.7s-0.5,0.3-0.8,0.4c-0.3,0.1-0.7,0.1-1,0.1
		c-0.3,0-0.5,0-0.7-0.1s-0.4-0.1-0.6-0.2s-0.3-0.1-0.4-0.2s-0.2-0.1-0.2-0.2s-0.1-0.1-0.1-0.2s0-0.2,0-0.3c0-0.1,0-0.2,0-0.2
		s0-0.1,0-0.1s0-0.1,0.1-0.1s0.1,0,0.1,0c0.1,0,0.1,0,0.2,0.1s0.2,0.1,0.4,0.2s0.3,0.2,0.6,0.2s0.5,0.1,0.8,0.1c0.2,0,0.4,0,0.6-0.1
		s0.3-0.1,0.5-0.2c0.1-0.1,0.2-0.2,0.3-0.4s0.1-0.3,0.1-0.5c0-0.2,0-0.4-0.1-0.6s-0.2-0.3-0.4-0.4c-0.2-0.1-0.3-0.2-0.5-0.3
		s-0.4-0.2-0.6-0.3s-0.4-0.2-0.6-0.3s-0.4-0.3-0.5-0.4S27.1,9.7,27,9.5S26.9,9,26.9,8.7c0-0.3,0.1-0.6,0.2-0.8s0.3-0.5,0.5-0.6
		s0.4-0.3,0.7-0.4s0.6-0.1,0.9-0.1c0.2,0,0.3,0,0.5,0c0.2,0,0.3,0.1,0.5,0.1S30.4,7,30.6,7s0.2,0.1,0.2,0.1s0.1,0.1,0.1,0.1
		s0,0,0,0.1s0,0.1,0,0.1s0,0.1,0,0.2c0,0.1,0,0.1,0,0.2s0,0.1,0,0.1s0,0.1,0,0.1s0,0-0.1,0c0,0-0.1,0-0.2-0.1s-0.2-0.1-0.3-0.2
		s-0.3-0.1-0.5-0.2c-0.2-0.1-0.4-0.1-0.6-0.1c-0.2,0-0.4,0-0.6,0.1s-0.3,0.1-0.4,0.2S28,8.1,28,8.2s-0.1,0.3-0.1,0.4
		c0,0.2,0,0.4,0.1,0.5s0.2,0.3,0.4,0.4s0.3,0.2,0.6,0.3s0.4,0.2,0.6,0.3c0.2,0.1,0.4,0.2,0.6,0.3s0.4,0.3,0.6,0.4
		c0.2,0.2,0.3,0.4,0.4,0.6S31.3,12,31.3,12.3z"/>
	<path class="st0" d="M36.6,14.3c0,0,0,0.1,0,0.1s-0.1,0-0.1,0.1s-0.1,0-0.2,0c-0.1,0-0.2,0-0.2,0s-0.1,0-0.1-0.1s0-0.1,0-0.1v-0.5
		c-0.2,0.2-0.5,0.4-0.8,0.6s-0.6,0.2-0.9,0.2c-0.3,0-0.5,0-0.8-0.1s-0.4-0.2-0.6-0.3s-0.3-0.3-0.4-0.5s-0.1-0.4-0.1-0.7
		c0-0.3,0.1-0.6,0.2-0.8s0.3-0.4,0.5-0.5s0.5-0.3,0.8-0.3s0.7-0.1,1.1-0.1h0.7v-0.4c0-0.2,0-0.4-0.1-0.5s-0.1-0.3-0.2-0.4
		S35.2,9.6,35,9.6s-0.3-0.1-0.6-0.1c-0.2,0-0.5,0-0.6,0.1s-0.4,0.1-0.5,0.2S33.1,9.9,33,10s-0.2,0.1-0.2,0.1c0,0-0.1,0-0.1,0
		s0,0-0.1-0.1s0-0.1,0-0.1s0-0.1,0-0.2c0-0.1,0-0.2,0-0.2s0-0.1,0.1-0.2s0.1-0.1,0.3-0.2s0.3-0.1,0.4-0.2s0.4-0.1,0.6-0.1
		s0.4-0.1,0.6-0.1c0.4,0,0.7,0,1,0.1s0.5,0.2,0.6,0.4s0.3,0.4,0.4,0.6s0.1,0.5,0.1,0.9V14.3z M35.7,11.9h-0.8c-0.3,0-0.5,0-0.7,0.1
		s-0.4,0.1-0.5,0.2s-0.2,0.2-0.3,0.3s-0.1,0.3-0.1,0.4c0,0.3,0.1,0.5,0.3,0.7s0.4,0.2,0.7,0.2c0.3,0,0.5-0.1,0.7-0.2
		s0.4-0.3,0.7-0.6V11.9z"/>
	<path class="st0" d="M39.4,14.3C39.4,14.3,39.4,14.3,39.4,14.3c0,0.1-0.1,0.1-0.1,0.1s-0.1,0-0.1,0s-0.1,0-0.2,0
		c-0.1,0-0.2,0-0.2,0s-0.1,0-0.1,0s-0.1,0-0.1-0.1s0,0,0-0.1V6.4c0,0,0-0.1,0-0.1s0,0,0.1-0.1s0.1,0,0.1,0s0.1,0,0.2,0
		c0.1,0,0.2,0,0.2,0s0.1,0,0.1,0s0.1,0,0.1,0.1s0,0.1,0,0.1V14.3z"/>
	<path class="st0" d="M45.1,14.3c0,0,0,0.1,0,0.1s-0.1,0-0.1,0.1s-0.1,0-0.2,0c-0.1,0-0.2,0-0.2,0s-0.1,0-0.1-0.1s0-0.1,0-0.1v-0.5
		c-0.2,0.2-0.5,0.4-0.8,0.6s-0.6,0.2-0.9,0.2c-0.3,0-0.5,0-0.8-0.1s-0.4-0.2-0.6-0.3s-0.3-0.3-0.4-0.5s-0.1-0.4-0.1-0.7
		c0-0.3,0.1-0.6,0.2-0.8s0.3-0.4,0.5-0.5s0.5-0.3,0.8-0.3s0.7-0.1,1.1-0.1h0.7v-0.4c0-0.2,0-0.4-0.1-0.5S44,9.9,43.9,9.8
		s-0.2-0.2-0.4-0.2S43.2,9.5,43,9.5c-0.2,0-0.5,0-0.6,0.1S42,9.7,41.8,9.8s-0.3,0.1-0.4,0.2s-0.2,0.1-0.2,0.1c0,0-0.1,0-0.1,0
		s0,0-0.1-0.1s0-0.1,0-0.1s0-0.1,0-0.2c0-0.1,0-0.2,0-0.2s0-0.1,0.1-0.2s0.1-0.1,0.3-0.2s0.3-0.1,0.4-0.2s0.4-0.1,0.6-0.1
		s0.4-0.1,0.6-0.1c0.4,0,0.7,0,1,0.1s0.5,0.2,0.6,0.4S45,9.6,45,9.9s0.1,0.5,0.1,0.9V14.3z M44.2,11.9h-0.8c-0.3,0-0.5,0-0.7,0.1
		s-0.4,0.1-0.5,0.2s-0.2,0.2-0.3,0.3s-0.1,0.3-0.1,0.4c0,0.3,0.1,0.5,0.3,0.7s0.4,0.2,0.7,0.2c0.3,0,0.5-0.1,0.7-0.2
		s0.4-0.3,0.7-0.6V11.9z"/>
	<path class="st0" d="M50,9.3c0,0.1,0,0.2,0,0.2s0,0.1,0,0.1s0,0.1,0,0.1s0,0-0.1,0s-0.1,0-0.1,0s-0.1,0-0.2-0.1s-0.1,0-0.2,0
		s-0.1,0-0.2,0c-0.1,0-0.2,0-0.3,0.1s-0.2,0.1-0.3,0.2s-0.2,0.2-0.3,0.4s-0.2,0.3-0.4,0.5v3.5c0,0,0,0.1,0,0.1s0,0-0.1,0.1
		s-0.1,0-0.1,0s-0.1,0-0.2,0c-0.1,0-0.2,0-0.2,0s-0.1,0-0.1,0s-0.1,0-0.1-0.1s0,0,0-0.1V9c0,0,0-0.1,0-0.1s0,0,0.1-0.1s0.1,0,0.1,0
		s0.1,0,0.2,0c0.1,0,0.2,0,0.2,0s0.1,0,0.1,0s0.1,0,0.1,0.1s0,0,0,0.1v0.8c0.1-0.2,0.3-0.4,0.4-0.5s0.2-0.2,0.4-0.3s0.2-0.1,0.3-0.2
		s0.2,0,0.3,0c0.1,0,0.1,0,0.2,0s0.1,0,0.2,0s0.1,0,0.2,0.1s0.1,0,0.1,0.1s0,0,0,0.1s0,0,0,0.1s0,0.1,0,0.1S50,9.3,50,9.3z"/>
	<path class="st0" d="M53.6,14.4l-0.7,1.9c0,0.1-0.1,0.1-0.2,0.1s-0.2,0-0.4,0c-0.1,0-0.2,0-0.2,0s-0.1,0-0.1,0s-0.1-0.1-0.1-0.1
		s0-0.1,0-0.1l0.7-1.8c0,0-0.1,0-0.1-0.1s-0.1-0.1-0.1-0.1l-1.9-5c0-0.1,0-0.1,0-0.2s0-0.1,0-0.1s0.1,0,0.2-0.1s0.2,0,0.3,0
		s0.2,0,0.3,0s0.1,0,0.2,0s0.1,0,0.1,0.1s0,0.1,0.1,0.1l1.5,4.2h0L54.5,9c0-0.1,0.1-0.1,0.1-0.1s0.1,0,0.1,0s0.2,0,0.3,0
		c0.1,0,0.2,0,0.3,0s0.1,0,0.2,0.1s0,0.1,0,0.1s0,0.1,0,0.2L53.6,14.4z"/>
</g>
<g>
	<g>
		<g>
			<path class="st1" d="M73.9,0.8c1.1,1,2.3,1.9,3.4,2.8c1,0.8,2,1.7,3,2.5c0.3,0.2,0.3,0.4,0.1,0.7c-2.8,3.3-5.6,6.6-8.3,9.9
				c-0.7,0.8-1.4,1.7-2.1,2.5c-1.9-1.6-3.7-3.1-5.6-4.7v-0.1c0.3,0.1,0.6,0.2,0.9,0.3c0.6,0.2,1.2,0.4,1.9,0.6
				c1,0.3,1.9-0.2,2.3-1.1s0-1.9-0.8-2.4c-0.9-0.5-1.7-1-2.6-1.5c0,0,0,0-0.1-0.1C68.6,7.1,71.2,4,73.9,0.8z M72,12.8
				c1.5,0,2.7-1.1,2.7-2.6c0-1.6-1.4-3-3-3c-1.5,0-2.7,1.1-2.7,2.5C69.1,11.4,70.4,12.8,72,12.8z"/>
			<path class="st1" d="M58.8,12.3c0-1.9,0-3.7,0-5.5c1.6-0.4,3.1-0.9,4.7-1.3c0.5-0.1,1.1-0.2,1.7-0.1c1.1,0.1,2.2,0.4,3.3,0.6
				c-0.1,0.1-0.1,0.2-0.2,0.3C67.5,7.2,66.8,8.1,66,9c-0.1,0.1-0.3,0.2-0.5,0.2c-0.2,0-0.4,0-0.5,0c-0.4,0-0.6,0.1-0.7,0.5
				c-0.1,0.4,0.1,0.6,0.4,0.8c1.1,0.6,2.2,1.2,3.3,1.9c0.3,0.2,0.6,0.4,0.7,0.7c0.2,0.4,0.1,0.8-0.2,1.2c-0.3,0.4-0.7,0.5-1.2,0.3
				c-1.4-0.4-2.9-0.9-4.2-1.4c-0.5-0.2-0.9-0.6-1.3-1s-0.8-0.6-1.4-0.4C59.9,12,59.4,12.1,58.8,12.3z"/>
		</g>
		<path class="st2" d="M71,9.3c-0.2,0-0.4,0-0.5,0.1C70.3,9.6,70.1,9.8,70,10c-0.2,0.1-0.2,0.2-0.3,0.1s-0.2-0.1-0.3-0.2
			c-0.1-0.1-0.1-0.1,0-0.2c0.5-0.6,1.1-1.3,1.6-1.9c0.1-0.1,0.1-0.1,0.2,0s0.1,0.1,0.2,0.2c0.1,0.1,0.1,0.1,0,0.2
			c-0.1,0.2-0.3,0.4-0.4,0.5c0.2,0,0.3,0,0.4,0.1h0.1c0.1-0.1,0.2-0.2,0.2-0.3c0.1-0.1,0.1-0.1,0.2,0c0.1,0,0.1,0.1,0.2,0.1
			c0.1,0.1,0.1,0.1,0,0.2C72,8.9,71.9,9,71.8,9.1c0,0,0,0,0,0.1c0.3,0.4,0.3,0.8,0.2,1.3c0,0.1-0.1,0.2-0.2,0.3c0.2,0,0.3,0,0.5,0
			c0.4,0,0.8,0,1.1,0c0.2,0,0.3,0,0.5,0c0.1,0,0.1,0,0.1,0.1V11c-0.1,0.1-0.2,0.3-0.3,0.4l-0.1,0.1c-0.3,0-0.5,0-0.8,0
			c-0.3,0-0.5,0-0.8,0c-0.2,0-0.4,0-0.7,0c-0.1,0-0.1,0-0.1,0c-0.1-0.1-0.2-0.1-0.3-0.2c0,0-0.1-0.1,0-0.1c0.1-0.1,0.2-0.3,0.3-0.4
			c0.1-0.2,0.3-0.5,0.2-0.8l0,0c0-0.1-0.1-0.1-0.1,0c-0.2,0.3-0.5,0.6-0.7,0.9c-0.1,0.1-0.1,0.1-0.2,0l-0.1-0.1
			c-0.1-0.1-0.1-0.1,0-0.2c0.2-0.2,0.4-0.5,0.6-0.7C70.8,9.5,70.9,9.4,71,9.3z"/>
	</g>
</g>
</svg>
