<svg id="Layer_1" data-name="Layer 1" xmlns="http://www.w3.org/2000/svg" viewBox="0 0 133 20"><defs><style>.cls-1{font-size:12px;font-family:Poppins-SemiBold, Poppins;font-weight:600;}.cls-1,.cls-2,.cls-3,.cls-4,.cls-5{fill:#00539e;}.cls-2,.cls-3,.cls-4,.cls-5,.cls-6{stroke:#00539e;stroke-miterlimit:10;}.cls-2{stroke-width:0.24px;}.cls-3{stroke-width:0.21px;}.cls-4{stroke-width:0.25px;}.cls-5{stroke-width:0.09px;}.cls-6{fill:none;stroke-width:0.75px;}</style></defs><text class="cls-1" transform="translate(17.07 13.48)">Edit Target</text><path class="cls-2" d="M100.45,18.73l-.11,0a.91.91,0,0,1-.68-.88V12.47a.92.92,0,0,1,.92-.91h3.64a.25.25,0,1,1,0,.5h-3.58a.43.43,0,0,0-.48.48v5.22a.43.43,0,0,0,.47.47h5.23a.43.43,0,0,0,.47-.47V14.17a.25.25,0,0,1,.36-.25.23.23,0,0,1,.14.23V15c0,.92,0,1.85,0,2.78a.93.93,0,0,1-.76,1h-5.62Z"/><path class="cls-2" d="M108.2,11.36a1,1,0,0,1-.31.44l-3.57,3.57a.59.59,0,0,1-.29.16c-.36.06-.71.14-1.07.21a.25.25,0,0,1-.3-.31c.07-.38.14-.76.22-1.13a.51.51,0,0,1,.09-.18l3.75-3.75a.59.59,0,0,1,.85,0l.34.34a.92.92,0,0,1,.29.43Zm-1.78,0-.06.07c-.92.92-1.83,1.84-2.75,2.75a.88.88,0,0,0-.31.57,2.83,2.83,0,0,1-.08.4h.07l.6-.12A.29.29,0,0,0,104,15L107,12l.08,0Zm.38-.37.59.59.28-.28a.07.07,0,0,0,0-.12l-.46-.47a.09.09,0,0,0-.13,0Z"/><path class="cls-3" d="M96.48,2.9a7.43,7.43,0,0,1,7.7,4.47,7.23,7.23,0,0,1,.5,1.89.49.49,0,1,1-1,.12,6.18,6.18,0,0,0-2-3.9,6.31,6.31,0,0,0-4.26-1.64,6.38,6.38,0,0,0-6.06,4.22,6.2,6.2,0,0,0-.25,3.28,6.37,6.37,0,0,0,5,5,6.72,6.72,0,0,0,2,.07.49.49,0,1,1,.1,1,7.34,7.34,0,0,1-7.75-4.75A7,7,0,0,1,91.77,5.4a7,7,0,0,1,3.79-2.31C95.86,3,96.17,3,96.48,2.9Z"/><path class="cls-4" d="M92.74,10.6A4.63,4.63,0,0,1,101.83,9a5.09,5.09,0,0,1,.12.66.58.58,0,1,1-1.15.13,3.33,3.33,0,0,0-2-2.78,3.43,3.43,0,1,0-1.56,6.54l.52,0a.57.57,0,0,1,.12,1.14,4.61,4.61,0,0,1-4.91-3.29C92.85,11.14,92.8,10.87,92.74,10.6Z"/><path class="cls-5" d="M95.59,10.32A1.75,1.75,0,0,1,99,9.72a1.11,1.11,0,0,1,0,.25.22.22,0,0,1-.19.24.23.23,0,0,1-.25-.19,1.25,1.25,0,0,0-.77-1,1.29,1.29,0,1,0-.59,2.47h.2a.21.21,0,0,1,.23.19.22.22,0,0,1-.19.24,1.73,1.73,0,0,1-1.85-1.24C95.63,10.52,95.61,10.42,95.59,10.32Z"/><path class="cls-6" d="M105.26,4l1.21.19.8.13a.59.59,0,0,1,.5.44.59.59,0,0,1-.15.65,2.11,2.11,0,0,1-.23.19L105,7.49a.79.79,0,0,1-.71.19l-2-.32a.4.4,0,0,0-.34.1l-3.61,2.88a.69.69,0,0,1-.67.17.65.65,0,0,1-.29-1.06l.19-.16,3.56-2.84a.43.43,0,0,0,.18-.33c0-.7.09-1.39.13-2.09a.7.7,0,0,1,.29-.53l2.56-2a.64.64,0,0,1,.75-.1.65.65,0,0,1,.35.69C105.35,2.68,105.3,3.32,105.26,4ZM102.61,6.1l1.63.26a.25.25,0,0,0,.18-.06l1.07-.85a.86.86,0,0,0,.07-.1l-1.09-.18a.57.57,0,0,1-.5-.4,1.1,1.1,0,0,1,0-.44c0-.31,0-.62.07-1-.35.28-.64.54-1,.76a.77.77,0,0,0-.35.65C102.68,5.2,102.64,5.64,102.61,6.1Z"/></svg>