<svg xmlns="http://www.w3.org/2000/svg" width="24.352" height="23.375" viewBox="0 0 30.44 29.219">
  <defs>
    <style>
      .cls-1 {
        fill: #0073e0;
        fill-rule: evenodd;
      }
    </style>
  </defs>
  <path id="emailID" class="cls-1" d="M1518.77,380.9a18.177,18.177,0,0,0-9.14,2.319,16.737,16.737,0,0,0-6.37,6.352,17.824,17.824,0,0,0-2.29,8.975,11.757,11.757,0,0,0,1.54,6.084,10.39,10.39,0,0,0,4.36,4.05,14.36,14.36,0,0,0,6.57,1.428,18,18,0,0,0,7.07-1.344l-0.67-3.092a13.209,13.209,0,0,1-5.73,1.176q-4.53,0-6.99-2.252a8.27,8.27,0,0,1-2.47-6.42,14.54,14.54,0,0,1,1.77-7.142,13.245,13.245,0,0,1,11.85-6.941c3.02,0,5.35.745,7.01,2.235a8.059,8.059,0,0,1,2.48,6.3,14.365,14.365,0,0,1-.42,3.429,8.34,8.34,0,0,1-1.24,2.857,2.441,2.441,0,0,1-2.03,1.142,1.4,1.4,0,0,1-1.14-.4,1.822,1.822,0,0,1-.34-1.21,8.587,8.587,0,0,1,.1-1.176l1.58-9.076h-3.92l-0.31,1.748c-0.71-1.344-2.03-2.017-3.95-2.017a6.957,6.957,0,0,0-4.16,1.328,8.967,8.967,0,0,0-2.88,3.513,10.711,10.711,0,0,0-1.04,4.7,5.858,5.858,0,0,0,1.44,4.185,5.213,5.213,0,0,0,3.99,1.529,7.292,7.292,0,0,0,3.25-.756,6.816,6.816,0,0,0,2.52-2.067,3.257,3.257,0,0,0,1.37,2.067,4.982,4.982,0,0,0,2.82.723,6.493,6.493,0,0,0,4.29-1.513,9.581,9.581,0,0,0,2.77-3.966,14.372,14.372,0,0,0,.95-5.21,11.875,11.875,0,0,0-1.52-6.05,10.367,10.367,0,0,0-4.38-4.067,14.747,14.747,0,0,0-6.74-1.445h0Zm-3.86,18.789a2.471,2.471,0,0,1-2.01-.807,3.352,3.352,0,0,1-.67-2.185,6.515,6.515,0,0,1,.52-2.554,5.014,5.014,0,0,1,1.46-1.967,3.377,3.377,0,0,1,2.18-.756,2.727,2.727,0,0,1,2.15.874,3.349,3.349,0,0,1,.77,2.286,5.593,5.593,0,0,1-.59,2.521,4.942,4.942,0,0,1-1.59,1.882,3.781,3.781,0,0,1-2.22.706h0Z" transform="translate(-1500.97 -380.906)"/>
</svg>
