<svg id="Layer_1" data-name="Layer 1" xmlns="http://www.w3.org/2000/svg" viewBox="0 0 20 20"><defs><style>.cls-1{fill:#02539f;}</style></defs><path class="cls-1" d="M19.42,15.36a2.06,2.06,0,0,1-.38.82,1.6,1.6,0,0,1-1.23.61H2.33a1.61,1.61,0,0,1-1.57-.94,1.65,1.65,0,0,1-.17-.72c0-3.3,0-6.61,0-9.91A1.64,1.64,0,0,1,2.26,3.56q7.74,0,15.48,0a1.66,1.66,0,0,1,1.64,1.29.74.74,0,0,0,0,.14ZM2.49,4.66l.1.11L8.8,11a1.64,1.64,0,0,0,2.41,0L17.4,4.78l.1-.12Zm.08,11H17.39l-4.67-4.76a9.31,9.31,0,0,1-.91,1,2.63,2.63,0,0,1-3,.43A4.06,4.06,0,0,1,8,11.68c-.25-.22-.48-.48-.74-.75Zm-.87-.77,4.64-4.73L1.7,5.45Zm12-4.77,4.64,4.73V5.42Z"/></svg>