<svg id="Layer_1" data-name="Layer 1" xmlns="http://www.w3.org/2000/svg" viewBox="0 0 20 20"><defs><style>.cls-1{fill:#02539f;}</style></defs><path class="cls-1" d="M10.52,1c.33.06.66.1,1,.18a6.36,6.36,0,0,1,4.78,5.17,9.34,9.34,0,0,1-.34,3.93,16.22,16.22,0,0,1-2.59,5.13,21.54,21.54,0,0,1-3,3.38c-.26.24-.41.24-.67,0a20.34,20.34,0,0,1-5.22-7.35,10.76,10.76,0,0,1-.8-4.34A6.38,6.38,0,0,1,9,1.12L9.47,1ZM10,11.51A4.12,4.12,0,1,0,5.89,7.44,4.11,4.11,0,0,0,10,11.51Z"/><path class="cls-1" d="M10,6.87l.81-.82.38-.37a.38.38,0,0,1,.57,0,.39.39,0,0,1,0,.57L11,6.9l-.51.49.63.63.57.57a.38.38,0,1,1-.53.54L10,7.93l-.14.14c-.36.36-.71.72-1.08,1.07a.36.36,0,0,1-.47.08.35.35,0,0,1-.16-.43.66.66,0,0,1,.15-.22L9.48,7.38,9.05,7l-.79-.8a.37.37,0,0,1,0-.54.37.37,0,0,1,.56,0C9.19,6.05,9.58,6.45,10,6.87Z"/></svg>