<svg id="Layer_1" data-name="Layer 1" xmlns="http://www.w3.org/2000/svg" viewBox="0 0 20 20"><defs><style>.cls-1{fill:#02539f;}</style></defs><path class="cls-1" d="M10.63,1.07l.92.14a8.77,8.77,0,0,1,4.62,2.34l.17.16c0-.37,0-.69,0-1a.56.56,0,0,1,.84-.44.55.55,0,0,1,.27.48q0,1.26,0,2.52a.54.54,0,0,1-.56.55c-.83,0-1.67,0-2.5,0a.54.54,0,0,1-.56-.56.54.54,0,0,1,.55-.55h1.34a.79.79,0,0,0-.12-.13,7.62,7.62,0,0,0-4.54-2.3A7.8,7.8,0,1,0,17.56,12a8.42,8.42,0,0,0,.25-1.87.56.56,0,0,1,1.09-.25l0,0v.76l0,.16c0,.29-.06.6-.12.89a8.73,8.73,0,0,1-3.31,5.38,8.66,8.66,0,0,1-7.13,1.71,8.51,8.51,0,0,1-4.87-2.7,8.75,8.75,0,0,1-2.3-7.3A8.55,8.55,0,0,1,3.22,4.2a8.78,8.78,0,0,1,5.23-3l.92-.14Z"/><path class="cls-1" d="M12.19,5.19a2.24,2.24,0,0,1,.47.21,1,1,0,0,1,.43.89v8.2a1.09,1.09,0,0,1-.41.91,1.06,1.06,0,0,1-.66.21H8a1,1,0,0,1-1.07-1.06V6.3a1,1,0,0,1,.43-.9,2.24,2.24,0,0,1,.47-.21ZM7.42,10.4v4.1a.53.53,0,0,0,.59.59h4a.53.53,0,0,0,.59-.59V6.3A.53.53,0,0,0,12,5.71H8a.62.62,0,0,0-.19,0,.52.52,0,0,0-.39.55Z"/><path class="cls-1" d="M10,14.74a.52.52,0,0,1,0-1,.51.51,0,0,1,.51.52A.51.51,0,0,1,10,14.74Z"/><path class="cls-1" d="M10.42,6.58H9.94a.26.26,0,0,1-.28-.26.26.26,0,0,1,.28-.26h1a.26.26,0,0,1,.28.26.27.27,0,0,1-.28.26Z"/><path class="cls-1" d="M9.06,6.58a.27.27,0,0,1-.26-.26.26.26,0,1,1,.26.26Z"/></svg>