<svg id="Layer_1" data-name="Layer 1" xmlns="http://www.w3.org/2000/svg" viewBox="0 0 20 20"><defs><style>.cls-1{fill:#02539f;}.cls-2{fill:#fff;stroke:#02539f;stroke-miterlimit:10;stroke-width:0.75px;}</style></defs><path class="cls-1" d="M13.57,2a4.75,4.75,0,0,1,.76.34A1.69,1.69,0,0,1,15,3.78c0,1.4,0,2.8,0,4.2,0,3,0,6.09,0,9.13a1.74,1.74,0,0,1-.68,1.47,1.69,1.69,0,0,1-1.06.35H6.71A1.69,1.69,0,0,1,5,17.21v-.45c0-4.32,0-8.64,0-13a1.69,1.69,0,0,1,.7-1.47A4.75,4.75,0,0,1,6.43,2ZM5.81,10.45v6.67a.86.86,0,0,0,1,1h6.48a.86.86,0,0,0,.95-1V3.78a.86.86,0,0,0-.94-.95H6.75a1.53,1.53,0,0,0-.3,0,.85.85,0,0,0-.64.89Z"/><path class="cls-1" d="M10,17.51a.85.85,0,1,1,.84-.84A.85.85,0,0,1,10,17.51Z"/><path class="cls-1" d="M10.68,4.24H9.9a.44.44,0,0,1-.46-.42A.43.43,0,0,1,9.9,3.4h1.6a.42.42,0,0,1,.45.42.43.43,0,0,1-.45.42Z"/><path class="cls-1" d="M8.46,4.24a.43.43,0,0,1-.41-.42.42.42,0,0,1,.42-.42.42.42,0,0,1,0,.84Z"/><circle class="cls-2" cx="14.46" cy="10.33" r="3.91"/><path class="cls-1" d="M15,9.18c0,.42,0,.83,0,1.25a.51.51,0,1,1-1,0V7.92a.51.51,0,1,1,1,0C15,8.34,15,8.76,15,9.18Z"/><path class="cls-1" d="M15,12.56a.5.5,0,0,1-.51.5.51.51,0,0,1-.51-.51.52.52,0,0,1,.52-.51A.51.51,0,0,1,15,12.56Z"/></svg>