<svg id="Layer_1" data-name="Layer 1" xmlns="http://www.w3.org/2000/svg" viewBox="0 0 20 20"><defs><style>.cls-1{fill:#02539f;}</style></defs><path class="cls-1" d="M10.63,1.07l.92.14a8.77,8.77,0,0,1,4.62,2.34l.17.16c0-.37,0-.69,0-1a.56.56,0,0,1,.84-.44.55.55,0,0,1,.27.48q0,1.26,0,2.52a.54.54,0,0,1-.56.55c-.83,0-1.67,0-2.5,0a.54.54,0,0,1-.56-.56.54.54,0,0,1,.55-.55h1.34a.79.79,0,0,0-.12-.13,7.62,7.62,0,0,0-4.54-2.3A7.8,7.8,0,1,0,17.56,12a8.42,8.42,0,0,0,.25-1.87.56.56,0,0,1,1.09-.25l0,0v.76l0,.16c0,.29-.06.6-.12.89a8.73,8.73,0,0,1-3.31,5.38,8.66,8.66,0,0,1-7.13,1.71,8.51,8.51,0,0,1-4.87-2.7,8.75,8.75,0,0,1-2.3-7.3A8.55,8.55,0,0,1,3.22,4.2a8.78,8.78,0,0,1,5.23-3l.92-.14Z"/><path class="cls-1" d="M4.48,13.05l.14,0H15.38c.14,0,.16,0,.11.17a1.28,1.28,0,0,1-1.08.94,1.84,1.84,0,0,1-.41,0H6A1.89,1.89,0,0,1,5.23,14a1.29,1.29,0,0,1-.7-.78l0-.11Zm4.7.73h1.63V13.4H9.18Z"/><path class="cls-1" d="M10,6.57h4.34a.21.21,0,0,1,.2.2V12.4a.22.22,0,0,1-.18.2l-.16,0H5.79a.52.52,0,0,1-.18,0,.54.54,0,0,1-.15-.18s0-.08,0-.13V6.78a.22.22,0,0,1,.21-.2H10Zm-3.76,5.2h7.5V7.42H6.25Z"/><path class="cls-1" d="M9.18,13.78V13.4h1.63v.38Z"/></svg>