<?xml version="1.0" encoding="utf-8"?>
<!-- Generator: Adobe Illustrator 24.2.1, SVG Export Plug-In . SVG Version: 6.00 Build 0)  -->
<svg version="1.1" id="Layer_1" xmlns="http://www.w3.org/2000/svg" xmlns:xlink="http://www.w3.org/1999/xlink" x="0px" y="0px"
	 viewBox="0 0 67.6 20" style="enable-background:new 0 0 67.6 20;" xml:space="preserve">
<style type="text/css">
	.st0{fill:#4078EB;}
	.st1{fill-rule:evenodd;clip-rule:evenodd;fill:#4078EB;}
</style>
<g id="Layer_2_1_">
	<g id="modify">
		<path class="st0" d="M6.4,14c0,0.2,0,0.3,0,0.4c0,0.1,0,0.2-0.1,0.3c0,0.1-0.1,0.1-0.1,0.1c0,0-0.1,0-0.1,0H0.7
			c-0.2,0-0.3,0-0.5-0.1C0,14.6,0,14.4,0,14.2V4.7c0-0.2,0-0.4,0.2-0.5C0.3,4.1,0.5,4,0.7,4h5.4c0,0,0.1,0,0.1,0
			c0,0,0.1,0.1,0.1,0.2c0,0.1,0.1,0.2,0.1,0.3c0,0.1,0,0.3,0,0.4s0,0.3,0,0.4c0,0.1,0,0.2-0.1,0.3c0,0.1-0.1,0.1-0.1,0.2
			c0,0-0.1,0-0.1,0H2.2v2.7h3.3c0,0,0.1,0,0.1,0c0,0,0.1,0.1,0.1,0.1c0,0.1,0.1,0.2,0.1,0.3c0,0.1,0,0.2,0,0.4s0,0.3,0,0.4
			c0,0.1,0,0.2-0.1,0.3c0,0.1-0.1,0.1-0.1,0.1c0,0-0.1,0-0.1,0H2.2v3.1h3.9c0,0,0.1,0,0.1,0c0,0,0.1,0.1,0.1,0.1
			c0,0.1,0.1,0.2,0.1,0.3C6.4,13.8,6.4,13.9,6.4,14z"/>
		<path class="st0" d="M14.8,14.5c0,0.1,0.1,0.1,0.1,0.2c0,0.1-0.1,0.1-0.1,0.1c-0.1,0-0.2,0.1-0.4,0.1c-0.2,0-0.4,0-0.6,0h-0.6
			c-0.1,0-0.2,0-0.4-0.1c-0.1,0-0.1-0.1-0.2-0.1c0,0-0.1-0.1-0.1-0.1L11.1,12l-1.4,2.7c0,0-0.1,0.1-0.1,0.1c-0.1,0-0.1,0.1-0.2,0.1
			c-0.1,0-0.2,0-0.3,0.1H8.5c-0.2,0-0.4,0-0.6,0c-0.1,0-0.2,0-0.3-0.1c-0.1,0-0.1-0.1-0.1-0.1c0-0.1,0-0.2,0.1-0.2l2.1-3.7L7.7,7.3
			c0-0.1-0.1-0.2-0.1-0.3c0-0.1,0-0.1,0.1-0.2C7.9,6.8,8,6.8,8.1,6.8h0.6h0.6h0.4c0.1,0,0.1,0,0.2,0.1c0,0,0.1,0.1,0.1,0.1l1.3,2.5
			L12.6,7c0,0,0-0.1,0.1-0.1c0,0,0.1-0.1,0.2-0.1c0.1,0,0.2,0,0.3,0c0.2,0,0.3,0,0.5,0c0.2,0,0.4,0,0.6,0c0.1,0,0.2,0,0.3,0.1
			c0.1,0,0.1,0.1,0.1,0.2c0,0.1-0.1,0.2-0.1,0.3l-1.9,3.4L14.8,14.5z"/>
		<path class="st0" d="M23.7,10.8c0,0.6-0.1,1.2-0.2,1.8c-0.1,0.5-0.3,1-0.6,1.4c-0.3,0.4-0.6,0.7-1,0.9c-0.4,0.2-0.9,0.3-1.4,0.3
			c-0.2,0-0.4,0-0.6-0.1c-0.2,0-0.4-0.1-0.5-0.2c-0.2-0.1-0.3-0.2-0.5-0.3c-0.2-0.1-0.4-0.3-0.5-0.5v3.5c0,0.1,0,0.1,0,0.2
			c0,0.1-0.1,0.1-0.2,0.1c-0.1,0-0.2,0.1-0.3,0.1c-0.3,0-0.7,0-1,0c-0.1,0-0.2,0-0.3-0.1c-0.1,0-0.1-0.1-0.2-0.1c0-0.1,0-0.1,0-0.2
			V7.1c0,0,0-0.1,0-0.1c0,0,0.1-0.1,0.1-0.1c0.1,0,0.1-0.1,0.2-0.1h0.4h0.4c0.1,0,0.2,0,0.3,0.1c0.1,0,0.1,0.1,0.1,0.1
			c0,0,0,0.1,0,0.1V8c0.2-0.2,0.4-0.4,0.6-0.6C18.8,7.2,19,7.1,19.2,7c0.2-0.1,0.5-0.2,0.8-0.3c0.2-0.1,0.5-0.1,0.7-0.1
			c0.5,0,1,0.1,1.4,0.3c0.4,0.2,0.7,0.5,0.9,0.9c0.3,0.4,0.4,0.8,0.5,1.3C23.7,9.7,23.8,10.2,23.7,10.8z M21.5,10.9
			c0-0.3,0-0.6-0.1-0.9c0-0.3-0.1-0.5-0.2-0.8C21.1,9,21,8.8,20.8,8.7c-0.2-0.1-0.4-0.2-0.7-0.2c-0.1,0-0.3,0-0.4,0.1
			c-0.1,0-0.3,0.1-0.4,0.2c-0.2,0.1-0.3,0.2-0.4,0.4c-0.2,0.2-0.3,0.4-0.5,0.6v2.5c0.2,0.3,0.5,0.6,0.9,0.9c0.2,0.2,0.5,0.3,0.8,0.3
			c0.3,0,0.5-0.1,0.7-0.2c0.2-0.1,0.4-0.3,0.5-0.6c0.1-0.2,0.2-0.5,0.3-0.8C21.5,11.5,21.5,11.2,21.5,10.9L21.5,10.9z"/>
		<path class="st0" d="M33,10.8c0,0.6-0.1,1.2-0.3,1.8c-0.1,0.5-0.4,1-0.8,1.4c-0.4,0.4-0.8,0.7-1.3,0.9c-1.2,0.4-2.4,0.4-3.5,0
			c-1-0.3-1.7-1.1-2-2.1C25,12.1,25,11.5,25,10.9c0-0.6,0.1-1.2,0.3-1.8c0.1-0.5,0.4-1,0.7-1.4c0.4-0.4,0.8-0.7,1.3-0.9
			c0.6-0.2,1.2-0.3,1.8-0.3c0.6,0,1.2,0.1,1.8,0.3c0.5,0.2,0.9,0.4,1.2,0.8C32.4,8,32.6,8.5,32.8,9C32.9,9.6,33,10.2,33,10.8z
			 M30.8,10.9c0-0.3,0-0.7-0.1-1c0-0.3-0.1-0.6-0.3-0.8c-0.1-0.2-0.3-0.4-0.6-0.5c-0.3-0.1-0.6-0.2-0.9-0.2c-0.3,0-0.6,0.1-0.8,0.2
			c-0.2,0.1-0.4,0.3-0.6,0.5c-0.2,0.2-0.3,0.5-0.3,0.8c-0.1,0.3-0.1,0.7-0.1,1.1c0,0.3,0,0.7,0.1,1c0.1,0.3,0.2,0.6,0.3,0.8
			c0.1,0.2,0.3,0.4,0.6,0.5c0.3,0.1,0.6,0.2,0.9,0.2c0.3,0,0.6-0.1,0.8-0.2c0.2-0.1,0.4-0.3,0.6-0.5c0.2-0.2,0.3-0.5,0.3-0.8
			C30.8,11.6,30.8,11.2,30.8,10.9L30.8,10.9z"/>
		<path class="st0" d="M39.5,7.8c0,0.2,0,0.4,0,0.5c0,0.1,0,0.2,0,0.3c0,0.1,0,0.1-0.1,0.2c0,0-0.1,0-0.1,0c0,0-0.1,0-0.2,0
			l-0.2-0.1l-0.2-0.1c-0.1,0-0.2,0-0.3,0c-0.1,0-0.3,0-0.4,0.1c-0.1,0.1-0.3,0.1-0.4,0.2c-0.1,0.1-0.3,0.3-0.4,0.4
			c-0.2,0.2-0.3,0.4-0.5,0.6v4.7c0,0.1,0,0.1,0,0.1c0,0.1-0.1,0.1-0.2,0.1c-0.1,0-0.2,0.1-0.3,0.1c-0.2,0-0.3,0-0.5,0
			c-0.2,0-0.3,0-0.5,0c-0.1,0-0.2,0-0.3-0.1c-0.1,0-0.1-0.1-0.2-0.1c0,0-0.1-0.1-0.1-0.1V7.1c0-0.1,0-0.1,0-0.1
			c0-0.1,0.1-0.1,0.2-0.1c0.1,0,0.2-0.1,0.3-0.1h0.4H36c0.1,0,0.2,0,0.3,0.1c0.1,0,0.1,0.1,0.1,0.1c0,0,0,0.1,0,0.1V8
			c0.2-0.2,0.4-0.5,0.6-0.7c0.1-0.2,0.3-0.3,0.5-0.4c0.1-0.1,0.3-0.2,0.5-0.2c0.2,0,0.3-0.1,0.5-0.1h0.2H39l0.2,0.1
			c0.1,0,0.1,0,0.2,0.1c0,0,0,0.1,0.1,0.1c0,0,0,0.1,0,0.1c0,0.1,0,0.2,0,0.3L39.5,7.8z"/>
		<path class="st0" d="M45.3,13.9c0,0.2,0,0.4,0,0.6c0,0.1-0.1,0.2-0.1,0.3c-0.1,0.1-0.1,0.1-0.2,0.1c-0.1,0-0.2,0.1-0.3,0.1
			c-0.1,0-0.3,0.1-0.4,0.1h-0.5c-0.4,0-0.7,0-1.1-0.2c-0.3-0.1-0.6-0.3-0.8-0.5c-0.2-0.2-0.4-0.5-0.5-0.8c-0.1-0.4-0.1-0.8-0.1-1.2
			V8.5h-0.9c-0.1,0-0.3,0-0.3-0.2c0,0,0,0,0,0c0-0.2,0-0.4,0-0.7c0-0.2,0-0.3,0-0.4c0-0.1,0-0.2,0-0.3c0-0.1,0.1-0.1,0.1-0.1
			c0,0,0.1,0,0.2,0h0.9V5.1c0-0.1,0-0.1,0-0.2c0-0.1,0.1-0.1,0.2-0.1c0.1,0,0.3-0.1,0.4-0.1h0.5h0.5c0.1,0,0.2,0,0.3,0.1
			c0.1,0,0.1,0.1,0.2,0.1c0,0.1,0,0.1,0,0.2v1.7h1.6c0,0,0.1,0,0.2,0c0,0,0.1,0.1,0.1,0.1c0,0.1,0,0.2,0.1,0.3c0,0.1,0,0.3,0,0.4
			c0,0.2,0,0.4-0.1,0.7c0,0.1-0.1,0.2-0.3,0.2h-1.6V12c0,0.3,0,0.6,0.2,0.9c0.2,0.2,0.4,0.3,0.7,0.3c0.1,0,0.2,0,0.3,0l0.2-0.1
			l0.2-0.1H45c0,0,0.1,0,0.1,0c0,0,0.1,0.1,0.1,0.1c0,0.1,0,0.2,0,0.2C45.3,13.6,45.3,13.7,45.3,13.9z"/>
		<path id="XLS" class="st1" d="M51.2,11.9c0-2.2,0-4.5,0-6.7c0-0.3,0-0.4,0.4-0.4c0.9,0,1.8,0,2.8,0c0.5,0.1,1-0.3,1.1-0.9
			c0-0.1,0-0.2,0-0.2c0-0.9,0-1.7,0-2.6c0-0.2,0.1-0.3,0.3-0.3h9.4c0.3,0,0.5,0.2,0.5,0.5c0,1.6,0,3.2,0,4.8c0,0.3-0.1,0.4-0.4,0.4
			c-3.4,0-6.8,0-10.2,0c-1,0-1.3,0.3-1.3,1.3V13c0,0.9,0.3,1.3,1.3,1.3c3.4,0,6.8,0,10.2,0c0.3,0,0.4,0.1,0.4,0.4c0,1.3,0,2.7,0,4
			c0,0.5-0.1,0.5-0.6,0.5H51.7c-0.5,0-0.6,0-0.6-0.6V11.9z M51.7,4.1l3.1-2.9v2.6c0,0.3-0.2,0.3-0.4,0.3L51.7,4.1z M67,7H55
			c-0.5,0-0.6,0-0.6,0.6v5.4c0,0.5,0,0.6,0.6,0.6h12c0.6,0,0.6,0,0.6-0.6V7.6C67.6,7.1,67.6,7,67,7z M58.6,12.6
			c-0.2,0.2-0.4,0-0.5-0.2c-0.3-0.4-0.5-0.8-0.8-1.2c-0.1-0.2-0.2-0.3-0.4,0c-0.3,0.4-0.5,0.8-0.8,1.2c-0.1,0.2-0.3,0.4-0.5,0.2
			s-0.2-0.4,0-0.6c0.3-0.5,0.6-1,1-1.4l0.2-0.3l-0.2-0.2l-1-1.5c-0.1-0.2-0.2-0.4,0-0.5s0.4,0,0.5,0.2c0.2,0.4,0.5,0.7,0.7,1.1
			s0.3,0.4,0.5,0l0.7-1.1c0.1-0.2,0.3-0.4,0.5-0.2c0.2,0.2,0.2,0.4,0,0.6C58.3,9.1,58,9.6,57.7,10c-0.2,0.2-0.2,0.5,0,0.6
			c0.3,0.4,0.6,0.9,0.9,1.4C58.8,12.3,58.8,12.4,58.6,12.6L58.6,12.6z M62.2,12.6h-2.4c-0.3,0-0.5-0.1-0.5-0.4c0-0.6,0-1.2,0-1.9
			V8.5c0-0.2,0.1-0.5,0.3-0.4s0.3,0.2,0.3,0.4c0,1,0,2.1,0,3.2c0,0.3,0.1,0.3,0.3,0.3c0.6,0,1.2,0,1.8,0c0.2,0,0.4,0.1,0.4,0.3
			S62.5,12.7,62.2,12.6L62.2,12.6z M66.6,11.7c0,0.5-0.5,0.9-1,0.9h-0.8c-0.3,0-0.6,0-0.9-0.1c-0.3-0.1-0.6-0.4-0.6-0.8
			c0-0.2,0.1-0.3,0.2-0.4c0,0,0,0,0,0l0,0c0.2,0,0.3,0,0.4,0.2c0,0,0,0,0,0.1c0,0.3,0.3,0.4,0.5,0.4s0.6,0,1,0s0.5-0.2,0.5-0.5
			c0-0.8,0-0.8-0.8-0.8c-0.3,0-0.6,0-0.9,0c-0.6,0-1-0.4-1-1c0-0.1,0-0.3,0-0.4c0-0.9,0.3-1.3,1.2-1.3c0.4,0,0.7,0,1.1,0
			c0.5,0,0.9,0.4,0.9,0.9c0,0.2,0,0.4-0.3,0.4c-0.2,0-0.3-0.1-0.4-0.2c0,0,0-0.1,0-0.1c0-0.3-0.2-0.4-0.5-0.4h-1
			c-0.3,0-0.4,0.1-0.4,0.4c0,0.1,0,0.3,0,0.4c0,0.4,0.1,0.5,0.5,0.5h1.2c0.6,0,1,0.4,1,1C66.7,11.2,66.7,11.5,66.6,11.7L66.6,11.7z"
			/>
	</g>
</g>
</svg>
