<?xml version="1.0" encoding="utf-8"?>
<!-- Generator: Adobe Illustrator 24.2.1, SVG Export Plug-In . SVG Version: 6.00 Build 0)  -->
<svg version="1.1" id="Layer_1" xmlns="http://www.w3.org/2000/svg" xmlns:xlink="http://www.w3.org/1999/xlink" x="0px" y="0px"
	 viewBox="0 0 65.9 20" style="enable-background:new 0 0 65.9 20;" xml:space="preserve">
<style type="text/css">
	.st0{fill:#4078EB;}
	.st1{fill-rule:evenodd;clip-rule:evenodd;fill:#4078EB;}
</style>
<g id="Layer_2_1_">
	<g id="modify">
		<path class="st0" d="M6.4,13.9c0,0.2,0,0.3,0,0.4c0,0.1,0,0.2-0.1,0.3c0,0.1-0.1,0.1-0.1,0.1s-0.1,0-0.1,0.1H0.7
			c-0.2,0-0.3-0.1-0.5-0.2C0.1,14.5,0,14.3,0,14.1V4.6c0-0.2,0.1-0.4,0.2-0.5s0.3-0.2,0.5-0.2h5.4h0.1L6.3,4c0,0.1,0.1,0.2,0.1,0.3
			s0,0.3,0,0.4s0,0.3,0,0.4c0,0.1,0,0.2-0.1,0.3c0,0.1-0.1,0.1-0.1,0.2H6.1H2.2v2.7h3.3h0.1l0.1,0.1c0,0.1,0,0.2,0.1,0.3
			c0,0.1,0,0.2,0,0.4c0,0.2,0,0.3,0,0.4c0,0.1,0,0.2-0.1,0.3c0,0.1-0.1,0.1-0.1,0.1H5.5H2.2V13h3.9h0.1l0.1,0.1
			c0,0.1,0.1,0.2,0.1,0.3C6.4,13.6,6.4,13.8,6.4,13.9z"/>
		<path class="st0" d="M14.8,14.3c0,0.1,0.1,0.2,0.1,0.2c0,0.1-0.1,0.1-0.1,0.1c-0.1,0-0.2,0.1-0.4,0.1h-0.6h-0.6
			c-0.1,0-0.2,0-0.4-0.1c-0.1,0-0.1-0.1-0.2-0.1l-0.1-0.1l-1.4-2.7l-1.4,2.7c0,0.1,0,0.1-0.1,0.1s-0.1,0.1-0.2,0.1
			c-0.1,0-0.2,0-0.3,0.1H8.5H7.9c-0.1,0-0.2,0-0.3-0.1c-0.1,0-0.1-0.1-0.1-0.1c0-0.1,0-0.2,0.1-0.2l2.1-3.7l-2-3.4
			c0-0.1-0.1-0.2-0.1-0.3c0-0.1,0-0.1,0.1-0.2c0.1,0,0.2-0.1,0.4-0.1s0.4,0,0.6,0h0.6c0.1,0,0.2,0,0.4,0c0.1,0,0.1,0,0.2,0.1L10,6.8
			l1.3,2.5l1.3-2.5c0,0,0-0.1,0.1-0.1c0,0,0.1-0.1,0.2-0.1c0.1,0,0.2,0,0.3-0.1h0.5h0.6c0.1,0,0.2,0,0.3,0.1c0.1,0,0.1,0.1,0.1,0.2
			S14.6,7,14.6,7.1l-1.9,3.4L14.8,14.3z"/>
		<path class="st0" d="M23.7,10.6c0,0.6-0.1,1.2-0.2,1.8c-0.1,0.5-0.3,1-0.6,1.4c-0.3,0.4-0.6,0.7-1,0.9S21,15,20.5,15
			c-0.2,0-0.4,0-0.6-0.1c-0.2,0-0.4-0.1-0.5-0.2c-0.2-0.1-0.3-0.2-0.5-0.3s-0.4-0.3-0.5-0.4v3.5v0.1c0,0.1-0.1,0.1-0.2,0.1
			s-0.2,0.1-0.3,0.1h-0.5h-0.5c-0.1,0-0.2,0-0.3-0.1c-0.1,0-0.1-0.1-0.2-0.1v-0.1V7c0,0,0-0.1,0-0.2l0.1-0.1c0.1,0,0.2-0.1,0.3-0.1
			h0.4h0.4c0.1,0,0.2,0,0.3,0.1C18,6.8,18,6.8,18,6.8s0,0.1,0,0.2v0.9c0.2-0.2,0.4-0.4,0.6-0.6S19,7,19.2,6.9s0.5-0.2,0.7-0.3
			c0.2-0.1,0.5-0.1,0.7-0.1c0.5,0,1,0.1,1.4,0.3c0.4,0.2,0.7,0.5,0.9,0.9c0.3,0.4,0.4,0.8,0.5,1.3C23.7,9.5,23.8,10.1,23.7,10.6z
			 M21.5,10.8c0-0.3,0-0.6-0.1-0.9c0-0.3-0.1-0.5-0.2-0.8c-0.1-0.2-0.3-0.4-0.5-0.6c-0.2-0.1-0.4-0.2-0.7-0.2c-0.1,0-0.3,0-0.4,0.1
			c-0.2,0-0.3,0.1-0.4,0.2C19,8.8,18.9,8.8,18.8,9c-0.2,0.2-0.3,0.4-0.5,0.6v2.5c0.2,0.3,0.5,0.6,0.9,0.9c0.2,0.2,0.5,0.3,0.8,0.3
			s0.5-0.1,0.7-0.2c0.2-0.1,0.4-0.3,0.5-0.6c0.1-0.2,0.2-0.5,0.3-0.8C21.5,11.4,21.5,11.1,21.5,10.8z"/>
		<path class="st0" d="M33,10.8c0,0.6-0.1,1.2-0.3,1.7c-0.1,0.5-0.4,1-0.8,1.4c-0.4,0.4-0.8,0.7-1.3,0.9c-1.2,0.4-2.4,0.4-3.5,0
			c-0.5-0.2-0.9-0.4-1.2-0.8c-0.3-0.4-0.6-0.8-0.7-1.3C25,12,25,11.5,25,10.9c0-0.6,0.1-1.2,0.2-1.7s0.4-1,0.8-1.4s0.8-0.7,1.3-0.9
			c0.6-0.2,1.2-0.3,1.8-0.3c0.6,0,1.2,0.1,1.8,0.3c0.5,0.2,0.9,0.4,1.2,0.8c0.3,0.4,0.6,0.8,0.7,1.3S33,10.1,33,10.8z M30.8,10.8
			c0-0.3,0-0.7-0.1-1c0-0.3-0.1-0.6-0.3-0.8c-0.1-0.2-0.3-0.4-0.6-0.5c-0.5-0.3-1.2-0.3-1.7,0c-0.2,0.1-0.4,0.3-0.6,0.5
			s-0.3,0.5-0.3,0.8c-0.1,0.3-0.1,0.7-0.1,1.1c0,0.3,0,0.7,0.1,1s0.2,0.6,0.3,0.8c0.1,0.2,0.3,0.4,0.6,0.5c0.3,0.1,0.6,0.2,0.9,0.2
			s0.6-0.1,0.8-0.2c0.2-0.1,0.4-0.3,0.6-0.5s0.3-0.5,0.3-0.8C30.8,11.5,30.8,11.1,30.8,10.8L30.8,10.8z"/>
		<path class="st0" d="M39.5,7.7c0,0.2,0,0.4,0,0.5c0,0.1,0,0.2,0,0.3s0,0.1-0.1,0.2h-0.1h-0.2l-0.2-0.1c-0.1,0-0.2,0-0.2-0.1
			c-0.1,0-0.2,0-0.3,0s-0.2,0-0.3,0.1s-0.3,0.1-0.4,0.2c-0.1,0.1-0.3,0.3-0.4,0.4c-0.2,0.2-0.3,0.4-0.5,0.6v4.7c0,0.1,0,0.1,0,0.1
			c0,0.1-0.1,0.1-0.2,0.1c-0.1,0-0.2,0.1-0.3,0.1h-0.5h-0.5c-0.1,0-0.2,0-0.3-0.1c-0.1,0-0.1,0-0.2-0.1l-0.1-0.1V7
			c0-0.1,0-0.1,0-0.2c0,0,0.1-0.1,0.2-0.1c0.1,0,0.2-0.1,0.3-0.1h0.4h0.5c0.1,0,0.2,0,0.3,0.1c0.1,0,0.1,0.1,0.1,0.1s0,0.1,0,0.2
			v0.9c0.2-0.2,0.4-0.5,0.6-0.7c0.1-0.2,0.3-0.3,0.5-0.4c0.1-0.1,0.3-0.2,0.4-0.2c0.2,0,0.3-0.1,0.5-0.1h0.2H39l0.2,0.1l0.2,0.1
			c0,0,0,0.1,0.1,0.1v0.1c0,0.1,0,0.2,0,0.3V7.7z"/>
		<path class="st0" d="M45.3,13.8c0,0.2,0,0.4,0,0.6c0,0.1-0.1,0.2-0.1,0.3c-0.1,0.1-0.1,0.1-0.2,0.1c-0.1,0-0.2,0.1-0.3,0.1
			L44.3,15c-0.2,0-0.3,0-0.5,0c-0.4,0-0.7-0.1-1.1-0.2c-0.3-0.1-0.6-0.3-0.8-0.5s-0.4-0.5-0.5-0.8c-0.1-0.4-0.1-0.8-0.1-1.2V8.4
			h-0.9c-0.1,0-0.2-0.1-0.2-0.2C40,8,40,7.8,40,7.5c0-0.2,0-0.3,0-0.4s0-0.2,0-0.3c0-0.1,0-0.1,0.1-0.1c0,0,0.1,0,0.2,0h0.9V5
			c0,0,0-0.1,0-0.2c0-0.1,0.1-0.1,0.2-0.1c0.1,0,0.2-0.1,0.3-0.1c0.2,0,0.3,0,0.5,0s0.3,0,0.5,0c0.1,0,0.2,0,0.3,0.1
			c0.1,0,0.1,0.1,0.2,0.1c0,0,0,0.1,0,0.2v1.7h1.6c0,0,0.1,0,0.2,0c0,0,0,0.1,0,0.1c0,0.1,0,0.2,0.1,0.3c0,0.1,0,0.3,0,0.4
			c0,0.2,0,0.4-0.1,0.7c-0.1,0.1-0.1,0.2-0.3,0.2h-1.5v3.5c0,0.3,0,0.6,0.2,0.9c0.2,0.2,0.4,0.3,0.7,0.3c0.1,0,0.2,0,0.3,0l0.2-0.1
			l0.2-0.1H45h0.1l0.1,0.1c0,0.1,0,0.2,0,0.2C45.3,13.5,45.3,13.6,45.3,13.8z"/>
		<path id="PGF" class="st1" d="M65.9,5.9c0-0.2-0.1-0.4-0.2-0.5c-1.3-1.3-2.7-2.7-4-4c-0.2-0.2-0.4-0.3-0.6-0.3h-6.8
			c-1,0-1.9,0.8-1.9,1.8l0,0l0,0c0,2.2,0,4.4,0,6.6c0,0.2,0,0.4-0.3,0.4c-0.4,0-0.6,0.3-0.6,0.7l0,0c0,1.6,0,3.1,0,4.7
			c0,0.3,0.2,0.6,0.5,0.6c0.5,0,0.5,0.3,0.4,0.6c0,0.1,0,0.2,0,0.4c0,1,0.8,1.8,1.8,1.8c3.3,0,6.5,0,9.8,0c1,0,1.8-0.8,1.8-1.8v-5.5
			l0,0C65.8,9.6,65.8,7.7,65.9,5.9z M53.5,13.1c0-0.4,0-0.9,0-1.3c0-0.2,0-0.2,0.2-0.3c0.4-0.1,0.8-0.1,1.2,0
			c0.6,0.1,0.8,0.4,0.9,0.9c0.1,0.5-0.3,1-0.8,1.1c-0.1,0.1-0.3,0.1-0.4,0.1c-0.4-0.1-0.5,0.1-0.4,0.5c0,0.1,0,0.2,0,0.3
			c0,0.2-0.2,0.4-0.4,0.4c-0.1,0-0.2,0-0.2-0.1c-0.1-0.1-0.1-0.1-0.1-0.2C53.5,14,53.5,13.5,53.5,13.1z M63.7,17.6
			c-1.5,0-3.1,0-4.6,0h-4.5c-0.5,0.1-1-0.3-1.1-0.9c0-0.2,0-0.4,0.1-0.6c0-0.2,0.2-0.1,0.3-0.1h8.4c0.2,0,0.3,0,0.5,0
			c0.3,0,0.6-0.3,0.6-0.6c0.1-0.9,0-1.8,0-2.7c0-0.6,0-1.2,0-1.8S63.1,10,62.5,10c-2.8,0-5.7,0-8.5,0c-0.3,0-0.4-0.1-0.4-0.4
			c0-2.1,0-4.2,0-6.2c0-0.8,0.3-1.1,1-1.1h6c0.3,0,0.4,0,0.4,0.4c0,0.7,0,1.3,0,2s0.5,1.4,1.3,1.4h0.1c0.7,0,1.4,0,2,0
			c0.2,0,0.3,0.1,0.3,0.3c0,3.5,0,7,0,10.4c0,0.7-0.3,0.9-1,0.9L63.7,17.6z M56.2,13.6v-1.9c0-0.1,0-0.2,0.1-0.2
			c0.7-0.2,1.4-0.1,2,0.2c0.3,0.1,0.5,0.4,0.6,0.8c0.3,0.8,0,1.8-0.9,2.1c-0.2,0.1-0.5,0.1-0.7,0.1c-0.4,0-0.8,0.1-1.1-0.1
			S56.3,13.9,56.2,13.6L56.2,13.6z M59.5,13.1c0-0.4,0-0.9,0-1.3c0-0.2,0.1-0.3,0.2-0.2c0.5,0,1,0,1.5,0c0.3,0,0.2,0.2,0.2,0.3
			s0,0.3-0.2,0.3h-0.5c-0.4,0-0.5,0.2-0.4,0.6c0,0.1,0.1,0.1,0.2,0.1c0.2,0,0.4,0,0.5,0c0.3-0.1,0.4,0.1,0.4,0.4s-0.1,0.2-0.3,0.2
			s-0.7-0.1-0.8,0.1s-0.1,0.6,0,0.8s-0.1,0.4-0.4,0.4s-0.4,0-0.4-0.4S59.5,13.5,59.5,13.1L59.5,13.1z M56.9,13.1c0-0.3,0-0.6,0-0.8
			S57,12,57.2,12c0.4,0,0.7,0.2,0.9,0.5c0.2,0.4,0.2,0.9,0,1.3c-0.2,0.3-0.6,0.5-1,0.4C57,14.1,57,14,57,13.9L56.9,13.1L56.9,13.1z
			 M54.2,12.5c0.1-0.2-0.2-0.5,0.3-0.5s0.6,0.2,0.6,0.5s-0.3,0.6-0.6,0.5l0,0C54,13,54.3,12.8,54.2,12.5z"/>
	</g>
</g>
</svg>
