<?xml version="1.0" encoding="utf-8"?>
<!-- Generator: Adobe Illustrator 25.3.0, SVG Export Plug-In . SVG Version: 6.00 Build 0)  -->
<svg version="1.1" id="Layer_1" xmlns="http://www.w3.org/2000/svg" xmlns:xlink="http://www.w3.org/1999/xlink" x="0px" y="0px"
	 viewBox="0 0 20 20" style="enable-background:new 0 0 20 20;" xml:space="preserve">
<style type="text/css">
	.st0{fill:#FFFFFF;stroke:#FFFFFF;stroke-width:0.6531;stroke-miterlimit:10;}
</style>
<path class="st0" d="M10.8,9.8c-0.2,0-0.3-0.1-0.4-0.2c-0.2-0.2-0.2-0.6,0-0.9l6.9-6.9c0.2-0.2,0.6-0.2,0.9,0c0.2,0.2,0.2,0.6,0,0.9
	l-6.9,6.9C11.2,9.7,11,9.8,10.8,9.8z"/>
<path class="st0" d="M18.4,6.3c-0.3,0-0.6-0.3-0.6-0.6V2.2h-3.4c-0.3,0-0.6-0.3-0.6-0.6C13.7,1.2,14,1,14.4,1h4
	C18.8,1,19,1.2,19,1.6v4C19,6,18.8,6.3,18.4,6.3z"/>
<path class="st0" d="M12.5,19h-5c-4.6,0-6.5-2-6.5-6.5v-5C1,2.9,2.9,1,7.5,1h1.7c0.3,0,0.6,0.3,0.6,0.6c0,0.3-0.3,0.6-0.6,0.6H7.5
	c-3.9,0-5.3,1.4-5.3,5.3v5c0,3.9,1.4,5.3,5.3,5.3h5c3.9,0,5.3-1.4,5.3-5.3v-1.7c0-0.3,0.3-0.6,0.6-0.6c0.3,0,0.6,0.3,0.6,0.6v1.7
	C19,17.1,17.1,19,12.5,19z"/>
</svg>
