<svg id="forward" xmlns="http://www.w3.org/2000/svg" width="84" height="21" viewBox="0 0 84 21">
  <defs>
    <style>
      .cls-1 {
        fill: #108bff;
        stroke: #009cff;
        stroke-linejoin: round;
        stroke-width: 1px;
      }

      .cls-1, .cls-2 {
        fill-rule: evenodd;
      }

      .cls-2 {
        fill: #1da7ff;
      }
    </style>
  </defs>
  <path id="Shape_12_copy_4" data-name="Shape 12 copy 4" class="cls-1" d="M1020.29,188.488a0.4,0.4,0,0,0,.41-0.049l6.16-4.9a0.367,0.367,0,0,0,.14-0.288,0.363,0.363,0,0,0-.14-0.288l-6.16-4.879a0.386,0.386,0,0,0-.41-0.049,0.362,0.362,0,0,0-.22.339v2.563c-7.06.245-7.03,5.387-7.02,7.879v0.3a0.374,0.374,0,0,0,.29.361,0.344,0.344,0,0,0,.1.013,0.392,0.392,0,0,0,.34-0.19c2.08-3.527,3.8-3.7,6.29-3.707v2.556A0.371,0.371,0,0,0,1020.29,188.488Zm-6.45-.695a7.511,7.511,0,0,1,.8-3.478c0.98-1.745,2.88-2.608,5.82-2.636a0.379,0.379,0,0,0,.38-0.373v-2.137l5.16,4.084-5.15,4.1v-2.134a0.352,0.352,0,0,0-.12-0.266,0.389,0.389,0,0,0-.28-0.11C1017.72,184.842,1015.84,185,1013.84,187.793Zm13.08,4.833v-6.918a0.39,0.39,0,0,0-.78,0v6.542h-12.31v-1.274a0.386,0.386,0,0,0-.39-0.376,0.38,0.38,0,0,0-.39.376v1.647a0.38,0.38,0,0,0,.39.377h13.09A0.38,0.38,0,0,0,1026.92,192.626Z" transform="translate(-1010 -175)"/>
  <path id="Forward-2" data-name="Forward" class="cls-2" d="M1035.01,180.614v10.264h1.98V186.54h3.14v-1.632h-3.14v-2.633h4.1v-1.661h-6.08Zm11.28,10.4a4.145,4.145,0,0,0,2.07-.522,3.838,3.838,0,0,0,1.46-1.477,4.314,4.314,0,0,0,.55-2.206,4.511,4.511,0,0,0-.53-2.206,3.756,3.756,0,0,0-1.45-1.478,4.043,4.043,0,0,0-2.04-.522,4.107,4.107,0,0,0-2.05.522,3.732,3.732,0,0,0-1.44,1.478,4.9,4.9,0,0,0-.01,4.412,3.652,3.652,0,0,0,1.41,1.477,3.97,3.97,0,0,0,2.03.522h0Zm0-1.794a1.8,1.8,0,0,1-1.4-.625,2.6,2.6,0,0,1-.56-1.786,2.56,2.56,0,0,1,.57-1.787,1.852,1.852,0,0,1,1.42-.625,1.888,1.888,0,0,1,1.43.625,2.52,2.52,0,0,1,.59,1.787,2.949,2.949,0,0,1-.28,1.323,1.931,1.931,0,0,1-.76.816,1.968,1.968,0,0,1-1.01.272h0Zm7.84-5.22v-1.265h-1.97v8.147h1.97v-4.059a2.183,2.183,0,0,1,.47-1.588,1.973,1.973,0,0,1,1.41-.456h0.52v-2.161a2.634,2.634,0,0,0-1.4.367,2.9,2.9,0,0,0-1,1.015h0Zm13-1.265-1.38,6.191-1.47-6.191h-2.08l-1.5,6.206-1.38-6.206h-2l2.3,8.147h2.14l1.42-5.691,1.43,5.691h2.13l2.28-8.147h-1.89Zm2.79,4.044a5.028,5.028,0,0,0,.47,2.213,3.708,3.708,0,0,0,1.29,1.493,3.211,3.211,0,0,0,1.79.529,3.059,3.059,0,0,0,2.6-1.323v1.191h1.99v-8.147h-1.99v1.162a3.086,3.086,0,0,0-2.58-1.294,3.3,3.3,0,0,0-1.81.515,3.613,3.613,0,0,0-1.29,1.47,4.952,4.952,0,0,0-.47,2.191h0Zm6.15,0.03a2.828,2.828,0,0,1-.28,1.286,2.116,2.116,0,0,1-.76.824,1.993,1.993,0,0,1-1.03.287,1.862,1.862,0,0,1-1.01-.294,2.075,2.075,0,0,1-.76-0.846,2.649,2.649,0,0,1-.29-1.287,2.565,2.565,0,0,1,.29-1.272,2.043,2.043,0,0,1,.75-0.816,1.946,1.946,0,0,1,1.02-.279,1.992,1.992,0,0,1,1.03.286,2.123,2.123,0,0,1,.76.824,2.836,2.836,0,0,1,.28,1.287h0ZM1082.3,184v-1.265h-1.97v8.147h1.97v-4.059a2.183,2.183,0,0,1,.47-1.588,1.957,1.957,0,0,1,1.41-.456h0.52v-2.161a2.7,2.7,0,0,0-1.41.367,2.868,2.868,0,0,0-.99,1.015h0Zm3.55,2.779a4.9,4.9,0,0,0,.48,2.213,3.564,3.564,0,0,0,1.29,1.493,3.219,3.219,0,0,0,1.8.529,3.159,3.159,0,0,0,1.54-.367,2.776,2.776,0,0,0,1.03-.971v1.206h2V180h-2v3.868a2.984,2.984,0,0,0-1.1-.919,3.22,3.22,0,0,0-1.46-.346,3.322,3.322,0,0,0-1.81.515,3.475,3.475,0,0,0-1.29,1.47,4.821,4.821,0,0,0-.48,2.191h0Zm6.15,0.03a2.7,2.7,0,0,1-.28,1.286,2.044,2.044,0,0,1-.76.824,1.993,1.993,0,0,1-1.03.287,1.862,1.862,0,0,1-1.01-.294,2.075,2.075,0,0,1-.76-0.846,2.766,2.766,0,0,1-.29-1.287,2.678,2.678,0,0,1,.29-1.272,2.043,2.043,0,0,1,.75-0.816,1.946,1.946,0,0,1,1.02-.279,1.992,1.992,0,0,1,1.03.286,2.051,2.051,0,0,1,.76.824,2.711,2.711,0,0,1,.28,1.287h0Z" transform="translate(-1010 -175)"/>
</svg>
