<svg xmlns="http://www.w3.org/2000/svg" width="20" height="20" viewBox="0 0 20 20">
  <defs>
    <style>
      .cls-1 {
        fill: #108bff;
        fill-rule: evenodd;
      }
    </style>
  </defs>
  <path id="farword_b" class="cls-1" d="M1138.86,413.984a0.571,0.571,0,0,0,.57-0.066l8.38-6.53A0.491,0.491,0,0,0,1148,407a0.468,0.468,0,0,0-.2-0.384l-8.37-6.506a0.562,0.562,0,0,0-.57-0.065,0.5,0.5,0,0,0-.3.453v3.416c-9.61.327-9.57,7.184-9.56,10.506v0.4a0.51,0.51,0,0,0,.4.482,0.482,0.482,0,0,0,.13.016,0.554,0.554,0,0,0,.47-0.253c2.84-4.7,5.17-4.93,8.56-4.943v3.409A0.512,0.512,0,0,0,1138.86,413.984Zm-8.78-.927a9.883,9.883,0,0,1,1.09-4.637c1.34-2.326,3.93-3.477,7.92-3.514a0.521,0.521,0,0,0,.53-0.5v-2.849l7.01,5.445-7.01,5.461V409.62a0.486,0.486,0,0,0-.15-0.355,0.561,0.561,0,0,0-.38-0.147C1135.37,409.122,1132.81,409.33,1130.08,413.057Zm17.82,6.445v-9.225a0.536,0.536,0,0,0-1.07,0V419h-16.76v-1.7a0.536,0.536,0,0,0-1.07,0v2.2a0.518,0.518,0,0,0,.53.5h17.83A0.52,0.52,0,0,0,1147.9,419.5Z" transform="translate(-1128.47 -400)"/>
</svg>
