<?xml version="1.0" encoding="utf-8"?>
<!-- Generator: Adobe Illustrator 25.3.0, SVG Export Plug-In . SVG Version: 6.00 Build 0)  -->
<svg version="1.1" id="Layer_1" xmlns="http://www.w3.org/2000/svg" xmlns:xlink="http://www.w3.org/1999/xlink" x="0px" y="0px"
	 viewBox="0 0 218 218" style="enable-background:new 0 0 218 218;" xml:space="preserve">
<style type="text/css">
	.st0{fill-rule:evenodd;clip-rule:evenodd;fill:#00539E;}
</style>
<path class="st0" d="M190.4,204.9c-1.5,1.5-3.6,2.2-5.8,2.2H33.4c-2.2,0-4.4-0.7-5.8-2.2c-1.5-1.5-2.2-3.6-2.2-5.8v-8
	c0-12.4,4.4-24.7,12.4-34.9c8-10.2,18.9-17.4,31.2-20.3c1.5-0.7,3.6-1.5,4.4-2.9c1.5-1.5,1.5-2.9,1.5-5.1v-8l-9.4-9.4
	c-2.2-2.2-4.4-5.1-5.8-8c-1.5-2.9-2.2-5.8-2.2-9.4V59.6c0-12.4,5.1-24.7,14.5-34.2C80.7,16,93,10.9,106.1,10.2
	c6.5,0,13.8,1.5,19.6,3.6c6.5,2.2,12.4,6.5,16.7,10.9c6.5,5.8,10.2,11.6,13.1,17.4c2.9,5.8,3.6,13.1,3.6,19.6v32
	c0,2.9-0.7,6.5-2.2,9.4c-1.5,2.9-2.9,5.8-5.8,8l-9.4,8.7v8c0,1.5,0.7,3.6,1.5,5.1c1.5,1.5,2.9,2.2,4.4,2.9
	c12.4,2.9,23.3,10.2,31.2,20.3c8,10.2,12.4,22.5,12.4,34.9v8C192.6,201.3,191.8,203.5,190.4,204.9z M167.1,165.7
	c-5.8-7.3-13.8-12.4-22.5-14.5c-5.1-1.5-10.2-4.4-13.8-8.7c-3.6-4.4-5.1-9.4-5.1-15.3v-10.9c0-2.2,0.7-4.4,2.2-5.8l11.6-11.6
	c0.7-0.7,1.5-1.5,2.2-2.9c0.7-0.7,0.7-2.2,0.7-2.9V61.8c0-8.7-3.6-17.4-10.2-24c-6.5-6.5-15.3-10.2-24.7-10.2
	c-8.7,0-16.7,3.6-22.5,10.2c-5.8,5.8-9.4,13.8-9.4,22.5v34.2c0,2.2,0.7,4.4,2.2,5.8l11.6,11.6c1.5,1.5,2.2,3.6,2.2,5.8v11.6
	c0,5.1-2.2,10.9-5.1,15.3c-3.6,4.4-8,7.3-13.8,8.7c-8.7,2.2-16.7,7.3-22.5,14.5s-8.7,16-8.7,24.7h133.7
	C175.9,181.7,172.9,172.9,167.1,165.7z"/>
</svg>
