<?xml version="1.0" encoding="utf-8"?>
<!-- Generator: Adobe Illustrator 24.2.1, SVG Export Plug-In . SVG Version: 6.00 Build 0)  -->
<svg version="1.1" id="Layer_1" xmlns="http://www.w3.org/2000/svg" xmlns:xlink="http://www.w3.org/1999/xlink" x="0px" y="0px"
	 viewBox="0 0 24.2 24.3" style="enable-background:new 0 0 24.2 24.3;" xml:space="preserve">
<style type="text/css">
	.st0{fill-rule:evenodd;clip-rule:evenodd;fill:#0072DD;}
</style>
<path id="fingerprint" class="st0" d="M17.7,13.1c-3.6,0-6.5-3-6.5-6.7c0-3.6,3-6.5,6.6-6.5c3.6,0,6.5,3,6.5,6.7
	C24.2,10.3,21.3,13.1,17.7,13.1z M20.5,3.8c-0.3-0.1-0.7,0-0.9,0.3c-0.9,1-1.8,2.1-2.7,3.1c-0.2,0.2-0.3,0.2-0.5,0
	c-0.4-0.4-0.7-0.8-1.1-1.1C15,5.8,14.5,5.7,14.2,6c0,0,0,0-0.1,0.1c-0.3,0.3-0.3,0.7,0,1c0,0,0.1,0.1,0.1,0.1
	c0.6,0.6,1.2,1.3,1.9,1.9c0.3,0.3,0.8,0.4,1.1,0.1c0.1-0.1,0.1-0.1,0.2-0.2c1.1-1.3,2.2-2.6,3.3-3.8C20.8,5,21,4.8,21,4.5
	C21,4.2,20.8,3.9,20.5,3.8L20.5,3.8z M11.4,10.9c-0.1,0.4-0.6,0.7-1,0.6c0,0-0.1,0-0.1,0c-3.4-0.9-7,1.1-7.9,4.5
	c-0.1,0.2-0.1,0.4-0.1,0.6c-0.4,1.8,0.1,3.7,1.2,5.2c0.4,0.6,0.5,0.9,0.1,1.2c-0.4,0.4-0.8,0.3-1.2-0.2c-0.9-1.2-1.5-2.6-1.7-4.1
	l0-0.4C0.4,14,3.4,10.3,7.6,9.7c1-0.1,2.1,0,3.1,0.2C11.1,10,11.4,10.4,11.4,10.9C11.4,10.9,11.4,10.9,11.4,10.9L11.4,10.9z
	 M9.5,8.9c-0.2,0-0.4,0-0.8-0.1c-2.8,0-5.4,1.3-7.1,3.6c-0.1,0.1-0.1,0.2-0.2,0.3c-0.3,0.3-0.7,0.4-1.1,0.1c-0.3-0.2-0.4-0.7-0.2-1
	c0.5-0.7,1-1.4,1.7-1.9C4,8,6.8,7.1,9.7,7.4c0.4,0,0.8,0.3,0.8,0.7c0,0.1,0,0.1,0,0.2C10.4,8.7,10,9,9.5,8.9
	C9.5,8.9,9.5,8.9,9.5,8.9L9.5,8.9z M9.5,6.6c-0.3,0-0.6,0-0.9,0c-2.2,0-4.4,0.7-6.1,2.1C2.4,9,2.1,9.2,1.7,9.2
	c-0.3,0-0.6-0.2-0.7-0.5C1,8.3,1.1,8,1.4,7.8c1.4-1.2,3.1-2.1,4.9-2.5C7.4,5.1,8.5,5,9.6,5.1c0.4,0,0.8,0.3,0.8,0.7
	c0,0.4-0.3,0.8-0.7,0.8C9.6,6.6,9.6,6.6,9.5,6.6L9.5,6.6z M8.6,12c3.1,0,5.6,2.5,5.7,5.6c0.1,0.4-0.2,0.8-0.6,0.9
	c-0.4,0.1-0.8-0.2-0.9-0.6c0-0.1,0-0.2,0-0.3c0-1.7-1.1-3.2-2.6-3.8c-1.5-0.6-3.2-0.3-4.4,0.8c-1.4,1.3-1.8,3.3-0.9,5
	c0.6,1.2,1.3,2.3,2.2,3.2c0.5,0.5,0.5,0.9,0.1,1.3c-0.3,0.3-0.9,0.2-1.2-0.1c0,0,0-0.1-0.1-0.1c-1.3-1.5-2.5-3-2.9-5
	c-0.7-3.1,1.2-6.1,4.3-6.8C7.8,12,8.2,12,8.6,12L8.6,12z M5.3,18.8c-0.4-1.9,0.7-3.8,2.5-4.4c1.8-0.4,3.7,0.7,4.1,2.5
	c0.1,0.2,0.1,0.5,0.1,0.7c0,0.4,0,0.7,0.1,1.1c0.3,0.8,1.2,1.2,2,0.9c0.6-0.2,0.9-0.8,1-1.4c0-1.2-0.2-2.4-0.8-3.4
	c-0.2-0.2-0.2-0.5-0.2-0.8c0.1-0.4,0.5-0.6,0.9-0.5c0.2,0.1,0.4,0.2,0.5,0.4c0.7,1.3,1.1,2.8,1.1,4.4c0,1.2-0.7,2.2-1.8,2.6
	c-1.5,0.7-3.3,0.1-4-1.5c-0.2-0.4-0.3-0.7-0.3-1.1c0-0.3,0-0.5,0-0.8c-0.1-1-1-1.7-2-1.7c-1,0.1-1.8,0.9-1.8,1.9
	c0,1.2,0.5,2.4,1.4,3.3c0.7,0.9,1.6,1.5,2.6,1.8c0.4,0.1,0.6,0.4,0.5,0.8c0,0,0,0,0,0c0,0.4-0.4,0.7-0.7,0.7c-0.3,0-0.7-0.1-1-0.3
	C7.4,23,5.8,21.1,5.3,18.8L5.3,18.8z M7.8,17.6c-0.1-0.4,0.1-0.7,0.4-0.9c0.3-0.1,0.6-0.1,0.8,0.1c0.2,0.2,0.4,0.5,0.3,0.9
	c0.1,1.7,1.2,3.2,2.8,3.9c0.2,0,0.4,0.1,0.6,0.1c0.4,0,0.7,0.3,0.7,0.8c0,0,0,0.1,0,0.1c0,0.4-0.3,0.7-0.7,0.7c0,0-0.1,0-0.1,0
	c-0.9,0-1.7-0.3-2.3-0.9C8.8,21.2,7.9,19.5,7.8,17.6z"/>
</svg>
