<svg xmlns="http://www.w3.org/2000/svg" xmlns:xlink="http://www.w3.org/1999/xlink" width="24.248" height="24.293" viewBox="0 0 36.37 36.438">
  <defs>
    <style>
      .cls-1 {
        fill: #0072dd;
        fill-rule: evenodd;
        filter: url(#filter);
      }
    </style>
    <filter id="filter" x="1438.22" y="868.781" width="36.37" height="36.438" filterUnits="userSpaceOnUse">
      <feFlood result="flood" flood-color="#fff"/>
      <feComposite result="composite" operator="in" in2="SourceGraphic"/>
      <feBlend result="blend" in2="SourceGraphic"/>
    </filter>
  </defs>
  <path id="fingerprint" class="cls-1" d="M1464.72,888.479a9.857,9.857,0,0,1,.17-19.713A9.857,9.857,0,0,1,1464.72,888.479Zm4.19-13.951a1.126,1.126,0,0,0-1.29.425c-1.34,1.554-2.71,3.086-4.05,4.647-0.3.353-.47,0.36-0.78,0.015-0.53-.582-1.09-1.129-1.66-1.667a1.153,1.153,0,0,0-1.72-.062,1.066,1.066,0,0,0,.11,1.642c0.92,0.952,1.86,1.895,2.8,2.823a1.189,1.189,0,0,0,1.95-.094c1.66-1.918,3.32-3.844,4.99-5.757a1.617,1.617,0,0,0,.43-0.895A1.169,1.169,0,0,0,1468.91,874.528Zm-13.62,10.628a1.206,1.206,0,0,1-1.61.788,9.662,9.662,0,0,0-12.08,7.641,9.553,9.553,0,0,0,1.78,7.738c0.63,0.851.68,1.366,0.17,1.874-0.57.564-1.24,0.462-1.85-.317a11.525,11.525,0,0,1-2.48-6.221l-0.06-.648a12.167,12.167,0,0,1,10.39-12.622,12.412,12.412,0,0,1,4.64.345A1.23,1.23,0,0,1,1455.29,885.156Zm-2.86-2.979c-0.32-.029-0.65-0.045-1.21-0.083a13.022,13.022,0,0,0-10.63,5.381c-0.1.128-.19,0.263-0.3,0.386a1.133,1.133,0,0,1-1.83-1.336,12.173,12.173,0,0,1,2.53-2.833,14.817,14.817,0,0,1,11.71-3.744,1.1,1.1,0,0,1,1.18,1.31A1.17,1.17,0,0,1,1452.43,882.177Zm0.11-3.464c-0.43.006-.86,0-1.29,0a13.8,13.8,0,0,0-9.15,3.214,1.68,1.68,0,0,1-1.26.626,1.183,1.183,0,0,1-1.02-.81,1.1,1.1,0,0,1,.46-1.273,16.454,16.454,0,0,1,7.4-3.725,18.674,18.674,0,0,1,4.91-.318A1.149,1.149,0,1,1,1452.54,878.713Zm-1.41,8.036a8.664,8.664,0,0,1,8.55,8.428,1.157,1.157,0,1,1-2.28.071,6.216,6.216,0,0,0-3.94-5.74,5.983,5.983,0,0,0-6.55,1.18,6.314,6.314,0,0,0-1.4,7.5,17.5,17.5,0,0,0,3.33,4.857c0.68,0.723.75,1.366,0.18,1.9a1.226,1.226,0,0,1-1.83-.323c-1.95-2.192-3.72-4.509-4.39-7.452A8.555,8.555,0,0,1,1451.13,886.749Zm-5,10.177a5.508,5.508,0,0,1,3.81-6.533,5.118,5.118,0,0,1,6.32,4.854,4.576,4.576,0,0,0,.17,1.6,2.275,2.275,0,0,0,4.39-.752,10.024,10.024,0,0,0-1.19-5.146,1.488,1.488,0,0,1-.23-1.154,1.134,1.134,0,0,1,2.12-.133,13.267,13.267,0,0,1,1.6,6.525,4.261,4.261,0,0,1-2.66,3.968,4.532,4.532,0,0,1-6.45-3.875c-0.02-.406,0-0.817-0.06-1.217a2.852,2.852,0,0,0-2.96-2.537,2.987,2.987,0,0,0-2.67,2.884,6.669,6.669,0,0,0,2.09,4.932,7.335,7.335,0,0,0,3.94,2.683,0.991,0.991,0,0,1,.75,1.191,1.1,1.1,0,0,1-1.1,1,2.762,2.762,0,0,1-1.47-.377A11.818,11.818,0,0,1,1446.13,896.926Zm3.81-1.674a1.24,1.24,0,0,1,.57-1.4,1.093,1.093,0,0,1,1.22.093,1.485,1.485,0,0,1,.49,1.307,6.8,6.8,0,0,0,4.25,5.809,5.544,5.544,0,0,0,.87.125,1.12,1.12,0,0,1,1.1,1.246,1.065,1.065,0,0,1-1.21,1.026,5.694,5.694,0,0,1-3.5-1.285A9.07,9.07,0,0,1,1449.94,895.252Z" transform="translate(-1438.22 -868.781)"/>
</svg>
