<svg id="Layer_1" data-name="Layer 1" xmlns="http://www.w3.org/2000/svg" viewBox="0 0 20 20"><defs><style>.cls-1{fill:#28a3b3;}</style></defs><path class="cls-1" d="M4.46,2.11V1.53a.61.61,0,1,1,1.22,0V2.1h8.5V1.53a.61.61,0,0,1,.61-.64.62.62,0,0,1,.6.63v.59h1.74a2.39,2.39,0,0,1,.7.12A1.76,1.76,0,0,1,19,3.89c0,1.73,0,3.46,0,5.19a.61.61,0,1,1-1.21,0V7H2V17.17c0,.49.22.72.72.72H9a.61.61,0,1,1,.1,1.21H2.76A1.82,1.82,0,0,1,.82,17.17V4A1.82,1.82,0,0,1,2.76,2.11ZM5.7,3.33c-.11.4-.31.6-.63.6s-.51-.19-.63-.61H2.59a.6.6,0,0,0-.55.6c0,.35,0,.7,0,1v.77H17.82c0-.63,0-1.25,0-1.87a.55.55,0,0,0-.52-.54c-.63,0-1.26,0-1.89,0-.08.37-.27.59-.57.59a.59.59,0,0,1-.37-.1,3.27,3.27,0,0,1-.36-.49Z"/><path class="cls-1" d="M11.38,10.39a2.32,2.32,0,0,1,.35.14c.23.12.45.26.67.4a.29.29,0,0,0,.27,0,.6.6,0,0,0,.49-.59,2.83,2.83,0,0,1,.13-.5.6.6,0,0,1,.6-.46h.57a.62.62,0,0,1,.62.48c.07.26.12.52.19.77a.48.48,0,0,0,.16.19.6.6,0,0,0,.8-.06,2.62,2.62,0,0,1,.43-.27.59.59,0,0,1,.72.09c.15.14.3.29.44.44a.59.59,0,0,1,.09.75c-.13.23-.27.46-.41.68a.31.31,0,0,0,0,.28.61.61,0,0,0,.59.49,2.69,2.69,0,0,1,.54.14.58.58,0,0,1,.42.56,5.81,5.81,0,0,1,0,.59.61.61,0,0,1-.49.63l-.76.19a.51.51,0,0,0-.19.17.58.58,0,0,0,.06.78,2.8,2.8,0,0,1,.25.41.6.6,0,0,1-.09.78c-.13.14-.27.28-.41.41a.59.59,0,0,1-.75.09l-.67-.4a.34.34,0,0,0-.31,0,.61.61,0,0,0-.48.59,2.7,2.7,0,0,1-.12.49.6.6,0,0,1-.61.47h-.55a.6.6,0,0,1-.63-.49c-.07-.25-.13-.49-.19-.74s-.09-.16-.19-.22a.59.59,0,0,0-.76.07,3.58,3.58,0,0,1-.42.25.6.6,0,0,1-.78-.1l-.38-.37a.61.61,0,0,1-.1-.81c.13-.23.27-.44.39-.67a.45.45,0,0,0,0-.26.59.59,0,0,0-.6-.5,3.84,3.84,0,0,1-.46-.11.63.63,0,0,1-.49-.64V14a.61.61,0,0,1,.49-.63l.77-.2c.07,0,.13-.1.18-.16a.6.6,0,0,0-.06-.8,2.39,2.39,0,0,1-.27-.43.57.57,0,0,1,.06-.68,4.42,4.42,0,0,1,.53-.53A1.46,1.46,0,0,1,11.38,10.39Zm.37,3.85a2.43,2.43,0,1,0,2.43-2.42A2.43,2.43,0,0,0,11.75,14.24Z"/><path class="cls-1" d="M5.07,10H4.46a.61.61,0,0,1-.6-.61.59.59,0,0,1,.6-.6H5.69a.59.59,0,0,1,.59.61.6.6,0,0,1-.58.6Z"/><path class="cls-1" d="M5.08,11.82h.6a.61.61,0,0,1,0,1.21H4.47a.6.6,0,0,1-.61-.62.6.6,0,0,1,.61-.59Z"/><path class="cls-1" d="M5.07,16.07H4.46a.61.61,0,0,1,0-1.22H5.69a.59.59,0,0,1,.59.61.6.6,0,0,1-.59.59Z"/><path class="cls-1" d="M9.62,8.78h.32a.61.61,0,0,1,.59.6A.59.59,0,0,1,10,10H9.29a.6.6,0,0,1,0-1.2Z"/></svg>