<svg xmlns="http://www.w3.org/2000/svg" width="30" height="30" viewBox="0 0 30 30">
  <defs>
    <style>
      .cls-1 {
        fill: #d9d9d9;
        fill-rule: evenodd;
      }
    </style>
  </defs>
  <path id="GSTN" class="cls-1" d="M1040.12,393h-18.24a6.032,6.032,0,0,1-5.88-6.177v-8.647a6.032,6.032,0,0,1,5.88-6.176h18.24a6.032,6.032,0,0,1,5.88,6.176v8.647A6.032,6.032,0,0,1,1040.12,393Zm4.11-15.177a3.9,3.9,0,0,0-3.78-4.01h-18.9a3.9,3.9,0,0,0-3.78,4.01v9.354a3.9,3.9,0,0,0,3.78,4.01h18.9a3.9,3.9,0,0,0,3.78-4.01v-9.354Zm-9.43.568h5.87a0.913,0.913,0,1,1,0,1.826h-5.87A0.913,0.913,0,1,1,1034.8,378.391Zm0,3.652h5.87a0.913,0.913,0,1,1,0,1.826h-5.87A0.913,0.913,0,1,1,1034.8,382.043Zm0,3.653h2.35a0.913,0.913,0,0,1,0,1.826h-2.35A0.913,0.913,0,1,1,1034.8,385.7Zm-2.97-5.2c-0.66-.768-1.29-1.553-1.93-2.338a0.391,0.391,0,0,0-.34-0.154c-2.04,0-4.09,0-6.13,0a0.377,0.377,0,0,0-.33.16c-0.64.784-1.28,1.57-1.93,2.338a0.628,0.628,0,0,0-.14.619,1.247,1.247,0,0,0,.78.95,0.324,0.324,0,0,1,.24.378c-0.01,1.425,0,2.85-.01,4.275-0.01.24,0.06,0.281,0.28,0.279,1.4-.01,2.79,0,4.18,0s2.77-.007,4.15.006c0.25,0,.33-0.041.32-0.309-0.01-1.414,0-2.829-.01-4.244a0.334,0.334,0,0,1,.23-0.383,1.254,1.254,0,0,0,.78-0.953A0.624,0.624,0,0,0,1031.83,380.493Zm-4.31-2.177h0.32a0.628,0.628,0,0,1,.79.516c0.25,0.608.56,1.2,0.87,1.78a0.655,0.655,0,0,1,.01.636,1.021,1.021,0,0,1-1.06.608,1.067,1.067,0,0,1-.91-0.929c-0.11-.736-0.22-1.471-0.35-2.205C1027.12,378.315,1027.11,378.316,1027.52,378.316Zm-4.05,2.352c0.36-.721.72-1.438,1.07-2.163a0.3,0.3,0,0,1,.33-0.192,4.812,4.812,0,0,0,.7,0c0.24-.022.31,0.047,0.26,0.292-0.12.671-.23,1.346-0.35,2.019a2.96,2.96,0,0,1-.08.513,1.017,1.017,0,0,1-.98.732,1.052,1.052,0,0,1-1.02-.913A0.468,0.468,0,0,1,1023.47,380.668Zm6.88,3.363c0.01,0.259-.04.347-0.33,0.342-1.18-.019-2.36-0.008-3.54-0.008s-2.34,0-3.5,0c-0.23,0-.33-0.037-0.32-0.3,0.03-.553.01-1.107,0.01-1.661a0.281,0.281,0,0,1,.21-0.341,1.763,1.763,0,0,1,1.01,0,1.273,1.273,0,0,0,1.39-.2c0.13-.1.19-0.147,0.35-0.017a1.291,1.291,0,0,0,1.75,0,0.191,0.191,0,0,1,.31,0,1.307,1.307,0,0,0,1.78-.015c0.11-.085.17-0.121,0.27-0.007a0.584,0.584,0,0,0,.25.175,0.5,0.5,0,0,1,.36.639C1030.33,383.108,1030.33,383.571,1030.35,384.031Z" transform="translate(-1016 -367.5)"/>
</svg>
