<svg xmlns="http://www.w3.org/2000/svg" width="30.041" height="30.001" viewBox="0 0 69.156 69.063">
  <defs>
    <style>
      .cls-1 {
        fill: #2390ff;
        fill-rule: evenodd;
      }
    </style>
  </defs>
  <path id="halfday" class="cls-1" d="M674.949,142.624a2.7,2.7,0,1,1-2.64,2.7A2.669,2.669,0,0,1,674.949,142.624Zm-34.45,28.86a2.7,2.7,0,1,1,2.64-2.7A2.669,2.669,0,0,1,640.5,171.484Zm0-23.466a2.7,2.7,0,1,1,2.64-2.7A2.669,2.669,0,0,1,640.5,148.018Zm0,11.733a2.7,2.7,0,1,1,2.64-2.7A2.669,2.669,0,0,1,640.5,159.751Zm11.483,11.733a2.7,2.7,0,1,1,2.64-2.7A2.669,2.669,0,0,1,651.982,171.484Zm0-23.466a2.7,2.7,0,1,1,2.64-2.7A2.669,2.669,0,0,1,651.982,148.018ZM652.5,163a5.488,5.488,0,1,1,5.5-5.488A5.493,5.493,0,0,1,652.5,163Zm36.445-11.747a2.67,2.67,0,0,1-2.64-2.7V133.183a5.344,5.344,0,0,0-5.28-5.394h-3.431v2.7a2.641,2.641,0,1,1-5.28,0v-2.7H660.3v2.7a2.641,2.641,0,1,1-5.28,0v-2.7H643.139v2.7a2.641,2.641,0,1,1-5.28,0v-2.7h-3.3a5.344,5.344,0,0,0-5.279,5.394V175.26a5.344,5.344,0,0,0,5.279,5.394h20.2a2.7,2.7,0,0,1,0,5.4h-20.2A10.688,10.688,0,0,1,624,175.26V133.183a10.688,10.688,0,0,1,10.559-10.789h3.3v-2.7a2.641,2.641,0,1,1,5.28,0v2.7h11.879v-2.7a2.641,2.641,0,1,1,5.28,0v2.7h12.011v-2.7a2.641,2.641,0,1,1,5.28,0v2.7h3.431a10.688,10.688,0,0,1,10.56,10.789v15.374A2.67,2.67,0,0,1,688.94,151.255Zm-25.475-8.631a2.7,2.7,0,1,1-2.639,2.7A2.669,2.669,0,0,1,663.465,142.624ZM652.5,154a3.5,3.5,0,1,1-3.5,3.5A3.5,3.5,0,0,1,652.5,154Zm0,2a1.5,1.5,0,1,1-1.5,1.5A1.5,1.5,0,0,1,652.5,156Zm13.922,2.175v14.4h3.456v-17.5h-5.784v3.1h2.328Zm14.888,24.664v2.5h11.856v-2.784h-7.08q2.088-1.776,3.384-3.036a14.152,14.152,0,0,0,2.3-2.964,6.92,6.92,0,0,0,1.008-3.576,5.152,5.152,0,0,0-1.464-3.828,5.712,5.712,0,0,0-4.2-1.452A5.849,5.849,0,0,0,683,169.183a5.922,5.922,0,0,0-1.716,4.368h3.264a3.5,3.5,0,0,1,.672-2.2,2.237,2.237,0,0,1,1.848-.8,2.173,2.173,0,0,1,1.776.7,2.925,2.925,0,0,1,.576,1.92,4.983,4.983,0,0,1-.912,2.736,14.853,14.853,0,0,1-2.28,2.676q-1.368,1.284-3.672,3.2ZM677.6,157.847l-6.48,27.072h3.288l6.48-27.072H677.6Z" transform="translate(-624 -117)"/>
</svg>
