<svg xmlns="http://www.w3.org/2000/svg" width="30" height="30" viewBox="0 0 30 30">
  <defs>
    <style>
      .cls-1 {
        fill: #0073e0;
        fill-rule: evenodd;
      }
    </style>
  </defs>
  <path id="hide" class="cls-1" d="M1212.66,186.2l-4.88-4.7c-0.24-.234-0.49-0.448-0.75-0.659l-14.11,13.617A12.772,12.772,0,0,0,1199,196a12.609,12.609,0,0,0,8.78-3.507l4.88-4.7A1.107,1.107,0,0,0,1212.66,186.2ZM1199,192.625a1.126,1.126,0,1,1,0-2.251,3.444,3.444,0,0,0,3.5-3.377,1.166,1.166,0,0,1,2.33,0A5.735,5.735,0,0,1,1199,192.625Zm-8.79-11.125-4.87,4.7a1.107,1.107,0,0,0,0,1.592l4.87,4.7c0.25,0.235.5,0.448,0.76,0.66l14.11-13.617A12.781,12.781,0,0,0,1190.21,181.5Zm8.79,2.12a3.444,3.444,0,0,0-3.5,3.377,1.166,1.166,0,0,1-2.33,0,5.735,5.735,0,0,1,5.83-5.629A1.127,1.127,0,1,1,1199,183.62Z" transform="translate(-1184.015 -172)"/>
</svg>
