<svg xmlns="http://www.w3.org/2000/svg" width="20" height="20" viewBox="0 0 20 20">
  <defs>
    <style>
      .cls-1 {
        fill: #009cff;
        fill-rule: evenodd;
      }
    </style>
  </defs>
  <path id="hold" class="cls-1" d="M348.235,240.091a0.769,0.769,0,0,0-.764.773v3.477a0.383,0.383,0,1,1-.765,0v-5.023a0.765,0.765,0,1,0-1.53,0v5.023a0.382,0.382,0,1,1-.764,0v-6.568a0.765,0.765,0,1,0-1.53,0v6.568a0.382,0.382,0,1,1-.764,0v-5.023a0.765,0.765,0,1,0-1.53,0v8.114a0.387,0.387,0,0,1-.181.328,0.377,0.377,0,0,1-.372.017l-2.655-1.341a1.524,1.524,0,0,0-.684-0.163,0.707,0.707,0,0,0-.492,1.2l4.946,5A5.086,5.086,0,0,0,344.793,254h0A4.233,4.233,0,0,0,349,249.75v-8.886A0.77,0.77,0,0,0,348.235,240.091Z" transform="translate(-332.5 -235.5)"/>
</svg>
