<svg xmlns="http://www.w3.org/2000/svg" width="19" height="19" viewBox="0 0 19 19">
  <defs>
    <style>
      .cls-1 {
        fill: #0083ff;
        fill-rule: evenodd;
      }
    </style>
  </defs>
  <path id="Shape_454_1" data-name="Shape 454 1" class="cls-1" d="M1029.44,147h-3.71a0.556,0.556,0,0,1-.55-0.557v-4.824a1.672,1.672,0,0,1,1.67-1.67h1.48a1.672,1.672,0,0,1,1.67,1.67v4.824A0.558,0.558,0,0,1,1029.44,147Zm-0.55-5.381a0.558,0.558,0,0,0-.56-0.557h-1.48a0.558,0.558,0,0,0-.56.557v0.557h2.6v-0.557Zm0,1.67h-2.6v2.6h2.6v-2.6Zm-4.83-3.947v5.988a1.672,1.672,0,0,1-1.67,1.67h-9.72a1.672,1.672,0,0,1-1.67-1.67V131.9a1.672,1.672,0,0,1,1.67-1.669h1.62a1.661,1.661,0,0,1,1.28-.739,2.041,2.041,0,0,1,3.93,0,1.658,1.658,0,0,1,1.27.739h1.62a1.672,1.672,0,0,1,1.67,1.669v2.723l3.09-3.087a1.669,1.669,0,0,1,2.36,2.362Zm-4.12-8.188a0.555,0.555,0,0,0-.55-0.556h-0.37a0.558,0.558,0,0,1-.56-0.557,0.93,0.93,0,0,0-1.86,0,0.556,0.556,0,0,1-.55.557h-0.37a0.558,0.558,0,0,0-.56.556v0.186h4.82v-0.186Zm3.01,0.742a0.558,0.558,0,0,0-.56-0.556h-1.33V131.9a0.558,0.558,0,0,1-.56.557h-5.94a0.556,0.556,0,0,1-.55-0.557V131.34h-1.34a0.558,0.558,0,0,0-.56.556V145.33a0.558,0.558,0,0,0,.56.557h9.72a0.558,0.558,0,0,0,.56-0.557v-4.875l-0.79.786a0.543,0.543,0,0,1-.14.1l-3.15,1.575a0.553,0.553,0,0,1-.25.058,0.543,0.543,0,0,1-.39-0.163,0.568,0.568,0,0,1-.11-0.642l1.58-3.149a0.471,0.471,0,0,1,.1-0.145l3.15-3.147V131.9Zm-2.12,8.8-0.48-.482-0.48.964Zm0.15-1.422,0.79,0.787,4.2-4.2-0.79-.788Zm5.78-5.773-0.79.787,0.79,0.787,0.78-.787Zm1.96-1.181a0.549,0.549,0,0,0-.78,0l-0.4.394,0.79,0.787,0.39-.394A0.552,0.552,0,0,0,1028.72,132.319Zm-13.51,8.024a0.556,0.556,0,0,1-.39.163,0.562,0.562,0,0,1-.4-0.163l-1.05-1.05a0.57,0.57,0,0,1,0-.787,0.561,0.561,0,0,1,.79,0l0.66,0.656,1.7-1.706a0.561,0.561,0,0,1,.79,0,0.553,0.553,0,0,1,0,.788Zm0-3.653a0.552,0.552,0,0,1-.39.163,0.558,0.558,0,0,1-.4-0.163l-1.05-1.05a0.57,0.57,0,0,1,0-.787,0.561,0.561,0,0,1,.79,0l0.66,0.656,1.7-1.7a0.559,0.559,0,0,1,.79,0,0.552,0.552,0,0,1,0,.787Zm-1.75,4.907a0.559,0.559,0,0,1,.79,0l0.72,0.719,0.72-.719a0.559,0.559,0,0,1,.79,0,0.552,0.552,0,0,1,0,.787l-0.72.719,0.72,0.72a0.552,0.552,0,0,1,0,.787,0.558,0.558,0,0,1-.4.163,0.552,0.552,0,0,1-.39-0.163l-0.72-.719-0.72.719a0.552,0.552,0,0,1-.39.163,0.558,0.558,0,0,1-.4-0.163,0.57,0.57,0,0,1,0-.787l0.72-.72-0.72-.719A0.57,0.57,0,0,1,1013.46,141.6Z" transform="translate(-1011 -128)"/>
</svg>
