<svg xmlns="http://www.w3.org/2000/svg" width="30" height="30" viewBox="0 0 30 30">
  <defs>
    <style>
      .cls-1 {
        fill: #4482f6;
        fill-rule: evenodd;
      }
    </style>
  </defs>
  <path id="IDCardPIN" class="cls-1" d="M15.675,0a1.286,1.286,0,0,1,.781,1.364c-0.032.82,0,1.194-.009,2.016A1.079,1.079,0,0,1,15.24,4.588c-0.188,0-.376,0-0.564,0a1.056,1.056,0,0,1-1.129-1.132c-0.011-.847.022-1.246-0.011-2.092A1.283,1.283,0,0,1,14.317,0h1.357Zm7.309,6.043A2.953,2.953,0,0,0,20.558,3.2,23.02,23.02,0,0,0,17.7,3.121c-0.295-.016-0.373.07-0.372,0.37a1.949,1.949,0,0,1-1.606,1.961,5.109,5.109,0,0,1-.939.034A1.968,1.968,0,0,1,12.661,3.4c0-.206-0.045-0.285-0.267-0.281-0.829.014-1.659-.009-2.488,0.013a2.99,2.99,0,0,0-2.9,2.92c-0.024,3.343-.025,9.674,0,13.017a2.972,2.972,0,0,0,3,2.925q2.488,0,4.976,0c1.684,0,3.367,0,5.051,0a2.975,2.975,0,0,0,2.949-2.9C23.006,15.742,23,9.4,22.983,6.043ZM14.991,16.312a14.083,14.083,0,0,1-2.17-.114,1.5,1.5,0,0,1-1.172-2.373A3.981,3.981,0,0,1,12.8,12.5a0.264,0.264,0,0,1,.386.021,2.875,2.875,0,0,0,3.618,0c0.1-.072.172-0.178,0.322-0.064a3.376,3.376,0,0,1,1.416,1.938,1.341,1.341,0,0,1-1.009,1.717A9.75,9.75,0,0,1,14.991,16.312ZM15,12.254a2.093,2.093,0,1,1,2.084-2.1A2.085,2.085,0,0,1,15,12.254ZM25.306,30H4.682A4.576,4.576,0,0,1-.005,25.554V23.332a4.26,4.26,0,0,1,.951-2.686,4.735,4.735,0,0,1,2.407-1.578,1.183,1.183,0,0,1,1.456.75h0a1.1,1.1,0,0,1-.791,1.38h0a2.253,2.253,0,0,0-1.678,2.132v2.222A2.288,2.288,0,0,0,4.68,27.776H25.306a2.288,2.288,0,0,0,2.343-2.222V23.332a2.244,2.244,0,0,0-1.757-2.152,1.108,1.108,0,0,1-.844-1.352l0-.007a1.178,1.178,0,0,1,1.426-.8l0.007,0A4.491,4.491,0,0,1,30,23.327v2.227A4.577,4.577,0,0,1,25.306,30Zm-2.114-5.556H23.2A1.17,1.17,0,1,0,23.193,24.443Zm-4.693,0h0.011A1.167,1.167,0,1,0,18.5,24.443Zm-4.68,0h0a1.173,1.173,0,1,1-1.171-1.111,1.142,1.142,0,0,1,1.171,1.111Zm-4.685,0h0a1.173,1.173,0,1,1-1.171-1.111,1.142,1.142,0,0,1,1.171,1.111Z"/>
</svg>
