<svg xmlns="http://www.w3.org/2000/svg" width="23.97" height="23.969" viewBox="0 0 23.97 23.969">
  <defs>
    <style>
      .cls-1 {
        fill: #0073df;
        fill-rule: evenodd;
      }
    </style>
  </defs>
  <path id="Shape_385_1" data-name="Shape 385 1" class="cls-1" d="M1593.88,756.924a6.629,6.629,0,0,1-6.96,6.958c-1.97.112-7.9,0.112-9.88,0a6.644,6.644,0,0,1-6.96-6.958c-0.11-1.979-.11-7.909,0-9.888a6.636,6.636,0,0,1,6.96-6.952c1.98-.112,7.91-0.112,9.88,0a6.629,6.629,0,0,1,6.96,6.958C1593.99,749.02,1593.99,754.945,1593.88,756.924Zm-2.55-12.006a4.065,4.065,0,0,0-2.28-2.278c-1.57-.62-5.32-0.481-7.06-0.481s-5.49-.144-7.07.481a4.068,4.068,0,0,0-2.28,2.278c-0.62,1.573-.48,5.321-0.48,7.065s-0.14,5.487.48,7.064a4.062,4.062,0,0,0,2.28,2.278c1.57,0.621,5.32.482,7.07,0.482s5.48,0.144,7.06-.482a4.065,4.065,0,0,0,2.28-2.278c0.62-1.572.48-5.321,0.48-7.064S1591.95,746.5,1591.33,744.918Zm-9.34,3.07a4,4,0,1,0,3.99,3.995A4,4,0,0,0,1581.99,747.988Z" transform="translate(-1570 -740)"/>
</svg>
