<svg xmlns="http://www.w3.org/2000/svg" width="24" height="25" viewBox="0 0 24 25">
  <defs>
    <style>
      .cls-1 {
        fill: #0073e0;
        fill-rule: evenodd;
      }
    </style>
  </defs>
  <path id="IFSC" class="cls-1" d="M623.977,854.331H612.622a0.517,0.517,0,0,1-.615-0.518,0.532,0.532,0,0,1,.322-0.471q2.293-1.268,4.583-2.541,3.341-1.854,6.681-3.71a0.736,0.736,0,0,1,.794-0.006q5.618,3.128,11.241,6.242a0.515,0.515,0,0,1,.328.662,0.479,0.479,0,0,1-.43.338,2.788,2.788,0,0,1-.317,0H623.977Zm9.441-1.087c-0.089-.059-0.114-0.078-0.141-0.093q-4.551-2.523-9.1-5.051a0.372,0.372,0,0,0-.417.031q-4.05,2.25-8.1,4.494c-0.348.193-.694,0.388-1.042,0.582l0.015,0.037h18.783Zm-9.409,14.91h10.647c0.146,0,.292,0,0.438,0a0.9,0.9,0,0,1,.9.9c0.012,0.672.011,1.345,0,2.017a0.9,0.9,0,0,1-.877.914c-0.169.014-.34,0.015-0.51,0.015H613.262c-0.146,0-.292,0-0.437-0.018a0.878,0.878,0,0,1-.815-0.839c-0.012-.713-0.015-1.426,0-2.138a0.891,0.891,0,0,1,.937-0.849q1.644,0,3.289,0h7.773Zm-10.981-13.391h21.934c0,0.408.012,0.8,0,1.19a0.472,0.472,0,0,1-.5.456c-1.843.006-3.687,0-5.53,0.008-1,0-2,.012-3,0.011-2.184,0-4.369-.014-6.554-0.014-1.494,0-2.988.011-4.482,0.014-0.439,0-.877-0.007-1.315-0.017a0.5,0.5,0,0,1-.549-0.538C613.023,855.507,613.028,855.14,613.028,854.763Zm21.936,12.925H613.035c0-.361-0.015-0.711,0-1.059a0.471,0.471,0,0,1,.46-0.419c0.065,0,.13,0,0.2,0h20.587a0.551,0.551,0,0,1,.682.67v0.809Zm-20.407-9.714v7.147h1.734v-7.147h-1.734Zm2.474,0v7.147h1.734V862.23h2.169v-1.354h-2.169v-1.507h2.9v-1.395h-4.633Zm7.6,7.218a3.064,3.064,0,0,0,1.389-.295,2.171,2.171,0,0,0,.9-0.794,2.063,2.063,0,0,0,.309-1.11,1.669,1.669,0,0,0-.314-1.048,2.129,2.129,0,0,0-.745-0.621,9.3,9.3,0,0,0-1.121-.448,5.383,5.383,0,0,1-1.014-.418,0.648,0.648,0,0,1-.131-1.023,0.742,0.742,0,0,1,.507-0.168,0.893,0.893,0,0,1,.6.2,0.74,0.74,0,0,1,.253.545h1.876a2.027,2.027,0,0,0-.771-1.573,2.982,2.982,0,0,0-1.9-.565,2.947,2.947,0,0,0-1.875.565,1.877,1.877,0,0,0-.72,1.563,1.766,1.766,0,0,0,.314,1.089,2.084,2.084,0,0,0,.751.632,7.934,7.934,0,0,0,1.125.427,6.837,6.837,0,0,1,.735.255,1.445,1.445,0,0,1,.436.285,0.586,0.586,0,0,1,.177.438,0.594,0.594,0,0,1-.223.493,0.947,0.947,0,0,1-.608.179,0.877,0.877,0,0,1-.608-0.209,0.9,0.9,0,0,1-.274-0.606h-1.845a2.056,2.056,0,0,0,.39,1.2,2.281,2.281,0,0,0,.989.754,3.638,3.638,0,0,0,1.4.254h0Zm2.848-3.655a3.83,3.83,0,0,0,.457,1.884,3.275,3.275,0,0,0,1.272,1.288,3.68,3.68,0,0,0,1.85.463,3.548,3.548,0,0,0,2.17-.667,3.207,3.207,0,0,0,1.206-1.827h-1.906a1.547,1.547,0,0,1-.6.682,1.691,1.691,0,0,1-.887.234,1.654,1.654,0,0,1-1.3-.56,2.5,2.5,0,0,1,0-2.993,1.654,1.654,0,0,1,1.3-.56,1.691,1.691,0,0,1,.887.234,1.542,1.542,0,0,1,.6.682h1.906a3.231,3.231,0,0,0-1.206-1.833,3.531,3.531,0,0,0-2.17-.671,3.68,3.68,0,0,0-1.85.463,3.269,3.269,0,0,0-1.272,1.293,3.856,3.856,0,0,0-.457,1.888h0Z" transform="translate(-612 -847)"/>
</svg>
