<svg xmlns="http://www.w3.org/2000/svg" width="31" height="31" viewBox="0 0 31 31">
  <defs>
    <style>
      .cls-1 {
        fill: #9d9d9d;
        fill-rule: evenodd;
      }
    </style>
  </defs>
  <path id="Instagram" class="cls-1" d="M2396.48,1334.54h-17.09a5.39,5.39,0,0,0-5.38,5.39v17.12a5.39,5.39,0,0,0,5.38,5.39h17.09a5.4,5.4,0,0,0,5.38-5.39v-17.12A5.4,5.4,0,0,0,2396.48,1334.54Zm1.89,3.48h0v5.24h-5.22v-5.24h5.22Zm-14.41,7.61a4.9,4.9,0,1,1-.93,2.86A4.886,4.886,0,0,1,2383.96,1345.63Zm14.41,11.58c0,1.48-.26,1.75-1.74,1.75h-17.4c-1.47,0-1.74-.27-1.74-1.75V1345h3.48a11.245,11.245,0,0,0-.65,3.49,7.615,7.615,0,1,0,15.23,0,7.751,7.751,0,0,0-.56-2.86l3.38-.63v12.21Z" transform="translate(-2372.42 -1332.985)"/>
</svg>
