<svg id="Layer_1" data-name="Layer 1" xmlns="http://www.w3.org/2000/svg" viewBox="0 0 20 20"><defs><style>.cls-1{fill:#02539f;}</style></defs><path class="cls-1" d="M10.31.32l1.2.43a.91.91,0,0,0,.33,0,2,2,0,0,1,1.87.75,1.61,1.61,0,0,0,.77.51,1.92,1.92,0,0,1,1.38,1.36,1.61,1.61,0,0,0,.51.77,1.9,1.9,0,0,1,.77,1.72,1.86,1.86,0,0,0,.21,1.06,1.83,1.83,0,0,1,0,1.81,1.61,1.61,0,0,0-.21.93,2,2,0,0,1-.81,1.87,1.2,1.2,0,0,0-.43.64,2,2,0,0,1-1,1.29l0,0,.75,1.71.9,2a1,1,0,0,1-1,1.49H14.26a.49.49,0,0,0-.28.11c-.23.21-.45.44-.67.66a1,1,0,0,1-1.73-.31c-.49-1.06-1-2.13-1.46-3.19,0-.07-.07-.13-.11-.23L9.92,16l-1.5,3.26a1,1,0,0,1-1.26.6,1.21,1.21,0,0,1-.43-.27c-.24-.21-.45-.45-.69-.66a.48.48,0,0,0-.32-.13c-.4,0-.8,0-1.19,0a1,1,0,0,1-1-1.49C4.08,16,4.63,14.76,5.19,13.5l-.14-.09a1.91,1.91,0,0,1-.9-1.15,1.55,1.55,0,0,0-.55-.8,1.84,1.84,0,0,1-.73-1.61,2.37,2.37,0,0,0-.25-1.22,1.82,1.82,0,0,1,0-1.74A1.61,1.61,0,0,0,2.87,6,2,2,0,0,1,3.7,4.07a1.23,1.23,0,0,0,.43-.68A2,2,0,0,1,5.54,2a1.47,1.47,0,0,0,.75-.5A2,2,0,0,1,8.17.75,1.76,1.76,0,0,0,8.81.67c.3-.1.59-.23.88-.35ZM11.9,14.21a1.33,1.33,0,0,0,1.27-.48A2.29,2.29,0,0,1,14.33,13a1.26,1.26,0,0,0,.89-.88A2.14,2.14,0,0,1,16,11a1.29,1.29,0,0,0,.49-1.24,1.87,1.87,0,0,1,.22-1.16,1.41,1.41,0,0,0,0-1.48,1.92,1.92,0,0,1-.22-1.18A1.25,1.25,0,0,0,16,4.69a2.29,2.29,0,0,1-.79-1.17,1.23,1.23,0,0,0-.87-.87,2.31,2.31,0,0,1-1.19-.79A1.24,1.24,0,0,0,12,1.41a2.08,2.08,0,0,1-1.27-.24,1.37,1.37,0,0,0-1.42,0,2,2,0,0,1-1.23.23,1.29,1.29,0,0,0-1.24.5,2.1,2.1,0,0,1-1.08.72,1.34,1.34,0,0,0-1,1A2,2,0,0,1,4,4.65a1.31,1.31,0,0,0-.51,1.24,1.92,1.92,0,0,1-.23,1.2,1.38,1.38,0,0,0,0,1.45,1.76,1.76,0,0,1,.23,1.1A1.36,1.36,0,0,0,4.08,11a1.91,1.91,0,0,1,.68,1,1.36,1.36,0,0,0,1,1,1.7,1.7,0,0,1,1,.61,1.49,1.49,0,0,0,1.45.6,1.79,1.79,0,0,1,1.11.23,1.38,1.38,0,0,0,1.44,0A2,2,0,0,1,11.9,14.21Zm-1.39,1s0,0,0,.05c.56,1.21,1.11,2.43,1.67,3.64a.36.36,0,0,0,.64.11c.24-.23.48-.46.71-.7a.94.94,0,0,1,.71-.29h1.21c.41,0,.55-.21.38-.59l-1.32-3-.35-.79c-.18.17-.35.31-.49.47a1.8,1.8,0,0,1-1.56.71A2.88,2.88,0,0,0,10.51,15.26ZM5.84,13.71l-.06.1L4.13,17.56c-.13.28,0,.51.34.52H5.76a.91.91,0,0,1,.71.28c.22.23.45.46.68.68s.52.21.68-.13l.71-1.56,1-2.09c-.18-.08-.35-.14-.51-.23a1.5,1.5,0,0,0-.86-.17,2,2,0,0,1-1.86-.76A4.08,4.08,0,0,0,5.84,13.71Z"/><path class="cls-1" d="M10,13.35a5.54,5.54,0,1,1,5.6-5.43A5.56,5.56,0,0,1,10,13.35ZM10,2.93a4.93,4.93,0,0,0-5,4.87,4.94,4.94,0,0,0,9.88,0A4.92,4.92,0,0,0,10,2.93Z"/><path class="cls-1" d="M9.66,10.09A1.3,1.3,0,0,1,8.37,9c0-.27.05-.47.27-.5s.35.11.39.4a.63.63,0,0,0,.59.57.66.66,0,0,0,.66-.4.65.65,0,0,0-.62-.89A1.31,1.31,0,1,1,11,6.57a.74.74,0,0,1,0,.25.33.33,0,0,1-.66.06,1.6,1.6,0,0,0,0-.23A.65.65,0,0,0,9,6.81a.63.63,0,0,0,.53.65c.15,0,.31,0,.46.07A1.29,1.29,0,0,1,11,8.9,1.32,1.32,0,0,1,9.66,10.09Z"/><path class="cls-1" d="M13.63,7.82c0,.42,0,.84,0,1.26a1,1,0,0,1-.94,1,1,1,0,0,1-1-1c0-.88,0-1.76,0-2.65a1,1,0,0,1,1-1,1,1,0,0,1,1,1C13.63,7,13.63,7.39,13.63,7.82Zm-.67,0c0-.28,0-.56,0-.84a4.34,4.34,0,0,0,0-.51.3.3,0,0,0-.34-.27.31.31,0,0,0-.3.31V9.11a.32.32,0,0,0,.64.05A1.15,1.15,0,0,0,13,9Z"/><path class="cls-1" d="M6.71,9.42c0-1,0-2.08,0-3.12,0,0-.06-.11-.11-.14a.32.32,0,0,1,.11-.63c.22,0,.43,0,.65,0a.32.32,0,0,1,.34.25.33.33,0,0,1-.24.39l-.07,0V9.42a.94.94,0,0,1,.15.06.31.31,0,0,1,.16.36.28.28,0,0,1-.28.24,6.09,6.09,0,0,1-.74,0,.3.3,0,0,1-.29-.28C6.35,9.63,6.46,9.5,6.71,9.42Z"/></svg>