<svg id="Layer_1" data-name="Layer 1" xmlns="http://www.w3.org/2000/svg" viewBox="0 0 20 20"><defs><style>.cls-1{fill:#02539f;}</style></defs><path class="cls-1" d="M11.57,12.36H6.79c-.26,0-.42-.21-.29-.4a.45.45,0,0,1,.23-.14,1.5,1.5,0,0,1,.3,0V7.91H6.37a.22.22,0,0,0-.23.22V17a1.17,1.17,0,0,1-2.07.79,1.2,1.2,0,0,1-1,.42A1.15,1.15,0,0,1,2,17.16c0-.92,0-1.85,0-2.78v-2a3.75,3.75,0,0,1-.67,0,.89.89,0,0,1-.68-.86c0-1.33,0-2.66,0-4a1.92,1.92,0,0,1,1.7-1.76l.47,0H7V4.5H6.77a.29.29,0,0,1-.31-.28c0-.16.11-.26.31-.27H18.29l.8,0c.19,0,.29.1.29.26s-.11.26-.29.28h-.28v7.32h.25c.2,0,.31.1.32.26s-.11.28-.32.28H14.27c0,.39,0,.77,0,1.15a.28.28,0,0,0,.08.15l3.18,3.64.06.07c.1.12.21.23.14.4s-.24.16-.4.16H16a.45.45,0,0,1-.4-.18l-2.49-2.89-.15-.16c-.1.11-.2.21-.29.32-.77.9-1.55,1.79-2.32,2.7a.55.55,0,0,1-.48.21H8.44c-.14,0-.26,0-.32-.16s0-.24.09-.34l3.21-3.67a.53.53,0,0,0,.15-.41C11.56,13,11.57,12.7,11.57,12.36Zm-4-.56H18.24V4.51H7.6V5.76h.22c.42,0,.84,0,1.26,0A1.06,1.06,0,0,1,10,7.08a1.08,1.08,0,0,1-1.06.83H7.59Zm-5,.85h0v3.23c0,.41,0,.81,0,1.22a.62.62,0,0,0,.55.6.59.59,0,0,0,.66-.49,1.58,1.58,0,0,0,0-.38c0-1.46,0-2.93,0-4.39,0-.24.1-.36.27-.37s.29.13.29.36v4.22c0,.15,0,.31,0,.46A.61.61,0,0,0,5,17.7.64.64,0,0,0,5.6,17V8.21a.77.77,0,0,1,.84-.84H8.88a.54.54,0,0,0,.59-.53.52.52,0,0,0-.58-.53H2.58a1.38,1.38,0,0,0-1.39,1.4c0,1.24,0,2.48,0,3.71a.42.42,0,0,0,.4.47c.23,0,.39-.16.39-.45C2,10.63,2,9.81,2,9V8.16a.25.25,0,0,1,.25-.27.27.27,0,0,1,.29.25v4.51ZM9,17.37c.8.1.84.08,1.32-.47l.15-.17,2.23-2.58a.28.28,0,0,1,.39-.1,1,1,0,0,1,.2.2l2.59,3c.05.05.11.13.16.13.28,0,.56,0,.86,0a.74.74,0,0,0-.15-.18C15.8,16.15,14.88,15.08,14,14a.8.8,0,0,1-.23-.6c0-.35,0-.71,0-1.07H12.12v.2c0,.31,0,.62,0,.93a.66.66,0,0,1-.18.5c-.34.37-.66.75-1,1.12Z"/><path class="cls-1" d="M5.92,3.61A1.86,1.86,0,1,1,4.11,1.75,1.86,1.86,0,0,1,5.92,3.61Zm-.54,0A1.31,1.31,0,1,0,4.06,4.92,1.31,1.31,0,0,0,5.38,3.6Z"/></svg>