<svg id="Layer_1" data-name="Layer 1" xmlns="http://www.w3.org/2000/svg" viewBox="0 0 20 20"><defs><style>.cls-1{fill:#02539f;}</style></defs><path class="cls-1" d="M.83,17.14V4.37A.67.67,0,0,1,1.55,4H6.21V3.39A1.64,1.64,0,0,1,7.81,1.7q2.15,0,4.29,0a1.6,1.6,0,0,1,1.58,1.52,5.93,5.93,0,0,1,0,.73h4.78c.42,0,.62.21.62.64q0,6.15,0,12.3a1.88,1.88,0,0,1-.16.78,1.55,1.55,0,0,1-1.54,1H2.53a1.54,1.54,0,0,1-1.38-.71A5.13,5.13,0,0,1,.83,17.14Zm6.45-5.28H4.39a1.63,1.63,0,0,1-1.67-1.27L2,8.31,1.93,8.1h0v8.71c0,.49.2.69.65.69h14.8c.47,0,.66-.2.66-.7V8.11a.28.28,0,0,0-.07.13l-.75,2.36a1.62,1.62,0,0,1-1.65,1.26H12.63v.54a.55.55,0,0,1-.56.59H7.83a.55.55,0,0,1-.55-.58Zm5.35-1.13h2.85c.44,0,.58-.1.71-.54.49-1.53,1-3.07,1.45-4.6.06-.16.11-.33.16-.5H2.12a.44.44,0,0,1,0,.1l1.61,5.09a.55.55,0,0,0,.61.45H7.28v-.55a.54.54,0,0,1,.55-.57h4.25a.56.56,0,0,1,.55.58ZM7.28,3.94h5.35V3.46A.56.56,0,0,0,12,2.82H7.86a.56.56,0,0,0-.58.6Zm1.08,7.91h3.19v-1.1H8.36Z"/></svg>