<svg id="Layer_1" data-name="Layer 1" xmlns="http://www.w3.org/2000/svg" viewBox="0 0 20 20"><defs><style>.cls-1{fill:#02539f;}</style></defs><path class="cls-1" d="M19.46,19.73H.27v-.49A.48.48,0,0,1,.79,19c.18,0,.36,0,.55,0H2V17H1.68a1.3,1.3,0,0,1-1-.38,4.52,4.52,0,0,1-.41-.71V1.87a1,1,0,0,0,0-.1,2,2,0,0,1,2-1.5H17.73a2.68,2.68,0,0,1,.4,0,1.9,1.9,0,0,1,1.6,1.94v12c0,.5,0,1,0,1.5A1.32,1.32,0,0,1,18.55,17L18,17V19h1.36a.36.36,0,0,1,.34.23.33.33,0,0,1-.05.39C19.59,19.64,19.52,19.68,19.46,19.73ZM1,3.78V15.72a.55.55,0,0,0,.46.51,4.6,4.6,0,0,0,.53,0v-1c0-.34.13-.47.47-.47H4.73c.35,0,.48.13.48.49V19H6.28V11.1c0-.39.13-.52.52-.52H8.91c.43,0,.56.12.56.55V19h1.06V14.3c0-.37.13-.5.51-.5h2.18c.38,0,.5.13.5.5V19h1.07V15a.41.41,0,0,1,.21-.41.38.38,0,0,1,.55.39v4h1.66V10.8H15.55v1.44c0,.29-.15.46-.39.46s-.37-.17-.37-.46V10.51c0-.36.14-.5.51-.5h2.16c.39,0,.52.14.52.53v5.7h.23c.58,0,.76-.18.76-.76V3.78ZM1,3H19c0-.29,0-.57,0-.85a1.26,1.26,0,0,0-.12-.47A1.13,1.13,0,0,0,17.73,1H2.19a1.12,1.12,0,0,0-1.14,1A7.35,7.35,0,0,0,1,3ZM8.7,11.37H7.05V19H8.7ZM13,19V14.58H11.3V19Zm-8.51-3.4H2.79V19H4.44Z"/><path class="cls-1" d="M13.3,10.68a1.37,1.37,0,0,1-1.79,1.89,1.36,1.36,0,0,1-.66-1.8.22.22,0,0,0,0-.29L8.44,8.13a.21.21,0,0,0-.27-.06,1.19,1.19,0,0,1-1,0A.22.22,0,0,0,7,8.15L4.89,10.21a.17.17,0,0,0,0,.22,1.36,1.36,0,1,1-2.57.89A1.27,1.27,0,0,1,2.65,10,1.28,1.28,0,0,1,4.09,9.7a.22.22,0,0,0,.29-.06l2-2a.2.2,0,0,0,0-.27,1.29,1.29,0,0,1,.19-1.44A1.28,1.28,0,0,1,8,5.48a1.32,1.32,0,0,1,1,1,1.22,1.22,0,0,1-.09.82c-.05.1,0,.15.05.22L11.38,10a.22.22,0,0,0,.26.06,1.29,1.29,0,0,1,1,0,.16.16,0,0,0,.21-.05l2.32-2.32a.15.15,0,0,0,0-.22,1.37,1.37,0,1,1,2.35,0,1.38,1.38,0,0,1-1.52.6.31.31,0,0,0-.23,0l-2.46,2.45ZM16.38,6.2a.62.62,0,0,0-.6.62A.61.61,0,0,0,17,6.8.62.62,0,0,0,16.38,6.2Zm-4.29,4.53a.61.61,0,1,0,.61.6A.62.62,0,0,0,12.09,10.73Zm-5-3.93a.6.6,0,1,0,1.2,0,.62.62,0,0,0-.6-.61A.6.6,0,0,0,7.06,6.8ZM4.19,11A.6.6,0,1,0,3,11a.59.59,0,0,0,.61.59A.6.6,0,0,0,4.19,11Z"/><path class="cls-1" d="M3.31,5.82H2.44A.38.38,0,0,1,2,5.45a.39.39,0,0,1,.42-.39H4.18a.39.39,0,0,1,.42.37.38.38,0,0,1-.42.39Z"/><path class="cls-1" d="M3.3,7.65H2.44A.39.39,0,0,1,2,7.26a.37.37,0,0,1,.41-.37H4.18a.38.38,0,0,1,.42.38c0,.23-.17.37-.43.38Z"/><path class="cls-1" d="M6,5.44a.37.37,0,0,1-.36.38.38.38,0,0,1-.39-.38.38.38,0,0,1,.39-.37A.37.37,0,0,1,6,5.44Z"/><path class="cls-1" d="M15.55,13.68a.41.41,0,0,1-.38.38.39.39,0,0,1-.38-.4.39.39,0,0,1,.39-.36A.38.38,0,0,1,15.55,13.68Z"/><path class="cls-1" d="M13,2.4H8.87a1.21,1.21,0,0,1-.19,0A.39.39,0,0,1,8.33,2a.37.37,0,0,1,.36-.37h8.64a.37.37,0,0,1,.34.37.37.37,0,0,1-.34.38,1.2,1.2,0,0,1-.19,0Z"/><path class="cls-1" d="M3.08,2a.38.38,0,0,1-.76,0,.38.38,0,1,1,.76,0Z"/><path class="cls-1" d="M4.6,2a.38.38,0,0,1-.38.37A.39.39,0,0,1,3.84,2a.4.4,0,0,1,.39-.37A.39.39,0,0,1,4.6,2Z"/><path class="cls-1" d="M5.74,1.64A.39.39,0,0,1,6.12,2a.38.38,0,1,1-.76,0A.41.41,0,0,1,5.74,1.64Z"/></svg>