<svg id="Layer_1" data-name="Layer 1" xmlns="http://www.w3.org/2000/svg" viewBox="0 0 20 20"><defs><style>.cls-1{fill:#02539f;}</style></defs><path class="cls-1" d="M.17,15.56a5.45,5.45,0,0,1,.54-1.35,5.78,5.78,0,0,1,2.83-2.54l.16-.06a3.12,3.12,0,0,1-.9-2.93,3,3,0,0,1,5.76-.55l1.27-.7A3.11,3.11,0,0,1,9,4.5a3,3,0,0,1,1.21-1.87A3,3,0,0,1,14,3a3,3,0,0,1,.8,1.43,3.08,3.08,0,0,1,0,1.65A3.24,3.24,0,0,1,14,7.43c.38.22.76.43,1.13.66a.6.6,0,0,1,.26.62.58.58,0,0,1-.42.48.73.73,0,0,1-.54-.1,6.11,6.11,0,0,0-1.08-.55,4.28,4.28,0,0,0-4.48,1,.31.31,0,0,0-.09.18,3,3,0,0,1-.88,1.83l0,.06c.38.22.75.43,1.12.66a.6.6,0,0,1-.61,1,7.67,7.67,0,0,0-.79-.45A4.42,4.42,0,0,0,3,13.37a4.3,4.3,0,0,0-1.58,2.14.62.62,0,0,0,.61.9h5a.59.59,0,0,1,.61.43.57.57,0,0,1-.54.76c-1.75,0-3.5,0-5.25,0a1.66,1.66,0,0,1-1.53-1,5.66,5.66,0,0,1-.2-.58ZM11.91,3.28a1.89,1.89,0,1,0,1.84,1.89A1.87,1.87,0,0,0,11.91,3.28Zm-4.31,6A1.88,1.88,0,0,0,5.75,7.44a1.89,1.89,0,0,0,0,3.77A1.88,1.88,0,0,0,7.6,9.32Z"/><path class="cls-1" d="M16.54,15.15a1,1,0,0,1-.26-.12.58.58,0,0,1-.24-.5V12.62c0-.13,0-.17-.16-.17H14a.59.59,0,0,1-.42-.15.58.58,0,0,1-.16-.61.53.53,0,0,1,.46-.4l.18,0h1.8c.13,0,.16,0,.16-.16V9.2a.6.6,0,0,1,.33-.57.57.57,0,0,1,.81.45,1.34,1.34,0,0,1,0,.2v1.83c0,.13,0,.16.16.16h1.87a.63.63,0,0,1,.41.15.55.55,0,0,1,.18.32l0,0v.15s0,0,0,0a.49.49,0,0,1-.18.32.58.58,0,0,1-.41.15H17.35c-.13,0-.16,0-.16.17v1.91A.57.57,0,0,1,17,15a1.31,1.31,0,0,1-.27.12Z"/></svg>