<?xml version="1.0" encoding="utf-8"?>
<!-- Generator: Adobe Illustrator 25.3.0, SVG Export Plug-In . SVG Version: 6.00 Build 0)  -->
<svg version="1.1" id="Layer_1" xmlns="http://www.w3.org/2000/svg" xmlns:xlink="http://www.w3.org/1999/xlink" x="0px" y="0px"
	 viewBox="0 0 30 29.6" style="enable-background:new 0 0 30 29.6;" xml:space="preserve">
<style type="text/css">
	.st0{fill-rule:evenodd;clip-rule:evenodd;fill:#02539F;}
</style>
<path id="leaveType" class="st0" d="M19.9,3.4h2.3c1.2,0,2.1,1,2.1,2.2v0.5c0,0.6,0.5,1.1,1.1,1.1c0.6,0,1.1-0.5,1.1-1.1
	c0,0,0,0,0,0V3.9c0-2.4-1.9-2.7-4.3-2.7h-2.3c-0.6,0-1,0.4-1.1,1C18.8,2.9,19.3,3.4,19.9,3.4z M0.9,18.6v3.9c0,2.4,1.9,4.3,4.3,4.3
	h3.4c0.6,0,1.1-0.5,1.1-1.1c0-0.6-0.5-1.1-1.1-1.1H5.2c-1.2,0-2.1-1-2.1-2.2v-3.9C3.2,16.9,0.9,16.2,0.9,18.6z M24.6,17.2
	c-0.3,1.4-0.6,2.6-0.9,3.9c0,0.1,0,0.3,0.1,0.4c0.9,2.2,1.7,4.4,2.6,6.5c0.2,0.3,0.2,0.8,0,1.1c-0.3,0.5-0.9,0.7-1.4,0.4
	c-0.2-0.1-0.3-0.3-0.4-0.5c-0.5-0.9-0.9-1.8-1.4-2.8c-0.8-1.6-1.6-3.3-2.4-4.9c-0.5-0.8-0.6-1.8-0.3-2.7c0.1-0.5,0.2-1,0.4-1.6
	c-0.3,0.2-0.5,0.4-0.7,0.6c-0.8,0.7-1.5,1.5-2.4,2.2c-0.3,0.3-0.4,0.6-0.4,1c-0.5,2.4-1,4.8-1.6,7.2c0,0.1,0,0.2-0.1,0.3
	c0,0.3-0.2,0.4-0.5,0.3c0-0.4-0.2-0.7-0.5-1c-0.2-0.1-0.5-0.2-0.8-0.3c-0.6-0.1-1.1,0.3-1.4,1.1c-0.6-0.1-0.9-0.9-0.8-1.4
	c0.3-1.2,0.6-2.5,0.9-3.7c0.2-0.8,0.9-1.3,1.7-1.3c0.5,0,1,0,1.6,0l0.4-1.6c0-0.1,0-0.2,0.1-0.3c0.1-0.2,0.1-0.4,0-0.6
	c-0.2-0.3-0.1-0.7,0.2-1c1.7-1.7,3.4-3.5,5.1-5.2c0.3-0.3,0.7-0.5,1-0.6c0.9-0.3,1.8,0.1,2.2,0.9c0.6,1,1.1,2,1.7,3
	c0.1,0.1,0.2,0.2,0.3,0.3c0.7,0.3,1.9,0.9,2.6,1.2c0.3,0.2,0.6,0.5,0.5,0.9c0,0.4-0.2,0.7-0.6,0.8c-0.2,0.1-0.4,0.1-0.6,0
	c-1-0.4-2.3-1-3.2-1.4c-0.2-0.1-0.3-0.2-0.4-0.4C24.9,17.9,24.8,17.6,24.6,17.2z M20.5,22.6c0.5,1.1,1.1,2.1,1.6,3.1
	c0,0.1,0,0.2,0,0.3c-0.1,0.1-0.1,0.2-0.2,0.3c-0.9,1-1.8,2-2.7,2.9c-0.4,0.4-1.1,0.5-1.5,0.1c-0.1-0.1-0.1-0.1-0.2-0.2
	c-0.3-0.4-0.2-1,0.1-1.3c0.7-0.9,1.4-1.8,2.1-2.6c0.1-0.1,0.1-0.2,0.2-0.3C20,24.1,20.2,23.4,20.5,22.6L20.5,22.6z M26.7,10.2
	c0,1.2-1,2.1-2.1,2.1c-1.2,0-2.1-0.9-2.1-2.1c0-1.2,0.9-2.1,2.1-2.1C25.8,8.1,26.7,9,26.7,10.2C26.7,10.2,26.7,10.2,26.7,10.2
	L26.7,10.2z M13.7,29.6c-0.5,0-0.8-0.4-0.8-0.8c0,0,0,0,0,0c0-0.5,0.4-0.9,0.9-0.9c0.5,0,0.9,0.4,0.9,0.9
	C14.6,29.3,14.2,29.6,13.7,29.6C13.8,29.6,13.8,29.6,13.7,29.6L13.7,29.6z M15.1,10.3c-0.1,0.6-0.4,1.1-0.7,1.6l2,2l-2.2,2.2l-2-2
	c-0.5,0.3-1,0.5-1.6,0.7v2.8H7.4v-2.7c-0.6-0.1-1.1-0.4-1.7-0.7l-2,2l-2.2-2.2l2-2c-0.3-0.5-0.5-1-0.7-1.6H0V7.2h2.9
	C3,6.6,3.2,6.1,3.5,5.6l-2-2l2.2-2.2l2,2c0.5-0.3,1.1-0.5,1.7-0.7V0h3.2v2.8c0.6,0.1,1.1,0.4,1.6,0.7l2-2l2.2,2.2l-2,2
	c0.3,0.5,0.5,1,0.7,1.6h2.8v3.1L15.1,10.3L15.1,10.3z M9,11.9c1.7,0,3.1-1.3,3.2-3c0-1.7-1.3-3.1-3-3.2c0,0-0.1,0-0.1,0
	c-0.7,0-1.3,0.2-1.8,0.6L6.4,7C6,7.5,5.8,8.1,5.8,8.8C5.8,10.5,7.3,11.9,9,11.9L9,11.9z"/>
</svg>
