<svg xmlns="http://www.w3.org/2000/svg" width="30" height="29.6" viewBox="0 0 69.995 69.062">
  <defs>
    <style>
      .cls-1 {
        fill: #2390ff;
        fill-rule: evenodd;
      }
    </style>
  </defs>
  <path id="leaveCount" class="cls-1" d="M274.637,128.254h5.475a5.168,5.168,0,0,1,5.12,5.2v1.222a2.56,2.56,0,1,0,5.119,0V129.46c0-5.738-4.593-6.409-10.239-6.409h-5.475a2.55,2.55,0,0,0-2.565,2.33A2.985,2.985,0,0,0,274.637,128.254Zm-45.456,36.414v9.373a10.335,10.335,0,0,0,10.239,10.406h8.048a2.6,2.6,0,0,0,0-5.2H239.42a5.167,5.167,0,0,1-5.119-5.2v-9.373C234.75,160.448,229.181,158.93,229.181,164.668Zm56.708-3.376c-0.759,3.239-1.481,6.284-2.171,9.337a1.6,1.6,0,0,0,.153.869q3.139,7.824,6.306,15.638a2.756,2.756,0,0,1-.061,2.609,2.532,2.532,0,0,1-4.482-.212c-1.151-2.18-2.229-4.4-3.335-6.6-1.95-3.888-3.845-7.806-5.867-11.656a8.372,8.372,0,0,1-.672-6.538c0.35-1.2.541-2.445,0.838-3.833-0.646.578-1.189,1.052-1.718,1.54-1.886,1.739-3.713,3.549-5.676,5.195a3.529,3.529,0,0,0-1.012,2.332c-1.266,5.764-2.494,11.537-3.735,17.308a3.726,3.726,0,0,0-.139.681c-0.015.747-.417,0.9-1.107,0.723a3.1,3.1,0,0,0-1.291-2.318,4.227,4.227,0,0,0-1.8-.621c-1.5-.121-2.569.771-3.246,2.524-1.377-.2-2.2-2.127-1.932-3.268,0.695-2.985,1.386-5.973,2.171-8.936a4.288,4.288,0,0,1,4.145-3.047c1.256,0,2.512,0,3.826,0,0.333-1.321.661-2.622,0.986-3.923,0.067-.27.1-0.552,0.191-0.812a1.524,1.524,0,0,0-.1-1.427,1.836,1.836,0,0,1,.447-2.294c4.042-4.141,8.065-8.3,12.154-12.4a6.465,6.465,0,0,1,2.5-1.554,4.448,4.448,0,0,1,5.325,2.257c1.346,2.391,2.626,4.82,3.964,7.216a1.9,1.9,0,0,0,.779.721c1.685,0.83,4.512,2.054,6.305,2.928a2.121,2.121,0,0,1,1.278,2.107,1.974,1.974,0,0,1-1.473,1.948,2.492,2.492,0,0,1-1.427-.026c-2.348-.875-5.547-2.45-7.729-3.351a2.769,2.769,0,0,1-1.072-.947C286.752,162.828,286.388,162.123,285.889,161.292ZM276.1,174.105c1.3,2.619,2.525,5.07,3.727,7.533a0.887,0.887,0,0,1-.017.65,2.885,2.885,0,0,1-.519.82c-2.151,2.359-4.3,4.724-6.481,7.052a2.542,2.542,0,0,1-4.027-.335,2.625,2.625,0,0,1,.27-3.171q2.535-3.159,5.056-6.33a2.247,2.247,0,0,0,.368-0.731C275.008,177.823,275.525,176.047,276.1,174.105Zm14.986-29.679a5,5,0,1,1-10.005-.02A5,5,0,1,1,291.083,144.426Zm-31.128,46.563a1.989,1.989,0,0,1-1.987-2.056,2.169,2.169,0,0,1,2.121-2.137,2.243,2.243,0,0,1,2.055,2.232A2.071,2.071,0,0,1,259.955,190.989ZM230.9,138.278V152.27h3.358v-17h-5.62v3.009H230.9Zm8.16,6.785v3.811h18.1v-4.251H246.357q3.188-2.712,5.167-4.636a21.615,21.615,0,0,0,3.518-4.526,10.568,10.568,0,0,0,1.54-5.461,7.87,7.87,0,0,0-2.236-5.845,8.723,8.723,0,0,0-6.413-2.217,8.927,8.927,0,0,0-6.285,2.272q-2.475,2.272-2.621,6.67h4.984a5.353,5.353,0,0,1,1.026-3.353,3.414,3.414,0,0,1,2.822-1.228,3.316,3.316,0,0,1,2.712,1.063,4.464,4.464,0,0,1,.88,2.932,7.614,7.614,0,0,1-1.393,4.178,22.722,22.722,0,0,1-3.481,4.086q-2.089,1.961-5.607,4.892Zm21.115-5.316h3.2a2.4,2.4,0,0,1,.688-1.5,2.286,2.286,0,0,1,1.691-.595,2.409,2.409,0,0,1,1.714.56,2.039,2.039,0,0,1,.6,1.562q0,2.215-3.312,2.216h-0.676v2.682h0.676a4.946,4.946,0,0,1,2.752.606,2.253,2.253,0,0,1,.886,2.006,2.37,2.37,0,0,1-.641,1.714,2.427,2.427,0,0,1-1.831.664,2.833,2.833,0,0,1-2.017-.688,2.535,2.535,0,0,1-.781-1.83h-3.172a4.969,4.969,0,0,0,1.749,3.917,7.583,7.583,0,0,0,7.288.712,4.364,4.364,0,0,0,1.889-1.714,4.856,4.856,0,0,0,.641-2.5,4.665,4.665,0,0,0-.758-2.752,3.926,3.926,0,0,0-2.11-1.492v-0.093a3.713,3.713,0,0,0,1.807-1.365,4.032,4.032,0,0,0,.758-2.483,4.326,4.326,0,0,0-.618-2.3,4.278,4.278,0,0,0-1.831-1.61,6.569,6.569,0,0,0-2.915-.594,6.084,6.084,0,0,0-4.022,1.271,4.753,4.753,0,0,0-1.645,3.6h0Z" transform="translate(-228.783 -121.938)"/>
</svg>
