<?xml version="1.0" encoding="utf-8"?>
<!-- Generator: Adobe Illustrator 25.3.0, SVG Export Plug-In . SVG Version: 6.00 Build 0)  -->
<svg version="1.1" id="Layer_1" xmlns="http://www.w3.org/2000/svg" xmlns:xlink="http://www.w3.org/1999/xlink" x="0px" y="0px"
	 viewBox="0 0 30 30" style="enable-background:new 0 0 30 30;" xml:space="preserve">
<style type="text/css">
	.st0{fill-rule:evenodd;clip-rule:evenodd;fill:#02539F;}
</style>
<path id="leavePolicy" class="st0" d="M23.2,18.4c-0.3,1.3-0.6,2.5-0.9,3.6c0,0.1,0,0.2,0.1,0.3c0.8,2,1.7,4.1,2.5,6.1
	c0.2,0.3,0.2,0.7,0,1c-0.3,0.5-0.9,0.6-1.4,0.3c-0.2-0.1-0.3-0.3-0.4-0.4c-0.5-0.9-0.9-1.7-1.3-2.6c-0.8-1.5-1.5-3-2.3-4.6
	c-0.4-0.8-0.5-1.7-0.3-2.6c0.1-0.5,0.2-1,0.3-1.5c-0.3,0.2-0.5,0.4-0.7,0.6c-0.7,0.7-1.5,1.4-2.2,2c-0.2,0.2-0.4,0.6-0.4,0.9
	c-0.5,2.3-1,4.5-1.5,6.8c0,0.1,0,0.2-0.1,0.3c0,0.3-0.2,0.4-0.4,0.3c0-0.4-0.2-0.7-0.5-0.9c-0.2-0.1-0.5-0.2-0.7-0.2
	c-0.6,0-1,0.3-1.3,1c-0.5-0.2-0.9-0.7-0.8-1.3c0.3-1.2,0.5-2.3,0.9-3.5c0.2-0.7,0.9-1.2,1.6-1.2c0.5,0,1,0,1.5,0
	c0.1-0.5,0.3-1,0.4-1.5c0-0.1,0-0.2,0.1-0.3c0.1-0.2,0.1-0.4,0-0.6c-0.2-0.3-0.1-0.7,0.2-0.9c1.6-1.6,3.2-3.2,4.8-4.8
	c0.3-0.3,0.6-0.5,1-0.6c0.8-0.3,1.7,0.1,2.1,0.9c0.5,0.9,1,1.9,1.6,2.8c0.1,0.1,0.2,0.2,0.3,0.3c0.7,0.3,1.8,0.8,2.5,1.1
	c0.3,0.1,0.5,0.5,0.5,0.8c0,0.4-0.2,0.7-0.6,0.8c-0.2,0.1-0.4,0-0.6,0c-0.9-0.3-2.2-1-3-1.3c-0.2-0.1-0.3-0.2-0.4-0.4
	C23.6,19,23.4,18.7,23.2,18.4z M19.4,23.4c0.5,1,1,2,1.5,2.9c0,0.1,0,0.2,0,0.3c0,0.1-0.1,0.2-0.2,0.3c-0.8,0.9-1.7,1.8-2.6,2.8
	c-0.4,0.4-1,0.4-1.4,0.1c-0.1-0.1-0.1-0.1-0.2-0.2c-0.2-0.4-0.2-0.9,0.1-1.2c0.7-0.8,1.3-1.6,2-2.5c0.1-0.1,0.1-0.2,0.1-0.3
	C18.9,24.9,19.1,24.2,19.4,23.4L19.4,23.4z M25.3,11.8c0,1.1-0.9,2-2,1.9c-1.1,0-1.9-0.9-1.9-1.9c0-1.1,0.9-2,2-2
	C24.4,9.8,25.3,10.7,25.3,11.8L25.3,11.8z M13,30c-0.4,0-0.8-0.3-0.8-0.8c0,0,0,0,0,0c0-0.5,0.4-0.8,0.8-0.8c0.5,0,0.8,0.4,0.8,0.9
	C13.8,29.7,13.5,30,13,30C13,30,13,30,13,30L13,30z M8.7,29.5H1.6V0h22.5v7.5c0,1.1-1.8,1.1-1.8,0V1.7h-19v26h5.4
	C10.3,27.8,10.1,29.5,8.7,29.5z M12.9,6.5h-7V4.7h7V6.5z M19.8,10.9H6V9.1h13.7L19.8,10.9L19.8,10.9z M18.4,14.5H6v-1.7h12.3
	L18.4,14.5L18.4,14.5z M15.5,18.1H6v-1.7h9.5L15.5,18.1L15.5,18.1z M13.7,21.7H6v-1.7h7.7L13.7,21.7L13.7,21.7z M10.2,25.3H6v-1.7
	h4.2L10.2,25.3L10.2,25.3z"/>
</svg>
