<?xml version="1.0" encoding="utf-8"?>
<!-- Generator: Adobe Illustrator 25.3.0, SVG Export Plug-In . SVG Version: 6.00 Build 0)  -->
<svg version="1.1" id="Layer_1" xmlns="http://www.w3.org/2000/svg" xmlns:xlink="http://www.w3.org/1999/xlink" x="0px" y="0px"
	 viewBox="0 0 30 30" style="enable-background:new 0 0 30 30;" xml:space="preserve">
<style type="text/css">
	.st0{fill-rule:evenodd;clip-rule:evenodd;fill:#02539F;}
</style>
<g>
	<path id="Shape_499_1" class="st0" d="M22.4,20.6l4,8.4c0.1,0.3,0.1,0.6-0.1,0.8c-0.2,0.2-0.6,0.3-0.8,0.2l-5.1-2.2L15.3,30
		c-0.2,0.1-0.4,0.1-0.6,0l-5.1-2.2L4.5,30c-0.3,0.1-0.6,0.1-0.8-0.2c-0.2-0.2-0.3-0.6-0.1-0.8l4-8.4c0.1-0.2,0.2-0.3,0.4-0.4l2-0.9
		l-3.5-5.7l0,0C4.6,10,5.3,5.6,8.2,2.8c3.7-3.7,9.7-3.7,13.5-0.1c1.8,1.7,2.8,4.1,2.8,6.6c0,1.5-0.4,2.9-1,4.2l0,0L20,19.3l2,0.9
		C22.2,20.3,22.3,20.4,22.4,20.6z M19.2,20.6l-2.3,3.7c-0.7,1.1-2.1,1.4-3.2,0.7c-0.3-0.2-0.5-0.4-0.7-0.7l-2.3-3.7l-1.9,0.8l-3,6.3
		l3.5-1.5c0.2-0.1,0.4-0.1,0.6,0l5.1,2.2l5.1-2.2c0.2-0.1,0.4-0.1,0.6,0l3.5,1.5l-3-6.3L19.2,20.6z M15.1,4
		c-1.8-0.1-3.4,1.3-3.5,3.1c0.1,1.8,1.7,3.2,3.5,3.1c1.8,0.1,3.4-1.3,3.5-3.1C18.5,5.3,17,3.9,15.1,4z M19.5,14.1
		c0-2.2-2-3.2-4.5-3.2s-4.5,1-4.5,3.2V15h9V14.1z"/>
</g>
</svg>
