<svg id="Layer_1" data-name="Layer 1" xmlns="http://www.w3.org/2000/svg" viewBox="0 0 10 10"><defs><style>.cls-1{fill:#d4b712;}.cls-2{fill:none;stroke:#d4b712;stroke-miterlimit:10;stroke-width:0.33px;}</style></defs><path class="cls-1" d="M4.94,9.35a.52.52,0,0,1-.22-.22L2.19,5a3,3,0,0,1-.41-1.76A3.12,3.12,0,0,1,2.7,1.12,3.12,3.12,0,0,1,4.53.2,3,3,0,0,1,6.8.71,3.12,3.12,0,0,1,8.13,2.63a3.13,3.13,0,0,1-.38,2.44c-.82,1.37-1.66,2.74-2.49,4.1a1.62,1.62,0,0,1-.19.18Zm-1.56-6A1.62,1.62,0,1,0,5,1.77,1.62,1.62,0,0,0,3.38,3.39Z"/><ellipse class="cls-2" cx="5" cy="8.53" rx="3.74" ry="1.21"/></svg>