<svg id="Layer_1" data-name="Layer 1" xmlns="http://www.w3.org/2000/svg" viewBox="0 0 30 30.03"><defs><style>.cls-1{fill:#4ea557;}.cls-2{fill:none;stroke:#4ea557;stroke-miterlimit:10;}</style></defs><path class="cls-1" d="M14.82,28.22a1.63,1.63,0,0,1-.67-.68C11.59,23.33,9,19.14,6.47,14.92A9.09,9.09,0,0,1,5.21,9.57,9.61,9.61,0,0,1,8,3.21,9.47,9.47,0,0,1,13.56.41,9.47,9.47,0,0,1,20.48,2a9.53,9.53,0,0,1,4,5.81,9.55,9.55,0,0,1-1.15,7.41q-3.78,6.26-7.58,12.48a3.41,3.41,0,0,1-.59.54ZM10.07,10.11a4.92,4.92,0,0,0,9.83,0,4.92,4.92,0,1,0-9.83,0Z"/><ellipse class="cls-2" cx="15" cy="25.72" rx="11.35" ry="3.67"/></svg>