<svg xmlns="http://www.w3.org/2000/svg" width="20" height="20" viewBox="0 0 20 20">
  <defs>
    <style>
      .cls-1 {
        fill: #0052a0;
        fill-rule: evenodd;
      }
    </style>
  </defs>
  <path id="Logout" class="cls-1" d="M1858.44,217h-6.42a4.07,4.07,0,0,1-4.02-4.118v-5.764a4.07,4.07,0,0,1,4.02-4.118h6.42c1.09,0.063,1.33,1.647,0,1.647h-6.42a2.435,2.435,0,0,0-2.41,2.471v5.764a2.435,2.435,0,0,0,2.41,2.471h6.42C1859.77,215.353,1859.55,216.894,1858.44,217Zm7.31-8h0l-3.87-3.914a0.736,0.736,0,0,0-1.05,0,0.761,0.761,0,0,0,.01,1.065l2.6,2.628h-10.28a0.753,0.753,0,0,0,0,1.5h10.28l-2.6,2.628a0.759,0.759,0,0,0-.01,1.064,0.735,0.735,0,0,0,1.05,0l3.87-3.914h0A0.761,0.761,0,0,0,1865.75,209Z" transform="translate(-1846.985 -200)"/>
</svg>
