<svg id="Layer_1" data-name="Layer 1" xmlns="http://www.w3.org/2000/svg" viewBox="0 0 20 20"><defs><style>.cls-1{fill:#28a3b3;}</style></defs><path class="cls-1" d="M19.41,15.14A2.08,2.08,0,0,1,19,16a1.66,1.66,0,0,1-1.23.6H2.33A1.69,1.69,0,0,1,.59,14.91c0-3.3,0-6.61,0-9.91A1.63,1.63,0,0,1,2.26,3.34H17.74a1.64,1.64,0,0,1,1.63,1.29.74.74,0,0,1,0,.14ZM2.49,4.44l.09.11L8.8,10.73a1.65,1.65,0,0,0,2.41,0L17.4,4.56a.62.62,0,0,0,.09-.12Zm.08,11H17.39L12.72,10.7a10.61,10.61,0,0,1-.91,1,2.63,2.63,0,0,1-3,.42A4.06,4.06,0,0,1,8,11.46c-.26-.22-.48-.48-.75-.75Zm-.87-.77L6.34,10,1.7,5.23Zm12-4.77,4.63,4.73V5.2Z"/></svg>