<?xml version="1.0" encoding="utf-8"?>
<!-- Generator: Adobe Illustrator 25.3.0, SVG Export Plug-In . SVG Version: 6.00 Build 0)  -->
<svg version="1.1" id="Layer_1" xmlns="http://www.w3.org/2000/svg" xmlns:xlink="http://www.w3.org/1999/xlink" x="0px" y="0px"
	 viewBox="0 0 30 30" style="enable-background:new 0 0 30 30;" xml:space="preserve">
<style type="text/css">
	.st0{fill-rule:evenodd;clip-rule:evenodd;fill:#02539F;}
</style>
<path id="mobile_no" class="st0" d="M21,2.5H9c-1.6,0-3,1.3-3,2.9v19.1c0,1.6,1.4,2.9,3,2.9h12c1.6,0,3-1.3,3-2.9V5.4
	C24,3.8,22.6,2.5,21,2.5z M22,24.6c0,0.5-0.5,1-1,1H9c-0.5,0-1-0.4-1-1V5.4c0-0.5,0.5-1,1-1h1.8L11,5.1c0.1,0.4,0.5,0.7,0.9,0.7h6.1
	c0.4,0,0.8-0.3,0.9-0.7l0.2-0.6H21c0.5,0,1,0.4,1,1V24.6L22,24.6z"/>
</svg>
