<svg id="modify" xmlns="http://www.w3.org/2000/svg" width="80.893" height="19.999" viewBox="0 0 271 67">
  <defs>
    <style>
      .cls-1 {
        fill: #4078eb;
        fill-rule: evenodd;
      }
    </style>
  </defs>
  <path id="Shape_418_1" data-name="Shape 418 1" class="cls-1" d="M739.316,382.636L707.8,414.155a2.386,2.386,0,0,1-.936.579l-14.357,4.786a2.427,2.427,0,0,1-.756.122,2.394,2.394,0,0,1-2.269-3.149l4.786-14.357a2.4,2.4,0,0,1,.577-0.936l31.518-31.517A9.16,9.16,0,1,1,739.316,382.636Zm-3.382-9.554a4.377,4.377,0,0,0-6.19-.006l-31.118,31.108-3.094,9.282,9.293-3.1,31.107-31.108A4.362,4.362,0,0,0,735.934,373.082Zm-25.043,3.487H682.178a2.394,2.394,0,0,0-2.394,2.394v47.858a2.394,2.394,0,0,0,2.394,2.393h43.07a2.393,2.393,0,0,0,2.393-2.393V402.892a2.393,2.393,0,0,1,4.786,0v23.929A7.179,7.179,0,0,1,725.248,434h-43.07A7.179,7.179,0,0,1,675,426.821V378.963a7.179,7.179,0,0,1,7.179-7.179h28.713A2.393,2.393,0,1,1,710.891,376.569Z" transform="translate(-471.031 -367)"/>
  <path id="Modify-2" data-name="Modify" class="cls-1" d="M501.886,384.582l-11.36,26.557-11.359-26.557h-8.136V420.3h7.163V397.067l9.62,23.231h5.424l9.569-23.231V420.3h7.164V384.582h-8.085ZM530.9,420.759a15.466,15.466,0,0,0,7.5-1.817,13.628,13.628,0,0,0,5.321-5.142,14.778,14.778,0,0,0,1.97-7.676,15.076,15.076,0,0,0-1.919-7.675,13.343,13.343,0,0,0-5.244-5.143,16.067,16.067,0,0,0-14.84,0,13.343,13.343,0,0,0-5.244,5.143,15.076,15.076,0,0,0-1.919,7.675,15.41,15.41,0,0,0,1.867,7.676,13.064,13.064,0,0,0,5.143,5.142,14.919,14.919,0,0,0,7.368,1.817h0Zm0-6.243a6.651,6.651,0,0,1-5.091-2.175,8.794,8.794,0,0,1-2.021-6.217,8.668,8.668,0,0,1,2.072-6.217A6.82,6.82,0,0,1,531,397.733a6.983,6.983,0,0,1,5.193,2.174,8.535,8.535,0,0,1,2.124,6.217,9.573,9.573,0,0,1-1.023,4.606,6.891,6.891,0,0,1-2.738,2.84,7.455,7.455,0,0,1-3.659.946h0Zm19.5-8.494a16.674,16.674,0,0,0,1.714,7.7,12.83,12.83,0,0,0,4.682,5.194,12.176,12.176,0,0,0,6.55,1.842,11.715,11.715,0,0,0,5.578-1.279,9.71,9.71,0,0,0,3.735-3.378v4.2h7.266V382.433h-7.266V395.89a10.554,10.554,0,0,0-3.991-3.2,12.053,12.053,0,0,0-5.271-1.2,12.358,12.358,0,0,0-11.283,6.908,16.407,16.407,0,0,0-1.714,7.624h0Zm22.31,0.1a9.193,9.193,0,0,1-1.023,4.478,7.224,7.224,0,0,1-2.763,2.865,7.391,7.391,0,0,1-3.736,1,7.015,7.015,0,0,1-3.658-1.023,7.539,7.539,0,0,1-2.764-2.943,9.19,9.19,0,0,1-1.049-4.477,8.9,8.9,0,0,1,1.049-4.426,7.37,7.37,0,0,1,10.158-2.814,7.224,7.224,0,0,1,2.763,2.865,9.2,9.2,0,0,1,1.023,4.477h0Zm19.137-17.551a4.364,4.364,0,0,0,3.147-1.2,4.2,4.2,0,0,0,0-5.987,4.718,4.718,0,0,0-6.294,0,4.2,4.2,0,0,0,0,5.987,4.364,4.364,0,0,0,3.147,1.2h0Zm-3.633,3.377V420.3h7.164V391.95h-7.164Zm28.5,0h-4.964v-1.176a4.352,4.352,0,0,1,1.024-3.326,5.311,5.311,0,0,1,3.633-.87V380.54q-5.988-.155-8.955,2.3t-2.968,7.676v1.432h-3.224v5.885h3.224V420.3h7.266V397.835h4.964V391.95Zm25.43,0-7.42,19.8-7.317-19.8h-8.033l11.359,27.632-6.14,14.123h7.624l17.551-41.755h-7.624Z" transform="translate(-471.031 -367)"/>
</svg>
