<svg xmlns="http://www.w3.org/2000/svg" width="30" height="30" viewBox="0 0 30 30">
  <defs>
    <style>
      .cls-1 {
        fill: #0073e0;
        fill-rule: evenodd;
      }
    </style>
  </defs>
  <path id="mother" class="cls-1" d="M765.982,633.165c-0.492-.181-0.981-0.369-1.536-0.579a3.4,3.4,0,0,0,1.5-2.235,1.1,1.1,0,0,0-.176-1.274,4.2,4.2,0,0,1-1.182-4.361,2.115,2.115,0,0,0,.135-1.55,6.268,6.268,0,0,1-.35-2.162,6.665,6.665,0,0,0-1.873-4.573,7.173,7.173,0,0,0-6.615-2.366,7.073,7.073,0,0,0-3.832,1.809,7.194,7.194,0,0,0-2.441,5.841,1.852,1.852,0,0,1-.165.866,2.523,2.523,0,0,0-.047,2.1,4.1,4.1,0,0,1-1.2,4.395,0.474,0.474,0,0,0-.2.446,3.571,3.571,0,0,0,1.514,3.074c-0.507.195-.983,0.4-1.471,0.562A4.372,4.372,0,0,0,745,637.548c0.009,0.325.053,0.451,0.426,0.451q11.589-.02,23.178,0c0.28,0,.392-0.042.4-0.367A4.388,4.388,0,0,0,765.982,633.165Zm-1.5-2.792a2.506,2.506,0,0,1-1.939,1.5,10,10,0,0,0-1.234-.443,1.114,1.114,0,0,1-.764-0.992,3.1,3.1,0,0,0-.153-0.549,0.484,0.484,0,0,1,.14-0.648,4.5,4.5,0,0,0,1.162-2.306,0.608,0.608,0,0,1,.629-0.553c0.7-.148.718,0.228,0.781,0.714a4.226,4.226,0,0,0,1.215,2.5A0.646,0.646,0,0,1,764.487,630.373Zm-3.575,2.321a7.286,7.286,0,0,1-7.743.1,0.171,0.171,0,0,1,.058-0.069,1.8,1.8,0,0,0,1.523-1.76c0.058-.444.244-0.566,0.688-0.378a3.984,3.984,0,0,0,3.182-.014c0.408-.172.541-0.043,0.611,0.294C759.422,631.786,759.625,632.685,760.912,632.694Zm-9.794-12.47a5.993,5.993,0,0,1,4.355-4.647,5.428,5.428,0,0,1,1.565-.218,6.022,6.022,0,0,1,5.855,4.994c0.021,0.139.074,0.273,0.1,0.412,0.034,0.191-.019.324-0.248,0.274a17.84,17.84,0,0,0-3.134-.1,5.22,5.22,0,0,1-3.813-1.621,1.4,1.4,0,0,0-1.7-.365,2.725,2.725,0,0,0-1.757,1.686,0.363,0.363,0,0,1-.439.3,0.6,0.6,0,0,1-.159,0c-0.25-.1-0.525.311-0.722,0.013A1.024,1.024,0,0,1,751.118,620.224Zm-0.48,3.276a1.347,1.347,0,0,1,1.344-1.169,5.515,5.515,0,0,1,.909.006c0.539,0.073.787-.092,0.686-0.668a0.979,0.979,0,0,1,.22-0.8c0.539-.665.815-0.73,1.4-0.2a6.347,6.347,0,0,0,3.34,1.554,26.764,26.764,0,0,0,3.408.1,1.4,1.4,0,0,1,1.262.708,1.315,1.315,0,0,1-1.123,1.976,9.312,9.312,0,0,1-1.07-.006c-0.446-.045-0.637.059-0.6,0.567a3.615,3.615,0,0,1-.841,2.64,3.266,3.266,0,0,1-5.144.009,3.56,3.56,0,0,1-.845-2.584c0.04-.527-0.125-0.718-0.639-0.629a3.064,3.064,0,0,1-.475,0,3.47,3.47,0,0,1-.95-0.068A1.289,1.289,0,0,1,750.638,623.5Zm-1.237,6.547a0.314,0.314,0,0,1,.118-0.278,5.117,5.117,0,0,0,1.471-3.175c0.035-.258.061-0.369,0.338-0.217a0.736,0.736,0,0,0,.368.027,0.512,0.512,0,0,1,.6.5,4.534,4.534,0,0,0,1.179,2.347,0.611,0.611,0,0,1,.15.6,1.949,1.949,0,0,1-1.751,1.853,1.834,1.834,0,0,0-.4.157A2.529,2.529,0,0,1,749.4,630.047Zm15.1,6.552a0.268,0.268,0,0,1-.338-0.32c-0.034-1.019-.046-1.009-1.058-0.979a0.273,0.273,0,0,0-.335.324c-0.03.972-.042,0.971-1,0.971-3.335,0-6.67-.009-10.006.011-0.432,0-.582-0.08-0.555-0.542,0.044-.755.008-0.721-0.731-0.769-0.525-.035-0.761.1-0.651,0.651,0.1,0.521-.083.7-0.637,0.664-0.881-.056-1.769-0.015-2.681-0.015a2.872,2.872,0,0,1,1.769-2.014c0.95-.387,1.923-0.719,2.874-1.1a0.614,0.614,0,0,1,.657.119,8.784,8.784,0,0,0,10.329.043,0.731,0.731,0,0,1,.8-0.143q1.325,0.554,2.672,1.049a2.95,2.95,0,0,1,1.895,2.048C766.463,636.594,765.483,636.587,764.5,636.6Z" transform="translate(-742 -610.985)"/>
</svg>
