<svg id="Layer_1" data-name="Layer 1" xmlns="http://www.w3.org/2000/svg" viewBox="0 0 20 20"><defs><style>.cls-1{fill:#28a3b3;}</style></defs><path class="cls-1" d="M15.92,15.8h-2l-.36,0H13l-.41,0H7.32a3,3,0,0,0-.31,0H6.42l-.34,0h-4A1.81,1.81,0,0,1,.24,14.23a3.15,3.15,0,0,1,.68-2.61,1.87,1.87,0,0,1,1.48-.74.67.67,0,0,1,.47.17,1.71,1.71,0,0,0,1.83.34A5.39,5.39,0,0,0,5.3,11a.65.65,0,0,1,.28-.13.38.38,0,0,0,.33-.18,2.36,2.36,0,0,1,2-1.05.76.76,0,0,1,.5.19,2.5,2.5,0,0,0,1.67.63,2.2,2.2,0,0,0,1.42-.55,1.19,1.19,0,0,1,1.21-.2,2.5,2.5,0,0,1,1.43,1,.32.32,0,0,0,.25.15,1,1,0,0,1,.39.19,1.72,1.72,0,0,0,1.56.38,2,2,0,0,0,.74-.38.93.93,0,0,1,.81-.18,2,2,0,0,1,1.4,1,3.06,3.06,0,0,1,.38,2.69,1.74,1.74,0,0,1-1.72,1.22Zm-3.15-.73L13,15a1.38,1.38,0,0,0,1-1,3.17,3.17,0,0,0-.82-3.2,2,2,0,0,0-.7-.41.61.61,0,0,0-.65.1,3,3,0,0,1-3.71,0,.74.74,0,0,0-.83-.1,2.27,2.27,0,0,0-.61.39A3.18,3.18,0,0,0,5.82,13a2.42,2.42,0,0,0,.27,1.4,1.38,1.38,0,0,0,1.14.71v-1.8c0-.28.19-.43.43-.38a.36.36,0,0,1,.28.39c0,.53,0,1.05,0,1.57a1.48,1.48,0,0,0,0,.21h4.09V13.32c0-.28.14-.44.37-.44s.35.15.35.43v1.76Zm-10.22,0H5.7a3.51,3.51,0,0,1-.42-3.14l-.1,0a2.37,2.37,0,0,1-2.6-.25.46.46,0,0,0-.46-.07,1.58,1.58,0,0,0-.35.16,1.83,1.83,0,0,0-.68.94,2.24,2.24,0,0,0,0,1.74,1,1,0,0,0,.78.58c0-.44,0-.86,0-1.28A.56.56,0,0,1,2,13.43a.34.34,0,0,1,.53.33C2.56,14.19,2.55,14.62,2.55,15.06Zm11.75,0h3.14v-1.3a.36.36,0,0,1,.36-.38.36.36,0,0,1,.35.38V15a1,1,0,0,0,.86-.79A2.4,2.4,0,0,0,18.48,12a1.74,1.74,0,0,0-.58-.39.43.43,0,0,0-.49.07,2.32,2.32,0,0,1-1.41.51,2.41,2.41,0,0,1-1.29-.33A3.51,3.51,0,0,1,14.3,15.05Z"/><path class="cls-1" d="M10,9.24a2.74,2.74,0,0,1,0-5.48,2.74,2.74,0,1,1,0,5.48Zm0-4.75a2,2,0,1,0,2,2A2,2,0,0,0,10,4.49Z"/><path class="cls-1" d="M1.88,8.52a2.2,2.2,0,1,1,2.21,2.2A2.2,2.2,0,0,1,1.88,8.52Zm3.67,0A1.47,1.47,0,0,0,4.07,7a1.49,1.49,0,1,0,0,3A1.47,1.47,0,0,0,5.55,8.51Z"/><path class="cls-1" d="M15.94,10.72a2.2,2.2,0,1,1,2.2-2.2A2.2,2.2,0,0,1,15.94,10.72ZM16,7a1.49,1.49,0,1,0,1.46,1.49A1.49,1.49,0,0,0,16,7Z"/></svg>