<svg xmlns="http://www.w3.org/2000/svg" width="27" height="22" viewBox="0 0 27 22">
  <defs>
    <style>
      .cls-1 {
        fill: #0073df;
        fill-rule: evenodd;
      }
    </style>
  </defs>
  <path class="cls-1" d="M1579.69,671.852a3.849,3.849,0,0,0-2.49-1.517,12.234,12.234,0,0,0-2.9-.013,3.583,3.583,0,0,0-2.44,1.318c-0.85,1.009-1.68,2.039-2.51,3.062a1.276,1.276,0,0,0,.08,1.84,1.2,1.2,0,0,0,1.77-.286c0.46-.573.93-1.133,1.39-1.7,0.11-.141.22-0.22,0.37-0.063,0.01,0.133.02,0.266,0.02,0.4v9.653c0,0.146.01,0.291,0.02,0.436a1.109,1.109,0,0,0,.77.933,0.975,0.975,0,0,0,.78,0,1.127,1.127,0,0,0,.77-0.931c0.01-.181.02-0.363,0.02-0.545,0.01-1.73.01-3.338,0.02-5.06a0.415,0.415,0,0,1,.11-0.281v-0.009a0.3,0.3,0,0,1,.46.023v0.005a0.469,0.469,0,0,1,.1.3c-0.04,1.82-.02,3.64-0.01,5.461a1.122,1.122,0,0,0,.03.178,1.2,1.2,0,0,0,1.2.944,1.221,1.221,0,0,0,1.12-1.09c0.01-.133.01-0.266,0.01-0.4q0.015-5.01.01-10.02c0.2-.181.31-0.026,0.43,0.116,0.47,0.574.93,1.152,1.4,1.725a1.143,1.143,0,0,0,1.19.461,1.167,1.167,0,0,0,.94-1v-0.36a1.389,1.389,0,0,0-.41-0.818C1581.19,673.692,1580.43,672.778,1579.69,671.852Zm5.19-4.341c0.14,0.171.25,0.2,0.4-.02a2.767,2.767,0,0,1,.94-0.861,0.438,0.438,0,0,1,.46-0.08,2.017,2.017,0,0,0,.09,1,2.691,2.691,0,0,0,2.85,2.028,2.751,2.751,0,0,0,2.47-2.709c0-.428.05-0.463,0.43-0.246a2.468,2.468,0,0,1,.9.805c0.2,0.3.35,0.238,0.53,0a4.21,4.21,0,0,0,.55-1,0.857,0.857,0,0,0-.66-1.344,1.852,1.852,0,0,0-.39-0.083,2.819,2.819,0,0,0-.68.008,2.908,2.908,0,0,0-.85.24,0.235,0.235,0,0,1-.36-0.109,2.58,2.58,0,0,0-1.61-1.067,3.136,3.136,0,0,0-1.13,0,2.245,2.245,0,0,0-1.02.5,3.3,3.3,0,0,1-.8.7,5.483,5.483,0,0,1-1.02-.253,3.811,3.811,0,0,0-.71,0,1.662,1.662,0,0,0-.79.251,0.676,0.676,0,0,0-.35.822A3.985,3.985,0,0,0,1584.88,667.511Zm-11.49.817a2.754,2.754,0,0,0,2.67,1.253,0.942,0.942,0,0,0,.21-0.05,2.814,2.814,0,0,0-.02-5.46,2.374,2.374,0,0,0-1.13,0,2.671,2.671,0,0,0-2.12,2.177,2.505,2.505,0,0,0,0,1.09A2.532,2.532,0,0,0,1573.39,668.328Zm22.58,6.959a1.123,1.123,0,0,0-.28-0.606c-0.85-1.041-1.69-2.092-2.56-3.112a3.515,3.515,0,0,0-2.25-1.23,13.257,13.257,0,0,0-2.98,0,3.633,3.633,0,0,0-2.38,1.337c-0.59.7-1.19,1.411-1.75,2.142a4.108,4.108,0,0,0-.97,1.4,1.01,1.01,0,0,0,0,.726,1.1,1.1,0,0,0,.77.864,0.879,0.879,0,0,0,.64.028,1.263,1.263,0,0,0,.56-0.427c0.29-.353.57-0.711,0.86-1.064,0.32-.391.65-0.78,1.03-1.242a1.334,1.334,0,0,1-.17.721q-1.14,2.1-2.28,4.208a1.074,1.074,0,0,0,.71,1.568c1.42,0.011,1.72.271,1.73,0.6,0.01,0.605-.01,1.21,0,1.815s-0.04,1.231.03,1.845c0.01,0.065.01,0.131,0.02,0.2a1.188,1.188,0,0,0,1.16.945,1.23,1.23,0,0,0,1.16-1.091h0c0-1.315.01-2.631,0.01-3.947a0.335,0.335,0,0,1,.09-0.232v0a0.334,0.334,0,0,1,.53.028,0.044,0.044,0,0,1,.02.022,0.384,0.384,0,0,1,.07.208c-0.01,1.357-.04,2.714.02,4.071a1.12,1.12,0,0,0,1.35.89c0.07-.01.13-0.021,0.19-0.031a1.134,1.134,0,0,0,.77-0.931c0.01-.218.02-0.436,0.02-0.654,0-.968.01-2.694,0.02-3.426a0.283,0.283,0,0,1,.28-0.289l1.46-.017a1.006,1.006,0,0,0,.68-1.575q-1.245-2.334-2.51-4.663a1.041,1.041,0,0,0,.06-0.16,0.159,0.159,0,0,1,.18.09c0.51,0.639,1.03,1.28,1.55,1.914a1.962,1.962,0,0,0,.74.637,1.105,1.105,0,0,0,.65-0.038,1.145,1.145,0,0,0,.77-0.933A1.412,1.412,0,0,0,1595.97,675.287Zm-3.86,5.619c-0.01.007-.03,0.014-0.04,0.021A0.105,0.105,0,0,1,1592.11,680.906Z" transform="translate(-1569 -664)"/>
</svg>
