<svg xmlns="http://www.w3.org/2000/svg" width="30" height="30" viewBox="0 0 30 30">
  <defs>
    <style>
      .cls-1 {
        fill: #f7f8fb;
        fill-rule: evenodd;
      }
    </style>
  </defs>
  <path id="noti" class="cls-1" d="M1746.92,79.2a0.568,0.568,0,0,1-.5.3h-21.84a0.567,0.567,0,0,1-.5-0.3,0.588,0.588,0,0,1,.01-0.588l1.97-3.339a10.038,10.038,0,0,0,1.39-5.1V67.25a8.164,8.164,0,0,1,5.75-7.822V57.333a2.3,2.3,0,1,1,4.6,0v2.094a8.164,8.164,0,0,1,5.75,7.822v2.925a10.042,10.042,0,0,0,1.39,5.1l1.97,3.339A0.588,0.588,0,0,1,1746.92,79.2ZM1735.5,83a4.015,4.015,0,0,1-3.62-2.333h7.24A4.015,4.015,0,0,1,1735.5,83Z" transform="translate(-1720.5 -54)"/>
</svg>
