<svg xmlns="http://www.w3.org/2000/svg" width="29.999" height="29.999" viewBox="0 0 28 28">
  <defs>
    <style>
      .cls-1 {
        fill: #e99a00;
        fill-rule: evenodd;
      }
    </style>
  </defs>
  <path id="notVerified" class="cls-1" d="M14.955,29A14,14,0,1,1,29,15.047,13.988,13.988,0,0,1,14.955,29ZM14.02,7.529L14.363,17.3h2.387l0.324-9.772H14.02Zm1.6,14.506a1.69,1.69,0,0,0,1.234-.475,1.685,1.685,0,0,0,0-2.367,1.692,1.692,0,0,0-1.234-.475,1.753,1.753,0,0,0-1.264.475,1.661,1.661,0,0,0,0,2.367,1.751,1.751,0,0,0,1.265.475h0Z" transform="translate(-1 -1)"/>
</svg>
