<svg xmlns="http://www.w3.org/2000/svg" width="30" height="30" viewBox="0 0 30 30">
  <defs>
    <style>
      .cls-1 {
        fill: #0073e0;
        fill-rule: evenodd;
      }
    </style>
  </defs>
  <path id="openingCrates" class="cls-1" d="M1461,479.875a3.134,3.134,0,0,1-3.13,3.125h-18.75a3.117,3.117,0,0,1-3.12-3.125v-7.292a3.085,3.085,0,0,0,0-4.167v-7.291a3.115,3.115,0,0,1,3.12-3.125h18.75a3.133,3.133,0,0,1,3.13,3.125v7.291a3.085,3.085,0,0,0,0,4.167v7.292Zm-2.08-18.75a1.05,1.05,0,0,0-1.05-1.042h-18.75a1.05,1.05,0,0,0-1.04,1.042v7.291a1.05,1.05,0,0,0,1.04,1.042h18.75a1.05,1.05,0,0,0,1.05-1.042v-7.291Zm0,11.458a1.052,1.052,0,0,0-1.05-1.042h-18.75a1.052,1.052,0,0,0-1.04,1.042v7.292a1.052,1.052,0,0,0,1.04,1.042h18.75a1.052,1.052,0,0,0,1.05-1.042v-7.292Zm-9.38,5.208h-2.08a3.133,3.133,0,0,1-3.13-3.124,1.045,1.045,0,0,1,2.09,0,1.033,1.033,0,0,0,1.04,1.041h2.08a1.033,1.033,0,0,0,1.04-1.041,1.045,1.045,0,0,1,2.09,0A3.133,3.133,0,0,1,1449.54,477.791Zm0-11.458h-2.08a3.133,3.133,0,0,1-3.13-3.125,1.045,1.045,0,0,1,2.09,0,1.033,1.033,0,0,0,1.04,1.042h2.08a1.033,1.033,0,0,0,1.04-1.042,1.045,1.045,0,0,1,2.09,0A3.133,3.133,0,0,1,1449.54,466.333Z" transform="translate(-1433.5 -455.5)"/>
</svg>
