<svg xmlns="http://www.w3.org/2000/svg" width="20" height="20" viewBox="0 0 20 20">
  <defs>
    <style>
      .cls-1 {
        fill: #108bff;
        fill-rule: evenodd;
      }
    </style>
  </defs>
  <path id="order_No" class="cls-1" d="M1272.02,262.439c-0.08-.04.15-0.086,0.23-0.076,0.21,0.031.21-.076,0.21-0.24v-9.756a0.673,0.673,0,0,1,.44-0.686c2.57-1.2,5.13-2.393,7.7-3.6a0.751,0.751,0,0,1,.72.01q3.6,1.808,7.22,3.6a0.7,0.7,0,0,1,.43.682c-0.01,1.232-.01,2.465-0.01,3.7,0,1.938.01,3.875,0,5.813a1.48,1.48,0,0,1-.05.576c0.27-.15-8.62,4.54-8.62,4.54S1276.65,265.043,1272.02,262.439Zm2.96-10.05q3.12-1.461,6.24-2.919a0.294,0.294,0,0,1,.29.006c0.49,0.252.98,0.492,1.51,0.754-0.45.232-.86,0.447-1.27,0.659-1.64.841-3.29,1.679-4.93,2.525a0.335,0.335,0,0,1-.36,0c-0.55-.307-1.11-0.6-1.67-0.9A0.293,0.293,0,0,1,1274.98,252.389Zm5.14,13.046c0.01,0.15-.01.2-0.17,0.109q-3.075-1.669-6.17-3.328a0.226,0.226,0,0,1-.15-0.23v-8.462a0.823,0.823,0,0,0,.01-0.095c0.65,0.349,1.27.687,1.89,1.018a0.183,0.183,0,0,1,.09.206c0,0.528,0,1.055-.01,1.582a0.257,0.257,0,0,0,.19.276c0.38,0.168.76,0.346,1.14,0.529,0.13,0.064.16,0.034,0.15-.1v-1.609a0.746,0.746,0,0,1,.33.137c0.85,0.457,1.7.923,2.56,1.377a0.254,0.254,0,0,1,.15.253Q1280.115,261.266,1280.12,265.435Zm0.73-9.783a0.219,0.219,0,0,1-.23.028c-0.94-.506-1.88-1.01-2.85-1.535,0.89-.455,1.74-0.89,2.58-1.324,1.24-.636,2.48-1.269,3.72-1.909a0.291,0.291,0,0,1,.3,0c0.85,0.426,1.7.847,2.54,1.272a0.16,0.16,0,0,1,.14.1,0.178,0.178,0,0,1-.13.09C1284.9,253.467,1282.87,254.559,1280.85,255.652Z" transform="translate(-1270.5 -247.5)"/>
</svg>
