<?xml version="1.0" encoding="utf-8"?>
<!-- Generator: Adobe Illustrator 25.3.0, SVG Export Plug-In . SVG Version: 6.00 Build 0)  -->
<svg version="1.1" id="Layer_1" xmlns="http://www.w3.org/2000/svg" xmlns:xlink="http://www.w3.org/1999/xlink" x="0px" y="0px"
	 viewBox="0 0 20 20" style="enable-background:new 0 0 20 20;" xml:space="preserve">
<style type="text/css">
	.st0{fill-rule:evenodd;clip-rule:evenodd;fill:#02539F;}
</style>
<path id="Org" class="st0" d="M5.4,14.3H6c0.4,0,0.8,0,1.2,0c0.2,0,0.3,0.1,0.3,0.3c0,1,0.1,1-0.9,1c-0.6,0-1.2,0-1.9,0
	c-0.2,0-0.3-0.1-0.3-0.3C4.4,14.3,4.4,14.3,5.4,14.3z M6.6,12.7H6c-0.4,0-0.8,0-1.2,0c-0.3,0-0.4-0.1-0.4-0.4c0-1,0-1,0.9-1
	c0.6,0,1.2,0,1.8,0c0.1,0,0.3,0,0.3,0.2c0,0,0,0.1,0,0.1C7.6,12.7,7.6,12.7,6.6,12.7z M6.6,6.9c-0.6,0-1.2,0-1.8,0
	c-0.2,0-0.3,0-0.3-0.3c0-1,0-1,0.9-1H6c0.4,0,0.9,0,1.3,0c0.2,0,0.3,0,0.3,0.3C7.5,6.9,7.6,6.9,6.6,6.9z M7.5,9.6
	c0,0.2-0.2,0.2-0.3,0.2c-0.4,0-0.8,0-1.2,0s-0.8,0-1.2,0c-0.1,0-0.3,0-0.3-0.1c0-0.4,0-0.7,0-1.1c0-0.1,0.1-0.2,0.2-0.2c0,0,0,0,0,0
	c0.9,0,1.7,0,2.6,0c0.1,0,0.2,0.1,0.2,0.2c0,0,0,0,0,0.1C7.5,9,7.5,9.3,7.5,9.6z M13.4,8.5c0.6,0,1.2,0,1.7,0c0.2,0,0.3,0.1,0.4,0.2
	c0,0,0,0.1,0,0.1c0,1,0,1-1,1H14c-0.4,0-0.8,0-1.2,0c-0.1,0-0.3,0-0.3-0.2c0,0,0-0.1,0-0.1C12.4,8.5,12.4,8.5,13.4,8.5L13.4,8.5z
	 M13.4,14.3c0.6,0,1.2,0,1.9,0c0.2,0,0.3,0.1,0.3,0.3c0,1,0,1-0.9,1H14c-0.4,0-0.8,0-1.2,0c-0.2,0-0.3-0.1-0.3-0.3
	C12.4,14.3,12.4,14.3,13.4,14.3L13.4,14.3z M13.4,11.4c0.6,0,1.2,0,1.8,0c0.1,0,0.3,0,0.3,0.2c0,0,0,0.1,0,0.1c0,1,0,1-1,1
	c-0.2,0-0.4,0-0.5,0l0,0c-0.4,0-0.8,0-1.2,0c-0.1,0-0.3,0-0.3-0.2c0,0,0-0.1,0-0.1v0C12.4,11.4,12.4,11.4,13.4,11.4L13.4,11.4z
	 M19.1,18.6c-6.2,0-12.4,0-18.6,0c-0.4,0-0.5-0.1-0.5-0.5c0-0.9,0-0.9,0.9-0.9c0.4,0,0.5-0.1,0.5-0.5c0-4.1,0-8.1,0-12.2
	c0-0.8,0.1-0.9,0.9-1.2c2.5-0.7,5.1-1.3,7.6-2c0.3-0.1,0.6,0.1,0.7,0.3c0,0.1,0,0.1,0,0.2c0,0.7,0,1.4,0,2.1c0,0,0,0.1,0,0.1
	c-0.3,0.2-0.7,0.2-1.1,0.1C9.3,4.3,9.4,4.2,9.4,4c0-0.4,0-0.8,0-1.2L3,4.6C2.8,4.6,2.7,4.8,2.7,5c0,0,0,0,0,0c0,4,0,7.9,0,11.9
	c0,0.3,0.1,0.3,0.3,0.3c2,0,4,0,6,0c0.3,0,0.3-0.1,0.3-0.4c0-3.5,0-7,0-10.4C9.3,6.1,9.5,5.7,9.8,5.6c0.1,0,0.2,0,0.3,0
	c2.6,0,5.2,0,7.8-0.1c0.4,0,0.8,0.3,0.8,0.7c0,0,0,0.1,0,0.1c0,2.4,0,4.8,0,7.2c0,0.2,0,0.3-0.3,0.3c-1.1,0-1.1,0-1.1-1
	c0-1.9,0-3.7,0-5.6c0-0.4-0.1-0.4-0.4-0.4c-1.9,0-3.9,0-5.8,0c-0.3,0-0.5,0.1-0.4,0.4c0,3.2,0,6.4,0,9.6c0,0.3,0.1,0.3,0.4,0.3
	c2.8,0,5.7,0,8.5,0c0.4,0,0.5,0.1,0.5,0.5C20,18.6,20,18.6,19.1,18.6z M18.2,16.2C18.1,16.2,18.1,16.2,18.2,16.2
	c-0.9,0-0.8,0-0.9-0.8c0-0.3,0.1-0.4,0.4-0.4c0.1,0,0.2,0,0.4,0c0.6,0,0.6,0,0.6,0.7C18.7,16.1,18.6,16.3,18.2,16.2L18.2,16.2z"/>
</svg>
