<svg id="Layer_1" data-name="Layer 1" xmlns="http://www.w3.org/2000/svg" viewBox="0 0 20 20"><defs><style>.cls-1{fill:#02539f;}</style></defs><path class="cls-1" d="M0,13.83a3.65,3.65,0,0,1,.34-.61,1.14,1.14,0,0,1,.89-.41c.32,0,.63,0,1,0l-.14,0A1.53,1.53,0,0,1,.91,11.23a5,5,0,0,1,0-1A1.55,1.55,0,0,1,2.66,9.06,1.57,1.57,0,0,1,4,10.59a5.15,5.15,0,0,1,0,.88,1.53,1.53,0,0,1-1.1,1.28.17.17,0,0,0-.11.06H3.7A1.25,1.25,0,0,1,5,14.1V15c0,.23-.12.36-.32.36s-.3-.14-.3-.36,0-.55,0-.82a.65.65,0,0,0-.7-.7H1.27a.63.63,0,0,0-.68.69c0,.25,0,.51,0,.76s0,.35-.22.41-.3,0-.41-.18Zm1.56-2.9h0v.33a.94.94,0,0,0,.88.92.92.92,0,0,0,1-.77,3.86,3.86,0,0,0,0-.9.93.93,0,0,0-1.85,0A3.83,3.83,0,0,0,1.52,10.93Z"/><path class="cls-1" d="M20.05,15.12l-.08.09a.26.26,0,0,1-.35.08.45.45,0,0,1-.19-.28c0-.3,0-.6,0-.9a.64.64,0,0,0-.66-.67H16.32a.64.64,0,0,0-.67.68V15c0,.23-.12.36-.32.36S15,15.18,15,15s0-.63,0-.94a1.25,1.25,0,0,1,1.22-1.21h1a3,3,0,0,1-.47-.2,1.51,1.51,0,0,1-.8-1.35,5.32,5.32,0,0,1,0-1,1.56,1.56,0,0,1,3.09.32,4.28,4.28,0,0,1,0,.88,1.6,1.6,0,0,1-1.21,1.33h.83a1.25,1.25,0,0,1,1.32,1s0,0,0,.05Zm-1.56-4.18h0v-.35a1,1,0,0,0-.89-.91.91.91,0,0,0-1,.77,3.32,3.32,0,0,0,0,.89.92.92,0,0,0,.9.84.91.91,0,0,0,.94-.77A3.57,3.57,0,0,0,18.49,10.94Z"/><path class="cls-1" d="M7.86,8.18a5.64,5.64,0,0,1,.53.31A.35.35,0,0,0,9,8.25a1.67,1.67,0,0,1,0-.31.6.6,0,0,1,.59-.45h.71a.64.64,0,0,1,.69.62.57.57,0,0,1,0,.13.41.41,0,0,0,.37.37.17.17,0,0,0,.12,0l.22-.17a.65.65,0,0,1,.92,0l.47.47a.65.65,0,0,1,0,.91.58.58,0,0,1-.1.12c-.16.13-.1.27,0,.43s.18.15.29.16a.79.79,0,0,1,.64.29,2.15,2.15,0,0,1,0,1.48.7.7,0,0,1-.55.28c-.18,0-.34,0-.41.24a.27.27,0,0,0,.05.32,1,1,0,0,1,.15.2.61.61,0,0,1,0,.82,7.4,7.4,0,0,1-.56.56.64.64,0,0,1-.83,0l-.15-.12a.4.4,0,0,0-.52,0,.14.14,0,0,0,0,.11c0,.13,0,.26-.07.39a.6.6,0,0,1-.63.5H9.67A.65.65,0,0,1,9,15c0-.07,0-.13,0-.2a.34.34,0,0,0-.57-.22l-.16.12a.64.64,0,0,1-.87-.05l-.5-.5a.63.63,0,0,1,0-.88,1.13,1.13,0,0,0,.1-.13.36.36,0,0,0,0-.51s-.08-.05-.13-.06l-.4-.07a.61.61,0,0,1-.47-.6c0-.24,0-.47,0-.71a.64.64,0,0,1,.6-.68l.16,0a.34.34,0,0,0,.24-.59.87.87,0,0,1-.26-.61,1.92,1.92,0,0,1,1.1-1.1h.06Zm1.78,0c-.05.42-.11.81-.61,1a1,1,0,0,1-1.18-.28l-.52.54.23.31a1,1,0,0,1-.39,1.36L7,11.13a1.65,1.65,0,0,0-.31,0c-.05,0-.12.08-.12.13s0,.4,0,.62c.43.05.82.11,1,.62a1,1,0,0,1-.33,1.22,2,2,0,0,1,.3.23,2.2,2.2,0,0,1,.24.28L8.14,14a1.07,1.07,0,0,1,1.36.33,1.42,1.42,0,0,1,.07.22c0,.1,0,.21,0,.31a.2.2,0,0,0,.13.12h.62c.05-.43.11-.81.62-1a1,1,0,0,1,1.17.28l.53-.55a1,1,0,0,1-.27-1.15c.2-.51.59-.58,1-.63v-.73a1,1,0,0,1-1-.61,1,1,0,0,1,.28-1.17l-.55-.51-.31.22a1,1,0,0,1-1.37-.42.4.4,0,0,1,0-.15,2.5,2.5,0,0,0,0-.29.22.22,0,0,0-.12-.13C10.07,8.12,9.86,8.13,9.64,8.13Z"/><path class="cls-1" d="M9.66,4.35A1.57,1.57,0,0,1,8.47,3.06a4.23,4.23,0,0,1,0-1.28A1.54,1.54,0,0,1,10.19.6a1.57,1.57,0,0,1,1.38,1.51,5.39,5.39,0,0,1,0,.9,1.52,1.52,0,0,1-1.1,1.28.17.17,0,0,0-.11.06h.89a1.24,1.24,0,0,1,1.28,1.27c0,.29,0,.59,0,.88s-.12.36-.32.36-.3-.14-.3-.36V5.68A.64.64,0,0,0,11.2,5H8.8a.63.63,0,0,0-.68.69v.84c0,.22-.12.35-.31.35s-.31-.13-.31-.35,0-.62,0-.94A1.24,1.24,0,0,1,8.72,4.35ZM11,2.48h0c0-.12,0-.24,0-.35a.94.94,0,0,0-.88-.91.92.92,0,0,0-1,.77,3.86,3.86,0,0,0,0,.9A.93.93,0,0,0,10.92,3,3.73,3.73,0,0,0,11,2.48Z"/><path class="cls-1" d="M9.49,18.76a7.51,7.51,0,0,1-5-2.24c-.18-.17-.21-.35-.08-.5s.32-.14.52.05A7.08,7.08,0,0,0,8.6,18a7.11,7.11,0,0,0,6.34-1.8l.15-.15a.32.32,0,0,1,.49,0,.32.32,0,0,1-.05.47,11.38,11.38,0,0,1-1.22,1A8.06,8.06,0,0,1,9.49,18.76Z"/><path class="cls-1" d="M7.81,3.8a.35.35,0,0,1-.28.37,7,7,0,0,0-1.91,1,7.18,7.18,0,0,0-2.34,3.1l-.06.17c-.09.21-.25.3-.43.23a.34.34,0,0,1-.17-.46,7.71,7.71,0,0,1,1.1-2A7.88,7.88,0,0,1,7.3,3.57c.17-.06.33-.08.45.08A.42.42,0,0,1,7.81,3.8Z"/><path class="cls-1" d="M12.55,3.53a.77.77,0,0,1,.17.05,7.87,7.87,0,0,1,4.65,4.64l0,.07a.33.33,0,0,1-.17.43.32.32,0,0,1-.43-.21c-.2-.42-.37-.86-.61-1.26a7.05,7.05,0,0,0-3.58-3c-.09,0-.18-.07-.27-.12a.29.29,0,0,1-.13-.35C12.25,3.6,12.36,3.53,12.55,3.53Z"/><path class="cls-1" d="M8.12,11.56A1.89,1.89,0,1,1,10,13.44,1.88,1.88,0,0,1,8.12,11.56ZM10,10.31a1.25,1.25,0,0,0,0,2.5,1.25,1.25,0,1,0,0-2.5Z"/></svg>