<svg xmlns="http://www.w3.org/2000/svg" width="30" height="26" viewBox="0 0 30 26">
  <defs>
    <style>
      .cls-1 {
        fill: #ccc;
        fill-rule: evenodd;
      }
    </style>
  </defs>
  <path id="other" class="cls-1" d="M427.091,869a2.959,2.959,0,0,1-3-2.915v-1.015c-1.2-.612-3.593-1.582-3.593-2.675l1.609-8.57c0-1.855,2.231-3.36,4.984-3.36m0-1.165a3.148,3.148,0,1,1,0-6.294m-0.1,7.459c2.753,0,4.984,1.5,4.984,3.36v4.765a3.169,3.169,0,0,1-1.98,2.675v4.82a2.96,2.96,0,0,1-3,2.915m0-25.994a3.148,3.148,0,1,1,0,6.294" transform="translate(-411.235 -843)"/>
</svg>
