<svg xmlns="http://www.w3.org/2000/svg" width="30" height="30" viewBox="0 0 30 30">
  <defs>
    <style>
      .cls-1 {
        fill: #0083ff;
        fill-rule: evenodd;
      }
    </style>
  </defs>
  <path id="password" class="cls-1" d="M1042.96,766.2a1.05,1.05,0,1,1-1.05,1.05A1.05,1.05,0,0,1,1042.96,766.2Zm-4.3,6.929h8.59a3.152,3.152,0,0,0,3.15-3.15v-5.67a3.152,3.152,0,0,0-3.15-3.15h-0.21v-2.5a4.086,4.086,0,0,0-8.17,0v2.5h-0.21a3.149,3.149,0,0,0-3.14,3.15v5.67A3.149,3.149,0,0,0,1038.66,773.133Zm2.31-14.469a1.992,1.992,0,0,1,3.98,0v2.5h-3.98v-2.5h0Zm-3.36,5.649a1.051,1.051,0,0,1,1.05-1.05h8.59a1.051,1.051,0,0,1,1.05,1.05v5.67a1.051,1.051,0,0,1-1.05,1.05h-8.59a1.051,1.051,0,0,1-1.05-1.05v-5.67Zm3.25,10.922a1.05,1.05,0,1,1-1.05,1.05A1.05,1.05,0,0,1,1040.86,775.235Zm-4.19,0a1.05,1.05,0,1,1-1.05,1.05A1.05,1.05,0,0,1,1036.67,775.235Zm16.55-4.068a1.05,1.05,0,0,0-.52,2.034,2.091,2.091,0,0,1,1.57,2.034v2.1a2.1,2.1,0,0,1-2.09,2.1h-18.44a2.1,2.1,0,0,1-2.1-2.1v-2.1a2.115,2.115,0,0,1,1.5-2.015,1.05,1.05,0,0,0-.59-2.015,4.226,4.226,0,0,0-2.15,1.492,4.149,4.149,0,0,0-.85,2.538v2.1a4.2,4.2,0,0,0,4.19,4.2h18.44a4.2,4.2,0,0,0,4.19-4.2v-2.1A4.2,4.2,0,0,0,1053.22,771.167Zm-8.17,4.068a1.05,1.05,0,1,1-1.04,1.05A1.05,1.05,0,0,1,1045.05,775.235Zm4.19,0a1.05,1.05,0,1,1-1.04,1.05A1.05,1.05,0,0,1,1049.24,775.235Z" transform="translate(-1027.97 -753.093)"/>
</svg>
