<svg xmlns="http://www.w3.org/2000/svg" width="127" height="113" viewBox="0 0 127 113">
  <defs>
    <style>
      .cls-1 {
        fill: #fff;
        fill-rule: evenodd;
      }
    </style>
  </defs>
  <path id="payBands" class="cls-1" d="M89.358,14.407h8.909a8.4,8.4,0,0,1,8.33,8.457V45.217a4.165,4.165,0,1,0,8.329,0V16.368c0-9.327-7.473-10.418-16.659-10.418H89.358s-3.861.005-4.174,3.789C85.184,13.785,89.358,14.407,89.358,14.407ZM15.4,73.6V88.832a16.808,16.808,0,0,0,16.659,16.915H68.895a4.229,4.229,0,0,0,0-8.457H32.057a8.4,8.4,0,0,1-8.33-8.457V73.6C24.459,66.737,15.4,64.271,15.4,73.6ZM70.735,41.163a23.731,23.731,0,0,1-2.643,6.223l7.822,7.67L67.2,63.6l-7.824-7.67a24.753,24.753,0,0,1-6.242,2.563v10.76H40.813V58.544a24.723,24.723,0,0,1-6.452-2.616L26.539,63.6l-8.713-8.542,7.824-7.67a23.76,23.76,0,0,1-2.643-6.223H11.856V29.082h11.15a23.716,23.716,0,0,1,2.643-6.222l-7.824-7.67,8.714-8.542,7.822,7.67A24.759,24.759,0,0,1,40.813,11.7V0.995H53.136V11.756a24.745,24.745,0,0,1,6.243,2.562L67.2,6.647l8.713,8.542-7.824,7.67a23.716,23.716,0,0,1,2.643,6.222h11.05V41.163H70.735ZM46.871,47.2a12.083,12.083,0,1,0,0-24.161,12.417,12.417,0,0,0-7.108,2.222l-2.95,2.891a11.851,11.851,0,0,0-2.265,6.968A12.216,12.216,0,0,0,46.871,47.2ZM97.292,69.278a8.107,8.107,0,0,0-5.823-4.02c-3.317-.756-6.693-0.459-10.05-0.5-1.55-.02-1.719-0.177-1.72-1.715,0-1.5.015-3-.005-4.5A1.335,1.335,0,0,1,81.255,57q16.229,0.015,32.458,0A1.357,1.357,0,0,1,115.3,58.55c-0.016,1.166-.018,2.333,0,3.5a1.283,1.283,0,0,1-1.523,1.46c-2.965-.016-5.93-0.006-9.071-0.006a16.324,16.324,0,0,1,2.432,5.326c0.123,0.548.606,0.451,1.015,0.45,1.671,0,3.342-.008,5.013,0,1.779,0.01,2.13.355,2.13,2.058q0,1.375,0,2.749c0,1.382-.431,1.855-1.818,1.879-1.8.03-3.593,0-5.389,0.01-0.388,0-.713-0.11-0.843.553-1.284,6.542-5.616,10.237-11.707,12.2a15.787,15.787,0,0,1-4.306.808c1.523,1.719,3.008,3.37,4.465,5.045,3.235,3.72,6.509,7.406,9.591,11.257,1.293,1.616,2.638,3.19,3.981,4.765a1.44,1.44,0,0,1,.383,1.682,1.34,1.34,0,0,1-1.417.709c-2.34,0-4.679-.023-7.018.011a2.1,2.1,0,0,1-1.694-.87c-2.182-2.546-4.344-5.109-6.526-7.655-2.24-2.614-4.467-5.24-6.751-7.816-1.93-2.176-3.939-4.283-5.9-6.431a2.378,2.378,0,0,1-.66-1.79c0.061-1.5.025-3,.015-4.5a1.035,1.035,0,0,1,1.212-1.193,45.522,45.522,0,0,0,7.24-.275c3.6-.453,7.036-1.322,9.046-4.8,0.1-.178.191-0.364,0.289-0.544,0.447-.823.415-1.194-0.736-1.18-4.928.06-9.858,0.027-14.787,0.025-1.9,0-2.261-.357-2.261-2.194q0-1.187,0-2.374c0-1.793.33-2.122,2.189-2.125q5.7-.009,11.4,0h4Z" transform="translate(-0.062 -0.5)"/>
</svg>
