<svg xmlns="http://www.w3.org/2000/svg" width="30" height="29.994" viewBox="0 0 224.048 224">
  <defs>
    <style>
      .cls-1 {
        fill: #8c8c8c;
        fill-rule: evenodd;
      }
    </style>
  </defs>
  <path id="PGF" class="cls-1" d="M267.991,97.337a8.244,8.244,0,0,0-2.6-6.514q-25.734-25.46-51.238-51.152a8.241,8.241,0,0,0-6.47-2.662c-28.625.09-57.251,0-85.876,0.079A23.716,23.716,0,0,0,98,60.923c0.161,27.8.021,55.609,0.079,83.414,0.006,2.815.217,4.662-3.809,4.967-4.546.345-8.107,3.365-8.14,8.461C86,177.743,86.052,197.723,86.107,217.7c0.012,4.224,2.918,7.61,6.323,7.892,5.8,0.48,6.13,3.4,5.638,7.748a36.742,36.742,0,0,0-.007,4.492A23.424,23.424,0,0,0,121.1,260.9q61.91,0.141,123.821,0c12.44-.031,22.954-10.788,22.985-23.206,0.058-23.309.017-46.618,0.017-69.927h0.017C267.94,144.289,267.9,120.813,267.991,97.337ZM111.06,188.973c0-5.652.113-11.307-.054-16.954-0.07-2.335.557-2.959,2.963-3.2,4.964-.5,9.787-1.057,14.815.014,7,1.492,10.788,4.835,11.247,11a13.252,13.252,0,0,1-9.507,13.916c-1.724.53-3.626,1.233-5.315,0.979-4.993-.75-5.805,1.73-5.184,5.81a23.155,23.155,0,0,1,.027,3.486c-0.007,4.368-4.052,6.812-8.037,4.909-1.477-.7-0.917-1.969-0.928-3.006C111.03,200.277,111.06,194.625,111.06,188.973Zm130.1,57.467c-19.481.079-38.961,0.024-58.442,0.025q-28.72,0-57.442-.007c-10.525-.014-16.5-8.54-13.191-18.6,0.731-2.219,2.419-1.355,3.7-1.367,8.657-.084,17.315-0.044,25.973-0.044q40.21,0,80.42-.018a40.1,40.1,0,0,0,5.946-.434c4.5-.682,7.418-3.141,7.844-7.858,1.036-11.463.255-22.955,0.432-34.432q0.177-11.49,0-22.986c-0.131-8.253-3.709-11.7-11.947-11.705-35.8-.015-71.595-0.091-107.391.105-4.244.023-5.1-1.111-5.069-5.181,0.2-26.317.1-52.635,0.105-78.953,0-10.069,3.314-13.428,13.324-13.435,25.308-.016,50.617.064,75.924-0.084,3.568-.021,4.912.6,4.74,4.569-0.369,8.479-.067,16.985-0.125,25.48-0.069,10.305,7.892,18.312,17.708,17.67,8.621-.564,17.31-0.028,25.965-0.173,2.546-.043,3.374.6,3.379,3.279,0.07,44.14.283,88.28,0.372,132.42C253.4,243.357,250.169,246.4,241.156,246.44Zm-95.136-51.1c-0.108-2.158-.018-4.325-0.018-6.488,0-5.656-.038-11.313.032-16.969,0.014-1.125-.722-2.636,1.538-2.942,8.445-1.144,16.813-1.764,24.773,2.207a14.2,14.2,0,0,1,7.831,9.6c3.933,15.5-3.009,27.68-19.86,28.272-4.629.163-10.5,1.7-13.452-.815C144.071,205.82,146.243,199.767,146.02,195.336Zm41.438-6.912c0-5.656.116-11.316-.053-16.967-0.073-2.454.764-3.1,3.117-3.042,6.149,0.147,12.312.235,18.454-.021,3.6-.15,2.928,2.055,3.044,4.164,0.124,2.281-.1,3.871-3.093,3.487a51.243,51.243,0,0,0-6.478-.052c-5.4,0-6.841,2.091-5.548,7.507,0.416,1.743,1.445,1.483,2.539,1.5a41.388,41.388,0,0,0,6.974-.053c4.326-.687,4.793,1.5,4.67,5.018-0.084,2.411-.77,3.04-3.127,3.063-3.584.034-8.487-1.7-10.4,0.776-1.788,2.315-.824,7.014-0.523,10.618,0.308,3.685-.731,4.871-4.56,4.685-3.449-.167-5.5-0.331-5.121-4.719C187.8,199.1,187.458,193.748,187.458,188.424Zm-32.44.584c0-3.478.16-6.965-.051-10.429-0.167-2.735,1.256-3.686,3.51-3.518,4.7,0.349,9.235,1.407,11.717,5.984,2.9,5.35,2.445,10.848-.687,15.858-2.83,4.527-7.472,5.487-12.57,5.153-2.032-.133-1.93-1.253-1.924-2.616C155.029,195.963,155.018,192.485,155.018,189.008Zm-35.249-7.5c1.41-2.166-2.205-6.564,3.5-6.534,4.888,0.025,7.837,2.281,7.772,6.262-0.063,3.824-3.759,6.884-8.269,6.672C117.535,187.66,121.317,183.469,119.769,181.506Z" transform="translate(-65.007 -37)"/>
</svg>
