<svg xmlns="http://www.w3.org/2000/svg" viewBox="0 0 82.51 87.11"><g id="Layer_2" data-name="Layer 2"><g id="PRINT"><path d="M.28,58.11c14,.89,26.46-2.62,36.89-12.17C45,38.75,49.86,29.84,52,18.81H42.15l-.63-1.24L61.73,0,82.51,18.22l-9.11.46C68.94,39.11,56.7,52.9,36.71,59.36A52.1,52.1,0,0,1,.28,58.11Z" style="fill:#1a96fc"/><path d="M75.48,22.76V86.91H64.87V72.62c0-3.5.15-7,0-10.5-.53-10.36-.44-20.47,6.52-29.27C73.22,30.5,73.77,27.11,75.48,22.76Z" style="fill:#1a96fc"/><path d="M48.42,86.92c0-9.47-.11-18.71.14-27.94,0-1.18,1.83-2.48,3-3.44,2.17-1.75,4.51-3.29,7.28-5.26V86.92Z" style="fill:#1a96fc"/><path d="M42.8,87.11H32.23c0-7.44-.07-14.7.09-22,0-.79,1.22-1.93,2.1-2.25C37,62,39.77,61.34,42.8,60.49Z" style="fill:#1a96fc"/><path d="M10.36,87.05H0V62a79.71,79.71,0,0,1,8.07,1.87,3.68,3.68,0,0,1,2.19,2.58C10.45,73.24,10.36,80,10.36,87.05Z" style="fill:#1a96fc"/><path d="M16.32,64.81H26.47V87H16.32Z" style="fill:#1a96fc"/></g></g></svg>