<svg xmlns="http://www.w3.org/2000/svg" width="24" height="24" viewBox="0 0 24 24">
  <defs>
    <style>
      .cls-1 {
        fill: #afafaf;
        fill-rule: evenodd;
      }
    </style>
  </defs>
  <path id="permission" class="cls-1" d="M1073.88,415.014a3.258,3.258,0,0,0-3.91-2.862,3.335,3.335,0,0,0-2.44,4.251,0.579,0.579,0,0,1-.19.663c-0.88.9-1.74,1.824-2.63,2.711a1.325,1.325,0,0,0-.42,1.05c0.03,1.173.01,1.173,1.13,1.172a0.912,0.912,0,0,0,1.12-1.113c0-.376.1-0.511,0.46-0.46a0.511,0.511,0,0,0,.66-0.672c-0.07-.4.09-0.554,0.47-0.49a0.8,0.8,0,0,0,.86-0.354,0.646,0.646,0,0,1,.84-0.236,3.19,3.19,0,0,0,3.97-2.423,0.74,0.74,0,0,1,.2-0.584v-0.36C1073.84,415.265,1073.9,415.12,1073.88,415.014Zm-1.49-.613a0.752,0.752,0,0,1-.72.748,0.786,0.786,0,0,1-.77-0.828A0.746,0.746,0,1,1,1072.39,414.4Zm-6.86.017a1.228,1.228,0,0,1-.22-0.068c-0.55-.148-0.8-0.5-0.52-0.952,0.45-.729.7-1.546,1.14-2.275a4.424,4.424,0,0,0,.73-3.407,5.138,5.138,0,0,1-.1-1.74,5.236,5.236,0,0,0-1.34-4.408,0.6,0.6,0,0,1-.2-0.9c0.28-.507.12-0.678-0.47-0.639a17.475,17.475,0,0,1-3.75.007,2.893,2.893,0,0,0-3.12,1.644,0.554,0.554,0,0,1-.37.32,2.346,2.346,0,0,0-1.6,1.88,6.493,6.493,0,0,0-.06,2.326,1.561,1.561,0,0,1,.01,1,2.921,2.921,0,0,0-.11,2.21,18.5,18.5,0,0,0,1.7,3.706c0.35,0.7.27,1.027-.45,1.236a11.553,11.553,0,0,0-3.68,1.686,4.632,4.632,0,0,0-2.1,3.356c-0.09.853,0.13,1.136,0.97,1.138,1.77,0,3.54,0,5.32,0q2.745,0,5.49,0c0.21,0,.5.1,0.5-0.3a1.536,1.536,0,0,1,.55-1.075c0.62-.629,1.21-1.3,1.85-1.9a2,2,0,0,0,.71-1.725A0.927,0.927,0,0,0,1065.53,414.418Zm-1.77,1.447a3.458,3.458,0,0,1-2.69,1.152,3.592,3.592,0,0,1-2.74-1.211c-0.18-.2-0.19-0.295-0.01-0.566,0.34-.52.59-0.456,1.08-0.213a3.613,3.613,0,0,0,3.65-.155c0.65-.392.57,0.358,0.86,0.514C1064.24,415.557,1063.87,415.748,1063.76,415.865Zm0.75-4.793a3.925,3.925,0,0,1-3.46,3.039,3.869,3.869,0,0,1-3.36-2.928,2.884,2.884,0,0,0-.44-0.86,3.7,3.7,0,0,1-.61-2.089,0.446,0.446,0,0,1,.11-0.32c0.58-.161.46-0.7,0.58-1.1a4.674,4.674,0,0,1,.47-1.151,1.78,1.78,0,0,1,2.15-.855,13.886,13.886,0,0,0,2.76.813,7.384,7.384,0,0,0,1.1.028,1,1,0,0,1,1.25.984,1.843,1.843,0,0,1-.03.775c-0.04.165-.08,0.306,0.15,0.361a0.54,0.54,0,0,1,.33.77,3.2,3.2,0,0,1-.84,2.032A1.135,1.135,0,0,0,1064.51,411.072Z" transform="translate(-1050.515 -399)"/>
</svg>
