<svg xmlns="http://www.w3.org/2000/svg" width="19.913" height="23.998" viewBox="0 0 39 47">
  <defs>
    <style>
      .cls-1 {
        fill: #0058ff;
        fill-rule: evenodd;
      }
    </style>
  </defs>
  <path id="phoneQRicon" class="cls-1" d="M874,550.547c-0.407.347-.811,0.678-1.2,1.028-0.141.126-.21,0.107-0.327-0.027q-2.307-2.664-4.622-5.322a0.938,0.938,0,0,1,.007-1.253c0.732-.888,1.47-1.77,2.2-2.659a3.772,3.772,0,0,0,.907-2.481c-0.011-3.318,0-6.636,0-9.953a1.575,1.575,0,1,0-3.143.055q0,4.355,0,8.709a1,1,0,0,1-1.149,1.156,3.673,3.673,0,0,0-3.385,2.967,20.986,20.986,0,0,0-.082,2.987c-0.021.982-.013,1.966,0,2.949,0,0.279-.038.4-0.368,0.395q-8.991-.015-17.982-0.008a1.716,1.716,0,0,1-1.81-1.822c0-.429,0-0.858,0-1.342a6.068,6.068,0,0,0,1.66.578c0.269,0.046.179,0.252,0.173,0.4-0.011.251,0.017,0.376,0.335,0.375q7.928-.018,15.856,0c0.3,0,.358-0.1.357-0.367,0-1.382,0-2.764.027-4.145,0.007-.344-0.189-0.278-0.379-0.278q-3.9,0-7.811,0c-0.986,0-1.972-.011-2.958,0-0.257,0-.358-0.061-0.331-0.328a4.811,4.811,0,0,0-.166-1.444h3.332c2.866,0,5.732,0,8.6.012a0.632,0.632,0,0,0,.6-0.3,5.163,5.163,0,0,1,3.311-2.286,0.4,0.4,0,0,0,.335-0.481q-0.015-3.871,0-7.741a3.438,3.438,0,0,1,2.378-3.3,3.383,3.383,0,0,1,4.42,3.283c0.046,3.333.014,6.666,0.008,10a6.237,6.237,0,0,1-1.893,4.247c-0.34.374-.64,0.785-0.982,1.157a0.327,0.327,0,0,0,.01.533C871.286,547.4,872.636,548.97,874,550.547Zm-32.81-32.3c-0.686-.641-1.3-1.219-1.917-1.785a1.954,1.954,0,0,0-.936-0.629,1.259,1.259,0,0,0-1.395.649,1.229,1.229,0,0,0,.285,1.464q1.812,1.705,3.651,3.383a0.8,0.8,0,0,1,.318.7c-0.025.413,0,.829-0.009,1.243a0.351,0.351,0,0,1-.16.423c-0.234.118-.316-0.048-0.424-0.147q-1.529-1.4-3.044-2.818c-0.573-.534-1.156-1.059-1.71-1.612a3,3,0,0,1-.037-4.144A3.037,3.037,0,0,1,840,514.7c1.188,1.014,1.188,1.014,1.189,2.567v0.982Zm5.165,32.615c0.783,0,1.46.016,2.136-.006a0.824,0.824,0,0,1,.674.48,4.259,4.259,0,0,0,2.4,1.506,5.534,5.534,0,0,0,2.281-.079q1.963-.352,3.927-0.7a1.147,1.147,0,0,1,1.185.419c0.616,0.745,1.266,1.463,1.908,2.187,0.111,0.125.152,0.2,0,.331-0.355.294-.7,0.6-1.037,0.915-0.186.176-.26,0.029-0.359-0.084-0.482-.557-0.971-1.109-1.443-1.675a0.508,0.508,0,0,0-.579-0.2c-1.44.28-2.882,0.588-4.338,0.743a5.756,5.756,0,0,1-5.081-1.934C847.484,552.171,846.958,551.553,846.355,550.867Zm6.3-17.836c0,0.675-.02,1.35.008,2.024,0.014,0.338-.105.409-0.417,0.4-0.568-.025-1.139-0.021-1.707,0-0.356.012-.584,0.013-0.6-0.476-0.022-.556-0.091-0.543.467-0.548a0.874,0.874,0,0,0,1.233-1.219c0.013-.414-0.012-0.829.008-1.242,0.012-.249-0.078-0.311-0.314-0.3-0.492.017-.985,0-1.477,0.007-0.2,0-.258-0.021-0.185-0.257,0.234-.758.218-0.762,1.029-0.76,0.554,0,1.108.012,1.661-.006,0.251-.008.307,0.085,0.3,0.317C852.647,531.65,852.656,532.341,852.656,533.031Zm7.113-6.44c0.615,0,1.231.026,1.844-.008,0.44-.025.616,0.074,0.585,0.562-0.024.372-.1,0.49-0.485,0.478-0.982-.029-1.967,0-2.95-0.015-0.3-.006-0.394.075-0.381,0.378,0.024,0.566-.011,1.134.014,1.7,0.012,0.286-.07.391-0.356,0.35a1.686,1.686,0,0,0-.414,0c-0.2.021-.261-0.06-0.259-0.259,0.009-.965.016-1.93,0-2.895-0.006-.279.126-0.288,0.331-0.287,0.692,0,1.383,0,2.074,0v0Zm-3.23,18.268a1.524,1.524,0,0,1-3.048.039A1.525,1.525,0,0,1,856.539,544.859ZM853.3,525.3c0-.614.027-1.23-0.01-1.841-0.023-.385.123-0.484,0.463-0.433a0.6,0.6,0,0,0,.184,0c0.292-.045.395,0.055,0.388,0.368-0.022.951,0.007,1.9-.016,2.854-0.008.332,0.1,0.417,0.412,0.4,0.445-.028.893-0.009,1.339-0.009,0.7,0,.7,0,0.664.739-0.007.169,0,.285-0.237,0.282q-1.477-.017-2.956,0c-0.235,0-.234-0.119-0.233-0.286C853.305,526.687,853.3,526,853.3,525.3Zm0,7.888c0-.629.013-1.257-0.007-1.885-0.008-.272.049-0.408,0.348-0.357a1.054,1.054,0,0,0,.322,0c0.276-.04.369,0.05,0.362,0.345-0.022.919,0.006,1.839-.015,2.758-0.007.31,0.054,0.469,0.392,0.4s0.364,0.118.359,0.388c-0.011.627,0,.634-0.627,0.623a0.8,0.8,0,0,1-1.132-1.125C853.294,533.959,853.3,533.576,853.3,533.193Zm3.421-9.707c0,0.674-.015,1.349.007,2.022,0.01,0.3-.075.388-0.379,0.38-0.644-.017-0.645,0-0.645-0.659,0-1.225.011-2.45-.008-3.675,0-.316.071-0.423,0.4-0.409,0.623,0.027.624,0.007,0.624,0.642v1.7Zm0,6.876v0.691c0,0.591-.285.783-0.877,0.613-0.184-.053-0.136-0.179-0.138-0.289-0.006-.353-0.013-0.707,0-1.06,0.009-.212-0.045-0.311-0.278-0.288-0.183.018-.369,0-0.554,0-0.634,0-.819-0.257-0.655-0.876,0.042-.159.137-0.136,0.238-0.136,0.678,0,1.356,0,2.034,0a0.191,0.191,0,0,1,.231.241C856.717,529.625,856.724,529.993,856.724,530.362Zm-8.075-3.771c1.3,0,2.529,0,3.756,0a0.21,0.21,0,0,1,.254.268c-0.013.214,0,.428,0,0.643,0,0.7,0,.695-0.726.67-0.209-.007-0.328-0.049-0.291-0.28s-0.079-.281-0.288-0.276c-0.491.011-.984-0.021-1.473,0.009a0.667,0.667,0,0,1-.739-0.385A4.829,4.829,0,0,0,848.649,526.591Zm12.094,3.441c-0.323,0-.649-0.024-0.969.007-0.341.033-.425-0.1-0.392-0.412a6.373,6.373,0,0,0,0-.691c0-.632.275-0.833,0.882-0.656a0.2,0.2,0,0,1,.135.287c-0.07.409,0.123,0.5,0.486,0.457,0.274-.029.558,0.022,0.831-0.012,0.385-.048.469,0.086,0.484,0.467,0.018,0.47-.117.622-0.578,0.56A6.746,6.746,0,0,0,860.743,530.032Zm-4.019,3.976a10.044,10.044,0,0,0,.008,1.056c0.04,0.369-.111.457-0.435,0.409a1.342,1.342,0,0,0-.323,0,0.206,0.206,0,0,1-.269-0.249c0.011-.811.013-1.623,0-2.435a0.221,0.221,0,0,1,.3-0.268,0.63,0.63,0,0,0,.184,0c0.429-.078.611,0.065,0.548,0.526A7.191,7.191,0,0,0,856.724,534.008ZM851.079,533c0,0.83,0,.83-0.847.824-0.8,0-.8,0-0.8-0.823,0-.754,0-0.754.779-0.755H850.3C851.079,532.243,851.079,532.243,851.079,533Zm3.006-10.822a1.91,1.91,0,0,0-.321,0c-0.482.083-.62-0.105-0.6-0.588,0.016-.375.13-0.462,0.472-0.436a8.44,8.44,0,0,0,1.055,0c0.239-.012.339,0.065,0.309,0.308a1.1,1.1,0,0,0,0,.319c0.056,0.339-.1.43-0.412,0.4A4.474,4.474,0,0,0,854.085,522.176Zm-1.586,7.856h-0.184c-0.69,0-.808-0.161-0.679-0.85,0.035-.19.144-0.162,0.261-0.163,0.4,0,.8.013,1.195-0.006,0.239-.011.342,0.061,0.305,0.3a0.562,0.562,0,0,0,0,.183c0.083,0.437-.082.617-0.531,0.536A2.042,2.042,0,0,0,852.5,530.032Zm-1.784-.415c0.121,0.407-.138.442-0.5,0.423-0.2-.011-0.269-0.074-0.249-0.265a0.586,0.586,0,0,0-.015-0.271c-0.187-.467.055-0.523,0.438-0.49C850.714,529.042,850.715,529.027,850.715,529.617Zm16.271-18.911a1.618,1.618,0,0,0-1.666-1.694c-6.858,0-13.715.007-20.573-.012a1.7,1.7,0,0,0-1.7,1.674c0,4.071,0,8.142-.008,12.213a0.266,0.266,0,0,0,.342.326,2.344,2.344,0,0,1,1.034.176c0.362,0.143.485,0.1,0.48-.34-0.024-2.228,0-4.455-.021-6.682,0-.36.089-0.451,0.451-0.451q9.663,0.018,19.325,0c0.422,0,.525.106,0.523,0.522-0.018,3.393-.01,6.785-0.01,10.311a5.388,5.388,0,0,1,1.531-1.265,0.51,0.51,0,0,0,.3-0.538Q866.982,517.826,866.986,510.706Zm-1.819.513c-0.024.829-.019,1.659,0,2.488,0,0.279-.041.394-0.367,0.394q-9.776-.016-19.551,0c-0.318,0-.376-0.1-0.37-0.389,0.017-.859.021-1.72,0-2.579-0.009-.318.1-0.371,0.391-0.37q4.9,0.014,9.8.006v0c3.22,0,6.439.008,9.659-.01C865.1,510.761,865.178,510.87,865.167,511.219Zm-18.011,28.109c-0.3-.282-0.6-0.565-0.91-0.863,0.144-.078.252-0.135,0.359-0.194a3.031,3.031,0,0,0,.741-4.776c-0.337-.356-0.718-0.669-1.1-1.021,0.146-.085.262-0.154,0.379-0.22a3.039,3.039,0,0,0,.607-4.879q-1.173-1.109-2.377-2.186a3,3,0,0,0-2.935-.733,3.051,3.051,0,0,0-1.334,5.1,10.9,10.9,0,0,1,1.037.981,3.086,3.086,0,0,0-.739,5.3c0.261,0.212.5,0.447,0.759,0.677-0.09.056-.151,0.1-0.218,0.136a3,3,0,0,0-.745,4.978c0.816,0.792,1.657,1.56,2.512,2.311a2.767,2.767,0,0,0,2.031.7,2.948,2.948,0,0,0,2.79-2.033A2.907,2.907,0,0,0,847.156,539.328ZM841.6,526.9a1.22,1.22,0,0,1,1.2-.742,1.017,1.017,0,0,1,.767.3c0.811,0.73,1.626,1.459,2.41,2.217a1.233,1.233,0,0,1-.585,2.142,1.076,1.076,0,0,1-1.027-.261q-1.278-1.131-2.51-2.313A1.1,1.1,0,0,1,841.6,526.9Zm0.233,5.662a1.233,1.233,0,0,1,1.835-.011q1.121,1.024,2.235,2.057a1.17,1.17,0,0,1,.473.938,1.188,1.188,0,0,1-.714,1.186,1.116,1.116,0,0,1-1.317-.185q-1.218-1.089-2.406-2.211A1.174,1.174,0,0,1,841.83,532.557Zm4.548,8.966a1.209,1.209,0,0,1-.688,1.2,1.138,1.138,0,0,1-1.327-.16c-0.844-.759-1.685-1.522-2.505-2.3a1.174,1.174,0,0,1-.078-1.649,1.141,1.141,0,0,1,1.635-.228c0.926,0.779,1.8,1.617,2.681,2.448A0.833,0.833,0,0,1,846.378,541.523Zm15.807-20.064c0-.248-0.08-0.306-0.314-0.3q-2.1.012-4.2,0a0.252,0.252,0,0,0-.307.315c0.015,0.705,0,1.41,0,2.115,0,0.69.01,1.38,0,2.07a0.252,0.252,0,0,0,.314.31q2.1-.016,4.2,0c0.251,0,.307-0.084.3-0.316Q862.171,523.553,862.185,521.459Zm-1.345,3.486c-0.369-.014-0.739,0-1.077,0a2.316,2.316,0,0,1-1.281-.075,2.03,2.03,0,0,1-.09-1.28c-0.018-.383.006-0.768-0.007-1.151a0.211,0.211,0,0,1,.262-0.261c0.755,0.008,1.509.009,2.264,0,0.21,0,.257.075,0.255,0.267-0.009.737-.014,1.474,0,2.21C861.174,524.911,861.064,524.953,860.84,524.945Zm1.345,6c0-.252-0.087-0.3-0.318-0.3-0.692.013-1.384,0-2.077,0v-0.007c-0.692,0-1.385.016-2.077-.008-0.3-.01-0.35.1-0.348,0.365q0.02,2.049,0,4.1c0,0.287.08,0.36,0.362,0.357,1.37-.014,2.74-0.011,4.109,0,0.245,0,.353-0.04.35-0.32Q862.165,533.04,862.185,530.946Zm-1.323,3.487q-1.083-.018-2.168,0a0.257,0.257,0,0,1-.31-0.321q0.018-1.08,0-2.161a0.233,0.233,0,0,1,.285-0.29c0.738,0.01,1.476.011,2.214,0a0.229,0.229,0,0,1,.284.287c-0.016.367,0,.736,0,1.1s-0.013.706,0,1.058A0.254,0.254,0,0,1,860.862,534.433Zm-8.2-12.959c0-.275-0.093-0.331-0.344-0.326-0.693.015-1.386,0-2.08,0v0.008c-0.677,0-1.355.012-2.033-.007-0.272-.007-0.369.052-0.365,0.349,0.017,1.366.015,2.733,0,4.1,0,0.3.109,0.359,0.377,0.357q2.057-.015,4.114,0c0.271,0,.331-0.089.329-0.342C852.65,524.238,852.648,522.856,852.662,521.474Zm-1.1,3.371c-0.242.3-.865,0.068-1.321,0.088-0.354.015-.709,0-1.062,0.012a0.254,0.254,0,0,1-.323-0.308c0.014-.721.015-1.443,0-2.164-0.006-.253.086-0.312,0.318-0.3,0.369,0.016.739,0,1.187,0a1.957,1.957,0,0,1,1.2.09,2.28,2.28,0,0,1,.073,1.241A2.544,2.544,0,0,1,851.566,524.845Zm3.448-11.5c-0.894,0-1.788-.012-2.681.007-0.286.006-.38-0.074-0.361-0.359a2.588,2.588,0,0,1,.081-1.383,2.07,2.07,0,0,1,1.372-.093c1.418-.012,2.835,0,4.253-0.011,0.32,0,.444.081,0.411,0.409a2.609,2.609,0,0,1-.085,1.336,2.085,2.085,0,0,1-1.327.091C856.123,513.36,855.568,513.348,855.014,513.347Zm4.774,9.4c0.816,0,.816,0,0.816.805,0,0.782,0,.782-0.8.775-0.849-.008-0.849-0.008-0.846-0.833C858.958,522.751,858.958,522.751,859.788,522.751Zm0,11.076c-0.837-.009-0.837-0.009-0.838-0.845,0-.738,0-0.738.75-0.738,0.9,0,.9,0,0.9.9C860.605,533.836,860.605,533.836,859.792,533.827Zm-9.536-11.076c0.823,0,.823,0,0.823.8,0,0.782,0,.782-0.793.782-0.855,0-.855,0-0.854-0.87C849.432,522.751,849.432,522.751,850.256,522.751Z" transform="translate(-835 -509)"/>
</svg>
