<svg id="Layer_1" data-name="Layer 1" xmlns="http://www.w3.org/2000/svg" viewBox="0 0 20 20"><defs><style>.cls-1{fill:#02539f;}</style></defs><path class="cls-1" d="M5.48,19.65a1.71,1.71,0,0,1-.73-.41,1.42,1.42,0,0,1-.36-1V1.77A1.28,1.28,0,0,1,5.13.5,1.26,1.26,0,0,1,5.7.36h8.6a1.32,1.32,0,0,1,1.31,1.33V18.22a1.33,1.33,0,0,1-.76,1.3,1.89,1.89,0,0,1-.33.13ZM5.32,2.43v14.8h9.36V2.43Zm5.32,15.91A.64.64,0,1,0,10,19,.64.64,0,0,0,10.64,18.34ZM10,1.6h1.3c.11,0,.21,0,.22-.14s-.1-.17-.22-.17H8.7c-.12,0-.22,0-.22.17s.12.14.22.14Z"/></svg>