<svg id="Layer_1" data-name="Layer 1" xmlns="http://www.w3.org/2000/svg" viewBox="0 0 20 20"><defs><style>.cls-1{fill:#28a3b3;}</style></defs><path class="cls-1" d="M5.48,19.65a1.61,1.61,0,0,1-.73-.41,1.47,1.47,0,0,1-.36-1V1.77A1.34,1.34,0,0,1,5.71.36c2.86,0,5.73,0,8.59,0a1.31,1.31,0,0,1,1.32,1.32V18.22a1.35,1.35,0,0,1-.76,1.3,2.26,2.26,0,0,1-.33.13ZM5.32,2.43v14.8h9.37V2.43Zm5.33,15.91A.65.65,0,1,0,10,19,.65.65,0,0,0,10.65,18.34ZM10,1.6h1.3c.11,0,.22,0,.22-.14s-.1-.17-.22-.17c-.86,0-1.73,0-2.59,0-.12,0-.23,0-.22.17s.11.14.22.14Z"/></svg>