<svg xmlns="http://www.w3.org/2000/svg" width="20" height="20" viewBox="0 0 20 20">
  <defs>
    <style>
      .cls-1 {
        fill: #3c94e7;
        fill-rule: evenodd;
      }
    </style>
  </defs>
  <path id="primary" class="cls-1" d="M757.469,349A9.5,9.5,0,1,1,767,339.532,9.492,9.492,0,0,1,757.469,349Zm4.633-11.441q-2.633,2.5-5.277,4.987a0.793,0.793,0,0,1-1.259-.021q-1.356-1.377-2.685-2.779a0.758,0.758,0,1,1,1.065-1.061c0.679,0.682,1.362,1.362,2.013,2.07,0.23,0.251.344,0.207,0.559,0,1.448-1.393,2.909-2.774,4.366-4.158a1.789,1.789,0,0,1,.5-0.38,0.736,0.736,0,0,1,1.05.693A0.833,0.833,0,0,1,762.1,337.559Z" transform="translate(-747.5 -329.5)"/>
</svg>
