<?xml version="1.0" encoding="utf-8"?>
<!-- Generator: Adobe Illustrator 24.2.1, SVG Export Plug-In . SVG Version: 6.00 Build 0)  -->
<svg version="1.1" id="Layer_1" xmlns="http://www.w3.org/2000/svg" xmlns:xlink="http://www.w3.org/1999/xlink" x="0px" y="0px"
	 viewBox="0 0 18 14.3" style="enable-background:new 0 0 18 14.3;" xml:space="preserve">
<style type="text/css">
	.st0{fill-rule:evenodd;clip-rule:evenodd;fill:#4197FF;}
</style>
<path id="newproduct" class="st0" d="M4,10.5c0,0,0.1-0.1,0.1,0c0.1,0,0.1,0,0.1-0.2c0-2.1,0-4.2,0-6.3c0-0.2,0.1-0.4,0.3-0.4
	C6.2,2.8,7.8,2,9.4,1.3c0.1-0.1,0.3-0.1,0.5,0c1.5,0.8,3,1.5,4.6,2.3c0.2,0.1,0.3,0.2,0.3,0.4c0,0.8,0,1.6,0,2.4c0,1.2,0,2.5,0,3.7
	c0,0.1,0,0.2,0,0.4c0.2-0.1-5.5,2.9-5.5,2.9S6.9,12.2,4,10.5z M5.9,4c1.3-0.6,2.6-1.3,4-1.9c0.1,0,0.1,0,0.2,0
	c0.3,0.2,0.6,0.3,1,0.5c-0.3,0.1-0.5,0.3-0.8,0.4C9.1,3.6,8.1,4.1,7,4.7c-0.1,0-0.2,0-0.2,0C6.5,4.5,6.1,4.3,5.7,4.1
	C5.8,4.1,5.8,4,5.9,4L5.9,4z M9.1,12.4c0,0.1,0,0.1-0.1,0.1c-1.3-0.7-2.6-1.4-3.9-2.1C5,10.3,5,10.3,5,10.2c0-1.8,0-3.6,0-5.4
	c0,0,0,0,0-0.1c0.4,0.2,0.8,0.4,1.2,0.7c0,0,0.1,0.1,0.1,0.1c0,0.3,0,0.7,0,1c0,0.1,0,0.2,0.1,0.2C6.6,6.8,6.9,6.9,7.1,7
	c0.1,0,0.1,0,0.1-0.1c0-0.3,0-0.7,0-1c0.1,0,0.1,0,0.2,0.1C8,6.3,8.5,6.6,9,6.9c0.1,0,0.1,0.1,0.1,0.2C9.1,8.8,9.1,10.6,9.1,12.4
	L9.1,12.4z M9.6,6.1c0,0-0.1,0-0.1,0c-0.6-0.3-1.2-0.7-1.8-1c0.6-0.3,1.1-0.6,1.6-0.9c0.8-0.4,1.6-0.8,2.4-1.2c0.1,0,0.1,0,0.2,0
	c0.5,0.3,1.1,0.5,1.6,0.8c0,0,0.1,0,0.1,0.1c0,0,0,0.1-0.1,0.1C12.2,4.7,10.9,5.4,9.6,6.1L9.6,6.1z"/>
</svg>
