<svg id="Layer_1" data-name="Layer 1" xmlns="http://www.w3.org/2000/svg" viewBox="0 0 20 20"><defs><style>.cls-1{fill:#02539f;}</style></defs><path class="cls-1" d="M19.59,11c0,.18-.07.36-.12.53A3.64,3.64,0,0,1,18.74,13c-.68.81-1.34,1.64-2,2.45a1.4,1.4,0,0,0-.3,1.15c0,.17,0,.31.23.39a.27.27,0,0,1,.13.4c-.31.67-.63,1.34-.95,2-.1.2-.26.22-.5.11L13.06,18.4l-1.93-.92c-.33-.16-.37-.28-.21-.62l.81-1.71c.18-.37.3-.41.67-.24l.17.08c0-.19,0-.36,0-.53A3.51,3.51,0,0,1,14,12a3,3,0,0,0,.87-1.13c.2-.46.44-.9.64-1.35A1.9,1.9,0,0,1,17,8.26V7.55c0-.6,0-1.2,0-1.8a1.43,1.43,0,0,1,1.28-1.38c.2,0,.34.11.39.35.07.42.13.84.19,1.26l.63,3.93c0,.15.06.3.09.45ZM17.43,8.91h-.35a1.21,1.21,0,0,0-.94.72c-.25.55-.52,1.09-.77,1.64a3.25,3.25,0,0,1-.92,1.16,3,3,0,0,0-1.19,2.72.26.26,0,0,0,.17.26l2.18,1,.16.06a1.82,1.82,0,0,1,.5-1.58c.69-.82,1.38-1.63,2-2.47a2.7,2.7,0,0,0,.58-2.19c-.2-1.22-.38-2.44-.58-3.66-.07-.49-.15-1-.24-1.48a.83.83,0,0,0-.43.83c0,.72.05,1.44.06,2.17a.23.23,0,0,0,.19.26c.32.1.38.27.24.58-.23.47-.46.95-.68,1.43s-.45.95-.68,1.42a.32.32,0,0,1-.44.19.34.34,0,0,1-.15-.48l.13-.27Zm-1.38,8.46-3.79-1.81L11.59,17l3.79,1.8Z"/><path class="cls-1" d="M7.42,15l.3-.14a.33.33,0,0,1,.47.16c.32.65.63,1.29.93,1.94.11.24,0,.39-.24.52L5.41,19.12l-.75.36a.34.34,0,0,1-.52-.18l-.89-1.88c-.12-.25-.07-.39.18-.52a.21.21,0,0,0,.14-.21,1.37,1.37,0,0,1,0-.28,1.26,1.26,0,0,0-.34-1c-.69-.82-1.38-1.65-2-2.48a3.4,3.4,0,0,1-.78-2.4A17.78,17.78,0,0,1,.69,8.71c.19-1.22.39-2.45.58-3.67a3.1,3.1,0,0,1,.08-.42.32.32,0,0,1,.38-.25A1.44,1.44,0,0,1,3,5.82C3,6.56,3,7.3,3,8.05v.19c.15,0,.29.07.43.12a1.83,1.83,0,0,1,1.06,1L5.23,11a2.33,2.33,0,0,0,.7.89,3.66,3.66,0,0,1,1.42,2.35C7.39,14.49,7.4,14.72,7.42,15Zm-3.18,1.5h0l2.35-1.12a.24.24,0,0,0,.1-.18,3,3,0,0,0-1-2.56c-.21-.19-.43-.37-.63-.57a4.45,4.45,0,0,1-.78-1.35c-.21-.41-.39-.83-.61-1.24a1.06,1.06,0,0,0-1.18-.53c.19.41.39.81.58,1.21s.44.91.65,1.37a.33.33,0,0,1-.23.51c-.2,0-.3-.11-.38-.27C2.77,10.84,2.33,9.93,1.89,9c-.18-.38-.13-.5.26-.65.1,0,.14-.07.14-.18l.06-2.27a1.36,1.36,0,0,0,0-.29.69.69,0,0,0-.4-.49q0,.29-.09.54C1.62,7,1.41,8.3,1.21,9.61a6.32,6.32,0,0,0-.15,1.05,2.89,2.89,0,0,0,.74,1.93l2,2.46a2.16,2.16,0,0,1,.29.45A1.76,1.76,0,0,1,4.24,16.49Zm3.5-.93L4,17.37l.67,1.41L8.41,17Z"/><path class="cls-1" d="M5.92,6.16V3.76c0-.32.06-.4.36-.5L9.8,2.13a.68.68,0,0,1,.4,0c1.18.37,2.36.76,3.53,1.14.28.09.34.17.34.46V8.6c0,.28-.06.37-.34.46L10.19,10.2a.74.74,0,0,1-.39,0L6.28,9.07c-.3-.1-.36-.18-.36-.49Zm.67-2.1c0,.05,0,.08,0,.11V8.35c0,.13.06.15.16.18l2.75.89.17,0s0-.07,0-.1V5.18A.17.17,0,0,0,9.53,5L8,4.51Zm6.82,0-.19,0c-.91.29-1.81.59-2.72.87a.22.22,0,0,0-.18.25c0,1.34,0,2.68,0,4v.2l.17,0,2.74-.88a.22.22,0,0,0,.18-.25c0-1.34,0-2.68,0-4Zm-.8-.44v0l-2.54-.82a.42.42,0,0,0-.22,0l-2.32.75-.17.07.09,0,2.45.79a.45.45,0,0,0,.23,0l2.26-.73Z"/></svg>