<svg xmlns="http://www.w3.org/2000/svg" width="24" height="29" viewBox="0 0 24 29">
  <defs>
    <style>
      .cls-1 {
        fill: #0073e0;
        fill-rule: evenodd;
      }
    </style>
  </defs>
  <path id="profile" class="cls-1" d="M999.648,83.646A1.2,1.2,0,0,1,998.8,84H977.2a1.2,1.2,0,0,1-.848-0.354A1.213,1.213,0,0,1,976,82.792v-1.2a8.454,8.454,0,0,1,1.765-5.155,8.348,8.348,0,0,1,4.533-2.982,1.181,1.181,0,0,0,.645-0.416,1.2,1.2,0,0,0,.258-0.727V71.1l-1.341-1.348A3.576,3.576,0,0,1,980.8,67.2v-5a7.323,7.323,0,0,1,2.044-4.995,7.228,7.228,0,0,1,4.9-2.209,7.423,7.423,0,0,1,5.27,2.19,7.53,7.53,0,0,1,2.189,5.3V67.2a3.6,3.6,0,0,1-.281,1.389,3.559,3.559,0,0,1-.793,1.17L992.8,71.1v1.216a1.205,1.205,0,0,0,.258.727,1.185,1.185,0,0,0,.646.416,8.348,8.348,0,0,1,4.532,2.983A8.453,8.453,0,0,1,1000,81.593v1.2A1.213,1.213,0,0,1,999.648,83.646Zm-3.313-5.73a5.943,5.943,0,0,0-3.23-2.118,3.581,3.581,0,0,1-1.944-1.276,3.624,3.624,0,0,1-.761-2.209V70.6a1.212,1.212,0,0,1,.351-0.854l1.692-1.7a1.179,1.179,0,0,0,.264-0.382A1.163,1.163,0,0,0,992.8,67.2V62.492a5.08,5.08,0,0,0-1.451-3.568,5.013,5.013,0,0,0-3.524-1.507,4.8,4.8,0,0,0-3.26,1.465A4.865,4.865,0,0,0,983.2,62.2v5a1.173,1.173,0,0,0,.088.446,1.147,1.147,0,0,0,.254.376l1.706,1.716a1.213,1.213,0,0,1,.352.854v1.716a3.629,3.629,0,0,1-.761,2.208A3.579,3.579,0,0,1,982.9,75.8a5.954,5.954,0,0,0-3.232,2.119,6.015,6.015,0,0,0-1.263,3.668h19.2A6.008,6.008,0,0,0,996.335,77.916Z" transform="translate(-976 -55)"/>
</svg>
