<svg xmlns="http://www.w3.org/2000/svg" width="30" height="30" viewBox="0 0 30 30">
  <defs>
    <style>
      .cls-1 {
        fill: #4482f6;
        fill-rule: evenodd;
      }
    </style>
  </defs>
  <path id="regenIDCard" class="cls-1" d="M14.8,0a1.746,1.746,0,0,1,1.062,1.853C15.821,2.967,15.86,4.084,15.853,5.2a1.466,1.466,0,0,1-1.64,1.64c-0.256,0-.511,0-0.767,0A1.435,1.435,0,0,1,11.911,5.3c-0.015-1.15.03-2.3-.014-3.45A1.742,1.742,0,0,1,12.958,0H14.8Zm-0.93,22.552a17.852,17.852,0,0,1-2.749-.144,1.9,1.9,0,0,1-1.485-3A5.041,5.041,0,0,1,11.1,17.724a0.335,0.335,0,0,1,.489.026,3.644,3.644,0,0,0,4.583,0c0.125-.091.218-0.225,0.407-0.082a4.275,4.275,0,0,1,1.793,2.454A1.7,1.7,0,0,1,17.1,22.3,12.356,12.356,0,0,1,13.874,22.552Zm0.012-5.138a2.65,2.65,0,1,1,2.64-2.653A2.641,2.641,0,0,1,13.886,17.414Zm2.662,8.126c0-.028,0-0.055,0-0.083H13.9q-3.3,0-6.606,0a2.064,2.064,0,0,1-2.213-2.213c0-4.315,0-9.737,0-14.052A2.1,2.1,0,0,1,7.27,6.947,2,2,0,0,1,9.522,8.084a4.047,4.047,0,0,0,3.524,2.049,6.335,6.335,0,0,0,3.5-.5,4.654,4.654,0,0,0,2.17-2.309,0.5,0.5,0,0,1,.568-0.372c0.408,0.026.819,0,1.229,0.007a2.056,2.056,0,0,1,2.182,2.192c0.015,1.22,0,2.441,0,3.662,0,2.307,0,3.874,0,6.487l0.086,0a4.872,4.872,0,0,1,1.969.424c0.016-4.024.01-7.152-.012-10.912a4.011,4.011,0,0,0-3.3-3.861,31.311,31.311,0,0,0-3.884-.107c-0.4-.021-0.507.094-0.506,0.5a2.647,2.647,0,0,1-2.183,2.664,6.953,6.953,0,0,1-1.277.046,2.673,2.673,0,0,1-2.884-2.829c-0.006-.28-0.06-0.387-0.363-0.382-1.127.019-2.255-.012-3.381,0.017A4.063,4.063,0,0,0,3.025,8.831c-0.033,4.541-.034,10.188,0,14.729A4.038,4.038,0,0,0,7.1,27.533q3.381,0,6.763,0h3.1A4.907,4.907,0,0,1,16.548,25.54ZM28,25.2l-1.527,2.155-1.567-2.2c0.1-.016.151-0.03,0.2-0.032,0.628-.025.628-0.024,0.481-0.632a3.16,3.16,0,0,0-6.233.826,3.156,3.156,0,0,0,2.876,3.052,0.28,0.28,0,0,1,.326.351,7.42,7.42,0,0,0,0,.972c0.02,0.276-.082.321-0.339,0.307a4.78,4.78,0,0,1-.828-9.415,4.729,4.729,0,0,1,5.814,3.94c0.072,0.512.237,0.733,0.8,0.568Q28,25.147,28,25.2Z" transform="translate(-0.516)"/>
</svg>
