<svg id="Layer_1" data-name="Layer 1" xmlns="http://www.w3.org/2000/svg" viewBox="0 0 20 20"><defs><style>.cls-1{fill:#02539f;}</style></defs><path class="cls-1" d="M9.89,19.35a20.18,20.18,0,0,1-5.43-7.52,10.56,10.56,0,0,1-.8-4.34,6.16,6.16,0,0,1,1.7-4.06A6.18,6.18,0,0,1,9,1.47a6.39,6.39,0,0,1,7.28,5,8.07,8.07,0,0,1,0,2.73,15.05,15.05,0,0,1-2.93,6.62,21.58,21.58,0,0,1-3,3.35l-.22.19Zm.11-.86.17-.16A22.24,22.24,0,0,0,13,15a14.27,14.27,0,0,0,2.47-5.57,7.17,7.17,0,0,0,0-2.77A5.6,5.6,0,0,0,9.2,2.21,5.47,5.47,0,0,0,5.05,5.15a6,6,0,0,0-.57,3.78,12.15,12.15,0,0,0,1.1,3.56A18.57,18.57,0,0,0,8.3,16.62C8.84,17.26,9.42,17.86,10,18.49Z"/><path class="cls-1" d="M14.15,7.75a4.13,4.13,0,1,1-4.08-4.11A4.12,4.12,0,0,1,14.15,7.75ZM10,11.11A3.36,3.36,0,1,0,6.65,7.75,3.37,3.37,0,0,0,10,11.11Z"/><path class="cls-1" d="M9.49,7.75c-.4-.4-.79-.78-1.17-1.18a.54.54,0,0,1-.15-.22A.37.37,0,0,1,8.8,6l.95,1c.09.08.17.18.27.29l.35-.36L11.21,6a.39.39,0,0,1,.59,0,.41.41,0,0,1-.05.58l-1.06,1-.13.14,1.16,1.16a.59.59,0,0,1,.17.24.37.37,0,0,1-.64.34L10.18,8.43A.85.85,0,0,1,10,8.26l-.46.47-.76.76a.37.37,0,0,1-.56,0,.38.38,0,0,1,0-.55Z"/></svg>