<svg xmlns="http://www.w3.org/2000/svg" width="30" height="30" viewBox="0 0 30 30">
  <defs>
    <style>
      .cls-1 {
        fill: #0686ff;
        fill-rule: evenodd;
      }
    </style>
  </defs>
  <path id="role" class="cls-1" d="M115.008,226.067s0,0.006,0,.009,0,0.05,0,.05h0a0.807,0.807,0,0,1-1.61,0h0v-0.041c0-.006,0-0.011,0-0.018l-0.007-.075c0-.016,0-0.031,0-0.047a6.751,6.751,0,0,0-3.986-5.871,4.814,4.814,0,0,0-.891-0.2,1.3,1.3,0,0,1-1.319-1.411,1.944,1.944,0,0,1,1.146-1.394,3.751,3.751,0,0,0,1.911-3.279,3.806,3.806,0,0,0-2.918-3.663,3.406,3.406,0,0,0-.649-0.058,0.056,0.056,0,0,1-.012,0,0.926,0.926,0,0,1-.887-0.918l-0.009-.085a0.93,0.93,0,0,1,.938-0.923h0.01l0,0c0.039,0,.077.01,0.116,0.014,0.022,0,.045,0,0.067.008a5.73,5.73,0,0,1,5.187,5.643,5.643,5.643,0,0,1-2.224,4.484,8.472,8.472,0,0,1,5.141,7.763Zm-10.969-7.8a8.947,8.947,0,0,1,5.216,7.671c0.005,0.088,0,.186,0,0.186a0.824,0.824,0,0,1-1.643,0h0v-0.045c0-.013,0-0.025,0-0.039l-0.008-.077c0-.015,0-0.028,0-0.042a6.943,6.943,0,0,0-13.862.1v0l0,0.084a0.873,0.873,0,1,1-1.745.012l0-.1A0.886,0.886,0,0,1,92,225.893a8.543,8.543,0,0,1,5.215-7.641,5.644,5.644,0,0,1-2.351-4.572,5.775,5.775,0,0,1,11.548,0A5.647,5.647,0,0,1,104.039,218.269Zm-3.417-8.384a3.783,3.783,0,1,0,3.841,3.783A3.812,3.812,0,0,0,100.622,209.885Z" transform="translate(-88.5 -202.5)"/>
</svg>
