<svg xmlns="http://www.w3.org/2000/svg" width="30" height="30" viewBox="0 0 21.249 21.249">
  <defs>
    <style>
      .cls-1 {
        fill: #0073df;
        fill-rule: evenodd;
      }
    </style>
  </defs>
  <path id="rupee" class="cls-1" d="M1775.18,208.727a2.9,2.9,0,0,0-2.05-1.22,19.227,19.227,0,0,0-3.52-.153c-0.54-.006-0.6-0.053-0.6-0.52s0-.911-0.01-1.366a0.443,0.443,0,0,1,.55-0.468q5.7,0,11.38,0a0.451,0.451,0,0,1,.56.47q-0.015.531,0,1.062a0.422,0.422,0,0,1-.53.443c-1.04,0-2.08,0-3.19,0a4.532,4.532,0,0,1,.86,1.616c0.04,0.167.21,0.137,0.35,0.137,0.59,0,1.18,0,1.76,0,0.62,0,.75.108,0.75,0.625v0.834c0,0.419-.15.563-0.64,0.57-0.63.01-1.26,0-1.89,0-0.14,0-.25-0.033-0.3.168-0.45,1.986-1.96,3.108-4.1,3.7a6.241,6.241,0,0,1-1.51.245c0.53,0.522,1.05,1.023,1.56,1.532,1.14,1.129,2.29,2.248,3.37,3.417,0.45,0.49.92,0.968,1.39,1.446a0.394,0.394,0,0,1,.14.511,0.5,0.5,0,0,1-.5.215c-0.82,0-1.64-.007-2.46,0a0.774,0.774,0,0,1-.59-0.264c-0.77-.773-1.53-1.551-2.29-2.324-0.79-.793-1.57-1.59-2.37-2.372-0.68-.661-1.38-1.3-2.07-1.952a0.666,0.666,0,0,1-.23-0.543c0.02-.455.01-0.91,0-1.366a0.345,0.345,0,0,1,.43-0.362,18.538,18.538,0,0,0,2.54-.083,4,4,0,0,0,3.17-1.458,1.369,1.369,0,0,0,.1-0.165c0.16-.25.15-0.362-0.26-0.358-1.72.018-3.45,0.008-5.18,0.007-0.67,0-.79-0.108-0.79-0.665v-0.721c0-.544.11-0.644,0.76-0.645,1.34,0,2.67,0,4,0h1.41Z" transform="translate(-1764.625 -202.875)"/>
</svg>
