<svg xmlns="http://www.w3.org/2000/svg" width="24" height="24" viewBox="0 0 24 24">
  <defs>
    <style>
      .cls-1 {
        fill: #0082d5;
        fill-rule: evenodd;
      }
    </style>
  </defs>
  <path id="rupee_b" class="cls-1" d="M1842.93,917.166a2.726,2.726,0,0,0-1.96-1.364,15.934,15.934,0,0,0-3.39-.171c-0.52-.007-0.57-0.06-0.57-0.582s0-1.017-.01-1.526a0.457,0.457,0,0,1,.53-0.523q5.46,0.006,10.94,0a0.458,0.458,0,0,1,.53.526q-0.015.592,0,1.186a0.431,0.431,0,0,1-.51.5c-1-.006-2,0-3.06,0a5.588,5.588,0,0,1,.82,1.807c0.04,0.186.2,0.152,0.34,0.152,0.56,0,1.13,0,1.69,0,0.6,0,.72.12,0.72,0.7V918.8a0.521,0.521,0,0,1-.61.638c-0.61.01-1.22,0-1.82,0-0.13,0-.24-0.037-0.28.188a5.292,5.292,0,0,1-3.95,4.137,5.22,5.22,0,0,1-1.45.274c0.51,0.583,1.01,1.143,1.5,1.712,1.09,1.262,2.2,2.512,3.24,3.819,0.43,0.548.89,1.082,1.34,1.616a0.511,0.511,0,0,1,.13.571,0.456,0.456,0,0,1-.48.24c-0.79,0-1.58-.008-2.37,0a0.717,0.717,0,0,1-.57-0.3c-0.73-.864-1.46-1.733-2.2-2.6-0.75-.887-1.5-1.778-2.27-2.652-0.65-.738-1.33-1.453-1.99-2.181a0.822,0.822,0,0,1-.22-0.608c0.02-.508.01-1.017,0-1.525a0.353,0.353,0,0,1,.41-0.4,15.234,15.234,0,0,0,2.44-.093,3.666,3.666,0,0,0,3.05-1.63,1.76,1.76,0,0,1,.1-0.184c0.15-.279.14-0.4-0.25-0.4-1.66.02-3.32,0.009-4.98,0.008-0.64,0-.76-0.121-0.76-0.744v-0.806c0-.608.11-0.72,0.73-0.721,1.28,0,2.56,0,3.85,0h1.34Z" transform="translate(-1831 -910.5)"/>
</svg>
