<?xml version="1.0" encoding="utf-8"?>
<!-- Generator: Adobe Illustrator 25.3.0, SVG Export Plug-In . SVG Version: 6.00 Build 0)  -->
<svg version="1.1" id="Layer_1" xmlns="http://www.w3.org/2000/svg" xmlns:xlink="http://www.w3.org/1999/xlink" x="0px" y="0px"
	 viewBox="0 0 24 24" style="enable-background:new 0 0 24 24;" xml:space="preserve">
<style type="text/css">
	.st0{fill:#02539F;}
	.st1{fill-rule:evenodd;clip-rule:evenodd;fill:#02539F;}
</style>
<path d="M562.5,183c-94.3-0.1-170.9-76.7-170.9-171c0-94.5,76.9-171.2,171.4-171c94.4,0.2,170.8,77,170.6,171.3
	C733.5,106.6,656.8,183.1,562.5,183z M562.6,161.1c82,0.1,149-66.8,149.1-148.7c0.1-82.3-66.6-149.3-148.8-149.4
	c-82.2-0.1-149.3,66.8-149.3,148.9C413.6,94.1,480.4,161,562.6,161.1z"/>
<path d="M609.9-90.7C622.6-80,635-69.5,647.4-59.1c11,9.3,22,18.7,33.2,27.7c3.2,2.6,3.4,4.1,0.7,7.3c-31,36.7-61.8,73.6-92.6,110.4
	c-7.8,9.3-15.5,18.5-23.6,28.2C544.3,97,523.6,79.6,503,62.3c0.2-0.3,0.4-0.7,0.5-1c3.4,1.1,6.9,2.1,10.3,3.2
	c6.9,2.2,13.7,4.5,20.6,6.6c10.6,3.2,21.3-1.9,25.6-12c4.2-9.9,0.5-20.9-9.1-26.4c-9.5-5.5-19.2-10.9-28.8-16.3
	c-0.2-0.1-0.4-0.4-1-1.1C550.6-19.9,580-55.1,609.9-90.7z M589,42.9c16.7,0.2,29.7-12.1,30-28.5c0.3-17.7-15-33.5-33-33.8
	C569.8-19.7,556.4-7,556.1,8.9C555.9,27.4,570.6,42.7,589,42.9z"/>
<path d="M441.9,37c0-21,0-41.5,0-61c17.5-4.8,34.5-9.9,51.7-14.1c6.1-1.5,12.7-1.7,18.9-1c12.2,1.4,24.3,3.9,37.2,6.1
	c-1.1,1.6-1.6,2.6-2.4,3.5C538.9-19.2,530.5-9,521.9,1c-1.1,1.3-3.3,2-5.1,2.4c-2,0.4-4.1,0.1-6.1,0.1c-4-0.1-7,1.6-8,5.5
	c-1,4,0.8,6.8,4.3,8.7c12.4,6.9,24.8,13.7,36.9,20.9c3.1,1.8,6.3,4.5,8,7.6c2.5,4.3,1.5,9-1.8,12.9c-3.4,4-8,5.4-12.9,3.9
	c-15.8-5-31.7-9.7-47.2-15.6c-5.4-2.1-10.3-6.6-14.5-10.8c-4.5-4.6-9-6.5-15.2-4.4C454.3,34,448.2,35.3,441.9,37z"/>
<path d="M592.1,32.8c-8.5-7.7-16.9-15.2-25.7-23.1c4.5-4.7,8.4-9.4,12.9-13.4c4.9-4.3,10.6-4.1,15.2-0.2c4.8,4,5.9,9.7,2.6,15.4
	c-1.5,2.7-3.7,5-5.8,7.9c2.2,2.1,4.4,4.1,6.9,6.5C596.2,28.2,594.3,30.4,592.1,32.8z M585.4,14.2c2.5-2.5,5.8-4.5,4.7-8.5
	c-0.4-1.3-2-2.8-3.3-3c-4.1-0.7-5.6,2.9-8,5.6C581.1,10.3,583.2,12.2,585.4,14.2z"/>
<g>
	<g>
		<g>
			<g>
				<path class="st0" d="M15.3,5.4c0.9,0.8,1.8,1.5,2.7,2.3c0.8,0.7,1.6,1.3,2.4,2c0.2,0.2,0.2,0.3,0.1,0.5c-2.2,2.6-4.5,5.3-6.7,8
					c-0.6,0.7-1.1,1.3-1.7,2c-1.5-1.3-3-2.5-4.5-3.8v-0.1c0.2,0.1,0.5,0.2,0.7,0.2c0.5,0.2,1,0.3,1.5,0.5c0.8,0.2,1.5-0.1,1.8-0.9
					c0.3-0.7,0-1.5-0.7-1.9S9.5,13.4,8.8,13c0,0,0,0-0.1-0.1C11,10.5,13.1,8,15.3,5.4z M13.8,15c1.2,0,2.1-0.9,2.2-2.1
					c0-1.3-1.1-2.4-2.4-2.4c-1.2,0-2.1,0.9-2.2,2C11.4,13.9,12.4,15,13.8,15z"/>
				<path class="st0" d="M3.2,14.6c0-1.5,0-3,0-4.4c1.3-0.3,2.5-0.7,3.7-1c0.4-0.1,0.9-0.1,1.4-0.1c0.9,0.1,1.8,0.3,2.7,0.4
					c-0.1,0.1-0.1,0.2-0.2,0.3C10.2,10.5,9.6,11.3,9,12c-0.1,0.1-0.2,0.1-0.4,0.2c-0.1,0-0.3,0-0.4,0c-0.3,0-0.5,0.1-0.6,0.4
					c-0.1,0.3,0.1,0.5,0.3,0.6c0.9,0.5,1.8,1,2.7,1.5c0.2,0.1,0.5,0.3,0.6,0.5c0.2,0.3,0.1,0.7-0.1,0.9c-0.2,0.3-0.6,0.4-0.9,0.3
					c-1.1-0.4-2.3-0.7-3.4-1.1c-0.4-0.1-0.7-0.5-1-0.8S5.2,14,4.7,14.2C4.1,14.4,3.6,14.5,3.2,14.6z"/>
			</g>
			<path class="st1" d="M12.9,12.3c-0.2,0-0.3,0-0.4,0.1c-0.2,0.1-0.3,0.3-0.4,0.5C12,13,12,13,12,12.9c-0.1-0.1-0.1-0.1-0.2-0.2
				c-0.1,0-0.1-0.1,0-0.1c0.4-0.5,0.9-1,1.3-1.5c0-0.1,0.1-0.1,0.1,0c0.1,0,0.1,0.1,0.2,0.1c0.1,0,0.1,0.1,0,0.1
				c-0.1,0.1-0.2,0.3-0.4,0.4c0.1,0,0.2,0,0.4,0.1c0,0,0,0,0.1,0c0.1-0.1,0.1-0.2,0.2-0.2c0.1-0.1,0.1-0.1,0.2,0l0.1,0.1
				c0.1,0.1,0.1,0.1,0,0.2c-0.1,0.1-0.1,0.2-0.2,0.3c0,0,0,0,0,0.1c0.3,0.3,0.3,0.7,0.1,1c0,0.1-0.1,0.2-0.1,0.2c0.1,0,0.3,0,0.4,0
				c0.3,0,0.6,0,0.9,0c0.1,0,0.3,0,0.4,0h0.1v0.1c-0.1,0.1-0.2,0.2-0.3,0.3h-0.1c-0.2,0-0.4,0-0.6,0c-0.2,0-0.4,0-0.6,0
				c-0.2,0-0.4,0-0.5,0h-0.1c-0.1-0.1-0.1-0.1-0.2-0.2v-0.1c0.1-0.1,0.2-0.2,0.3-0.4s0.2-0.4,0.1-0.6l0,0c0-0.1,0-0.1-0.1,0
				c-0.2,0.2-0.4,0.5-0.6,0.7c-0.1,0.1-0.1,0.1-0.2,0l-0.1-0.1c-0.1-0.1-0.1-0.1,0-0.2c0.1-0.2,0.3-0.4,0.4-0.5
				C12.8,12.4,12.8,12.3,12.9,12.3z"/>
		</g>
	</g>
	<path class="st0" d="M23.1,11.9c0-6.1-5-11.1-11.1-11.1S0.9,5.8,0.9,11.9C0.9,18.1,5.9,23,12,23c1.5,0,3-0.3,4.3-0.9
		c0.7,0.6,1.6,1,2.6,1c2.2,0,4.1-1.8,4.1-4c0-1-0.3-1.8-0.9-2.5C22.7,15.2,23.1,13.6,23.1,11.9z M21,19.6c-0.1,0.1-0.1,0.1-0.3,0.1
		h-3.3c-0.1,0-0.2,0-0.3-0.1C17,19.5,17,19.4,17,19.1c0-0.2,0-0.4,0.1-0.5s0.2-0.1,0.3-0.1h3.3c0.1,0,0.1,0,0.2,0l0.1,0.1
		c0,0,0.1,0.1,0.1,0.2s0,0.2,0,0.3C21.1,19.4,21,19.5,21,19.6z M20.9,15.6c-0.6-0.3-1.3-0.6-2-0.6c-2.2,0-4.1,1.8-4.1,4.1
		c0,0.7,0.2,1.3,0.5,1.9c-1,0.4-2.2,0.6-3.3,0.6c-5.3,0-9.7-4.4-9.7-9.7S6.7,2.2,12,2.2s9.7,4.4,9.7,9.7
		C21.7,13.3,21.4,14.5,20.9,15.6z"/>
</g>
</svg>
