<?xml version="1.0" encoding="utf-8"?>
<!-- Generator: Adobe Illustrator 25.3.0, SVG Export Plug-In . SVG Version: 6.00 Build 0)  -->
<svg version="1.1" id="Layer_1" xmlns="http://www.w3.org/2000/svg" xmlns:xlink="http://www.w3.org/1999/xlink" x="0px" y="0px"
	 viewBox="0 0 50.7 20" style="enable-background:new 0 0 50.7 20;" xml:space="preserve">
<style type="text/css">
	.st0{fill:#02539F;}
	.st1{fill-rule:evenodd;clip-rule:evenodd;fill:#02539F;}
	.st2{font-family:'Calibri';}
	.st3{font-size:12px;}
</style>
<g>
	<g>
		<g>
			<path class="st0" d="M76.2-46.2c1.1,1,2.3,1.9,3.4,2.8c1,0.8,2,1.7,3,2.5c0.3,0.2,0.3,0.4,0.1,0.7c-2.8,3.3-5.6,6.6-8.3,9.9
				c-0.7,0.8-1.4,1.7-2.1,2.5c-1.9-1.6-3.7-3.1-5.6-4.7v-0.1c0.3,0.1,0.6,0.2,0.9,0.3c0.6,0.2,1.2,0.4,1.9,0.6
				c1,0.3,1.9-0.2,2.3-1.1c0.4-0.9,0-1.9-0.8-2.4c-0.9-0.5-1.7-1-2.6-1.5c0,0,0,0-0.1-0.1C70.9-39.9,73.5-43,76.2-46.2z M74.3-34.2
				c1.5,0,2.7-1.1,2.7-2.6c0-1.6-1.4-3-3-3c-1.5,0-2.7,1.1-2.7,2.5C71.4-35.6,72.7-34.2,74.3-34.2z"/>
			<path class="st0" d="M61.1-34.7c0-1.9,0-3.7,0-5.5c1.6-0.4,3.1-0.9,4.7-1.3c0.5-0.1,1.1-0.2,1.7-0.1c1.1,0.1,2.2,0.4,3.3,0.6
				c-0.1,0.1-0.1,0.2-0.2,0.3c-0.8,0.9-1.5,1.8-2.3,2.7c-0.1,0.1-0.3,0.2-0.5,0.2s-0.4,0-0.5,0c-0.4,0-0.6,0.1-0.7,0.5
				s0.1,0.6,0.4,0.8c1.1,0.6,2.2,1.2,3.3,1.9c0.3,0.2,0.6,0.4,0.7,0.7c0.2,0.4,0.1,0.8-0.2,1.2c-0.3,0.4-0.7,0.5-1.2,0.3
				c-1.4-0.4-2.9-0.9-4.2-1.4c-0.5-0.2-0.9-0.6-1.3-1s-0.8-0.6-1.4-0.4C62.2-35,61.7-34.9,61.1-34.7z"/>
		</g>
		<path class="st1" d="M73.3-37.7c-0.2,0-0.4,0-0.5,0.1c-0.2,0.2-0.4,0.4-0.5,0.6c-0.2,0.1-0.2,0.2-0.3,0.1
			c-0.1-0.1-0.2-0.1-0.3-0.2c-0.1-0.1-0.1-0.1,0-0.2c0.5-0.6,1.1-1.3,1.6-1.9c0.1-0.1,0.1-0.1,0.2,0s0.1,0.1,0.2,0.2
			c0.1,0.1,0.1,0.1,0,0.2c-0.1,0.2-0.3,0.4-0.4,0.5c0.2,0,0.3,0,0.4,0.1h0.1c0.1-0.1,0.2-0.2,0.2-0.3c0.1-0.1,0.1-0.1,0.2,0
			c0.1,0,0.1,0.1,0.2,0.1c0.1,0.1,0.1,0.1,0,0.2c-0.1,0.1-0.2,0.2-0.3,0.3c0,0,0,0,0,0.1c0.3,0.4,0.3,0.8,0.2,1.3
			c0,0.1-0.1,0.2-0.2,0.3c0.2,0,0.3,0,0.5,0c0.4,0,0.8,0,1.1,0c0.2,0,0.3,0,0.5,0c0.1,0,0.1,0,0.1,0.1v0.1c-0.1,0.1-0.2,0.3-0.3,0.4
			l-0.1,0.1c-0.3,0-0.5,0-0.8,0s-0.5,0-0.8,0c-0.2,0-0.4,0-0.7,0c-0.1,0-0.1,0-0.1,0c-0.1-0.1-0.2-0.1-0.3-0.2c0,0-0.1-0.1,0-0.1
			c0.1-0.1,0.2-0.3,0.3-0.4c0.1-0.2,0.3-0.5,0.2-0.8l0,0c0-0.1-0.1-0.1-0.1,0c-0.2,0.3-0.5,0.6-0.7,0.9c-0.1,0.1-0.1,0.1-0.2,0
			l-0.1-0.1c-0.1-0.1-0.1-0.1,0-0.2c0.2-0.2,0.4-0.5,0.6-0.7C73.1-37.5,73.2-37.6,73.3-37.7z"/>
	</g>
</g>
<text transform="matrix(1 0 0 1 5.1111 14.4667)" class="st0 st2 st3">Save</text>
<path class="st1" d="M32.9,4.2c0,0.1,0,0.2,0,0.3c0,3.1,0,6.2,0,9.3c0,0.5,0.1,0.6,0.6,0.6c2.5,0,4.9,0,7.4,0c0.4,0,0.4,0,0.4-0.4
	c0-2.5,0-5,0-7.5c0-0.4,0-0.4-0.4-0.4c-0.8,0-1.7,0-2.5,0c-0.2,0-0.3,0.1-0.3,0.3c0,1,0,1.9,0,2.9c0,0.2,0.1,0.2,0.2,0.2
	c0.5,0,1,0,1.6,0c0.1,0,0.1,0,0.2,0c-1,1-2,2-2.9,2.9c-0.9-0.9-1.9-1.9-2.9-2.9c0.1,0,0.1,0,0.2,0c0.5,0,1,0,1.5,0
	c0.3,0,0.3,0,0.3-0.3c0-1.2,0-2.4,0-3.7c0-0.1,0-0.1,0-0.2c0-0.8,0.4-1.1,1.1-1.1c1.6,0,3.1,0,4.7,0c0.8,0,1.1,0.4,1.1,1.1
	c0,3.2,0,6.5,0,9.7c0,0.8-0.4,1.1-1.1,1.1c-3.2,0-6.5,0-9.7,0c-0.8,0-1.1-0.4-1.1-1.1c0-3.2,0-6.5,0-9.7c0-0.2,0-0.4,0.1-0.6
	c0.1-0.4,0.4-0.5,0.8-0.6C32.2,4.2,32.5,4.2,32.9,4.2z"/>
</svg>
