<?xml version="1.0" encoding="utf-8"?>
<!-- Generator: Adobe Illustrator 25.3.0, SVG Export Plug-In . SVG Version: 6.00 Build 0)  -->
<svg version="1.1" id="Layer_1" xmlns="http://www.w3.org/2000/svg" xmlns:xlink="http://www.w3.org/1999/xlink" x="0px" y="0px"
	 viewBox="0 0 20 20" style="enable-background:new 0 0 20 20;" xml:space="preserve">
<style type="text/css">
	.st0{fill-rule:evenodd;clip-rule:evenodd;fill:#02539F;}
</style>
<path id="Scheme" class="st0" d="M9.2,9c0.2-0.2,0.2-0.4,0-0.6C9,8.2,8.8,8.2,8.6,8.4C8.4,8.5,8.4,8.8,8.6,9c0,0,0,0,0,0
	C8.7,9.2,9,9.2,9.2,9z M9,12.7c-0.2,0.2-0.2,0.4,0,0.6c0.2,0.2,0.4,0.2,0.6,0c0.2-0.2,0.2-0.4,0-0.6C9.5,12.6,9.2,12.6,9,12.7
	L9,12.7z M17.4,2.6c-0.2-0.2-0.4-0.2-0.6,0c0,0,0,0,0,0l-1.3,1.3c-0.1,0-0.2-0.1-0.2-0.1l-4-1c-0.4-0.1-0.9,0-1.3,0.3l-7.1,7.1
	c-0.5,0.5-0.5,1.3,0,1.9l5,5c0.5,0.5,1.3,0.5,1.9,0l7.1-7.1c0.3-0.3,0.5-0.8,0.3-1.3l-1-4c0-0.1-0.1-0.2-0.1-0.2l1.3-1.3
	C17.5,3.1,17.5,2.8,17.4,2.6L17.4,2.6z M8,7.7c0.5-0.5,1.4-0.4,1.9,0.1c0.5,0.5,0.4,1.4-0.1,1.9c-0.5,0.5-1.4,0.4-1.9-0.1
	C7.4,9,7.5,8.2,8,7.7L8,7.7z M10.2,14c-0.5,0.5-1.4,0.4-1.9-0.1c-0.5-0.5-0.4-1.4,0.1-1.9c0.5-0.5,1.4-0.4,1.9,0.1
	C10.8,12.7,10.7,13.6,10.2,14C10.2,14,10.2,14,10.2,14L10.2,14z M11.9,11.1l-5.6,0.4h0c-0.2,0-0.4-0.2-0.4-0.5
	c0-0.2,0.2-0.4,0.4-0.4l5.6-0.4c0.2,0,0.5,0.2,0.5,0.4C12.4,10.9,12.2,11.1,11.9,11.1C11.9,11.1,11.9,11.1,11.9,11.1L11.9,11.1z
	 M14.7,6.2c-0.3,0.3-0.8,0.3-1,0c-0.3-0.3-0.3-0.8,0-1c0.3-0.3,0.8-0.3,1,0c0,0,0,0,0,0l0,0C15,5.5,15,6,14.7,6.2L14.7,6.2z"/>
</svg>
