<?xml version="1.0" encoding="utf-8"?>
<!-- Generator: Adobe Illustrator 25.3.0, SVG Export Plug-In . SVG Version: 6.00 Build 0)  -->
<svg version="1.1" id="Layer_1" xmlns="http://www.w3.org/2000/svg" xmlns:xlink="http://www.w3.org/1999/xlink" x="0px" y="0px"
	 viewBox="0 0 26 26" style="enable-background:new 0 0 26 26;" xml:space="preserve">
<style type="text/css">
	.st0{fill-rule:evenodd;clip-rule:evenodd;fill:#02539F;}
</style>
<path id="dateofJoiniing" class="st0" d="M18.5,10.9c-0.5,0-1-0.4-1-0.9s0.4-1,0.9-1s1,0.4,1,0.9l0,0C19.5,10.5,19.1,10.9,18.5,10.9
	z M6.3,19.2c-0.5,0-1-0.4-1-0.9s0.4-1,0.9-1s1,0.4,1,0.9l0,0C7.3,18.7,6.9,19.2,6.3,19.2L6.3,19.2z M6.3,10.9c-0.5,0-1-0.4-1-0.9
	s0.4-1,0.9-1s1,0.4,1,0.9l0,0C7.3,10.5,6.9,10.9,6.3,10.9L6.3,10.9z M6.3,15c-0.5,0-1-0.4-1-0.9s0.4-1,0.9-1s1,0.4,1,0.9l0,0
	C7.3,14.6,6.9,15,6.3,15L6.3,15z M10.4,19.2c-0.5,0-1-0.4-1-0.9s0.4-1,0.9-1s1,0.4,1,0.9l0,0C11.4,18.7,10.9,19.2,10.4,19.2
	L10.4,19.2L10.4,19.2z M10.4,10.9c-0.5,0-1-0.4-1-0.9s0.4-1,0.9-1s1,0.4,1,0.9l0,0C11.4,10.5,10.9,10.9,10.4,10.9L10.4,10.9
	L10.4,10.9z M10.4,15c-0.5,0-1-0.4-1-0.9s0.4-1,0.9-1s1,0.4,1,0.9l0,0C11.4,14.6,10.9,15,10.4,15L10.4,15L10.4,15z M23.5,14
	c-0.5,0-0.9-0.4-0.9-0.9l0,0V5.7c0-1-0.8-1.9-1.9-1.9h-1.2v0.9c0,0.5-0.4,0.9-0.9,0.9s-0.9-0.4-0.9-0.9l0,0V3.8h-4.3v0.9
	c0,0.5-0.4,0.9-0.9,0.9s-0.9-0.4-0.9-0.9l0,0V3.8H7.3v0.9c0,0.5-0.4,0.9-0.9,0.9S5.5,5.2,5.5,4.7l0,0V3.8H4.2c-1,0-1.9,0.9-1.9,1.9
	v14.8c0,1,0.8,1.9,1.9,1.9h11.2c0.5,0,1,0.4,1,0.9s-0.4,1-1,1H4.2c-2.1,0-3.8-1.7-3.7-3.8V5.7c0-2.1,1.7-3.8,3.7-3.8h1.2V1
	c0-0.6,0.4-1,0.9-1s0.9,0.4,0.9,0.9l0,0v0.9h4.2V1c0-0.5,0.4-0.9,0.9-0.9s0.9,0.4,0.9,0.9l0,0v0.9h4.3V1c0.1-0.6,0.5-1,1-1
	s0.9,0.4,0.9,0.9l0,0v0.9h1.2c2.1,0,3.8,1.7,3.7,3.8V13C24.4,13.6,24,14,23.5,14L23.5,14z M14.5,9c0.5,0,1,0.4,1,0.9s-0.4,1-0.9,1
	s-1-0.4-1-0.9l0,0C13.5,9.4,14,9,14.5,9L14.5,9L14.5,9z M18.9,19.4c-0.1-0.1-0.3-0.1-0.5,0c-0.1,0.1-0.1,0.3,0,0.5
	c0.1,0.1,0.3,0.1,0.5,0l0,0C19,19.8,19,19.6,18.9,19.4z M21.8,19.6c0.1,0.1,0.3,0.1,0.5,0c0.1-0.1,0.1-0.3,0-0.5
	c-0.1-0.1-0.3-0.1-0.5,0C21.6,19.2,21.6,19.4,21.8,19.6L21.8,19.6z M14,13.2c-0.1,0.1-0.1,0.3,0,0.5l0,0l1,1c0,0.1-0.1,0.1-0.1,0.2
	l-0.8,3c-0.1,0.3,0,0.7,0.3,1l5.4,5.4c0.4,0.4,1,0.4,1.4,0l3.8-3.8c0.4-0.4,0.4-1,0-1.4l-5.4-5.4c-0.3-0.2-0.6-0.4-1-0.3l-3,0.8
	c-0.1,0-0.1,0-0.2,0.1l-1-1C14.3,13,14.1,13,14,13.2L14,13.2z M17.9,20.3c-0.4-0.4-0.3-1.1,0.1-1.4c0.4-0.4,1.1-0.3,1.4,0.1
	c0.4,0.4,0.3,1-0.1,1.4S18.3,20.7,17.9,20.3L17.9,20.3z M22.7,18.7c0.4,0.4,0.3,1.1-0.1,1.4c-0.4,0.4-1.1,0.3-1.4-0.1
	c-0.4-0.4-0.3-1,0.1-1.4S22.4,18.2,22.7,18.7L22.7,18.7L22.7,18.7z M20.5,17.3l0.3,4.3l0,0c0,0.2-0.2,0.3-0.3,0.3
	c-0.2,0-0.3-0.1-0.3-0.3l-0.3-4.3c0-0.2,0.1-0.3,0.3-0.4C20.3,17,20.5,17.1,20.5,17.3L20.5,17.3L20.5,17.3z M16.8,15.2
	c0.2,0.2,0.2,0.6,0,0.8c-0.2,0.2-0.6,0.2-0.8,0c-0.2-0.2-0.2-0.6,0-0.8l0,0l0,0C16.2,14.9,16.6,14.9,16.8,15.2L16.8,15.2z"/>
</svg>
