<svg xmlns="http://www.w3.org/2000/svg" width="18" height="15" viewBox="0 0 18 15">
  <defs>
    <style>
      .cls-1 {
        fill: #5f5f5f;
        fill-rule: evenodd;
      }
    </style>
  </defs>
  <path class="cls-1" d="M752.892,131.328q-4.049,0-8.1,0a0.634,0.634,0,0,1-.8-0.634,0.676,0.676,0,0,1,.8-0.693q8.074,0,16.148,0a0.631,0.631,0,0,1,.78.7c-0.009.451-.229,0.629-0.786,0.629Q756.917,131.33,752.892,131.328Zm-5.086,12.12h2.539c0.109,0,.219,0,0.329,0a0.825,0.825,0,0,1,.911.635,0.772,0.772,0,0,1-.865.682c-1.942.02-3.885,0.01-5.828,0a1.079,1.079,0,0,1-.41-0.092A0.653,0.653,0,0,1,744,144.1a0.634,0.634,0,0,1,.476-0.574,1.462,1.462,0,0,1,.6-0.077C745.989,143.447,746.9,143.448,747.806,143.448Zm-1.476-1.7c-0.533,0-1.065.008-1.6,0a0.653,0.653,0,0,1-.733-0.67,0.634,0.634,0,0,1,.738-0.654q1.622-.011,3.242,0a0.627,0.627,0,0,1,.711.635,0.649,0.649,0,0,1-.716.688C747.426,141.759,746.878,141.75,746.33,141.75Zm-0.107-8.175c0.532,0,1.065,0,1.6,0a0.562,0.562,0,0,1,.6.624,0.586,0.586,0,0,1-.588.691q-1.622.021-3.241,0a0.617,0.617,0,0,1-.588-0.7,0.579,0.579,0,0,1,.622-0.612C745.158,133.583,745.691,133.575,746.223,133.575ZM746,138.427c-0.455,0-.909.006-1.363,0a0.651,0.651,0,0,1-.009-1.3q1.409-.015,2.818,0a0.576,0.576,0,0,1,.6.671,0.558,0.558,0,0,1-.594.631C746.965,138.425,746.48,138.426,746,138.427Zm15.63,5.179c-0.884-.89-1.763-1.787-2.672-2.652a0.4,0.4,0,0,1-.024-0.671,4.277,4.277,0,0,0,.939-3.857,5.077,5.077,0,0,0-5.209-3.811,4.6,4.6,0,0,0-1.457.218,4.927,4.927,0,0,0-3.553,4.118,4.491,4.491,0,0,0,2.1,4.286,5.374,5.374,0,0,0,5.262.531,0.443,0.443,0,0,1,.588.095q1.467,1.426,2.965,2.823a0.809,0.809,0,0,0,1.207.062A0.729,0.729,0,0,0,761.625,143.606Zm-4.068-3.764a4.254,4.254,0,0,1-5.644-.153,3.293,3.293,0,0,1,1.506-5.529,3.667,3.667,0,0,1,1.257-.219,4.094,4.094,0,0,1,2.876,1A3.171,3.171,0,0,1,757.557,139.842Z" transform="translate(-744 -130)"/>
</svg>
