<?xml version="1.0" encoding="utf-8"?>
<!-- Generator: Adobe Illustrator 25.3.0, SVG Export Plug-In . SVG Version: 6.00 Build 0)  -->
<svg version="1.1" id="Layer_1" xmlns="http://www.w3.org/2000/svg" xmlns:xlink="http://www.w3.org/1999/xlink" x="0px" y="0px"
	 viewBox="0 0 30 30" style="enable-background:new 0 0 30 30;" xml:space="preserve">
<style type="text/css">
	.st0{fill-rule:evenodd;clip-rule:evenodd;fill:#02539F;}
</style>
<path id="aearch" class="st0" d="M27.7,26.1l-6.2-6.2c3.8-4.7,3.1-11.5-1.5-15.4S8.3,1.4,4.5,6.1c-3.8,4.7-3.1,11.5,1.5,15.4
	c4,3.3,9.8,3.3,13.8,0l6.2,6.2c0.4,0.4,1.1,0.4,1.5,0c0,0,0,0,0,0C28.1,27.2,28.1,26.6,27.7,26.1C27.7,26.1,27.7,26.1,27.7,26.1z
	 M13,21.7c-4.8,0-8.8-3.9-8.8-8.8S8.1,4.2,13,4.2c4.8,0,8.8,3.9,8.8,8.8C21.7,17.8,17.8,21.7,13,21.7L13,21.7z"/>
</svg>
