<?xml version="1.0" encoding="utf-8"?>
<!-- Generator: Adobe Illustrator 25.3.0, SVG Export Plug-In . SVG Version: 6.00 Build 0)  -->
<svg version="1.1" id="Layer_1" xmlns="http://www.w3.org/2000/svg" xmlns:xlink="http://www.w3.org/1999/xlink" x="0px" y="0px"
	 viewBox="0 0 24 24" style="enable-background:new 0 0 24 24;" xml:space="preserve">
<style type="text/css">
	.st0{fill-rule:evenodd;clip-rule:evenodd;fill:#02539F;}
</style>
<path id="semYear" class="st0" d="M23.1,23.1C22.6,23.7,21.8,24,21,24H3c-1.7,0-3-1.3-3-3c0,0,0,0,0,0V6c0-1.7,1.3-3,3-3
	c0,0,0,0,0,0h1c0-1.7,1.3-3,3-3c0,0,0,0,0,0c1.7,0,3,1.3,3,3c0,0,0,0,0,0h4c0-1.7,1.3-3,3-3s3,1.3,3,3h1c1.7,0,3,1.3,3,3
	c0,0,0,0,0,0v15C24,21.8,23.7,22.6,23.1,23.1z M22,6c0-0.5-0.4-1-1-1c0,0,0,0,0,0h-2c-0.3,0-0.5-0.1-0.7-0.3C18.1,4.5,18,4.3,18,4V3
	c0-0.3-0.1-0.5-0.3-0.7c-0.4-0.4-1-0.4-1.4,0C16.1,2.5,16,2.7,16,3v2c0,0.3,0.1,0.5,0.3,0.7C16.5,5.9,16.7,6,17,6
	c0.3,0,0.5,0.1,0.7,0.3c0.4,0.4,0.4,1,0,1.4c0,0,0,0,0,0C17.5,7.9,17.3,8,17,8c-1.7,0-3-1.3-3-3c0,0,0,0,0,0H9
	C8.7,5,8.5,4.9,8.3,4.7C8.1,4.5,8,4.3,8,4V3c0-0.3-0.1-0.5-0.3-0.7c-0.4-0.4-1-0.4-1.4,0C6.1,2.5,6,2.7,6,3v2c0,0.3,0.1,0.5,0.3,0.7
	C6.5,5.9,6.7,6,7,6c0.3,0,0.5,0.1,0.7,0.3c0.4,0.4,0.4,1,0,1.4c0,0,0,0,0,0C7.5,7.9,7.3,8,7,8C5.3,8,4,6.7,4,5c0,0,0,0,0,0H3
	C2.5,5,2,5.4,2,6c0,0,0,0,0,0v4h20L22,6L22,6z"/>
</svg>
