<?xml version="1.0" encoding="utf-8"?>
<!-- Generator: Adobe Illustrator 25.3.0, SVG Export Plug-In . SVG Version: 6.00 Build 0)  -->
<svg version="1.1" id="Layer_1" xmlns="http://www.w3.org/2000/svg" xmlns:xlink="http://www.w3.org/1999/xlink" x="0px" y="0px"
	 viewBox="0 0 30 30.1" style="enable-background:new 0 0 30 30.1;" xml:space="preserve">
<style type="text/css">
	.st0{fill-rule:evenodd;clip-rule:evenodd;fill:#02539F;}
</style>
<path id="setting" class="st0" d="M23.8,17.3c-0.2,0.8-0.5,1.5-1,2.2l2.9,2.8l-3.2,3.1l-2.9-2.8c-0.7,0.4-1.5,0.7-2.3,0.9v3.9h-4.5
	v-3.8c-0.8-0.2-1.6-0.5-2.4-0.9l-2.9,2.8l-3.2-3.1l2.9-2.8c-0.4-0.7-0.8-1.4-1-2.2H2.4V13h4.1c0.2-0.8,0.5-1.5,1-2.2L4.5,8l3.2-3.1
	l2.9,2.8c0.7-0.4,1.5-0.7,2.4-0.9V2.9h4.5v3.9C18.2,7,19,7.3,19.7,7.7l2.9-2.8L25.7,8l-2.9,2.8c0.4,0.7,0.8,1.4,1,2.2h4v4.3
	L23.8,17.3L23.8,17.3z M15.1,19.5c2.4,0.1,4.4-1.8,4.5-4.2c0.1-2.4-1.8-4.4-4.2-4.5c-0.1,0-0.2,0-0.3,0c-0.9,0-1.8,0.3-2.6,0.8
	l-1.1,1c-0.5,0.7-0.8,1.6-0.8,2.5C10.7,17.6,12.7,19.6,15.1,19.5z M21.8,2.5H25c1.4,0,2.5,1.2,2.5,2.6v3.1c0,0.7,0.5,1.3,1.2,1.3
	S30,8.9,30,8.2c0,0,0,0,0,0v-5C30,0.3,27.7,0,25,0h-3.2c-0.7,0-1.2,0.5-1.3,1.1C20.6,1.9,21.1,2.4,21.8,2.5z M0,21.9V25
	c0,2.8,2.2,5.1,5,5.1h3.5c0.7,0,1.3-0.6,1.3-1.3c0-0.7-0.6-1.3-1.3-1.3H5c-1.4,0-2.5-1.2-2.5-2.6v-3.1C2.7,19.8,0,19.1,0,21.9z"/>
</svg>
