<svg id="Layer_1" data-name="Layer 1" xmlns="http://www.w3.org/2000/svg" viewBox="0 0 20 20"><defs><style>.cls-1{fill:#02539f;}</style></defs><path class="cls-1" d="M10.41.66a5,5,0,0,1,.53.11,4.19,4.19,0,0,1,3.27,3.37,4.06,4.06,0,0,1-1.31,4A4.1,4.1,0,0,1,8.34,9,4.09,4.09,0,0,1,5.67,5.54,4.27,4.27,0,0,1,8.23,1,7.11,7.11,0,0,1,9.37.7l.13,0ZM13.23,5A3.27,3.27,0,1,0,10,8.26,3.26,3.26,0,0,0,13.23,5Z"/><path class="cls-1" d="M10.07,18.63c-1.5,0-3,0-4.49,0a3.08,3.08,0,0,1-2.06-.77,2.63,2.63,0,0,1-.9-1.76,9.49,9.49,0,0,1,.59-4.35,3.78,3.78,0,0,1,1.65-2,3.3,3.3,0,0,1,1.65-.4,1.24,1.24,0,0,1,.54.18c.27.14.51.32.77.48a4.11,4.11,0,0,0,2.54.69,4.2,4.2,0,0,0,1.88-.63,4.12,4.12,0,0,0,.6-.39,1.69,1.69,0,0,1,1.55-.26,3.34,3.34,0,0,1,2.3,1.8,6.79,6.79,0,0,1,.77,2.56,15.82,15.82,0,0,1,.1,2,2.83,2.83,0,0,1-2.37,2.83,4.65,4.65,0,0,1-.83.07H10.07Zm0-1.05h.84c1.19,0,2.38,0,3.56,0a1.89,1.89,0,0,0,2-2.11c0-.52-.05-1-.11-1.56a6,6,0,0,0-.65-2.18,2.32,2.32,0,0,0-1.52-1.26.92.92,0,0,0-.89.14,3.38,3.38,0,0,1-.54.36,5,5,0,0,1-4.37.52,7.43,7.43,0,0,1-1.75-1,.65.65,0,0,0-.52-.12,4,4,0,0,0-.78.26A2.61,2.61,0,0,0,4.2,12.14a8.69,8.69,0,0,0-.56,3.57,1.78,1.78,0,0,0,1,1.65,2.62,2.62,0,0,0,1.17.22Z"/></svg>