<?xml version="1.0" encoding="utf-8"?>
<!-- Generator: Adobe Illustrator 25.3.0, SVG Export Plug-In . SVG Version: 6.00 Build 0)  -->
<svg version="1.1" id="Layer_1" xmlns="http://www.w3.org/2000/svg" xmlns:xlink="http://www.w3.org/1999/xlink" x="0px" y="0px"
	 viewBox="0 0 30 30" style="enable-background:new 0 0 30 30;" xml:space="preserve">
<style type="text/css">
	.st0{fill-rule:evenodd;clip-rule:evenodd;fill:#02539F;}
</style>
<path id="mother" class="st0" d="M24.7,22.8c-0.5-0.2-1.1-0.4-1.7-0.6c0.8-0.6,1.4-1.4,1.6-2.4c0.2-0.5,0.2-1-0.2-1.4
	c-1.3-1.2-1.8-3-1.3-4.7c0.3-0.5,0.3-1.1,0.1-1.7c-0.3-0.8-0.4-1.5-0.4-2.3c0-1.8-0.7-3.6-2-4.9c-1.8-2-4.5-3-7.2-2.6
	c-1.6,0.2-3,0.9-4.2,2C7.8,5.6,6.8,8,7,10.4c0,0.3,0,0.6-0.2,0.9c-0.4,0.7-0.4,1.5-0.1,2.3c0.6,1.7,0.1,3.6-1.3,4.8
	c-0.2,0.1-0.2,0.3-0.2,0.5c-0.1,1.3,0.6,2.6,1.6,3.3c-0.6,0.2-1.1,0.4-1.6,0.6c-2.1,0.6-3.4,2.6-3.3,4.7C2,27.9,2.1,28,2.5,28
	c8.4,0,16.7,0,25.1,0c0.3,0,0.4,0,0.4-0.4C28.1,25.4,26.8,23.4,24.7,22.8z M23.1,19.7c-0.4,0.9-1.2,1.5-2.1,1.6
	c-0.4-0.2-0.9-0.3-1.3-0.5c-0.5-0.2-0.8-0.6-0.8-1.1c0-0.2-0.1-0.4-0.2-0.6c-0.1-0.2-0.1-0.5,0.2-0.7c0.7-0.7,1.1-1.6,1.3-2.5
	c0-0.3,0.3-0.6,0.7-0.6c0.8-0.2,0.8,0.2,0.8,0.8c0.1,1,0.6,2,1.3,2.7C23.2,19.1,23.3,19.5,23.1,19.7z M19.2,22.3
	c-2.5,1.6-5.8,1.7-8.4,0.1c0,0,0-0.1,0.1-0.1c0.9-0.1,1.6-0.9,1.7-1.9c0.1-0.5,0.3-0.6,0.8-0.4c1.1,0.5,2.3,0.5,3.4,0
	c0.4-0.2,0.6,0,0.7,0.3C17.6,21.3,17.8,22.2,19.2,22.3z M8.6,8.8c0.5-2.4,2.3-4.4,4.7-5c0.5-0.2,1.1-0.2,1.7-0.2
	c3.1,0,5.8,2.3,6.3,5.4c0,0.2,0.1,0.3,0.1,0.4c0,0.2,0,0.4-0.3,0.3c-1.1-0.1-2.3-0.2-3.4-0.1c-1.6,0-3.1-0.6-4.1-1.8
	c-0.4-0.5-1.2-0.7-1.8-0.4C11,7.7,10.3,8.3,9.9,9.2c0,0.2-0.2,0.4-0.4,0.3c0,0,0,0,0,0c-0.1,0-0.1,0-0.2,0C9,9.4,8.7,9.9,8.5,9.6
	C8.5,9.3,8.5,9,8.6,8.8L8.6,8.8z M8.1,12.3C8.2,11.6,8.8,11,9.6,11c0.3,0,0.7,0,1,0c0.6,0.1,0.8-0.1,0.7-0.7c0-0.3,0-0.6,0.2-0.9
	c0.6-0.7,0.9-0.8,1.5-0.2c1,0.9,2.3,1.5,3.6,1.7c1.2,0.1,2.5,0.1,3.7,0.1c0.6,0,1.1,0.3,1.4,0.8c0.4,0.7,0.2,1.6-0.5,1.9
	c-0.2,0.1-0.5,0.2-0.7,0.2c-0.4,0-0.8,0-1.2,0c-0.5,0-0.7,0.1-0.7,0.6c0.1,1-0.2,2.1-0.9,2.9c-1.2,1.5-3.4,1.8-5,0.6
	c-0.2-0.2-0.4-0.4-0.6-0.6c-0.7-0.8-1-1.8-0.9-2.8c0-0.6-0.1-0.8-0.7-0.7c-0.2,0-0.3,0-0.5,0c-0.3,0-0.7,0-1-0.1
	C8.4,13.7,8,13,8.1,12.3L8.1,12.3z M6.8,19.4c0-0.1,0-0.2,0.1-0.3c0.9-0.9,1.5-2.1,1.6-3.4c0-0.3,0.1-0.4,0.4-0.2
	c0.1,0,0.3,0.1,0.4,0c0.3-0.1,0.6,0.1,0.6,0.4c0,0,0,0.1,0,0.1c0.2,1,0.6,1.8,1.3,2.5c0.2,0.2,0.2,0.4,0.2,0.7c0,1-0.8,1.9-1.9,2
	c-0.2,0-0.3,0.1-0.4,0.2C7.9,21.2,7.1,20.4,6.8,19.4L6.8,19.4z M23.1,26.5c-0.2,0-0.3,0-0.4-0.2c0,0,0-0.1,0-0.2
	c0-1.1-0.1-1.1-1.1-1.1c-0.2,0-0.3,0.1-0.4,0.2c0,0,0,0.1,0,0.1c0,1,0,1-1.1,1c-3.6,0-7.2,0-10.8,0c-0.5,0-0.6-0.1-0.6-0.6
	c0.1-0.8,0-0.8-0.8-0.8c-0.6,0-0.8,0.1-0.7,0.7c0.1,0.6-0.1,0.8-0.7,0.7c-1-0.1-1.9,0-2.9,0c0.2-1,1-1.8,1.9-2.2
	c1-0.4,2.1-0.8,3.1-1.2c0.2-0.1,0.5-0.1,0.7,0.1c3.3,2.4,7.8,2.5,11.2,0c0.2-0.2,0.6-0.3,0.9-0.2c0.9,0.4,1.9,0.8,2.9,1.1
	c1,0.3,1.8,1.2,2.1,2.2C25.2,26.5,24.2,26.5,23.1,26.5z"/>
</svg>
