<?xml version="1.0" encoding="utf-8"?>
<!-- Generator: Adobe Illustrator 25.3.0, SVG Export Plug-In . SVG Version: 6.00 Build 0)  -->
<svg version="1.1" id="Layer_1" xmlns="http://www.w3.org/2000/svg" xmlns:xlink="http://www.w3.org/1999/xlink" x="0px" y="0px"
	 viewBox="0 0 20 20" style="enable-background:new 0 0 20 20;" xml:space="preserve">
<style type="text/css">
	.st0{fill-rule:evenodd;clip-rule:evenodd;fill:#02539F;}
</style>
<path id="status" class="st0" d="M10,19c-5,0-9-4.1-9-9c0-5,4.1-9,9-9c5,0,9,4.1,9,9C19,15,15,19,10,19C10,19,10,19,10,19z M10,2.4
	c-4.2,0-7.6,3.4-7.5,7.6c0,4.2,3.4,7.6,7.6,7.5c4.2,0,7.5-3.4,7.5-7.6C17.6,5.8,14.2,2.4,10,2.4z M14.4,8.2c-1.7,1.6-3.3,3.2-5,4.7
	c-0.3,0.3-0.7,0.4-1.1,0.1c-0.1,0-0.1-0.1-0.1-0.1c-0.9-0.9-1.7-1.7-2.6-2.6c-0.3-0.2-0.4-0.7-0.1-1c0.2-0.3,0.7-0.4,1-0.1
	c0.1,0,0.1,0.1,0.1,0.1c0.7,0.6,1.3,1.3,1.9,2c0.2,0.2,0.3,0.2,0.5,0c1.4-1.3,2.8-2.6,4.1-3.9c0.1-0.1,0.3-0.3,0.5-0.4
	c0.3-0.2,0.8,0,0.9,0.3c0,0.1,0.1,0.2,0.1,0.3C14.7,7.8,14.6,8,14.4,8.2z"/>
</svg>
