<svg xmlns="http://www.w3.org/2000/svg" width="60" height="60" viewBox="0 0 60 60">
  <defs>
    <style>
      .cls-1 {
        fill: silver;
        fill-rule: evenodd;
      }
    </style>
  </defs>
  <path id="store" class="cls-1" d="M895.954,274.446c-3.095-3.6-6.095-7.287-9.1-10.967a1.8,1.8,0,0,0-1.575-.725q-14.442.031-28.883,0a1.806,1.806,0,0,0-1.564.75c-3.008,3.676-6,7.363-9.1,10.965a3.006,3.006,0,0,0-.654,2.906,5.963,5.963,0,0,0,3.7,4.452,1.526,1.526,0,0,1,1.1,1.777c-0.034,6.684.013,13.368-.049,20.051-0.011,1.122.317,1.315,1.35,1.307,6.561-.049,13.124-0.025,19.686-0.025,6.514,0,13.029-.029,19.542.028,1.143,0.011,1.52-.191,1.507-1.446-0.074-6.635-.021-13.271-0.052-19.906a1.544,1.544,0,0,1,1.088-1.8,5.987,5.987,0,0,0,3.683-4.471A3,3,0,0,0,895.954,274.446ZM875.68,264.235h1.5c1.822-.576,2.875.472,3.7,2.417,1.207,2.855,2.66,5.61,4.118,8.348a3.119,3.119,0,0,1,.037,2.984,4.774,4.774,0,0,1-4.977,2.851,4.964,4.964,0,0,1-4.293-4.355c-0.524-3.451-1.065-6.9-1.646-10.341C873.793,264.228,873.749,264.235,875.68,264.235Zm-19.07,11.028c1.679-3.378,3.39-6.741,5.023-10.142a1.371,1.371,0,0,1,1.532-.9,22.947,22.947,0,0,0,3.3-.006c1.123-.1,1.462.223,1.246,1.37-0.59,3.149-1.1,6.313-1.63,9.473a22.71,22.71,0,0,1-.392,2.4,4.818,4.818,0,0,1-4.608,3.437,5,5,0,0,1-4.835-4.282A2.251,2.251,0,0,1,856.61,275.263Zm32.37,15.777c0.056,1.215-.2,1.625-1.528,1.6-5.555-.09-11.112-0.038-16.669-0.038-5.508,0-11.017-.025-16.524.022-1.06.009-1.517-.17-1.468-1.388,0.1-2.593.049-5.192,0.021-7.789a1.33,1.33,0,0,1,.978-1.6,8.333,8.333,0,0,1,4.756.012,6.07,6.07,0,0,0,6.581-.935c0.6-.48.887-0.686,1.61-0.079a6.112,6.112,0,0,0,8.25,0,0.933,0.933,0,0,1,1.494-.007c2.646,2.17,5.647,2.131,8.366-.072,0.5-.4.787-0.57,1.273-0.036a2.557,2.557,0,0,0,1.156.822c1.7,0.394,1.77,1.563,1.7,3C888.877,286.711,888.881,288.881,888.98,291.04Z" transform="translate(-840.86 -253.859)"/>
</svg>
