<?xml version="1.0" encoding="utf-8"?>
<!-- Generator: Adobe Illustrator 25.3.0, SVG Export Plug-In . SVG Version: 6.00 Build 0)  -->
<svg version="1.1" id="Layer_1" xmlns="http://www.w3.org/2000/svg" xmlns:xlink="http://www.w3.org/1999/xlink" x="0px" y="0px"
	 viewBox="0 0 30 30" style="enable-background:new 0 0 30 30;" xml:space="preserve">
<style type="text/css">
	.st0{fill-rule:evenodd;clip-rule:evenodd;fill:#02539F;}
</style>
<path id="storeName" class="st0" d="M28.6,8.2c-1.7-1.9-3.3-3.8-4.9-5.8C23.4,2.1,23.1,2,22.8,2C17.6,2,12.4,2,7.2,2
	C6.9,2,6.5,2.1,6.3,2.4C4.7,4.3,3.1,6.3,1.4,8.2C1,8.6,0.9,9.2,1.1,9.7c0.2,1.1,1,2,2,2.4c0.4,0.1,0.7,0.5,0.6,0.9
	c0,3.5,0,10.8,0,14.3c0,0.6,0.2,0.7,0.7,0.7c3.5,0,7.1,0,10.6,0c3.5,0,7,0,10.6,0c0.6,0,0.8-0.1,0.8-0.8c0-3.5,0-10.7,0-14.2
	c-0.1-0.4,0.2-0.8,0.6-0.9c1-0.4,1.8-1.3,2-2.4C29.1,9.2,29,8.6,28.6,8.2z M17.6,2.8h0.8c1-0.3,1.6,0.2,2,1.3c0.7,1.5,1.4,3,2.2,4.4
	c0.3,0.5,0.3,1.1,0,1.6c-0.5,1-1.6,1.6-2.7,1.5c-1.2-0.1-2.2-1.1-2.3-2.3c-0.3-1.8-0.6-3.6-0.9-5.5C16.6,2.8,16.6,2.8,17.6,2.8z
	 M7.3,8.6C8.2,6.8,9.1,5,10,3.3c0.1-0.3,0.5-0.5,0.8-0.5c0.6,0,1.2,0,1.8,0c0.6-0.1,0.8,0.1,0.7,0.7c-0.3,1.7-0.6,3.3-0.9,5
	c0,0.4-0.1,0.8-0.2,1.3c-0.3,1.1-1.4,1.8-2.5,1.8c-1.3,0-2.4-1-2.6-2.3C7.1,9.1,7.2,8.8,7.3,8.6z M24.8,16.9c0,0.6-0.1,0.9-0.8,0.8
	c-3,0-6,0-9,0c-3,0-6,0-8.9,0c-0.6,0-0.8-0.1-0.8-0.7c0.1-1.4,0-2.7,0-4.1c-0.1-0.4,0.1-0.8,0.5-0.8c0,0,0,0,0,0
	c0.8-0.2,1.7-0.2,2.6,0c1.2,0.5,2.6,0.3,3.6-0.5c0.2-0.2,0.5-0.3,0.8-0.1c0,0,0.1,0.1,0.1,0.1c1.3,1.1,3.2,1.1,4.5,0
	c0.2-0.2,0.5-0.3,0.7-0.1c0,0,0.1,0.1,0.1,0.1c1.3,1.1,3.2,1.1,4.5,0c0.3-0.2,0.4-0.3,0.7,0c0.2,0.2,0.4,0.4,0.6,0.4
	c0.9,0.2,1,0.8,0.9,1.6C24.7,14.6,24.7,15.8,24.8,16.9z"/>
</svg>
