<?xml version="1.0" encoding="utf-8"?>
<!-- Generator: Adobe Illustrator 25.3.0, SVG Export Plug-In . SVG Version: 6.00 Build 0)  -->
<svg version="1.1" id="Layer_1" xmlns="http://www.w3.org/2000/svg" xmlns:xlink="http://www.w3.org/1999/xlink" x="0px" y="0px"
	 viewBox="0 0 30.1 29.6" style="enable-background:new 0 0 30.1 29.6;" xml:space="preserve">
<style type="text/css">
	.st0{fill-rule:evenodd;clip-rule:evenodd;fill:#02539F;}
</style>
<path id="swipeable" class="st0" d="M21.8,11c0.6,0,1.2,0.5,1.2,1.1c0,0.6-0.5,1.2-1.1,1.2c-0.6,0-1.2-0.5-1.2-1.1c0,0,0,0,0,0
	C20.7,11.5,21.2,11,21.8,11C21.8,11,21.8,11,21.8,11z M7.1,23.4c-0.6,0-1.2-0.5-1.2-1.1c0-0.6,0.5-1.2,1.1-1.2
	c0.6,0,1.2,0.5,1.2,1.1c0,0,0,0,0,0C8.2,22.8,7.7,23.3,7.1,23.4C7.1,23.4,7.1,23.4,7.1,23.4L7.1,23.4z M7.1,13.3
	c-0.6,0-1.2-0.5-1.2-1.1C5.9,11.5,6.4,11,7,11c0.6,0,1.2,0.5,1.2,1.1c0,0,0,0,0,0C8.2,12.8,7.7,13.3,7.1,13.3
	C7.1,13.3,7.1,13.3,7.1,13.3L7.1,13.3z M7.1,18.3c-0.6,0-1.2-0.5-1.2-1.1C5.9,16.6,6.4,16,7,16c0.6,0,1.2,0.5,1.2,1.1c0,0,0,0,0,0
	C8.2,17.8,7.7,18.3,7.1,18.3C7.1,18.3,7.1,18.3,7.1,18.3L7.1,18.3z M12,23.4c-0.6,0-1.2-0.5-1.2-1.1c0-0.6,0.5-1.2,1.1-1.2
	c0.6,0,1.2,0.5,1.2,1.1c0,0,0,0,0,0C13.1,22.8,12.6,23.3,12,23.4C12,23.4,12,23.4,12,23.4L12,23.4z M12,13.3c-0.6,0-1.2-0.5-1.2-1.1
	c0-0.6,0.5-1.2,1.1-1.2c0.6,0,1.2,0.5,1.2,1.1c0,0,0,0,0,0C13.1,12.8,12.6,13.3,12,13.3C12,13.3,12,13.3,12,13.3L12,13.3z
	 M12.2,19.7c-1.3,0-2.3-1.1-2.3-2.4c0-1.3,1.1-2.3,2.4-2.3c1.3,0,2.3,1.1,2.3,2.4C14.6,18.7,13.5,19.7,12.2,19.7
	C12.2,19.7,12.2,19.7,12.2,19.7z M27.8,14.7c-0.6,0-1.1-0.5-1.1-1.2c0,0,0,0,0,0V6.9c0-1.3-1-2.3-2.3-2.3H23v1.2
	c0,0.6-0.5,1.1-1.1,1.2c-0.6,0-1.1-0.5-1.2-1.1c0,0,0,0,0-0.1V4.6h-5.1v1.2c0,0.6-0.5,1.1-1.1,1.2c-0.6,0-1.1-0.5-1.2-1.1
	c0,0,0,0,0-0.1V4.6H8.2v1.2c0,0.6-0.5,1.1-1.1,1.2C6.5,7,6,6.5,5.9,5.8c0,0,0,0,0-0.1V4.6H4.5c-1.3,0-2.3,1-2.3,2.3v18
	c0,1.3,1,2.3,2.3,2.3h8.7c0.6,0,1.2,0.5,1.2,1.2c0,0.6-0.5,1.2-1.2,1.2H4.5C2,29.6,0,27.5,0,25v-18c0-2.5,2-4.6,4.5-4.6h1.4V1.2
	C5.9,0.5,6.4,0,7,0c0.6,0,1.1,0.5,1.2,1.1c0,0,0,0,0,0.1v1.2h5.1V1.2c0-0.6,0.5-1.1,1.1-1.2c0.6,0,1.1,0.5,1.2,1.1c0,0,0,0,0,0.1
	v1.2h5.1V1.2c0-0.6,0.5-1.1,1.1-1.2C22.4,0,23,0.5,23,1.1c0,0,0,0,0,0.1v1.2h1.5C27,2.3,29,4.4,29,6.9v6.6
	C29,14.2,28.5,14.7,27.8,14.7L27.8,14.7z M16.9,11c0.6,0,1.2,0.5,1.2,1.1c0,0.6-0.5,1.2-1.1,1.2c-0.6,0-1.2-0.5-1.2-1.1c0,0,0,0,0,0
	C15.8,11.5,16.3,11,16.9,11L16.9,11z M12.2,15.9c0.8,0,1.5,0.7,1.5,1.5s-0.7,1.5-1.5,1.5c-0.8,0-1.5-0.7-1.5-1.5
	S11.4,15.9,12.2,15.9z M12.2,16.7c0.4,0,0.6,0.3,0.6,0.6S12.6,18,12.2,18c-0.4,0-0.6-0.3-0.6-0.6S11.9,16.7,12.2,16.7z M29,23.4
	c0.1-0.1,0-0.3-0.1-0.4c-0.1-0.1-0.3-0.1-0.4,0.1l-0.3,0.4L27.8,24c-0.2,0.2-0.3,0.3-0.5,0.5L27,24.7L26.6,25
	c-0.2,0.1-0.3,0.2-0.5,0.3c-0.1,0.1-0.2,0.1-0.3,0.2c-0.1,0-0.2,0.1-0.3,0.1c-0.2,0.1-0.5,0.2-0.7,0.3c-0.2,0.1-0.5,0.2-0.8,0.2
	c-0.1,0-0.2,0-0.2,0.1c-0.1,0-0.2,0-0.2,0c-0.3,0-0.5,0.1-0.8,0.1c-0.2,0-0.5,0-0.7,0c-0.1,0-0.2,0-0.3,0c-0.1,0-0.2,0-0.3-0.1
	c-0.2,0-0.4-0.1-0.6-0.1l-0.4-0.1l-0.4-0.1c-0.2-0.1-0.3-0.1-0.5-0.2l-0.3-0.1l0,0l0.7-1.2c0.1-0.1,0.1-0.2,0-0.3
	c-0.1-0.1-0.2-0.1-0.3-0.1l-3.6,0.9c-0.2,0-0.3,0.2-0.2,0.4c0,0,0,0,0,0l1,3.6c0,0.1,0.1,0.1,0.1,0.2c0,0,0.1,0,0.1,0
	c0.1,0,0.2,0,0.3-0.1l0.7-1.3l0.5,0.2c0.3,0.1,0.6,0.2,0.9,0.2l0.4,0.1l0.6,0.1c0.3,0,0.5,0,0.8,0c0.1,0,0.2,0,0.3,0c0,0,0,0,0,0
	c0.1,0,0.2,0,0.3,0c0.3,0,0.6-0.1,0.9-0.1c0.3-0.1,0.7-0.1,1-0.2l0.2-0.1l0,0l0.2-0.1c0.3-0.1,0.6-0.2,0.9-0.4
	c0.3-0.1,0.5-0.3,0.8-0.4c0.1-0.1,0.2-0.1,0.2-0.2c0,0,0,0,0,0c0.1-0.1,0.2-0.1,0.3-0.2c0.2-0.1,0.4-0.3,0.6-0.5l0.4-0.4l0.3-0.3
	c0.2-0.2,0.3-0.4,0.5-0.6l0.2-0.3L29,23.4z M17,21c-0.1,0.1,0,0.3,0.1,0.4c0.1,0.1,0.3,0.1,0.4-0.1l0.3-0.4l0.4-0.5
	c0.2-0.2,0.3-0.3,0.5-0.5l0.3-0.3l0.4-0.3c0.2-0.1,0.3-0.2,0.5-0.3c0.1-0.1,0.2-0.1,0.3-0.2c0.1,0,0.2-0.1,0.3-0.1
	c0.2-0.1,0.5-0.2,0.7-0.3c0.2-0.1,0.5-0.2,0.8-0.2c0.1,0,0.2,0,0.2-0.1c0.1,0,0.2,0,0.2,0c0.3,0,0.5-0.1,0.8-0.1c0.2,0,0.5,0,0.7,0
	c0.1,0,0.2,0,0.3,0c0.1,0,0.2,0,0.3,0.1c0.2,0,0.4,0.1,0.6,0.1l0.4,0.1l0.4,0.1c0.2,0.1,0.3,0.1,0.5,0.2l0.3,0.1l0,0l-0.7,1.2
	c-0.1,0.1-0.1,0.2,0,0.3c0.1,0.1,0.2,0.1,0.3,0.1l3.6-0.9c0.1,0,0.1-0.1,0.2-0.1c0-0.1,0.1-0.2,0-0.2l-1-3.6c0-0.1-0.1-0.1-0.1-0.2
	c0,0-0.1,0-0.1,0c-0.1,0-0.2,0-0.3,0.1l-0.7,1.3l-0.5-0.2c-0.3-0.1-0.6-0.2-0.9-0.2L26,16.6l-0.6-0.1c-0.3,0-0.5,0-0.8,0
	c-0.1,0-0.2,0-0.3,0c0,0,0,0,0,0c-0.1,0-0.2,0-0.3,0c-0.3,0-0.6,0.1-0.9,0.1c-0.3,0.1-0.7,0.1-1,0.2l-0.2,0.1c0,0,0,0,0,0L21.5,17
	c-0.3,0.1-0.6,0.2-0.9,0.4c-0.3,0.1-0.5,0.3-0.8,0.4c-0.1,0.1-0.2,0.1-0.2,0.2c0,0,0,0,0,0c-0.1,0.1-0.2,0.1-0.3,0.2
	c-0.2,0.1-0.4,0.3-0.6,0.5L18.4,19l-0.3,0.3c-0.2,0.2-0.3,0.4-0.5,0.6l-0.2,0.3L17,21z"/>
</svg>
