<svg id="Layer_1" data-name="Layer 1" xmlns="http://www.w3.org/2000/svg" viewBox="0 0 20 20"><defs><style>.cls-1{fill:#02539f;}</style></defs><path class="cls-1" d="M0,12.41a4.39,4.39,0,0,1,.46-1.15A4.83,4.83,0,0,1,2.87,9.1L3,9a2.67,2.67,0,0,1-.77-2.5A2.51,2.51,0,0,1,3.49,4.79,2.56,2.56,0,0,1,7.16,6.07l1.08-.6A2.66,2.66,0,0,1,7.49,3a2.58,2.58,0,0,1,4.35-1.31,2.68,2.68,0,0,1,.65,2.63,2.59,2.59,0,0,1-.71,1.18c.32.19.65.37,1,.57a.47.47,0,0,1,.23.52.49.49,0,0,1-.36.41.58.58,0,0,1-.46-.08,4.78,4.78,0,0,0-.93-.47,3.66,3.66,0,0,0-3.82.84.35.35,0,0,0-.07.15A2.61,2.61,0,0,1,6.58,9l0,.06c.32.18.64.36,1,.55a.52.52,0,0,1,.23.57.51.51,0,0,1-.75.32c-.22-.12-.44-.28-.67-.38a3.78,3.78,0,0,0-3.88.45,3.76,3.76,0,0,0-1.35,1.83.53.53,0,0,0,.53.77H5.89a.5.5,0,0,1,.52.36.48.48,0,0,1-.45.65H1.47a1.39,1.39,0,0,1-1.3-.83A4,4,0,0,1,0,12.83ZM10,1.93a1.61,1.61,0,1,0,1.56,1.61A1.6,1.6,0,0,0,10,1.93ZM6.34,7.08a1.61,1.61,0,0,0-1.58-1.6,1.61,1.61,0,0,0,0,3.22A1.62,1.62,0,0,0,6.34,7.08Z"/><path class="cls-1" d="M5.26,15.93a4.32,4.32,0,0,1,.46-1.16,4.92,4.92,0,0,1,2.41-2.16l.14-.06a2.68,2.68,0,0,1-.77-2.5,2.57,2.57,0,0,1,4.92-.46L13.5,9a2.65,2.65,0,0,1-.75-2.5,2.56,2.56,0,0,1,1-1.59,2.53,2.53,0,0,1,3.32.29,2.68,2.68,0,0,1,.68,1.22,2.56,2.56,0,0,1,0,1.4A2.59,2.59,0,0,1,17,9l1,.57a.5.5,0,0,1,.22.53.47.47,0,0,1-.36.4.58.58,0,0,1-.46-.08,5.7,5.7,0,0,0-.92-.47,3.65,3.65,0,0,0-3.82.84.3.3,0,0,0-.08.16,2.64,2.64,0,0,1-.75,1.56l0,0c.32.19.64.36.95.56a.52.52,0,0,1-.52.89,6.38,6.38,0,0,0-.67-.38,3.89,3.89,0,0,0-5.23,2.27.53.53,0,0,0,.53.77h4.29a.51.51,0,0,1,.53.37.48.48,0,0,1-.46.64H6.73a1.41,1.41,0,0,1-1.3-.83,3.67,3.67,0,0,1-.17-.5Zm10-10.49a1.61,1.61,0,1,0,1.56,1.62A1.61,1.61,0,0,0,15.28,5.44ZM11.6,10.6A1.57,1.57,0,1,0,10,12.21,1.59,1.59,0,0,0,11.6,10.6Z"/><path class="cls-1" d="M20,12.83a4,4,0,0,1-.17.49,1.39,1.39,0,0,1-1.3.83H14a.48.48,0,0,1-.45-.65.5.5,0,0,1,.52-.36H18.4a.53.53,0,0,0,.53-.77,3.9,3.9,0,0,0-5.23-2.28c-.23.1-.45.26-.67.38a.51.51,0,0,1-.75-.32.52.52,0,0,1,.23-.57c.31-.19.63-.37,1-.55l0-.06a2.61,2.61,0,0,1-.75-1.56.35.35,0,0,0-.07-.15,3.66,3.66,0,0,0-3.82-.84,4.78,4.78,0,0,0-.93.47A.58.58,0,0,1,7.39,7,.49.49,0,0,1,7,6.56.47.47,0,0,1,7.26,6c.31-.2.64-.38,1-.57a2.59,2.59,0,0,1-.71-1.18,2.68,2.68,0,0,1,.65-2.63A2.58,2.58,0,0,1,12.51,3a2.66,2.66,0,0,1-.75,2.5l1.08.6a2.56,2.56,0,0,1,3.67-1.28,2.51,2.51,0,0,1,1.25,1.75A2.67,2.67,0,0,1,17,9l.14.06a4.83,4.83,0,0,1,2.41,2.16A4.39,4.39,0,0,1,20,12.41ZM8.42,3.54A1.57,1.57,0,1,0,10,1.93,1.6,1.6,0,0,0,8.42,3.54ZM15.23,8.7a1.61,1.61,0,1,0-1.57-1.62A1.62,1.62,0,0,0,15.23,8.7Z"/></svg>