<?xml version="1.0" encoding="utf-8"?>
<!-- Generator: Adobe Illustrator 25.3.0, SVG Export Plug-In . SVG Version: 6.00 Build 0)  -->
<svg version="1.1" id="Layer_1" xmlns="http://www.w3.org/2000/svg" xmlns:xlink="http://www.w3.org/1999/xlink" x="0px" y="0px"
	 viewBox="0 0 24 24" style="enable-background:new 0 0 24 24;" xml:space="preserve">
<style type="text/css">
	.st0{fill-rule:evenodd;clip-rule:evenodd;fill:#02539F;}
</style>
<path id="trash" class="st0" d="M19.8,5.7H4.2C4,5.7,3.8,5.4,3.8,5.2c0,0,0,0,0,0V4.1c0-0.8,0.6-1.4,1.4-1.4c0,0,0,0,0,0h2.5V2.6
	C7.7,1.2,8.8,0,10.2,0h3.5c1.4,0,2.6,1.2,2.5,2.6v0.1h2.5c0.8,0,1.4,0.6,1.4,1.4c0,0,0,0,0,0v1.1C20.2,5.4,20,5.7,19.8,5.7
	C19.8,5.7,19.8,5.7,19.8,5.7z M14.9,2.6c0-0.6-0.5-1.2-1.2-1.2h-3.5c-0.6,0-1.2,0.5-1.2,1.2v0.1h5.8L14.9,2.6L14.9,2.6z M18.5,23.3
	c0,0.4-0.3,0.7-0.7,0.7H6.2c-0.4,0-0.7-0.3-0.7-0.7L4.4,7.1h15.3L18.5,23.3z M9.5,9.9c0-0.4-0.3-0.7-0.7-0.7C8.3,9.2,8,9.5,8.1,9.9
	l0.5,11c0,0.4,0.3,0.7,0.7,0.7c0,0,0,0,0,0c0.4,0,0.7-0.3,0.7-0.7L9.5,9.9z M12.7,9.9c0-0.4-0.3-0.7-0.7-0.7c-0.4,0-0.7,0.3-0.7,0.7
	c0,0,0,0,0,0v11c0,0.4,0.3,0.7,0.7,0.7c0.4,0,0.7-0.3,0.7-0.7c0,0,0,0,0,0V9.9L12.7,9.9z M15.3,9.2c-0.4,0-0.7,0.3-0.7,0.7
	c0,0,0,0,0,0l-0.5,11c0,0.4,0.3,0.7,0.7,0.7h0c0.4,0,0.7-0.3,0.7-0.7l0.5-11C16,9.5,15.7,9.2,15.3,9.2L15.3,9.2z"/>
</svg>
