<svg id="Layer_1" data-name="Layer 1" xmlns="http://www.w3.org/2000/svg" viewBox="0 0 20 20"><defs><style>.cls-1{fill:#28a3b3;}</style></defs><path class="cls-1" d="M11.39.34a.45.45,0,0,1,.23.44c0,.17,0,.34,0,.51s0,.17.16.2a8.55,8.55,0,0,1,6.32,5.32,8.7,8.7,0,0,1-4.23,11c-.26.12-.39.09-.54-.15-.33-.5-.66-1-1-1.52a.33.33,0,0,1,.16-.55A6,6,0,0,0,16,11.08a6.1,6.1,0,0,0-4.35-6.95h-.06a1.53,1.53,0,0,1,0,.37.68.68,0,0,1-.18.32c-.11.09-.25,0-.37,0L8.55,2.89c-.24-.18-.23-.41,0-.6L11.17.34ZM9.25,2.6l1.69,1.27a1.76,1.76,0,0,0,0-.19.33.33,0,0,1,.42-.3,6.78,6.78,0,0,1,5.29,7.82A6.64,6.64,0,0,1,13.21,16l-.15.09.69,1.08.16-.08A8.06,8.06,0,0,0,15.17,3.86a7.84,7.84,0,0,0-3.83-1.79c-.29,0-.38-.15-.38-.44,0-.09,0-.18,0-.3Z"/><path class="cls-1" d="M8.38,15.92c0-.14,0-.27,0-.39a.32.32,0,0,1,.53-.27c.86.64,1.71,1.27,2.56,1.92a.31.31,0,0,1,0,.54c-.84.64-1.69,1.28-2.54,1.9a.38.38,0,0,1-.34,0,.45.45,0,0,1-.2-.31c0-.24,0-.5,0-.73-.45-.14-.9-.24-1.33-.41a8.59,8.59,0,0,1-5.59-6.54A8.63,8.63,0,0,1,5.93,2.31c.29-.15.42-.12.6.15l1,1.45c.19.27.14.44-.15.59A6,6,0,0,0,4,8.94a6.12,6.12,0,0,0,4.34,7Zm.67.25c0,.09,0,.14,0,.19a.33.33,0,0,1-.43.3A6.77,6.77,0,0,1,3.28,9.1a6.68,6.68,0,0,1,3.36-5L6.79,4,6.08,3l-.27.16a8,8,0,0,0-3.76,8.18,8,8,0,0,0,4.12,5.8A7.78,7.78,0,0,0,8.65,18c.3.05.38.15.38.46v.3l1.71-1.28Z"/><path class="cls-1" d="M10,5.83A4.2,4.2,0,1,1,5.8,10,4.18,4.18,0,0,1,10,5.83Zm0,7.74A3.55,3.55,0,1,0,6.45,10,3.57,3.57,0,0,0,10,13.57Z"/><path class="cls-1" d="M9.66,7.12h.67a4,4,0,0,1,0,.49.22.22,0,0,0,.17.26,1.22,1.22,0,0,1,.78,1.18h-.62a1.74,1.74,0,0,0-.05-.22.65.65,0,0,0-1.25.27.63.63,0,0,0,.59.59,1.36,1.36,0,0,1,1.11.55,1.28,1.28,0,0,1-.58,1.94.21.21,0,0,0-.15.22c0,.17,0,.34,0,.52H9.66c0-.15,0-.31,0-.46a.24.24,0,0,0-.19-.29A1.22,1.22,0,0,1,8.72,11h.62c0,.06,0,.12,0,.18a.63.63,0,0,0,.74.44.65.65,0,0,0,.52-.65.63.63,0,0,0-.61-.61,1.32,1.32,0,0,1-1.28-1,1.29,1.29,0,0,1,.77-1.54.19.19,0,0,0,.15-.21C9.66,7.48,9.66,7.31,9.66,7.12Z"/></svg>