<svg id="Layer_1" data-name="Layer 1" xmlns="http://www.w3.org/2000/svg" viewBox="0 0 20 20"><defs><style>.cls-1,.cls-2{fill:#02539f;}.cls-2{stroke:#02539f;stroke-miterlimit:10;stroke-width:0.5px;}</style></defs><path class="cls-1" d="M10.63,1.24l.92.13a8.85,8.85,0,0,1,4.62,2.34l.17.16c0-.37,0-.69,0-1a.55.55,0,0,1,.84-.44.52.52,0,0,1,.27.47c0,.84,0,1.69,0,2.53a.55.55,0,0,1-.56.55h-2.5a.56.56,0,0,1,0-1.12h1.34a.79.79,0,0,0-.12-.13,7.62,7.62,0,0,0-4.54-2.3,7.81,7.81,0,1,0,6.5,9.69,8.5,8.5,0,0,0,.25-1.88A.56.56,0,0,1,18.9,10l0,0v.77l0,.15c0,.3-.06.6-.12.89a8.73,8.73,0,0,1-3.31,5.38,8.66,8.66,0,0,1-7.13,1.71,8.45,8.45,0,0,1-4.87-2.7,8.75,8.75,0,0,1-2.3-7.3A8.55,8.55,0,0,1,3.22,4.36a8.78,8.78,0,0,1,5.23-3l.92-.13Z"/><path class="cls-2" d="M10,5.16a5,5,0,1,1-5,5A5,5,0,0,1,10,5.16Zm0,9.24a4.24,4.24,0,1,0-4.24-4.23A4.25,4.25,0,0,0,10,14.4Z"/><path class="cls-2" d="M9.66,7.26h.66c0,.17,0,.33,0,.49a.22.22,0,0,0,.17.26,1.24,1.24,0,0,1,.78,1.18h-.62A1.66,1.66,0,0,0,10.59,9a.64.64,0,0,0-1.24.26.62.62,0,0,0,.58.59,1.33,1.33,0,0,1,1.11.55,1.29,1.29,0,0,1-.57,1.95c-.12,0-.16.09-.15.21s0,.34,0,.52H9.66c0-.15,0-.31,0-.46a.24.24,0,0,0-.18-.29,1.21,1.21,0,0,1-.76-1.17h.61c0,.06,0,.12.05.18a.64.64,0,0,0,1.25-.21.62.62,0,0,0-.6-.61,1.31,1.31,0,0,1-1.28-1A1.26,1.26,0,0,1,9.51,8c.12,0,.16-.1.15-.22S9.66,7.45,9.66,7.26Z"/></svg>