<svg xmlns="http://www.w3.org/2000/svg" width="31.31" height="31" viewBox="0 0 31.31 31">
  <defs>
    <style>
      .cls-1 {
        fill: #9d9d9d;
        fill-rule: evenodd;
      }
    </style>
  </defs>
  <path id="Twitter" class="cls-1" d="M2467.97,1339.17a13.29,13.29,0,0,1-3.69.97,6.218,6.218,0,0,0,2.83-3.41,13.207,13.207,0,0,1-4.08,1.49,6.567,6.567,0,0,0-4.69-1.94,6.293,6.293,0,0,0-6.42,6.16,5.978,5.978,0,0,0,.16,1.41,18.51,18.51,0,0,1-13.24-6.44,5.941,5.941,0,0,0-.87,3.09,6.131,6.131,0,0,0,2.86,5.14,6.764,6.764,0,0,1-2.91-.77v0.07a6.24,6.24,0,0,0,5.15,6.05,6.689,6.689,0,0,1-1.69.21,6.054,6.054,0,0,1-1.21-.11,6.412,6.412,0,0,0,6,4.29,13.268,13.268,0,0,1-7.98,2.64,13.084,13.084,0,0,1-1.53-.09,18.756,18.756,0,0,0,9.85,2.77,17.783,17.783,0,0,0,18.28-17.54c0-.27-0.01-0.54-0.02-0.8A12.932,12.932,0,0,0,2467.97,1339.17Z" transform="translate(-2436.66 -1332.985)"/>
</svg>
