<svg xmlns="http://www.w3.org/2000/svg" width="20" height="20" viewBox="0 0 20 20">
  <defs>
    <style>
      .cls-1 {
        fill: #8c8c8c;
        fill-rule: evenodd;
      }
    </style>
  </defs>
  <path id="unfreeze" class="cls-1" d="M1046.5,190.833a1.564,1.564,0,0,0-.75.191v-0.191a1.459,1.459,0,0,0-1.5-1.416,1.564,1.564,0,0,0-.75.19v-0.19a1.5,1.5,0,0,0-3,0v0.19a1.564,1.564,0,0,0-.75-0.19,1.459,1.459,0,0,0-1.5,1.416v3.9a1.925,1.925,0,0,0-1.13-.355,1.092,1.092,0,0,0-1.12,1.062v3.2a6.123,6.123,0,0,0,1.96,4.469l1.24,1.172a2.722,2.722,0,0,0,1.86.726h2.81a4.02,4.02,0,0,0,4.13-3.9V192.25A1.46,1.46,0,0,0,1046.5,190.833Zm0.75,10.271a3.289,3.289,0,0,1-3.38,3.188h-2.81a1.946,1.946,0,0,1-1.33-.52l-1.24-1.171a5.433,5.433,0,0,1-1.74-3.968v-3.2a0.365,0.365,0,0,1,.37-0.354,1.1,1.1,0,0,1,1.13,1.063v2.125a0.376,0.376,0,0,0,.75,0v-7.438a0.751,0.751,0,0,1,1.5,0v4.6a0.376,0.376,0,0,0,.75,0v-6.02a0.751,0.751,0,0,1,1.5,0v6.02a0.376,0.376,0,0,0,.75,0v-4.6a0.751,0.751,0,0,1,1.5,0v4.6a0.376,0.376,0,0,0,.75,0V192.25a0.751,0.751,0,0,1,1.5,0V201.1Z" transform="translate(-1032 -186.5)"/>
</svg>
