<svg xmlns="http://www.w3.org/2000/svg" width="20" height="20" viewBox="0 0 20 20">
  <defs>
    <style>
      .cls-1 {
        fill: #8c8c8c;
        fill-rule: evenodd;
      }
    </style>
  </defs>
  <path id="hold" class="cls-1" d="M588.5,239.833a1.559,1.559,0,0,0-.75.191v-0.191a1.461,1.461,0,0,0-1.5-1.416,1.558,1.558,0,0,0-.75.19v-0.19a1.5,1.5,0,0,0-3,0v0.19a1.558,1.558,0,0,0-.75-0.19,1.461,1.461,0,0,0-1.5,1.416v3.9a1.937,1.937,0,0,0-1.125-.355A1.1,1.1,0,0,0,578,244.438v3.2a6.108,6.108,0,0,0,1.96,4.469l1.24,1.172a2.727,2.727,0,0,0,1.856.726h2.819A4.02,4.02,0,0,0,590,250.1V241.25A1.462,1.462,0,0,0,588.5,239.833Zm0.75,10.271a3.29,3.29,0,0,1-3.375,3.188h-2.819a1.947,1.947,0,0,1-1.326-.52l-1.24-1.171a5.425,5.425,0,0,1-1.74-3.968v-3.2a0.366,0.366,0,0,1,.375-0.354,1.1,1.1,0,0,1,1.125,1.063v2.125a0.376,0.376,0,0,0,.75,0v-7.438a0.751,0.751,0,0,1,1.5,0v4.6a0.376,0.376,0,0,0,.75,0v-6.02a0.751,0.751,0,0,1,1.5,0v6.02a0.376,0.376,0,0,0,.75,0v-4.6a0.751,0.751,0,0,1,1.5,0v4.6a0.376,0.376,0,0,0,.75,0V241.25a0.751,0.751,0,0,1,1.5,0V250.1Z" transform="translate(-574 -235.5)"/>
</svg>
