<?xml version="1.0" encoding="utf-8"?>
<!-- Generator: Adobe Illustrator 25.3.0, SVG Export Plug-In . SVG Version: 6.00 Build 0)  -->
<svg version="1.1" id="Layer_1" xmlns="http://www.w3.org/2000/svg" xmlns:xlink="http://www.w3.org/1999/xlink" x="0px" y="0px"
	 viewBox="0 0 18.9 22.2" style="enable-background:new 0 0 18.9 22.2;" xml:space="preserve">
<style type="text/css">
	.st0{fill-rule:evenodd;clip-rule:evenodd;fill:#02539F;}
</style>
<g id="Layer_2_1_">
	<g id="Layer_1-2">
		<path class="st0" d="M18.6,21.9c-0.2,0.2-0.4,0.3-0.7,0.3h-17c-0.2,0-0.5-0.1-0.7-0.3C0.1,21.7,0,21.5,0,21.2v-0.9
			c0-1.4,0.5-2.8,1.4-3.9c0.9-1.1,2.2-1.9,3.6-2.3c0.2-0.1,0.4-0.2,0.5-0.3c0.1-0.2,0.2-0.3,0.2-0.6v-0.9l-1-1
			c-0.3-0.2-0.5-0.6-0.7-0.9C3.9,10,3.8,9.7,3.8,9.3V5.5c0-1.4,0.6-2.8,1.6-3.8c1-1,2.4-1.6,3.8-1.7c0.8,0,1.5,0.1,2.2,0.4
			c0.7,0.3,1.4,0.7,1.9,1.2c0.5,0.5,1,1.2,1.3,1.9c0.3,0.7,0.5,1.4,0.4,2.2v3.6c0,0.4-0.1,0.7-0.2,1.1c-0.1,0.3-0.4,0.6-0.6,0.9
			l-1,1v0.9c0,0.2,0.1,0.4,0.2,0.6c0.1,0.2,0.3,0.3,0.5,0.3c1.4,0.3,2.7,1.1,3.6,2.3c0.9,1.1,1.4,2.5,1.4,3.9v0.9
			C18.9,21.5,18.8,21.7,18.6,21.9z M16,17.5c-0.6-0.8-1.5-1.4-2.5-1.6c-0.6-0.2-1.1-0.5-1.5-1c-0.4-0.5-0.6-1.1-0.6-1.7v-1.3
			c0-0.2,0.1-0.5,0.3-0.7l1.3-1.3c0.1-0.1,0.2-0.2,0.2-0.3c0-0.1,0.1-0.2,0.1-0.4V5.7c0-1-0.4-2-1.1-2.7c-0.7-0.7-1.7-1.1-2.8-1.1
			c-1,0-1.9,0.4-2.6,1.1C6.1,3.7,5.7,4.6,5.7,5.5v3.8c0,0.1,0,0.2,0.1,0.3c0,0.1,0.1,0.2,0.2,0.3l1.3,1.3c0.2,0.2,0.3,0.4,0.3,0.7
			v1.3c0,0.6-0.2,1.2-0.6,1.7c-0.4,0.5-0.9,0.9-1.5,1c-1,0.2-1.9,0.8-2.5,1.6c-0.6,0.8-1,1.8-1,2.8H17C17,19.3,16.6,18.3,16,17.5z"
			/>
	</g>
</g>
</svg>
