<?xml version="1.0" encoding="utf-8"?>
<!-- Generator: Adobe Illustrator 25.3.0, SVG Export Plug-In . SVG Version: 6.00 Build 0)  -->
<svg version="1.1" id="Layer_1" xmlns="http://www.w3.org/2000/svg" xmlns:xlink="http://www.w3.org/1999/xlink" x="0px" y="0px"
	 viewBox="0 0 19 18" style="enable-background:new 0 0 19 18;" xml:space="preserve">
<style type="text/css">
	.st0{fill-rule:evenodd;clip-rule:evenodd;fill:#02539F;}
</style>
<path id="Shape_44_1" class="st0" d="M0.1,10.3c-0.1,0.3-0.1,0.6,0,0.8c0.2,0.7,0.6,1.2,1.1,1.7c0.2,0.1,0.3,0.2,0.5,0.3
	c0.3,0.1,0.5,0.1,0.8,0.1c0.6,0,1.1,0.1,1.7,0.1c0.3,0,0.5,0,0.8,0c0.1,0,0.1,0,0.2,0c0.1,0,0.1-0.1,0.2-0.1c0,0,0-0.1,0.1-0.1
	c0.2-0.3,0.4-0.7,0.6-1c0.2-0.2,0.3-0.4,0.4-0.6c0.1-0.1,0-0.2-0.1-0.2c0,0-0.1,0-0.2,0c-0.2,0-0.3-0.1-0.5-0.1
	c-0.1,0-0.1-0.1-0.2-0.1c-0.2-0.1-0.3-0.2-0.3-0.4c0,0,0-0.1,0-0.1c0-0.1-0.1-0.1-0.1-0.2c-0.1-0.1-0.2-0.2-0.2-0.2
	C4.7,10,4.6,9.9,4.6,9.7C4.5,9.4,4.5,9,4.6,8.6c0-0.2,0.1-0.3,0.3-0.5C5,8.1,5.1,8,5.3,7.9c0.3-0.2,0.6-0.4,1-0.7c0,0,0.1-0.1,0-0.1
	C6.2,6.9,6.1,6.6,6.1,6.4C6,6.3,6,6.2,5.9,6.2C5.6,5.9,5.1,5.9,4.7,6c0,0-0.1,0-0.1,0C4.2,6.2,3.8,6.2,3.4,6.3c-0.2,0-0.3,0-0.5,0.1
	C2.8,6.4,2.8,6.4,2.8,6.6c0,0,0,0,0,0.1c0,0-0.1,0.1-0.1,0.1c0,0-0.1,0-0.1,0c-0.1,0-0.1-0.1-0.2-0.1c-0.1,0-0.2,0-0.3,0
	C2.1,6.6,2,6.6,1.9,6.7C1.6,6.9,1.3,7.1,1,7.3C0.7,7.6,0.5,7.8,0.3,8.1C0.2,8.2,0.2,8.3,0.1,8.4c0,0.1,0,0.2,0,0.3
	c0,0.1,0.1,0.3,0.1,0.4c0.1,0.2,0.1,0.4,0,0.5C0.2,9.9,0.1,10.1,0.1,10.3z M2.6,4.1c0.1,0.4,0.3,0.7,0.5,1c0.2,0.2,0.3,0.4,0.5,0.6
	c0,0.1,0.1,0.1,0.2,0.2c0,0,0.1,0.1,0.1,0c0.1,0,0.2,0,0.3-0.1c0.1,0,0.3-0.1,0.4-0.1c0.3-0.1,0.6-0.1,0.9-0.1
	c0.2,0,0.3,0.1,0.5,0.2c0,0,0,0,0.1,0c0,0,0,0,0,0c0-0.1,0.1-0.1,0.1-0.2C6.2,5.3,6.4,5,6.6,4.6C6.7,4.4,6.8,4.2,7,4.1
	C7.1,4,7.1,3.9,7.2,3.9C7.8,3.8,8.4,3.8,9,4C9.1,4,9.3,4.1,9.4,4.2c0,0,0.1,0,0.1,0c0,0,0,0,0,0l0-0.6h0c0-0.1,0-0.2,0-0.3
	c0-0.3-0.1-0.6-0.2-0.8C9.2,2.2,9.2,2,9.1,1.8c0-0.1,0-0.1,0-0.2C9,1.3,8.9,1,8.6,0.8C8.4,0.6,8.3,0.5,8.1,0.4
	C8,0.3,7.9,0.3,7.8,0.3c-0.1,0-0.3,0-0.4,0c-0.1,0-0.3,0-0.4,0c-0.2,0-0.5,0-0.7-0.1c0,0-0.1,0-0.1,0C6,0.3,5.9,0.3,5.8,0.2
	c-0.1,0-0.2-0.1-0.3-0.1c-0.5,0-1,0-1.4,0c-0.1,0-0.2,0-0.3,0c-0.1,0-0.2,0.1-0.2,0.2c0,0.1-0.1,0.2-0.2,0.3C3.3,0.8,3.3,0.9,3.3,1
	c0,0.2-0.2,0.3-0.3,0.4L2.8,1.5C2.6,1.6,2.4,1.8,2.4,2.1c0,0.2-0.1,0.4-0.1,0.6C2.4,3.1,2.4,3.6,2.6,4.1z M8.7,4.1
	C8.2,4,7.8,4,7.3,4.1c-0.1,0-0.1,0.1-0.2,0.1C7,4.4,7,4.5,6.9,4.6C6.7,5,6.5,5.4,6.3,5.7c0,0.1-0.1,0.2-0.1,0.4
	c0,0.3,0.1,0.6,0.3,0.9c0,0.1,0.1,0.1,0.2,0.2c0.1,0.1,0.2,0.2,0.4,0.2c0.3,0.1,0.6,0.3,0.8,0.5c0,0,0.1,0,0.2,0c0,0,0,0,0,0
	c0.1-0.1,0.2-0.1,0.2-0.2c0-0.1,0.1-0.2,0.1-0.2c0-0.1,0.1-0.2,0.2-0.1c0.1,0,0.1,0.1,0.2,0.2c0.1,0,0.1,0,0.2,0c0,0,0.1,0,0.1-0.1
	c0,0,0,0,0-0.1c0-0.1,0.1-0.2,0.2-0.3C9.4,7,9.5,6.9,9.7,6.9c0,0,0.1,0,0.1-0.1c0,0,0,0,0,0c0-0.1,0-0.1-0.1-0.2
	c-0.1-0.2-0.1-0.5,0-0.7c0-0.1,0.1-0.2,0.1-0.3c0-0.1,0-0.1,0-0.2c0-0.1,0-0.3-0.1-0.4c0-0.1-0.1-0.1-0.1-0.2
	C9.5,4.7,9.4,4.6,9.4,4.5C9.2,4.3,9,4.2,8.7,4.1L8.7,4.1z M10.1,4.9c0.3-0.2,0.5-0.4,0.8-0.6C11,4.2,11.2,4.1,11.3,4
	C11.5,4,11.6,4,11.7,4c0.2,0,0.3,0,0.5,0c0.1,0,0.3,0.1,0.4,0.2c0.1,0.1,0.3,0.3,0.4,0.3c0.1,0,0.1,0.1,0.2,0.2
	c0.1,0.1,0.3,0.3,0.3,0.4c0.1,0.2,0.1,0.4,0.2,0.7c0,0.1,0,0.3,0,0.4c0,0.1-0.1,0.3-0.1,0.4c0,0,0,0,0,0c0,0,0.1,0,0.1,0
	c0.3-0.1,0.7-0.2,1-0.2c0.3,0,0.5,0,0.7-0.2C15.8,6,16,5.7,16.2,5.4c0.2-0.4,0.3-0.8,0.4-1.2c0-0.2,0.1-0.3,0.1-0.5
	c0-0.3-0.1-0.7-0.2-1c-0.2-0.3-0.4-0.7-0.6-1c-0.1-0.2-0.2-0.3-0.3-0.5c0-0.1-0.1-0.1-0.2-0.2c-0.1-0.1-0.1-0.1-0.2-0.1
	c0,0-0.1,0-0.1,0c-0.1,0-0.2-0.1-0.3-0.2c-0.1-0.1-0.3-0.2-0.4-0.3c-0.1,0-0.1,0-0.2,0c-0.1,0-0.2,0-0.3,0c-0.2,0-0.4,0-0.6-0.1
	c-0.1,0-0.1-0.1-0.2-0.1c-0.3-0.2-0.6-0.2-0.9-0.1c-0.1,0-0.2,0.1-0.4,0.1c-0.4,0.2-0.8,0.4-1.1,0.6c-0.1,0-0.1,0.1-0.2,0.1
	c-0.2,0.1-0.3,0.3-0.3,0.5C10,1.6,10,1.8,10,2.1C9.9,2.5,9.9,2.9,9.8,3.3c0,0.3-0.1,0.5-0.1,0.8c0,0.1,0,0.1,0,0.2
	C9.7,4.5,9.8,4.7,10.1,4.9C10,4.9,10,4.9,10.1,4.9L10.1,4.9z M14.7,6.5c-0.2,0-0.4,0-0.6,0.1c0,0-0.1,0-0.1,0.1
	c-0.1,0.1-0.3,0.1-0.4,0.2c-0.1,0.1-0.2,0.2-0.2,0.3c-0.2,0.2-0.3,0.4-0.5,0.6c0,0-0.1,0.1-0.1,0.1c0,0,0.1,0,0.1,0
	c0.2,0,0.4,0.1,0.5,0.2c0.2,0.1,0.3,0.3,0.5,0.4c0.2,0.2,0.3,0.5,0.3,0.8c0,0.2,0,0.5,0,0.7c0,0.2,0,0.3-0.1,0.4
	c0,0.1-0.1,0.1-0.1,0.2c0,0.1-0.1,0.3-0.3,0.3c-0.1,0.1-0.2,0.2-0.3,0.3c-0.1,0.2-0.3,0.3-0.5,0.4c-0.1,0-0.2,0-0.3,0
	c-0.1,0-0.2,0-0.3,0c-0.3,0-0.4,0-0.2,0.3c0.1,0.2,0.3,0.4,0.5,0.6c0.1,0.1,0.2,0.2,0.2,0.2l0.2,0.2c0.3,0.3,0.7,0.5,1.2,0.6
	c0.5,0,1.1,0.1,1.6,0.1c0.2,0,0.4,0,0.6,0c0.3,0,0.6-0.1,0.9-0.2c0.1-0.1,0.3-0.2,0.4-0.2c0.1,0,0.2-0.1,0.3-0.2
	c0.2-0.1,0.3-0.3,0.3-0.5c0.1-0.3,0.2-0.6,0.4-0.9c0.1-0.2,0.3-0.5,0.3-0.7c0.1-0.2,0.1-0.5,0-0.7c-0.1-0.3-0.1-0.6-0.2-0.9
	c0-0.1-0.1-0.3-0.1-0.4c-0.1-0.1-0.1-0.3-0.2-0.4c-0.3-0.3-0.6-0.6-0.9-0.9c-0.2-0.2-0.3-0.3-0.5-0.4c-0.6-0.3-1.1-0.5-1.7-0.6
	C15.1,6.6,14.9,6.6,14.7,6.5L14.7,6.5z M9,8C8.9,7.9,8.8,7.9,8.7,7.9C8.4,7.9,8.2,8,8.1,8.2c0,0,0,0.1,0,0.1c0,0,0.1,0.1,0.1,0.1
	c0,0,0.1,0.1,0.2,0l0,0C8.6,8.3,8.8,8.3,9,8.2c0,0,0.1,0,0.1-0.1C9.1,8.1,9.1,8.1,9,8C9.1,8,9.1,8,9,8z M9,8.7C9,8.7,9,8.7,9,8.7
	c-0.1-0.1-0.2-0.1-0.3,0c-0.1,0-0.1,0.1-0.1,0.1c0,0.1-0.1,0.2-0.1,0.3c0,0.1,0,0.3,0.2,0.3c0,0,0.1,0,0.1,0C8.9,9.3,9,9.1,9,9
	L9,8.7C9,8.8,9,8.7,9,8.7L9,8.7z M9.1,9.8C9.1,9.8,9.1,9.8,9.1,9.8C9,9.7,9,9.8,9,9.8s0,0.1,0,0.1s0,0.1-0.1,0.2c0,0,0,0.1,0,0.1
	c-0.1,0.2-0.2,0.4-0.4,0.6c-0.1,0-0.1,0.1-0.1,0.2c0,0.1,0,0.1,0,0.2c0,0.1,0,0.2,0.1,0.3c0.1,0.3,0.2,0.7,0.4,1c0,0,0,0,0,0.1
	c0.1,0.1,0.2,0.2,0.3,0.2c0.1,0,0.2,0.1,0.3,0.1c0.1,0.1,0.2,0.1,0.2,0.2c0,0,0.1,0,0.1,0c0.2-0.1,0.4-0.2,0.6-0.4
	c0,0,0.1-0.1,0.1-0.1c0,0,0.1-0.1,0.1-0.1c0.2-0.1,0.3-0.1,0.5-0.2c0,0,0.1-0.1,0.1-0.1c0.2-0.2,0.2-0.4,0.1-0.7
	c-0.1-0.2-0.1-0.5-0.2-0.7c0-0.1-0.1-0.2-0.1-0.3c-0.2-0.4-0.4-0.7-0.7-1.1c0,0,0,0,0,0c0,0-0.1,0-0.1,0c0,0-0.1,0.1-0.1,0.1
	c0,0,0,0.1,0,0.1c0,0.2-0.1,0.4-0.3,0.4c-0.1,0.1-0.3,0-0.4-0.1C9.2,10,9.1,9.9,9.1,9.8L9.1,9.8z M9.6,9.1C9.6,9.1,9.6,9.1,9.6,9.1
	c-0.1-0.1-0.1,0-0.1,0C9.4,9.3,9.4,9.6,9.4,9.8c0,0,0,0.1,0.1,0.1c0.1,0.1,0.1,0.1,0.2,0c0,0,0,0,0,0c0,0,0.1-0.1,0-0.1c0,0,0,0,0,0
	c0,0,0,0,0,0c-0.1,0-0.1-0.1-0.1-0.2c0-0.1,0-0.2,0.1-0.4C9.6,9.2,9.6,9.2,9.6,9.1L9.6,9.1z M9.4,8.7c0,0.1,0.1,0.2,0.2,0.2
	c0,0,0.1,0,0.2,0c0.1,0,0.1,0,0.2,0c0.1,0,0.1-0.1,0.1-0.1c0-0.1,0-0.1-0.1-0.2C9.9,8.4,9.6,8.4,9.4,8.5C9.4,8.5,9.3,8.6,9.4,8.7
	C9.4,8.7,9.4,8.7,9.4,8.7L9.4,8.7z M9.7,7.7C9.7,7.7,9.6,7.7,9.7,7.7C9.5,7.9,9.5,8,9.4,8.1c0,0,0,0,0,0c0,0,0,0,0.1,0
	c0.1,0,0.2-0.2,0.2-0.3C9.7,7.8,9.7,7.8,9.7,7.7C9.7,7.8,9.7,7.7,9.7,7.7L9.7,7.7z M9.7,7.1c-0.1,0-0.2,0.1-0.3,0.2c0,0,0,0,0,0.1
	c0,0,0.1,0,0.1,0.1c0.1,0,0.1,0,0.2,0c0.1,0,0.1,0,0.2,0c0,0,0,0,0.1,0C10,7.3,9.9,7.2,9.7,7.1C9.8,7.1,9.7,7.1,9.7,7.1L9.7,7.1z
	 M12.9,7.3c0.3-0.3,0.5-0.7,0.5-1.1c0-0.1,0-0.1,0-0.2c0-0.1,0-0.3,0-0.4c0-0.2-0.1-0.3-0.1-0.5c0-0.1-0.1-0.3-0.3-0.4
	c-0.1-0.1-0.1-0.1-0.2-0.1c-0.2-0.1-0.3-0.2-0.4-0.3c-0.1-0.1-0.2-0.1-0.3-0.1c0,0,0,0-0.1,0c-0.4,0-0.8,0.1-1.1,0.3
	c-0.2,0.1-0.4,0.3-0.6,0.4c-0.2,0.1-0.3,0.3-0.4,0.5C10,5.6,9.9,5.9,10,6.2c0,0.2,0,0.5,0.1,0.7c0,0.2,0.2,0.3,0.2,0.4
	c0,0,0.1,0.1,0.1,0.1c0.1,0,0.1,0.1,0.2,0.1c0,0.1,0.1,0.1,0.1,0.2c0,0.1,0.1,0.1,0.2,0.2c0.1,0,0.2,0.1,0.3,0.2
	c0.1,0.1,0.2,0.1,0.3,0C11.6,8,11.9,8,12.1,7.9c0.2,0,0.3-0.1,0.4-0.2c0.1-0.1,0.2-0.2,0.3-0.3C12.8,7.4,12.9,7.4,12.9,7.3L12.9,7.3
	z M10.5,8.4c0.1,0,0.1,0,0.1-0.1c0-0.1,0-0.1,0-0.2c-0.1-0.2-0.2-0.3-0.3-0.5c0,0-0.1,0-0.1,0c0,0,0,0,0,0.1c0,0,0,0.1,0,0.1
	c0,0.1,0,0.3,0.1,0.4C10.3,8.3,10.4,8.4,10.5,8.4L10.5,8.4z M10.7,9.3C10.8,9.3,10.8,9.3,10.7,9.3c0.1,0,0.1,0,0.2,0
	c0,0,0-0.1,0-0.1c0,0-0.1-0.1-0.1-0.1c-0.1-0.1-0.3-0.1-0.4-0.1c0,0-0.1,0-0.1,0.1c0,0,0,0,0,0.1C10.4,9.2,10.6,9.3,10.7,9.3
	L10.7,9.3z M13.7,8.7c-0.2-0.2-0.3-0.3-0.5-0.4c-0.1-0.1-0.3-0.1-0.4-0.1c-0.2,0-0.3,0-0.4,0.1c-0.2,0.1-0.4,0.1-0.6,0.1
	c-0.1,0-0.1,0-0.2,0c-0.2,0.1-0.3,0.1-0.5,0.1c0,0-0.1,0.1,0,0.1c0,0,0,0,0,0c0,0,0.1,0.1,0.1,0.1c0.1,0.1,0.1,0.1,0,0.2
	c0,0.1,0,0.2,0,0.3c0,0.2-0.1,0.3-0.3,0.3c-0.1,0-0.2,0-0.3,0c0,0,0,0,0,0.1c0,0,0,0,0,0.1c0.2,0.3,0.4,0.6,0.6,0.8
	c0.2,0.2,0.3,0.4,0.5,0.6c0.1,0.3,0.4,0.4,0.7,0.3h0.1c0.1,0,0.2,0,0.3,0c0.2,0,0.4-0.1,0.5-0.3c0.1-0.1,0.2-0.3,0.4-0.3
	c0.1,0,0.2-0.1,0.2-0.2c0-0.1,0-0.1,0.1-0.2c0.1-0.1,0.1-0.3,0.1-0.5c0-0.2,0-0.4,0-0.6C13.9,9.1,13.9,8.9,13.7,8.7L13.7,8.7z
	 M7.9,8.4c0-0.1-0.1-0.1-0.1-0.2C7.8,8.1,7.7,8,7.6,8C7.5,7.9,7.3,7.8,7.2,7.7C7,7.6,6.8,7.5,6.6,7.4c-0.1-0.1-0.2-0.1-0.3,0
	C6.3,7.5,6.2,7.5,6.1,7.6C5.8,7.8,5.6,7.9,5.3,8.1c0,0,0,0-0.1,0C5,8.3,4.9,8.6,4.8,8.9c0,0.3,0,0.5,0,0.8C4.8,9.8,4.9,9.9,5,10
	c0.1,0.1,0.1,0.1,0.2,0.2c0.1,0.1,0.2,0.2,0.2,0.4c0,0,0,0.1,0,0.1c0,0.1,0.1,0.2,0.2,0.2C5.8,11,6,11,6.2,11.1c0.1,0,0.2,0,0.3,0
	c0.3,0,0.6-0.1,0.9-0.2c0.2-0.1,0.4-0.2,0.6-0.2c0.1,0,0.1,0,0.2-0.1c0.1-0.1,0.2-0.2,0.3-0.3c0.1-0.2,0.1-0.4,0.2-0.5
	c0,0,0-0.1-0.1-0.1c0,0,0,0,0,0c0,0-0.1,0-0.1,0c0,0-0.1,0-0.1-0.1C8.3,9.5,8.3,9.3,8.2,9.1C8.2,9,8.2,9,8.1,9c0,0-0.1,0-0.1,0
	c0,0-0.1-0.1-0.1-0.1c0,0,0-0.1,0-0.1C7.9,8.6,7.9,8.5,7.9,8.4L7.9,8.4z M12.4,12.8c-0.1-0.1-0.3-0.3-0.4-0.5
	c-0.2-0.3-0.4-0.6-0.5-0.9c0-0.1-0.1-0.2-0.1-0.3c0,0,0,0,0,0c0,0,0,0,0,0c0,0.1,0,0.1,0.1,0.2c0.1,0.2,0.1,0.5,0,0.7
	c0,0.1-0.1,0.3-0.2,0.3c-0.4,0.3-0.8,0.6-1.2,0.8c-0.3,0.2-0.4,0.2-0.6,0c0,0-0.1-0.1-0.1-0.1C9.2,13.1,9.1,13.1,9,13
	c-0.2,0-0.4-0.2-0.5-0.3c-0.2-0.3-0.4-0.7-0.5-1.1c0-0.1,0-0.3,0-0.4c0,0,0-0.1,0-0.2C8,11,8,11,8,11c0,0,0,0,0,0
	c-0.1,0-0.1,0-0.2,0.1c-0.2,0.1-0.4,0.2-0.7,0.2c-0.1,0-0.1,0-0.2,0.1c0,0-0.1,0-0.1,0.1c0,0,0,0,0,0.1c-0.2,0.4-0.4,0.7-0.6,1
	c-0.2,0.2-0.4,0.5-0.5,0.8c-0.1,0.2-0.1,0.5-0.1,0.7c0,0.4,0.1,0.8,0.2,1.2c0,0.1,0.1,0.3,0.2,0.4c0.1,0.2,0.2,0.4,0.4,0.5
	c0.1,0.1,0.2,0.1,0.3,0.2c0.6,0.4,1.1,0.8,1.7,1.2c0.3,0.2,0.6,0.3,1,0.4c0.2,0.1,0.3,0.1,0.5,0c0.4-0.1,0.7-0.3,1.1-0.4
	c0.2-0.1,0.4-0.2,0.6-0.4c0.2-0.2,0.5-0.4,0.7-0.6c0.1-0.1,0.3-0.3,0.4-0.5c0.2-0.2,0.3-0.5,0.3-0.8c0.1-0.4,0.2-0.7,0.2-1.1
	c0-0.1,0-0.2,0-0.2c0-0.3-0.1-0.6-0.3-0.8C12.7,13.1,12.5,13,12.4,12.8L12.4,12.8z"/>
</svg>
