<svg xmlns="http://www.w3.org/2000/svg" width="60.003" height="60" viewBox="0 0 113 112.994">
  <defs>
    <style>
      .cls-1 {
        fill: #fff;
        fill-rule: evenodd;
      }
    </style>
  </defs>
  <path id="vehicle" class="cls-1" d="M1000.59,518.5H985.182V498H913.273A10.259,10.259,0,0,0,903,508.25v56.375h10.273a15.409,15.409,0,0,0,30.818,0h30.818a15.411,15.411,0,0,0,30.821,0H1016V539Zm-71.908,53.812a7.688,7.688,0,1,1,7.7-7.687A7.685,7.685,0,0,1,928.682,572.312Zm61.636,0a7.688,7.688,0,1,1,7.705-7.687A7.685,7.685,0,0,1,990.318,572.312ZM985.182,539V526.188h12.841L1008.12,539H985.182Z" transform="translate(-903 -482.503)"/>
</svg>
