<svg xmlns="http://www.w3.org/2000/svg" width="29.999" height="29.999" viewBox="0 0 28 28">
  <defs>
    <style>
      .cls-1 {
        fill: #6c9711;
        fill-rule: evenodd;
      }
    </style>
  </defs>
  <path id="Verified" class="cls-1" d="M14.955,29A14,14,0,1,1,29,15.047,13.988,13.988,0,0,1,14.955,29Zm6.828-16.86Q17.9,15.823,14,19.489a1.168,1.168,0,0,1-1.854-.031q-2-2.028-3.957-4.095A1.117,1.117,0,1,1,9.763,13.8c1,1.005,2.007,2.006,2.966,3.051,0.339,0.369.507,0.3,0.824,0,2.135-2.053,4.288-4.088,6.435-6.128a2.648,2.648,0,0,1,.743-0.56,1.086,1.086,0,0,1,1.548,1.022A1.228,1.228,0,0,1,21.782,12.14Z" transform="translate(-1 -1)"/>
</svg>
