<svg id="Layer_1" data-name="Layer 1" xmlns="http://www.w3.org/2000/svg" viewBox="0 0 20 20"><defs><style>.cls-1{fill:#02539f;}</style></defs><path class="cls-1" d="M17,13.52h.57V8.2c0-.33.08-.41.41-.41h.95c.27,0,.36.1.36.37v5.36h.26c.2,0,.32.11.32.28s-.11.29-.32.29H9.89c-.24,0-.34-.1-.34-.35V6.41c0-.19.08-.3.22-.33a.28.28,0,0,1,.35.31v7c0,.13,0,.17.16.16h.41V11c0-.26.1-.36.36-.36h1c.28,0,.37.09.37.37v2.48H13V9.33c0-.3.09-.39.39-.39h.94c.31,0,.4.08.4.39v4.18h.57V9.9c0-.3.09-.39.39-.39h1c.25,0,.35.1.35.35v3.66Zm1.16-5.15V13.5h.55V8.37Zm-4,5.14v-4h-.56v4Zm2.29,0V10.1h-.56v3.41Zm-4.58,0V11.24h-.56v2.27Z"/><path class="cls-1" d="M7,14.58H.21l0-.05c0-.59,0-1.18,0-1.77a1.29,1.29,0,0,1,.7-1.09l1.33-.76a.21.21,0,0,0,.12-.21,1.36,1.36,0,0,0-.16-.76,1.33,1.33,0,0,1-.14-.6c0-.5,0-1,0-1.5a1,1,0,0,1,1-1c.19,0,.38,0,.57,0s.24,0,.22-.19a.51.51,0,0,1,0-.13A1,1,0,0,1,5.14,7.6c0,.57,0,1.14,0,1.7a2,2,0,0,1-.25.87,2,2,0,0,0,0,.65s.07.06.12.09l1.25.72A1.4,1.4,0,0,1,7,13C7,13.5,7,14,7,14.58ZM4.69,11.47a3,3,0,0,1-.19.3,1.08,1.08,0,0,1-.24.28.85.85,0,0,0-.36.89c0,.33,0,.67,0,1H6.38V12.88A.74.74,0,0,0,6,12.22Zm-2.23,0-1.24.71a.67.67,0,0,0-.38.49c0,.42,0,.84,0,1.27H3.28c0-.52,0-1,0-1.51a.22.22,0,0,0-.06-.13Zm.6-2.86c-.23.19-.44.34-.41.7a1,1,0,0,0,.84.92.92.92,0,0,0,1-.75,3.54,3.54,0,0,0,0-.46c0-.1,0-.15-.13-.15H3.78A.79.79,0,0,1,3.06,8.63Zm-.38-.56c.25-.25.38-.23.6,0a.46.46,0,0,0,.27.15h1c0-.23,0-.45,0-.68a.75.75,0,0,0-.1-.32.2.2,0,0,0-.18,0,.61.61,0,0,1-.53.23H3a.34.34,0,0,0-.36.28A2,2,0,0,0,2.68,8.07Zm.92,3.77c.29-.32.64-.58.61-1.1a1.51,1.51,0,0,1-1.25,0A1.55,1.55,0,0,0,3.6,11.84Z"/><path class="cls-1" d="M13.51,1.43H3.74V5.22c0,.14,0,.29-.17.33a.59.59,0,0,1-.37,0C3.05,5.48,3,5.32,3,5.18v-4c0-.39.11-.5.5-.5H13.78a.5.5,0,0,1,.38.15c.88.9,1.78,1.78,2.66,2.68a.57.57,0,0,1,.16.37c0,.68,0,1.36,0,2,0,.23-.09.36-.27.39A.34.34,0,0,1,16.29,6V4.22H14c-.38,0-.48-.1-.48-.47,0-.69,0-1.39,0-2.08Zm.7,2.08h1.48L14.21,2Z"/><path class="cls-1" d="M4,18.6H16.07V17c0-.24.12-.38.32-.38s.34.13.34.38c0,.64,0,1.28,0,1.91,0,.28-.13.4-.42.4H11.83c-2.14,0-4.28,0-6.42,0H3.77c-.3,0-.42-.13-.42-.42V15.62a.35.35,0,0,1,.35-.36.34.34,0,0,1,.32.37v3Z"/><path class="cls-1" d="M18,6.64h-.18a.27.27,0,0,1-.25-.28.25.25,0,0,1,.24-.28c.32,0,.64,0,1,0a.25.25,0,0,1,.24.28v.83a.29.29,0,1,1-.58,0V7.06a1,1,0,0,0-.1.09l-1.91,2c-.17.18-.24.19-.47.11L14,8.47a.23.23,0,0,0-.24,0c-.85.62-1.71,1.23-2.57,1.84a.68.68,0,0,1-.22.09.26.26,0,0,1-.28-.19.29.29,0,0,1,.12-.34l.91-.64L13.6,7.92A.4.4,0,0,1,14,7.86L16,8.61c.07,0,.12.05.19,0L18,6.71S18,6.68,18,6.64Z"/><path class="cls-1" d="M14.05,15.93H10.44c-.22,0-.35-.08-.4-.25s.1-.42.37-.42h7.35a.35.35,0,0,1,.32.33.33.33,0,0,1-.31.33,1.51,1.51,0,0,1-.3,0Z"/><path class="cls-1" d="M9,3.52H7.61c-.31,0-.5-.3-.33-.53a.41.41,0,0,1,.31-.16h2.74a.34.34,0,0,1,.38.34.36.36,0,0,1-.37.36Z"/><path class="cls-1" d="M9,4.91H7.62a.35.35,0,1,1,0-.7H10.3c.25,0,.41.14.41.35s-.16.35-.41.35Z"/><path class="cls-1" d="M5.82,4.91H5.47a.35.35,0,0,1,0-.69,5.48,5.48,0,0,1,.81,0,.32.32,0,0,1,.3.36.34.34,0,0,1-.34.33H5.82Z"/><path class="cls-1" d="M5.84,2.82h.37a.34.34,0,0,1,.32.32.32.32,0,0,1-.29.37,7.66,7.66,0,0,1-.83,0,.31.31,0,0,1-.29-.34.34.34,0,0,1,.33-.34Z"/></svg>