<?xml version="1.0" encoding="utf-8"?>
<!-- Generator: Adobe Illustrator 25.3.0, SVG Export Plug-In . SVG Version: 6.00 Build 0)  -->
<svg version="1.1" id="Layer_1" xmlns="http://www.w3.org/2000/svg" xmlns:xlink="http://www.w3.org/1999/xlink" x="0px" y="0px"
	 viewBox="0 0 20 20" style="enable-background:new 0 0 20 20;" xml:space="preserve">
<style type="text/css">
	.st0{fill-rule:evenodd;clip-rule:evenodd;fill:#02539F;}
</style>
<path id="viewonMap" class="st0" d="M19.5,19.9c-0.7-2-1.3-4.1-2-6.1c0-0.2-0.2-0.3-0.4-0.2c0,0,0,0,0,0c-0.8,0-1.7,0-2.5,0h-1.1
	c0.6-0.6,1.1-1.2,1.6-1.8c1.3-1.5,2-3.4,1.8-5.3c-0.4-3.8-3.8-6.7-7.6-6.3C5.5,0.4,2.7,3.8,3.1,7.7c0,0.3,0.1,0.7,0.2,1
	c0.3,1.3,1,2.5,2,3.5c0.4,0.4,0.8,0.8,1.2,1.2l-0.1,0.1c-1.1,0-2.2,0-3.4,0c-0.3-0.1-0.5,0.1-0.6,0.4c0,0,0,0,0,0
	c-0.3,0.9-0.6,1.9-0.9,2.8c-0.4,1.1-0.7,2.2-1.1,3.3h19.1C19.5,20,19.5,19.9,19.5,19.9z M2.1,18.8c0.1-0.4,0.3-0.8,0.4-1.2
	c0.1-0.2,0.2-0.2,0.4-0.2c1.2,0,2.3,0,3.5,0c0.3,0,0.4-0.1,0.4-0.4c0-0.8,0-0.8-0.8-0.8h-3c0.2-0.5,0.3-0.9,0.4-1.4
	c0-0.1,0.2-0.2,0.3-0.2c1.3,0,2.5,0,3.8,0c0.2,0,0.3,0.1,0.4,0.2c0.7,0.7,1.4,1.5,1.9,2.3c0.2,0.3,0.3,0.2,0.4,0
	c0.6-0.8,1.2-1.6,1.9-2.3c0.1-0.1,0.3-0.2,0.5-0.2c1.2,0,2.4,0,3.6,0c0.2,0,0.4,0.1,0.4,0.3c0,0,0,0,0,0c0.1,0.4,0.3,0.8,0.4,1.3
	c-1.1,0-2.1,0-3.2,0c-0.2,0-0.5-0.1-0.6,0.1c-0.1,0.3-0.1,0.7,0,1c0,0.2,0.2,0.1,0.3,0.1c1.2,0,2.3,0,3.5,0c0.2,0,0.4,0.1,0.5,0.3
	c0,0,0,0,0,0c0.1,0.4,0.2,0.7,0.3,1.1C17.6,18.9,3.2,18.9,2.1,18.8z M10,4.9c-1.3,0-2.4,1-2.4,2.3c0,1.3,1,2.4,2.3,2.4
	c1.3,0,2.4-1,2.4-2.3c0,0,0,0,0,0C12.3,6,11.3,5,10,4.9z M10,8.4c-0.6,0-1.1-0.5-1.2-1.1c0,0,0,0,0,0c0-0.6,0.5-1.2,1.1-1.2
	c0.7,0,1.2,0.5,1.2,1.2C11.2,7.9,10.7,8.4,10,8.4z"/>
</svg>
