<svg xmlns="http://www.w3.org/2000/svg" width="24" height="24" viewBox="0 0 24 24">
  <defs>
    <style>
      .cls-1 {
        fill: #959595;
        fill-rule: evenodd;
      }
    </style>
  </defs>
  <path id="viewonmapgray" class="cls-1" d="M1100.99,364.842c-0.73-2.248-1.48-4.492-2.2-6.744a0.345,0.345,0,0,0-.43-0.259c-0.91,0-1.83,0-2.74,0h-1.18c0.64-.683,1.24-1.283,1.79-1.929a7.735,7.735,0,0,0,1.96-5.877,7.7,7.7,0,1,0-15.15,2.529,8.356,8.356,0,0,0,2.23,3.861c0.43,0.455.9,0.867,1.36,1.3l-0.09.118c-1.24,0-2.47.015-3.71-.009a0.528,0.528,0,0,0-.64.448c-0.3,1.031-.65,2.047-0.99,3.068-0.39,1.208-.79,2.415-1.2,3.653h20.99A0.416,0.416,0,0,0,1100.99,364.842Zm-19.2-1.128c0.15-.455.29-0.9,0.42-1.351a0.344,0.344,0,0,1,.43-0.215c1.27,0,2.54-.011,3.82.01,0.34,0,.48-0.057.47-0.447-0.03-.871-0.01-0.872-0.87-0.872h-3.34c0.17-.548.32-1.027,0.47-1.507a0.289,0.289,0,0,1,.33-0.218c1.4,0.007,2.8.01,4.21,0a0.606,0.606,0,0,1,.45.236,15.51,15.51,0,0,1,2.11,2.51c0.19,0.28.28,0.271,0.47,0a16.37,16.37,0,0,1,2.1-2.513,0.733,0.733,0,0,1,.56-0.23c1.33,0.011,2.67.011,4.01,0a0.377,0.377,0,0,1,.45.315c0.12,0.454.28,0.9,0.45,1.411-1.2,0-2.35-.007-3.5.006-0.23,0-.59-0.142-0.66.093a2.625,2.625,0,0,0-.01,1.117c0.02,0.176.25,0.09,0.38,0.09,1.27,0.007,2.55.012,3.82,0a0.416,0.416,0,0,1,.51.363c0.09,0.395.25,0.775,0.37,1.163C1098.82,363.759,1083,363.8,1081.79,363.714Zm8.75-15.29a2.584,2.584,0,1,0,2.54,2.582A2.6,2.6,0,0,0,1090.54,348.424Zm-0.02,3.852a1.255,1.255,0,0,1-1.27-1.274,1.308,1.308,0,0,1,1.25-1.3,1.342,1.342,0,0,1,1.31,1.314A1.285,1.285,0,0,1,1090.52,352.276Z" transform="translate(-1078.5 -342)"/>
</svg>
