<?xml version="1.0" encoding="utf-8"?>
<!-- Generator: Adobe Illustrator 25.3.0, SVG Export Plug-In . SVG Version: 6.00 Build 0)  -->
<svg version="1.1" id="Layer_1" xmlns="http://www.w3.org/2000/svg" xmlns:xlink="http://www.w3.org/1999/xlink" x="0px" y="0px"
	 viewBox="0 0 21 21" style="enable-background:new 0 0 21 21;" xml:space="preserve">
<style type="text/css">
	.st0{fill-rule:evenodd;clip-rule:evenodd;fill:#02539F;}
</style>
<path id="Shape_454_1" class="st0" d="M14.4,12.5v6.6c0,1-0.8,1.8-1.8,1.8H1.8c-1,0-1.8-0.8-1.8-1.8V4.3c0-1,0.8-1.8,1.8-1.8h1.8
	C4,2,4.5,1.7,5,1.6c0.3-1.2,1.6-1.9,2.8-1.6c0.8,0.2,1.3,0.8,1.6,1.6c0.6,0,1.1,0.3,1.4,0.8h1.8c1,0,1.8,0.8,1.8,1.8v3l3.4-3.4
	c0.7-0.7,1.9-0.7,2.6,0.1c0.7,0.7,0.7,1.8,0,2.6L14.4,12.5z M9.9,3.5c0-0.3-0.3-0.6-0.6-0.6H8.9c-0.3,0-0.6-0.3-0.6-0.6c0,0,0,0,0,0
	c0-0.6-0.4-1-1-1.1c-0.6,0-1,0.4-1.1,1c0,0,0,0,0,0.1c0,0.3-0.3,0.6-0.6,0.6H5.2c-0.3,0-0.6,0.3-0.6,0.6v0.2h5.3V3.5z M13.2,4.3
	c0-0.3-0.3-0.6-0.6-0.6h-1.5v0.6c0,0.3-0.3,0.6-0.6,0.6H3.9c-0.3,0-0.6-0.3-0.6-0.6V3.7H1.8C1.5,3.7,1.2,4,1.2,4.3v0v14.8
	c0,0.3,0.3,0.6,0.6,0.6h10.7c0.3,0,0.6-0.3,0.6-0.6v-5.4l-0.9,0.9c0,0-0.1,0.1-0.2,0.1l-3.5,1.7c-0.3,0.2-0.7,0-0.8-0.3
	c-0.1-0.2-0.1-0.4,0-0.6l1.7-3.5c0-0.1,0.1-0.1,0.1-0.2l3.5-3.5L13.2,4.3L13.2,4.3z M10.9,14l-0.5-0.5l-0.5,1.1L10.9,14z M11,12.5
	l0.9,0.9l4.6-4.6l-0.9-0.9L11,12.5z M17.4,6.1l-0.9,0.9l0.9,0.9l0.9-0.9L17.4,6.1z M19.6,4.8c-0.2-0.2-0.6-0.2-0.9,0l-0.4,0.4
	l0.9,0.9l0.4-0.4C19.8,5.4,19.8,5,19.6,4.8L19.6,4.8z M4.7,13.6c-0.2,0.2-0.6,0.2-0.9,0l-1.2-1.2c-0.2-0.2-0.2-0.6,0-0.9
	s0.6-0.2,0.9,0l0.7,0.7l1.9-1.9c0.2-0.2,0.6-0.2,0.9,0s0.2,0.6,0,0.9L4.7,13.6z M4.7,9.6C4.4,9.8,4,9.8,3.8,9.6L2.6,8.4
	c-0.2-0.2-0.2-0.6,0-0.9s0.6-0.2,0.9,0l0.7,0.7l1.9-1.9c0.2-0.2,0.6-0.2,0.9,0C7.2,6.7,7.2,7,7,7.3L4.7,9.6z"/>
</svg>
