<?xml version="1.0" encoding="utf-8"?>
<!-- Generator: Adobe Illustrator 25.3.0, SVG Export Plug-In . SVG Version: 6.00 Build 0)  -->
<svg version="1.1" id="Layer_1" xmlns="http://www.w3.org/2000/svg" xmlns:xlink="http://www.w3.org/1999/xlink" x="0px" y="0px"
	 viewBox="0 0 30 30" style="enable-background:new 0 0 30 30;" xml:space="preserve">
<style type="text/css">
	.st0{fill-rule:evenodd;clip-rule:evenodd;fill:#02539F;}
</style>
<path id="web" class="st0" d="M20.3,22.5H9.7C6,22.5,3,19.9,3,16.6V8.4c0-3.2,3-5.9,6.7-5.9h10.7C24,2.5,27,5.1,27,8.4v8.2
	C27,19.9,24,22.5,20.3,22.5z M24.3,8.4c-0.1-2.1-1.9-3.7-4-3.5H9.7c-2.1-0.1-3.9,1.5-4,3.5v8.2c0.1,2.1,1.9,3.7,4,3.5h10.7
	c2.1,0.1,3.9-1.5,4-3.5V8.4L24.3,8.4z M8.5,24.5h14c0.8,0,1.5,0.7,1.5,1.5s-0.7,1.5-1.5,1.5l0,0h-14C7.7,27.5,7,26.8,7,26
	S7.7,24.5,8.5,24.5z"/>
</svg>
