<?xml version="1.0" encoding="utf-8"?>
<!-- Generator: Adobe Illustrator 25.3.0, SVG Export Plug-In . SVG Version: 6.00 Build 0)  -->
<svg version="1.1" id="webwithtxt" xmlns="http://www.w3.org/2000/svg" xmlns:xlink="http://www.w3.org/1999/xlink" x="0px" y="0px"
	 viewBox="0 0 81.5 25" style="enable-background:new 0 0 81.5 25;" xml:space="preserve">
<style type="text/css">
	.st0{fill-rule:evenodd;clip-rule:evenodd;fill:#02539F;}
</style>
<path id="Web" class="st0" d="M19.2,4.2L15.9,17L12.6,4.2H9.6L6.1,17.1L2.8,4.2H0l4.5,15.9l2.9,0L11,8l3.3,12h2.9L22,4.2L19.2,4.2
	L19.2,4.2z M32.9,6.3V4.1h-8.8V20h8.8v-2.1h-6.2v-4.9h5.5v-2.1h-5.5V6.3L32.9,6.3L32.9,6.3z M44.6,11.9c0.8-0.3,1.5-0.7,2-1.3
	c0.5-0.7,0.8-1.5,0.7-2.3c0-0.7-0.2-1.4-0.6-2.1c-0.4-0.6-1-1.2-1.8-1.5c-0.9-0.4-1.8-0.6-2.8-0.5h-6.1V20h6.3c1,0,1.9-0.2,2.8-0.6
	c0.7-0.3,1.4-0.9,1.8-1.5c0.4-0.6,0.6-1.4,0.6-2.2c0-0.9-0.3-1.8-0.9-2.5C46.2,12.5,45.4,12,44.6,11.9L44.6,11.9L44.6,11.9z
	 M38.7,6.3h3.2c0.7,0,1.4,0.2,2,0.6c0.5,0.4,0.8,1,0.7,1.7c0,0.6-0.2,1.3-0.7,1.7c-0.6,0.4-1.3,0.6-2,0.6h-3.2V6.3z M42.2,17.9h-3.5
	v-5h3.4c0.8,0,1.5,0.2,2.1,0.7c0.5,0.5,0.8,1.1,0.8,1.9c0,0.7-0.2,1.3-0.8,1.8C43.7,17.7,42.9,18,42.2,17.9L42.2,17.9L42.2,17.9z"/>
<path id="web-2" class="st0" d="M74.9,20H64.2c-3.7,0-6.7-2.6-6.7-5.9V5.9c0-3.2,3-5.9,6.7-5.9h10.7c3.7,0,6.7,2.6,6.7,5.9v8.2
	C81.5,17.4,78.6,20,74.9,20z M78.9,5.9c-0.1-2.1-1.9-3.7-4-3.5H64.2c-2.1-0.1-3.9,1.5-4,3.5v8.2c0.1,2.1,1.9,3.7,4,3.5h10.7
	c2.1,0.1,3.9-1.5,4-3.5V5.9L78.9,5.9z M63,22h14c0.8,0,1.5,0.7,1.5,1.5S77.9,25,77,25l0,0H63c-0.8,0-1.5-0.7-1.5-1.5S62.2,22,63,22z
	"/>
</svg>
