<svg xmlns="http://www.w3.org/2000/svg" width="90" height="90" viewBox="0 0 90 90">
  <defs>
    <style>
      .cls-1 {
        fill: #fff;
        fill-rule: evenodd;
      }
    </style>
  </defs>
  <path id="workflow" class="cls-1" d="M500.094,379h19.031a3,3,0,0,1,3,3v9.656a3,3,0,0,1-3,3H500.094a3,3,0,0,1-3-3V382A3,3,0,0,1,500.094,379ZM468.8,412.333h21.476a3.608,3.608,0,0,1,3.6,3.616v8.436a3.608,3.608,0,0,1-3.6,3.615H467.6a3.608,3.608,0,0,1-3.6-3.615v-8.436C464,413.952,466.812,412.333,468.8,412.333Zm-0.856,1.959h22.007a2,2,0,0,1,2,2v7.75a2,2,0,0,1-2,2H467.944a2,2,0,0,1-2-2v-7.75A2,2,0,0,1,467.944,414.292Zm60.98-1.959H550.4a3.608,3.608,0,0,1,3.6,3.616v8.436A3.608,3.608,0,0,1,550.4,428H528.924a3.608,3.608,0,0,1-3.6-3.615v-8.436A3.608,3.608,0,0,1,528.924,412.333Zm0.733,1.959h20.01a2.4,2.4,0,0,1,2.4,2.41v6.929a2.4,2.4,0,0,1-2.4,2.411h-20.01a2.406,2.406,0,0,1-2.4-2.411V416.7A2.4,2.4,0,0,1,529.657,414.292ZM508.4,392.256h2.4V403.9h-2.4V392.256Zm29.211,11.265H539.8v9.791h-2.188v-9.791Zm-59.211-.829h2.4l-0.179,10.62-2.221.226V402.692Zm0,0h61.2V405.1h-60Z" transform="translate(-464 -358.5)"/>
</svg>
