<svg xmlns="http://www.w3.org/2000/svg" width="30" height="29.994" viewBox="0 0 224.048 224">
  <defs>
    <style>
      .cls-1 {
        fill: #8c8c8c;
        fill-rule: evenodd;
      }
    </style>
  </defs>
  <path id="XLS" class="cls-1" d="M86.122,171.625c0-27.15.086-54.3-.1-81.45-0.026-3.951.608-5.392,4.991-5.246,11.144,0.371,22.309.157,33.465,0.113,8.875-.035,13.553-4.678,13.6-13.493,0.049-10.327.114-20.656-.055-30.98-0.047-2.84.776-3.569,3.583-3.562q57.446,0.137,114.893.028c4.111-.006,5.564,1.858,5.548,5.793-0.08,19.321-.135,38.644.054,57.963,0.034,3.514-.852,4.353-4.35,4.341-41.295-.133-82.59-0.087-123.885-0.085-11.862,0-15.762,3.922-15.763,15.843q0,32.48,0,64.96c0,11.15,4.093,15.163,15.441,15.164,41.128,0,82.257.064,123.385-.1,4.018-.016,5.28.732,5.2,5.032-0.3,16.152-.108,32.312-0.125,48.469-0.006,5.847-.741,6.571-6.686,6.572q-81.176.014-162.349,0c-6.2,0-6.841-.658-6.843-6.918Q86.113,212.85,86.122,171.625Zm6.2-94.57,37.765-34.86c0,10.961.062,20.861-.037,30.76-0.031,3.171-2.177,4.13-5.079,4.118C114.51,77.028,104.052,77.055,92.319,77.055Zm186.41,35.991q-72.685-.006-145.372,0c-6.706,0-7.255.527-7.258,7.006q-0.012,32.982,0,65.963c0,6.475.553,7,7.263,7q36.218,0.009,72.436,0,36.468,0,72.936,0c6.745,0,7.255-.488,7.257-7.006q0.014-32.981,0-65.962C285.988,113.536,285.476,113.047,278.729,113.046Zm-102.56,67.162c-2.885,2.045-4.621.019-6.092-2.122-3.291-4.791-6.619-9.564-9.684-14.5-1.68-2.7-2.643-3.306-4.561-.132-3,4.969-6.4,9.7-9.674,14.5-1.454,2.137-3.026,4.275-6.023,2.3-3.084-2.028-2.126-4.287-.421-6.768,3.945-5.74,7.748-11.58,11.6-17.383,0.634-.956,1.235-1.933,1.935-3.031-0.631-1.025-1.2-2.011-1.826-2.956-3.948-5.941-7.866-11.9-11.888-17.792-1.6-2.343-2.313-4.49.419-6.431,2.9-2.062,4.605-.157,6.1,2.024,3,4.386,5.939,8.813,8.9,13.223,3.11,4.629,3.107,4.627,6.361-.206,2.876-4.27,5.738-8.548,8.65-12.793,1.456-2.123,3.1-4.318,6.029-2.406,2.983,1.946,2.167,4.325.456,6.821-3.751,5.473-7.247,11.125-11.1,16.525-1.945,2.726-2.351,4.8-.151,7.74,4.068,5.439,7.6,11.277,11.422,16.9C178.22,176.081,178.828,178.323,176.169,180.208Zm44.254,0.831c-9.656-.046-19.313-0.067-28.968.007-3.792.028-5.451-1.695-5.417-5.445,0.069-7.493.021-14.988,0.021-22.482s0.033-14.989-.017-22.483c-0.021-3,.754-5.583,4.217-5.448,3.084,0.121,3.831,2.536,3.818,5.36-0.056,12.823.092,25.649-.1,38.469-0.05,3.267.822,4.2,4.09,4.087,7.484-.251,14.982-0.041,22.473-0.1,2.8-.022,5.248.709,5.351,3.827C226,180.3,223.423,181.053,220.423,181.039Zm53.521-11.5a11.843,11.843,0,0,1-11.567,11.437c-2.988.155-5.991,0.027-9.778,0.027-3.147-.314-7.156.669-11.038-0.925-4.464-1.834-6.67-5.261-7.466-9.792a4.031,4.031,0,0,1,3.126-4.951c2.634-.753,4.314.821,4.654,3.188,0.571,3.974,3.011,4.646,6.373,4.535,3.825-.125,7.669-0.219,11.483.019,4.859,0.3,6.413-1.905,6.344-6.543-0.142-9.5.016-9.5-9.329-9.5-3.662,0-7.331.125-10.985-.05-6.728-.322-11.377-5.088-11.707-11.827-0.082-1.662-.028-3.33-0.026-4.995,0.014-10.933,4.144-15.1,14.985-15.115,4.5,0,9-.146,13.483.057a11.9,11.9,0,0,1,11.432,10.508c0.285,2.691-.6,4.748-3.326,5.27-2.574.492-4.21-1.138-4.5-3.557-0.45-3.786-2.755-4.413-5.957-4.315-4.324.132-8.656,0.072-12.984,0.021-3.518-.041-5.242,1.592-5.148,5.141,0.044,1.664.1,3.336-.012,4.994-0.292,4.287,1.672,6.059,5.919,5.909,4.655-.164,9.324-0.141,13.981,0,7.025,0.211,11.77,4.956,12.065,11.975A80.679,80.679,0,0,1,273.944,169.534Z" transform="translate(-73.992 -37)"/>
</svg>
