<svg xmlns="http://www.w3.org/2000/svg" viewBox="0 0 234.17 165.62"><g id="Layer_2" data-name="Layer 2"><g id="Layer_1-2" data-name="Layer 1"><path d="M116.18,165.62A121.81,121.81,0,0,1,56.73,150,128,128,0,0,1,1.38,88.58a13.52,13.52,0,0,1-.15-11.53C20,36.11,51.24,10.9,94,2.1a97.58,97.58,0,0,1,22.83-2C166.41-.66,213,30,232.76,76.39a14.86,14.86,0,0,1-.14,12.92c-19,40.77-50.06,65.65-92.42,73.95A125.11,125.11,0,0,1,116.18,165.62Zm-102.11-83c0,.11.1.27.18.46,17.86,41.88,59,68.43,102.64,68.43a107.1,107.1,0,0,0,20.62-2c38.25-7.49,65.21-29.12,82.42-66.12h0a2.24,2.24,0,0,0,.24-.66h0a3.43,3.43,0,0,0-.28-.86c-17.61-41.25-59-68.49-103-67.82h-.39a83,83,0,0,0-19.64,1.77C58.22,23.76,31.14,45.61,14.07,82.63Z"/><path d="M117.35,31.94C88.51,32.11,67.52,54.37,66.74,81c-.86,29.78,22,51.89,49.23,52.43,29.1.58,51.05-22.06,51.6-49.55C168.16,54.06,144.82,32.08,117.35,31.94Zm-.68,80.9c-15.06.17-30.42-13.58-29.38-30.47-.82-15.73,13.9-30.22,30.08-29.76,16.92.48,29.8,13.25,29.63,30.19C146.82,100.15,133.85,112.64,116.67,112.84Z" style="fill-rule:evenodd"/></g></g></svg>