<svg xmlns="http://www.w3.org/2000/svg" width="48.22" height="48.22" viewBox="0 0 48.22 48.22">
  <g id="arrow_l" data-name="arrow l" transform="translate(48.22) rotate(90)">
    <path id="Combined_Shape" data-name="Combined Shape" d="M0,24.109A24.11,24.11,0,1,1,24.109,48.22,24.136,24.136,0,0,1,0,24.109Zm3.709,0a20.4,20.4,0,1,0,20.4-20.4A20.423,20.423,0,0,0,3.709,24.109ZM22.834,35.425l-.031-.031-9.273-9.2a1.855,1.855,0,0,1,2.582-2.663l.031.031,6.112,6.065V14.142a1.855,1.855,0,0,1,3.709-.038v15.52l6.112-6.063a1.854,1.854,0,0,1,2.642,2.6l-.029.031-9.273,9.2a1.856,1.856,0,0,1-2.582.031Z" fill="#27292d"/>
  </g>
</svg>
