<svg xmlns="http://www.w3.org/2000/svg" width="24" height="24" viewBox="0 0 20 20">
  <defs>
    <style>
      .cls-1 {
        fill: #0f7be2;
        fill-rule: evenodd;
      }
    </style>
  </defs>
  <path id="ACFitted" class="cls-1" d="M689,96.159c-1.874,0-3.747,0-5.621,0-0.191,0-.252-0.013-0.191-0.238,0.223-.836.427-1.678,0.623-2.521A0.156,0.156,0,0,1,684,93.255q5,0,9.993,0a0.157,0.157,0,0,1,.193.147c0.205,0.872.424,1.74,0.646,2.608,0.051,0.2-.075.149-0.168,0.149H689Zm2.854,5.8h-0.58c-0.065,0-.138.017-0.133-0.094a6.054,6.054,0,0,1,.091-1.55,1.8,1.8,0,0,1,1.644-1.258,0.364,0.364,0,0,0,.409-0.433c0-.287,0-0.574,0-0.861,0-.1.006-0.164,0.139-0.16,0.386,0.01.773,0,1.16,0,0.065,0,.138-0.017.132,0.094a6.215,6.215,0,0,1-.088,1.528,1.794,1.794,0,0,1-1.647,1.28,0.362,0.362,0,0,0-.408.433c0,0.287-.007.574,0,0.861,0,0.132-.039.166-0.163,0.16C692.227,101.957,692.041,101.964,691.855,101.964Zm-2.847-4.353c0.193,0,.386,0,0.58,0,0.053,0,.13-0.026.126,0.075a6.109,6.109,0,0,1-.087,1.551,1.792,1.792,0,0,1-1.651,1.276,0.359,0.359,0,0,0-.4.414c0,0.295,0,.59,0,0.884,0,0.11-.017.159-0.143,0.156-0.386-.009-0.773,0-1.16,0-0.053,0-.131.027-0.127-0.074a6.1,6.1,0,0,1,.087-1.551,1.79,1.79,0,0,1,1.65-1.276,0.36,0.36,0,0,0,.4-0.415c0-.287.007-0.574,0-0.861,0-.132.02-0.191,0.167-0.179C688.635,97.622,688.822,97.611,689.008,97.611ZM684,97.621a1.252,1.252,0,0,1,.667.024,1.16,1.16,0,0,1,.047.692,2.033,2.033,0,0,1-.523,1.639,1.778,1.778,0,0,1-1.209.537,0.366,0.366,0,0,0-.411.431c0,0.3,0,.59,0,0.884a0.111,0.111,0,0,1-.137.14c-0.386-.007-0.773,0-1.16,0-0.063,0-.14.021-0.135-0.091a6.061,6.061,0,0,1,.09-1.551,1.8,1.8,0,0,1,1.642-1.26,0.364,0.364,0,0,0,.411-0.431c0-.295.005-0.59,0-0.884,0-.109.029-0.144,0.137-0.139,0.193,0.008.386,0,.58,0v0.01ZM697.509,86H680.462A1.443,1.443,0,0,0,679,87.418q-0.009,3.661,0,7.322a1.424,1.424,0,0,0,1.127,1.376,9.3,9.3,0,0,0,1.445.044c0.1,0,.092-0.065.109-0.134q0.443-1.806.889-3.61a0.726,0.726,0,0,1,.764-0.61h11.312a0.724,0.724,0,0,1,.78.617c0.3,1.2.6,2.391,0.882,3.589a0.156,0.156,0,0,0,.19.15c0.327-.005.654,0,0.981,0A1.454,1.454,0,0,0,699,94.618v-7.1A1.453,1.453,0,0,0,697.509,86Zm-2.082,3.628c-0.237,0-.475,0-0.713,0h-0.69a0.726,0.726,0,1,1,0-1.451c0.468,0,.935,0,1.4,0A0.725,0.725,0,0,1,695.427,89.628Z" transform="translate(-679 -83.984)"/>
</svg>
