<svg xmlns="http://www.w3.org/2000/svg" width="22.8" height="24" viewBox="0 0 19 20">
  <defs>
    <style>
      .cls-1 {
        fill: #0f7be2;
        stroke: #f2f1f1;
        stroke-width: 1px;
        fill-rule: evenodd;
      }
    </style>
  </defs>
  <path id="Shape_322_1" data-name="Shape 322 1" class="cls-1" d="M698.625,308h-14.25A2.4,2.4,0,0,1,682,305.571l0.006-9.711a2.406,2.406,0,0,1,2.371-2.427l1.639,0L687.2,291H695.8l1.188,2.429h1.641A2.4,2.4,0,0,1,701,295.857v9.714A2.4,2.4,0,0,1,698.625,308ZM691.5,295.25a4.858,4.858,0,1,0,4.75,4.857A4.809,4.809,0,0,0,691.5,295.25Zm-1.68,6.574a2.468,2.468,0,0,1,0-3.434,2.337,2.337,0,0,1,3.359,0,2.466,2.466,0,0,1,0,3.434A2.337,2.337,0,0,1,689.82,301.824Z" transform="translate(-682 -289.5)"/>
</svg>
