<svg xmlns="http://www.w3.org/2000/svg" width="23.999" height="24" viewBox="0 0 18 18">
  <defs>
    <style>
      .cls-1 {
        fill: #0f7be2;
        fill-rule: evenodd;
      }
    </style>
  </defs>
  <path id="chassisNo" class="cls-1" d="M465.855,302.953a1.04,1.04,0,0,1-.277-1.253c0.057-.44.469-0.355,0.783-0.374a1.13,1.13,0,0,0,1.041-.259,0.491,0.491,0,0,0,.166-0.332c0-.594-0.011-1.189,0-1.783,0.006-.258-0.071-0.376-0.313-0.332a2.063,2.063,0,0,1-1.839-.633,0.688,0.688,0,0,0-.522-0.138c-0.908,0-1.817-.011-2.724.009-0.3.007-.406-0.061-0.4-0.409,0-.908-0.014-0.909-0.877-0.909-2.4,0-2.808,0-5.213,0-0.286,0-.5.008-0.438,0.417,0.067,0.483-.47.263-0.628,0.568a0.878,0.878,0,0,0-.178.4c0,0.9,0,1.8,0,2.7a0.631,0.631,0,0,0,.654.7c0.183,0.02.37,0,.554,0,0.315,0,.727-0.071.783,0.372a1.04,1.04,0,0,1-.278,1.252c-1.2.09-2.409,0.016-3.613,0.04a0.456,0.456,0,0,1-.532-0.269v-1.082a0.719,0.719,0,0,1,.771-0.479,3.587,3.587,0,0,0,.6-0.024,0.534,0.534,0,0,0,.492-0.577c0.014-.828,0-1.657,0-2.486a0.617,0.617,0,0,0-.428-0.6,1.586,1.586,0,0,1-.712-2.053,0.913,0.913,0,0,1,.618-0.515,0.741,0.741,0,0,0,.529-0.852c-0.019-.774,0-1.549-0.006-2.323,0-.709-0.135-0.848-0.8-0.868a0.919,0.919,0,0,1-1.074-.482v-1.083a0.455,0.455,0,0,1,.53-0.268c1.205,0.023,2.411-.049,3.616.039a1.038,1.038,0,0,1,.277,1.252c-0.057.441-.471,0.354-0.784,0.374a1.181,1.181,0,0,0-1.043.257,0.539,0.539,0,0,0-.161.39c0,1.027.008,2.054-.006,3.08a0.625,0.625,0,0,0,.546.634,0.3,0.3,0,0,1,.268.393c-0.036.29,0.079,0.364,0.337,0.363,2.623-.008,3.246-0.011,5.868,0,0.331,0,.333-0.169.335-0.43,0.008-.888.014-0.888,0.844-0.888,0.487,0,.977-0.035,1.462.008a2.391,2.391,0,0,0,2-.624,1.45,1.45,0,0,1,1.12-.141c0.287,0,.376-0.089.365-0.4-0.021-.594-0.006-1.189-0.006-1.783a0.7,0.7,0,0,0-.8-0.866h-0.454c-0.3,0-.689.038-0.736-0.371a1.047,1.047,0,0,1,.277-1.252c1.2-.09,2.41-0.017,3.614-0.041a0.458,0.458,0,0,1,.532.269v1.083a0.721,0.721,0,0,1-.769.48,3.379,3.379,0,0,0-.6.027,0.52,0.52,0,0,0-.488.521c-0.026.593-.015,1.186,0,1.779a0.347,0.347,0,0,0,.388.384c0.3,0.009.6,0,.906,0.007a0.769,0.769,0,0,1,.571.156v4.87a1.6,1.6,0,0,1-1.075.153c-0.8.018-.8,0.007-0.8,0.879,0,0.252,0,.5,0,0.756a0.616,0.616,0,0,0,.7.756c0.15,0.01.3,0.008,0.453,0.009a0.7,0.7,0,0,1,.719.477v1.082a0.455,0.455,0,0,1-.53.269C468.265,302.969,467.059,303.043,465.855,302.953Z" transform="translate(-452 -287)"/>
</svg>
