<svg xmlns="http://www.w3.org/2000/svg" width="23.999" height="24" viewBox="0 0 18 18">
  <defs>
    <style>
      .cls-1 {
        fill: #0f7be2;
        fill-rule: evenodd;
      }
    </style>
  </defs>
  <path id="color" class="cls-1" d="M463.3,432.473a0.92,0.92,0,0,1,.081.084q1.235,1.585,2.467,3.171,1.136,1.462,2.266,2.927c0.226,0.293.453,0.586,0.685,0.875,0.045,0.057.067,0.075-.015,0.126a3.527,3.527,0,0,0-.4.31c-0.086.072-.134,0.02-0.18-0.039q-0.921-1.187-1.841-2.375c-0.512-.657-1.027-1.312-1.539-1.969l-1.619-2.077c-0.115-.148-0.227-0.3-0.347-0.445-0.092-.11-0.141-0.2.031-0.285a2.025,2.025,0,0,0,.28-0.215C463.2,432.53,463.249,432.5,463.3,432.473Zm-2.683-3.317a3.562,3.562,0,0,1,1.977.73,1.21,1.21,0,0,1-.127,1.982,1.281,1.281,0,0,1-.909.331,0.725,0.725,0,0,1-.837-0.724,11.874,11.874,0,0,1-.049-1.8C460.66,429.508,460.632,429.341,460.612,429.156Zm9.253-.512a7.047,7.047,0,0,0-2.426-3.436,9.92,9.92,0,0,0-2.442-1.47,8.882,8.882,0,0,0-2.826-.72,6.982,6.982,0,0,0-2.43.248,8.853,8.853,0,0,0-3.054,1.584,11.892,11.892,0,0,0-2.338,2.484,15.1,15.1,0,0,0-1.385,2.421,9.61,9.61,0,0,0-.942,3.471,9.48,9.48,0,0,0,.1,2.223,6.767,6.767,0,0,0,1.261,3.064,3.6,3.6,0,0,0,1.63,1.215,3.46,3.46,0,0,0,1.788.142,1.444,1.444,0,0,0,1.069-.613,2.758,2.758,0,0,0,.3-1.67,10.275,10.275,0,0,1,.012-2.06,2.224,2.224,0,0,1,.977-1.6,2.918,2.918,0,0,1,2.132-.293,11.423,11.423,0,0,1,1.32.305,7.828,7.828,0,0,1-.52-0.681,0.835,0.835,0,0,0-.851-0.445,0.991,0.991,0,0,1-.82-0.421,2.519,2.519,0,0,1-.408-1.786,6.37,6.37,0,0,0-.05-1.25,2.734,2.734,0,0,0-.356-0.823,8.01,8.01,0,0,1,1.677.078,3.363,3.363,0,0,1,2.053,1.152,1.461,1.461,0,0,1,.3,1.433,0.6,0.6,0,0,0,.132.724,0.187,0.187,0,0,1,.026.03c0.555,0.707,1.115,1.41,1.662,2.123,0.279,0.363.29,0.386,0.709,0.209a7.283,7.283,0,0,0,2.036-1.368,6.212,6.212,0,0,0,1.339-1.693A3.278,3.278,0,0,0,469.865,428.644Zm-13.463,9.74a1.448,1.448,0,0,1-1.669-.072,2.107,2.107,0,0,1-.95-1.992,1.513,1.513,0,0,1,2.438-1.179,2.276,2.276,0,0,1,.921,1.966A1.6,1.6,0,0,1,456.4,438.384Zm-0.534-7.912a1.566,1.566,0,0,1-1.327-1.478,1.139,1.139,0,0,1,1.019-1.1,1.567,1.567,0,0,1,1.719,1.139c0.024,0.1,0,.195.02,0.253A1.2,1.2,0,0,1,455.868,430.472Zm4.759-3.39a1.038,1.038,0,0,1-1.723.4,1.837,1.837,0,0,1-.677-1.6,1.167,1.167,0,0,1,.829-1.122c0.08-.02.157-0.006,0.252-0.025a1.335,1.335,0,0,1,1.065.644A1.753,1.753,0,0,1,460.627,427.082Zm3.715,0.492a1.268,1.268,0,0,1-.518.091,1.322,1.322,0,0,1-1.2-.963,1.815,1.815,0,0,1,.738-1.935,1.257,1.257,0,0,1,1.878.641A1.734,1.734,0,0,1,464.342,427.574Zm3.254,3.512a1.241,1.241,0,0,1-1.678-1.159v-0.08a1.782,1.782,0,0,1,1.314-1.766,1.235,1.235,0,0,1,1.431.8A1.8,1.8,0,0,1,467.6,431.086Z" transform="translate(-452 -422.515)"/>
</svg>
