<svg xmlns="http://www.w3.org/2000/svg" width="23.999" height="23.999" viewBox="0 0 18 18">
  <defs>
    <style>
      .cls-1 {
        fill: #0f7be2;
        fill-rule: evenodd;
      }
    </style>
  </defs>
  <path id="cubicCap" class="cls-1" d="M469.374,357.883c-1.776-.617-3.532-1.288-5.3-1.911a18.323,18.323,0,0,0-2.95-.972h-0.16a6.27,6.27,0,0,0-.922.228q-1.067.4-2.14,0.782c-1.756.626-3.5,1.3-5.267,1.887a0.781,0.781,0,0,0-.631.623v10.96a0.735,0.735,0,0,0,.517.588c1.538,0.487,3.036,1.087,4.557,1.622,1.242,0.437,2.457.949,3.726,1.31h0.4a10.178,10.178,0,0,0,1.027-.292q3.588-1.325,7.19-2.609A0.809,0.809,0,0,0,470,369.56V358.52A0.8,0.8,0,0,0,469.374,357.883Zm-9.127,13.266-3.449-1.266c-1-.37-2.008-0.747-3.017-1.108a0.329,0.329,0,0,1-.277-0.357c0.009-2.838.006-5.675,0.008-8.513a0.618,0.618,0,0,1,.028-0.113l6.476,2.345a0.284,0.284,0,0,1,.237.3C460.244,365.33,460.247,368.22,460.247,371.149Zm0.542-10.292c-1.849-.675-3.7-1.334-5.557-2a0.244,0.244,0,0,1-.224-0.144q2.88-1.031,5.769-2.068a0.583,0.583,0,0,1,.423-0.012c1.933,0.7,3.867,1.39,5.877,2.112-0.706.257-1.346,0.492-1.988,0.723q-1.9.683-3.807,1.362A0.663,0.663,0,0,1,460.789,360.857Zm7.5,7.921c-2.14.765-4.274,1.549-6.41,2.326a0.766,0.766,0,0,1-.128.018v-3.686c0-1.638,0-3.276,0-4.914a0.329,0.329,0,0,1,.232-0.385c2.151-.773,4.3-1.553,6.509-2.354v3.156q0,2.716,0,5.433A0.314,0.314,0,0,1,468.291,368.778Z" transform="translate(-452 -355)"/>
</svg>
