<svg xmlns="http://www.w3.org/2000/svg" width="24" height="22.738" viewBox="0 0 18.999 18">
  <defs>
    <style>
      .cls-1 {
        fill: #0f7be2;
        stroke: #f2f1f1;
        stroke-width: 1px;
        fill-rule: evenodd;
      }
    </style>
  </defs>
  <path id="dealersAddress" class="cls-1" d="M54.175,226.492a4.751,4.751,0,1,1,4.967-4.746A4.866,4.866,0,0,1,54.175,226.492Zm0-8.087a3.344,3.344,0,1,0,3.5,3.341A3.425,3.425,0,0,0,54.175,218.405ZM54.8,227.9a6.958,6.958,0,0,1,2.205.355,0.7,0.7,0,0,1,.453.9,0.745,0.745,0,0,1-.937.433,5.427,5.427,0,0,0-1.721-.277H53.7a5.119,5.119,0,0,0-5.225,4.993,0.737,0.737,0,0,1-1.472,0,6.56,6.56,0,0,1,6.7-6.4h1.1ZM60,235s-2-2.679-2-4.232a2.016,2.016,0,0,1,4,0C62,232.238,60,235,60,235Zm0-5.154a0.929,0.929,0,1,0,1.043.922A0.988,0.988,0,0,0,60,229.846Z" transform="translate(-45 -217)"/>
</svg>
