<svg xmlns="http://www.w3.org/2000/svg" width="24" height="24" viewBox="0 0 18.999 18.999">
  <defs>
    <style>
      .cls-1 {
        fill: #0f7be2;
        stroke: #f2f1f1;
        stroke-width: 1px;
        fill-rule: evenodd;
      }
    </style>
  </defs>
  <path id="dealersContact" class="cls-1" d="M259.175,226.492a4.751,4.751,0,1,1,4.968-4.746A4.866,4.866,0,0,1,259.175,226.492Zm0-8.087a3.344,3.344,0,1,0,3.5,3.341A3.425,3.425,0,0,0,259.175,218.405ZM259.8,227.9a6.959,6.959,0,0,1,2.2.355,0.7,0.7,0,0,1,.453.9,0.745,0.745,0,0,1-.937.433,5.431,5.431,0,0,0-1.721-.277h-1.1a5.119,5.119,0,0,0-5.225,4.993,0.737,0.737,0,0,1-1.472,0,6.56,6.56,0,0,1,6.7-6.4h1.1Zm1.2,5.595v0.9a0.6,0.6,0,0,0,.2.446,0.6,0.6,0,0,0,.215.126,0.612,0.612,0,0,0,.248.03,6,6,0,0,0,2.608-.924,5.884,5.884,0,0,0,1.813-1.806,5.959,5.959,0,0,0,.928-2.609,0.6,0.6,0,0,0-.03-0.246,0.58,0.58,0,0,0-.126-0.214,0.6,0.6,0,0,0-.446-0.2H265.5a0.6,0.6,0,0,0-.605.517,3.854,3.854,0,0,1-.211.846,0.6,0.6,0,0,0,.136.635l0.383,0.382a4.814,4.814,0,0,1-1.813,1.806L263,232.808a0.608,0.608,0,0,0-.638-0.136,3.879,3.879,0,0,1-.849.211,0.606,0.606,0,0,0-.377.207A0.6,0.6,0,0,0,261,233.494Z" transform="translate(-250 -216.5)"/>
</svg>
