<svg xmlns="http://www.w3.org/2000/svg" width="24" height="22.738" viewBox="0 0 18.999 18">
  <defs>
    <style>
      .cls-1 {
        fill: #0f7be2;
        stroke: #f2f1f1;
        stroke-width: 1px;
        fill-rule: evenodd;
      }
    </style>
  </defs>
  <path id="dealerName" class="cls-1" d="M468.569,166.72l-3.8,3.7a0.188,0.188,0,0,1-.134.055,0.2,0.2,0,0,1-.135-0.055l-1.531-1.489-0.2,1.415,1.007-.133a0.191,0.191,0,0,1,.215.16,0.186,0.186,0,0,1-.164.209l-1.257.166h-0.025a0.2,0.2,0,0,1-.134-0.055,0.181,0.181,0,0,1-.054-0.156l0.281-2.029a0.184,0.184,0,0,1,.054-0.106l3.8-3.7a1.5,1.5,0,0,1,2.073,0A1.4,1.4,0,0,1,468.569,166.72Zm-5.468,1.811,0.638,0.621,3.469-3.374-0.638-.621Zm5.2-3.566a1.107,1.107,0,0,0-1.457-.068l1.526,1.486A1.035,1.035,0,0,0,468.3,164.965Zm-7.125-2.473a4.751,4.751,0,1,1,4.968-4.746A4.866,4.866,0,0,1,461.175,162.492Zm0-8.087a3.344,3.344,0,1,0,3.5,3.341A3.425,3.425,0,0,0,461.175,154.405ZM461.8,163.9a6.959,6.959,0,0,1,2.2.355,0.7,0.7,0,0,1,.453.9,0.745,0.745,0,0,1-.937.433,5.431,5.431,0,0,0-1.721-.277h-1.1a5.119,5.119,0,0,0-5.225,4.993,0.737,0.737,0,0,1-1.472,0,6.56,6.56,0,0,1,6.7-6.4h1.1Z" transform="translate(-452 -153)"/>
</svg>
