<svg xmlns="http://www.w3.org/2000/svg" width="24.001" height="24" viewBox="0 0 21 20.999">
  <defs>
    <style>
      .cls-1 {
        fill: #0f7be2;
        fill-rule: evenodd;
      }
    </style>
  </defs>
  <path id="engineNo" class="cls-1" d="M68,363.3v3.522a0.343,0.343,0,0,1-.375.394H66.787a0.353,0.353,0,0,1-.38-0.4q0-3.522,0-7.044a0.355,0.355,0,0,1,.377-0.4q0.426-.006.852,0a0.338,0.338,0,0,1,.364.394Q68,361.531,68,363.3Zm-21-.043v-2.423a0.33,0.33,0,0,1,.351-0.374c0.2,0,.4,0,0.6,0a0.343,0.343,0,0,1,.355.365q0,2.424,0,4.846a0.339,0.339,0,0,1-.354.364q-0.309,0-.618,0A0.32,0.32,0,0,1,47,365.68Q47,364.468,47,363.257ZM60.99,371a0.133,0.133,0,0,1,.142-0.08A0.146,0.146,0,0,1,60.99,371Zm4.741-9c0-.112-0.038-0.127-0.126-0.125-0.27,0-.541,0-0.811,0-0.1,0-.126-0.028-0.126-0.13,0-.627,0-1.254,0-1.881a0.486,0.486,0,0,0-.534-0.553q-1.216.015-2.431,0.037a0.281,0.281,0,0,1-.228-0.1c-0.73-.761-1.464-1.518-2.193-2.279a0.609,0.609,0,0,0-.475-0.207c-0.728.007-1.457,0-2.185,0-0.095,0-.131-0.024-0.126-0.127a4.6,4.6,0,0,0,0-.484c-0.007-.117.024-0.155,0.143-0.154,0.65,0.007,1.3-.011,1.951.008,0.57,0.017.6-.206,0.582-0.656,0-.01,0-0.019,0-0.029a0.349,0.349,0,0,0-.348-0.32H52.3a0.286,0.286,0,0,0-.22.078,0.575,0.575,0,0,0-.127.475,0.377,0.377,0,0,0,.435.448c0.7,0,1.4,0,2.1,0a0.112,0.112,0,0,1,.139.144,4.562,4.562,0,0,0,0,.485c0.006,0.108-.03.136-0.132,0.135-0.692,0-1.383,0-2.075,0a0.592,0.592,0,0,0-.464.2q-0.931.98-1.868,1.952a0.6,0.6,0,0,0-.177.445c0,1.022,0,2.043,0,3.065a0.114,0.114,0,0,1-.144.14c-0.261-.006-0.522,0-0.783,0-0.1,0-.133.03-0.131,0.138,0.006,0.37.007,0.741,0,1.112,0,0.111.032,0.14,0.132,0.138,0.266,0,.531,0,0.8,0,0.073,0,.12.006,0.12,0.105,0,1.051,0,2.1,0,3.151a0.5,0.5,0,0,0,.547.583q1.677,0,3.353,0a0.25,0.25,0,0,1,.2.088c0.255,0.273.516,0.539,0.775,0.808q1.032,1.075,2.064,2.151a0.4,0.4,0,0,0,.281.176l3.875,0a0.6,0.6,0,0,1,.142-0.08,1.452,1.452,0,0,0,.116-0.1q1.634-1.68,3.267-3.361a0.538,0.538,0,0,0,.157-0.395c0-.732,0-1.464,0-2.2,0-.106.025-0.143,0.13-0.141,0.27,0,.54,0,0.811,0,0.093,0,.123-0.022.123-0.128Q65.722,363.3,65.731,361.991Zm-3.485,4.483a3.258,3.258,0,0,1-.555,1.7,3.179,3.179,0,0,1-1.39,1.174,2.951,2.951,0,0,1-1.329.264,3.224,3.224,0,0,1-1.9-.719,4.41,4.41,0,0,1-.994-1.282L55.2,366.123l-1.226-2.063c-0.442-.744-0.879-1.491-1.326-2.232a3.238,3.238,0,0,1-.44-1.053,2.27,2.27,0,0,1-.021-0.269,2.166,2.166,0,0,1,1.335-2.2,1.99,1.99,0,0,1,2.22.417c0.7,0.647,1.4,1.306,2.1,1.959q0.977,0.914,1.955,1.827c0.471,0.442.958,0.867,1.4,1.337a3.769,3.769,0,0,1,.846,1.254A3.533,3.533,0,0,1,62.246,366.474Zm-9.335-6.368a1.708,1.708,0,0,0,.056.74,0.8,0.8,0,0,1-.107-0.434A0.329,0.329,0,0,1,52.911,360.106Zm8.434,5.208a3.141,3.141,0,0,0-.769-1.068c-0.966-.926-1.954-1.827-2.931-2.741-0.8-.749-1.593-1.508-2.4-2.25a1.3,1.3,0,0,0-1.376-.3,1.429,1.429,0,0,0-.959,1.147,1.136,1.136,0,0,0,.056.74,1.306,1.306,0,0,0,.135.323c0.289,0.488.576,0.978,0.865,1.466q0.737,1.242,1.476,2.482,0.525,0.882,1.051,1.763a9.744,9.744,0,0,0,.562.931,2.381,2.381,0,0,0,2.48,1,2.311,2.311,0,0,0,1.247-.672,2.6,2.6,0,0,0,.722-1.441A2.506,2.506,0,0,0,61.345,365.314Zm-6.213-4.893a0.861,0.861,0,0,1-.611.766,0.837,0.837,0,0,1-.966-0.49,0.858,0.858,0,0,1,.478-1.135,1.113,1.113,0,0,1,.556,0A0.833,0.833,0,0,1,55.132,360.421Zm3.917,7.631a1.769,1.769,0,0,1,.014-3.537A1.77,1.77,0,0,1,59.049,368.052Zm-4.46-8.49a3.555,3.555,0,0,0-.556,0A0.658,0.658,0,0,1,54.589,359.562Z" transform="translate(-47 -352.5)"/>
</svg>
