<svg xmlns="http://www.w3.org/2000/svg" width="24" height="23.999" viewBox="0 0 18 18">
  <defs>
    <style>
      .cls-1 {
        fill: #0f7be2;
        fill-rule: evenodd;
      }
    </style>
  </defs>
  <path id="fuleType" class="cls-1" d="M901.981,157.541a3.584,3.584,0,0,0-1.413-2.955c-0.7-.546-1.393-1.1-2.049-1.7-0.355-.324-0.538-0.339-0.829.083-0.507.734-.556,0.74,0.175,1.259a1.175,1.175,0,0,1,.585,1.2,13.388,13.388,0,0,0-.01,1.459c0,1.434.365,1.83,1.766,1.863,0.295,0.007.36,0.094,0.359,0.379-0.011,2.376,0,4.753-.01,7.129a1.384,1.384,0,0,1-1.418,1.505,1.431,1.431,0,0,1-1.441-1.55c0-1.5,0-2.994,0-4.49a2.726,2.726,0,0,0-2.386-2.753,0.411,0.411,0,0,1-.445-0.512q0.033-2.217,0-4.434a1.869,1.869,0,0,0-2-2.018q-2.922-.015-5.845,0a1.9,1.9,0,0,0-2.009,2.07q0,3.816,0,7.633c0,2.6.01,5.2-.01,7.8,0,0.4.105,0.488,0.486,0.486q4.41-.027,8.822,0c0.446,0,.582-0.089.577-0.57-0.025-2.863-.013-5.725-0.012-8.588,0-.566.084-0.628,0.592-0.392a1.537,1.537,0,0,1,.891,1.537c0,1.516-.021,3.032.011,4.547a2.753,2.753,0,0,0,2.806,2.7,2.807,2.807,0,0,0,2.817-2.712C902.01,163.528,902,160.534,901.981,157.541Zm-8.477-.056a0.841,0.841,0,0,1-.942.958c-0.863.007-1.725,0-2.588,0s-1.725,0-2.587,0a0.849,0.849,0,0,1-1-.96q-0.024-1.569,0-3.139a0.873,0.873,0,0,1,1-.977q2.56-.006,5.12,0a0.89,0.89,0,0,1,1,1.034Q893.51,155.944,893.5,157.485Zm6.724,0.27a2.275,2.275,0,0,0-.5,0,0.473,0.473,0,0,1-.569-0.561c0.007-.6,0-1.195,0-1.885a2.6,2.6,0,0,1,1.4,2.063C900.578,157.631,900.553,157.805,900.228,157.755Z" transform="translate(-884.5 -152)"/>
</svg>
