<svg xmlns="http://www.w3.org/2000/svg" width="24" height="24.001" viewBox="0 0 18.999 19">
  <defs>
    <style>
      .cls-1 {
        fill: #0f7be2;
        fill-rule: evenodd;
      }
    </style>
  </defs>
  <path id="horsePower" class="cls-1" d="M262.283,353c-0.485,2.471.9,4.195,2.184,5.97,1.14,1.577,2.22,3.195,3.331,4.791,0.218,0.313.348,0.6-.081,0.849a0.7,0.7,0,0,0-.1.1,4.717,4.717,0,0,1-1.372,1.256c-0.512.176-1.029-.477-1.588-0.652a7.176,7.176,0,0,0-5.118.312c0.89-1.1.605-2.268,0.636-3.387a2.824,2.824,0,0,1,.433-1.537c0.089-.133.238-0.368,0.378-0.235a1.372,1.372,0,0,0,1.49.106c0.215-.054.649,0.2,0.6-0.211a0.765,0.765,0,0,0-.672-0.792,3.209,3.209,0,0,0-2.977,1.122,8.034,8.034,0,0,0-2.348,5.459,0.912,0.912,0,0,0,.459.863,10.146,10.146,0,0,0,5.089,1.675,0.58,0.58,0,0,1,.61.43c0.276,0.819.556,1.637,0.863,2.445,0.147,0.388-.016.435-0.359,0.434q-6.142-.009-12.286,0c-0.342,0-.464-0.074-0.45-0.435a22.322,22.322,0,0,1,7.707-16.013A21.836,21.836,0,0,1,262.283,353Z" transform="translate(-250 -353)"/>
</svg>
