<svg xmlns="http://www.w3.org/2000/svg" width="24" height="24" viewBox="0 0 20 20">
  <defs>
    <style>
      .cls-1 {
        fill: #0f7be2;
        fill-rule: evenodd;
      }
    </style>
  </defs>
  <path id="hypoTo" class="cls-1" d="M1092.74,93.809h-4.65a0.612,0.612,0,1,1-.02-1.223q4.71,0,9.41,0a0.585,0.585,0,0,1,.6.652,0.6,0.6,0,0,1-.63.572Q1095.1,93.811,1092.74,93.809Zm0,0.783h4.73a0.546,0.546,0,0,1,.61.568,0.593,0.593,0,0,1-.61.615c-3.14-.013-6.29-0.009-9.44,0a0.514,0.514,0,0,1-.56-0.326,0.667,0.667,0,0,1,.14-0.731,0.467,0.467,0,0,1,.37-0.124C1089.56,94.594,1091.15,94.592,1092.74,94.592Zm-3.12,2.939c-0.62,0-1.09,0-1.57,0a0.525,0.525,0,0,1-.61-0.6,0.55,0.55,0,0,1,.61-0.62c0.98,0,1.95-.005,2.92,0a0.6,0.6,0,0,1,.66.856,0.438,0.438,0,0,1-.37.32A13.312,13.312,0,0,1,1089.62,97.531Zm6.67-10.487c-0.86-.763-1.74-1.512-2.57-2.3a1.082,1.082,0,0,0-.8-0.268,1.467,1.467,0,0,1-.18-0.01,1.186,1.186,0,0,0-1.01.308c-0.81.716-1.65,1.405-2.5,2.085-0.08.067-.24,0.119-0.18,0.257a0.305,0.305,0,0,0,.33.128,0.9,0.9,0,0,0,.11,0c0.18-.028.23,0.036,0.23,0.21-0.01,1.036-.01,2.072-0.01,3.108,0,0.28.08,0.356,0.38,0.356h5.3c0.32,0,.43-0.092.43-0.386,0-.946,0-1.892-0.01-2.838,0-.328,0-0.34.36-0.35a0.18,0.18,0,0,0,.21-0.09A0.2,0.2,0,0,0,1096.29,87.044Zm-2.69,2.179a0.189,0.189,0,0,1-.22.229q-0.645,0-1.29,0a0.129,0.129,0,0,1-.15-0.168v-0.71h-0.01c0-.22.01-0.441,0-0.661a0.186,0.186,0,0,1,.22-0.229c0.39,0,.79,0,1.19-0.007a0.218,0.218,0,0,1,.26.248Q1093.585,88.575,1093.6,89.224Zm0.71,12.175a0.6,0.6,0,0,0-.62-0.585h-6.87c-0.34,0-.41-0.074-0.42-0.394-0.09-2.99,0-5.981-.06-8.971-0.05-2.641-.02-5.281-0.05-7.921a0.309,0.309,0,0,1,.38-0.346h12a0.3,0.3,0,0,1,.36.341c0.06,2.87.02,5.742,0.05,8.612,0.02,1.511.03,1.636,0.04,3.057a0.607,0.607,0,0,0,.62.589h0a0.613,0.613,0,0,0,.63-0.6c-0.02-2.6.02-3.831-.04-6.49-0.05-1.656-.01-3.314-0.01-4.971a2.068,2.068,0,0,0-.05-0.554,1.558,1.558,0,0,0-1.5-1.167c-0.87.02-1.75,0-2.62,0h-9.7a1.127,1.127,0,0,0-.27.032,1.556,1.556,0,0,0-1.17,1.472c-0.04,1.194.02,2.388,0.04,3.582,0.03,2.721-.02,5.442.05,8.164,0.04,1.705.01,3.412,0,5.118a1.621,1.621,0,0,0,1.7,1.628c2-.04,3.82-0.011,5.82-0.011v-0.005h1.07a0.6,0.6,0,0,0,.62-0.585h0Zm6.53,0.293a0.688,0.688,0,0,1-.53.241h-1.03a0.216,0.216,0,1,1,0-.431h1.03a0.229,0.229,0,0,0,.23-0.27,0.211,0.211,0,0,1,.18-0.255,0.217,0.217,0,0,1,.26.167A0.585,0.585,0,0,1,1100.84,101.692Zm-0.67-1.293a2.518,2.518,0,0,0-1.85-1.042l0.43,1.873a0.189,0.189,0,0,1-.06.2l-0.45.431a0.235,0.235,0,0,1-.32,0l-0.46-.431a0.21,0.21,0,0,1-.06-0.2l0.43-1.871a2.459,2.459,0,0,0-2.19,1.873,0.19,0.19,0,0,0,.05.188,0.214,0.214,0,0,0,.18.082h0.99a0.216,0.216,0,1,1,0,.431h-0.99a0.709,0.709,0,0,1-.54-0.241,0.643,0.643,0,0,1-.14-0.548,2.809,2.809,0,0,1,1.02-1.591,3.012,3.012,0,0,1,.95-0.5,1.456,1.456,0,0,1-.62-1.173,1.553,1.553,0,0,1,3.1,0,1.439,1.439,0,0,1-.63,1.172,2.984,2.984,0,0,1,1.54,1.1,0.211,0.211,0,0,1-.06.3A0.24,0.24,0,0,1,1100.17,100.4Zm-2.09,1,0.2-.2-0.2-.887-0.21.887Zm1.1-3.517a1.092,1.092,0,1,0-1.14,1.032h0.1A1.062,1.062,0,0,0,1099.18,97.885Z" transform="translate(-1083 -82)"/>
</svg>
