<svg xmlns="http://www.w3.org/2000/svg" width="24" height="24" viewBox="0 0 20 20">
  <defs>
    <style>
      .cls-1 {
        fill: #0f7be2;
        fill-rule: evenodd;
      }
    </style>
  </defs>
  <path id="hypo" class="cls-1" d="M900.957,97.4c-0.04-2.9.024-5.805-.049-8.708-0.042-1.656-.008-3.314-0.008-4.971a2.028,2.028,0,0,0-.05-0.554A1.517,1.517,0,0,0,899.39,82c-0.846.02-1.694,0-2.54,0h-9.435a1.138,1.138,0,0,0-.27.032,1.543,1.543,0,0,0-1.132,1.472c-0.04,1.194.019,2.388,0.034,3.582,0.034,2.721-.021,5.442.047,8.164,0.042,1.705.017,3.412,0.008,5.118a1.59,1.59,0,0,0,1.65,1.628c1.945-.04,3.891-0.011,5.837-0.011v-0.005q2.994,0,5.988,0a1.139,1.139,0,0,0,.616-0.165,1.574,1.574,0,0,0,.805-1.4C901.009,99.417,900.972,98.408,900.957,97.4Zm-1.583,3.414h-11.6c-0.338,0-.4-0.074-0.414-0.394-0.083-2.99,0-5.981-.058-8.971-0.048-2.641-.019-5.281-0.044-7.921a0.3,0.3,0,0,1,.365-0.346H899.3a0.3,0.3,0,0,1,.349.341c0.057,2.87.016,5.742,0.052,8.612,0.035,2.689.038,5.378,0.043,8.068,0,0.081.012,0.163,0.012,0.244A0.324,0.324,0,0,1,899.374,100.814Zm-5.843-7.005h-4.526a0.612,0.612,0,1,1-.016-1.223q4.576,0,9.152,0a0.582,0.582,0,0,1,.584.652,0.59,0.59,0,0,1-.618.572Q895.818,93.811,893.531,93.809Zm-0.006,1.616h4.6a0.539,0.539,0,0,1,.6.568,0.589,0.589,0,0,1-.593.615c-3.06-.013-6.119-0.009-9.179,0a0.5,0.5,0,0,1-.551-0.327,0.7,0.7,0,0,1,.133-0.731,0.471,0.471,0,0,1,.364-0.124Q891.211,95.429,893.525,95.425Zm-3.035,3.868c-0.6,0-1.058,0-1.519,0a0.522,0.522,0,0,1-.6-0.6,0.547,0.547,0,0,1,.6-0.62c0.946,0,1.893-.005,2.84,0a0.6,0.6,0,0,1,.64.856,0.425,0.425,0,0,1-.363.32A12.6,12.6,0,0,1,890.49,99.293Zm6.488-12.248c-0.836-.763-1.685-1.512-2.5-2.3a1.034,1.034,0,0,0-.778-0.268,1.33,1.33,0,0,1-.172-0.01,1.13,1.13,0,0,0-.985.308c-0.791.716-1.605,1.405-2.429,2.085-0.081.067-.239,0.119-0.182,0.257a0.3,0.3,0,0,0,.327.128,0.755,0.755,0,0,0,.1,0c0.174-.028.225,0.036,0.223,0.21-0.009,1.036,0,2.072,0,3.108,0,0.28.077,0.356,0.371,0.356h5.154c0.311,0,.412-0.092.412-0.386q0-1.419,0-2.838c0-.328,0-0.34.344-0.35a0.177,0.177,0,0,0,.208-0.09A0.2,0.2,0,0,0,896.978,87.044Zm-2.617,2.179a0.183,0.183,0,0,1-.208.229q-0.629,0-1.257,0c-0.128,0-.152-0.061-0.15-0.168,0-.236,0-0.473,0-0.71h0c0-.22.008-0.441,0-0.661a0.185,0.185,0,0,1,.211-0.229c0.385,0,.771,0,1.156-0.007a0.211,0.211,0,0,1,.253.248C894.351,88.359,894.353,88.792,894.361,89.224Z" transform="translate(-883.5 -82)"/>
</svg>
