<svg xmlns="http://www.w3.org/2000/svg" width="22.738" height="24" viewBox="0 0 18 18.999">
  <defs>
    <style>
      .cls-1 {
        fill: #0f7be2;
        stroke: #f2f1f1;
        stroke-width: 1px;
        fill-rule: evenodd;
      }
    </style>
  </defs>
  <path id="ManufactYear" class="cls-1" d="M263.726,294.4a0.674,0.674,0,1,1-.66.674A0.667,0.667,0,0,1,263.726,294.4Zm-8.6,7.209a0.674,0.674,0,1,1,.659-0.674A0.667,0.667,0,0,1,255.121,301.609Zm0-5.861a0.674,0.674,0,1,1,.659-0.674A0.667,0.667,0,0,1,255.121,295.748Zm0,2.93a0.674,0.674,0,1,1,.659-0.673A0.666,0.666,0,0,1,255.121,298.678Zm2.868,2.931a0.674,0.674,0,1,1,.66-0.674A0.667,0.667,0,0,1,257.989,301.609Zm0-5.861a0.674,0.674,0,1,1,.66-0.674A0.667,0.667,0,0,1,257.989,295.748Zm0,2.93a0.674,0.674,0,1,1,.66-0.673A0.666,0.666,0,0,1,257.989,298.678Zm9.232-2.122a0.667,0.667,0,0,1-.66-0.674v-3.84a1.334,1.334,0,0,0-1.319-1.347h-0.857v0.674a0.66,0.66,0,1,1-1.319,0V290.7h-3v0.674a0.659,0.659,0,1,1-1.318,0V290.7H255.78v0.674a0.659,0.659,0,1,1-1.318,0V290.7h-0.825a1.334,1.334,0,0,0-1.318,1.347v10.51a1.334,1.334,0,0,0,1.318,1.347h5.045a0.674,0.674,0,0,1,0,1.348h-5.045A2.67,2.67,0,0,1,251,302.552v-10.51a2.67,2.67,0,0,1,2.637-2.695h0.825v-0.673a0.659,0.659,0,1,1,1.318,0v0.673h2.968v-0.673a0.659,0.659,0,1,1,1.318,0v0.673h3v-0.673a0.66,0.66,0,1,1,1.319,0v0.673h0.857a2.67,2.67,0,0,1,2.638,2.695v3.84A0.667,0.667,0,0,1,267.221,296.556Zm-6.363-2.156a0.674,0.674,0,1,1-.66.674A0.667,0.667,0,0,1,260.858,294.4Zm7.051,5.1h-1.091V298h-5.091a0.739,0.739,0,0,0-.727.75v4.125h0.727a1.092,1.092,0,1,0,2.182,0h2.182a1.092,1.092,0,1,0,2.182,0H269V301Zm-5.091,3.937a0.563,0.563,0,1,1,.546-0.562A0.553,0.553,0,0,1,262.818,303.437Zm4.364,0a0.563,0.563,0,1,1,.545-0.562A0.553,0.553,0,0,1,267.182,303.437ZM266.818,301v-0.937h0.909L268.442,301h-1.624Z" transform="translate(-251 -287.125)"/>
</svg>
