<svg xmlns="http://www.w3.org/2000/svg" width="24" height="24" viewBox="0 0 20 20">
  <defs>
    <style>
      .cls-1 {
        fill: #0f7be2;
        fill-rule: evenodd;
      }
    </style>
  </defs>
  <path id="milease" class="cls-1" d="M1102.92,162.655a9.443,9.443,0,0,0-3.72-6.508,9.966,9.966,0,0,0-15.57,11.128,0.8,0.8,0,0,1,.09.453c-0.04.242,0.08,0.265,0.28,0.265q4.455-.009,8.9,0h0c2.9,0,5.8-.008,8.7.01a0.628,0.628,0,0,0,.7-0.465A9.8,9.8,0,0,0,1102.92,162.655Zm-1.69,3.512a0.31,0.31,0,0,1-.36.271c-2.64-.01-5.27-0.007-7.9-0.007-2.59,0-5.18-.005-7.77.008a0.371,0.371,0,0,1-.44-0.337,8.425,8.425,0,0,1,6.14-10.407,8.57,8.57,0,0,1,10.37,6.025A8.006,8.006,0,0,1,1101.23,166.167Zm-9.07-2.723c1.87-1.527,3.68-3.011,5.51-4.5a0.293,0.293,0,0,1-.15.312q-2.085,2.5-4.17,5.006c-0.12.152-.18,0.163-0.32,0.018C1092.76,164,1092.47,163.737,1092.16,163.444Zm1.12-1.387c-0.59.441-1.11,0.844-1.64,1.216-0.22.152-.19,0.236-0.02,0.387,0.51,0.446,1,.9,1.49,1.359,0.14,0.135.2,0.095,0.3-.039,0.39-.536.8-1.065,1.21-1.611a1.689,1.689,0,0,1-.67,1.921,1.818,1.818,0,0,1-2.17-.057,1.732,1.732,0,0,1-.59-2.01A1.874,1.874,0,0,1,1093.28,162.057Zm3.79-4.257c-0.33.482-.66,0.945-0.98,1.415-0.1.147-.17,0.227-0.35,0.08a2.016,2.016,0,0,1-.72-0.542,1.734,1.734,0,0,1,.47-0.763c0.15-.221.32-0.43,0.46-0.659,0.09-.162.16-0.2,0.32-0.079C1096.53,157.447,1096.8,157.617,1097.07,157.8Zm-3.67-.3c0,0.247-.02.5,0,0.741,0.01,0.186-.06.228-0.23,0.22a6.023,6.023,0,0,0-.76,0c-0.2.014-.22-0.073-0.22-0.233,0.01-.5.02-1.011,0-1.516,0-.178.05-0.232,0.23-0.222a6.645,6.645,0,0,0,.76,0c0.19-.012.23,0.066,0.22,0.234C1093.39,156.987,1093.4,157.246,1093.4,157.5Zm4.53,4.168a0.208,0.208,0,0,1-.06-0.058c-0.19-.277-0.37-0.555-0.55-0.834-0.06-.086.01-0.122,0.07-0.155,0.47-.305.95-0.6,1.43-0.912,0.09-.062.15-0.068,0.21,0.041,0.01,0.02.02,0.037,0.03,0.056a1.7,1.7,0,0,1,.46.78,1.315,1.315,0,0,1-.71.526c-0.24.163-.49,0.312-0.73,0.467C1098.03,161.612,1097.99,161.64,1097.93,161.672Zm-8.45-4.526c0.04,0.055.09,0.1,0.13,0.153,0.3,0.427.59,0.86,0.9,1.281,0.11,0.149.08,0.215-.07,0.3a5.512,5.512,0,0,0-.63.43c-0.15.115-.2,0.079-0.3-0.067-0.28-.436-0.59-0.857-0.9-1.282-0.07-.1-0.12-0.171.02-0.26,0.25-.148.49-0.316,0.73-0.476C1089.39,157.2,1089.43,157.18,1089.48,157.146Zm-0.77,3.554c-0.18.286-.36,0.555-0.53,0.825a0.171,0.171,0,0,1-.29.061c-0.43-.3-0.88-0.582-1.34-0.855-0.15-.094-0.15-0.157-0.05-0.295a2.056,2.056,0,0,1,.54-0.727,1.379,1.379,0,0,1,.78.429C1088.12,160.322,1088.42,160.513,1088.71,160.7Zm10.95,3.715h-0.13c-0.97.01-.97,0.01-0.9-0.983,0.01-.159.06-0.18,0.19-0.179,0.55,0.005,1.09.007,1.64,0a0.15,0.15,0,0,1,.18.2,1.544,1.544,0,0,1-.07.929,1.762,1.762,0,0,1-.91.032v0.007Zm-13.33,0c-0.02,0-.04,0-0.07,0a1.6,1.6,0,0,1-.85-0.051,2.031,2.031,0,0,1-.07-0.94,0.137,0.137,0,0,1,.17-0.173c0.54,0.006,1.09.006,1.64,0,0.14,0,.21.034,0.18,0.187v0.033a1.41,1.41,0,0,1-.08.912,1.873,1.873,0,0,1-.92.031v0Z" transform="translate(-1083 -151)"/>
</svg>
