<svg xmlns="http://www.w3.org/2000/svg" width="24" height="24.001" viewBox="0 0 17 17">
  <defs>
    <style>
      .cls-1 {
        fill: #0f7be2;
        stroke: #f2f1f1;
        stroke-width: 1px;
        fill-rule: evenodd;
      }
    </style>
  </defs>
  <path id="ownerType" class="cls-1" d="M267.545,167.257a2,2,0,0,1-1.561.743h-3a0.664,0.664,0,0,1,0-1.328h3a0.674,0.674,0,0,0,.531-0.253,0.692,0.692,0,0,0,.141-0.581,0.664,0.664,0,1,1,1.3-.271A2.015,2.015,0,0,1,267.545,167.257Zm-1.969-3.987a7.307,7.307,0,0,0-5.4-3.213l1.269,5.775a0.663,0.663,0,0,1-.179.612l-1.328,1.328a0.663,0.663,0,0,1-.939,0l-1.328-1.328a0.663,0.663,0,0,1-.179-0.612l1.268-5.768a7.337,7.337,0,0,0-6.414,5.774,0.692,0.692,0,0,0,.141.581,0.67,0.67,0,0,0,.531.253h2.9a0.664,0.664,0,1,1,0,1.328h-2.9a2.017,2.017,0,0,1-1.972-2.433,8.631,8.631,0,0,1,5.755-6.435,4.515,4.515,0,1,1,5.4,0,8.642,8.642,0,0,1,4.476,3.4A0.664,0.664,0,1,1,265.576,163.27Zm-6.109,3.093,0.6-.6-0.6-2.737-0.6,2.737Zm3.22-10.848a3.187,3.187,0,1,0-3.342,3.184h0.313A3.192,3.192,0,0,0,262.687,155.515Z" transform="translate(-251 -151)"/>
</svg>
