<svg xmlns="http://www.w3.org/2000/svg" width="24.001" height="24" viewBox="0 0 19 18.999">
  <defs>
    <style>
      .cls-1 {
        fill: #0f7be2;
        stroke: #f2f1f1;
        stroke-width: 1px;
        fill-rule: evenodd;
      }
    </style>
  </defs>
  <path id="purchaseDate" class="cls-1" d="M694.32,158.049a0.742,0.742,0,1,1-.742.742A0.743,0.743,0,0,1,694.32,158.049Zm-3.228,3.027a0.742,0.742,0,1,1-.742.742A0.742,0.742,0,0,1,691.092,161.076Zm0-3.027a0.742,0.742,0,1,1-.742.742A0.742,0.742,0,0,1,691.092,158.049Zm-6.455,7.94a0.742,0.742,0,1,1,.742-0.742A0.742,0.742,0,0,1,684.637,165.989Zm0-6.456a0.742,0.742,0,1,1,.742-0.742A0.742,0.742,0,0,1,684.637,159.533Zm0,3.228a0.742,0.742,0,1,1,.742-0.742A0.742,0.742,0,0,1,684.637,162.761Zm13.615-3.053a0.742,0.742,0,0,1-.742-0.742v-3.514a1.486,1.486,0,0,0-1.484-1.484h-0.964v0.742a0.742,0.742,0,1,1-1.484,0v-0.742H690.2v0.742a0.742,0.742,0,1,1-1.484,0v-0.742h-3.339v0.742a0.742,0.742,0,0,1-1.484,0v-0.742h-0.927a1.486,1.486,0,0,0-1.484,1.484v11.576a1.486,1.486,0,0,0,1.484,1.484h9.779a0.742,0.742,0,0,1,0,1.484h-9.779A2.971,2.971,0,0,1,680,167.028V155.452a2.971,2.971,0,0,1,2.968-2.968H683.9v-0.742a0.742,0.742,0,0,1,1.484,0v0.742h3.339v-0.742a0.742,0.742,0,1,1,1.484,0v0.742h3.376v-0.742a0.742,0.742,0,1,1,1.484,0v0.742h0.964a2.971,2.971,0,0,1,2.968,2.968v3.514A0.742,0.742,0,0,1,698.252,159.708Zm-9.645,5.539a0.777,0.777,0,0,1-1.084.682c-0.392-.144-0.4-0.272-0.4-0.682A0.742,0.742,0,1,1,688.607,165.247Zm-1.484-6.456a0.742,0.742,0,1,1,.742.742A0.742,0.742,0,0,1,687.123,158.791Zm2.431,3.355a1.545,1.545,0,1,1-1.545-1.51A1.528,1.528,0,0,1,689.554,162.146Zm-1.544-.967a0.963,0.963,0,1,0,.984.963A0.973,0.973,0,0,0,688.01,161.179Zm0,1.376a0.413,0.413,0,1,1,.422-0.413A0.417,0.417,0,0,1,688.01,162.555Zm8.035,0.409a1.089,1.089,0,0,0-.782-0.584,5.937,5.937,0,0,0-1.351-.074c-0.209,0-.231-0.025-0.232-0.249s0-.436,0-0.654a0.187,0.187,0,0,1,.209-0.224q2.183,0,4.364,0a0.19,0.19,0,0,1,.213.225c0,0.17,0,.339,0,0.509a0.179,0.179,0,0,1-.205.212c-0.4,0-.8,0-1.22,0a2.437,2.437,0,0,1,.327.775c0.017,0.079.082,0.065,0.137,0.065,0.224,0,.449,0,0.674,0s0.286,0.052.286,0.3v0.4c0,0.2-.058.27-0.244,0.273-0.242,0-.483,0-0.725,0-0.052,0-.1-0.016-0.113.08a2.2,2.2,0,0,1-1.574,1.773,1.993,1.993,0,0,1-.579.118c0.2,0.25.4,0.49,0.6,0.733,0.434,0.541.875,1.077,1.289,1.637,0.174,0.235.354,0.464,0.535,0.693a0.219,0.219,0,0,1,.051.244,0.176,0.176,0,0,1-.19.1c-0.315,0-.629,0-0.943,0a0.275,0.275,0,0,1-.228-0.127c-0.294-.37-0.584-0.742-0.877-1.112s-0.6-.762-0.908-1.137c-0.259-.316-0.529-0.623-0.793-0.935a0.362,0.362,0,0,1-.089-0.26c0.008-.218,0-0.436,0-0.654a0.145,0.145,0,0,1,.163-0.174,5.647,5.647,0,0,0,.973-0.039,1.435,1.435,0,0,0,1.216-.7c0.014-.026.026-0.053,0.039-0.079,0.06-.119.056-0.173-0.1-0.171-0.662.008-1.325,0-1.988,0-0.255,0-.3-0.052-0.3-0.319v-0.345c0-.261.045-0.308,0.3-0.309,0.511,0,1.022,0,1.533,0h0.537Z" transform="translate(-680 -151)"/>
</svg>
