<svg xmlns="http://www.w3.org/2000/svg" width="24" height="24" viewBox="0 0 20 20">
  <defs>
    <style>
      .cls-1 {
        fill: #0f7be2;
        stroke: #f2f1f1;
        stroke-width: 1px;
        fill-rule: evenodd;
      }
    </style>
  </defs>
  <path id="regAddress" class="cls-1" d="M365.73,93.844v4.4A1.758,1.758,0,0,1,363.975,100h-10.22A1.758,1.758,0,0,1,352,98.242V84.1a1.758,1.758,0,0,1,1.755-1.758h1.7a1.757,1.757,0,0,1,1.344-.778,2.144,2.144,0,0,1,4.13,0,1.754,1.754,0,0,1,1.343.778h1.7A1.758,1.758,0,0,1,365.73,84.1v4.77l3.244-3.249a1.757,1.757,0,1,1,2.483,2.486ZM361.4,83.32a0.586,0.586,0,0,0-.585-0.586h-0.39a0.586,0.586,0,0,1-.585-0.586,0.975,0.975,0,1,0-1.95,0,0.586,0.586,0,0,1-.585.586h-0.39a0.586,0.586,0,0,0-.585.586v0.2h5.07v-0.2Zm3.16,0.781a0.587,0.587,0,0,0-.585-0.586H362.57V84.1a0.585,0.585,0,0,1-.585.586h-6.24a0.586,0.586,0,0,1-.586-0.586V83.516h-1.4a0.587,0.587,0,0,0-.585.586V98.242a0.586,0.586,0,0,0,.585.586h10.22a0.586,0.586,0,0,0,.585-0.586V95.016l-0.826.827a0.583,0.583,0,0,1-.152.11l-3.31,1.657a0.586,0.586,0,0,1-.785-0.786l1.655-3.315a0.572,0.572,0,0,1,.11-0.152l3.308-3.313V84.1Zm-2.227,11.166-0.507-.508-0.507,1.015Zm0.16-1.5L363.32,94.6l4.413-4.419-0.827-.829Zm6.068-6.077-0.828.829,0.828,0.829,0.827-.829Zm2.068-1.243a0.585,0.585,0,0,0-.827,0l-0.414.414,0.828,0.829,0.413-.414A0.587,0.587,0,0,0,370.629,86.451Zm-12.923,8.787s-2.855-3.724-2.855-5.844a2.66,2.66,0,0,1,.836-1.927,2.953,2.953,0,0,1,4.038,0,2.664,2.664,0,0,1,.836,1.927C360.561,91.514,357.706,95.238,357.706,95.238Zm0-7.61a1.906,1.906,0,1,0,1.9,1.906A1.9,1.9,0,0,0,357.706,87.628Z" transform="translate(-352 -80)"/>
</svg>
