<svg xmlns="http://www.w3.org/2000/svg" width="24" height="18.545" viewBox="0 0 22 17">
  <defs>
    <style>
      .cls-1 {
        fill: #0f7be2;
        fill-rule: evenodd;
      }
    </style>
  </defs>
  <path id="regNo" class="cls-1" d="M60.378,100H47.622A4.822,4.822,0,0,1,43,95V88a4.822,4.822,0,0,1,4.622-5H60.378A4.822,4.822,0,0,1,65,88v7A4.822,4.822,0,0,1,60.378,100Zm3.228-12.287a3.116,3.116,0,0,0-2.968-3.245H47.362a3.116,3.116,0,0,0-2.968,3.245v7.573a3.116,3.116,0,0,0,2.968,3.245H60.638a3.116,3.116,0,0,0,2.968-3.245V87.714ZM54.619,94.89h3.427a0.729,0.729,0,0,1,.717.739v0.014a0.728,0.728,0,0,1-.717.739H54.619a0.728,0.728,0,0,1-.717-0.739V95.629A0.729,0.729,0,0,1,54.619,94.89Zm-4.874-3.656-2.467-.012A5.7,5.7,0,0,0,48.8,89.662a3.2,3.2,0,0,0,.691-1.67,1.717,1.717,0,0,0-.644-1.437,2.219,2.219,0,0,0-1.418-.442,2.328,2.328,0,0,0-.649.123,2.808,2.808,0,0,0-.6.246l-0.5,1.031,0.31,0.233a1.946,1.946,0,0,1,.554-0.417,1.469,1.469,0,0,1,1.5.012,0.809,0.809,0,0,1,.286.7,2.837,2.837,0,0,1-.819,1.559,4.8,4.8,0,0,1-1.922,1.473V92.29l4.195,0.025Zm6.4-1.031h-1.12V86.654H54.011l-3.229,4.432h3.134v1.277l1.108,0.025v-1.3h1.144Zm-3.7-.011,1.469-2.036V90.2Zm8.416-1.3a2.167,2.167,0,0,0-1.478-.479,2.922,2.922,0,0,0-.81.074l0.155-1.093h2.538l-0.024-.921H57.872l-0.393,2.836,0.679,0.577a0.523,0.523,0,0,1,.268-0.381,1.218,1.218,0,0,1,.733-0.2,1.054,1.054,0,0,1,.792.3,1.23,1.23,0,0,1,.292.89,1.166,1.166,0,0,1-.3.829,1.14,1.14,0,0,1-.876.325,0.831,0.831,0,0,1-.846-0.626,1.02,1.02,0,0,1-.048-0.27H57.085a1.994,1.994,0,0,0,.405,1.191,2.139,2.139,0,0,0,1.621.553,2.7,2.7,0,0,0,1.645-.467,1.817,1.817,0,0,0,.727-1.572,1.973,1.973,0,0,0-.62-1.572h0Z" transform="translate(-43 -83)"/>
</svg>
