<svg xmlns="http://www.w3.org/2000/svg" width="24.001" height="24" viewBox="0 0 21 20.999">
  <defs>
    <style>
      .cls-1 {
        fill: #0f7be2;
        fill-rule: evenodd;
      }
    </style>
  </defs>
  <path id="saleLetter" class="cls-1" d="M679,235.158c0.407-.031.813-0.081,1.22-0.088a0.44,0.44,0,0,1,.509.5,0.43,0.43,0,0,1-.5.405c-0.408-.008-0.817-0.035-1.226-0.053v-0.761Zm18.6-.017a7.661,7.661,0,0,1,1.871-.065,0.436,0.436,0,0,1,.53.483,0.443,0.443,0,0,1-.506.415c-0.148.012-.3,0.006-0.448,0.006q-7.631,0-15.26,0c-0.442,0-1.065.139-1.246-.283-0.17-.4.433-0.661,0.71-0.955,1.29-1.367,2.628-2.683,3.9-4.068,0.442-.482.754-0.5,1.143-0.016a1,1,0,0,0,.137.123c1.22,1.053.959,1.086,2.171-.04,0.525-.488.834-0.568,1.357,0.025,1.06,1.2,2.233,2.293,3.316,3.475a2.223,2.223,0,0,0,1.766.894A0.622,0.622,0,0,1,697.6,235.141Zm0,0-0.559-.009c0.279-.445-0.177-0.542-0.345-0.719-1.4-1.475-2.82-2.92-4.221-4.389-0.169-.177-0.627-0.348-0.2-0.721,1.71-1.51,3.427-3.01,5.151-4.522a1.518,1.518,0,0,1,.188,1.015c0.006,2.563-.027,5.126.028,7.688C697.649,234.042,697.2,234.585,697.6,235.141Zm-16.038.03c-0.33-3.611-.075-6.96-0.184-10.579,1.943,1.7,3.662,3.215,5.385,4.721,0.241,0.21.128,0.361-.04,0.534C685.075,231.543,683.43,233.243,681.561,235.171Zm10.874-14.494h-5.761C688.539,218.447,690.03,218.431,692.435,220.677Zm-8.4,4.83a0.581,0.581,0,0,1-.537-0.255c-1.834-1.554-1.814-1.673.477-2.764a1.114,1.114,0,0,1,.057.249C684.035,223.648,684.034,224.56,684.034,225.507ZM695,225.6v-3.094a0.441,0.441,0,0,1,.194-0.013C697.378,223.832,697.375,223.924,695,225.6Zm-1.6-3.982c-1.285.04-2.572,0.013-3.859,0.013-1.316,0-2.632.016-3.948-.009-0.474-.009-0.712.087-0.694,0.67,0.037,1.234.027,2.47,0,3.705a1.025,1.025,0,0,0,.426.868c1.252,1.081,2.5,2.164,3.728,3.277a0.556,0.556,0,0,0,.9-0.007q1.841-1.667,3.729-3.274a1.116,1.116,0,0,0,.415-0.97c-0.022-1.172-.034-2.345,0-3.515C694.127,221.8,693.963,221.6,693.4,221.621Zm-5.943,1.384c1.313,0,2.626,0,3.939,0a0.467,0.467,0,1,1-.007.931c-0.686.009-1.372,0-2.059,0-0.626,0-1.253,0-1.88,0A0.476,0.476,0,1,1,687.46,223.005Zm2.777,4.18c-0.3,0-.6,0-0.894,0h-0.8a0.456,0.456,0,0,1-.539-0.479,0.479,0.479,0,0,1,.563-0.466c0.566,0,1.132,0,1.7,0A0.477,0.477,0,1,1,690.237,227.185Zm1.078-1.619c-0.657,0-1.314,0-1.971,0-0.627,0-1.254.006-1.881,0a0.469,0.469,0,0,1-.571-0.451,0.446,0.446,0,0,1,.544-0.469q1.97-.006,3.941,0a0.447,0.447,0,0,1,.53.487A0.491,0.491,0,0,1,691.315,225.566Z" transform="translate(-679 -217)"/>
</svg>
