<svg xmlns="http://www.w3.org/2000/svg" width="24.001" height="22.738" viewBox="0 0 19 18">
  <defs>
    <style>
      .cls-1 {
        fill: #0f7be2;
        fill-rule: evenodd;
      }
    </style>
  </defs>
  <path id="seatingCap" class="cls-1" d="M257.928,430.438c0.189,0.738.361,1.41,0.531,2.083,0.123,0.485.252,0.968,0.36,1.455a0.333,0.333,0,0,0,.4.313c1.344-.016,2.687,0,4.03-0.011a0.87,0.87,0,0,1,.58.2q2.487,1.931,4.987,3.847c0.207,0.158.274,0.25,0.042,0.452a12.641,12.641,0,0,0-.975.962,0.291,0.291,0,0,1-.486.036c-1.046-.832-2.112-1.64-3.161-2.468a0.857,0.857,0,0,0-.577-0.19q-3.057.007-6.115,0a2.832,2.832,0,0,1-2.907-2.3q-0.641-2.751-1.267-5.5a2.092,2.092,0,0,1,.949-2.263,2.17,2.17,0,0,1,2.452.1c0.529,0.389,1.04.8,1.567,1.194a5.768,5.768,0,0,0,4.288,1.227c0.166-.021.231,0.011,0.227,0.192-0.01.524-.012,1.049,0,1.573,0,0.2-.081.242-0.266,0.266a6.581,6.581,0,0,1-3.5-.609C258.721,430.834,258.368,430.649,257.928,430.438Zm1.578,9.526c-0.983-.034-2.2.069-3.409-0.044a4.761,4.761,0,0,1-4.2-3.762q-0.929-4.579-1.878-9.155c-0.051-.245-0.007-0.305.238-0.3,0.447,0.015.9,0.018,1.343,0a0.287,0.287,0,0,1,.344.283q0.675,3.245,1.359,6.485c0.17,0.808.327,1.618,0.507,2.423a2.866,2.866,0,0,0,2.917,2.17c2.086,0,4.172.007,6.257-.006,0.288,0,.391.055,0.369,0.357a9.4,9.4,0,0,0,0,1.222c0.014,0.259-.056.336-0.328,0.332C261.928,439.954,260.832,439.964,259.506,439.964Zm-7.146-16.082a1.87,1.87,0,0,1,1.9-1.882,1.9,1.9,0,0,1,1.924,1.9,1.92,1.92,0,0,1-1.93,1.876A1.893,1.893,0,0,1,252.36,423.882Z" transform="translate(-250 -422)"/>
</svg>
