<svg xmlns="http://www.w3.org/2000/svg" width="22.957" height="24" viewBox="0 0 22 23">
  <defs>
    <style>
      .cls-1 {
        fill: #0f7be2;
        stroke: #f2f1f1;
        stroke-width: 1px;
        fill-rule: evenodd;
      }
    </style>
  </defs>
  <path id="vehicleType" class="cls-1" d="M62,155H59v-4H45a2,2,0,0,0-2,2v11h2a3,3,0,0,0,6,0h6a3,3,0,0,0,6,0h2v-5ZM48,165.5a1.5,1.5,0,1,1,1.5-1.5A1.5,1.5,0,0,1,48,165.5Zm12,0a1.5,1.5,0,1,1,1.5-1.5A1.5,1.5,0,0,1,60,165.5ZM59,159v-2.5h2.5l1.965,2.5H59Zm-7.508-6.008a2.852,2.852,0,0,0-1.338.3,2.029,2.029,0,0,0-.861.824,2.343,2.343,0,0,0-.282,1.2h1.43a1.021,1.021,0,0,1,.276-0.758,1.051,1.051,0,0,1,.775-0.274,1,1,0,0,1,.753.285,1.06,1.06,0,0,1,.276.769,0.937,0.937,0,0,1-.509.923,3.352,3.352,0,0,1-1.452.252H50.073l0.054,1.867h1.333l0.043-.845a2.745,2.745,0,0,0,1.809-.566,2.01,2.01,0,0,0,.682-1.642,2.184,2.184,0,0,0-.688-1.708,2.605,2.605,0,0,0-1.815-.621h0ZM50.788,161a0.9,0.9,0,0,0,.661-0.258,0.924,0.924,0,0,0,0-1.285,0.9,0.9,0,0,0-.661-0.258,0.931,0.931,0,0,0-.677.258,0.91,0.91,0,0,0,0,1.285,0.931,0.931,0,0,0,.677.258h0Z" transform="translate(-43 -147.5)"/>
</svg>
