<svg xmlns="http://www.w3.org/2000/svg" width="22.738" height="24" viewBox="0 0 18 18.999">
  <defs>
    <style>
      .cls-1 {
        fill: #0f7be2;
        stroke: #f2f1f1;
        stroke-width: 1px;
        fill-rule: evenodd;
      }
    </style>
  </defs>
  <path id="vehicleClass" class="cls-1" d="M467.545,224.25h-2.454V221H453.636A1.63,1.63,0,0,0,452,222.625v8.938h1.636a2.455,2.455,0,0,0,4.909,0h4.91a2.455,2.455,0,0,0,4.909,0H470V227.5Zm-11.454,8.531a1.219,1.219,0,1,1,1.227-1.219A1.221,1.221,0,0,1,456.091,232.781Zm9.818,0a1.219,1.219,0,1,1,1.227-1.219A1.221,1.221,0,0,1,465.909,232.781Zm-0.818-5.281v-2.031h2.045l1.608,2.031h-3.653Zm-6.143-4.881a2.345,2.345,0,0,0-1.095.241,1.66,1.66,0,0,0-.7.669,1.9,1.9,0,0,0-.23.973h1.17a0.825,0.825,0,0,1,.226-0.616,0.863,0.863,0,0,1,.634-0.223,0.819,0.819,0,0,1,.616.232,0.861,0.861,0,0,1,.226.625,0.758,0.758,0,0,1-.417.749,2.748,2.748,0,0,1-1.188.206h-0.4l0.044,1.517h1.09l0.036-.687a2.258,2.258,0,0,0,1.48-.46,1.628,1.628,0,0,0,.558-1.334,1.766,1.766,0,0,0-.563-1.388,2.141,2.141,0,0,0-1.484-.5h0Zm-0.576,6.506a0.737,0.737,0,0,0,.54-0.21,0.746,0.746,0,0,0,0-1.044,0.737,0.737,0,0,0-.54-0.21,0.762,0.762,0,0,0-.554.21,0.734,0.734,0,0,0,0,1.044,0.762,0.762,0,0,0,.554.21h0Z" transform="translate(-452 -218)"/>
</svg>
