<svg xmlns="http://www.w3.org/2000/svg" width="24.004" height="24" viewBox="0 0 83 82.988">
  <defs>
    <style>
      .cls-1 {
        fill: #06f;
        fill-rule: evenodd;
      }
    </style>
  </defs>
  <path id="ATDview" class="cls-1" d="M557.557,142q-19.074,0-38.149,0-18.983,0-37.964,0c-2.939,0-3.442-.505-3.443-3.428q0-26.572,0-53.145c0-2.919.5-3.423,3.449-3.423q38.057,0,76.113,0c2.94,0,3.436.5,3.436,3.429q0,26.573,0,53.145C561,141.5,560.5,142,557.557,142Zm-38.664-4.028c-1.163-2.641-2.155-5.066-3.289-7.421A15.35,15.35,0,0,0,510.09,124c-0.913-.58-1.637-0.979-2.484.37-1.494,2.381-3.274,4.581-4.94,6.852-1.3,1.776-2.657,1.774-3.972-.01-1.5-2.027-2.979-4.064-4.472-6.092s-1.721-2.083-3.722-.574c-4.461,3.365-5.963,8.511-8.142,13.424h36.535Zm-14.877-15.511h-6.942l3.551,4.868A40.208,40.208,0,0,0,504.016,122.458Zm13.9-36.5c-11.414.031-22.829,0.056-34.242-.024-1.569-.011-1.738.55-1.734,1.876,0.042,13.063.025,26.126,0.025,39.188v1.613l0.349,0.047c0.431-.729.835-1.475,1.3-2.184,3.278-5.027,7.738-7.92,13.9-7.787,2.467,0.053,4.938-.06,7.4.024a14.757,14.757,0,0,1,10.656,5.021,60.32,60.32,0,0,1,3.908,5.518c0-14.234-.022-28.04.035-41.845C519.516,86.051,519,85.952,517.912,85.955Zm39.127,26.194c0-8.241-.018-16.483.022-24.724,0-1.06-.148-1.49-1.372-1.483q-15.562.083-31.124,0c-1.206-.006-1.385.378-1.383,1.463q0.051,24.63-.008,49.261c0,1.219.393,1.386,1.463,1.382q15.47-.059,30.939.008c1.262,0.007,1.5-.392,1.488-1.555C557.016,128.384,557.039,120.266,557.039,112.149Zm-9.785,16.578c-1.227.124-2.368,0-2.821-1.373a1.562,1.562,0,0,1,.987-2.082c1.437-.467,3.03-0.717,4.327.261a1.811,1.811,0,0,1,.173,2.5C549.253,129.1,548.169,128.613,547.254,128.727Zm0.583-21.557c-2.406-.012-4.812,0-7.218,0s-4.812-.017-7.218.006c-1.386.014-2.3-.6-2.385-1.992-0.086-1.451,1.067-1.934,2.208-1.95q7.4-.1,14.8,0c1.207,0.017,2.353.44,2.229,2.064C550.142,106.814,549.145,107.177,547.837,107.17Zm-4.5-8.159c-3.454-.014-6.909.014-10.362-0.02a1.862,1.862,0,1,1,0-3.715c1.726-.029,3.454-0.007,5.181-0.007s3.455,0.025,5.181-.008a1.792,1.792,0,0,1,2.034,1.869A1.814,1.814,0,0,1,543.333,99.011Zm-10.507,26.007c2.083-.058,4.171-0.057,6.253.011a1.869,1.869,0,0,1-.106,3.693c-1.041.03-2.085,0.007-3.127,0.007-0.981,0-1.963.021-2.943,0a1.765,1.765,0,0,1-1.875-1.817A1.738,1.738,0,0,1,532.826,125.018Zm-32.817-10.361a10.744,10.744,0,0,1-10.209-11.4c0.483-6.083,5.712-11.16,11.072-10.538,7.481,0.869,10.825,5.446,10.691,11.261C511.4,111.218,505.721,114.969,500.009,114.657Zm0.858-17.9a7.068,7.068,0,1,0,6.776,7.11A6.8,6.8,0,0,0,500.867,96.756Z" transform="translate(-478 -70.506)"/>
</svg>
