<svg xmlns="http://www.w3.org/2000/svg" width="28.837" height="32.229" viewBox="0 0 28.837 32.229">
  <path id="mobile_no" data-name="mobile no" d="M113.4,131.661h-4.345l-6.866,3.917a.24.24,0,0,1-.119.032.244.244,0,0,1-.227-.328l1.334-3.62H100.04a2.165,2.165,0,0,1-2.156-2.174v-7.5a2.165,2.165,0,0,1,2.156-2.174H113.4a2.165,2.165,0,0,1,2.156,2.174v7.5A2.165,2.165,0,0,1,113.4,131.661Zm-24.077-6.756v21.344a.488.488,0,0,0,.486.49h12.243a.489.489,0,0,0,.486-.49v-8.136c.042.041.068.093.113.132.478.413,1.106-.924,1.755-.924a2.68,2.68,0,0,0,.735-.109V149.7a2.338,2.338,0,0,1-2.328,2.348H89.05a2.338,2.338,0,0,1-2.328-2.348V124.266a2.339,2.339,0,0,1,2.328-2.349h6.356v2.5H89.812A.488.488,0,0,0,89.326,124.905Zm6.608,25.814a1.483,1.483,0,1,0-1.471-1.483A1.478,1.478,0,0,0,95.934,150.719Z" transform="translate(-86.722 -119.817)" fill="#757575" fill-rule="evenodd"/>
</svg>
