<svg id="Group_273" data-name="Group 273" xmlns="http://www.w3.org/2000/svg" width="27.474" height="31.727" viewBox="0 0 27.474 31.727">
  <path id="Path_269" data-name="Path 269" d="M199.137,212.358a13.235,13.235,0,1,1,13.24,13.239A13.171,13.171,0,0,1,199.137,212.358Zm13.238-10.72A10.737,10.737,0,1,0,223.1,212.329,10.79,10.79,0,0,0,212.375,201.638Z" transform="translate(-198.134 -193.87)" fill="#fff"/>
  <path id="Path_270" data-name="Path 270" d="M252.721,175.17v3.292c-.6.248-1.7-.306-1.348,1.08h-2.46l-.2-.9-1.214-.155V175.17Z" transform="translate(-235.863 -175.17)" fill="#fff"/>
  <path id="Path_271" data-name="Path 271" d="M197.7,199.934l-1.244-1.174-1.074.981-.812-1.349,3.538-3.523.943,1.2-.748.87,1.191,1.251Z" transform="translate(-194.575 -190.538)" fill="#fff"/>
  <path id="Path_272" data-name="Path 272" d="M229.71,221.646v8.238h8.332a8.34,8.34,0,1,1-16.651-.628C221.618,225.091,225.66,221.36,229.71,221.646Z" transform="translate(-215.485 -211.416)" fill="#fff"/>
</svg>
