<svg xmlns="http://www.w3.org/2000/svg" width="27.604" height="26.703" viewBox="0 0 27.604 26.703">
  <g id="submit" transform="translate(-354.942 -386.477)">
    <path id="Path_273" data-name="Path 273" d="M376.428,409.981c-2.833-1.145-5.64-2.279-8.447-3.411-.5-.2-1-.383-1.491-.587a2.5,2.5,0,0,1-.542-.3,1.2,1.2,0,0,1-.356-1.609,4.308,4.308,0,0,1,.618-.779q4.191-4.5,8.391-8.987,1.348-1.443,2.691-2.89c.114-.123.207-.265.31-.4l-.043-.051a2.076,2.076,0,0,0-.255.146c-.651.5-1.3,1-1.949,1.51q-5.647,4.45-11.292,8.9l-1.273,1a3.965,3.965,0,0,1-1.951.757,4.614,4.614,0,0,1-2.489-.457c-.831-.349-1.678-.661-2.512-1a2.431,2.431,0,0,1-.619-.364.648.648,0,0,1-.064-1.013,2.293,2.293,0,0,1,.588-.44q3.094-1.635,6.2-3.253l11.235-5.891q3.946-2.069,7.895-4.134a2.457,2.457,0,0,1,.744-.249.6.6,0,0,1,.733.653,3.45,3.45,0,0,1-.122.812q-1.184,4.389-2.383,8.774l-3.455,12.694C376.535,409.607,376.481,409.793,376.428,409.981Z" transform="translate(0 0)" fill="#fff"/>
    <path id="Path_274" data-name="Path 274" d="M382.645,461.79q-1.117-2.778-2.242-5.576a1.881,1.881,0,0,1-.206-.964.548.548,0,0,1,.538-.506,1.773,1.773,0,0,1,.819.17c.834.341,1.671.676,2.5,1.028a1.686,1.686,0,0,1,.8,2.535c-.7,1.088-1.426,2.155-2.141,3.231A.7.7,0,0,1,382.645,461.79Z" transform="translate(-17.976 -48.61)" fill="#fff"/>
  </g>
</svg>
