<svg xmlns="http://www.w3.org/2000/svg" width="20" height="20" viewBox="0 0 20 20">
  <defs>
    <style>
      .cls-1 {
        fill: #009cff;
        fill-rule: evenodd;
      }
    </style>
  </defs>
  <path id="freeze" class="cls-1" d="M340.235,191.091a0.77,0.77,0,0,0-.765.773v3.477a0.382,0.382,0,1,1-.764,0v-5.023a0.765,0.765,0,1,0-1.53,0v5.023a0.382,0.382,0,1,1-.764,0v-6.568a0.765,0.765,0,1,0-1.53,0v6.568a0.383,0.383,0,1,1-.765,0v-5.023a0.765,0.765,0,1,0-1.529,0v8.114a0.388,0.388,0,0,1-.181.328,0.38,0.38,0,0,1-.372.017l-2.656-1.341a1.516,1.516,0,0,0-.683-0.163,0.707,0.707,0,0,0-.492,1.2l4.945,5A5.09,5.09,0,0,0,336.793,205h0A4.233,4.233,0,0,0,341,200.75v-8.886A0.77,0.77,0,0,0,340.235,191.091Z" transform="translate(-324.5 -186.5)"/>
</svg>
