<svg xmlns="http://www.w3.org/2000/svg" width="24.005" height="24.005" viewBox="0 0 157 157">
  <defs>
    <style>
      .cls-1 {
        fill: #dd580f;
        fill-rule: evenodd;
      }
    </style>
  </defs>
  <path id="thumbUnchecked" class="cls-1" d="M1683.32,765.868c-23.83-.093-42.32-18.822-42.18-42.735A42.25,42.25,0,0,1,1684.06,681c23.33,0.108,42.23,19.463,41.94,43.257C1725.71,748.785,1704.62,766.791,1683.32,765.868Zm-40.71-14.308c-0.68,2.828-3.57,4.338-6.96,3.393-25.21-7.033-47.89,10.285-52.14,32.9a41.207,41.207,0,0,0,7.69,33.315c2.72,3.663,2.93,5.878.73,8.065-2.43,2.428-5.33,1.992-7.97-1.365a49.518,49.518,0,0,1-10.7-26.781c-0.09-.93-0.18-1.859-0.26-2.788-2.25-25.839,18.96-51.39,44.85-54.341a53.8,53.8,0,0,1,20.03,1.483C1641.41,746.367,1643.28,748.777,1642.61,751.56Zm-12.33-12.824c-1.4-.126-2.79-0.192-5.22-0.355-18.36.173-34.07,7.721-45.91,23.162-0.43.554-.82,1.135-1.28,1.663-1.96,2.281-4.37,2.75-6.8,1.034-2.5-1.766-2.6-4.3-1.09-6.786a51.822,51.822,0,0,1,10.91-12.2c14.56-12.474,31.34-18.247,50.57-16.115,3.86,0.428,5.49,2.425,5.06,5.637C1636.16,737.557,1633.78,739.052,1630.28,738.736Zm0.48-14.913c-1.86.028-3.72,0-5.59,0-14.85-.239-27.97,4.527-39.5,13.835-1.61,1.292-3.13,3.06-5.43,2.695a5.125,5.125,0,0,1-4.41-3.485c-0.79-2.376.3-4.025,1.98-5.482a71.121,71.121,0,0,1,31.98-16.035,80.579,80.579,0,0,1,21.17-1.371c3.27,0.156,5.47,2.419,5.34,5.248C1636.18,721.869,1633.9,723.775,1630.76,723.823Zm-6.11,34.6a37.346,37.346,0,0,1,36.92,36.286c0.06,3.515-1.96,5.964-4.93,5.968-2.78,0-4.63-2.155-4.89-5.663-0.84-11.579-6.26-20.339-17.04-24.711-10.18-4.125-19.85-2.271-28.28,5.078-8.9,7.759-11.33,20.444-6.02,32.294a75.879,75.879,0,0,0,14.38,20.91c2.93,3.113,3.23,5.882.76,8.178-2.2,2.031-5.25,1.561-7.89-1.392-8.44-9.436-16.05-19.414-18.95-32.085C1583.47,780.358,1601.12,758.406,1624.65,758.419Zm-21.55,43.814c-2.83-12.441,4.79-25.2,16.43-28.126a22.1,22.1,0,0,1,27.3,20.9c0.05,2.312-.21,4.636.73,6.89a9.819,9.819,0,0,0,18.94-3.238,43.262,43.262,0,0,0-5.13-22.153c-0.84-1.594-1.56-3.166-.99-4.97a4.766,4.766,0,0,1,4.06-3.423c2.27-.3,3.96.8,5.1,2.852,4.43,7.992,6.68,16.548,6.88,28.089,0.21,6.488-3.42,13.267-11.48,17.085-7.39,3.5-14.59,2.432-20.91-2.767a18.472,18.472,0,0,1-6.95-13.917,50.635,50.635,0,0,0-.24-5.237,12.293,12.293,0,0,0-12.79-10.924c-5.93.2-11.11,5.772-11.51,12.415-0.51,8.565,3.61,15.271,9.01,21.237,4.68,5.165,9.65,10.063,17,11.548a4.279,4.279,0,0,1,3.27,5.128,4.767,4.767,0,0,1-4.75,4.31,11.958,11.958,0,0,1-6.36-1.621C1616.79,828.812,1606.7,818.044,1603.1,802.233Zm16.43-7.207c-0.31-2.511.03-4.74,2.47-6.046a4.714,4.714,0,0,1,5.26.4c1.94,1.388,2.05,3.479,2.12,5.624,0.38,10.6,8.91,22.125,18.33,25.008a24.558,24.558,0,0,0,3.77.539c3.21,0.473,5.05,2.5,4.74,5.365-0.32,3.089-2.24,4.4-5.24,4.42-5.72.035-10.62-2.193-15.08-5.533C1625.94,817.354,1620.39,807.458,1619.53,795.026Zm76.97-53.254-13.08-13.079-13.07,13.075a3.288,3.288,0,0,1-4.65-4.649l13.07-13.075-11.55-11.552a3.287,3.287,0,1,1,4.65-4.646l11.55,11.553,11.55-11.549a3.288,3.288,0,0,1,4.65,4.649l-11.55,11.548,13.08,13.079A3.287,3.287,0,1,1,1696.5,741.772Z" transform="translate(-1569 -681)"/>
</svg>
