<svg id="Approve" xmlns="http://www.w3.org/2000/svg" width="81.656" height="15.406" viewBox="0 0 81.656 15.406">
  <defs>
    <style>
      .cls-1 {
        fill: #1da7ff;
        fill-rule: evenodd;
      }
    </style>
  </defs>
  <path id="Shape_430_1" data-name="Shape 430 1" class="cls-1" d="M513.476,77A7.5,7.5,0,1,1,521,69.525,7.494,7.494,0,0,1,513.476,77ZM513.5,63.194a6.3,6.3,0,1,0,6.308,6.3A6.317,6.317,0,0,0,513.5,63.194Zm3.636,4.774q-2.077,1.973-4.166,3.937a0.625,0.625,0,0,1-.993-0.016q-1.071-1.086-2.12-2.194a0.6,0.6,0,1,1,.84-0.837c0.536,0.539,1.076,1.075,1.589,1.634,0.182,0.2.272,0.163,0.442,0,1.143-1.1,2.3-2.19,3.447-3.283a1.412,1.412,0,0,1,.4-0.3,0.581,0.581,0,0,1,.829.547A0.656,0.656,0,0,1,517.133,67.968Z" transform="translate(-506 -62)"/>
  <path id="Approve-2" data-name="Approve" class="cls-1" d="M532.972,73.712h2.076l-3.521-9.768h-2.286l-3.521,9.768h2.062l0.645-1.859h3.9Zm-4.012-3.424,1.417-4.08,1.417,4.08H528.96Zm9.707-3.2V65.97H536.7V77.4h1.963V72.608a3.239,3.239,0,0,0,1.06.88,3.144,3.144,0,0,0,1.508.349,3.338,3.338,0,0,0,1.8-.5,3.529,3.529,0,0,0,1.277-1.418,4.543,4.543,0,0,0,.47-2.1,4.459,4.459,0,0,0-.47-2.089,3.451,3.451,0,0,0-1.277-1.39,3.41,3.41,0,0,0-1.8-.489,3.175,3.175,0,0,0-1.522.356,2.98,2.98,0,0,0-1.046.887h0Zm4.111,2.725a2.488,2.488,0,0,1-.288,1.23,2.081,2.081,0,0,1-.757.8,1.986,1.986,0,0,1-2.02.007,2.024,2.024,0,0,1-.758-0.79,2.71,2.71,0,0,1,0-2.431,2.026,2.026,0,0,1,.758-0.79,1.965,1.965,0,0,1,1-.272,2.039,2.039,0,0,1,1.017.266,1.991,1.991,0,0,1,.757.776,2.419,2.419,0,0,1,.288,1.209h0Zm5.737-2.725V65.97h-1.964V77.4h1.964V72.608a3.225,3.225,0,0,0,1.059.88,3.147,3.147,0,0,0,1.508.349,3.333,3.333,0,0,0,1.8-.5,3.522,3.522,0,0,0,1.277-1.418,4.543,4.543,0,0,0,.47-2.1,4.459,4.459,0,0,0-.47-2.089,3.444,3.444,0,0,0-1.277-1.39,3.405,3.405,0,0,0-1.8-.489,3.175,3.175,0,0,0-1.522.356,2.977,2.977,0,0,0-1.045.887h0Zm4.11,2.725a2.488,2.488,0,0,1-.288,1.23,2.074,2.074,0,0,1-.757.8,1.986,1.986,0,0,1-2.02.007,2.024,2.024,0,0,1-.758-0.79,2.718,2.718,0,0,1,0-2.431,2.026,2.026,0,0,1,.758-0.79,1.965,1.965,0,0,1,1-.272,2.036,2.036,0,0,1,1.017.266,1.984,1.984,0,0,1,.757.776,2.419,2.419,0,0,1,.288,1.209h0Zm5.737-2.641v-1.2H556.4v7.742h1.964V69.855a1.635,1.635,0,0,1,1.866-1.942h0.519V65.859a2.7,2.7,0,0,0-2.385,1.314h0Zm7.491,6.665a4.257,4.257,0,0,0,2.055-.5,3.735,3.735,0,0,0,1.459-1.4,4.023,4.023,0,0,0,.54-2.1,4.1,4.1,0,0,0-.526-2.1,3.651,3.651,0,0,0-1.438-1.4,4.418,4.418,0,0,0-4.068,0,3.651,3.651,0,0,0-1.438,1.4,4.113,4.113,0,0,0-.526,2.1,4.2,4.2,0,0,0,.512,2.1,3.573,3.573,0,0,0,1.41,1.4,4.1,4.1,0,0,0,2.02.5h0Zm0-1.7a1.827,1.827,0,0,1-1.4-.594,2.4,2.4,0,0,1-.554-1.7,2.359,2.359,0,0,1,.568-1.7,1.874,1.874,0,0,1,1.41-.594,1.918,1.918,0,0,1,1.424.594,2.326,2.326,0,0,1,.582,1.7,2.605,2.605,0,0,1-.281,1.258,1.881,1.881,0,0,1-.75.776,2.051,2.051,0,0,1-1,.258h0Zm7.112-6.162h-2.1l2.861,7.742h2.385l2.876-7.742h-2.09l-1.964,5.939Zm14.687,3.7a4.075,4.075,0,0,0-.484-2.005,3.358,3.358,0,0,0-1.361-1.349,4.429,4.429,0,0,0-4.019.014,3.417,3.417,0,0,0-1.374,1.4,4.362,4.362,0,0,0-.491,2.11,4.278,4.278,0,0,0,.5,2.1,3.487,3.487,0,0,0,1.388,1.4,4.066,4.066,0,0,0,2.013.5,3.778,3.778,0,0,0,2.343-.72,3.521,3.521,0,0,0,1.29-1.838h-2.118a1.6,1.6,0,0,1-1.557.936,1.817,1.817,0,0,1-1.276-.475,1.923,1.923,0,0,1-.59-1.314H587.6a4.645,4.645,0,0,0,.056-0.754h0Zm-5.724-.559a1.934,1.934,0,0,1,.611-1.223,1.786,1.786,0,0,1,1.227-.44,1.947,1.947,0,0,1,1.305.454,1.552,1.552,0,0,1,.547,1.209h-3.69Z" transform="translate(-506 -62)"/>
</svg>
