<svg xmlns="http://www.w3.org/2000/svg" width="20" height="20" viewBox="0 0 20 20">
  <defs>
    <style>
      .cls-1 {
        fill: #108bff;
        fill-rule: evenodd;
      }
    </style>
  </defs>
  <path id="approved" class="cls-1" d="M1138.47,475A10.5,10.5,0,1,1,1149,464.535,10.5,10.5,0,0,1,1138.47,475Zm5.12-12.645q-2.91,2.762-5.84,5.511a0.875,0.875,0,0,1-1.39-.023q-1.5-1.521-2.96-3.071a0.836,0.836,0,1,1,1.17-1.173c0.75,0.755,1.51,1.5,2.23,2.289,0.25,0.277.38,0.228,0.61,0,1.61-1.54,3.22-3.066,4.83-4.6a2.007,2.007,0,0,1,.56-0.42,0.814,0.814,0,0,1,1.16.767A0.913,0.913,0,0,1,1143.59,462.355Z" transform="translate(-1128.5 -454.5)"/>
</svg>
