<svg xmlns="http://www.w3.org/2000/svg" width="20.03" height="20" viewBox="0 0 20.03 20">
  <defs>
    <style>
      .cls-1 {
        fill: #adadad;
        fill-rule: evenodd;
      }
    </style>
  </defs>
  <path id="edit" class="cls-1" d="M1191.2,405.667l-9.41,9.409a0.689,0.689,0,0,1-.28.173l-4.28,1.429a0.766,0.766,0,0,1-.23.036,0.737,0.737,0,0,1-.23-0.037,0.72,0.72,0,0,1-.45-0.9l1.43-4.286a0.916,0.916,0,0,1,.17-0.279l9.41-9.408A2.735,2.735,0,1,1,1191.2,405.667Zm-1.01-2.851a1.309,1.309,0,0,0-1.85,0l-9.29,9.286-0.92,2.77,2.77-.926,9.29-9.286A1.306,1.306,0,0,0,1190.19,402.816Zm-7.48,1.041h-8.57a0.713,0.713,0,0,0-.71.714v14.286a0.714,0.714,0,0,0,.71.714H1187a0.714,0.714,0,0,0,.71-0.714v-7.143a0.715,0.715,0,0,1,1.43,0v7.143A2.143,2.143,0,0,1,1187,421h-12.86a2.143,2.143,0,0,1-2.14-2.143V404.571a2.142,2.142,0,0,1,2.14-2.143h8.57A0.715,0.715,0,1,1,1182.71,403.857Z" transform="translate(-1172 -401)"/>
</svg>
