<?xml version="1.0" encoding="utf-8"?>
<!-- Generator: Adobe Illustrator 24.2.1, SVG Export Plug-In . SVG Version: 6.00 Build 0)  -->
<svg version="1.1" id="Layer_1" xmlns="http://www.w3.org/2000/svg" xmlns:xlink="http://www.w3.org/1999/xlink" x="0px" y="0px"
	 viewBox="0 0 67 20" style="enable-background:new 0 0 67 20;" xml:space="preserve">
<style type="text/css">
	.st0{fill-rule:evenodd;clip-rule:evenodd;fill:#0071DC;}
	.st1{fill:#0071DC;}
</style>
<path id="export_" class="st0" d="M64.5,16.3h-1.3c-0.5,0-0.8-0.4-0.8-0.8c0-0.5,0.4-0.8,0.8-0.8h1.3c0.5,0,0.8-0.4,0.8-0.8V5.2
	c0-0.5-0.4-0.8-0.8-0.8h-9c-0.2,0-0.4-0.1-0.6-0.2l-1.4-1.4h-4c-0.5,0-0.8,0.4-0.8,0.8v10.2c0,0.5,0.4,0.8,0.8,0.8h1.2
	c0.5,0,0.8,0.4,0.8,0.8c0,0.5-0.4,0.8-0.8,0.8h-1.2c-1.4,0-2.5-1.1-2.5-2.5V3.5C47,2.2,48.2,1,49.5,1h4.4c0.2,0,0.4,0.1,0.6,0.2
	l1.4,1.4h8.6c1.4,0,2.5,1.1,2.5,2.5v8.6C67,15.1,65.9,16.3,64.5,16.3z M57.1,12.2c0.5,0,0.8,0.4,0.8,0.8v2.7h1
	c0.3,0,0.6,0.3,0.6,0.6c0,0.2-0.1,0.3-0.2,0.4l-1.9,1.9c-0.2,0.2-0.6,0.2-0.9,0c0,0,0,0,0,0l-1.9-1.9c-0.2-0.2-0.2-0.7,0-0.9
	c0.1-0.1,0.3-0.2,0.4-0.2h1v-2.7C56.3,12.6,56.7,12.2,57.1,12.2z M60.4,12.2c-0.5,0-0.8-0.4-0.8-0.8v-0.8h-4.9v0.8
	c0,0.5-0.4,0.8-0.8,0.8S53,11.8,53,11.4v-0.8c0-0.9,0.7-1.7,1.6-1.7h4.9c0.9,0,1.7,0.8,1.6,1.7v0.8C61.3,11.9,60.9,12.2,60.4,12.2
	C60.4,12.2,60.4,12.2,60.4,12.2z"/>
<g>
	<path class="st1" d="M8.3,14c0,0.1,0,0.2,0,0.2c0,0.1,0,0.1-0.1,0.2c0,0-0.1,0.1-0.1,0.1s-0.1,0-0.1,0H3.2c-0.1,0-0.2,0-0.3-0.1
		c-0.1-0.1-0.2-0.2-0.2-0.4v-9c0-0.2,0.1-0.3,0.2-0.4C2.9,4.6,3,4.5,3.2,4.5h4.8c0,0,0.1,0,0.1,0c0,0,0.1,0.1,0.1,0.1
		c0,0,0,0.1,0.1,0.2c0,0.1,0,0.2,0,0.3c0,0.1,0,0.2,0,0.2c0,0.1,0,0.1-0.1,0.2c0,0,0,0.1-0.1,0.1c0,0-0.1,0-0.1,0H4v3.2h3.4
		c0,0,0.1,0,0.1,0s0.1,0.1,0.1,0.1c0,0,0,0.1,0.1,0.2s0,0.2,0,0.3c0,0.1,0,0.2,0,0.2c0,0.1,0,0.1-0.1,0.2c0,0-0.1,0.1-0.1,0.1
		c0,0-0.1,0-0.1,0H4v3.6h4c0,0,0.1,0,0.1,0s0.1,0.1,0.1,0.1s0,0.1,0.1,0.2C8.3,13.8,8.3,13.9,8.3,14z"/>
	<path class="st1" d="M15.6,14.2c0,0.1,0.1,0.1,0.1,0.2c0,0,0,0.1-0.1,0.1c0,0-0.1,0.1-0.2,0.1c-0.1,0-0.2,0-0.4,0
		c-0.2,0-0.3,0-0.4,0s-0.2,0-0.2,0c-0.1,0-0.1,0-0.1-0.1c0,0-0.1-0.1-0.1-0.1l-1.7-2.8l-1.7,2.8c0,0,0,0.1-0.1,0.1
		c0,0-0.1,0.1-0.1,0.1c-0.1,0-0.1,0-0.2,0c-0.1,0-0.2,0-0.4,0c-0.2,0-0.3,0-0.4,0c-0.1,0-0.2,0-0.2-0.1c0,0-0.1-0.1-0.1-0.1
		c0,0,0-0.1,0.1-0.2l2.2-3.4L9.6,7.5c0-0.1-0.1-0.1-0.1-0.2s0-0.1,0.1-0.1c0,0,0.1-0.1,0.2-0.1c0.1,0,0.2,0,0.4,0c0.2,0,0.3,0,0.4,0
		c0.1,0,0.2,0,0.2,0s0.1,0,0.1,0.1s0,0.1,0.1,0.1l1.6,2.6l1.6-2.6c0,0,0-0.1,0.1-0.1s0.1,0,0.1-0.1c0,0,0.1,0,0.2,0
		c0.1,0,0.2,0,0.3,0c0.1,0,0.3,0,0.4,0c0.1,0,0.2,0,0.2,0.1c0,0,0.1,0.1,0.1,0.1c0,0.1,0,0.1-0.1,0.2l-2,3.3L15.6,14.2z"/>
	<path class="st1" d="M23.6,10.8c0,0.6-0.1,1.2-0.2,1.6c-0.1,0.5-0.3,0.9-0.6,1.2c-0.3,0.3-0.6,0.6-1,0.8c-0.4,0.2-0.8,0.3-1.3,0.3
		c-0.2,0-0.4,0-0.6-0.1c-0.2,0-0.3-0.1-0.5-0.2c-0.2-0.1-0.3-0.2-0.5-0.3s-0.3-0.3-0.5-0.5v3.5c0,0,0,0.1,0,0.1c0,0-0.1,0.1-0.1,0.1
		c0,0-0.1,0-0.2,0c-0.1,0-0.2,0-0.3,0c-0.1,0-0.2,0-0.3,0c-0.1,0-0.1,0-0.2,0c0,0-0.1,0-0.1-0.1c0,0,0-0.1,0-0.1V7.4
		c0,0,0-0.1,0-0.1c0,0,0-0.1,0.1-0.1c0,0,0.1,0,0.2,0c0.1,0,0.2,0,0.3,0c0.1,0,0.2,0,0.3,0c0.1,0,0.1,0,0.2,0c0,0,0.1,0,0.1,0.1
		c0,0,0,0.1,0,0.1v0.9c0.2-0.2,0.4-0.4,0.6-0.6c0.2-0.2,0.4-0.3,0.6-0.4s0.4-0.2,0.6-0.2C20.4,7.1,20.6,7,20.8,7
		c0.5,0,0.9,0.1,1.3,0.3s0.6,0.5,0.9,0.8s0.4,0.7,0.5,1.2C23.6,9.8,23.6,10.3,23.6,10.8z M22.3,10.9c0-0.4,0-0.7-0.1-1
		S22.1,9.3,22,9c-0.1-0.3-0.3-0.5-0.5-0.6c-0.2-0.2-0.5-0.2-0.8-0.2c-0.2,0-0.3,0-0.5,0.1c-0.2,0-0.3,0.1-0.5,0.2
		c-0.2,0.1-0.3,0.2-0.5,0.4s-0.4,0.4-0.6,0.6v2.8c0.4,0.4,0.7,0.8,1,1c0.3,0.2,0.7,0.3,1,0.3c0.3,0,0.6-0.1,0.8-0.2
		c0.2-0.2,0.4-0.4,0.6-0.6c0.1-0.3,0.2-0.5,0.3-0.9C22.3,11.6,22.3,11.2,22.3,10.9z"/>
	<path class="st1" d="M32.1,10.8c0,0.6-0.1,1.1-0.2,1.6c-0.2,0.5-0.4,0.9-0.7,1.2s-0.7,0.6-1.1,0.8c-0.4,0.2-1,0.3-1.6,0.3
		c-0.6,0-1.1-0.1-1.5-0.3c-0.4-0.2-0.8-0.4-1.1-0.7c-0.3-0.3-0.5-0.7-0.6-1.2s-0.2-1-0.2-1.6c0-0.6,0.1-1.1,0.2-1.6
		c0.1-0.5,0.4-0.9,0.7-1.2c0.3-0.3,0.7-0.6,1.1-0.8c0.4-0.2,1-0.3,1.6-0.3c0.6,0,1.1,0.1,1.5,0.3c0.4,0.2,0.8,0.4,1.1,0.7
		c0.3,0.3,0.5,0.7,0.6,1.2C32,9.7,32.1,10.2,32.1,10.8z M30.8,10.9c0-0.4,0-0.7-0.1-1.1c-0.1-0.3-0.2-0.6-0.3-0.9
		c-0.2-0.3-0.4-0.5-0.7-0.6c-0.3-0.1-0.6-0.2-1-0.2c-0.4,0-0.7,0.1-1,0.2c-0.3,0.1-0.5,0.3-0.7,0.6c-0.2,0.2-0.3,0.5-0.4,0.9
		c-0.1,0.3-0.1,0.7-0.1,1.1c0,0.4,0,0.7,0.1,1.1c0.1,0.3,0.2,0.6,0.4,0.9c0.2,0.3,0.4,0.5,0.7,0.6s0.6,0.2,1,0.2
		c0.4,0,0.7-0.1,1-0.2s0.5-0.3,0.7-0.6c0.2-0.2,0.3-0.5,0.4-0.9C30.7,11.7,30.8,11.3,30.8,10.9z"/>
	<path class="st1" d="M38.1,7.8c0,0.1,0,0.2,0,0.3s0,0.1,0,0.2c0,0,0,0.1-0.1,0.1c0,0-0.1,0-0.1,0s-0.1,0-0.2,0
		c-0.1,0-0.1,0-0.2-0.1s-0.2,0-0.3-0.1c-0.1,0-0.2,0-0.3,0c-0.1,0-0.3,0-0.4,0.1c-0.1,0.1-0.3,0.1-0.4,0.3c-0.1,0.1-0.3,0.3-0.4,0.5
		s-0.3,0.4-0.5,0.7v4.6c0,0,0,0.1,0,0.1c0,0-0.1,0.1-0.1,0.1c0,0-0.1,0-0.2,0c-0.1,0-0.2,0-0.3,0c-0.1,0-0.2,0-0.3,0
		c-0.1,0-0.1,0-0.2,0c0,0-0.1,0-0.1-0.1c0,0,0-0.1,0-0.1v-7c0,0,0-0.1,0-0.1c0,0,0-0.1,0.1-0.1c0,0,0.1,0,0.2,0c0.1,0,0.2,0,0.3,0
		c0.1,0,0.2,0,0.3,0c0.1,0,0.1,0,0.2,0c0,0,0.1,0,0.1,0.1c0,0,0,0.1,0,0.1v1c0.2-0.3,0.4-0.5,0.5-0.7s0.3-0.3,0.5-0.4
		s0.3-0.2,0.4-0.2S36.9,7,37,7c0.1,0,0.1,0,0.2,0c0.1,0,0.2,0,0.3,0c0.1,0,0.2,0,0.3,0.1c0.1,0,0.1,0.1,0.2,0.1S38,7.3,38,7.3
		c0,0,0,0.1,0,0.1c0,0,0,0.1,0,0.2S38.1,7.7,38.1,7.8z"/>
	<path class="st1" d="M43.2,13.9c0,0.2,0,0.3,0,0.4c0,0.1-0.1,0.2-0.1,0.2c0,0-0.1,0.1-0.2,0.1s-0.2,0.1-0.3,0.1s-0.2,0-0.3,0.1
		c-0.1,0-0.2,0-0.4,0c-0.4,0-0.7,0-0.9-0.1s-0.5-0.2-0.6-0.4s-0.3-0.4-0.4-0.7c-0.1-0.3-0.1-0.6-0.1-1.1V8.2h-1
		c-0.1,0-0.1,0-0.2-0.1c0-0.1-0.1-0.2-0.1-0.4c0-0.1,0-0.2,0-0.2c0-0.1,0-0.1,0.1-0.2c0,0,0-0.1,0.1-0.1s0.1,0,0.1,0h1V5.5
		c0,0,0-0.1,0-0.1c0,0,0.1-0.1,0.1-0.1c0,0,0.1,0,0.2-0.1s0.2,0,0.3,0c0.1,0,0.2,0,0.3,0c0.1,0,0.1,0,0.2,0.1c0,0,0.1,0.1,0.1,0.1
		c0,0,0,0.1,0,0.1v1.7h1.8c0,0,0.1,0,0.1,0c0,0,0.1,0,0.1,0.1c0,0,0,0.1,0.1,0.2s0,0.2,0,0.2c0,0.2,0,0.3-0.1,0.4
		c0,0.1-0.1,0.1-0.2,0.1h-1.8v3.9c0,0.5,0.1,0.8,0.2,1.1s0.4,0.4,0.8,0.4c0.1,0,0.2,0,0.3,0c0.1,0,0.2,0,0.2-0.1
		c0.1,0,0.1-0.1,0.2-0.1c0.1,0,0.1,0,0.1,0c0,0,0.1,0,0.1,0s0,0,0.1,0.1c0,0,0,0.1,0,0.1S43.2,13.8,43.2,13.9z"/>
</g>
</svg>
