<svg xmlns="http://www.w3.org/2000/svg" width="20" height="20" viewBox="0 0 20 20">
  <defs>
    <style>
      .cls-1 {
        fill: #108bff;
        fill-rule: evenodd;
      }
    </style>
  </defs>
  <path id="modifiedDate_time" class="cls-1" d="M1507.65,324a4.354,4.354,0,1,1,4.35-4.362A4.345,4.345,0,0,1,1507.65,324Zm0.21-8.176a3.83,3.83,0,1,0,3.6,3.835A3.836,3.836,0,0,0,1507.86,315.824Zm0.97,5.384c-0.44-.441-0.88-0.886-1.32-1.32a0.442,0.442,0,0,1-.15-0.354c0.01-.4.01-0.793,0.01-1.19,0-.422,0-0.844-0.01-1.267,0-.117.02-0.167,0.16-0.165,0.39,0.006.39,0,.39,0.389,0,0.689.01,1.378,0,2.067a0.412,0.412,0,0,0,.13.318c0.44,0.427.87,0.864,1.3,1.29,0.1,0.091.09,0.138,0,.226C1509.08,321.458,1509.08,321.462,1508.83,321.208Zm-3.26-9.885a0.666,0.666,0,1,1-.65.665A0.657,0.657,0,0,1,1505.57,311.323Zm-8.5,7.121a0.666,0.666,0,1,1,.65-0.666A0.657,0.657,0,0,1,1497.07,318.444Zm0-5.79a0.666,0.666,0,1,1,.65-0.666A0.657,0.657,0,0,1,1497.07,312.654Zm0,2.895a0.666,0.666,0,1,1,.65-0.666A0.657,0.657,0,0,1,1497.07,315.549Zm2.83,2.9a0.666,0.666,0,0,1,0-1.331A0.666,0.666,0,0,1,1499.9,318.444Zm0-5.79a0.666,0.666,0,0,1,0-1.331A0.666,0.666,0,0,1,1499.9,312.654Zm0,2.895a0.666,0.666,0,0,1,0-1.331A0.666,0.666,0,0,1,1499.9,315.549Zm9.12-2.1a0.657,0.657,0,0,1-.65-0.665v-3.794a1.315,1.315,0,0,0-1.3-1.331h-0.85v0.666a0.65,0.65,0,1,1-1.3,0v-0.666h-2.96v0.666a0.655,0.655,0,1,1-1.31,0v-0.666h-2.93v0.666a0.65,0.65,0,1,1-1.3,0v-0.666h-0.81a1.324,1.324,0,0,0-1.31,1.331v10.383a1.324,1.324,0,0,0,1.31,1.331h4.98a0.666,0.666,0,0,1,0,1.331h-4.98a2.639,2.639,0,0,1-2.61-2.662V308.993a2.639,2.639,0,0,1,2.61-2.662h0.81v-0.666a0.65,0.65,0,1,1,1.3,0v0.666h2.93v-0.666a0.655,0.655,0,1,1,1.31,0v0.666h2.96v-0.666a0.65,0.65,0,1,1,1.3,0v0.666h0.85a2.639,2.639,0,0,1,2.61,2.662v3.794A0.666,0.666,0,0,1,1509.02,313.452Zm-6.28-2.129a0.666,0.666,0,1,1-.65.665A0.657,0.657,0,0,1,1502.74,311.323Z" transform="translate(-1492.5 -304.5)"/>
</svg>
