<?xml version="1.0" encoding="utf-8"?>
<!-- Generator: Adobe Illustrator 24.2.1, SVG Export Plug-In . SVG Version: 6.00 Build 0)  -->
<svg version="1.1" id="Layer_1" xmlns="http://www.w3.org/2000/svg" xmlns:xlink="http://www.w3.org/1999/xlink" x="0px" y="0px"
	 viewBox="0 0 108.7 20" style="enable-background:new 0 0 108.7 20;" xml:space="preserve">
<style type="text/css">
	.st0{fill-rule:evenodd;clip-rule:evenodd;fill:#0071DC;}
	.st1{fill:#0071DC;}
</style>
<path id="regen" class="st0" d="M106.2,7.8c0,3.5,0,7.1,0,10.6c0.1,0.8-0.5,1.5-1.3,1.5c-0.1,0-0.2,0-0.2,0c-4,0-8,0-12,0
	c-0.8,0.1-1.5-0.5-1.5-1.3c0-0.1,0-0.1,0-0.2c0-5.7,0-11.3,0-17c-0.1-0.8,0.5-1.5,1.3-1.5c0.1,0,0.2,0,0.2,0h6.1
	c-0.1,0.3-0.2,0.6-0.1,0.9c0,1.5,0,3.1,0,4.6c0,1.1,0.9,1.9,1.9,1.9c0,0,0,0,0,0c1.5,0,3,0,4.5,0c0.3,0,0.6,0,1-0.1
	C106.2,7.5,106.2,7.7,106.2,7.8z M100.7,6.2c-0.4,0-0.8-0.4-0.8-0.8c0-1.6,0-3.1,0-4.6c1.8,1.8,3.6,3.6,5.4,5.4
	C103.8,6.3,102.3,6.3,100.7,6.2L100.7,6.2z M94.9,12.2c0.1-2,1.7-3.5,3.7-3.5c1.5,0,2.9,1.1,3.3,2.5c-0.1,0.1-0.1,0.2-0.1,0.3l0,0.3
	l-0.1,0.3h-0.4c0-1.5-1.3-2.8-2.9-2.7c-1.5,0-2.7,1.2-2.7,2.7c0,1,0.6,1.9,1.4,2.4l-0.5,0.5C95.5,14.5,94.9,13.4,94.9,12.2z
	 M102.4,11.7c0-0.1-0.1-0.2-0.2-0.2c-0.1,0-0.2,0.1-0.2,0.2l0,0.3l-0.1,0.4c0,0.1-0.1,0.3-0.1,0.4l-0.1,0.2l-0.1,0.3
	c-0.1,0.1-0.1,0.2-0.2,0.3c0,0.1-0.1,0.1-0.1,0.2c0,0-0.1,0.1-0.1,0.1c-0.1,0.1-0.2,0.2-0.3,0.4c-0.1,0.1-0.2,0.2-0.3,0.3
	c0,0-0.1,0.1-0.1,0.1c0,0-0.1,0.1-0.1,0.1c-0.1,0.1-0.3,0.2-0.4,0.3c-0.1,0.1-0.2,0.1-0.4,0.2c-0.1,0-0.1,0.1-0.2,0.1
	c-0.1,0-0.1,0-0.2,0.1c-0.1,0-0.2,0.1-0.3,0.1l-0.2,0.1l-0.2,0c-0.1,0-0.2,0-0.3,0l-0.2,0h0v-0.9c0-0.1,0-0.1-0.1-0.2
	c-0.1,0-0.2,0-0.2,0l-1.6,1.6c-0.1,0.1-0.1,0.2,0,0.3c0,0,0,0,0,0l1.6,1.6c0,0,0.1,0.1,0.1,0.1c0,0,0,0,0.1,0c0.1,0,0.1-0.1,0.1-0.2
	V17l0.3-0.1c0.2,0,0.4-0.1,0.6-0.1l0.2-0.1l0.4-0.2c0.2-0.1,0.3-0.1,0.4-0.2c0.1,0,0.1-0.1,0.2-0.1c0,0,0,0,0,0c0,0,0.1-0.1,0.1-0.1
	c0.2-0.1,0.3-0.2,0.4-0.3c0.2-0.1,0.3-0.3,0.5-0.4l0.1-0.1c0,0,0,0,0,0l0.1-0.1c0.1-0.2,0.2-0.3,0.4-0.5c0.1-0.1,0.2-0.3,0.3-0.5
	c0-0.1,0.1-0.1,0.1-0.2c0,0,0,0,0,0c0-0.1,0.1-0.1,0.1-0.2c0.1-0.1,0.1-0.3,0.2-0.4l0.1-0.3l0-0.3c0-0.2,0.1-0.3,0.1-0.5l0-0.2
	L102.4,11.7z M100.1,11.7c-0.6,0.5-1.2,1.1-1.8,1.6c-0.1,0.1-0.3,0.1-0.4,0c0,0,0,0,0,0c-0.3-0.3-0.6-0.6-0.9-0.9
	c-0.1-0.1-0.1-0.2-0.1-0.3c0,0,0-0.1,0.1-0.1c0.1-0.1,0.3-0.1,0.4,0c0.2,0.2,0.5,0.4,0.7,0.7c0.1,0.1,0.1,0.1,0.2,0
	c0.5-0.5,1-0.9,1.5-1.4c0.1-0.1,0.1-0.1,0.2-0.1c0.1-0.1,0.3,0,0.3,0.1c0,0,0,0.1,0,0.1C100.2,11.6,100.2,11.7,100.1,11.7
	L100.1,11.7z"/>
<g>
	<path class="st1" d="M13.1,14.8c0,0,0,0.1,0,0.1c0,0,0,0.1-0.1,0.1s-0.1,0-0.2,0c-0.1,0-0.2,0-0.4,0c-0.1,0-0.2,0-0.3,0
		c-0.1,0-0.2,0-0.2-0.1s-0.1-0.1-0.1-0.1c0,0-0.1-0.1-0.1-0.2l-0.9-2.4c-0.1-0.3-0.2-0.5-0.3-0.7c-0.1-0.2-0.3-0.4-0.4-0.6
		s-0.4-0.3-0.6-0.4s-0.5-0.1-0.8-0.1H7.7v4.3c0,0,0,0.1,0,0.1c0,0-0.1,0.1-0.1,0.1c0,0-0.1,0-0.2,0c-0.1,0-0.2,0-0.3,0
		c-0.1,0-0.2,0-0.3,0c-0.1,0-0.2,0-0.2,0c-0.1,0-0.1,0-0.1-0.1c0,0,0-0.1,0-0.1V5.5c0-0.2,0.1-0.3,0.2-0.4C6.6,5,6.7,4.9,6.9,4.9H9
		c0.3,0,0.5,0,0.6,0c0.2,0,0.3,0,0.5,0c0.4,0.1,0.7,0.2,1,0.3c0.3,0.1,0.5,0.3,0.8,0.6c0.2,0.2,0.4,0.5,0.5,0.8
		c0.1,0.3,0.2,0.6,0.2,1c0,0.3,0,0.6-0.1,0.9S12.1,9,11.9,9.2c-0.2,0.2-0.4,0.4-0.6,0.5c-0.2,0.2-0.5,0.3-0.8,0.4
		c0.2,0.1,0.3,0.2,0.5,0.3c0.1,0.1,0.3,0.2,0.4,0.4c0.1,0.2,0.2,0.3,0.3,0.5c0.1,0.2,0.2,0.4,0.3,0.7l0.9,2.2
		c0.1,0.2,0.1,0.3,0.1,0.4C13.1,14.7,13.1,14.7,13.1,14.8z M11.1,7.7c0-0.4-0.1-0.7-0.3-1s-0.5-0.5-0.9-0.6C9.8,6.1,9.6,6.1,9.5,6
		C9.3,6,9.1,6,8.8,6H7.7v3.4H9c0.4,0,0.7,0,0.9-0.1c0.3-0.1,0.5-0.2,0.6-0.4c0.2-0.2,0.3-0.3,0.4-0.5C11,8.2,11.1,8,11.1,7.7z"/>
	<path class="st1" d="M20.6,11c0,0.2-0.1,0.3-0.2,0.4c-0.1,0.1-0.2,0.1-0.3,0.1h-4.6c0,0.4,0,0.7,0.1,1c0.1,0.3,0.2,0.6,0.4,0.8
		c0.2,0.2,0.4,0.4,0.7,0.5c0.3,0.1,0.6,0.2,1.1,0.2c0.3,0,0.6,0,0.9-0.1s0.5-0.1,0.7-0.2c0.2-0.1,0.3-0.1,0.5-0.2
		c0.1-0.1,0.2-0.1,0.3-0.1c0,0,0.1,0,0.1,0c0,0,0.1,0,0.1,0.1s0,0.1,0,0.2c0,0.1,0,0.1,0,0.2c0,0.1,0,0.1,0,0.2c0,0,0,0.1,0,0.1
		c0,0,0,0.1,0,0.1s0,0.1-0.1,0.1c0,0-0.1,0.1-0.3,0.1c-0.1,0.1-0.3,0.1-0.5,0.2c-0.2,0.1-0.5,0.1-0.8,0.2c-0.3,0-0.6,0.1-0.9,0.1
		c-0.6,0-1.1-0.1-1.5-0.2c-0.4-0.2-0.8-0.4-1.1-0.7s-0.5-0.7-0.7-1.2c-0.2-0.5-0.2-1-0.2-1.7c0-0.6,0.1-1.1,0.2-1.6
		c0.2-0.5,0.4-0.9,0.7-1.2c0.3-0.3,0.6-0.6,1.1-0.8c0.4-0.2,0.9-0.3,1.4-0.3c0.5,0,1,0.1,1.4,0.3s0.7,0.4,1,0.7s0.4,0.6,0.5,1.1
		s0.2,0.8,0.2,1.3V11z M19.3,10.6c0-0.7-0.1-1.2-0.5-1.6S18,8.4,17.4,8.4c-0.3,0-0.6,0.1-0.8,0.2c-0.2,0.1-0.4,0.3-0.6,0.5
		c-0.2,0.2-0.3,0.4-0.4,0.7c-0.1,0.3-0.1,0.5-0.1,0.8H19.3z"/>
	<path class="st1" d="M25.7,11.1c0,0.2,0,0.3-0.1,0.4c0,0.1-0.1,0.1-0.2,0.1h-3.3c-0.1,0-0.2,0-0.2-0.1c0-0.1-0.1-0.2-0.1-0.4
		c0-0.2,0-0.3,0.1-0.4c0-0.1,0.1-0.1,0.2-0.1h3.3c0,0,0.1,0,0.1,0c0,0,0.1,0,0.1,0.1s0,0.1,0.1,0.2C25.6,10.9,25.7,11,25.7,11.1z"/>
	<path class="st1" d="M35.1,6.3c0,0.1,0,0.2,0,0.3c0,0.1,0,0.1,0,0.2c0,0,0,0.1-0.1,0.1c0,0-0.1,0-0.1,0c-0.1,0-0.2,0-0.3-0.1
		c-0.1-0.1-0.3-0.2-0.6-0.3c-0.2-0.1-0.5-0.2-0.9-0.3c-0.3-0.1-0.7-0.1-1.2-0.1c-0.6,0-1.1,0.1-1.5,0.3c-0.4,0.2-0.8,0.5-1.1,0.8
		c-0.3,0.4-0.5,0.8-0.7,1.3c-0.2,0.5-0.2,1-0.2,1.6c0,0.6,0.1,1.2,0.3,1.7c0.2,0.5,0.4,0.9,0.7,1.3s0.7,0.6,1.1,0.8
		c0.4,0.2,0.9,0.3,1.4,0.3c0.3,0,0.6,0,0.9-0.1s0.6-0.2,0.9-0.3v-2.9h-2.3c-0.1,0-0.2,0-0.2-0.1c0-0.1-0.1-0.2-0.1-0.4
		c0-0.1,0-0.2,0-0.3c0-0.1,0-0.1,0.1-0.2c0,0,0.1-0.1,0.1-0.1c0,0,0.1,0,0.1,0h3.2c0.1,0,0.1,0,0.2,0c0.1,0,0.1,0.1,0.2,0.1
		c0,0,0.1,0.1,0.1,0.2c0,0.1,0,0.2,0,0.2v3.8c0,0.1,0,0.3-0.1,0.3c0,0.1-0.1,0.2-0.3,0.3s-0.3,0.2-0.6,0.2c-0.2,0.1-0.5,0.2-0.7,0.2
		c-0.3,0.1-0.5,0.1-0.8,0.1c-0.3,0-0.5,0-0.8,0c-0.8,0-1.5-0.1-2.1-0.4s-1.1-0.6-1.6-1c-0.4-0.4-0.7-1-1-1.6
		c-0.2-0.6-0.3-1.3-0.3-2.1c0-0.8,0.1-1.5,0.4-2.2s0.6-1.2,1-1.7c0.4-0.5,1-0.8,1.6-1.1c0.6-0.3,1.3-0.4,2-0.4c0.4,0,0.7,0,1.1,0.1
		c0.3,0.1,0.6,0.1,0.9,0.2s0.5,0.2,0.7,0.3c0.2,0.1,0.3,0.2,0.4,0.3s0.1,0.1,0.1,0.2S35.1,6.1,35.1,6.3z"/>
	<path class="st1" d="M43.4,11c0,0.2-0.1,0.3-0.2,0.4c-0.1,0.1-0.2,0.1-0.3,0.1h-4.6c0,0.4,0,0.7,0.1,1c0.1,0.3,0.2,0.6,0.4,0.8
		c0.2,0.2,0.4,0.4,0.7,0.5c0.3,0.1,0.6,0.2,1.1,0.2c0.3,0,0.6,0,0.9-0.1s0.5-0.1,0.7-0.2c0.2-0.1,0.3-0.1,0.5-0.2
		c0.1-0.1,0.2-0.1,0.3-0.1c0,0,0.1,0,0.1,0c0,0,0.1,0,0.1,0.1s0,0.1,0,0.2c0,0.1,0,0.1,0,0.2c0,0.1,0,0.1,0,0.2c0,0,0,0.1,0,0.1
		c0,0,0,0.1,0,0.1s0,0.1-0.1,0.1c0,0-0.1,0.1-0.3,0.1c-0.1,0.1-0.3,0.1-0.5,0.2C42,15,41.7,15,41.4,15.1c-0.3,0-0.6,0.1-0.9,0.1
		c-0.6,0-1.1-0.1-1.5-0.2c-0.4-0.2-0.8-0.4-1.1-0.7s-0.5-0.7-0.7-1.2C37,12.5,37,12,37,11.3c0-0.6,0.1-1.1,0.2-1.6
		c0.2-0.5,0.4-0.9,0.7-1.2c0.3-0.3,0.6-0.6,1.1-0.8c0.4-0.2,0.9-0.3,1.4-0.3c0.5,0,1,0.1,1.4,0.3s0.7,0.4,1,0.7s0.4,0.6,0.5,1.1
		s0.2,0.8,0.2,1.3V11z M42.1,10.6c0-0.7-0.1-1.2-0.5-1.6s-0.8-0.6-1.4-0.6c-0.3,0-0.6,0.1-0.8,0.2c-0.2,0.1-0.4,0.3-0.6,0.5
		c-0.2,0.2-0.3,0.4-0.4,0.7c-0.1,0.3-0.1,0.5-0.1,0.8H42.1z"/>
	<path class="st1" d="M51.4,14.8c0,0,0,0.1,0,0.1c0,0-0.1,0.1-0.1,0.1c0,0-0.1,0-0.2,0c-0.1,0-0.2,0-0.3,0c-0.1,0-0.2,0-0.3,0
		c-0.1,0-0.1,0-0.2,0c0,0-0.1,0-0.1-0.1c0,0,0-0.1,0-0.1v-4.1c0-0.4,0-0.7-0.1-1c-0.1-0.2-0.2-0.5-0.3-0.6c-0.1-0.2-0.3-0.3-0.5-0.4
		c-0.2-0.1-0.4-0.1-0.7-0.1c-0.3,0-0.6,0.1-1,0.3c-0.3,0.2-0.7,0.6-1,1v4.9c0,0,0,0.1,0,0.1c0,0-0.1,0.1-0.1,0.1c0,0-0.1,0-0.2,0
		c-0.1,0-0.2,0-0.3,0c-0.1,0-0.2,0-0.3,0c-0.1,0-0.1,0-0.2,0c0,0-0.1,0-0.1-0.1c0,0,0-0.1,0-0.1v-7c0,0,0-0.1,0-0.1
		c0,0,0-0.1,0.1-0.1c0,0,0.1,0,0.2,0c0.1,0,0.2,0,0.3,0c0.1,0,0.2,0,0.3,0c0.1,0,0.1,0,0.2,0c0,0,0.1,0,0.1,0.1c0,0,0,0.1,0,0.1v0.9
		c0.4-0.4,0.8-0.8,1.2-1s0.8-0.3,1.2-0.3c0.5,0,0.9,0.1,1.2,0.2s0.6,0.4,0.8,0.6s0.3,0.6,0.4,0.9c0.1,0.4,0.1,0.8,0.1,1.3V14.8z"/>
	<path class="st1" d="M59.7,11c0,0.2-0.1,0.3-0.2,0.4c-0.1,0.1-0.2,0.1-0.3,0.1h-4.6c0,0.4,0,0.7,0.1,1c0.1,0.3,0.2,0.6,0.4,0.8
		c0.2,0.2,0.4,0.4,0.7,0.5c0.3,0.1,0.6,0.2,1.1,0.2c0.3,0,0.6,0,0.9-0.1s0.5-0.1,0.7-0.2c0.2-0.1,0.3-0.1,0.5-0.2
		c0.1-0.1,0.2-0.1,0.3-0.1c0,0,0.1,0,0.1,0c0,0,0.1,0,0.1,0.1s0,0.1,0,0.2c0,0.1,0,0.1,0,0.2c0,0.1,0,0.1,0,0.2c0,0,0,0.1,0,0.1
		c0,0,0,0.1,0,0.1s0,0.1-0.1,0.1c0,0-0.1,0.1-0.3,0.1c-0.1,0.1-0.3,0.1-0.5,0.2C58.3,15,58,15,57.7,15.1c-0.3,0-0.6,0.1-0.9,0.1
		c-0.6,0-1.1-0.1-1.5-0.2c-0.4-0.2-0.8-0.4-1.1-0.7s-0.5-0.7-0.7-1.2c-0.2-0.5-0.2-1-0.2-1.7c0-0.6,0.1-1.1,0.2-1.6
		c0.2-0.5,0.4-0.9,0.7-1.2c0.3-0.3,0.6-0.6,1.1-0.8c0.4-0.2,0.9-0.3,1.4-0.3c0.5,0,1,0.1,1.4,0.3s0.7,0.4,1,0.7s0.4,0.6,0.5,1.1
		s0.2,0.8,0.2,1.3V11z M58.4,10.6c0-0.7-0.1-1.2-0.5-1.6s-0.8-0.6-1.4-0.6c-0.3,0-0.6,0.1-0.8,0.2c-0.2,0.1-0.4,0.3-0.6,0.5
		c-0.2,0.2-0.3,0.4-0.4,0.7c-0.1,0.3-0.1,0.5-0.1,0.8H58.4z"/>
	<path class="st1" d="M65.8,8.2c0,0.1,0,0.2,0,0.3s0,0.1,0,0.2c0,0,0,0.1-0.1,0.1c0,0-0.1,0-0.1,0s-0.1,0-0.2,0
		c-0.1,0-0.1,0-0.2-0.1s-0.2,0-0.3-0.1c-0.1,0-0.2,0-0.3,0c-0.1,0-0.3,0-0.4,0.1C64.1,8.8,64,8.9,63.9,9c-0.1,0.1-0.3,0.3-0.4,0.5
		s-0.3,0.4-0.5,0.7v4.6c0,0,0,0.1,0,0.1c0,0-0.1,0.1-0.1,0.1c0,0-0.1,0-0.2,0c-0.1,0-0.2,0-0.3,0c-0.1,0-0.2,0-0.3,0
		c-0.1,0-0.1,0-0.2,0c0,0-0.1,0-0.1-0.1c0,0,0-0.1,0-0.1v-7c0,0,0-0.1,0-0.1c0,0,0-0.1,0.1-0.1c0,0,0.1,0,0.2,0c0.1,0,0.2,0,0.3,0
		c0.1,0,0.2,0,0.3,0c0.1,0,0.1,0,0.2,0c0,0,0.1,0,0.1,0.1c0,0,0,0.1,0,0.1v1c0.2-0.3,0.4-0.5,0.5-0.7s0.3-0.3,0.5-0.4
		s0.3-0.2,0.4-0.2s0.3-0.1,0.4-0.1c0.1,0,0.1,0,0.2,0c0.1,0,0.2,0,0.3,0c0.1,0,0.2,0,0.3,0.1c0.1,0,0.1,0.1,0.2,0.1s0.1,0.1,0.1,0.1
		c0,0,0,0.1,0,0.1c0,0,0,0.1,0,0.2S65.8,8.1,65.8,8.2z"/>
	<path class="st1" d="M72.2,14.8c0,0.1,0,0.1-0.1,0.1S72,15,71.9,15c-0.1,0-0.2,0-0.3,0c-0.1,0-0.2,0-0.3,0c-0.1,0-0.1,0-0.2-0.1
		s-0.1-0.1-0.1-0.1v-0.7c-0.3,0.3-0.6,0.6-1,0.8c-0.4,0.2-0.8,0.3-1.2,0.3c-0.4,0-0.7,0-1-0.1s-0.6-0.2-0.8-0.4s-0.4-0.4-0.5-0.7
		s-0.2-0.6-0.2-0.9c0-0.4,0.1-0.7,0.2-1c0.2-0.3,0.4-0.5,0.7-0.7c0.3-0.2,0.7-0.3,1.1-0.4c0.4-0.1,0.9-0.1,1.5-0.1h1v-0.5
		c0-0.3,0-0.5-0.1-0.7c-0.1-0.2-0.1-0.4-0.3-0.5S70.2,8.7,70,8.6c-0.2-0.1-0.5-0.1-0.7-0.1c-0.3,0-0.6,0-0.9,0.1S68,8.8,67.8,8.8
		c-0.2,0.1-0.3,0.2-0.5,0.2S67.1,9.2,67,9.2c0,0-0.1,0-0.1,0c0,0-0.1-0.1-0.1-0.1s0-0.1-0.1-0.2c0-0.1,0-0.1,0-0.2
		c0-0.1,0-0.2,0-0.3c0-0.1,0.1-0.1,0.1-0.2C67,8.1,67.1,8,67.3,7.9c0.2-0.1,0.4-0.2,0.6-0.2s0.5-0.1,0.7-0.2c0.3,0,0.5-0.1,0.8-0.1
		c0.5,0,0.9,0.1,1.3,0.2c0.4,0.1,0.6,0.3,0.9,0.5c0.2,0.2,0.4,0.5,0.5,0.8c0.1,0.3,0.1,0.7,0.1,1.1V14.8z M70.9,11.6h-1.1
		c-0.4,0-0.7,0-0.9,0.1c-0.3,0.1-0.5,0.1-0.6,0.3c-0.2,0.1-0.3,0.3-0.4,0.4c-0.1,0.2-0.1,0.4-0.1,0.6c0,0.4,0.1,0.7,0.3,0.9
		c0.2,0.2,0.6,0.3,1,0.3c0.3,0,0.6-0.1,0.9-0.3c0.3-0.2,0.6-0.4,0.9-0.8V11.6z"/>
	<path class="st1" d="M78,14.3c0,0.2,0,0.3,0,0.4c0,0.1-0.1,0.2-0.1,0.2c0,0-0.1,0.1-0.2,0.1c-0.1,0-0.2,0.1-0.3,0.1
		c-0.1,0-0.2,0-0.3,0.1c-0.1,0-0.2,0-0.4,0c-0.4,0-0.7,0-0.9-0.1c-0.3-0.1-0.5-0.2-0.6-0.4s-0.3-0.4-0.4-0.7
		c-0.1-0.3-0.1-0.6-0.1-1.1V8.6h-1c-0.1,0-0.1,0-0.2-0.1c0-0.1-0.1-0.2-0.1-0.4c0-0.1,0-0.2,0-0.2c0-0.1,0-0.1,0.1-0.2
		c0,0,0-0.1,0.1-0.1s0.1,0,0.1,0h1V5.9c0,0,0-0.1,0-0.1c0,0,0.1-0.1,0.1-0.1c0,0,0.1,0,0.2-0.1s0.2,0,0.3,0c0.1,0,0.2,0,0.3,0
		c0.1,0,0.1,0,0.2,0.1c0,0,0.1,0.1,0.1,0.1c0,0,0,0.1,0,0.1v1.7h1.8c0,0,0.1,0,0.1,0s0.1,0,0.1,0.1c0,0,0,0.1,0.1,0.2
		c0,0.1,0,0.2,0,0.2c0,0.2,0,0.3-0.1,0.4c0,0.1-0.1,0.1-0.2,0.1H76v3.9c0,0.5,0.1,0.8,0.2,1.1s0.4,0.4,0.8,0.4c0.1,0,0.2,0,0.3,0
		s0.2,0,0.2-0.1c0.1,0,0.1-0.1,0.2-0.1c0.1,0,0.1,0,0.1,0c0,0,0.1,0,0.1,0c0,0,0,0,0.1,0.1c0,0,0,0.1,0,0.1C78,14.1,78,14.2,78,14.3
		z"/>
	<path class="st1" d="M85.5,11c0,0.2-0.1,0.3-0.2,0.4c-0.1,0.1-0.2,0.1-0.3,0.1h-4.6c0,0.4,0,0.7,0.1,1c0.1,0.3,0.2,0.6,0.4,0.8
		c0.2,0.2,0.4,0.4,0.7,0.5s0.6,0.2,1.1,0.2c0.3,0,0.6,0,0.9-0.1s0.5-0.1,0.7-0.2c0.2-0.1,0.3-0.1,0.5-0.2c0.1-0.1,0.2-0.1,0.3-0.1
		c0,0,0.1,0,0.1,0c0,0,0.1,0,0.1,0.1s0,0.1,0,0.2c0,0.1,0,0.1,0,0.2c0,0.1,0,0.1,0,0.2c0,0,0,0.1,0,0.1s0,0.1,0,0.1
		c0,0,0,0.1-0.1,0.1c0,0-0.1,0.1-0.3,0.1c-0.1,0.1-0.3,0.1-0.5,0.2c-0.2,0.1-0.5,0.1-0.8,0.2c-0.3,0-0.6,0.1-0.9,0.1
		c-0.6,0-1.1-0.1-1.5-0.2c-0.4-0.2-0.8-0.4-1.1-0.7s-0.5-0.7-0.7-1.2c-0.2-0.5-0.2-1-0.2-1.7c0-0.6,0.1-1.1,0.2-1.6
		c0.2-0.5,0.4-0.9,0.7-1.2c0.3-0.3,0.6-0.6,1.1-0.8c0.4-0.2,0.9-0.3,1.4-0.3c0.5,0,1,0.1,1.4,0.3s0.7,0.4,1,0.7s0.4,0.6,0.5,1.1
		c0.1,0.4,0.2,0.8,0.2,1.3V11z M84.2,10.6c0-0.7-0.1-1.2-0.4-1.6c-0.3-0.4-0.8-0.6-1.4-0.6c-0.3,0-0.6,0.1-0.8,0.2
		c-0.2,0.1-0.4,0.3-0.6,0.5c-0.2,0.2-0.3,0.4-0.4,0.7c-0.1,0.3-0.1,0.5-0.1,0.8H84.2z"/>
</g>
</svg>
