<svg xmlns="http://www.w3.org/2000/svg" width="20.001" height="20" viewBox="0 0 23 22.999">
  <defs>
    <style>
      .cls-1 {
        fill: #108bff;
        fill-rule: evenodd;
      }
    </style>
  </defs>
  <path id="route" class="cls-1" d="M1512.28,264.5a22.34,22.34,0,0,1-1.65,2.261,0.651,0.651,0,0,1-1.01,0,24.274,24.274,0,0,1-1.65-2.261,8.806,8.806,0,0,1-1.72-4.354,3.881,3.881,0,1,1,7.75,0A8.806,8.806,0,0,1,1512.28,264.5Zm-2.15-6.262a1.911,1.911,0,1,0,1.8,1.908A1.854,1.854,0,0,0,1510.13,258.237Zm0,2.376a0.469,0.469,0,1,1,.44-0.468A0.459,0.459,0,0,1,1510.13,260.613ZM1508.04,267h-2.72a3.648,3.648,0,0,1-3.53-3.74,2.238,2.238,0,0,0-2.17-2.3h-2.66c0.29-.375.65-0.873,1.03-1.439h1.63a3.641,3.641,0,0,1,3.53,3.739,2.239,2.239,0,0,0,2.17,2.3h1.69C1507.39,266.127,1507.75,266.625,1508.04,267Zm-12.66-6.28a0.651,0.651,0,0,1-1.01,0,22.423,22.423,0,0,1-1.65-2.262A8.8,8.8,0,0,1,1491,254.1a3.881,3.881,0,1,1,7.75,0,8.8,8.8,0,0,1-1.72,4.354A24.371,24.371,0,0,1,1495.38,260.72Zm-0.51-8.523a1.911,1.911,0,1,0,1.8,1.907A1.86,1.86,0,0,0,1494.87,252.2Zm0,2.376a0.469,0.469,0,1,1,.45-0.469A0.457,0.457,0,0,1,1494.87,254.573Z" transform="translate(-1491 -247)"/>
</svg>
