<svg xmlns="http://www.w3.org/2000/svg" width="20" height="20" viewBox="0 0 20 20">
  <defs>
    <style>
      .cls-1 {
        fill: #fff;
        fill-rule: evenodd;
      }
    </style>
  </defs>
  <path id="rupee_w" class="cls-1" d="M1701.94,377.508a2.26,2.26,0,0,0-1.63-1.148,13.114,13.114,0,0,0-2.82-.144c-0.44-.006-0.49-0.051-0.49-0.49s0.01-.857,0-1.285a0.382,0.382,0,0,1,.44-0.441q4.56,0,9.11,0a0.389,0.389,0,0,1,.45.442c0,0.334-.01.667,0,1a0.365,0.365,0,0,1-.43.417c-0.83,0-1.66,0-2.55,0a4.581,4.581,0,0,1,.69,1.522c0.03,0.156.17,0.129,0.28,0.128,0.47,0,.94,0,1.41,0,0.5,0,.6.1,0.6,0.588v0.785a0.436,0.436,0,0,1-.51.537c-0.51.008-1.01,0-1.52,0-0.1,0-.2-0.032-0.23.158a4.425,4.425,0,0,1-3.29,3.484,4.367,4.367,0,0,1-1.21.23c0.43,0.492.85,0.963,1.26,1.442,0.9,1.062,1.82,2.116,2.69,3.216,0.36,0.461.74,0.911,1.12,1.361a0.415,0.415,0,0,1,.1.481,0.369,0.369,0,0,1-.39.2c-0.66,0-1.32-.007-1.97,0a0.58,0.58,0,0,1-.48-0.249c-0.61-.727-1.22-1.459-1.83-2.186-0.63-.747-1.26-1.5-1.9-2.233-0.54-.622-1.1-1.224-1.66-1.838a0.705,0.705,0,0,1-.18-0.511c0.02-.427.01-0.856,0-1.285a0.293,0.293,0,0,1,.34-0.341,12.659,12.659,0,0,0,2.04-.078,3.045,3.045,0,0,0,2.54-1.372c0.03-.051.05-0.1,0.08-0.155,0.12-.236.11-0.341-0.21-0.337-1.38.017-2.77,0.007-4.15,0.007-0.53,0-.64-0.1-0.64-0.627v-0.678c0-.513.1-0.607,0.62-0.607,1.07,0,2.13,0,3.2,0h1.12Z" transform="translate(-1692 -372)"/>
</svg>
