<svg xmlns="http://www.w3.org/2000/svg" width="20" height="20" viewBox="0 0 20 20">
  <defs>
    <style>
      .cls-1 {
        fill: #108bff;
        fill-rule: evenodd;
      }
    </style>
  </defs>
  <path id="shift" class="cls-1" d="M1719.44,310.851m5.69,9.21,10.1-2.668,0.66,0.287a1.42,1.42,0,0,1-.76.783,1.459,1.459,0,0,1-1.1.02,1.949,1.949,0,0,0-2.11.425,1.975,1.975,0,0,0-.53.988,1.945,1.945,0,0,0,.11,1.118,1.478,1.478,0,0,1-.03,1.094,1.455,1.455,0,0,1-.78.768,1.474,1.474,0,0,1-1.1.007,1.444,1.444,0,0,1-.79-0.757,1.953,1.953,0,0,0-1.79-1.185,1.926,1.926,0,0,0-1.79,1.185,1.458,1.458,0,0,1-.53.632,1.442,1.442,0,0,1-.79.232,1.417,1.417,0,0,1-.56-0.111,1.463,1.463,0,0,1-.8-0.765,1.445,1.445,0,0,1-.02-1.1,2.029,2.029,0,0,0,.11-1.117,1.99,1.99,0,0,0-.54-0.989,1.94,1.94,0,0,0-2.1-.426,1.46,1.46,0,0,1-1.12-2.7,2.026,2.026,0,0,0,.87-0.716,1.957,1.957,0,0,0,0-2.145,2.016,2.016,0,0,0-.87-0.715,1.458,1.458,0,0,1,.02-2.669,1.469,1.469,0,0,1,1.1-.027h0a1.956,1.956,0,0,0,2.64-1.413,2.03,2.03,0,0,0-.11-1.117,1.481,1.481,0,0,1,.03-1.095,1.459,1.459,0,0,1,1.88-.774,1.475,1.475,0,0,1,.79.756,1.94,1.94,0,0,0,.72.862,1.915,1.915,0,0,0,1.07.323,1.953,1.953,0,0,0,1.79-1.185,1.461,1.461,0,0,1,1.89-.749,1.457,1.457,0,0,1,.78.767,1.481,1.481,0,0,1,.03,1.095,1.942,1.942,0,0,0-.11,1.117,1.939,1.939,0,0,0,1.52,1.519,1.935,1.935,0,0,0,1.12-.105,1.461,1.461,0,0,1,1.12,2.7,1.916,1.916,0,0,0-.87.716,1.957,1.957,0,0,0,0,2.145,1.908,1.908,0,0,0,.87.715,1.462,1.462,0,0,1,.76.786,1.43,1.43,0,0,1-.01,1.094v0.009l-0.67-.284m-8.19-7.857a4.483,4.483,0,1,1-4.5,4.483A4.495,4.495,0,0,1,1727.04,309.535Z" transform="translate(-1717.03 -304.015)"/>
</svg>
