<svg xmlns="http://www.w3.org/2000/svg" width="20" height="20" viewBox="0 0 20 20">
  <defs>
    <style>
      .cls-1 {
        fill: #108bff;
        fill-rule: evenodd;
      }
    </style>
  </defs>
  <path id="status" class="cls-1" d="M1726.97,267a9,9,0,1,1,9.03-8.97A8.993,8.993,0,0,1,1726.97,267Zm0.03-16.568a7.559,7.559,0,1,0,7.57,7.565A7.586,7.586,0,0,0,1727,250.432Zm4.36,5.729q-2.49,2.368-5,4.724a0.749,0.749,0,0,1-1.19-.019q-1.29-1.305-2.55-2.633a0.718,0.718,0,1,1,1.01-1c0.65,0.646,1.29,1.29,1.91,1.961,0.22,0.238.33,0.2,0.53,0,1.37-1.32,2.76-2.628,4.14-3.939a1.673,1.673,0,0,1,.47-0.36,0.7,0.7,0,0,1,1,.656A0.809,0.809,0,0,1,1731.36,256.161Z" transform="translate(-1717 -248)"/>
</svg>
