<svg xmlns="http://www.w3.org/2000/svg" width="127" height="113" viewBox="0 0 127 113">
  <defs>
    <style>
      .cls-1 {
        fill: #fff;
        fill-rule: evenodd;
      }
    </style>
  </defs>
  <path id="holidayTypes" class="cls-1" d="M84.18,13.9h8.526a8.063,8.063,0,0,1,7.972,8.133v1.911a3.986,3.986,0,1,0,7.971,0V15.784c0-8.969-7.152-10.019-15.943-10.019H84.18s-3.7.005-3.995,3.643C80.186,13.3,84.18,13.9,84.18,13.9ZM13.4,70.821V85.472A16.126,16.126,0,0,0,29.34,101.738H41.873a4.067,4.067,0,0,0,0-8.133H29.34a8.063,8.063,0,0,1-7.972-8.133V70.821C22.068,64.223,13.4,61.851,13.4,70.821ZM101.7,65.542c-1.181,5.064-2.306,9.824-3.38,14.6A2.512,2.512,0,0,0,98.56,81.5q4.889,12.231,9.819,24.444a4.326,4.326,0,0,1-.094,4.079,3.936,3.936,0,0,1-6.98-.331c-1.793-3.408-3.472-6.877-5.193-10.322-3.037-6.078-5.988-12.2-9.136-18.22a13.13,13.13,0,0,1-1.047-10.219c0.544-1.875.842-3.823,1.305-5.993-1.007.9-1.852,1.644-2.676,2.407-2.937,2.719-5.781,5.548-8.839,8.121-1.252,1.054-1.3,2.361-1.576,3.644-1.971,9.011-3.884,18.035-5.815,27.055a5.818,5.818,0,0,0-.217,1.065c-0.024,1.167-.65,1.412-1.724,1.13a4.852,4.852,0,0,0-2.011-3.623,6.554,6.554,0,0,0-2.808-.971c-2.332-.188-4,1.206-5.054,3.946-2.144-.316-3.421-3.326-3.008-5.108,1.082-4.667,2.159-9.338,3.38-13.969a6.68,6.68,0,0,1,6.455-4.764c1.956,0,3.912,0,5.959,0,0.517-2.065,1.028-4.1,1.535-6.132,0.105-.422.152-0.863,0.3-1.27a2.392,2.392,0,0,0-.158-2.231,2.878,2.878,0,0,1,.7-3.585c6.295-6.474,12.56-12.978,18.928-19.379a10.072,10.072,0,0,1,3.9-2.43,6.916,6.916,0,0,1,8.291,3.528c2.1,3.737,4.09,7.534,6.173,11.279a2.952,2.952,0,0,0,1.214,1.128c2.622,1.3,7.025,3.21,9.817,4.577a3.317,3.317,0,0,1,1.991,3.294,3.087,3.087,0,0,1-2.294,3.044,3.852,3.852,0,0,1-2.222-.041c-3.656-1.367-8.638-3.828-12.037-5.237a4.335,4.335,0,0,1-1.669-1.481C103.046,67.944,102.479,66.843,101.7,65.542ZM86.454,85.572c2.026,4.094,3.932,7.926,5.8,11.775a1.393,1.393,0,0,1-.026,1.017,4.518,4.518,0,0,1-.808,1.281c-3.349,3.688-6.689,7.385-10.091,11.023a3.95,3.95,0,0,1-6.272-.523,4.116,4.116,0,0,1,.421-4.957q3.948-4.938,7.873-9.895a3.5,3.5,0,0,0,.573-1.142C84.759,91.383,85.564,88.607,86.454,85.572Zm23.335-46.393a7.79,7.79,0,1,1-15.579-.031A7.79,7.79,0,1,1,109.789,39.179ZM61.318,111.964a3.1,3.1,0,0,1-3.094-3.214,3.385,3.385,0,0,1,3.3-3.341,3.5,3.5,0,0,1,3.2,3.49A3.229,3.229,0,0,1,61.318,111.964Zm5.04-72.335a22.883,22.883,0,0,1-2.529,5.985l7.486,7.376L62.976,61.2l-7.488-7.376a23.631,23.631,0,0,1-5.974,2.465V66.641H37.721v-10.3a23.6,23.6,0,0,1-6.175-2.516L24.059,61.2,15.72,52.99l7.488-7.376a22.908,22.908,0,0,1-2.53-5.985H10.007V28.011H20.678a22.866,22.866,0,0,1,2.529-5.984L15.72,14.651l8.34-8.215,7.486,7.376A23.634,23.634,0,0,1,37.721,11.3V1H49.514V11.349a23.619,23.619,0,0,1,5.975,2.464l7.488-7.376,8.339,8.215-7.488,7.376a22.866,22.866,0,0,1,2.529,5.984H76.933V39.629H66.357ZM43.518,45.437a11.619,11.619,0,1,0,0-23.235,11.845,11.845,0,0,0-6.8,2.137l-2.823,2.78a11.434,11.434,0,0,0-2.168,6.7A11.719,11.719,0,0,0,43.518,45.437Z" transform="translate(-2.5)"/>
</svg>
