<svg xmlns="http://www.w3.org/2000/svg" width="127" height="113" viewBox="0 0 127 113">
  <defs>
    <style>
      .cls-1 {
        fill: #fff;
        fill-rule: evenodd;
      }
    </style>
  </defs>
  <path id="leaveType" class="cls-1" d="M89.658,42.183a4.336,4.336,0,1,1-4.231,4.335A4.284,4.284,0,0,1,89.658,42.183ZM34.444,88.568a4.336,4.336,0,1,1,4.231-4.335A4.284,4.284,0,0,1,34.444,88.568Zm0-37.715a4.336,4.336,0,1,1,4.231-4.335A4.284,4.284,0,0,1,34.444,50.853Zm0,18.857a4.336,4.336,0,1,1,4.231-4.335A4.284,4.284,0,0,1,34.444,69.711Zm18.4,18.858a4.336,4.336,0,1,1,4.231-4.335A4.284,4.284,0,0,1,52.848,88.568Zm0-37.715a4.336,4.336,0,1,1,4.231-4.335A4.284,4.284,0,0,1,52.848,50.853Zm0.823,24.082a8.82,8.82,0,1,1,8.813-8.82A8.816,8.816,0,0,1,53.671,74.936Zm58.411-34.953a4.284,4.284,0,0,1-4.231-4.335V27.01a8.577,8.577,0,0,0-8.462-8.67h-5.5v4.335a4.232,4.232,0,1,1-8.462,0V18.34H66.176v4.335a4.232,4.232,0,1,1-8.462,0V18.34H38.674v4.335a4.232,4.232,0,1,1-8.462,0V18.34H24.924a8.577,8.577,0,0,0-8.462,8.67V94.638a8.578,8.578,0,0,0,8.462,8.67H57.291a4.336,4.336,0,0,1,0,8.67H24.924A17.155,17.155,0,0,1,8,94.638V27.01A17.155,17.155,0,0,1,24.924,9.67h5.289V5.335a4.232,4.232,0,1,1,8.462,0V9.67H57.714V5.335a4.232,4.232,0,1,1,8.462,0V9.67H85.427V5.335a4.232,4.232,0,1,1,8.462,0V9.67h5.5a17.155,17.155,0,0,1,16.924,17.34v8.638A4.284,4.284,0,0,1,112.082,39.983Zm-40.829,2.2a4.336,4.336,0,1,1-4.231,4.335A4.284,4.284,0,0,1,71.253,42.183ZM53.678,60.468a5.625,5.625,0,1,1-5.61,5.625A5.617,5.617,0,0,1,53.678,60.468Zm0,3.215a2.411,2.411,0,1,1-2.4,2.411A2.407,2.407,0,0,1,53.678,63.682Zm53.774,8.443c-1.021,4.337-1.994,8.414-2.924,12.5a2.139,2.139,0,0,0,.206,1.163q4.229,10.475,8.494,20.934a3.679,3.679,0,0,1-.082,3.494,3.42,3.42,0,0,1-6.037-.284c-1.551-2.919-3-5.889-4.492-8.84-2.627-5.205-5.179-10.45-7.9-15.6a11.147,11.147,0,0,1-.906-8.752c0.471-1.606.728-3.274,1.129-5.132-0.871.774-1.6,1.408-2.315,2.062-2.54,2.329-5,4.752-7.645,6.955-1.083.9-1.12,2.022-1.363,3.121-1.7,7.717-3.359,15.446-5.03,23.17a4.951,4.951,0,0,0-.187.912c-0.02,1-.562,1.21-1.491.968a4.145,4.145,0,0,0-1.739-3.1,5.712,5.712,0,0,0-2.428-.831c-2.017-.162-3.46,1.032-4.372,3.379-1.855-.27-2.959-2.848-2.6-4.374,0.936-4,1.867-8,2.923-11.963a5.771,5.771,0,0,1,5.583-4.08c1.692,0,3.383,0,5.154,0,0.447-1.769.889-3.51,1.327-5.252a11.174,11.174,0,0,1,.258-1.088,2.03,2.03,0,0,0-.137-1.911,2.448,2.448,0,0,1,.6-3.07c5.445-5.544,10.863-11.115,16.371-16.6a8.725,8.725,0,0,1,3.374-2.081,6.006,6.006,0,0,1,7.172,3.021c1.813,3.2,3.537,6.452,5.339,9.66a2.543,2.543,0,0,0,1.049.966c2.269,1.111,6.076,2.749,8.491,3.92A2.837,2.837,0,0,1,125,78.211a2.647,2.647,0,0,1-1.983,2.607,3.364,3.364,0,0,1-1.922-.035c-3.163-1.171-7.472-3.279-10.411-4.485a3.732,3.732,0,0,1-1.444-1.268C108.615,74.182,108.125,73.239,107.452,72.125ZM94.264,89.279c1.752,3.506,3.4,6.788,5.019,10.085a1.182,1.182,0,0,1-.022.871,3.855,3.855,0,0,1-.7,1.1c-2.9,3.159-5.786,6.325-8.728,9.441a3.436,3.436,0,0,1-5.425-.449,3.5,3.5,0,0,1,.364-4.244q3.414-4.23,6.81-8.475a2.983,2.983,0,0,0,.5-0.978C92.8,94.256,93.494,91.878,94.264,89.279Zm20.183-39.732a6.738,6.738,0,0,1-13.475-.027A6.738,6.738,0,1,1,114.447,49.547ZM72.523,111.882a2.671,2.671,0,0,1-2.676-2.753,2.912,2.912,0,0,1,2.857-2.861,3.012,3.012,0,0,1,2.767,2.989A2.783,2.783,0,0,1,72.523,111.882Zm-1.27-52.019A4.336,4.336,0,1,1,67.022,64.2,4.284,4.284,0,0,1,71.253,59.863Z" transform="translate(-3 0.016)"/>
</svg>
