<svg xmlns="http://www.w3.org/2000/svg" width="127" height="113" viewBox="0 0 127 113">
  <defs>
    <style>
      .cls-1 {
        fill: #fff;
        fill-rule: evenodd;
      }
    </style>
  </defs>
  <path id="salaryLess" class="cls-1" d="M69.573,9.5H99.434A9.4,9.4,0,0,1,108.724,19V47.728a4.646,4.646,0,1,0,9.29,0V11.7c0-10.467-8.335-11.692-18.58-11.692H69.573s-4.306.006-4.655,4.252C64.918,8.806,69.573,9.5,69.573,9.5ZM7.008,63.168V93.029a18.806,18.806,0,0,0,18.58,18.983H64.863a4.747,4.747,0,0,0,0-9.491H25.589a9.4,9.4,0,0,1-9.29-9.492V63.168C17.114,55.469,7.008,52.7,7.008,63.168ZM51.2,39.044c-1.477-2.688-3.815-3.841-6.513-4.45-3.71-.837-7.487-0.508-11.24-0.557-1.734-.023-1.922-0.2-1.924-1.9,0-1.66.017-3.32-.006-4.98a1.486,1.486,0,0,1,1.745-1.707q18.152,0.017,36.3,0a1.51,1.51,0,0,1,1.771,1.715c-0.017,1.291-.02,2.582,0,3.873a1.428,1.428,0,0,1-1.7,1.616C66.314,32.64,63,32.651,59.484,32.651a17.976,17.976,0,0,1,2.72,5.9c0.138,0.607.678,0.5,1.136,0.5,1.869,0,3.738-.009,5.607,0,1.989,0.011,2.382.393,2.382,2.279q0,1.522,0,3.043c0,1.529-.482,2.054-2.034,2.08-2.009.034-4.018,0-6.027,0.011-0.434,0-.8-0.121-0.943.612-1.436,7.242-6.282,11.333-13.095,13.5a17.825,17.825,0,0,1-4.816.895c1.7,1.9,3.365,3.73,4.994,5.585,3.618,4.118,7.281,8.2,10.728,12.462,1.446,1.788,2.951,3.531,4.453,5.274a1.586,1.586,0,0,1,.428,1.863,1.5,1.5,0,0,1-1.586.784c-2.617,0-5.233-.025-7.849.012a2.357,2.357,0,0,1-1.9-.963c-2.441-2.818-4.859-5.655-7.3-8.473-2.505-2.894-5-5.8-7.551-8.652-2.159-2.409-4.406-4.741-6.6-7.12a2.616,2.616,0,0,1-.739-1.981c0.068-1.657.028-3.319,0.017-4.979a1.152,1.152,0,0,1,1.356-1.321,51.445,51.445,0,0,0,8.1-.3c4.023-.5,7.87-1.464,10.118-5.316,0.115-.2.214-0.4,0.323-0.6,0.5-.911.464-1.322-0.823-1.306-5.513.066-11.026,0.03-16.54,0.027-2.123,0-2.529-.4-2.529-2.428V41.4c0-1.985.369-2.349,2.448-2.352q6.378-.009,12.755,0H51.2ZM66.5,62h27A1.5,1.5,0,0,1,95,63.5v3A1.5,1.5,0,0,1,93.5,68h-27A1.5,1.5,0,0,1,65,66.5v-3A1.5,1.5,0,0,1,66.5,62Z" transform="translate(1 0.5)"/>
</svg>
