<svg xmlns="http://www.w3.org/2000/svg" width="20" height="19.713" viewBox="0 0 68.989 68">
  <defs>
    <style>
      .cls-1 {
        fill: #2390ff;
        fill-rule: evenodd;
      }
    </style>
  </defs>
  <path id="attanGroup" class="cls-1" d="M913.854,391.162A11.083,11.083,0,1,1,914.048,369,11.083,11.083,0,0,1,913.854,391.162Zm4.721-15.687a1.261,1.261,0,0,0-1.448.478c-1.516,1.747-3.06,3.469-4.565,5.225-0.341.4-.535,0.405-0.884,0.017-0.59-.655-1.227-1.27-1.87-1.874a1.3,1.3,0,0,0-1.941-.07A1.2,1.2,0,0,0,908,381.1q1.557,1.605,3.154,3.174a1.338,1.338,0,0,0,2.195-.105c1.879-2.157,3.745-4.323,5.63-6.474a1.783,1.783,0,0,0,.479-1.006A1.3,1.3,0,0,0,918.575,375.475Zm-15.352,11.95a1.36,1.36,0,0,1-1.818.886,10.9,10.9,0,0,0-13.617,8.591,10.753,10.753,0,0,0,2.009,8.7c0.709,0.957.764,1.535,0.191,2.106-0.637.635-1.392,0.521-2.082-.356a12.933,12.933,0,0,1-2.8-6.994c-0.022-.243-0.045-0.486-0.067-0.728-0.587-6.749,4.952-13.422,11.713-14.192a14.037,14.037,0,0,1,5.231.387A1.378,1.378,0,0,1,903.223,387.425ZM900,384.075c-0.363-.032-0.728-0.05-1.363-0.092a14.7,14.7,0,0,0-11.989,6.049c-0.111.145-.214,0.3-0.333,0.434a1.275,1.275,0,0,1-2.061-1.5,13.5,13.5,0,0,1,2.848-3.185,16.744,16.744,0,0,1,13.207-4.209,1.234,1.234,0,0,1,1.323,1.472A1.311,1.311,0,0,1,900,384.075Zm0.127-3.894c-0.486.007-.973,0-1.459,0a15.586,15.586,0,0,0-10.318,3.613,1.863,1.863,0,0,1-1.416.7,1.341,1.341,0,0,1-1.154-.91,1.255,1.255,0,0,1,.518-1.432,18.575,18.575,0,0,1,8.351-4.187,21.067,21.067,0,0,1,5.529-.359A1.292,1.292,0,1,1,900.128,380.181Zm-1.6,9.035a9.753,9.753,0,0,1,9.642,9.477,1.3,1.3,0,1,1-2.564.079,6.99,6.99,0,0,0-4.451-6.453,6.764,6.764,0,0,0-7.386,1.326,7.1,7.1,0,0,0-1.573,8.434,19.834,19.834,0,0,0,3.757,5.461c0.764,0.813.844,1.536,0.2,2.136a1.381,1.381,0,0,1-2.06-.364c-2.2-2.464-4.192-5.07-4.948-8.379A9.621,9.621,0,0,1,898.532,389.216ZM892.9,400.659a6.187,6.187,0,0,1,4.291-7.346,5.771,5.771,0,0,1,7.128,5.459,4.782,4.782,0,0,0,.191,1.8,2.564,2.564,0,0,0,4.946-.845,11.294,11.294,0,0,0-1.338-5.786,1.637,1.637,0,0,1-.259-1.3,1.245,1.245,0,0,1,1.059-.894,1.265,1.265,0,0,1,1.332.745,14.858,14.858,0,0,1,1.8,7.336,4.8,4.8,0,0,1-3,4.462,5.118,5.118,0,0,1-7.275-4.358c-0.021-.456,0-0.918-0.062-1.367a3.213,3.213,0,0,0-3.341-2.854,3.368,3.368,0,0,0-3.006,3.243,7.49,7.49,0,0,0,2.354,5.546,8.307,8.307,0,0,0,4.439,3.016,1.12,1.12,0,0,1,.854,1.34,1.243,1.243,0,0,1-1.24,1.125,3.119,3.119,0,0,1-1.66-.423C896.478,407.6,893.844,404.788,892.9,400.659Zm4.291-1.882a1.381,1.381,0,0,1,.646-1.579,1.229,1.229,0,0,1,1.373.105,1.668,1.668,0,0,1,.554,1.469,7.637,7.637,0,0,0,4.786,6.531,6.487,6.487,0,0,0,.986.141,1.264,1.264,0,0,1,1.238,1.4,1.205,1.205,0,0,1-1.37,1.154,6.409,6.409,0,0,1-3.939-1.444A10.2,10.2,0,0,1,897.2,398.777Zm7.9-37.116h20.743a5.484,5.484,0,0,1,5.46,5.5v20.69a2.73,2.73,0,1,0,5.459,0V362.935c0-6.06-4.9-6.769-10.919-6.769H905.094a2.716,2.716,0,0,0-2.736,2.462A3.168,3.168,0,0,0,905.094,361.661Zm-33.576,27.79v20.566a10.968,10.968,0,0,0,10.92,10.99H907.52a2.748,2.748,0,0,0,0-5.5H882.438a5.484,5.484,0,0,1-5.46-5.5V389.451C877.457,384.994,871.518,383.391,871.518,389.451Zm20.894-15.412a2.6,2.6,0,0,1-2.021.961h-3.88a0.86,0.86,0,0,1,0-1.719h3.88a0.872,0.872,0,0,0,.687-0.327,0.893,0.893,0,0,0,.182-0.752,0.86,0.86,0,0,1,1.683-.351A2.614,2.614,0,0,1,892.412,374.039Zm-2.549-5.16a9.457,9.457,0,0,0-6.991-4.159l1.643,7.474a0.86,0.86,0,0,1-.232.792l-1.718,1.719a0.859,0.859,0,0,1-1.216,0l-1.718-1.719a0.857,0.857,0,0,1-.232-0.792l1.64-7.464a9.5,9.5,0,0,0-8.3,7.472,0.9,0.9,0,0,0,.182.752,0.874,0.874,0,0,0,.688.327h3.751a0.86,0.86,0,0,1,0,1.719h-3.751a2.61,2.61,0,0,1-2.552-3.149,11.172,11.172,0,0,1,7.447-8.327,5.843,5.843,0,1,1,6.994,0,11.176,11.176,0,0,1,5.792,4.4A0.859,0.859,0,1,1,889.863,368.879Zm-7.906,4,0.778-.779-0.778-3.541-0.779,3.541Zm4.167-14.038a4.125,4.125,0,1,0-4.325,4.12q0.1,0,.2,0t0.2,0A4.131,4.131,0,0,0,886.124,358.844ZM928.017,420a12,12,0,0,1-.043-24A12,12,0,1,1,928.017,420Zm0.53-21.691a9.71,9.71,0,1,0,9.114,9.725A9.722,9.722,0,0,0,928.547,398.309ZM931,411.962c-1.116-1.118-2.224-2.246-3.357-3.347a1.1,1.1,0,0,1-.359-0.9c0.022-1,.007-2.009.007-3.015,0-1.07.01-2.142-.006-3.212,0-.3.041-0.425,0.389-0.42,1,0.015,1,0,1,.987,0,1.747.01,3.494-.01,5.24a1.016,1.016,0,0,0,.345.806c1.1,1.084,2.185,2.192,3.292,3.273,0.235,0.229.229,0.349,0,.573C931.634,412.6,931.645,412.606,931,411.962Z" transform="translate(-871.005 -353)"/>
</svg>
