<svg xmlns="http://www.w3.org/2000/svg" width="20.002" height="20" viewBox="0 0 73 72.993">
  <defs>
    <style>
      .cls-1 {
        fill: #2390ff;
        fill-rule: evenodd;
      }
    </style>
  </defs>
  <path id="holiday" class="cls-1" d="M743.949,249.624a2.7,2.7,0,1,1-2.64,2.7A2.669,2.669,0,0,1,743.949,249.624Zm-34.45,28.86a2.7,2.7,0,1,1,2.64-2.7A2.669,2.669,0,0,1,709.5,278.484Zm0-23.466a2.7,2.7,0,1,1,2.64-2.7A2.669,2.669,0,0,1,709.5,255.018Zm0,11.733a2.7,2.7,0,1,1,2.64-2.7A2.669,2.669,0,0,1,709.5,266.751Zm11.483,11.733a2.7,2.7,0,1,1,2.64-2.7A2.669,2.669,0,0,1,720.982,278.484Zm0-23.466a2.7,2.7,0,1,1,2.64-2.7A2.669,2.669,0,0,1,720.982,255.018ZM721.5,270a5.488,5.488,0,1,1,5.5-5.488A5.493,5.493,0,0,1,721.5,270Zm36.445-21.747a2.67,2.67,0,0,1-2.64-2.7v-5.374a5.344,5.344,0,0,0-5.28-5.394h-3.431v2.7a2.641,2.641,0,1,1-5.28,0v-2.7H729.3v2.7a2.641,2.641,0,1,1-5.28,0v-2.7H712.139v2.7a2.641,2.641,0,1,1-5.28,0v-2.7h-3.3a5.344,5.344,0,0,0-5.279,5.394V282.26a5.344,5.344,0,0,0,5.279,5.394h20.2a2.7,2.7,0,0,1,0,5.395h-20.2A10.688,10.688,0,0,1,693,282.26V240.183a10.688,10.688,0,0,1,10.559-10.789h3.3v-2.7a2.641,2.641,0,1,1,5.28,0v2.7h11.879v-2.7a2.641,2.641,0,1,1,5.28,0v2.7h12.011v-2.7a2.641,2.641,0,1,1,5.28,0v2.7h3.431a10.688,10.688,0,0,1,10.56,10.789v5.374A2.67,2.67,0,0,1,757.94,248.255Zm-25.475,1.369a2.7,2.7,0,1,1-2.639,2.7A2.669,2.669,0,0,1,732.465,249.624ZM721.5,261a3.5,3.5,0,1,1-3.5,3.5A3.5,3.5,0,0,1,721.5,261Zm0,2a1.5,1.5,0,1,1-1.5,1.5A1.5,1.5,0,0,1,721.5,263Zm33.551,5.253c-0.637,2.7-1.244,5.235-1.824,7.778a1.325,1.325,0,0,0,.129.723q2.637,6.517,5.3,13.025a2.283,2.283,0,0,1-.051,2.174,2.137,2.137,0,0,1-3.767-.177c-0.967-1.815-1.873-3.664-2.8-5.5-1.639-3.238-3.232-6.5-4.93-9.708a6.915,6.915,0,0,1-.565-5.446c0.293-1,.454-2.037.7-3.193-0.543.482-1,.876-1.444,1.283-1.585,1.449-3.12,2.956-4.77,4.327a2.923,2.923,0,0,0-.85,1.942c-1.064,4.8-2.1,9.61-3.139,14.417a3.073,3.073,0,0,0-.117.567c-0.012.622-.35,0.752-0.93,0.6a2.58,2.58,0,0,0-1.085-1.93,3.563,3.563,0,0,0-1.515-.517c-1.259-.1-2.159.642-2.728,2.1A2.408,2.408,0,0,1,729.043,288c0.584-2.487,1.165-4.975,1.824-7.443a3.6,3.6,0,0,1,3.483-2.539c1.056,0,2.111,0,3.216,0,0.279-1.1.555-2.184,0.828-3.268a6.858,6.858,0,0,1,.161-0.676,1.263,1.263,0,0,0-.085-1.189,1.519,1.519,0,0,1,.375-1.91c3.4-3.45,6.778-6.916,10.214-10.326a5.458,5.458,0,0,1,2.105-1.3,3.752,3.752,0,0,1,4.475,1.88c1.131,1.992,2.207,4.015,3.331,6.01a1.578,1.578,0,0,0,.655.6c1.415,0.692,3.791,1.711,5.3,2.439A1.766,1.766,0,0,1,766,272.039a1.647,1.647,0,0,1-1.238,1.622,2.09,2.09,0,0,1-1.2-.022c-1.973-.728-4.662-2.039-6.5-2.79a2.329,2.329,0,0,1-.9-0.789C755.777,269.532,755.471,268.946,755.051,268.253Zm-8.228,10.673c1.093,2.181,2.122,4.223,3.131,6.274a0.727,0.727,0,0,1-.014.542,2.375,2.375,0,0,1-.436.682c-1.807,1.966-3.61,3.936-5.446,5.874a2.147,2.147,0,0,1-3.384-.279,2.17,2.17,0,0,1,.227-2.641q2.13-2.631,4.248-5.272a1.867,1.867,0,0,0,.31-0.609C745.908,282.022,746.342,280.543,746.823,278.926Zm12.593-24.721a4.2,4.2,0,0,1-8.408-.017A4.2,4.2,0,0,1,759.416,254.205Zm-26.158,38.784a1.664,1.664,0,0,1-1.67-1.713,1.816,1.816,0,0,1,1.783-1.78,1.877,1.877,0,0,1,1.727,1.86A1.736,1.736,0,0,1,733.258,292.989Zm-0.793-32.365a2.7,2.7,0,1,1-2.639,2.7A2.669,2.669,0,0,1,732.465,260.624Z" transform="translate(-693 -222.035)"/>
</svg>
