<svg xmlns="http://www.w3.org/2000/svg" width="20" height="20" viewBox="0 0 64 64">
  <defs>
    <style>
      .cls-1 {
        fill: #2390ff;
        fill-rule: evenodd;
      }
    </style>
  </defs>
  <path id="leavePolicy" class="cls-1" d="M479.054,161.255c-0.638,2.7-1.246,5.235-1.826,7.777a1.327,1.327,0,0,0,.129.724q2.64,6.518,5.3,13.025a2.28,2.28,0,0,1-.052,2.174,2.139,2.139,0,0,1-3.769-.177c-0.968-1.816-1.874-3.664-2.8-5.5-1.64-3.238-3.234-6.5-4.933-9.708a6.911,6.911,0,0,1-.566-5.446c0.294-1,.455-2.037.7-3.193-0.544.482-1,.876-1.445,1.283-1.586,1.449-3.122,2.956-4.773,4.327a2.924,2.924,0,0,0-.851,1.942c-1.064,4.8-2.1,9.61-3.14,14.416a2.942,2.942,0,0,0-.117.568c-0.013.622-.351,0.752-0.932,0.6a2.572,2.572,0,0,0-1.085-1.93,3.573,3.573,0,0,0-1.517-.518c-1.259-.1-2.16.643-2.729,2.1A2.408,2.408,0,0,1,453.028,181c0.584-2.487,1.165-4.976,1.825-7.443a3.6,3.6,0,0,1,3.485-2.539c1.057,0,2.113,0,3.218,0,0.28-1.1.556-2.184,0.829-3.268a6.858,6.858,0,0,1,.161-0.676,1.26,1.26,0,0,0-.085-1.189,1.519,1.519,0,0,1,.375-1.91c3.4-3.45,6.783-6.916,10.221-10.326a5.458,5.458,0,0,1,2.107-1.3,3.754,3.754,0,0,1,4.477,1.88c1.133,1.992,2.209,4.015,3.334,6.01a1.578,1.578,0,0,0,.655.6c1.416,0.692,3.794,1.711,5.3,2.439a1.767,1.767,0,0,1,1.075,1.755,1.648,1.648,0,0,1-1.239,1.622,2.094,2.094,0,0,1-1.2-.022c-1.975-.728-4.665-2.039-6.5-2.79a2.325,2.325,0,0,1-.9-0.789C479.779,162.534,479.473,161.948,479.054,161.255Zm-8.234,10.673c1.093,2.181,2.123,4.223,3.133,6.274a0.727,0.727,0,0,1-.014.542,2.388,2.388,0,0,1-.436.682c-1.809,1.965-3.613,3.935-5.45,5.874a2.15,2.15,0,0,1-3.387-.279,2.172,2.172,0,0,1,.228-2.641q2.131-2.631,4.251-5.272a1.867,1.867,0,0,0,.31-0.609C469.9,175.024,470.339,173.545,470.82,171.928Zm12.6-24.721a4.207,4.207,0,0,1-8.413-.017A4.207,4.207,0,0,1,483.421,147.207Zm-26.175,38.784a1.665,1.665,0,0,1-1.671-1.713,1.816,1.816,0,0,1,1.783-1.78,1.875,1.875,0,0,1,1.728,1.859A1.735,1.735,0,0,1,457.246,185.991ZM448.111,185H433V122h48v15.994c0,2.306-3.74,2.406-3.74,0V125.72H436.74v55.559h11.471C451.5,181.279,451.073,185,448.111,185ZM457,135.765H441.976v-3.72H457v3.72Zm14.661,9.425H442.339v-3.72h29.322v3.72Zm-3,7.689H442.339v-3.72h26.322v3.72Zm-6,7.689H442.339v-3.72h20.322v3.72Zm-4,7.689H442.339v-3.72h16.322v3.72Zm-7.459,7.689h-8.863v-3.72H451.2v3.72Z" transform="translate(-429.5 -122)"/>
</svg>
