<svg xmlns="http://www.w3.org/2000/svg" width="19.626" height="19.999" viewBox="0 0 65.75 67">
  <defs>
    <style>
      .cls-1 {
        fill: #2390ff;
        fill-rule: evenodd;
      }
    </style>
  </defs>
  <path id="Payband" class="cls-1" d="M263.094,243.661h20.743a5.484,5.484,0,0,1,5.46,5.5v17.69a2.73,2.73,0,1,0,5.459,0V244.935c0-6.06-4.9-6.769-10.919-6.769H263.094a2.715,2.715,0,0,0-2.736,2.462A3.168,3.168,0,0,0,263.094,243.661Zm-33.576,25.79v22.566a10.968,10.968,0,0,0,10.92,10.99H263.52a2.748,2.748,0,0,0,0-5.5H240.438a5.484,5.484,0,0,1-5.46-5.5V269.451C235.457,264.994,229.518,263.391,229.518,269.451Zm32.356-7.633a5.332,5.332,0,0,0-3.828-2.576,32.007,32.007,0,0,0-6.606-.322c-1.018-.014-1.129-0.114-1.13-1.1,0-.961.01-1.922,0-2.883a0.867,0.867,0,0,1,1.026-.988q10.668,0.009,21.336,0a0.882,0.882,0,0,1,1.041.993c-0.01.747-.012,1.495,0,2.242a0.834,0.834,0,0,1-1,.936c-1.949-.01-3.9,0-5.963,0a10.344,10.344,0,0,1,1.6,3.413c0.081,0.352.4,0.289,0.667,0.289,1.1,0,2.2,0,3.295,0,1.17,0.006,1.4.227,1.4,1.319q0,0.88,0,1.762a1,1,0,0,1-1.195,1.2c-1.18.019-2.361,0-3.542,0.006-0.255,0-.469-0.07-0.554.354-0.844,4.193-3.692,6.561-7.7,7.816a10.578,10.578,0,0,1-2.83.518c1,1.1,1.977,2.16,2.935,3.234,2.126,2.384,4.279,4.746,6.3,7.214,0.85,1.036,1.735,2.044,2.618,3.054a0.909,0.909,0,0,1,.251,1.078,0.886,0.886,0,0,1-.932.454c-1.537,0-3.075-.014-4.613.007a1.39,1.39,0,0,1-1.113-.558c-1.435-1.631-2.856-3.273-4.29-4.9-1.473-1.676-2.936-3.359-4.438-5.009-1.269-1.395-2.589-2.745-3.879-4.122a1.5,1.5,0,0,1-.434-1.147c0.04-.96.016-1.922,0.01-2.883a0.671,0.671,0,0,1,.8-0.764,30.719,30.719,0,0,0,4.759-.177c2.364-.29,4.625-0.847,5.946-3.077,0.068-.114.126-0.233,0.19-0.349,0.293-.528.273-0.765-0.483-0.756-3.24.038-6.481,0.017-9.721,0.016-1.248,0-1.486-.229-1.486-1.406v-1.522c0-1.149.217-1.36,1.438-1.362q3.749,0,7.5,0h2.629ZM293,299c-0.981,1.64-4.9,1.382-4.5,1.123a25.907,25.907,0,0,1-4.263.259s-5.584.7-9.142-.989c0,0-.5-0.128-0.524-1.369,0,0,.183-6.43,1.73-8.868a3.452,3.452,0,0,1,1.489-1.069s3.58-1.155,3.824-2.138c0,0,2.64,7.268,6.116-.024,0,0,.013.661,1.782,1.326a13.709,13.709,0,0,1,2.929,1.409C294.05,292.1,294.143,297.086,293,299Zm-3.472-19.308a2.514,2.514,0,0,1,0,1.72,1.633,1.633,0,0,1-.382.876c-0.382,2.383-2.355,4.98-4.522,4.98-1.857,0-3.894-2.4-4.258-4.985a1.649,1.649,0,0,1-.376-0.873,2.5,2.5,0,0,1,0-1.718,0.591,0.591,0,0,1,.139-0.139,7.384,7.384,0,0,1-.024-3.318,5.439,5.439,0,0,1,2.913-3.1A1.8,1.8,0,0,1,283.75,273a0.736,0.736,0,0,0,.275-0.035,0.412,0.412,0,0,1,.152-0.014,10.377,10.377,0,0,1,1.848.454l0.676,0.25a4.328,4.328,0,0,1,2.188,1.433c1.187,1.431.854,3.533,0.592,4.55C289.5,279.654,289.512,279.672,289.528,279.692Zm-1.238-4.063c-0.006-.01-0.017-0.02-0.026-0.032a3.625,3.625,0,0,0-1.8-1.148l-0.681-.248a10.293,10.293,0,0,0-1.623-.407,1.474,1.474,0,0,1-.518.037,1.221,1.221,0,0,0-.345.086,4.689,4.689,0,0,0-2.445,2.588c0,0.013-.008.025-0.013,0.035a7.723,7.723,0,0,0,.14,3.3,0.434,0.434,0,0,1-.144.411,0.389,0.389,0,0,1-.212.089,4.277,4.277,0,0,0,.138.869,0.386,0.386,0,0,1,.009.049,0.766,0.766,0,0,0,.206.481,0.419,0.419,0,0,1,.157.287c0.25,2.179,2.012,4.4,3.493,4.4,1.758,0,3.5-2.415,3.759-4.413a0.443,0.443,0,0,1,.157-0.28,0.737,0.737,0,0,0,.208-0.479l0.009-.048a3.96,3.96,0,0,0,.139-0.914,0.382,0.382,0,0,1-.18-0.116,0.437,0.437,0,0,1-.091-0.424C288.823,279.118,289.386,276.943,288.29,275.629Zm-38-26.049h-1.9a9.723,9.723,0,1,1-10.728-10.637v-1.887a1.052,1.052,0,0,1,1.057-1.048,12.592,12.592,0,0,1,12.631,12.523A1.053,1.053,0,0,1,250.291,249.58Zm-11.573,0a1.053,1.053,0,0,1-1.057-1.049v-7.475a7.553,7.553,0,1,0,8.6,8.524h-7.539Z" transform="translate(-229 -236)"/>
</svg>
