<svg xmlns="http://www.w3.org/2000/svg" width="20.003" height="20.32" viewBox="0 0 63 64">
  <defs>
    <style>
      .cls-1 {
        fill: #2390ff;
        fill-rule: evenodd;
      }
    </style>
  </defs>
  <path id="salaryD" class="cls-1" d="M469.509,486.424h16.946a5.355,5.355,0,0,1,5.273,5.428v16.416a2.637,2.637,0,1,0,5.272.11v-20.7c0-5.981-4.731-6.681-10.545-6.681H469.509a2.633,2.633,0,0,0-2.642,2.43A3.089,3.089,0,0,0,469.509,486.424ZM434,517.09v17.063A10.711,10.711,0,0,0,444.546,545h22.29a2.713,2.713,0,0,0,0-5.423H444.547a5.355,5.355,0,0,1-5.272-5.424V517.09C439.737,512.691,434,511.109,434,517.09Zm25.08-13.785a5.151,5.151,0,0,0-3.7-2.542,30.183,30.183,0,0,0-6.378-.319c-0.985-.013-1.091-0.114-1.092-1.085,0-.949.009-1.9,0-2.846a0.85,0.85,0,0,1,.691-0.979,0.864,0.864,0,0,1,.3,0q10.3,0.009,20.6,0a0.858,0.858,0,0,1,1,.688,0.868,0.868,0,0,1,0,.292c-0.009.737-.011,1.475,0,2.213a0.814,0.814,0,0,1-.677.93,0.791,0.791,0,0,1-.287-0.007c-1.884-.008-3.765,0-5.76,0a10.3,10.3,0,0,1,1.544,3.372c0.078,0.347.384,0.285,0.644,0.285,1.061,0,2.122-.005,3.182,0,1.129,0.007,1.352.225,1.352,1.3v1.739a0.974,0.974,0,0,1-1.154,1.188c-1.14.019-2.28,0-3.421,0.006-0.246,0-.454-0.069-0.535.35-0.815,4.138-3.565,6.476-7.431,7.714a10.069,10.069,0,0,1-2.734.511c0.965,1.086,1.91,2.132,2.835,3.192,2.053,2.353,4.132,4.685,6.088,7.121,0.821,1.021,1.675,2.017,2.527,3.013a0.912,0.912,0,0,1,.243,1.065,0.851,0.851,0,0,1-.9.448c-1.485,0-2.97-.014-4.454.007a1.336,1.336,0,0,1-1.079-.551c-1.385-1.61-2.757-3.231-4.143-4.841-1.421-1.654-2.837-3.314-4.285-4.944-1.225-1.377-2.5-2.709-3.746-4.068a1.5,1.5,0,0,1-.419-1.132c0.039-.947.016-1.9,0.01-2.845a0.657,0.657,0,0,1,.537-0.758,0.646,0.646,0,0,1,.232,0,29.05,29.05,0,0,0,4.6-.172c2.283-.285,4.466-0.836,5.742-3.037,0.066-.115.122-0.229,0.184-0.343,0.283-.521.263-0.756-0.467-0.746-3.129.037-6.258,0.017-9.387,0.015-1.205,0-1.435-.229-1.435-1.387v-1.508c0-1.135.209-1.343,1.389-1.344q3.62-.006,7.238,0h2.545v0Zm23.665,11.061h-5.278v-5.314a1.759,1.759,0,1,0-3.518,0v5.314h-5.278a1.771,1.771,0,0,0,0,3.542h5.278v5.314a1.759,1.759,0,1,0,3.518,0v-5.314h5.278a1.771,1.771,0,0,0,0-3.542h0Z" transform="translate(-434 -481)"/>
</svg>
