<svg xmlns="http://www.w3.org/2000/svg" width="19.713" height="19.999" viewBox="0 0 69 70">
  <defs>
    <style>
      .cls-1 {
        fill: #2390ff;
        fill-rule: evenodd;
      }
    </style>
  </defs>
  <path id="salaryA" class="cls-1" d="M576.89,483.932h18.561a5.86,5.86,0,0,1,5.774,5.938v17.954a2.888,2.888,0,1,0,5.774.12q0-.06,0-0.12V485.307c0-6.541-5.18-7.307-11.548-7.307H576.89A2.883,2.883,0,0,0,574,480.657,3.379,3.379,0,0,0,576.89,483.932ZM538,517.474v18.662A11.723,11.723,0,0,0,549.551,548h24.412a2.967,2.967,0,0,0,0-5.932H549.551a5.859,5.859,0,0,1-5.774-5.932V517.474C544.283,512.662,538,510.931,538,517.474ZM565.47,502.4a5.64,5.64,0,0,0-4.048-2.782,33.2,33.2,0,0,0-6.987-.348c-1.077-.014-1.194-0.125-1.195-1.187,0-1.038.01-2.075,0-3.112a0.923,0.923,0,0,1,1.084-1.067q11.283,0.011,22.563,0a0.938,0.938,0,0,1,1.1.753,0.949,0.949,0,0,1,0,.319c-0.01.806-.012,1.613,0,2.42a0.891,0.891,0,0,1-.742,1.018,0.878,0.878,0,0,1-.315-0.008c-2.063-.009-4.122,0-6.308,0a11.252,11.252,0,0,1,1.691,3.688c0.086,0.379.421,0.312,0.706,0.312,1.162,0,2.323-.006,3.485,0,1.236,0.007,1.481.246,1.481,1.424v1.9a1.067,1.067,0,0,1-1.265,1.3c-1.248.021-2.5,0-3.746,0.007-0.27,0-.5-0.076-0.586.382-0.893,4.527-3.9,7.083-8.139,8.438a11.031,11.031,0,0,1-2.994.559c1.057,1.187,2.092,2.331,3.1,3.491,2.249,2.573,4.526,5.124,6.668,7.788,0.9,1.117,1.835,2.207,2.768,3.3a0.994,0.994,0,0,1,.266,1.164,0.929,0.929,0,0,1-.986.49c-1.626,0-3.252-.015-4.878.008a1.462,1.462,0,0,1-1.181-.6c-1.517-1.761-3.02-3.534-4.538-5.295-1.557-1.809-3.107-3.625-4.693-5.408-1.342-1.5-2.739-2.963-4.1-4.45a1.637,1.637,0,0,1-.46-1.238c0.043-1.035.018-2.074,0.011-3.111a0.719,0.719,0,0,1,.588-0.829,0.705,0.705,0,0,1,.255,0,31.827,31.827,0,0,0,5.034-.187c2.5-.313,4.892-0.915,6.289-3.323,0.072-.125.133-0.25,0.2-0.375,0.311-.569.289-0.826-0.511-0.816-3.427.041-6.854,0.019-10.281,0.017-1.32,0-1.572-.25-1.572-1.518v-1.649c0-1.241.229-1.468,1.522-1.47q3.963-.006,7.928,0h2.786v0Zm9.51,14.347h16.782a0.935,0.935,0,0,1,.933.937h0v1.875a0.935,0.935,0,0,1-.933.937H574.98a0.934,0.934,0,0,1-.932-0.937v-1.875a0.934,0.934,0,0,1,.932-0.937h0Z" transform="translate(-538 -478)"/>
</svg>
